<svg width="169" height="177" viewBox="0 0 169 177" fill="none" xmlns="http://www.w3.org/2000/svg">
<path d="M45.1661 44.2169L89.7983 37.2769C101.03 35.5305 111.849 43.3221 114.069 54.7561L125.299 112.593C127.6 124.444 119.786 135.544 108.091 137.036L61.6757 142.959L45.1661 44.2169Z" fill="#D3D3D3"/>
<path d="M45.3283 44.5693L91.957 37.5423C103.456 35.8094 114.42 44.0457 116.269 55.8052L125.287 113.179C127.11 124.776 119.362 135.374 107.982 136.847L61.3233 142.89L45.3283 44.5693Z" fill="#E2E2E2"/>
<path d="M44.6575 43.8793L94.3157 37.5912C105.669 36.1535 116.327 44.3441 118.151 55.9089L127.133 112.859C128.963 124.46 121.213 135.065 109.83 136.539L61.0306 142.858L44.6575 43.8793Z" fill="#EDEDED"/>
<path d="M47.3569 44.501L95.6639 38.2152C107.296 36.7016 118.154 45.299 119.639 57.1977L126.663 113.504C128.083 124.885 120.371 135.073 109.245 136.516L60.6429 142.82L47.3569 44.501Z" fill="#F5F5F5"/>
<g clip-path="url(#clip0_217_546)">
<g clip-path="url(#clip1_217_546)">
<g filter="url(#filter0_dd_217_546)">
<rect width="66.6434" height="582.253" transform="matrix(0.624322 0.196185 0.110254 1.03645 44.639 43.8511)" fill="#FFC100"/>
</g>
</g>
</g>
<g clip-path="url(#clip2_217_546)">
<rect width="4.97044" height="96.0312" transform="matrix(0.624322 0.196185 0.110254 1.03645 44.6521 43.8542)" fill="url(#paint0_linear_217_546)" fill-opacity="0.5"/>
<path d="M44.5282 40.8665L55.7617 146.467" stroke="white" stroke-opacity="0.16" stroke-width="1.05226"/>
<path d="M44.3361 40.8063L55.5695 146.407" stroke="white" stroke-opacity="0.16" stroke-width="2.10453"/>
</g>
<g filter="url(#filter1_d_217_546)">
<g clip-path="url(#clip3_217_546)">
<rect width="72.6379" height="97.5258" transform="matrix(0.995631 -0.0908421 0.107907 0.994478 47.7261 44.9315)" fill="url(#paint1_linear_217_546)" fill-opacity="0.5"/>
<path d="M52.083 41.5778L63.2932 144.891" stroke="white" stroke-opacity="0.16" stroke-width="1.05227"/>
<path d="M47.606 41.9863L58.8161 145.3" stroke="white" stroke-opacity="0.16" stroke-width="2.10453"/>
</g>
<g clip-path="url(#clip4_217_546)">
<rect width="72.6379" height="97.5601" transform="matrix(0.995631 -0.0908421 0.107907 0.994478 47.7261 44.9315)" fill="url(#paint2_linear_217_546)" fill-opacity="0.5"/>
<path d="M52.083 41.5778L63.2932 144.891" stroke="white" stroke-opacity="0.16" stroke-width="1.05227"/>
<path d="M47.606 41.9863L58.8161 145.3" stroke="white" stroke-opacity="0.16" stroke-width="2.10453"/>
</g>
</g>
<rect x="0.549275" y="0.435674" width="72.2989" height="99.1185" transform="matrix(0.992406 -0.123003 0.106143 0.994351 47.6954 44.8798)" fill="#2F3234" stroke="white"/>
<path d="M69.3871 133.066L69.2327 131.62L69.7204 131.56C69.8337 131.546 69.9284 131.555 70.0047 131.587C70.0814 131.618 70.1408 131.666 70.183 131.731C70.2251 131.796 70.2508 131.871 70.2599 131.956C70.269 132.042 70.2598 132.121 70.2325 132.195C70.2056 132.269 70.1585 132.331 70.091 132.382C70.0235 132.432 69.9336 132.463 69.8213 132.477L69.4717 132.521L69.4551 132.365L69.799 132.323C69.8766 132.313 69.9374 132.292 69.9815 132.259C70.0256 132.227 70.0558 132.186 70.0721 132.138C70.0888 132.089 70.0941 132.036 70.0879 131.978C70.0817 131.92 70.0654 131.869 70.0389 131.826C70.0128 131.783 69.9747 131.752 69.9245 131.732C69.8742 131.711 69.8099 131.706 69.7314 131.716L69.4241 131.754L69.5619 133.045L69.3871 133.066ZM70.9457 132.899C70.8771 132.907 70.8135 132.902 70.7548 132.883C70.6961 132.864 70.6476 132.831 70.6094 132.786C70.5712 132.74 70.5483 132.682 70.5408 132.611C70.5342 132.549 70.541 132.497 70.5613 132.456C70.5816 132.414 70.611 132.379 70.6495 132.352C70.688 132.325 70.7314 132.303 70.7795 132.286C70.8281 132.268 70.8772 132.253 70.9268 132.24C70.9917 132.224 71.0443 132.211 71.0848 132.201C71.1256 132.191 71.1549 132.18 71.1725 132.167C71.1906 132.154 71.1982 132.134 71.1954 132.107L71.1948 132.101C71.1873 132.031 71.1625 131.98 71.1203 131.946C71.0786 131.912 71.0195 131.9 70.9429 131.909C70.8635 131.919 70.8031 131.944 70.7617 131.984C70.7203 132.025 70.6925 132.066 70.6784 132.108L70.5145 132.071C70.5357 132.001 70.5678 131.945 70.6109 131.903C70.6544 131.86 70.7033 131.828 70.7576 131.806C70.8124 131.784 70.8671 131.77 70.9216 131.763C70.9563 131.758 70.9967 131.758 71.0427 131.761C71.0892 131.763 71.1349 131.774 71.1799 131.794C71.2254 131.815 71.2649 131.849 71.2986 131.896C71.3323 131.944 71.3537 132.011 71.3629 132.097L71.4392 132.812L71.2729 132.833L71.2572 132.686L71.2487 132.687C71.24 132.712 71.2239 132.739 71.2004 132.769C71.177 132.799 71.1444 132.827 71.1027 132.851C71.061 132.875 71.0087 132.891 70.9457 132.899ZM70.9551 132.746C71.0209 132.738 71.075 132.718 71.1173 132.687C71.1601 132.655 71.1909 132.617 71.2095 132.574C71.2286 132.53 71.2358 132.485 71.231 132.44L71.2147 132.287C71.2085 132.297 71.1938 132.307 71.1706 132.317C71.1478 132.326 71.1212 132.335 71.0908 132.344C71.0607 132.353 71.0313 132.361 71.0026 132.368C70.9743 132.375 70.9513 132.381 70.9337 132.385C70.8911 132.396 70.8517 132.41 70.8154 132.428C70.7796 132.445 70.7515 132.467 70.7312 132.495C70.7112 132.522 70.7035 132.557 70.708 132.599C70.7142 132.657 70.7403 132.698 70.7862 132.723C70.8326 132.747 70.8889 132.754 70.9551 132.746ZM71.7428 132.774L71.627 131.69L71.7877 131.67L71.8052 131.834L71.8165 131.832C71.8305 131.776 71.8616 131.728 71.9097 131.688C71.9578 131.648 72.0143 131.625 72.0791 131.616C72.0913 131.615 72.1066 131.613 72.125 131.611C72.1434 131.61 72.1573 131.609 72.1668 131.608L72.1849 131.778C72.1791 131.777 72.166 131.777 72.1455 131.776C72.1254 131.776 72.1043 131.776 72.0822 131.779C72.0296 131.786 71.9838 131.803 71.9448 131.83C71.9062 131.857 71.877 131.891 71.8572 131.932C71.8378 131.973 71.8307 132.018 71.8359 132.067L71.9092 132.754L71.7428 132.774ZM72.9042 131.531L72.9193 131.673L72.3582 131.742L72.3431 131.601L72.9042 131.531ZM72.4789 131.321L72.6453 131.3L72.7556 132.334C72.7606 132.381 72.7712 132.416 72.7874 132.437C72.8039 132.459 72.8234 132.472 72.8459 132.477C72.8688 132.482 72.8925 132.483 72.9169 132.48C72.9352 132.478 72.9502 132.475 72.9617 132.472C72.9732 132.468 72.9824 132.465 72.9893 132.463L73.0391 132.608C73.0283 132.614 73.013 132.62 72.9932 132.627C72.9735 132.634 72.9482 132.639 72.9172 132.643C72.8702 132.649 72.823 132.645 72.7758 132.63C72.729 132.615 72.6886 132.589 72.6545 132.551C72.621 132.513 72.6008 132.463 72.5941 132.4L72.4789 131.321ZM74.3155 132.476C74.2224 132.487 74.1378 132.481 74.0615 132.458C73.9857 132.435 73.9234 132.398 73.8746 132.346C73.8262 132.294 73.796 132.23 73.7842 132.155L73.9618 132.133C73.9705 132.179 73.9908 132.217 74.0226 132.248C74.0544 132.278 74.094 132.299 74.1416 132.312C74.1891 132.325 74.2406 132.327 74.2961 132.321C74.3581 132.313 74.4119 132.295 74.4575 132.268C74.5031 132.24 74.5375 132.205 74.5606 132.163C74.5838 132.121 74.5926 132.075 74.5872 132.024C74.5815 131.971 74.5634 131.926 74.5327 131.888C74.502 131.851 74.4601 131.823 74.4069 131.807C74.3537 131.79 74.2904 131.786 74.2171 131.795L74.1015 131.809L74.0849 131.654L74.2005 131.64C74.2579 131.633 74.307 131.616 74.348 131.59C74.3895 131.564 74.4205 131.53 74.4409 131.49C74.4618 131.449 74.4695 131.403 74.4641 131.352C74.4589 131.303 74.4435 131.262 74.418 131.229C74.3925 131.195 74.359 131.171 74.3173 131.155C74.2762 131.14 74.229 131.135 74.1759 131.142C74.1261 131.148 74.0801 131.163 74.0379 131.187C73.9961 131.21 73.9632 131.241 73.9392 131.279C73.915 131.316 73.9044 131.359 73.9072 131.407L73.738 131.428C73.7327 131.352 73.7484 131.283 73.7851 131.22C73.8217 131.158 73.8729 131.106 73.9385 131.065C74.0047 131.025 74.0793 130.999 74.1625 130.989C74.2518 130.978 74.3303 130.987 74.3981 131.015C74.4658 131.043 74.5199 131.084 74.5605 131.139C74.6011 131.193 74.625 131.255 74.6323 131.323C74.641 131.404 74.6271 131.476 74.5904 131.539C74.5543 131.602 74.501 131.649 74.4305 131.68L74.4317 131.691C74.5245 131.695 74.5998 131.725 74.6577 131.781C74.7156 131.837 74.7494 131.911 74.7592 132.003C74.7676 132.081 74.7537 132.155 74.7177 132.223C74.682 132.29 74.6294 132.346 74.5599 132.391C74.4905 132.436 74.409 132.464 74.3155 132.476ZM76.0926 132.258C75.9949 132.27 75.9067 132.258 75.8279 132.22C75.7496 132.183 75.6854 132.125 75.6351 132.046C75.5852 131.967 75.5543 131.872 75.5424 131.76C75.5303 131.647 75.5402 131.545 75.5721 131.456C75.6045 131.367 75.6548 131.294 75.7231 131.239C75.7919 131.183 75.8752 131.149 75.9729 131.137C76.0707 131.125 76.1587 131.137 76.237 131.175C76.3157 131.212 76.38 131.271 76.4299 131.35C76.4802 131.429 76.5114 131.525 76.5235 131.638C76.5355 131.75 76.5252 131.851 76.4928 131.94C76.4609 132.028 76.4105 132.101 76.3417 132.156C76.2734 132.212 76.1904 132.246 76.0926 132.258ZM76.0767 132.108C76.1509 132.099 76.21 132.073 76.2538 132.029C76.2977 131.984 76.3278 131.93 76.3442 131.865C76.3606 131.8 76.3649 131.731 76.3572 131.659C76.3494 131.586 76.3307 131.52 76.301 131.46C76.2713 131.401 76.2304 131.354 76.1784 131.322C76.1263 131.289 76.0632 131.277 75.9889 131.286C75.9147 131.296 75.8556 131.323 75.8118 131.367C75.768 131.412 75.738 131.467 75.7216 131.532C75.7053 131.598 75.701 131.667 75.7087 131.739C75.7165 131.812 75.7352 131.877 75.7648 131.937C75.7945 131.996 75.8353 132.042 75.8873 132.074C75.9393 132.106 76.0024 132.118 76.0767 132.108ZM77.201 130.999L77.2161 131.14L76.6325 131.212L76.6174 131.071L77.201 130.999ZM76.908 132.134L76.7762 130.9C76.7696 130.838 76.7786 130.784 76.8034 130.739C76.8281 130.694 76.8626 130.658 76.9069 130.632C76.9512 130.605 76.9992 130.589 77.0509 130.582C77.0918 130.577 77.1255 130.576 77.152 130.58C77.1786 130.583 77.1985 130.587 77.2118 130.591L77.1792 130.741C77.1705 130.739 77.1583 130.737 77.1429 130.735C77.1278 130.732 77.1083 130.733 77.0844 130.736C77.0294 130.742 76.9912 130.761 76.9697 130.792C76.9487 130.823 76.9411 130.865 76.9468 130.919L77.0744 132.114L76.908 132.134ZM78.4632 130.842L78.4783 130.984L77.9172 131.053L77.9022 130.912L78.4632 130.842ZM78.0379 130.632L78.2043 130.611L78.3146 131.645C78.3197 131.692 78.3303 131.727 78.3464 131.748C78.363 131.77 78.3825 131.783 78.4049 131.788C78.4278 131.793 78.4515 131.794 78.4759 131.791C78.4942 131.789 78.5092 131.786 78.5207 131.783C78.5322 131.779 78.5414 131.776 78.5483 131.773L78.5981 131.919C78.5873 131.925 78.572 131.931 78.5523 131.938C78.5326 131.945 78.5072 131.95 78.4762 131.954C78.4292 131.96 78.3821 131.956 78.3348 131.941C78.288 131.926 78.2476 131.9 78.2136 131.862C78.18 131.824 78.1599 131.774 78.1531 131.711L78.0379 130.632ZM78.9492 131.22L79.0188 131.873L78.8525 131.893L78.6981 130.447L78.8644 130.426L78.9211 130.957L78.9352 130.956C78.9546 130.896 78.9879 130.847 79.0351 130.808C79.0828 130.768 79.1491 130.743 79.2342 130.732C79.308 130.723 79.3742 130.73 79.4328 130.753C79.4913 130.775 79.5391 130.815 79.5762 130.872C79.6136 130.928 79.6373 131.003 79.6473 131.096L79.7208 131.786L79.5545 131.806L79.4821 131.128C79.4729 131.042 79.4435 130.978 79.3938 130.937C79.3446 130.895 79.2807 130.878 79.2023 130.888C79.1477 130.895 79.1001 130.913 79.0593 130.941C79.019 130.969 78.9888 131.007 78.9686 131.054C78.9489 131.102 78.9424 131.157 78.9492 131.22ZM80.4815 131.714C80.3772 131.727 80.2847 131.715 80.2041 131.678C80.124 131.641 80.059 131.583 80.0092 131.505C79.9599 131.426 79.9293 131.331 79.9174 131.22C79.9055 131.109 79.9153 131.009 79.9467 130.919C79.9784 130.829 80.0282 130.755 80.096 130.699C80.1641 130.642 80.2471 130.607 80.3448 130.595C80.4012 130.588 80.4579 130.59 80.5149 130.602C80.5719 130.614 80.6252 130.639 80.6748 130.676C80.7244 130.712 80.7663 130.763 80.8005 130.829C80.8346 130.895 80.8571 130.978 80.8679 131.08L80.8755 131.15L80.0409 131.254L80.0256 131.11L80.6909 131.027C80.6844 130.966 80.6663 130.913 80.6368 130.868C80.6077 130.823 80.5693 130.789 80.5217 130.767C80.4746 130.745 80.421 130.737 80.3608 130.745C80.2946 130.753 80.239 130.776 80.1941 130.815C80.1497 130.854 80.1173 130.901 80.097 130.956C80.0768 131.012 80.0698 131.069 80.0762 131.129L80.0865 131.225C80.0952 131.307 80.1167 131.375 80.151 131.428C80.1857 131.481 80.23 131.519 80.2839 131.543C80.3378 131.566 80.3983 131.573 80.4655 131.564C80.5092 131.559 80.548 131.548 80.5819 131.531C80.6163 131.514 80.6451 131.492 80.6682 131.464C80.6914 131.435 80.708 131.401 80.7181 131.361L80.8836 131.387C80.8725 131.443 80.8492 131.495 80.8137 131.541C80.7781 131.587 80.7322 131.625 80.6759 131.656C80.6196 131.686 80.5548 131.705 80.4815 131.714ZM81.7611 131.533L81.6068 130.086L81.7731 130.066L81.8301 130.6L81.8442 130.598C81.8544 130.578 81.8687 130.551 81.8872 130.52C81.9062 130.487 81.9348 130.457 81.9733 130.429C82.0121 130.4 82.0668 130.381 82.1372 130.373C82.2284 130.361 82.3112 130.374 82.3856 130.411C82.46 130.448 82.5212 130.506 82.5691 130.585C82.6171 130.664 82.6471 130.761 82.6593 130.875C82.6716 130.99 82.6627 131.092 82.6327 131.181C82.6026 131.269 82.5555 131.341 82.4914 131.396C82.4272 131.45 82.35 131.483 82.2598 131.494C82.1902 131.502 82.1333 131.498 82.089 131.48C82.0447 131.462 82.0097 131.439 81.9839 131.412C81.9582 131.385 81.9381 131.362 81.9238 131.344L81.9041 131.346L81.9219 131.513L81.7611 131.533ZM81.8668 130.97C81.8755 131.052 81.8952 131.123 81.9259 131.182C81.9565 131.242 81.9967 131.286 82.0465 131.316C82.0963 131.345 82.1545 131.355 82.2212 131.347C82.2908 131.338 82.3468 131.313 82.3894 131.27C82.4325 131.227 82.4624 131.173 82.4792 131.107C82.4964 131.041 82.5009 130.97 82.4927 130.892C82.4845 130.816 82.4654 130.749 82.4354 130.691C82.4058 130.632 82.3656 130.587 82.3148 130.557C82.2644 130.527 82.204 130.516 82.1335 130.525C82.0658 130.533 82.0108 130.557 81.9684 130.598C81.926 130.637 81.8963 130.689 81.8793 130.753C81.8623 130.817 81.8581 130.889 81.8668 130.97ZM83.4277 131.349C83.3234 131.362 83.2309 131.35 83.1503 131.313C83.0702 131.276 83.0052 131.218 82.9554 131.14C82.9061 131.061 82.8755 130.966 82.8636 130.855C82.8517 130.744 82.8615 130.644 82.8929 130.554C82.9246 130.464 82.9744 130.39 83.0422 130.334C83.1104 130.276 83.1933 130.242 83.291 130.23C83.3474 130.223 83.4041 130.225 83.4611 130.237C83.5181 130.249 83.5714 130.274 83.621 130.31C83.6706 130.347 83.7125 130.398 83.7467 130.464C83.7808 130.53 83.8033 130.613 83.8141 130.714L83.8217 130.785L82.9871 130.888L82.9718 130.744L83.6371 130.662C83.6306 130.601 83.6126 130.548 83.583 130.503C83.5539 130.458 83.5156 130.424 83.4679 130.402C83.4208 130.379 83.3672 130.372 83.307 130.379C83.2408 130.388 83.1852 130.411 83.1403 130.45C83.0959 130.489 83.0635 130.536 83.0432 130.591C83.023 130.646 83.016 130.704 83.0224 130.764L83.0327 130.86C83.0414 130.942 83.0629 131.01 83.0972 131.063C83.1319 131.116 83.1762 131.154 83.2301 131.177C83.284 131.2 83.3445 131.208 83.4117 131.199C83.4554 131.194 83.4942 131.183 83.5281 131.166C83.5625 131.149 83.5913 131.127 83.6144 131.098C83.6376 131.07 83.6542 131.036 83.6643 130.996L83.8298 131.022C83.8187 131.078 83.7954 131.13 83.7599 131.176C83.7243 131.222 83.6784 131.26 83.6221 131.291C83.5658 131.32 83.501 131.34 83.4277 131.349ZM84.8036 130.303L84.6587 130.364C84.6466 130.34 84.6302 130.317 84.6093 130.296C84.5889 130.274 84.5624 130.257 84.5297 130.246C84.497 130.234 84.4565 130.231 84.4081 130.237C84.3418 130.245 84.2882 130.268 84.2473 130.304C84.2069 130.339 84.1891 130.38 84.1941 130.427C84.1985 130.468 84.217 130.499 84.2497 130.519C84.2823 130.54 84.3314 130.554 84.397 130.562L84.562 130.582C84.6613 130.593 84.7373 130.62 84.7899 130.663C84.8425 130.705 84.8728 130.764 84.8809 130.84C84.8875 130.902 84.8756 130.96 84.8451 131.013C84.8151 131.066 84.7699 131.111 84.7095 131.147C84.6491 131.183 84.5768 131.207 84.4927 131.217C84.3823 131.231 84.2883 131.218 84.2108 131.179C84.1333 131.14 84.08 131.075 84.0509 130.986L84.2046 130.926C84.2258 130.983 84.2589 131.023 84.3039 131.047C84.3493 131.071 84.406 131.079 84.4742 131.07C84.5517 131.061 84.6115 131.037 84.6536 130.998C84.6961 130.959 84.7148 130.916 84.7098 130.87C84.7058 130.832 84.6893 130.802 84.6603 130.78C84.6312 130.757 84.5887 130.743 84.5328 130.737L84.3479 130.717C84.2462 130.706 84.1695 130.678 84.1177 130.635C84.0663 130.59 84.0366 130.531 84.0286 130.456C84.0221 130.395 84.0335 130.338 84.0628 130.287C84.0925 130.236 84.1358 130.193 84.1926 130.159C84.2499 130.124 84.3166 130.103 84.3927 130.093C84.4998 130.08 84.5865 130.093 84.6526 130.132C84.7192 130.172 84.7695 130.229 84.8036 130.303ZM85.5186 129.968L85.5337 130.109L84.9726 130.179L84.9575 130.037L85.5186 129.968ZM85.0933 129.757L85.2597 129.737L85.37 130.771C85.3751 130.818 85.3856 130.852 85.4018 130.874C85.4183 130.895 85.4379 130.909 85.4603 130.914C85.4832 130.919 85.5069 130.92 85.5313 130.917C85.5496 130.914 85.5646 130.911 85.5761 130.908C85.5876 130.904 85.5968 130.901 85.6037 130.899L85.6535 131.045C85.6427 131.05 85.6274 131.056 85.6077 131.063C85.588 131.07 85.5626 131.076 85.5316 131.08C85.4846 131.086 85.4375 131.081 85.3902 131.066C85.3434 131.052 85.303 131.025 85.269 130.988C85.2354 130.95 85.2153 130.899 85.2085 130.836L85.0933 129.757ZM86.5422 130.087L86.3973 130.148C86.3853 130.124 86.3688 130.102 86.348 130.08C86.3276 130.059 86.301 130.042 86.2683 130.03C86.2357 130.019 86.1951 130.016 86.1467 130.022C86.0805 130.03 86.0269 130.052 85.986 130.088C85.9455 130.124 85.9278 130.165 85.9327 130.211C85.9372 130.253 85.9557 130.284 85.9883 130.304C86.021 130.324 86.0701 130.338 86.1357 130.346L86.3006 130.366C86.3999 130.378 86.4759 130.405 86.5285 130.447C86.5811 130.49 86.6115 130.548 86.6196 130.624C86.6262 130.686 86.6143 130.744 86.5838 130.798C86.5538 130.851 86.5085 130.896 86.4481 130.932C86.3877 130.968 86.3154 130.991 86.2313 131.002C86.1209 131.015 86.0269 131.003 85.9495 130.963C85.872 130.924 85.8187 130.86 85.7896 130.77L85.9432 130.711C85.9645 130.767 85.9976 130.808 86.0425 130.832C86.0879 130.856 86.1447 130.863 86.2128 130.855C86.2904 130.845 86.3502 130.821 86.3922 130.783C86.4347 130.744 86.4535 130.701 86.4485 130.654C86.4445 130.616 86.4279 130.586 86.3989 130.564C86.3698 130.542 86.3274 130.527 86.2715 130.521L86.0865 130.501C85.9849 130.49 85.9081 130.463 85.8563 130.419C85.805 130.375 85.7753 130.315 85.7673 130.24C85.7608 130.179 85.7721 130.123 85.8014 130.072C85.8312 130.02 85.8744 129.977 85.9312 129.943C85.9885 129.909 86.0552 129.887 86.1314 129.878C86.2385 129.864 86.3251 129.877 86.3912 129.917C86.4578 129.956 86.5081 130.013 86.5422 130.087ZM87.3585 130.862C87.2542 130.875 87.1618 130.863 87.0812 130.826C87.001 130.789 86.9361 130.731 86.8863 130.653C86.8369 130.574 86.8063 130.479 86.7945 130.368C86.7826 130.257 86.7924 130.156 86.8237 130.067C86.8555 129.976 86.9053 129.903 86.973 129.846C87.0412 129.789 87.1242 129.755 87.2219 129.742C87.2783 129.735 87.335 129.738 87.392 129.75C87.449 129.762 87.5023 129.786 87.5519 129.823C87.6015 129.86 87.6434 129.911 87.6775 129.977C87.7117 130.042 87.7342 130.126 87.745 130.227L87.7525 130.298L86.918 130.401L86.9026 130.257L87.568 130.175C87.5615 130.113 87.5434 130.06 87.5139 130.015C87.4848 129.97 87.4464 129.937 87.3988 129.914C87.3517 129.892 87.298 129.885 87.2379 129.892C87.1716 129.9 87.1161 129.924 87.0712 129.963C87.0267 130.001 86.9944 130.048 86.9741 130.104C86.9538 130.159 86.9469 130.217 86.9533 130.277L86.9635 130.373C86.9723 130.455 86.9938 130.522 87.0281 130.576C87.0627 130.629 87.1071 130.667 87.161 130.69C87.2148 130.713 87.2754 130.72 87.3426 130.712C87.3863 130.707 87.4251 130.696 87.459 130.679C87.4934 130.662 87.5221 130.639 87.5453 130.611C87.5684 130.583 87.585 130.548 87.5951 130.509L87.7606 130.534C87.7496 130.591 87.7263 130.643 87.6907 130.689C87.6552 130.735 87.6092 130.773 87.553 130.803C87.4967 130.833 87.4318 130.853 87.3585 130.862ZM88.0694 129.285L88.2238 130.732L88.0574 130.752L87.903 129.306L88.0694 129.285ZM88.5404 129.227L88.6948 130.673L88.5284 130.694L88.374 129.248L88.5404 129.227ZM88.9994 130.636L88.8837 129.551L89.05 129.53L89.1658 130.615L88.9994 130.636ZM88.9489 129.36C88.9165 129.364 88.8874 129.356 88.8615 129.337C88.8361 129.317 88.8218 129.292 88.8185 129.261C88.8151 129.23 88.8238 129.202 88.8445 129.177C88.8656 129.152 88.8924 129.138 88.9248 129.134C88.9572 129.13 88.9861 129.137 89.0115 129.156C89.0374 129.176 89.052 129.201 89.0553 129.232C89.0586 129.263 89.0497 129.291 89.0286 129.316C89.0079 129.341 88.9814 129.356 88.9489 129.36ZM89.5671 129.904L89.6368 130.557L89.4704 130.577L89.3547 129.492L89.5154 129.473L89.5335 129.642L89.5475 129.64C89.567 129.582 89.6008 129.533 89.649 129.493C89.697 129.453 89.762 129.428 89.8437 129.418C89.917 129.408 89.9828 129.416 90.041 129.439C90.0991 129.462 90.1467 129.502 90.1837 129.559C90.2207 129.615 90.2441 129.689 90.2539 129.782L90.3275 130.471L90.1612 130.492L90.0888 129.814C90.0797 129.728 90.0505 129.665 90.0013 129.623C89.952 129.58 89.8888 129.564 89.8118 129.573C89.7587 129.58 89.7124 129.597 89.6731 129.625C89.6342 129.654 89.6051 129.691 89.5859 129.739C89.5667 129.786 89.5604 129.841 89.5671 129.904ZM91.1143 130.808C91.034 130.818 90.9638 130.817 90.9038 130.803C90.8438 130.79 90.7928 130.769 90.7507 130.74C90.7091 130.712 90.675 130.681 90.6485 130.646L90.771 130.536C90.7882 130.554 90.8096 130.574 90.8353 130.597C90.8611 130.62 90.895 130.638 90.937 130.652C90.9794 130.667 91.0333 130.67 91.0986 130.662C91.186 130.651 91.2559 130.621 91.3082 130.571C91.3606 130.522 91.3819 130.452 91.3723 130.361L91.3487 130.141L91.3346 130.143C91.3245 130.164 91.3098 130.191 91.2903 130.223C91.2713 130.254 91.2421 130.284 91.2027 130.312C91.1637 130.339 91.109 130.357 91.0385 130.366C90.9511 130.376 90.8704 130.365 90.7964 130.333C90.7229 130.3 90.6618 130.246 90.6129 130.172C90.5645 130.098 90.5343 130.005 90.5222 129.892C90.5104 129.78 90.5196 129.681 90.5498 129.594C90.5799 129.506 90.6273 129.436 90.6921 129.382C90.7567 129.327 90.8347 129.295 90.9258 129.283C90.9963 129.275 91.0535 129.279 91.0973 129.298C91.1416 129.316 91.1764 129.338 91.2016 129.365C91.2273 129.392 91.2472 129.413 91.2615 129.431L91.2784 129.429L91.26 129.256L91.4207 129.236L91.5398 130.352C91.5498 130.445 91.5367 130.524 91.5006 130.587C91.4651 130.651 91.4133 130.702 91.3453 130.738C91.2778 130.774 91.2008 130.798 91.1143 130.808ZM91.0451 130.213C91.1118 130.205 91.1665 130.183 91.2093 130.146C91.2521 130.11 91.2824 130.062 91.3002 130.001C91.3181 129.941 91.3227 129.871 91.3142 129.791C91.3058 129.712 91.2867 129.645 91.2568 129.588C91.227 129.531 91.1872 129.489 91.1375 129.46C91.0879 129.432 91.0292 129.422 90.9615 129.431C90.891 129.439 90.8342 129.465 90.791 129.506C90.7483 129.548 90.7185 129.6 90.7014 129.663C90.6848 129.726 90.6804 129.795 90.6883 129.868C90.6963 129.943 90.7152 130.009 90.7449 130.064C90.7749 130.118 90.815 130.159 90.8651 130.186C90.9155 130.213 90.9755 130.222 91.0451 130.213ZM93.0762 129.277L92.9313 129.338C92.9192 129.314 92.9028 129.292 92.882 129.271C92.8615 129.249 92.835 129.232 92.8023 129.22C92.7697 129.209 92.7291 129.206 92.6807 129.212C92.6145 129.22 92.5609 129.242 92.52 129.278C92.4795 129.314 92.4617 129.355 92.4667 129.402C92.4711 129.443 92.4897 129.474 92.5223 129.494C92.5549 129.514 92.6041 129.529 92.6697 129.537L92.8346 129.556C92.9339 129.568 93.0099 129.595 93.0625 129.638C93.1151 129.68 93.1454 129.739 93.1535 129.814C93.1602 129.877 93.1482 129.934 93.1178 129.988C93.0877 130.041 93.0425 130.086 92.9821 130.122C92.9217 130.158 92.8494 130.181 92.7653 130.192C92.6549 130.205 92.5609 130.193 92.4834 130.154C92.406 130.115 92.3527 130.05 92.3235 129.96L92.4772 129.901C92.4985 129.958 92.5316 129.998 92.5765 130.022C92.6219 130.046 92.6787 130.054 92.7468 130.045C92.8243 130.036 92.8841 130.011 92.9262 129.973C92.9687 129.934 92.9874 129.891 92.9825 129.844C92.9784 129.807 92.9619 129.777 92.9329 129.754C92.9038 129.732 92.8613 129.718 92.8055 129.712L92.6205 129.692C92.5189 129.68 92.4421 129.653 92.3903 129.609C92.339 129.565 92.3093 129.505 92.3013 129.431C92.2948 129.369 92.3061 129.313 92.3354 129.262C92.3651 129.21 92.4084 129.168 92.4652 129.133C92.5225 129.099 92.5892 129.077 92.6653 129.068C92.7725 129.054 92.8591 129.068 92.9252 129.107C92.9918 129.147 93.0421 129.203 93.0762 129.277ZM93.8925 130.052C93.7882 130.065 93.6958 130.053 93.6152 130.016C93.535 129.979 93.4701 129.921 93.4203 129.843C93.3709 129.764 93.3403 129.669 93.3285 129.558C93.3166 129.447 93.3263 129.346 93.3577 129.257C93.3895 129.166 93.4393 129.093 93.507 129.036C93.5752 128.979 93.6582 128.945 93.7559 128.933C93.8123 128.926 93.869 128.928 93.926 128.94C93.9829 128.952 94.0363 128.977 94.0859 129.013C94.1355 129.05 94.1773 129.101 94.2115 129.167C94.2457 129.233 94.2682 129.316 94.279 129.417L94.2865 129.488L93.452 129.591L93.4366 129.447L94.102 129.365C94.0954 129.304 94.0774 129.251 94.0478 129.206C94.0187 129.16 93.9804 129.127 93.9328 129.105C93.8857 129.082 93.832 129.075 93.7719 129.082C93.7056 129.091 93.6501 129.114 93.6052 129.153C93.5607 129.192 93.5283 129.238 93.5081 129.294C93.4878 129.349 93.4809 129.407 93.4873 129.467L93.4975 129.563C93.5063 129.645 93.5278 129.712 93.562 129.766C93.5967 129.819 93.641 129.857 93.695 129.88C93.7488 129.903 93.8093 129.911 93.8765 129.902C93.9202 129.897 93.9591 129.886 93.993 129.869C94.0273 129.852 94.0561 129.829 94.0793 129.801C94.1024 129.773 94.119 129.739 94.1291 129.699L94.2946 129.725C94.2835 129.781 94.2602 129.833 94.2247 129.879C94.1892 129.925 94.1432 129.963 94.087 129.994C94.0306 130.023 93.9658 130.043 93.8925 130.052ZM94.5914 129.942L94.4756 128.858L94.6363 128.838L94.6538 129.002L94.6651 129C94.6791 128.944 94.7102 128.896 94.7583 128.856C94.8064 128.816 94.8629 128.793 94.9277 128.785C94.9399 128.783 94.9552 128.781 94.9736 128.78C94.992 128.778 95.0059 128.777 95.0154 128.776L95.0335 128.946C95.0277 128.945 95.0146 128.945 94.9941 128.944C94.974 128.944 94.9529 128.945 94.9308 128.947C94.8782 128.954 94.8324 128.971 94.7934 128.998C94.7548 129.025 94.7256 129.059 94.7058 129.1C94.6864 129.141 94.6793 129.186 94.6845 129.235L94.7578 129.922L94.5914 129.942ZM95.3299 129.851L95.2141 128.766L95.3805 128.746L95.4962 129.83L95.3299 129.851ZM95.2794 128.575C95.247 128.579 95.2178 128.571 95.192 128.552C95.1666 128.533 95.1522 128.508 95.1489 128.477C95.1456 128.446 95.1543 128.417 95.1749 128.393C95.1961 128.367 95.2229 128.353 95.2553 128.349C95.2877 128.345 95.3166 128.353 95.342 128.372C95.3678 128.391 95.3824 128.416 95.3857 128.447C95.3891 128.478 95.3802 128.506 95.359 128.531C95.3384 128.556 95.3118 128.571 95.2794 128.575ZM96.2572 129.759C96.1529 129.772 96.0605 129.76 95.9799 129.723C95.8997 129.686 95.8348 129.628 95.785 129.55C95.7356 129.471 95.705 129.376 95.6932 129.265C95.6813 129.154 95.6911 129.053 95.7224 128.964C95.7542 128.873 95.804 128.8 95.8717 128.743C95.9399 128.686 96.0229 128.652 96.1206 128.64C96.177 128.633 96.2337 128.635 96.2907 128.647C96.3477 128.659 96.401 128.683 96.4506 128.72C96.5002 128.757 96.5421 128.808 96.5762 128.874C96.6104 128.939 96.6329 129.023 96.6437 129.124L96.6512 129.195L95.8167 129.298L95.8013 129.154L96.4667 129.072C96.4602 129.011 96.4421 128.957 96.4126 128.912C96.3835 128.867 96.3451 128.834 96.2975 128.812C96.2504 128.789 96.1967 128.782 96.1366 128.789C96.0703 128.797 96.0148 128.821 95.9699 128.86C95.9254 128.898 95.8931 128.945 95.8728 129.001C95.8525 129.056 95.8456 129.114 95.852 129.174L95.8622 129.27C95.871 129.352 95.8925 129.419 95.9268 129.473C95.9615 129.526 96.0058 129.564 96.0597 129.587C96.1135 129.61 96.1741 129.617 96.2413 129.609C96.285 129.604 96.3238 129.593 96.3577 129.576C96.3921 129.559 96.4208 129.536 96.444 129.508C96.4671 129.48 96.4837 129.446 96.4938 129.406L96.6593 129.431C96.6483 129.488 96.625 129.54 96.5894 129.586C96.5539 129.632 96.508 129.67 96.4517 129.7C96.3954 129.73 96.3305 129.75 96.2572 129.759ZM97.6331 128.713L97.4882 128.773C97.4762 128.75 97.4597 128.727 97.4389 128.706C97.4185 128.684 97.3919 128.667 97.3593 128.656C97.3266 128.644 97.286 128.641 97.2376 128.647C97.1714 128.655 97.1178 128.677 97.0769 128.713C97.0364 128.749 97.0187 128.79 97.0236 128.837C97.0281 128.878 97.0466 128.909 97.0792 128.929C97.1119 128.95 97.161 128.964 97.2266 128.972L97.3915 128.991C97.4908 129.003 97.5668 129.03 97.6195 129.073C97.672 129.115 97.7024 129.174 97.7105 129.25C97.7171 129.312 97.7052 129.37 97.6747 129.423C97.6447 129.476 97.5995 129.521 97.539 129.557C97.4786 129.593 97.4064 129.616 97.3222 129.627C97.2118 129.641 97.1179 129.628 97.0404 129.589C96.9629 129.55 96.9096 129.485 96.8805 129.395L97.0341 129.336C97.0554 129.393 97.0885 129.433 97.1334 129.457C97.1788 129.481 97.2356 129.489 97.3037 129.48C97.3813 129.471 97.4411 129.447 97.4831 129.408C97.5256 129.369 97.5444 129.326 97.5394 129.279C97.5354 129.242 97.5188 129.212 97.4898 129.19C97.4607 129.167 97.4183 129.153 97.3624 129.147L97.1774 129.127C97.0758 129.116 96.9991 129.088 96.9473 129.044C96.8959 129 96.8662 128.941 96.8582 128.866C96.8517 128.805 96.863 128.748 96.8923 128.697C96.9221 128.646 96.9654 128.603 97.0222 128.569C97.0794 128.534 97.1461 128.512 97.2223 128.503C97.3294 128.49 97.416 128.503 97.4821 128.542C97.5487 128.582 97.5991 128.639 97.6331 128.713ZM98.3888 128.464L98.3753 128.337C98.3711 128.299 98.3736 128.257 98.3826 128.212C98.392 128.166 98.4077 128.122 98.4297 128.078C98.4521 128.034 98.4805 127.994 98.5149 127.959L98.6129 128.021C98.5879 128.068 98.5667 128.115 98.5496 128.164C98.5328 128.212 98.5273 128.263 98.5328 128.315L98.5467 128.445L98.3888 128.464ZM98.7497 128.42L98.7361 128.292C98.732 128.254 98.7344 128.212 98.7435 128.167C98.7529 128.121 98.7686 128.077 98.7906 128.033C98.813 127.989 98.8414 127.949 98.8758 127.914L98.9738 127.977C98.9487 128.023 98.9276 128.07 98.9105 128.119C98.8937 128.167 98.8881 128.218 98.8937 128.27L98.9076 128.4L98.7497 128.42ZM99.592 129.323L99.0429 127.925L99.2206 127.903L99.648 129.044L99.6621 129.042L99.8436 127.826L100.041 127.802L100.474 128.941L100.488 128.94L100.664 127.724L100.842 127.702L100.601 129.198L100.421 129.22L99.9793 128.107L99.968 128.108L99.7725 129.3L99.592 129.323ZM101.288 128.451L101.358 129.104L101.191 129.124L101.037 127.678L101.203 127.657L101.26 128.189L101.274 128.187C101.293 128.128 101.327 128.078 101.374 128.039C101.422 127.999 101.488 127.974 101.573 127.964C101.647 127.955 101.713 127.961 101.772 127.984C101.83 128.007 101.878 128.046 101.915 128.103C101.952 128.16 101.976 128.234 101.986 128.328L102.06 129.017L101.893 129.037L101.821 128.359C101.812 128.273 101.782 128.209 101.733 128.168C101.683 128.126 101.62 128.11 101.541 128.119C101.487 128.126 101.439 128.144 101.398 128.172C101.358 128.201 101.328 128.238 101.307 128.286C101.288 128.333 101.281 128.388 101.288 128.451ZM102.476 129.377C102.448 129.381 102.422 129.382 102.4 129.38C102.377 129.378 102.361 129.376 102.352 129.373L102.379 129.221C102.421 129.226 102.457 129.225 102.487 129.219C102.518 129.212 102.544 129.195 102.565 129.167C102.587 129.139 102.605 129.097 102.62 129.039L102.642 128.95L102.125 127.91L102.305 127.887L102.696 128.715L102.708 128.713L102.914 127.812L103.095 127.789L102.768 129.089C102.753 129.148 102.732 129.197 102.706 129.238C102.679 129.279 102.647 129.311 102.608 129.334C102.57 129.357 102.526 129.371 102.476 129.377ZM104.139 129.171C104.111 129.175 104.085 129.176 104.063 129.174C104.04 129.172 104.024 129.17 104.015 129.167L104.042 129.014C104.084 129.02 104.12 129.019 104.15 129.012C104.181 129.006 104.207 128.988 104.228 128.961C104.25 128.933 104.268 128.89 104.283 128.833L104.305 128.744L103.788 127.704L103.968 127.681L104.359 128.509L104.371 128.507L104.577 127.606L104.758 127.583L104.431 128.883C104.416 128.942 104.396 128.991 104.369 129.032C104.342 129.073 104.31 129.105 104.271 129.128C104.233 129.151 104.189 129.165 104.139 129.171ZM105.497 128.614C105.399 128.626 105.311 128.613 105.232 128.576C105.154 128.538 105.089 128.48 105.039 128.401C104.989 128.323 104.958 128.227 104.946 128.115C104.934 128.002 104.944 127.901 104.976 127.812C105.008 127.722 105.059 127.65 105.127 127.594C105.196 127.538 105.279 127.504 105.377 127.492C105.475 127.48 105.563 127.493 105.641 127.53C105.72 127.568 105.784 127.626 105.834 127.705C105.884 127.785 105.915 127.881 105.927 127.994C105.939 128.106 105.929 128.206 105.897 128.295C105.865 128.384 105.814 128.456 105.746 128.512C105.677 128.568 105.594 128.602 105.497 128.614ZM105.481 128.464C105.555 128.455 105.614 128.428 105.658 128.384C105.702 128.34 105.732 128.285 105.748 128.22C105.764 128.155 105.769 128.087 105.761 128.014C105.753 127.942 105.735 127.876 105.705 127.816C105.675 127.756 105.634 127.71 105.582 127.677C105.53 127.645 105.467 127.633 105.393 127.642C105.319 127.651 105.26 127.678 105.216 127.723C105.172 127.767 105.142 127.822 105.126 127.888C105.109 127.953 105.105 128.022 105.113 128.095C105.12 128.167 105.139 128.233 105.169 128.292C105.198 128.352 105.239 128.397 105.291 128.43C105.343 128.462 105.406 128.473 105.481 128.464ZM106.874 127.971L106.805 127.33L106.971 127.309L107.087 128.394L106.921 128.414L106.901 128.231L106.89 128.232C106.871 128.29 106.836 128.342 106.787 128.387C106.737 128.432 106.671 128.46 106.59 128.47C106.522 128.478 106.46 128.471 106.405 128.448C106.349 128.424 106.303 128.384 106.266 128.327C106.229 128.27 106.206 128.196 106.196 128.103L106.123 127.414L106.289 127.393L106.362 128.071C106.37 128.151 106.399 128.211 106.448 128.253C106.498 128.294 106.557 128.311 106.626 128.302C106.667 128.297 106.708 128.281 106.749 128.255C106.79 128.228 106.823 128.191 106.847 128.144C106.872 128.096 106.881 128.039 106.874 127.971ZM107.95 128.287L107.834 127.202L107.995 127.182L108.013 127.346L108.024 127.344C108.038 127.288 108.069 127.24 108.117 127.201C108.165 127.161 108.222 127.137 108.286 127.129C108.299 127.127 108.314 127.126 108.332 127.124C108.351 127.122 108.365 127.121 108.374 127.121L108.392 127.29C108.386 127.29 108.373 127.289 108.353 127.289C108.333 127.288 108.312 127.289 108.29 127.292C108.237 127.298 108.191 127.315 108.152 127.342C108.114 127.369 108.084 127.403 108.064 127.445C108.045 127.486 108.038 127.531 108.043 127.58L108.116 128.266L107.95 128.287ZM108.689 128.195L108.573 127.11L108.739 127.09L108.855 128.175L108.689 128.195ZM108.638 126.919C108.606 126.923 108.577 126.916 108.551 126.896C108.525 126.877 108.511 126.852 108.508 126.821C108.504 126.79 108.513 126.762 108.534 126.737C108.555 126.712 108.582 126.697 108.614 126.693C108.646 126.689 108.675 126.697 108.701 126.716C108.727 126.735 108.741 126.76 108.744 126.791C108.748 126.823 108.739 126.851 108.718 126.876C108.697 126.901 108.671 126.915 108.638 126.919ZM109.642 128.512C109.562 128.522 109.492 128.52 109.432 128.507C109.372 128.494 109.321 128.473 109.279 128.444C109.237 128.416 109.203 128.384 109.177 128.349L109.299 128.24C109.316 128.258 109.338 128.278 109.363 128.3C109.389 128.323 109.423 128.342 109.465 128.356C109.508 128.37 109.561 128.373 109.627 128.365C109.714 128.354 109.784 128.324 109.836 128.275C109.889 128.225 109.91 128.155 109.9 128.065L109.877 127.845L109.863 127.846C109.853 127.868 109.838 127.894 109.818 127.926C109.799 127.958 109.77 127.987 109.731 128.015C109.692 128.042 109.637 128.06 109.567 128.069C109.479 128.08 109.399 128.069 109.325 128.036C109.251 128.003 109.19 127.95 109.141 127.876C109.093 127.802 109.062 127.708 109.05 127.595C109.039 127.484 109.048 127.385 109.078 127.298C109.108 127.21 109.155 127.139 109.22 127.085C109.285 127.031 109.363 126.998 109.454 126.987C109.524 126.978 109.582 126.983 109.625 127.001C109.67 127.019 109.705 127.042 109.73 127.069C109.755 127.095 109.775 127.117 109.79 127.134L109.807 127.132L109.788 126.96L109.949 126.94L110.068 128.056C110.078 128.149 110.065 128.227 110.029 128.291C109.993 128.355 109.941 128.405 109.873 128.441C109.806 128.478 109.729 128.501 109.642 128.512ZM109.573 127.917C109.64 127.908 109.695 127.886 109.737 127.85C109.78 127.813 109.811 127.765 109.828 127.705C109.846 127.644 109.851 127.574 109.842 127.494C109.834 127.416 109.815 127.348 109.785 127.292C109.755 127.235 109.715 127.192 109.666 127.164C109.616 127.136 109.557 127.126 109.49 127.134C109.419 127.143 109.362 127.168 109.319 127.21C109.276 127.251 109.247 127.304 109.23 127.367C109.213 127.43 109.209 127.498 109.216 127.572C109.224 127.647 109.243 127.712 109.273 127.767C109.303 127.822 109.343 127.862 109.393 127.89C109.444 127.916 109.504 127.925 109.573 127.917ZM110.466 127.314L110.535 127.966L110.369 127.987L110.215 126.541L110.381 126.52L110.438 127.051L110.452 127.049C110.471 126.99 110.505 126.941 110.552 126.902C110.599 126.862 110.666 126.837 110.751 126.826C110.825 126.817 110.891 126.824 110.949 126.847C111.008 126.869 111.056 126.909 111.093 126.966C111.13 127.022 111.154 127.097 111.164 127.19L111.237 127.879L111.071 127.9L110.999 127.222C110.99 127.136 110.96 127.072 110.91 127.03C110.861 126.988 110.797 126.972 110.719 126.982C110.664 126.989 110.617 127.006 110.576 127.035C110.536 127.063 110.505 127.101 110.485 127.148C110.466 127.195 110.459 127.251 110.466 127.314ZM111.897 126.698L111.912 126.84L111.351 126.909L111.336 126.768L111.897 126.698ZM111.472 126.488L111.638 126.467L111.748 127.501C111.753 127.548 111.764 127.583 111.78 127.605C111.797 127.626 111.816 127.639 111.839 127.644C111.861 127.649 111.885 127.65 111.91 127.647C111.928 127.645 111.943 127.642 111.954 127.639C111.966 127.635 111.975 127.632 111.982 127.63L112.032 127.775C112.021 127.781 112.006 127.787 111.986 127.794C111.966 127.801 111.941 127.806 111.91 127.81C111.863 127.816 111.816 127.812 111.768 127.797C111.722 127.782 111.681 127.756 111.647 127.718C111.614 127.68 111.593 127.63 111.587 127.567L111.472 126.488ZM112.629 126.608L112.644 126.749L112.061 126.821L112.046 126.68L112.629 126.608ZM112.336 127.743L112.204 126.509C112.198 126.446 112.207 126.393 112.231 126.348C112.256 126.303 112.291 126.267 112.335 126.241C112.379 126.214 112.427 126.198 112.479 126.191C112.52 126.186 112.554 126.185 112.58 126.189C112.607 126.192 112.627 126.196 112.64 126.2L112.607 126.35C112.599 126.348 112.586 126.346 112.571 126.344C112.556 126.341 112.536 126.342 112.513 126.345C112.458 126.351 112.419 126.37 112.398 126.401C112.377 126.432 112.369 126.474 112.375 126.528L112.502 127.722L112.336 127.743ZM113.613 127.135L113.545 126.494L113.711 126.474L113.827 127.558L113.66 127.579L113.641 127.395L113.629 127.397C113.61 127.455 113.576 127.507 113.526 127.552C113.477 127.597 113.411 127.624 113.329 127.634C113.262 127.643 113.2 127.635 113.144 127.612C113.088 127.589 113.042 127.549 113.005 127.492C112.969 127.435 112.946 127.36 112.936 127.268L112.862 126.579L113.029 126.558L113.101 127.236C113.109 127.315 113.138 127.376 113.187 127.417C113.237 127.459 113.296 127.475 113.366 127.467C113.407 127.462 113.448 127.446 113.488 127.419C113.529 127.393 113.562 127.356 113.586 127.308C113.611 127.261 113.62 127.203 113.613 127.135ZM114.143 126.054L114.298 127.5L114.131 127.521L113.977 126.074L114.143 126.054ZM114.614 125.995L114.769 127.442L114.602 127.462L114.448 126.016L114.614 125.995ZM115.224 127.797C115.196 127.801 115.17 127.802 115.148 127.8C115.125 127.798 115.109 127.796 115.101 127.793L115.127 127.64C115.169 127.646 115.205 127.645 115.236 127.638C115.266 127.632 115.292 127.615 115.314 127.587C115.335 127.559 115.353 127.517 115.368 127.459L115.39 127.37L114.873 126.33L115.053 126.307L115.445 127.135L115.456 127.133L115.662 126.232L115.843 126.209L115.516 127.509C115.501 127.568 115.481 127.617 115.454 127.658C115.427 127.699 115.395 127.731 115.356 127.754C115.318 127.777 115.274 127.791 115.224 127.797ZM69.6735 134.385L69.7432 135.037L69.5768 135.058L69.4224 133.612L69.5888 133.591L69.6455 134.122L69.6596 134.12C69.6789 134.061 69.7123 134.012 69.7595 133.973C69.8071 133.933 69.8735 133.908 69.9585 133.897C70.0323 133.888 70.0985 133.895 70.1571 133.918C70.2157 133.94 70.2635 133.98 70.3005 134.037C70.3379 134.093 70.3616 134.168 70.3716 134.261L70.4452 134.95L70.2788 134.971L70.2065 134.293C70.1973 134.207 70.1678 134.143 70.1182 134.101C70.0689 134.059 70.0051 134.043 69.9266 134.053C69.8721 134.06 69.8244 134.077 69.7837 134.106C69.7434 134.134 69.7131 134.172 69.693 134.219C69.6733 134.266 69.6668 134.322 69.6735 134.385ZM71.0708 134.898C71.0022 134.907 70.9385 134.902 70.8799 134.883C70.8211 134.863 70.7727 134.831 70.7345 134.786C70.6963 134.74 70.6734 134.682 70.6659 134.611C70.6592 134.549 70.6661 134.497 70.6864 134.455C70.7066 134.413 70.736 134.379 70.7746 134.351C70.8131 134.324 70.8564 134.302 70.9046 134.285C70.9532 134.268 71.0023 134.252 71.0519 134.24C71.1168 134.223 71.1694 134.21 71.2098 134.201C71.2507 134.191 71.2799 134.179 71.2976 134.166C71.3157 134.153 71.3233 134.133 71.3204 134.106L71.3198 134.101C71.3124 134.031 71.2876 133.979 71.2454 133.945C71.2037 133.911 71.1445 133.899 71.0679 133.909C70.9885 133.918 70.9281 133.943 70.8867 133.984C70.8454 134.024 70.8176 134.065 70.8035 134.107L70.6396 134.07C70.6607 134.001 70.6929 133.945 70.7359 133.902C70.7794 133.859 70.8283 133.827 70.8827 133.806C70.9375 133.783 70.9921 133.769 71.0466 133.762C71.0814 133.758 71.1218 133.757 71.1678 133.76C71.2142 133.763 71.26 133.774 71.305 133.794C71.3504 133.814 71.39 133.848 71.4237 133.896C71.4573 133.944 71.4788 134.011 71.488 134.097L71.5643 134.812L71.3979 134.832L71.3823 134.685L71.3738 134.686C71.365 134.711 71.3489 134.739 71.3255 134.769C71.302 134.799 71.2695 134.826 71.2278 134.85C71.1861 134.875 71.1337 134.891 71.0708 134.898ZM71.0802 134.746C71.146 134.737 71.2 134.718 71.2424 134.686C71.2852 134.655 71.3159 134.617 71.3346 134.573C71.3537 134.529 71.3608 134.485 71.356 134.44L71.3397 134.287C71.3336 134.296 71.3189 134.306 71.2957 134.316C71.2729 134.326 71.2463 134.335 71.2158 134.344C71.1858 134.352 71.1564 134.36 71.1277 134.368C71.0994 134.374 71.0764 134.38 71.0588 134.385C71.0162 134.396 70.9767 134.41 70.9405 134.427C70.9047 134.444 70.8766 134.467 70.8562 134.494C70.8363 134.522 70.8286 134.556 70.8331 134.599C70.8393 134.657 70.8653 134.698 70.9113 134.722C70.9576 134.746 71.0139 134.754 71.0802 134.746ZM72.2229 133.631L72.238 133.772L71.6769 133.842L71.6619 133.7L72.2229 133.631ZM71.7976 133.42L71.964 133.4L72.0744 134.433C72.0794 134.481 72.09 134.515 72.1061 134.537C72.1227 134.558 72.1422 134.572 72.1646 134.577C72.1875 134.582 72.2112 134.583 72.2356 134.58C72.254 134.577 72.2689 134.574 72.2804 134.571C72.2919 134.567 72.3011 134.564 72.308 134.562L72.3578 134.707C72.347 134.713 72.3317 134.719 72.312 134.726C72.2923 134.733 72.2669 134.739 72.2359 134.743C72.1889 134.748 72.1418 134.744 72.0945 134.729C72.0477 134.715 72.0073 134.688 71.9733 134.651C71.9397 134.613 71.9196 134.562 71.9128 134.499L71.7976 133.42ZM73.0336 134.652C72.9293 134.665 72.8369 134.653 72.7563 134.617C72.6761 134.579 72.6112 134.522 72.5614 134.443C72.512 134.364 72.4814 134.27 72.4696 134.158C72.4577 134.047 72.4674 133.947 72.4988 133.857C72.5306 133.767 72.5804 133.693 72.6481 133.637C72.7163 133.58 72.7993 133.545 72.897 133.533C72.9534 133.526 73.0101 133.528 73.0671 133.541C73.124 133.553 73.1773 133.577 73.227 133.614C73.2766 133.65 73.3184 133.701 73.3526 133.767C73.3868 133.833 73.4093 133.916 73.4201 134.018L73.4276 134.088L72.5931 134.192L72.5777 134.048L73.2431 133.965C73.2365 133.904 73.2185 133.851 73.1889 133.806C73.1598 133.761 73.1215 133.727 73.0739 133.705C73.0268 133.683 72.9731 133.675 72.913 133.683C72.8467 133.691 72.7912 133.714 72.7463 133.753C72.7018 133.792 72.6694 133.839 72.6492 133.894C72.6289 133.95 72.622 134.007 72.6284 134.067L72.6386 134.163C72.6474 134.245 72.6689 134.313 72.7031 134.366C72.7378 134.419 72.7821 134.457 72.8361 134.481C72.8899 134.504 72.9504 134.511 73.0176 134.503C73.0613 134.497 73.1002 134.486 73.1341 134.47C73.1684 134.452 73.1972 134.43 73.2204 134.402C73.2435 134.373 73.2601 134.339 73.2702 134.3L73.4357 134.325C73.4246 134.382 73.4013 134.433 73.3658 134.48C73.3303 134.525 73.2843 134.564 73.2281 134.594C73.1717 134.624 73.1069 134.643 73.0336 134.652ZM74.7115 132.956L74.8863 132.934L74.9967 133.968C75.0065 134.061 74.998 134.141 74.971 134.21C74.9441 134.278 74.9016 134.333 74.8436 134.374C74.7856 134.415 74.7148 134.441 74.6312 134.451C74.5522 134.461 74.4805 134.456 74.4158 134.435C74.3512 134.413 74.2983 134.378 74.2574 134.328C74.2164 134.279 74.192 134.217 74.1841 134.143L74.3561 134.122C74.3604 134.163 74.3744 134.198 74.3978 134.226C74.4217 134.253 74.4524 134.273 74.4899 134.286C74.5275 134.298 74.569 134.302 74.6146 134.296C74.6649 134.29 74.7065 134.274 74.7395 134.248C74.7725 134.223 74.7959 134.188 74.8099 134.145C74.8243 134.101 74.8282 134.05 74.8219 133.99L74.7115 132.956ZM75.6897 134.326C75.6211 134.334 75.5575 134.329 75.4988 134.31C75.4401 134.291 75.3916 134.258 75.3535 134.213C75.3152 134.167 75.2924 134.109 75.2848 134.038C75.2782 133.976 75.285 133.924 75.3053 133.883C75.3256 133.841 75.355 133.806 75.3935 133.779C75.432 133.752 75.4754 133.73 75.5236 133.713C75.5722 133.695 75.6213 133.68 75.6708 133.667C75.7357 133.651 75.7884 133.638 75.8288 133.628C75.8696 133.618 75.8989 133.607 75.9165 133.594C75.9346 133.581 75.9423 133.561 75.9394 133.534L75.9388 133.528C75.9313 133.458 75.9065 133.407 75.8644 133.373C75.8226 133.339 75.7635 133.327 75.6869 133.336C75.6075 133.346 75.5471 133.371 75.5057 133.411C75.4643 133.452 75.4366 133.493 75.4225 133.535L75.2585 133.498C75.2797 133.428 75.3118 133.372 75.3549 133.33C75.3984 133.287 75.4473 133.255 75.5017 133.233C75.5564 133.211 75.6111 133.197 75.6656 133.19C75.7004 133.186 75.7407 133.185 75.7868 133.188C75.8332 133.19 75.8789 133.201 75.9239 133.221C75.9694 133.242 76.009 133.276 76.0426 133.323C76.0763 133.371 76.0977 133.438 76.1069 133.524L76.1832 134.239L76.0169 134.26L76.0012 134.113L75.9927 134.114C75.984 134.139 75.9679 134.166 75.9444 134.196C75.921 134.226 75.8884 134.254 75.8467 134.278C75.805 134.302 75.7527 134.318 75.6897 134.326ZM75.6991 134.173C75.7649 134.165 75.819 134.145 75.8613 134.114C75.9041 134.082 75.9349 134.044 75.9535 134.001C75.9726 133.957 75.9798 133.912 75.975 133.867L75.9587 133.714C75.9525 133.724 75.9379 133.734 75.9147 133.744C75.8919 133.753 75.8652 133.762 75.8348 133.771C75.8047 133.78 75.7754 133.788 75.7466 133.795C75.7183 133.802 75.6954 133.808 75.6777 133.812C75.6351 133.823 75.5957 133.837 75.5595 133.855C75.5236 133.872 75.4956 133.894 75.4752 133.922C75.4553 133.949 75.4475 133.984 75.4521 134.026C75.4582 134.084 75.4843 134.125 75.5302 134.15C75.5766 134.174 75.6329 134.181 75.6991 134.173ZM77.2175 133.012L76.933 134.146L76.7638 134.167L76.2477 133.132L76.4281 133.11L76.8193 133.937L76.8305 133.936L77.0371 133.034L77.2175 133.012ZM77.8412 134.059C77.7726 134.068 77.709 134.063 77.6503 134.044C77.5916 134.024 77.5431 133.992 77.505 133.946C77.4667 133.901 77.4439 133.842 77.4363 133.772C77.4297 133.71 77.4365 133.658 77.4568 133.616C77.4771 133.574 77.5065 133.539 77.545 133.512C77.5835 133.485 77.6269 133.463 77.6751 133.446C77.7237 133.428 77.7728 133.413 77.8223 133.4C77.8872 133.384 77.9399 133.371 77.9803 133.362C78.0211 133.352 78.0504 133.34 78.068 133.327C78.0861 133.314 78.0938 133.294 78.0909 133.267L78.0903 133.261C78.0829 133.192 78.058 133.14 78.0159 133.106C77.9741 133.072 77.915 133.06 77.8384 133.069C77.759 133.079 77.6986 133.104 77.6572 133.145C77.6158 133.185 77.5881 133.226 77.574 133.268L77.41 133.231C77.4312 133.162 77.4633 133.106 77.5064 133.063C77.5499 133.02 77.5988 132.988 77.6532 132.966C77.7079 132.944 77.7626 132.93 77.8171 132.923C77.8519 132.919 77.8922 132.918 77.9383 132.921C77.9847 132.923 78.0304 132.935 78.0754 132.955C78.1209 132.975 78.1605 133.009 78.1941 133.057C78.2278 133.105 78.2492 133.172 78.2584 133.258L78.3347 133.972L78.1684 133.993L78.1527 133.846L78.1443 133.847C78.1355 133.872 78.1194 133.9 78.0959 133.93C78.0725 133.96 78.0399 133.987 77.9982 134.011C77.9565 134.035 77.9042 134.052 77.8412 134.059ZM77.8506 133.906C77.9164 133.898 77.9705 133.878 78.0128 133.847C78.0556 133.815 78.0864 133.778 78.105 133.734C78.1242 133.69 78.1313 133.646 78.1265 133.6L78.1102 133.448C78.104 133.457 78.0894 133.467 78.0662 133.477C78.0434 133.486 78.0167 133.496 77.9863 133.505C77.9562 133.513 77.9269 133.521 77.8981 133.528C77.8698 133.535 77.8469 133.541 77.8293 133.546C77.7866 133.557 77.7472 133.571 77.711 133.588C77.6751 133.605 77.6471 133.627 77.6267 133.655C77.6068 133.682 77.599 133.717 77.6036 133.76C77.6098 133.818 77.6358 133.859 77.6817 133.883C77.7281 133.907 77.7844 133.915 77.8506 133.906ZM79.3153 132.998L79.1704 133.059C79.1584 133.035 79.1419 133.012 79.1211 132.991C79.1007 132.969 79.0741 132.953 79.0415 132.941C79.0088 132.929 78.9682 132.926 78.9198 132.932C78.8536 132.941 78.8 132.963 78.7591 132.999C78.7186 133.034 78.7009 133.076 78.7058 133.122C78.7103 133.164 78.7288 133.194 78.7614 133.215C78.7941 133.235 78.8432 133.249 78.9088 133.257L79.0737 133.277C79.173 133.288 79.249 133.315 79.3017 133.358C79.3542 133.4 79.3846 133.459 79.3927 133.535C79.3993 133.597 79.3874 133.655 79.3569 133.708C79.3269 133.762 79.2817 133.806 79.2212 133.842C79.1608 133.879 79.0886 133.902 79.0044 133.912C78.894 133.926 78.8001 133.913 78.7226 133.874C78.6451 133.835 78.5918 133.771 78.5627 133.681L78.7163 133.622C78.7376 133.678 78.7707 133.718 78.8156 133.742C78.861 133.766 78.9178 133.774 78.9859 133.766C79.0635 133.756 79.1233 133.732 79.1653 133.693C79.2078 133.654 79.2266 133.611 79.2216 133.565C79.2176 133.527 79.201 133.497 79.172 133.475C79.1429 133.452 79.1005 133.438 79.0446 133.432L78.8596 133.412C78.758 133.401 78.6813 133.373 78.6295 133.33C78.5781 133.286 78.5484 133.226 78.5404 133.151C78.5339 133.09 78.5453 133.034 78.5745 132.982C78.6043 132.931 78.6476 132.888 78.7044 132.854C78.7616 132.82 78.8283 132.798 78.9045 132.788C79.0116 132.775 79.0982 132.788 79.1643 132.828C79.2309 132.867 79.2813 132.924 79.3153 132.998ZM80.1176 133.774C80.0161 133.787 79.9261 133.774 79.8477 133.735C79.7692 133.696 79.7058 133.637 79.6573 133.557C79.6089 133.478 79.5788 133.384 79.5673 133.276C79.5555 133.166 79.5654 133.066 79.5968 132.977C79.6286 132.887 79.6784 132.814 79.7462 132.757C79.8143 132.7 79.8973 132.665 79.995 132.653C80.0711 132.644 80.1413 132.649 80.2054 132.67C80.2695 132.691 80.3237 132.724 80.3682 132.77C80.4126 132.816 80.4431 132.872 80.4597 132.939L80.2934 132.96C80.2754 132.912 80.2426 132.872 80.1948 132.839C80.1475 132.806 80.0871 132.793 80.0138 132.803C79.949 132.811 79.8939 132.835 79.8487 132.875C79.8039 132.914 79.7711 132.966 79.7504 133.031C79.7301 133.095 79.7243 133.168 79.733 133.25C79.742 133.333 79.7629 133.405 79.7959 133.464C79.8293 133.522 79.872 133.566 79.9241 133.594C79.9766 133.623 80.0358 133.633 80.1016 133.625C80.1448 133.619 80.1832 133.607 80.2169 133.587C80.2505 133.568 80.278 133.543 80.2994 133.511C80.3209 133.48 80.3346 133.444 80.3407 133.403L80.5071 133.383C80.5045 133.448 80.4874 133.508 80.4558 133.564C80.4246 133.62 80.3802 133.666 80.3228 133.704C80.2659 133.741 80.1974 133.764 80.1176 133.774ZM80.784 133.669L80.6682 132.584L80.8289 132.564L80.8464 132.728L80.8577 132.727C80.8717 132.67 80.9028 132.623 80.9509 132.583C80.999 132.543 81.0555 132.519 81.1203 132.511C81.1326 132.509 81.1479 132.508 81.1662 132.506C81.1846 132.504 81.1985 132.503 81.208 132.503L81.2261 132.672C81.2203 132.672 81.2072 132.671 81.1867 132.671C81.1666 132.67 81.1455 132.671 81.1234 132.674C81.0708 132.68 81.025 132.697 80.986 132.724C80.9474 132.751 80.9182 132.785 80.8984 132.827C80.879 132.868 80.8719 132.913 80.8771 132.962L80.9504 133.648L80.784 133.669ZM81.5225 133.577L81.4067 132.493L81.5731 132.472L81.6889 133.557L81.5225 133.577ZM81.472 132.301C81.4396 132.305 81.4104 132.298 81.3846 132.278C81.3592 132.259 81.3449 132.234 81.3415 132.203C81.3382 132.172 81.3469 132.144 81.3676 132.119C81.3887 132.094 81.4155 132.079 81.4479 132.075C81.4803 132.071 81.5092 132.079 81.5346 132.098C81.5605 132.117 81.575 132.143 81.5784 132.174C81.5817 132.205 81.5728 132.233 81.5516 132.258C81.531 132.283 81.5044 132.297 81.472 132.301ZM82.0369 133.926L81.8777 132.434L82.0384 132.414L82.0568 132.587L82.0766 132.584C82.0868 132.564 82.1011 132.538 82.1196 132.506C82.1385 132.473 82.1672 132.443 82.2056 132.415C82.2445 132.386 82.2991 132.368 82.3696 132.359C82.4608 132.348 82.5436 132.36 82.618 132.398C82.6924 132.435 82.7536 132.493 82.8015 132.572C82.8495 132.651 82.8795 132.747 82.8917 132.861C82.9039 132.976 82.8951 133.078 82.8651 133.167C82.835 133.256 82.7879 133.327 82.7238 133.382C82.6596 133.436 82.5824 133.469 82.4921 133.48C82.4226 133.489 82.3657 133.484 82.3214 133.466C82.2771 133.448 82.242 133.425 82.2163 133.398C82.1905 133.371 82.1705 133.348 82.1562 133.33L82.1421 133.332L82.2033 133.905L82.0369 133.926ZM82.0991 132.956C82.1079 133.038 82.1276 133.109 82.1582 133.169C82.1888 133.228 82.229 133.272 82.2789 133.302C82.3286 133.331 82.3869 133.341 82.4536 133.333C82.5231 133.324 82.5792 133.299 82.6218 133.256C82.6648 133.213 82.6947 133.159 82.7116 133.094C82.7288 133.028 82.7333 132.956 82.725 132.879C82.7169 132.802 82.6978 132.735 82.6678 132.677C82.6382 132.618 82.598 132.574 82.5472 132.544C82.4968 132.513 82.4363 132.502 82.3659 132.511C82.2982 132.519 82.2432 132.544 82.2008 132.584C82.1584 132.623 82.1287 132.675 82.1117 132.739C82.0947 132.803 82.0905 132.875 82.0991 132.956ZM83.5581 132.226L83.5731 132.367L83.0121 132.437L82.997 132.295L83.5581 132.226ZM83.1328 132.015L83.2991 131.995L83.4095 133.029C83.4145 133.076 83.4251 133.11 83.4412 133.132C83.4578 133.153 83.4773 133.167 83.4998 133.172C83.5227 133.177 83.5463 133.178 83.5708 133.175C83.5891 133.172 83.604 133.17 83.6156 133.166C83.6271 133.162 83.6363 133.159 83.6432 133.157L83.693 133.303C83.6822 133.308 83.6669 133.314 83.6471 133.321C83.6274 133.328 83.6021 133.334 83.571 133.338C83.5241 133.344 83.4769 133.339 83.4297 133.324C83.3829 133.31 83.3424 133.284 83.3084 133.246C83.2749 133.208 83.2547 133.157 83.248 133.094L83.1328 132.015ZM83.9725 131.808L83.9861 131.935C83.9902 131.974 83.9875 132.016 83.9781 132.061C83.9691 132.106 83.9534 132.151 83.931 132.195C83.909 132.239 83.8808 132.278 83.8464 132.313L83.7484 132.251C83.7735 132.205 83.7944 132.158 83.8111 132.109C83.8283 132.061 83.8341 132.01 83.8285 131.958L83.8146 131.828L83.9725 131.808ZM84.3334 131.763L84.3469 131.891C84.3511 131.929 84.3484 131.971 84.339 132.017C84.33 132.062 84.3143 132.106 84.2919 132.151C84.2699 132.194 84.2417 132.234 84.2073 132.269L84.1093 132.206C84.1343 132.16 84.1552 132.113 84.172 132.065C84.1891 132.016 84.1949 131.965 84.1894 131.913L84.1755 131.783L84.3334 131.763Z" fill="white"/>
<path d="M59.9662 69.6629C60.0586 69.7119 60.2185 69.766 60.4461 69.8251C60.6729 69.8776 60.9352 69.8854 61.2329 69.8485C61.4909 69.8165 61.698 69.7472 61.8542 69.6405C62.0097 69.5272 62.1209 69.3757 62.1878 69.1861C62.2613 68.9956 62.2961 68.7562 62.2921 68.4679C62.2948 68.1788 62.2749 67.8353 62.2324 67.4376L61.8376 63.7386L63.2071 63.5688L63.5903 67.1584C63.6469 67.6888 63.6688 68.1764 63.6559 68.6213C63.6431 69.0662 63.5677 69.4584 63.4296 69.7979C63.2915 70.1374 63.0564 70.4151 62.7241 70.6309C62.3985 70.8459 61.9479 70.989 61.3723 71.0604C61.0547 71.0997 60.7663 71.0985 60.5072 71.0568C60.248 71.015 60.0047 70.9343 59.7774 70.8148L59.9662 69.6629ZM64.6045 68.9873C64.5684 68.6492 64.6295 68.3428 64.7879 68.0679C64.9521 67.7856 65.1956 67.5539 65.5181 67.3729C65.8407 67.1919 66.2203 67.0743 66.6569 67.0202C66.8753 66.9931 67.0987 66.9822 67.3272 66.9875C67.5556 66.9927 67.7565 67.0216 67.9297 67.074L67.8999 66.7956C67.8646 66.4641 67.7381 66.2212 67.5205 66.0668C67.3095 65.9116 67.0122 65.8578 66.6284 65.9054C66.344 65.9406 66.078 66.024 65.8306 66.1554C65.5832 66.2868 65.3275 66.4662 65.0635 66.6937L64.5434 65.8716C64.8634 65.6036 65.196 65.3911 65.5412 65.2341C65.8931 65.0763 66.2675 64.9728 66.6644 64.9236C67.4054 64.8318 68.0008 64.946 68.4506 65.2664C68.9071 65.586 69.1721 66.0905 69.2457 66.7799L69.423 68.4405C69.4378 68.5797 69.4716 68.6762 69.5243 68.7302C69.5836 68.7833 69.6702 68.8095 69.784 68.8088L69.8997 69.8926C69.7828 69.9273 69.6754 69.9574 69.5775 69.9829C69.4863 70.0077 69.4077 70.0241 69.3415 70.0323C69.0769 70.0651 68.8687 70.0305 68.717 69.9284C68.572 69.8255 68.4737 69.6899 68.4222 69.5216L68.3638 69.2568C68.17 69.5764 67.9129 69.8366 67.5924 70.0376C67.272 70.2385 66.9364 70.3607 66.5858 70.4041C66.2418 70.4468 65.9234 70.4157 65.6306 70.3109C65.3438 70.1987 65.1079 70.0298 64.9229 69.8042C64.7439 69.5712 64.6377 69.2989 64.6045 68.9873ZM67.8684 68.8548C67.9327 68.7662 67.9837 68.6793 68.0215 68.594C68.0594 68.5087 68.0747 68.4329 68.0677 68.3666L68.0114 67.8396C67.8455 67.793 67.6682 67.7646 67.4794 67.7544C67.2899 67.7376 67.1125 67.7395 66.9471 67.76C66.603 67.8026 66.3267 67.9141 66.118 68.0945C65.9153 68.2674 65.827 68.4764 65.8532 68.7217C65.8673 68.8543 65.9171 68.9757 66.0027 69.086C66.0882 69.1963 66.2043 69.2793 66.351 69.335C66.4977 69.3907 66.667 69.4067 66.8589 69.3829C67.0574 69.3583 67.2486 69.2977 67.4327 69.201C67.6161 69.0976 67.7613 68.9822 67.8684 68.8548ZM72.04 69.6273L69.5685 64.6543L70.9479 64.4834L72.6846 68.3183L73.5778 64.1574L74.8381 64.0012L73.4889 69.4478L72.04 69.6273ZM75.4395 67.6444C75.4034 67.3063 75.4646 66.9998 75.6229 66.7249C75.7872 66.4426 76.0306 66.211 76.3532 66.0299C76.6757 65.8489 77.0553 65.7313 77.492 65.6772C77.7103 65.6501 77.9337 65.6392 78.1622 65.6445C78.3907 65.6498 78.5915 65.6786 78.7647 65.731L78.735 65.4526C78.6996 65.1212 78.5731 64.8783 78.3556 64.7239C78.1446 64.5687 77.8472 64.5148 77.4635 64.5624C77.179 64.5977 76.9131 64.681 76.6657 64.8124C76.4182 64.9438 76.1626 65.1233 75.8986 65.3508L75.3784 64.5287C75.6984 64.2606 76.031 64.0481 76.3763 63.8912C76.7281 63.7334 77.1025 63.6299 77.4995 63.5807C78.2405 63.4888 78.8359 63.6031 79.2857 63.9235C79.7421 64.243 80.0072 64.7475 80.0808 65.4369L80.258 67.0975C80.2729 67.2367 80.3066 67.3333 80.3593 67.3872C80.4186 67.4403 80.5052 67.4665 80.6191 67.4658L80.7348 68.5497C80.6178 68.5843 80.5104 68.6144 80.4126 68.64C80.3214 68.6647 80.2427 68.6812 80.1766 68.6894C79.9119 68.7222 79.7038 68.6875 79.5521 68.5854C79.407 68.4825 79.3088 68.3469 79.2573 68.1787L79.1988 67.9139C79.005 68.2335 78.7479 68.4937 78.4275 68.6946C78.107 68.8955 77.7715 69.0177 77.4208 69.0612C77.0768 69.1038 76.7584 69.0728 76.4657 68.968C76.1789 68.8558 75.943 68.6869 75.758 68.4613C75.579 68.2282 75.4728 67.9559 75.4395 67.6444ZM78.7034 67.5118C78.7677 67.4233 78.8188 67.3363 78.8566 67.2511C78.8944 67.1658 78.9098 67.09 78.9027 67.0237L78.8465 66.4967C78.6806 66.4501 78.5033 66.4217 78.3145 66.4115C78.125 66.3947 77.9475 66.3965 77.7821 66.417C77.4381 66.4597 77.1618 66.5712 76.9531 66.7515C76.7503 66.9244 76.662 67.1335 76.6882 67.3788C76.7024 67.5113 76.7522 67.6328 76.8377 67.7431C76.9232 67.8534 77.0393 67.9364 77.1861 67.9921C77.3328 68.0478 77.5021 68.0637 77.6939 68.04C77.8924 68.0154 78.0837 67.9547 78.2678 67.858C78.4512 67.7547 78.5964 67.6393 78.7034 67.5118ZM85.4306 62.6883C85.3793 62.6477 85.2866 62.5953 85.1524 62.5314C85.0248 62.4666 84.8678 62.4088 84.6814 62.358C84.5016 62.3064 84.3063 62.2668 84.0956 62.2392C83.8841 62.205 83.6725 62.201 83.4608 62.2272C83.0903 62.2731 82.8166 62.3776 82.6396 62.5406C82.4692 62.7027 82.3974 62.9098 82.4243 63.1617C82.4448 63.3539 82.5206 63.499 82.6518 63.5969C82.7829 63.6949 82.9718 63.7689 83.2184 63.8189C83.4651 63.8689 83.772 63.9182 84.1392 63.9667C84.6144 64.022 85.0295 64.1116 85.3846 64.2355C85.7456 64.352 86.0296 64.5317 86.2365 64.7747C86.4494 65.0103 86.5788 65.3435 86.6248 65.7744C86.6651 66.1523 86.6303 66.4857 86.5204 66.7747C86.4098 67.0571 86.2409 67.2963 86.0138 67.4924C85.7867 67.6884 85.5219 67.8455 85.2195 67.9636C84.9163 68.0751 84.5894 68.1525 84.2387 68.196C83.8881 68.2394 83.5335 68.2464 83.1751 68.217C82.8167 68.1875 82.4683 68.1266 82.1299 68.0342C81.7909 67.9352 81.4755 67.8064 81.1837 67.6477L81.6628 66.3894C81.7287 66.4417 81.843 66.5081 82.0058 66.5887C82.1679 66.6627 82.3634 66.7358 82.5923 66.8082C82.8206 66.8739 83.0672 66.924 83.3323 66.9583C83.5974 66.9926 83.8623 66.9933 84.127 66.9605C84.4975 66.9146 84.7719 66.8168 84.9503 66.667C85.1288 66.5173 85.2056 66.3264 85.1808 66.0944C85.1582 65.8823 85.0644 65.726 84.8995 65.6255C84.7346 65.5251 84.5119 65.4486 84.2314 65.396C83.9503 65.3368 83.6188 65.2772 83.237 65.217C82.7803 65.146 82.3949 65.0527 82.0809 64.9372C81.7662 64.815 81.5233 64.6436 81.3523 64.423C81.1813 64.2024 81.0767 63.9131 81.0384 63.5551C80.9868 63.0712 81.0561 62.6529 81.2464 62.3002C81.4425 61.94 81.727 61.6529 82.0996 61.4388C82.4716 61.2181 82.8957 61.0782 83.3721 61.0191C83.7029 60.9781 84.0177 60.976 84.3166 61.0129C84.6221 61.0489 84.9103 61.1106 85.181 61.1979C85.4518 61.2853 85.6971 61.3858 85.9171 61.4996L85.4306 62.6883ZM90.1782 67.48C89.7548 67.5324 89.367 67.51 89.0147 67.4126C88.6617 67.3086 88.3527 67.1454 88.0876 66.923C87.8218 66.694 87.6054 66.4253 87.4384 66.1169C87.2781 65.8076 87.1788 65.474 87.1406 65.116C87.0882 64.6255 87.1496 64.1645 87.3248 63.7331C87.5058 63.2942 87.7884 62.9267 88.1724 62.6306C88.5564 62.3345 89.0296 62.1516 89.592 62.0819C90.1543 62.0122 90.6504 62.0749 91.0801 62.2702C91.5099 62.4654 91.8452 62.7496 92.0862 63.1228L90.8286 63.6817C90.6956 63.5034 90.5312 63.376 90.3353 63.2995C90.1387 63.2164 89.928 63.1888 89.703 63.2167C89.4516 63.2478 89.2271 63.3428 89.0296 63.5016C88.8379 63.653 88.6953 63.8554 88.6017 64.1088C88.5074 64.3556 88.4768 64.6347 88.5101 64.9463C88.5426 65.2512 88.6312 65.5156 88.7757 65.7395C88.9262 65.956 89.1114 66.1211 89.3314 66.2349C89.5506 66.342 89.786 66.38 90.0374 66.3489C90.1962 66.3292 90.3422 66.2842 90.4755 66.214C90.6154 66.1429 90.7366 66.054 90.8392 65.9472C90.9417 65.8405 91.0131 65.7242 91.0533 65.5983L92.3958 65.8349C92.3043 66.1082 92.1538 66.3619 91.9441 66.5961C91.7411 66.8295 91.4905 67.0251 91.1923 67.183C90.9 67.3334 90.562 67.4324 90.1782 67.48ZM96.0111 62.5456C95.6075 62.5957 95.2554 62.7199 94.9548 62.9184C94.6535 63.1102 94.449 63.3605 94.3412 63.6694L94.6776 66.8215L93.3478 66.9864L92.7916 61.776L94.0123 61.6247L94.1312 62.7383C94.2782 62.3574 94.483 62.0466 94.7456 61.8058C95.0081 61.5651 95.2971 61.415 95.6126 61.3558C95.6853 61.3468 95.7416 61.3398 95.7813 61.3349C95.821 61.33 95.8544 61.3292 95.8816 61.3325L96.0111 62.5456ZM97.1856 66.5107L96.6294 61.3003L97.9593 61.1355L98.5155 66.3459L97.1856 66.5107ZM96.552 60.5744L96.4108 59.2519L97.7406 59.0871L97.8818 60.4096L96.552 60.5744ZM102.842 65.9104C102.438 65.9604 102.071 65.9152 101.741 65.7747C101.417 65.6269 101.153 65.4078 100.947 65.1175L101.271 68.1503L99.9412 68.3151L99.1589 60.9868L100.32 60.8429L100.416 61.7378C100.581 61.4082 100.807 61.1384 101.093 60.9284C101.379 60.7117 101.716 60.5791 102.107 60.5307C102.457 60.4873 102.786 60.5171 103.092 60.6202C103.404 60.7225 103.683 60.8861 103.928 61.111C104.173 61.3292 104.372 61.5933 104.526 61.9034C104.685 62.206 104.785 62.5429 104.825 62.9141C104.878 63.4179 104.828 63.8876 104.673 64.3232C104.525 64.758 104.293 65.1193 103.975 65.4073C103.663 65.6877 103.285 65.8554 102.842 65.9104ZM102.274 64.8322C102.479 64.8067 102.66 64.7407 102.816 64.634C102.972 64.5273 103.102 64.3937 103.206 64.2331C103.315 64.0651 103.39 63.8845 103.43 63.6915C103.475 63.4911 103.487 63.2881 103.465 63.0826C103.442 62.8639 103.384 62.6662 103.291 62.4896C103.205 62.3122 103.089 62.1621 102.941 62.0393C102.794 61.9098 102.626 61.8164 102.439 61.759C102.258 61.7008 102.066 61.6844 101.861 61.7098C101.735 61.7254 101.608 61.7646 101.481 61.8274C101.359 61.8827 101.243 61.9576 101.133 62.0519C101.022 62.1462 100.926 62.2521 100.845 62.3697C100.77 62.4864 100.72 62.6102 100.694 62.741L100.824 63.9641C100.924 64.1465 101.049 64.309 101.198 64.4517C101.354 64.5936 101.526 64.6999 101.715 64.7706C101.903 64.8346 102.089 64.8551 102.274 64.8322ZM109.025 64.7713C108.917 64.8316 108.787 64.9015 108.635 64.9808C108.482 65.0602 108.315 65.1279 108.133 65.184C107.959 65.2459 107.779 65.2883 107.594 65.3113C107.349 65.3416 107.12 65.3264 106.905 65.2657C106.691 65.2049 106.511 65.0895 106.366 64.9195C106.226 64.742 106.14 64.5008 106.107 64.1959L105.788 61.2029L105.103 61.2877L104.994 60.2636L105.679 60.1787L105.498 58.4883L106.828 58.3235L107.008 60.0139L108.1 59.8786L108.209 60.9027L107.118 61.0381L107.389 63.5836C107.415 63.7618 107.479 63.8849 107.58 63.9529C107.681 64.021 107.801 64.0464 107.94 64.0292C108.079 64.012 108.212 63.972 108.339 63.9092C108.467 63.8464 108.568 63.7935 108.644 63.7505L109.025 64.7713Z" fill="#FFC100"/>
<path d="M58.0954 56.8844L57.7939 54.0605L58.9848 53.9129C59.1065 53.8978 59.2204 53.9092 59.3263 53.9471C59.4323 53.985 59.527 54.0431 59.6104 54.1215C59.6962 54.1968 59.7646 54.285 59.8156 54.3862C59.869 54.4843 59.9015 54.5878 59.9131 54.6965C59.9276 54.8317 59.9147 54.9623 59.8745 55.0882C59.8369 55.2137 59.7749 55.3235 59.6884 55.4175C59.6046 55.5112 59.5005 55.5792 59.3763 55.6214L60.1834 56.6256L59.8698 56.6645L59.0956 55.7046L58.262 55.8079L58.3732 56.85L58.0954 56.8844ZM58.2357 55.5613L59.1566 55.4472C59.2678 55.4334 59.3611 55.3909 59.4367 55.3198C59.5122 55.2486 59.5672 55.1612 59.6017 55.0575C59.636 54.9512 59.6471 54.8423 59.6352 54.7309C59.6231 54.6169 59.5854 54.5155 59.5223 54.4266C59.4616 54.3347 59.3844 54.265 59.2908 54.2175C59.1996 54.167 59.1011 54.1483 58.9953 54.1614L58.0981 54.2726L58.2357 55.5613ZM60.6139 56.5723L60.3927 54.5L60.6626 54.4666L60.8838 56.5388L60.6139 56.5723ZM60.3464 54.0665L60.3039 53.6688L60.5738 53.6353L60.6163 54.033L60.3464 54.0665ZM62.3797 56.3937C62.2289 56.4124 62.087 56.4018 61.954 56.3618C61.8234 56.3189 61.7051 56.253 61.599 56.164C61.4957 56.0747 61.4106 55.9684 61.3438 55.8451C61.2796 55.7214 61.2398 55.5866 61.2242 55.4408C61.2032 55.2445 61.2278 55.0601 61.2979 54.8876C61.3679 54.715 61.4759 54.5713 61.6219 54.4565C61.7678 54.3417 61.9427 54.2717 62.1465 54.2464C62.3397 54.2224 62.5152 54.2464 62.673 54.3182C62.8305 54.3873 62.9531 54.493 63.0407 54.6353L62.7876 54.7513C62.7181 54.6524 62.6272 54.5804 62.5152 54.5352C62.4054 54.487 62.2871 54.4708 62.16 54.4865C62.0224 54.5036 61.9005 54.5549 61.7944 54.6406C61.6882 54.7263 61.6074 54.8358 61.5519 54.9689C61.499 55.1017 61.4811 55.2477 61.4981 55.4068C61.5148 55.5632 61.5643 55.7008 61.6467 55.8196C61.7291 55.9383 61.8313 56.0291 61.9533 56.0919C62.075 56.152 62.2047 56.1736 62.3423 56.1565C62.4323 56.1454 62.5166 56.1188 62.5953 56.0768C62.6765 56.0345 62.7448 55.9831 62.8 55.9225C62.8576 55.8589 62.8935 55.794 62.9079 55.7278L63.1824 55.7743C63.1558 55.877 63.1031 55.9736 63.0243 56.064C62.9478 56.1513 62.8537 56.2248 62.7421 56.2843C62.6328 56.3408 62.512 56.3773 62.3797 56.3937ZM65.1337 56.0121L64.2542 55.0451L63.8577 55.5133L63.9269 56.1616L63.657 56.1951L63.347 53.2916L63.617 53.2581L63.8267 55.223L64.8772 53.9482L65.1749 53.9113L64.4198 54.8633L65.4274 55.9757L65.1337 56.0121ZM66.8293 55.8019L66.5279 52.9779L67.7188 52.8303C67.8405 52.8152 67.9543 52.8267 68.0603 52.8646C68.1662 52.9025 68.2609 52.9606 68.3444 53.0389C68.4302 53.1143 68.4986 53.2025 68.5496 53.3037C68.603 53.4018 68.6355 53.5053 68.6471 53.614C68.6615 53.7492 68.6486 53.8798 68.6084 54.0056C68.5709 54.1312 68.5089 54.241 68.4224 54.335C68.3385 54.4287 68.2345 54.4966 68.1103 54.5389L68.9173 55.5431L68.6037 55.582L67.8296 54.6221L66.996 54.7254L67.1072 55.7675L66.8293 55.8019ZM66.9696 54.4788L67.8906 54.3646C68.0017 54.3509 68.0951 54.3084 68.1706 54.2372C68.2461 54.1661 68.3012 54.0787 68.3357 53.975C68.3699 53.8686 68.3811 53.7598 68.3692 53.6484C68.357 53.5344 68.3194 53.4329 68.2563 53.344C68.1955 53.2522 68.1183 53.1825 68.0248 53.135C67.9336 53.0845 67.8351 53.0658 67.7292 53.0789L66.8321 53.1901L66.9696 54.4788ZM69.1058 54.9152C69.0919 54.7853 69.1171 54.6693 69.1812 54.5674C69.2452 54.4627 69.3393 54.3772 69.4636 54.3107C69.5902 54.2413 69.7396 54.1959 69.9116 54.1746C70.0121 54.1621 70.1175 54.1571 70.2277 54.1596C70.3379 54.162 70.4371 54.1739 70.5251 54.1953L70.5065 54.0203C70.4878 53.8452 70.4213 53.7124 70.3071 53.6218C70.1928 53.5312 70.0444 53.4972 69.8618 53.5198C69.7506 53.5336 69.6431 53.5684 69.5391 53.6243C69.4375 53.6772 69.3327 53.7506 69.2248 53.8446L69.1012 53.6665C69.2262 53.557 69.3512 53.4716 69.4761 53.4105C69.6006 53.3467 69.7304 53.3064 69.8654 53.2897C70.1194 53.2582 70.3283 53.3062 70.4921 53.4336C70.6559 53.5611 70.7515 53.7535 70.7789 54.0107L70.8813 54.9692C70.8852 55.0063 70.8961 55.0332 70.914 55.0498C70.9316 55.0637 70.9577 55.0699 70.9924 55.0683L71.0153 55.2831C70.9865 55.2893 70.9616 55.2951 70.9408 55.3004C70.9199 55.3056 70.904 55.3076 70.8931 55.3063C70.8267 55.3118 70.7741 55.2968 70.7355 55.2613C70.6968 55.2258 70.6738 55.1857 70.6663 55.1409L70.6462 54.9903C70.5663 55.1211 70.4558 55.2288 70.3147 55.3135C70.1733 55.3955 70.0258 55.446 69.8723 55.465C69.74 55.4814 69.6166 55.4685 69.5022 55.4263C69.3901 55.3811 69.2985 55.3145 69.2275 55.2266C69.1588 55.1357 69.1182 55.0319 69.1058 54.9152ZM70.5081 54.9026C70.5333 54.8619 70.552 54.8233 70.5642 54.7869C70.5764 54.7504 70.581 54.719 70.5782 54.6924L70.5459 54.3902C70.4523 54.3668 70.3555 54.352 70.2556 54.3455C70.1584 54.3388 70.0608 54.3415 69.9629 54.3536C69.7697 54.3776 69.6176 54.4354 69.5068 54.527C69.3959 54.6187 69.3475 54.7308 69.3617 54.8634C69.3699 54.9403 69.3975 55.0107 69.4446 55.0747C69.4913 55.1361 69.5555 55.1846 69.6371 55.2201C69.7183 55.2531 69.8106 55.2631 69.9138 55.2503C70.0435 55.2343 70.1612 55.1941 70.267 55.13C70.3754 55.0655 70.4558 54.9897 70.5081 54.9026ZM73.238 55.0076L72.9681 55.041L72.8445 53.8836C72.8185 53.6397 72.7638 53.4664 72.6804 53.3639C72.5968 53.2588 72.4783 53.2157 72.3248 53.2347C72.2189 53.2478 72.1172 53.2873 72.0197 53.3531C71.9218 53.4163 71.838 53.4979 71.7683 53.5979C71.7009 53.6949 71.656 53.8025 71.6338 53.9208L71.7692 55.1896L71.4993 55.2231L71.2781 53.1508L71.5242 53.1203L71.5743 53.5897C71.6191 53.482 71.6826 53.3855 71.7646 53.3001C71.8464 53.2121 71.9419 53.1398 72.0512 53.0832C72.1605 53.0267 72.276 52.9909 72.3977 52.9758C72.5115 52.9617 72.6103 52.9709 72.6943 53.0035C72.7782 53.0361 72.8482 53.0892 72.9043 53.1629C72.9602 53.2339 73.0046 53.3237 73.0377 53.4325C73.0705 53.5386 73.0941 53.6592 73.1085 53.7945L73.238 55.0076ZM73.5647 53.9233C73.5438 53.7271 73.5644 53.5432 73.6265 53.3716C73.691 53.197 73.7895 53.0518 73.9219 52.936C74.0543 52.8202 74.2118 52.751 74.3944 52.7283C74.5665 52.707 74.7249 52.7344 74.8698 52.8105C75.017 52.8836 75.1359 52.9803 75.2266 53.1007L75.0915 51.8359L75.3615 51.8025L75.6366 54.3798C75.6406 54.4169 75.6515 54.4438 75.6693 54.4604C75.6869 54.4743 75.7117 54.4807 75.7438 54.4794L75.7667 54.6942C75.7146 54.7087 75.6739 54.7164 75.6445 54.7174C75.5886 54.7216 75.5373 54.7051 75.4904 54.668C75.4435 54.6308 75.4174 54.587 75.412 54.5366L75.3904 54.3338C75.3228 54.4792 75.2231 54.6003 75.0913 54.6973C74.9595 54.7942 74.8182 54.852 74.6674 54.8707C74.5245 54.8884 74.389 54.8757 74.2611 54.8324C74.1358 54.7888 74.0227 54.7222 73.922 54.6326C73.8239 54.5427 73.7429 54.4372 73.6791 54.3162C73.6176 54.1921 73.5794 54.0612 73.5647 53.9233ZM75.3255 54.0275L75.2571 53.3871C75.2125 53.2959 75.1478 53.2166 75.0628 53.1492C74.9776 53.0792 74.8836 53.0277 74.7809 52.9948C74.6805 52.9589 74.5827 52.9468 74.4874 52.9586C74.3762 52.9724 74.2782 53.0087 74.1934 53.0676C74.1082 53.1238 74.0368 53.1958 73.9791 53.2836C73.9241 53.371 73.8847 53.4672 73.8611 53.5722C73.8374 53.6773 73.8313 53.7828 73.8426 53.8889C73.8545 54.0002 73.8843 54.104 73.9321 54.2002C73.9826 54.296 74.0478 54.3793 74.1277 54.45C74.2074 54.518 74.2958 54.5675 74.393 54.5984C74.4901 54.6294 74.5929 54.6381 74.7014 54.6247C74.7703 54.6162 74.8403 54.594 74.9116 54.5583C74.9828 54.5226 75.0491 54.4782 75.1105 54.4249C75.1742 54.3686 75.2252 54.3059 75.2633 54.2367C75.3015 54.1675 75.3223 54.0977 75.3255 54.0275ZM76.47 55.2518C76.5074 55.2498 76.5432 55.2467 76.5776 55.2425C76.6123 55.2409 76.6373 55.2364 76.6526 55.2292C76.6838 55.2199 76.7123 55.1976 76.738 55.1622C76.7637 55.1267 76.7916 55.0615 76.8217 54.9664C76.8517 54.8713 76.8932 54.7319 76.9459 54.548L75.8236 52.5875L76.1094 52.552L77.0591 54.2519L77.5663 52.3715L77.8362 52.338L77.0498 55.1437C77.0366 55.1963 77.0138 55.2462 76.9812 55.2932C76.949 55.3429 76.9064 55.3831 76.8533 55.4138C76.8033 55.4469 76.7386 55.4697 76.6595 55.4822C76.636 55.4878 76.6109 55.4909 76.5841 55.4915C76.5603 55.4945 76.5309 55.4954 76.4959 55.4944L76.47 55.2518Z" fill="white"/>
<path d="M67.2586 77.226L64.7478 77.5372L65.4356 83.9806L64.7409 84.0667L64.0531 77.6233L61.5423 77.9345L61.4765 77.318L67.1928 76.6095L67.2586 77.226ZM73.2096 83.017L72.5348 83.1007L72.2259 80.2071C72.1637 79.6237 72.0144 79.1989 71.7782 78.9327C71.5412 78.6598 71.2309 78.5471 70.8472 78.5947C70.5958 78.6259 70.3514 78.7233 70.1142 78.887C69.8828 79.0433 69.6832 79.2461 69.5154 79.4952C69.3535 79.737 69.2481 80.0053 69.1991 80.3001L69.5377 83.4721L68.8629 83.5558L68.0881 76.297L68.7629 76.2134L69.11 79.4649C69.274 79.055 69.526 78.7148 69.8658 78.4443C70.2115 78.1664 70.5928 78.0016 71.0096 77.9499C71.3073 77.913 71.5644 77.9349 71.7808 78.0155C72.0039 78.0953 72.1892 78.2302 72.3368 78.4201C72.4904 78.6026 72.6114 78.826 72.7 79.0905C72.7878 79.3482 72.8498 79.6462 72.8859 79.9842L73.2096 83.017ZM76.8922 82.6613C76.5217 82.7072 76.1703 82.6803 75.8378 82.5804C75.5047 82.474 75.2093 82.3124 74.9515 82.0959C74.6931 81.8727 74.4803 81.6068 74.3134 81.2984C74.153 80.9892 74.053 80.649 74.0133 80.2777C73.9617 79.7938 74.0234 79.3361 74.1986 78.9047C74.3804 78.4725 74.6537 78.1128 75.0186 77.8258C75.3828 77.5321 75.8129 77.3546 76.3091 77.2931C76.8186 77.2299 77.2749 77.2976 77.6782 77.4961C78.0881 77.6939 78.4239 77.9814 78.6853 78.3587C78.9461 78.7294 79.102 79.1533 79.1529 79.6306C79.1586 79.6837 79.1643 79.7367 79.1699 79.7897C79.1749 79.8361 79.1755 79.873 79.1717 79.9003L74.7456 80.4489C74.8183 80.8161 74.9562 81.1348 75.1593 81.4051C75.3684 81.6681 75.6211 81.8685 75.9173 82.0064C76.2195 82.1368 76.536 82.1816 76.8668 82.1406C77.2042 82.0987 77.5126 81.9732 77.7919 81.764C78.0779 81.5539 78.2655 81.3023 78.3549 81.0091L78.9574 81.0956C78.8777 81.354 78.7393 81.5962 78.5422 81.8221C78.3451 82.048 78.1037 82.2358 77.818 82.3854C77.5383 82.5275 77.2297 82.6195 76.8922 82.6613ZM74.6737 79.9642L78.4945 79.4906C78.4277 79.116 78.2897 78.7973 78.0807 78.5344C77.8782 78.2706 77.6263 78.0769 77.3248 77.953C77.0292 77.8217 76.7127 77.777 76.3753 77.8188C76.0379 77.8607 75.7391 77.9816 75.4789 78.1818C75.218 78.3754 75.0138 78.629 74.8663 78.9428C74.7247 79.2492 74.6605 79.5896 74.6737 79.9642ZM63.5034 94.7989C63.4687 94.474 63.5317 94.1841 63.6921 93.9292C63.8519 93.6676 64.0872 93.4537 64.3979 93.2876C64.7146 93.114 65.0879 93.0005 65.5179 92.9472C65.7694 92.9161 66.0328 92.9036 66.3083 92.9097C66.5838 92.9159 66.8317 92.9456 67.0519 92.9989L67.0052 92.5614C66.9585 92.1239 66.7923 91.7919 66.5067 91.5653C66.2211 91.3388 65.85 91.2538 65.3935 91.3104C65.1156 91.3448 64.8467 91.4319 64.5868 91.5715C64.3328 91.7038 64.0708 91.8874 63.8009 92.1223L63.4919 91.677C63.8046 91.4032 64.117 91.1898 64.4292 91.0369C64.7406 90.8774 65.065 90.7768 65.4025 90.735C66.0376 90.6562 66.5599 90.7762 66.9693 91.0949C67.3787 91.4136 67.6177 91.8944 67.6864 92.5374L67.9422 94.9338C67.9521 95.0266 67.9794 95.0938 68.024 95.1352C68.068 95.1701 68.1333 95.1855 68.22 95.1815L68.2773 95.7184C68.2053 95.7341 68.1431 95.7485 68.0909 95.7617C68.0387 95.7749 67.999 95.7798 67.9718 95.7764C67.8057 95.7903 67.6743 95.7529 67.5777 95.6641C67.4811 95.5753 67.4234 95.475 67.4048 95.3631L67.3545 94.9865C67.1548 95.3135 66.8786 95.5828 66.5258 95.7945C66.1722 95.9995 65.8036 96.1258 65.4199 96.1733C65.0891 96.2143 64.7806 96.182 64.4945 96.0765C64.2143 95.9634 63.9854 95.797 63.8077 95.5772C63.636 95.35 63.5346 95.0905 63.5034 94.7989ZM67.0094 94.7673C67.0722 94.6655 67.1189 94.569 67.1494 94.4779C67.1799 94.3868 67.1916 94.3081 67.1846 94.2419L67.1039 93.4861C66.8697 93.4279 66.6278 93.3907 66.3781 93.3746C66.1349 93.3577 65.891 93.3645 65.6462 93.3948C65.1632 93.4547 64.7831 93.5992 64.5059 93.8283C64.2287 94.0574 64.1078 94.3377 64.1432 94.6692C64.1637 94.8614 64.2328 95.0376 64.3504 95.1976C64.4674 95.3511 64.6278 95.4722 64.8317 95.5611C65.0348 95.6434 65.2655 95.6686 65.5235 95.6366C65.8477 95.5964 66.142 95.4961 66.4064 95.3357C66.6774 95.1745 66.8784 94.9851 67.0094 94.7673ZM72.1377 95.3407C71.7077 95.394 71.3086 95.3293 70.9405 95.1465C70.579 94.963 70.2814 94.7178 70.0475 94.4109L70.3882 97.6028L69.7134 97.6864L68.9343 90.3879L69.5396 90.3129L69.6469 91.3172C69.8173 90.9669 70.0639 90.671 70.3867 90.4295C70.7088 90.1814 71.065 90.0331 71.4554 89.9847C71.8126 89.9405 72.1483 89.9761 72.4623 90.0917C72.7755 90.2006 73.0548 90.3675 73.3 90.5923C73.5452 90.8172 73.7447 91.0846 73.8985 91.3947C74.0582 91.6973 74.1564 92.021 74.1932 92.3657C74.2449 92.8496 74.1934 93.3093 74.0388 93.7449C73.8901 94.1731 73.6535 94.5315 73.329 94.8203C73.0045 95.109 72.6074 95.2825 72.1377 95.3407ZM71.8855 94.7675C72.1699 94.7322 72.4187 94.6443 72.6316 94.5037C72.8438 94.3565 73.0187 94.1736 73.1562 93.9551C73.3004 93.7357 73.4024 93.4981 73.4622 93.2421C73.5213 92.9796 73.5367 92.7157 73.5084 92.4505C73.4787 92.1721 73.4008 91.9131 73.2747 91.6735C73.1551 91.4331 72.9958 91.2278 72.7967 91.0577C72.5975 90.8876 72.3761 90.7606 72.1325 90.6766C71.8889 90.5926 71.6315 90.5674 71.3603 90.601C71.1882 90.6223 71.0132 90.6776 70.835 90.7669C70.6568 90.8561 70.4884 90.9744 70.3299 91.1217C70.1772 91.2615 70.0528 91.4146 69.9566 91.581C69.8604 91.7474 69.8082 91.9184 69.8002 92.0941L69.97 93.685C70.102 93.9172 70.268 94.1216 70.4679 94.2984C70.667 94.4685 70.8887 94.5988 71.133 94.6894C71.3832 94.7726 71.634 94.7986 71.8855 94.7675ZM77.826 94.6357C77.4556 94.6816 77.1041 94.6546 76.7717 94.5548C76.4451 94.4475 76.153 94.2855 75.8953 94.069C75.6434 93.8449 75.4377 93.5816 75.278 93.279C75.1176 92.9698 75.0183 92.6362 74.9801 92.2782C74.9405 91.907 74.9665 91.5545 75.0583 91.2207C75.1493 90.8803 75.2975 90.5731 75.5029 90.2991C75.7076 90.0185 75.958 89.7894 76.2541 89.6116C76.5561 89.4264 76.8923 89.3109 77.2628 89.2649C77.6333 89.219 77.9818 89.2497 78.3083 89.357C78.6341 89.4577 78.9263 89.6196 79.1847 89.8428C79.4425 90.0594 79.6515 90.3223 79.8119 90.6315C79.9716 90.9341 80.0712 91.2711 80.1109 91.6423C80.1491 92.0002 80.1227 92.3494 80.0316 92.6898C79.9399 93.0236 79.7917 93.3308 79.587 93.6114C79.3882 93.8845 79.1379 94.1137 78.8359 94.2989C78.5398 94.4767 78.2032 94.5889 77.826 94.6357ZM75.6659 92.2033C75.707 92.5878 75.8272 92.9288 76.0266 93.2265C76.2318 93.5168 76.4866 93.7371 76.7909 93.8874C77.0945 94.0312 77.4183 94.0817 77.7624 94.0391C78.1064 93.9964 78.4108 93.8647 78.6754 93.6438C78.9401 93.4229 79.1415 93.1427 79.2795 92.8032C79.4169 92.4571 79.4654 92.0951 79.425 91.7172C79.384 91.3327 79.2605 90.992 79.0545 90.6952C78.8485 90.3983 78.5934 90.1747 78.2891 90.0243C77.9848 89.874 77.6606 89.8201 77.3166 89.8628C76.9725 89.9054 76.6685 90.0405 76.4046 90.268C76.1472 90.4947 75.9495 90.7778 75.8115 91.1173C75.6727 91.4502 75.6242 91.8122 75.6659 92.2033ZM83.7678 93.8992C83.3907 93.9459 83.036 93.9194 82.7035 93.8195C82.377 93.7123 82.0812 93.5474 81.8161 93.325C81.5577 93.1018 81.345 92.836 81.178 92.5276C81.0176 92.2184 80.918 91.8814 80.879 91.5168C80.8267 91.0263 80.8881 90.5653 81.0632 90.1339C81.2384 89.7024 81.5084 89.3432 81.8733 89.0562C82.2382 88.7692 82.6753 88.5941 83.1848 88.5309C83.6677 88.4711 84.1065 88.5309 84.501 88.7103C84.8949 88.8832 85.2013 89.1475 85.4203 89.5032L84.7876 89.7932C84.6137 89.546 84.3867 89.366 84.1065 89.2529C83.8322 89.1324 83.5362 89.0919 83.2187 89.1312C82.8746 89.1739 82.5699 89.3023 82.3045 89.5166C82.0392 89.7308 81.8371 90.0044 81.6983 90.3373C81.5662 90.6693 81.5213 91.0342 81.5638 91.432C81.6055 91.8231 81.7294 92.1671 81.9354 92.4639C82.1414 92.7608 82.3969 92.9877 82.7019 93.1447C83.0062 93.2951 83.3304 93.3489 83.6744 93.3063C83.8993 93.2784 84.1101 93.212 84.3067 93.107C84.5099 93.0012 84.6806 92.8726 84.8186 92.7212C84.9625 92.5623 85.0524 92.4 85.0884 92.2344L85.7745 92.3508C85.7081 92.6076 85.5763 92.8489 85.3792 93.0748C85.188 93.2933 84.9529 93.4769 84.6738 93.6257C84.4006 93.767 84.0987 93.8582 83.7678 93.8992ZM86.385 91.9628C86.3503 91.638 86.4132 91.3481 86.5737 91.0931C86.7335 90.8315 86.9687 90.6176 87.2795 90.4515C87.5961 90.2779 87.9695 90.1645 88.3995 90.1112C88.6509 90.08 88.9144 90.0675 89.1899 90.0737C89.4654 90.0798 89.7132 90.1096 89.9334 90.1629L89.8867 89.7254C89.84 89.2878 89.6739 88.9558 89.3882 88.7293C89.1026 88.5027 88.7316 88.4177 88.275 88.4743C87.9972 88.5087 87.7283 88.5958 87.4683 88.7355C87.2143 88.8677 86.9524 89.0513 86.6825 89.2863L86.3735 88.841C86.6862 88.5671 86.9986 88.3538 87.3107 88.2009C87.6222 88.0414 87.9466 87.9407 88.284 87.8989C88.9192 87.8202 89.4414 87.9402 89.8509 88.2588C90.2603 88.5775 90.4993 89.0584 90.5679 89.7014L90.8237 92.0978C90.8336 92.1906 90.8609 92.2577 90.9056 92.2992C90.9495 92.334 91.0148 92.3495 91.1016 92.3454L91.1589 92.8824C91.0868 92.898 91.0247 92.9124 90.9724 92.9256C90.9202 92.9388 90.8805 92.9437 90.8534 92.9404C90.6872 92.9543 90.5559 92.9168 90.4593 92.828C90.3626 92.7393 90.305 92.6389 90.2864 92.5271L90.2361 92.1504C90.0364 92.4775 89.7601 92.7468 89.4073 92.9584C89.0538 93.1634 88.6852 93.2897 88.3014 93.3373C87.9706 93.3783 87.6622 93.346 87.3761 93.2404C87.0959 93.1274 86.8669 92.961 86.6893 92.7412C86.5175 92.5139 86.4161 92.2545 86.385 91.9628ZM89.8909 91.9313C89.9538 91.8295 90.0005 91.733 90.031 91.6419C90.0615 91.5508 90.0732 91.4721 90.0661 91.4058L89.9854 90.6501C89.7513 90.5918 89.5094 90.5546 89.2596 90.5386C89.0165 90.5217 88.7725 90.5284 88.5277 90.5588C88.0448 90.6186 87.6647 90.7631 87.3875 90.9923C87.1103 91.2214 86.9894 91.5017 87.0247 91.8331C87.0453 92.0254 87.1143 92.2015 87.232 92.3616C87.3489 92.515 87.5093 92.6362 87.7132 92.7251C87.9164 92.8074 88.147 92.8325 88.405 92.8006C88.7292 92.7604 89.0235 92.6601 89.288 92.4997C89.559 92.3385 89.76 92.149 89.8909 91.9313ZM91.6238 85.47L92.2986 85.3863L92.9482 91.4717C92.9758 91.7303 93.0402 91.8936 93.1413 91.9616C93.2424 92.0297 93.3591 92.0555 93.4914 92.0391C93.6105 92.0244 93.7282 91.9964 93.8444 91.9551C93.9607 91.9138 94.0604 91.8746 94.1436 91.8374L94.3211 92.3695C94.201 92.4382 94.0501 92.5005 93.8684 92.5566C93.6933 92.6119 93.5396 92.6477 93.4073 92.6641C93.103 92.7019 92.8486 92.6427 92.6443 92.4867C92.4465 92.3299 92.331 92.0957 92.2978 91.7841L91.6238 85.47ZM95.3756 93.9718C95.4689 93.9669 95.5586 93.9591 95.6446 93.9485C95.7313 93.9445 95.7938 93.9334 95.8321 93.9152C95.91 93.8921 95.9812 93.8362 96.0455 93.7477C96.1097 93.6591 96.1795 93.496 96.2547 93.2583C96.3298 93.0206 96.4334 92.6719 96.5653 92.2123L93.7596 87.3109L94.4741 87.2224L96.8483 91.472L98.1162 86.7709L98.7911 86.6873L96.8248 93.7014C96.792 93.8331 96.7349 93.9578 96.6536 94.0753C96.573 94.1995 96.4664 94.3 96.3338 94.3769C96.2086 94.4596 96.0471 94.5165 95.8493 94.5478C95.7905 94.5618 95.7276 94.5696 95.6608 94.5711C95.6012 94.5785 95.5277 94.5809 95.4403 94.5783L95.3756 93.9718ZM102.937 91.5233C102.507 91.5766 102.108 91.5119 101.74 91.3291C101.379 91.1455 101.081 90.9003 100.847 90.5935L101.188 93.7854L100.513 93.869L99.7338 86.5705L100.339 86.4954L100.446 87.4997C100.617 87.1495 100.863 86.8536 101.186 86.6121C101.508 86.364 101.865 86.2157 102.255 86.1673C102.612 86.123 102.948 86.1587 103.262 86.2742C103.575 86.3832 103.854 86.5501 104.1 86.7749C104.345 86.9997 104.544 87.2672 104.698 87.5773C104.858 87.8799 104.956 88.2035 104.993 88.5482C105.044 89.0322 104.993 89.4919 104.838 89.9275C104.69 90.3557 104.453 90.7141 104.128 91.0028C103.804 91.2916 103.407 91.4651 102.937 91.5233ZM102.685 90.95C102.969 90.9148 103.218 90.8269 103.431 90.6863C103.643 90.5391 103.818 90.3562 103.956 90.1377C104.1 89.9183 104.202 89.6806 104.262 89.4247C104.321 89.1621 104.336 88.8983 104.308 88.6331C104.278 88.3547 104.2 88.0957 104.074 87.8561C103.955 87.6157 103.795 87.4104 103.596 87.2403C103.397 87.0702 103.176 86.9431 102.932 86.8592C102.688 86.7752 102.431 86.75 102.16 86.7836C101.988 86.8049 101.813 86.8602 101.634 86.9495C101.456 87.0387 101.288 87.157 101.129 87.3042C100.977 87.4441 100.852 87.5972 100.756 87.7636C100.66 87.93 100.608 88.101 100.6 88.2766L100.769 89.8676C100.902 90.0998 101.067 90.3042 101.267 90.4809C101.466 90.651 101.688 90.7814 101.933 90.872C102.183 90.9552 102.434 90.9812 102.685 90.95ZM108.119 90.881C107.696 90.9334 107.295 90.9126 106.916 90.8185C106.537 90.7244 106.201 90.5512 105.905 90.299L106.132 89.7873C106.452 90.023 106.765 90.1858 107.069 90.2756C107.38 90.3581 107.7 90.3788 108.031 90.3378C108.435 90.2877 108.754 90.1676 108.988 89.9773C109.222 89.7805 109.323 89.5295 109.29 89.2246C109.268 89.0191 109.189 88.8711 109.052 88.7806C108.92 88.6827 108.736 88.6149 108.497 88.5774C108.264 88.5323 107.985 88.4897 107.659 88.4495C107.291 88.3944 106.979 88.3289 106.723 88.2532C106.473 88.17 106.276 88.0534 106.132 87.9032C105.995 87.7456 105.912 87.5309 105.883 87.2592C105.847 86.9211 105.899 86.6324 106.042 86.3931C106.19 86.1464 106.403 85.9487 106.682 85.7999C106.967 85.6437 107.292 85.543 107.655 85.4979C108.052 85.4487 108.41 85.4683 108.728 85.5565C109.045 85.6447 109.312 85.7896 109.528 85.9912L109.249 86.4892C109.042 86.3001 108.803 86.1717 108.535 86.1043C108.272 86.0294 107.985 86.0112 107.674 86.0498C107.462 86.076 107.264 86.1308 107.078 86.2143C106.892 86.2911 106.743 86.4036 106.632 86.5517C106.526 86.6924 106.485 86.8755 106.509 87.1009C106.529 87.2865 106.591 87.4266 106.695 87.5212C106.798 87.6091 106.946 87.6781 107.139 87.728C107.332 87.7714 107.568 87.816 107.847 87.8619C108.249 87.9196 108.601 87.9868 108.905 88.0634C109.207 88.1334 109.447 88.2447 109.624 88.3974C109.801 88.55 109.906 88.7822 109.94 89.0937C109.991 89.5776 109.85 89.978 109.515 90.2949C109.18 90.6118 108.715 90.8072 108.119 90.881ZM113.453 90.2199C113.082 90.2659 112.731 90.2389 112.398 90.1391C112.065 90.0326 111.77 89.8711 111.512 89.6545C111.253 89.4313 111.041 89.1655 110.874 88.857C110.713 88.5478 110.613 88.2076 110.574 87.8364C110.522 87.3524 110.584 86.8948 110.759 86.4633C110.941 86.0311 111.214 85.6714 111.579 85.3844C111.943 85.0908 112.373 84.9132 112.869 84.8517C113.379 84.7885 113.835 84.8562 114.239 85.0548C114.648 85.2525 114.984 85.54 115.246 85.9173C115.506 86.288 115.662 86.712 115.713 87.1892C115.719 87.2423 115.725 87.2953 115.73 87.3483C115.735 87.3947 115.736 87.4316 115.732 87.459L111.306 88.0075C111.379 88.3747 111.517 88.6934 111.72 88.9638C111.929 89.2267 112.181 89.4271 112.478 89.565C112.78 89.6955 113.096 89.7402 113.427 89.6992C113.765 89.6574 114.073 89.5318 114.352 89.3226C114.638 89.1125 114.826 88.8609 114.915 88.5677L115.518 88.6542C115.438 88.9126 115.3 89.1548 115.103 89.3807C114.905 89.6066 114.664 89.7944 114.378 89.944C114.099 90.0861 113.79 90.1781 113.453 90.2199ZM111.234 87.5228L115.055 87.0492C114.988 86.6746 114.85 86.3559 114.641 86.093C114.439 85.8293 114.187 85.6355 113.885 85.5117C113.59 85.3804 113.273 85.3356 112.936 85.3775C112.598 85.4193 112.299 85.5403 112.039 85.7404C111.778 85.934 111.574 86.1877 111.427 86.5015C111.285 86.8078 111.221 87.1483 111.234 87.5228ZM65.3532 108.171L64.8002 102.99L65.475 102.907L66.028 108.087L65.3532 108.171ZM64.6845 101.907L64.5783 100.912L65.2532 100.829L65.3593 101.823L64.6845 101.907ZM69.222 107.792C68.7986 107.845 68.3975 107.824 68.0187 107.73C67.64 107.636 67.3031 107.462 67.008 107.21L67.2349 106.698C67.5551 106.934 67.8674 107.097 68.1719 107.187C68.4824 107.269 68.803 107.29 69.1338 107.249C69.5374 107.199 69.8564 107.079 70.0908 106.889C70.3246 106.692 70.4251 106.441 70.3926 106.136C70.3707 105.93 70.2912 105.782 70.1542 105.692C70.023 105.594 69.8382 105.526 69.5995 105.489C69.3668 105.444 69.0874 105.401 68.7613 105.361C68.3935 105.306 68.0815 105.24 67.8253 105.164C67.5751 105.081 67.3783 104.965 67.2349 104.814C67.0974 104.657 67.0142 104.442 66.9852 104.17C66.9491 103.832 67.0021 103.544 67.1441 103.304C67.2921 103.058 67.5056 102.86 67.7847 102.711C68.0697 102.555 68.3941 102.454 68.758 102.409C69.1549 102.36 69.5123 102.379 69.8301 102.468C70.1479 102.556 70.4147 102.701 70.6307 102.902L70.352 103.4C70.1441 103.211 69.9058 103.083 69.6372 103.016C69.3745 102.941 69.0876 102.922 68.7767 102.961C68.565 102.987 68.3663 103.042 68.1808 103.125C67.9946 103.202 67.8458 103.315 67.7342 103.463C67.6286 103.604 67.5878 103.787 67.6118 104.012C67.6316 104.198 67.6935 104.338 67.7975 104.432C67.9007 104.52 68.0489 104.589 68.2419 104.639C68.4342 104.683 68.6702 104.727 68.95 104.773C69.3517 104.831 69.7041 104.898 70.0072 104.975C70.3096 105.045 70.5494 105.156 70.7266 105.309C70.9038 105.461 71.009 105.693 71.0423 106.005C71.0939 106.489 70.9523 106.889 70.6175 107.206C70.2826 107.523 69.8174 107.718 69.222 107.792ZM68.8803 119.925C68.5032 119.971 68.1484 119.945 67.816 119.845C67.4895 119.738 67.1937 119.573 66.9286 119.35C66.6702 119.127 66.4575 118.861 66.2905 118.553C66.1301 118.244 66.0304 117.907 65.9915 117.542C65.9392 117.052 66.0006 116.591 66.1757 116.159C66.3509 115.728 66.6209 115.369 66.9858 115.082C67.3506 114.795 67.7878 114.619 68.2972 114.556C68.7802 114.496 69.219 114.556 69.6135 114.736C70.0074 114.909 70.3138 115.173 70.5328 115.529L69.9001 115.819C69.7262 115.571 69.4992 115.391 69.219 115.278C68.9447 115.158 68.6487 115.117 68.3311 115.157C67.9871 115.199 67.6824 115.328 67.417 115.542C67.1516 115.756 66.9496 116.03 66.8108 116.363C66.6787 116.695 66.6338 117.06 66.6763 117.457C66.718 117.848 66.8419 118.192 67.0479 118.489C67.2539 118.786 67.5094 119.013 67.8144 119.17C68.1187 119.32 68.4428 119.374 68.7869 119.332C69.0118 119.304 69.2226 119.237 69.4192 119.132C69.6224 119.027 69.793 118.898 69.9311 118.747C70.075 118.588 70.1649 118.425 70.2009 118.26L70.887 118.376C70.8206 118.633 70.6888 118.874 70.4917 119.1C70.3005 119.319 70.0654 119.502 69.7863 119.651C69.5131 119.792 69.2111 119.884 68.8803 119.925ZM74.2388 119.26C73.8683 119.306 73.5168 119.279 73.1844 119.18C72.8579 119.072 72.5657 118.91 72.308 118.694C72.0562 118.47 71.8504 118.206 71.6907 117.904C71.5304 117.595 71.4311 117.261 71.3928 116.903C71.3532 116.532 71.3793 116.179 71.471 115.845C71.562 115.505 71.7103 115.198 71.9156 114.924C72.1203 114.643 72.3707 114.414 72.6668 114.236C72.9688 114.051 73.305 113.936 73.6755 113.89C74.046 113.844 74.3945 113.874 74.7211 113.982C75.0469 114.082 75.339 114.244 75.5975 114.468C75.8552 114.684 76.0643 114.947 76.2246 115.256C76.3843 115.559 76.484 115.896 76.5236 116.267C76.5618 116.625 76.5354 116.974 76.4444 117.315C76.3526 117.648 76.2044 117.956 75.9997 118.236C75.801 118.509 75.5506 118.739 75.2486 118.924C74.9525 119.101 74.6159 119.214 74.2388 119.26ZM72.0787 116.828C72.1197 117.213 72.2399 117.554 72.4393 117.851C72.6446 118.142 72.8993 118.362 73.2036 118.512C73.5072 118.656 73.8311 118.706 74.1751 118.664C74.5191 118.621 74.8235 118.489 75.0882 118.269C75.3528 118.048 75.5542 117.767 75.6923 117.428C75.8296 117.082 75.8781 116.72 75.8378 116.342C75.7967 115.958 75.6732 115.617 75.4672 115.32C75.2612 115.023 75.0061 114.799 74.7018 114.649C74.3975 114.499 74.0733 114.445 73.7293 114.488C73.3853 114.53 73.0813 114.665 72.8173 114.893C72.5599 115.119 72.3622 115.403 72.2242 115.742C72.0854 116.075 72.0369 116.437 72.0787 116.828ZM85.6183 117.749L84.9434 117.833L84.6346 114.939C84.5702 114.336 84.4268 113.904 84.2045 113.643C83.9822 113.381 83.6825 113.274 83.3054 113.321C82.9151 113.369 82.5793 113.552 82.2981 113.869C82.0234 114.185 81.8466 114.57 81.7676 115.023L82.1052 118.185L81.4303 118.268L81.1214 115.375C81.0563 114.765 80.9163 114.332 80.7013 114.077C80.4857 113.815 80.186 113.707 79.8022 113.755C79.4185 113.803 79.0857 113.982 78.8037 114.292C78.5218 114.602 78.3417 114.987 78.2634 115.447L78.602 118.619L77.9271 118.703L77.3741 113.522L77.9894 113.446L78.1147 114.619C78.2898 114.188 78.5344 113.842 78.8485 113.581C79.1692 113.32 79.5379 113.163 79.9548 113.111C80.3848 113.058 80.7452 113.138 81.036 113.35C81.3269 113.563 81.5233 113.864 81.6253 114.254C81.8168 113.787 82.0659 113.421 82.3726 113.154C82.686 112.887 83.0544 112.727 83.4778 112.675C83.7689 112.639 84.0194 112.661 84.2292 112.743C84.4456 112.824 84.6239 112.956 84.7643 113.14C84.9105 113.317 85.0249 113.541 85.1076 113.813C85.1961 114.077 85.2585 114.378 85.2945 114.716L85.6183 117.749ZM87.0468 117.572L86.4938 112.392L87.1686 112.308L87.7216 117.489L87.0468 117.572ZM86.3781 111.308L86.272 110.313L86.9468 110.23L87.0529 111.224L86.3781 111.308ZM93.5547 116.766L92.8799 116.849L92.571 113.956C92.5059 113.346 92.3692 112.913 92.1608 112.656C91.9518 112.394 91.6554 112.286 91.2717 112.333C91.007 112.366 90.7528 112.465 90.5089 112.629C90.2643 112.787 90.0548 112.991 89.8804 113.241C89.7119 113.484 89.5998 113.753 89.5442 114.049L89.8828 117.221L89.208 117.304L88.655 112.124L89.2703 112.048L89.3955 113.221C89.5076 112.952 89.6662 112.71 89.8713 112.497C90.0757 112.277 90.3145 112.096 90.5877 111.955C90.8609 111.813 91.1496 111.724 91.4539 111.686C91.7384 111.651 91.9856 111.674 92.1954 111.755C92.4052 111.837 92.5803 111.97 92.7206 112.154C92.8602 112.331 92.9713 112.556 93.054 112.828C93.1359 113.093 93.1949 113.395 93.231 113.733L93.5547 116.766ZM97.0754 116.4C96.7247 116.443 96.3927 116.41 96.0794 116.302C95.7662 116.193 95.4873 116.029 95.2427 115.811C95.0041 115.585 94.8083 115.321 94.6553 115.017C94.5022 114.714 94.4076 114.393 94.3715 114.055C94.3326 113.69 94.3524 113.342 94.4309 113.01C94.5153 112.67 94.65 112.361 94.8348 112.083C95.0262 111.804 95.2601 111.577 95.5363 111.402C95.8119 111.22 96.1283 111.107 96.4855 111.063C96.9288 111.008 97.3246 111.073 97.6728 111.258C98.0277 111.442 98.3353 111.686 98.5956 111.99L98.4799 110.906L99.0853 110.831L99.6404 116.031C99.6913 116.509 99.6184 116.924 99.4215 117.278C99.2319 117.637 98.9508 117.924 98.5781 118.138C98.2121 118.351 97.8008 118.486 97.3443 118.543C96.7555 118.616 96.2678 118.569 95.8813 118.402C95.4948 118.235 95.1666 117.986 94.8968 117.657L95.2786 117.277C95.5184 117.577 95.8155 117.785 96.1699 117.902C96.5309 118.019 96.9033 118.053 97.287 118.006C97.6244 117.964 97.9253 117.863 98.1898 117.702C98.4615 117.548 98.667 117.338 98.8062 117.072C98.9521 116.805 99.0052 116.486 98.9655 116.115L98.8562 115.091C98.6924 115.44 98.4491 115.736 98.1263 115.977C97.8028 116.212 97.4525 116.353 97.0754 116.4ZM97.2034 115.81C97.4085 115.784 97.5998 115.724 97.7773 115.628C97.9613 115.531 98.1264 115.413 98.2725 115.274C98.4178 115.128 98.5353 114.973 98.6248 114.807C98.7144 114.642 98.7639 114.478 98.7734 114.315L98.6025 112.714C98.4764 112.475 98.3105 112.27 98.1047 112.101C97.8982 111.925 97.6702 111.799 97.4207 111.722C97.1771 111.638 96.9296 111.612 96.6782 111.643C96.3871 111.679 96.1325 111.775 95.9144 111.929C95.7022 112.076 95.5277 112.263 95.3908 112.488C95.2599 112.706 95.1648 112.946 95.1057 113.208C95.0466 113.471 95.0305 113.728 95.0574 113.98C95.0871 114.258 95.165 114.517 95.2911 114.757C95.4166 114.99 95.5759 115.195 95.7691 115.373C95.9683 115.543 96.1893 115.667 96.4322 115.744C96.6817 115.821 96.9388 115.842 97.2034 115.81Z" fill="white"/>
<line x1="58.4976" y1="77.9542" x2="62.4695" y2="121.123" stroke="#FFC100"/>
<defs>
<filter id="filter0_dd_217_546" x="34.8179" y="34.0299" width="133.863" height="644.61" filterUnits="userSpaceOnUse" color-interpolation-filters="sRGB">
<feFlood flood-opacity="0" result="BackgroundImageFix"/>
<feColorMatrix in="SourceAlpha" type="matrix" values="0 0 0 0 0 0 0 0 0 0 0 0 0 0 0 0 0 0 127 0" result="hardAlpha"/>
<feMorphology radius="3.50755" operator="dilate" in="SourceAlpha" result="effect1_dropShadow_217_546"/>
<feOffset dx="4.20906" dy="4.20906"/>
<feGaussianBlur stdDeviation="5.26132"/>
<feColorMatrix type="matrix" values="0 0 0 0 0 0 0 0 0 0 0 0 0 0 0 0 0 0 0.1 0"/>
<feBlend mode="normal" in2="BackgroundImageFix" result="effect1_dropShadow_217_546"/>
<feColorMatrix in="SourceAlpha" type="matrix" values="0 0 0 0 0 0 0 0 0 0 0 0 0 0 0 0 0 0 127 0" result="hardAlpha"/>
<feOffset dx="4.20906" dy="4.20906"/>
<feGaussianBlur stdDeviation="3.50755"/>
<feColorMatrix type="matrix" values="0 0 0 0 0 0 0 0 0 0 0 0 0 0 0 0 0 0 0.2 0"/>
<feBlend mode="normal" in2="effect1_dropShadow_217_546" result="effect2_dropShadow_217_546"/>
<feBlend mode="normal" in="SourceGraphic" in2="effect2_dropShadow_217_546" result="shape"/>
</filter>
<filter id="filter1_d_217_546" x="44.92" y="36.2284" width="90.1103" height="112.914" filterUnits="userSpaceOnUse" color-interpolation-filters="sRGB">
<feFlood flood-opacity="0" result="BackgroundImageFix"/>
<feColorMatrix in="SourceAlpha" type="matrix" values="0 0 0 0 0 0 0 0 0 0 0 0 0 0 0 0 0 0 127 0" result="hardAlpha"/>
<feOffset dx="0.70151" dy="1.40302"/>
<feGaussianBlur stdDeviation="1.75378"/>
<feColorMatrix type="matrix" values="0 0 0 0 0.883333 0 0 0 0 0.806042 0 0 0 0 0.806042 0 0 0 0.25 0"/>
<feBlend mode="normal" in2="BackgroundImageFix" result="effect1_dropShadow_217_546"/>
<feBlend mode="normal" in="SourceGraphic" in2="effect1_dropShadow_217_546" result="shape"/>
</filter>
<linearGradient id="paint0_linear_217_546" x1="4.97044" y1="96.0312" x2="-8.57171" y2="94.792" gradientUnits="userSpaceOnUse">
<stop stop-opacity="0.2"/>
<stop offset="0.338542" stop-opacity="0"/>
<stop offset="0.630208" stop-color="white" stop-opacity="0"/>
<stop offset="1" stop-color="white" stop-opacity="0.3"/>
</linearGradient>
<linearGradient id="paint1_linear_217_546" x1="72.6379" y1="97.5258" x2="-0.354132" y2="1.40826" gradientUnits="userSpaceOnUse">
<stop stop-opacity="0.2"/>
<stop offset="0.338542" stop-opacity="0"/>
<stop offset="0.630208" stop-color="white" stop-opacity="0"/>
<stop offset="1" stop-color="white" stop-opacity="0.3"/>
</linearGradient>
<linearGradient id="paint2_linear_217_546" x1="72.6379" y1="97.5601" x2="-0.386673" y2="1.43347" gradientUnits="userSpaceOnUse">
<stop stop-opacity="0.2"/>
<stop offset="0.338542" stop-opacity="0"/>
<stop offset="0.630208" stop-color="white" stop-opacity="0"/>
<stop offset="1" stop-color="white" stop-opacity="0.3"/>
</linearGradient>
<clipPath id="clip0_217_546">
<rect width="4.97044" height="96.0312" fill="white" transform="matrix(0.624322 0.196185 0.110254 1.03645 44.639 43.8511)"/>
</clipPath>
<clipPath id="clip1_217_546">
<rect width="66.6434" height="582.253" fill="white" transform="matrix(0.624322 0.196185 0.110254 1.03645 44.639 43.8511)"/>
</clipPath>
<clipPath id="clip2_217_546">
<path d="M44.6521 43.8542C46.3659 44.3928 48.0006 47.1358 48.3033 49.981L57.7951 139.209C58.0978 142.054 56.9538 143.924 55.24 143.386L44.6521 43.8542Z" fill="white"/>
</clipPath>
<clipPath id="clip3_217_546">
<path d="M47.7261 44.9315L99.0932 40.2447C110.665 39.1889 121.063 47.7032 122.318 59.262L128.299 114.391C129.554 125.95 121.189 136.176 109.617 137.232L58.2498 141.919L47.7261 44.9315Z" fill="white"/>
</clipPath>
<clipPath id="clip4_217_546">
<path d="M47.7261 44.9315L99.0932 40.2447C110.665 39.1889 121.063 47.7032 122.318 59.262L128.303 114.425C129.557 125.984 121.193 136.21 109.621 137.266L58.2535 141.953L47.7261 44.9315Z" fill="white"/>
</clipPath>
</defs>
</svg>
