<svg width="176" height="177" viewBox="0 0 176 177" fill="none" xmlns="http://www.w3.org/2000/svg">
<path d="M45.1661 44.2169L89.7983 37.2769C101.03 35.5305 111.849 43.3221 114.069 54.7561L125.299 112.593C127.6 124.444 119.786 135.544 108.091 137.036L61.6757 142.959L45.1661 44.2169Z" fill="#D3D3D3"/>
<path d="M45.3283 44.5693L91.957 37.5423C103.456 35.8094 114.42 44.0457 116.269 55.8052L125.287 113.179C127.11 124.776 119.362 135.374 107.982 136.847L61.3233 142.89L45.3283 44.5693Z" fill="#E2E2E2"/>
<path d="M44.6575 43.8793L94.3157 37.5912C105.669 36.1535 116.327 44.3441 118.151 55.9089L127.133 112.859C128.963 124.46 121.213 135.065 109.83 136.539L61.0306 142.858L44.6575 43.8793Z" fill="#EDEDED"/>
<path d="M47.3569 44.501L95.6639 38.2152C107.296 36.7016 118.154 45.299 119.639 57.1977L126.663 113.504C128.083 124.885 120.371 135.073 109.245 136.516L60.6429 142.82L47.3569 44.501Z" fill="#F5F5F5"/>
<g clip-path="url(#clip0_217_495)">
<g clip-path="url(#clip1_217_495)">
<g filter="url(#filter0_dd_217_495)">
<rect width="66.6434" height="582.253" transform="matrix(0.624322 0.196185 0.110254 1.03645 44.639 43.8511)" fill="#FFC100"/>
</g>
</g>
</g>
<g clip-path="url(#clip2_217_495)">
<rect width="4.97044" height="96.0312" transform="matrix(0.624322 0.196185 0.110254 1.03645 44.6516 43.854)" fill="url(#paint0_linear_217_495)" fill-opacity="0.5"/>
<path d="M44.5277 40.8662L55.7612 146.467" stroke="white" stroke-opacity="0.16" stroke-width="1.05226"/>
<path d="M44.3356 40.8059L55.5691 146.406" stroke="white" stroke-opacity="0.16" stroke-width="2.10453"/>
</g>
<g filter="url(#filter1_d_217_495)">
<g clip-path="url(#clip3_217_495)">
<rect width="72.6379" height="97.5258" transform="matrix(0.995631 -0.0908421 0.107907 0.994478 47.7261 44.9315)" fill="url(#paint1_linear_217_495)" fill-opacity="0.5"/>
<path d="M52.083 41.5778L63.2932 144.891" stroke="white" stroke-opacity="0.16" stroke-width="1.05227"/>
<path d="M47.606 41.9863L58.8161 145.3" stroke="white" stroke-opacity="0.16" stroke-width="2.10453"/>
</g>
<g clip-path="url(#clip4_217_495)">
<rect width="72.6379" height="97.5601" transform="matrix(0.995631 -0.0908421 0.107907 0.994478 47.7261 44.9315)" fill="url(#paint2_linear_217_495)" fill-opacity="0.5"/>
<path d="M52.083 41.5778L63.2932 144.891" stroke="white" stroke-opacity="0.16" stroke-width="1.05227"/>
<path d="M47.606 41.9863L58.8161 145.3" stroke="white" stroke-opacity="0.16" stroke-width="2.10453"/>
</g>
</g>
<rect x="47.9023" y="45.1352" width="72.3" height="99.12" transform="rotate(-6.63 47.9023 45.1352)" fill="#2F3234" stroke="white"/>
<path d="M66.5461 129.61L66.3782 128.165L66.8664 128.109C66.9797 128.095 67.0748 128.105 67.1515 128.138C67.2286 128.17 67.2886 128.218 67.3314 128.283C67.3743 128.348 67.4006 128.423 67.4105 128.509C67.4204 128.594 67.412 128.673 67.3853 128.747C67.3591 128.82 67.3124 128.882 67.2452 128.932C67.178 128.981 67.0882 129.012 66.9758 129.025L66.6259 129.066L66.6079 128.911L66.9521 128.871C67.0297 128.862 67.0905 128.841 67.1344 128.809C67.1783 128.777 67.2082 128.736 67.2241 128.688C67.2403 128.64 67.2451 128.586 67.2384 128.529C67.2317 128.471 67.2148 128.42 67.1879 128.377C67.1614 128.334 67.1229 128.302 67.0724 128.282C67.0219 128.261 66.9573 128.255 66.8788 128.264L66.5712 128.3L66.7211 129.59L66.5461 129.61ZM68.1064 129.454C68.0378 129.462 67.9739 129.457 67.915 129.437C67.8559 129.418 67.8071 129.385 67.7684 129.339C67.7297 129.293 67.7063 129.235 67.6981 129.164C67.6908 129.102 67.6972 129.051 67.7172 129.009C67.7371 128.967 67.7662 128.933 67.8046 128.906C67.8429 128.879 67.8862 128.858 67.9343 128.841C67.9828 128.824 68.0319 128.809 68.0815 128.797C68.1463 128.781 68.199 128.768 68.2394 128.759C68.2802 128.75 68.3094 128.738 68.327 128.725C68.345 128.712 68.3525 128.692 68.3493 128.665L68.3487 128.66C68.3406 128.59 68.3153 128.538 68.2727 128.504C68.2306 128.47 68.1712 128.457 68.0945 128.466C68.015 128.476 67.9547 128.5 67.9136 128.54C67.8725 128.58 67.8451 128.621 67.8314 128.663L67.6668 128.625C67.6873 128.556 67.719 128.5 67.7618 128.458C67.805 128.415 67.8537 128.383 67.908 128.362C67.9626 128.341 68.0173 128.327 68.0718 128.32C68.1066 128.316 68.1471 128.316 68.1932 128.319C68.2398 128.322 68.2857 128.333 68.331 128.354C68.3767 128.374 68.4167 128.408 68.4509 128.456C68.485 128.504 68.5071 128.571 68.5171 128.657L68.6001 129.371L68.4336 129.391L68.4166 129.244L68.4081 129.245C68.3996 129.27 68.3837 129.297 68.3605 129.327C68.3372 129.357 68.3048 129.384 68.2633 129.408C68.2217 129.432 68.1694 129.447 68.1064 129.454ZM68.1144 129.302C68.1803 129.294 68.2343 129.275 68.2764 129.244C68.319 129.213 68.3495 129.175 68.3678 129.132C68.3865 129.088 68.3933 129.044 68.388 128.998L68.3703 128.846C68.3643 128.855 68.3496 128.865 68.3265 128.875C68.3037 128.884 68.2771 128.893 68.2467 128.902C68.2167 128.91 68.1873 128.918 68.1586 128.925C68.1303 128.932 68.1073 128.937 68.0897 128.942C68.0471 128.952 68.0077 128.966 67.9716 128.983C67.9358 129 67.9079 129.022 67.8877 129.049C67.868 129.077 67.8606 129.111 67.8655 129.154C67.8723 129.211 67.8987 129.253 67.945 129.277C67.9916 129.301 68.0481 129.31 68.1144 129.302ZM68.904 129.336L68.7781 128.252L68.9389 128.234L68.9579 128.397L68.9692 128.396C68.9827 128.34 69.0134 128.292 69.0613 128.253C69.1091 128.214 69.1655 128.19 69.2304 128.183C69.2426 128.181 69.258 128.18 69.2764 128.178C69.2948 128.176 69.3087 128.175 69.3182 128.175L69.3379 128.345C69.3321 128.344 69.3189 128.343 69.2984 128.343C69.2782 128.342 69.2571 128.343 69.235 128.345C69.1823 128.351 69.1366 128.368 69.0978 128.395C69.0594 128.421 69.0304 128.455 69.0109 128.496C68.9918 128.537 68.9851 128.582 68.9908 128.631L69.0705 129.317L68.904 129.336ZM70.0564 128.104L70.0728 128.245L69.5112 128.31L69.4948 128.169L70.0564 128.104ZM69.6283 127.89L69.7948 127.871L69.9149 128.904C69.9203 128.951 69.9312 128.985 69.9476 129.007C69.9644 129.029 69.9841 129.042 70.0067 129.048C70.0296 129.053 70.0533 129.054 70.0778 129.051C70.0961 129.049 70.1111 129.046 70.1226 129.043C70.1341 129.039 70.1433 129.036 70.1502 129.034L70.2014 129.179C70.1906 129.185 70.1754 129.191 70.1556 129.198C70.136 129.205 70.1106 129.21 70.0796 129.214C70.0325 129.219 69.9853 129.214 69.9378 129.199C69.8907 129.184 69.85 129.158 69.8156 129.12C69.7816 129.082 69.7609 129.031 69.7536 128.968L69.6283 127.89ZM71.3287 127.59L71.4966 129.035L71.3217 129.055L71.1751 127.794L71.1666 127.795L70.8411 128.07L70.8204 127.892L71.1537 127.61L71.3287 127.59ZM72.9166 128.893C72.8187 128.904 72.7302 128.891 72.651 128.853C72.5722 128.815 72.5072 128.756 72.4561 128.677C72.4055 128.598 72.3736 128.503 72.3606 128.391C72.3475 128.278 72.3565 128.177 72.3876 128.088C72.4192 127.999 72.469 127.927 72.537 127.872C72.6054 127.817 72.6885 127.784 72.7864 127.772C72.8842 127.761 72.9725 127.774 73.0513 127.812C73.1305 127.85 73.1955 127.909 73.2462 127.988C73.2974 128.068 73.3295 128.164 73.3426 128.277C73.3557 128.389 73.3463 128.489 73.3147 128.577C73.2835 128.666 73.2337 128.738 73.1652 128.793C73.0973 128.848 73.0144 128.881 72.9166 128.893ZM72.8992 128.743C72.9735 128.734 73.0324 128.708 73.076 128.664C73.1195 128.621 73.1492 128.567 73.165 128.502C73.1809 128.437 73.1846 128.368 73.1761 128.296C73.1677 128.224 73.1484 128.157 73.118 128.098C73.0877 128.038 73.0463 127.991 72.9939 127.958C72.9414 127.925 72.8781 127.913 72.8037 127.922C72.7294 127.93 72.6705 127.957 72.627 128.001C72.5836 128.045 72.5539 128.1 72.5381 128.165C72.5224 128.23 72.5187 128.299 72.5271 128.371C72.5355 128.444 72.5549 128.51 72.5851 128.569C72.6154 128.629 72.6567 128.675 72.7091 128.707C72.7615 128.74 72.8249 128.752 72.8992 128.743ZM74.0157 127.644L74.0321 127.785L73.448 127.853L73.4316 127.712L74.0157 127.644ZM73.7325 128.775L73.5891 127.542C73.5819 127.48 73.5905 127.426 73.6148 127.381C73.6392 127.337 73.6734 127.301 73.7176 127.275C73.7618 127.249 73.8097 127.233 73.8614 127.227C73.9024 127.222 73.9361 127.221 73.9628 127.225C73.9894 127.229 74.0094 127.233 74.0227 127.237L73.9915 127.386C73.9827 127.384 73.9705 127.382 73.955 127.38C73.9399 127.377 73.9204 127.377 73.8964 127.38C73.8414 127.386 73.8033 127.405 73.782 127.436C73.7613 127.466 73.754 127.508 73.7602 127.562L73.899 128.755L73.7325 128.775ZM75.279 127.497L75.2954 127.638L74.7339 127.703L74.7175 127.562L75.279 127.497ZM74.851 127.283L75.0175 127.264L75.1375 128.297C75.143 128.344 75.1539 128.378 75.1703 128.4C75.1871 128.422 75.2067 128.435 75.2293 128.441C75.2523 128.446 75.276 128.447 75.3005 128.444C75.3188 128.442 75.3337 128.439 75.3453 128.436C75.3568 128.432 75.366 128.429 75.3728 128.427L75.4241 128.572C75.4133 128.578 75.398 128.584 75.3783 128.591C75.3586 128.598 75.3333 128.603 75.3022 128.607C75.2552 128.612 75.2079 128.607 75.1604 128.592C75.1134 128.577 75.0727 128.551 75.0382 128.513C75.0042 128.475 74.9836 128.424 74.9763 128.361L74.851 127.283ZM75.7694 127.877L75.8452 128.529L75.6787 128.549L75.5108 127.104L75.6773 127.084L75.7389 127.615L75.753 127.613C75.7719 127.554 75.8049 127.505 75.8518 127.467C75.8992 127.427 75.9655 127.403 76.0506 127.393C76.1244 127.384 76.1908 127.392 76.2498 127.415C76.3087 127.437 76.3569 127.477 76.3945 127.534C76.4326 127.591 76.457 127.666 76.4678 127.759L76.5479 128.448L76.3814 128.467L76.3027 127.79C76.2926 127.704 76.2626 127.64 76.2124 127.598C76.1627 127.555 76.0986 127.539 76.02 127.548C75.9655 127.554 75.9179 127.571 75.8773 127.6C75.8372 127.628 75.8072 127.665 75.7874 127.712C75.7681 127.759 75.7621 127.814 75.7694 127.877ZM77.3094 128.382C77.205 128.394 77.1123 128.381 77.0312 128.344C76.9505 128.306 76.8849 128.248 76.8343 128.17C76.7841 128.091 76.7526 127.996 76.7397 127.885C76.7268 127.774 76.7356 127.674 76.7662 127.584C76.7972 127.494 76.8464 127.421 76.9138 127.365C76.9816 127.309 77.0644 127.275 77.1623 127.264C77.2187 127.257 77.2755 127.26 77.3327 127.272C77.3899 127.285 77.4436 127.31 77.4937 127.347C77.5437 127.383 77.5861 127.435 77.621 127.501C77.6558 127.567 77.6791 127.65 77.6908 127.751L77.699 127.822L76.8638 127.919L76.847 127.775L77.513 127.698C77.5059 127.636 77.4873 127.583 77.4573 127.538C77.4277 127.493 77.389 127.459 77.3411 127.437C77.2937 127.414 77.2398 127.406 77.1796 127.413C77.1133 127.421 77.0579 127.444 77.0132 127.483C76.969 127.521 76.937 127.567 76.9172 127.622C76.8974 127.678 76.891 127.735 76.898 127.795L76.9091 127.891C76.9186 127.973 76.9408 128.04 76.9756 128.094C77.0109 128.147 77.0556 128.185 77.1099 128.209C77.164 128.232 77.2248 128.24 77.292 128.232C77.3358 128.227 77.3746 128.217 77.4084 128.2C77.4427 128.183 77.4713 128.161 77.4943 128.133C77.5172 128.105 77.5335 128.071 77.5432 128.032L77.7093 128.058C77.6988 128.115 77.6759 128.166 77.6407 128.212C77.6055 128.257 77.5598 128.295 77.5037 128.325C77.4475 128.354 77.3828 128.373 77.3094 128.382ZM78.59 128.21L78.4221 126.765L78.5886 126.746L78.6506 127.279L78.6647 127.278C78.6747 127.257 78.6889 127.232 78.7071 127.2C78.7258 127.168 78.7542 127.138 78.7925 127.11C78.8311 127.082 78.8857 127.063 78.9563 127.055C79.0475 127.044 79.1306 127.058 79.2055 127.095C79.2804 127.133 79.3423 127.191 79.391 127.27C79.4398 127.35 79.4708 127.446 79.484 127.56C79.4974 127.675 79.4894 127.776 79.4602 127.865C79.4309 127.953 79.3843 128.025 79.3205 128.079C79.2567 128.132 79.1796 128.165 79.0893 128.175C79.0197 128.183 78.9626 128.178 78.9181 128.16C78.8735 128.141 78.8382 128.118 78.8122 128.091C78.7861 128.064 78.7658 128.041 78.7513 128.023L78.7315 128.025L78.7509 128.191L78.59 128.21ZM78.6907 127.649C78.7003 127.731 78.7206 127.802 78.7519 127.862C78.7831 127.921 78.8238 127.966 78.874 127.996C78.9241 128.025 78.9826 128.036 79.0494 128.028C79.119 128.02 79.1749 127.995 79.2172 127.953C79.2599 127.91 79.2894 127.856 79.3057 127.791C79.3223 127.725 79.3262 127.654 79.3172 127.577C79.3083 127.5 79.2886 127.433 79.258 127.375C79.2278 127.316 79.1871 127.271 79.1359 127.241C79.0851 127.21 79.0245 127.199 78.9539 127.207C78.8862 127.215 78.8313 127.239 78.7892 127.278C78.747 127.317 78.7177 127.369 78.7013 127.433C78.6849 127.496 78.6813 127.568 78.6907 127.649ZM80.2583 128.039C80.1539 128.051 80.0611 128.039 79.9801 128.001C79.8994 127.964 79.8338 127.905 79.7832 127.827C79.733 127.748 79.7015 127.653 79.6886 127.542C79.6757 127.431 79.6845 127.331 79.7151 127.241C79.7461 127.152 79.7953 127.079 79.8627 127.023C79.9305 126.966 80.0133 126.932 80.1112 126.921C80.1676 126.914 80.2244 126.917 80.2816 126.93C80.3388 126.942 80.3925 126.967 80.4426 127.004C80.4926 127.04 80.535 127.092 80.5698 127.158C80.6047 127.224 80.628 127.307 80.6397 127.408L80.6479 127.479L79.8127 127.576L79.7959 127.432L80.4619 127.355C80.4548 127.294 80.4362 127.241 80.4062 127.195C80.3766 127.15 80.3379 127.116 80.29 127.094C80.2426 127.071 80.1887 127.063 80.1285 127.07C80.0622 127.078 80.0068 127.101 79.9621 127.14C79.9179 127.178 79.8859 127.224 79.8661 127.28C79.8463 127.335 79.8399 127.392 79.8469 127.452L79.858 127.548C79.8675 127.63 79.8897 127.698 79.9245 127.751C79.9598 127.804 80.0045 127.843 80.0588 127.866C80.1129 127.89 80.1737 127.897 80.2409 127.89C80.2847 127.884 80.3235 127.874 80.3573 127.857C80.3916 127.841 80.4202 127.818 80.4432 127.79C80.4661 127.762 80.4824 127.728 80.4921 127.689L80.6582 127.715C80.6476 127.772 80.6248 127.823 80.5896 127.869C80.5544 127.915 80.5087 127.952 80.4526 127.982C80.3964 128.012 80.3317 128.031 80.2583 128.039ZM81.6274 127.005L81.4828 127.065C81.4705 127.041 81.4538 127.018 81.4327 126.997C81.4121 126.975 81.3853 126.958 81.3525 126.946C81.3196 126.934 81.279 126.931 81.2305 126.937C81.1642 126.944 81.1107 126.966 81.0701 127.002C81.0298 127.037 81.0124 127.078 81.0178 127.124C81.0227 127.166 81.0415 127.197 81.0744 127.217C81.1073 127.238 81.1566 127.252 81.2225 127.261L81.3879 127.281C81.4875 127.294 81.5639 127.321 81.617 127.364C81.6701 127.407 81.701 127.466 81.7098 127.542C81.7171 127.604 81.7056 127.661 81.6756 127.714C81.646 127.767 81.6011 127.812 81.5409 127.847C81.4807 127.883 81.4085 127.905 81.3243 127.915C81.2138 127.928 81.1195 127.915 81.0415 127.875C80.9635 127.836 80.9095 127.771 80.8795 127.681L81.0329 127.623C81.0547 127.68 81.0883 127.72 81.1335 127.744C81.1792 127.769 81.2362 127.777 81.3044 127.769C81.382 127.76 81.4417 127.736 81.4835 127.698C81.5257 127.659 81.5441 127.617 81.5387 127.57C81.5343 127.532 81.5175 127.502 81.4882 127.48C81.4589 127.457 81.4162 127.443 81.3601 127.436L81.1746 127.415C81.0726 127.403 80.9955 127.375 80.9432 127.331C80.8913 127.287 80.861 127.227 80.8523 127.152C80.8452 127.091 80.8561 127.035 80.885 126.984C80.9143 126.933 80.9573 126.89 81.0139 126.857C81.071 126.823 81.1376 126.801 81.2138 126.793C81.321 126.78 81.408 126.794 81.4746 126.834C81.5417 126.874 81.5926 126.931 81.6274 127.005ZM82.3409 126.676L82.3573 126.817L81.7957 126.882L81.7793 126.741L82.3409 126.676ZM81.9128 126.463L82.0793 126.443L82.1993 127.476C82.2048 127.523 82.2157 127.558 82.2321 127.579C82.2489 127.601 82.2686 127.614 82.2911 127.62C82.3141 127.625 82.3378 127.626 82.3623 127.623C82.3806 127.621 82.3956 127.618 82.4071 127.615C82.4186 127.611 82.4278 127.608 82.4347 127.606L82.4859 127.752C82.4751 127.757 82.4599 127.763 82.4401 127.77C82.4205 127.777 82.3951 127.782 82.3641 127.786C82.317 127.791 82.2698 127.787 82.2223 127.772C82.1752 127.757 82.1345 127.73 82.1 127.692C82.0661 127.654 82.0454 127.604 82.0381 127.541L81.9128 126.463ZM83.3677 126.803L83.223 126.862C83.2107 126.838 83.194 126.816 83.173 126.794C83.1523 126.773 83.1256 126.756 83.0927 126.744C83.0599 126.732 83.0192 126.729 82.9708 126.734C82.9045 126.742 82.851 126.764 82.8103 126.799C82.7701 126.835 82.7527 126.875 82.7581 126.922C82.7629 126.963 82.7817 126.994 82.8146 127.015C82.8475 127.035 82.8969 127.05 82.9627 127.058L83.1281 127.079C83.2278 127.091 83.3041 127.119 83.3573 127.162C83.4103 127.204 83.4413 127.264 83.4501 127.339C83.4573 127.401 83.4459 127.459 83.4158 127.512C83.3862 127.565 83.3413 127.609 83.2811 127.645C83.2209 127.68 83.1487 127.703 83.0645 127.713C82.954 127.726 82.8597 127.712 82.7817 127.673C82.7037 127.633 82.6497 127.569 82.6197 127.479L82.7732 127.421C82.795 127.477 82.8285 127.518 82.8738 127.542C82.9195 127.566 82.9764 127.574 83.0446 127.567C83.1222 127.558 83.1819 127.534 83.2237 127.496C83.2659 127.457 83.2843 127.414 83.2789 127.368C83.2746 127.33 83.2577 127.3 83.2284 127.278C83.1991 127.255 83.1564 127.24 83.1004 127.234L82.9148 127.213C82.8129 127.201 82.7357 127.173 82.6834 127.129C82.6316 127.084 82.6013 127.025 82.5926 126.95C82.5855 126.889 82.5963 126.833 82.6252 126.782C82.6545 126.731 82.6975 126.688 82.7541 126.654C82.8112 126.621 82.8779 126.599 82.9541 126.59C83.0613 126.578 83.1482 126.592 83.2148 126.632C83.2819 126.671 83.3328 126.728 83.3677 126.803ZM84.1928 127.582C84.0883 127.594 83.9956 127.581 83.9145 127.544C83.8339 127.506 83.7682 127.448 83.7176 127.37C83.6675 127.291 83.6359 127.196 83.623 127.085C83.6101 126.974 83.619 126.873 83.6496 126.784C83.6806 126.694 83.7298 126.621 83.7972 126.565C83.865 126.509 83.9478 126.475 84.0456 126.463C84.102 126.457 84.1589 126.46 84.2161 126.472C84.2733 126.485 84.3269 126.509 84.377 126.547C84.427 126.583 84.4695 126.634 84.5043 126.7C84.5391 126.766 84.5624 126.85 84.5742 126.951L84.5824 127.022L83.7471 127.119L83.7304 126.975L84.3964 126.897C84.3892 126.836 84.3707 126.783 84.3406 126.738C84.3111 126.693 84.2723 126.659 84.2244 126.636C84.177 126.614 84.1232 126.606 84.063 126.613C83.9967 126.621 83.9412 126.644 83.8966 126.682C83.8524 126.72 83.8204 126.767 83.8006 126.822C83.7808 126.878 83.7744 126.935 83.7813 126.995L83.7925 127.091C83.802 127.172 83.8241 127.24 83.859 127.294C83.8942 127.347 83.939 127.385 83.9932 127.409C84.0474 127.432 84.1081 127.44 84.1754 127.432C84.2191 127.427 84.2579 127.416 84.2918 127.4C84.326 127.383 84.3546 127.361 84.3776 127.333C84.4005 127.305 84.4169 127.271 84.4266 127.231L84.5927 127.258C84.5821 127.314 84.5592 127.366 84.5241 127.412C84.4888 127.457 84.4432 127.495 84.3871 127.525C84.3309 127.554 84.2661 127.573 84.1928 127.582ZM84.8906 126.013L85.0586 127.458L84.8921 127.478L84.7241 126.033L84.8906 126.013ZM85.3621 125.959L85.53 127.404L85.3635 127.423L85.1956 125.978L85.3621 125.959ZM85.8349 127.368L85.709 126.284L85.8755 126.265L86.0014 127.349L85.8349 127.368ZM85.7727 126.094C85.7402 126.098 85.7109 126.09 85.6849 126.071C85.6592 126.051 85.6446 126.026 85.641 125.995C85.6374 125.964 85.6458 125.936 85.6663 125.911C85.6873 125.886 85.714 125.872 85.7464 125.868C85.7789 125.864 85.8079 125.872 85.8335 125.892C85.8596 125.911 85.8745 125.936 85.8781 125.967C85.8817 125.998 85.873 126.026 85.8521 126.051C85.8316 126.076 85.8051 126.09 85.7727 126.094ZM86.3971 126.642L86.4729 127.294L86.3064 127.313L86.1804 126.23L86.3413 126.211L86.361 126.38L86.3751 126.379C86.3941 126.321 86.4275 126.272 86.4754 126.233C86.5231 126.193 86.588 126.168 86.6698 126.158C86.7432 126.15 86.8091 126.158 86.8676 126.181C86.9261 126.204 86.9742 126.245 87.0118 126.302C87.0494 126.358 87.0735 126.433 87.0842 126.525L87.1642 127.214L86.9978 127.233L86.919 126.556C86.9091 126.471 86.8793 126.407 86.8296 126.364C86.7798 126.322 86.7163 126.305 86.6392 126.314C86.5861 126.32 86.5399 126.337 86.5007 126.365C86.462 126.393 86.4332 126.43 86.4144 126.477C86.3955 126.524 86.3898 126.579 86.3971 126.642ZM87.9557 127.556C87.8753 127.566 87.805 127.563 87.7447 127.549C87.6845 127.536 87.6332 127.515 87.5907 127.486C87.5488 127.457 87.5144 127.425 87.4874 127.39L87.6092 127.282C87.6266 127.3 87.6483 127.32 87.6743 127.343C87.7003 127.366 87.7344 127.385 87.7766 127.399C87.8193 127.414 87.8733 127.417 87.9387 127.41C88.0262 127.399 88.0959 127.37 88.1479 127.321C88.1999 127.272 88.2206 127.202 88.2101 127.112L88.1845 126.892L88.1704 126.894C88.1605 126.915 88.1459 126.941 88.1267 126.973C88.108 127.004 88.079 127.034 88.0397 127.061C88.0009 127.088 87.9462 127.105 87.8757 127.114C87.7882 127.124 87.7073 127.112 87.6328 127.079C87.5589 127.046 87.4971 126.992 87.4475 126.918C87.3983 126.843 87.3672 126.75 87.3541 126.637C87.3412 126.526 87.3494 126.427 87.3789 126.34C87.4083 126.253 87.4552 126.182 87.5196 126.129C87.5839 126.075 87.6616 126.043 87.7529 126.033C87.8234 126.024 87.8808 126.03 87.9249 126.048C87.9694 126.067 88.0045 126.089 88.03 126.116C88.056 126.143 88.0762 126.165 88.0906 126.182L88.1075 126.18L88.0875 126.008L88.2484 125.989L88.3779 127.104C88.3887 127.197 88.3764 127.275 88.3408 127.338C88.3058 127.402 88.2544 127.452 88.1865 127.487C88.1192 127.523 88.0423 127.546 87.9557 127.556ZM87.8809 126.962C87.9477 126.954 88.0023 126.932 88.0449 126.896C88.0874 126.86 88.1173 126.812 88.1346 126.752C88.152 126.692 88.156 126.622 88.1467 126.542C88.1376 126.464 88.1178 126.396 88.0874 126.339C88.0569 126.282 88.0167 126.239 87.9667 126.211C87.9166 126.182 87.8578 126.172 87.79 126.18C87.7195 126.188 87.6628 126.213 87.6199 126.254C87.5775 126.295 87.548 126.347 87.5315 126.41C87.5155 126.473 87.5117 126.541 87.5202 126.614C87.529 126.69 87.5485 126.755 87.5787 126.81C87.6094 126.865 87.6499 126.906 87.7003 126.933C87.7511 126.96 87.8113 126.97 87.8809 126.962ZM89.9076 126.042L89.763 126.102C89.7507 126.078 89.734 126.056 89.7129 126.034C89.6923 126.012 89.6655 125.995 89.6327 125.984C89.5998 125.972 89.5592 125.968 89.5107 125.974C89.4444 125.982 89.3909 126.004 89.3503 126.039C89.31 126.074 89.2926 126.115 89.298 126.162C89.3028 126.203 89.3217 126.234 89.3546 126.255C89.3875 126.275 89.4368 126.29 89.5026 126.298L89.6681 126.319C89.7677 126.331 89.8441 126.359 89.8972 126.402C89.9503 126.444 89.9812 126.503 89.99 126.579C89.9973 126.641 89.9858 126.699 89.9558 126.752C89.9262 126.805 89.8813 126.849 89.8211 126.885C89.7609 126.92 89.6887 126.943 89.6045 126.953C89.4939 126.966 89.3997 126.952 89.3217 126.913C89.2437 126.873 89.1897 126.808 89.1597 126.718L89.3131 126.661C89.3349 126.717 89.3685 126.758 89.4137 126.782C89.4594 126.806 89.5164 126.814 89.5846 126.806C89.6622 126.797 89.7219 126.774 89.7637 126.736C89.8059 126.697 89.8243 126.654 89.8189 126.608C89.8145 126.57 89.7977 126.54 89.7684 126.518C89.739 126.495 89.6964 126.48 89.6403 126.474L89.4548 126.453C89.3528 126.441 89.2757 126.413 89.2234 126.369C89.1715 126.324 89.1412 126.264 89.1325 126.19C89.1254 126.129 89.1363 126.072 89.1652 126.021C89.1945 125.97 89.2375 125.928 89.2941 125.894C89.3512 125.86 89.4178 125.839 89.494 125.83C89.6012 125.818 89.6882 125.831 89.7548 125.871C89.8218 125.911 89.8728 125.968 89.9076 126.042ZM90.7327 126.822C90.6283 126.834 90.5355 126.821 90.4545 126.784C90.3738 126.746 90.3082 126.688 90.2576 126.609C90.2074 126.53 90.1759 126.435 90.163 126.324C90.1501 126.213 90.1589 126.113 90.1895 126.024C90.2205 125.934 90.2697 125.861 90.3371 125.805C90.4049 125.749 90.4877 125.715 90.5856 125.703C90.642 125.697 90.6988 125.7 90.756 125.712C90.8132 125.725 90.8669 125.749 90.917 125.786C90.967 125.823 91.0094 125.874 91.0443 125.94C91.0791 126.006 91.1024 126.09 91.1141 126.191L91.1223 126.262L90.2871 126.359L90.2703 126.215L90.9363 126.137C90.9292 126.076 90.9106 126.023 90.8806 125.978C90.851 125.933 90.8123 125.899 90.7644 125.876C90.717 125.854 90.6631 125.846 90.6029 125.853C90.5366 125.861 90.4812 125.884 90.4365 125.922C90.3923 125.96 90.3603 126.007 90.3405 126.062C90.3207 126.117 90.3143 126.175 90.3213 126.235L90.3324 126.33C90.3419 126.412 90.3641 126.48 90.3989 126.534C90.4342 126.587 90.4789 126.625 90.5332 126.649C90.5873 126.672 90.6481 126.68 90.7153 126.672C90.7591 126.667 90.7979 126.656 90.8317 126.64C90.866 126.623 90.8946 126.601 90.9176 126.573C90.9405 126.544 90.9568 126.511 90.9665 126.471L91.1326 126.498C91.1221 126.554 91.0992 126.606 91.064 126.652C91.0288 126.697 90.9831 126.735 90.927 126.765C90.8708 126.794 90.8061 126.813 90.7327 126.822ZM91.432 126.717L91.3061 125.634L91.4669 125.615L91.486 125.779L91.4972 125.778C91.5108 125.722 91.5414 125.674 91.5893 125.635C91.6372 125.595 91.6935 125.572 91.7584 125.564C91.7707 125.563 91.786 125.561 91.8044 125.56C91.8228 125.558 91.8367 125.557 91.8462 125.557L91.8659 125.726C91.8601 125.725 91.8469 125.725 91.8264 125.724C91.8062 125.723 91.7851 125.724 91.763 125.727C91.7103 125.733 91.6646 125.749 91.6258 125.776C91.5874 125.803 91.5584 125.836 91.5389 125.878C91.5198 125.919 91.5131 125.963 91.5188 126.012L91.5985 126.698L91.432 126.717ZM92.1712 126.632L92.0452 125.548L92.2117 125.529L92.3377 126.612L92.1712 126.632ZM92.1089 125.358C92.0765 125.361 92.0472 125.353 92.0211 125.334C91.9955 125.315 91.9809 125.289 91.9773 125.258C91.9737 125.227 91.9821 125.199 92.0026 125.175C92.0235 125.15 92.0502 125.136 92.0827 125.132C92.1151 125.128 92.1442 125.136 92.1698 125.155C92.1959 125.175 92.2107 125.2 92.2143 125.231C92.2179 125.262 92.2092 125.29 92.1883 125.315C92.1678 125.339 92.1414 125.354 92.1089 125.358ZM93.0996 126.547C92.9952 126.559 92.9024 126.546 92.8213 126.509C92.7407 126.471 92.6751 126.413 92.6245 126.334C92.5743 126.255 92.5427 126.16 92.5298 126.049C92.5169 125.938 92.5258 125.838 92.5564 125.749C92.5874 125.659 92.6366 125.586 92.704 125.53C92.7718 125.474 92.8546 125.44 92.9524 125.428C93.0089 125.422 93.0657 125.425 93.1229 125.437C93.1801 125.449 93.2338 125.474 93.2838 125.511C93.3339 125.548 93.3763 125.599 93.4111 125.665C93.446 125.731 93.4693 125.815 93.481 125.916L93.4892 125.986L92.6539 126.084L92.6372 125.94L93.3032 125.862C93.2961 125.801 93.2775 125.748 93.2475 125.703C93.2179 125.658 93.1792 125.624 93.1313 125.601C93.0838 125.579 93.03 125.571 92.9698 125.578C92.9035 125.585 92.848 125.609 92.8034 125.647C92.7592 125.685 92.7272 125.732 92.7074 125.787C92.6876 125.842 92.6812 125.9 92.6881 125.959L92.6993 126.055C92.7088 126.137 92.731 126.205 92.7658 126.259C92.8011 126.312 92.8458 126.35 92.9 126.374C92.9542 126.397 93.0149 126.405 93.0822 126.397C93.1259 126.392 93.1647 126.381 93.1986 126.365C93.2329 126.348 93.2615 126.326 93.2844 126.298C93.3074 126.269 93.3237 126.235 93.3334 126.196L93.4995 126.223C93.4889 126.279 93.466 126.33 93.4309 126.376C93.3957 126.422 93.35 126.46 93.2939 126.49C93.2377 126.519 93.173 126.538 93.0996 126.547ZM94.4687 125.512L94.3241 125.572C94.3118 125.548 94.2951 125.525 94.274 125.504C94.2534 125.482 94.2266 125.465 94.1938 125.453C94.1609 125.441 94.1203 125.438 94.0718 125.444C94.0055 125.452 93.952 125.473 93.9114 125.509C93.8711 125.544 93.8537 125.585 93.8591 125.632C93.8639 125.673 93.8828 125.704 93.9157 125.725C93.9486 125.745 93.9979 125.76 94.0637 125.768L94.2292 125.789C94.3288 125.801 94.4052 125.829 94.4583 125.872C94.5114 125.914 94.5423 125.973 94.5511 126.049C94.5583 126.111 94.5469 126.169 94.5169 126.222C94.4873 126.275 94.4424 126.319 94.3822 126.355C94.3219 126.39 94.2497 126.413 94.1656 126.423C94.055 126.435 93.9608 126.422 93.8828 126.383C93.8048 126.343 93.7508 126.278 93.7208 126.188L93.8742 126.13C93.896 126.187 93.9296 126.227 93.9748 126.252C94.0205 126.276 94.0775 126.284 94.1457 126.276C94.2233 126.267 94.283 126.244 94.3248 126.205C94.367 126.167 94.3854 126.124 94.38 126.077C94.3756 126.04 94.3588 126.01 94.3295 125.987C94.3001 125.965 94.2574 125.95 94.2014 125.944L94.0159 125.922C93.9139 125.91 93.8368 125.882 93.7845 125.838C93.7326 125.794 93.7023 125.734 93.6936 125.66C93.6865 125.598 93.6974 125.542 93.7263 125.491C93.7556 125.44 93.7986 125.398 93.8552 125.364C93.9123 125.33 93.9789 125.309 94.0551 125.3C94.1623 125.288 94.2492 125.301 94.3159 125.341C94.3829 125.381 94.4339 125.438 94.4687 125.512ZM95.2237 125.27L95.2089 125.143C95.2044 125.104 95.2065 125.063 95.2151 125.018C95.2241 124.973 95.2395 124.928 95.2611 124.885C95.2832 124.841 95.3113 124.801 95.3454 124.767L95.4442 124.83C95.4195 124.875 95.3988 124.923 95.382 124.971C95.3657 125.019 95.3606 125.07 95.3666 125.122L95.3817 125.252L95.2237 125.27ZM95.5849 125.228L95.5701 125.101C95.5656 125.062 95.5677 125.021 95.5763 124.976C95.5853 124.931 95.6007 124.886 95.6223 124.843C95.6444 124.799 95.6725 124.759 95.7066 124.725L95.8054 124.788C95.7807 124.833 95.76 124.881 95.7432 124.929C95.7269 124.977 95.7218 125.028 95.7278 125.08L95.7429 125.21L95.5849 125.228ZM96.4372 126.136L95.8742 124.737L96.052 124.716L96.4907 125.858L96.5048 125.856L96.6756 124.644L96.8732 124.621L97.3175 125.762L97.3316 125.76L97.4968 124.548L97.6746 124.528L97.4475 126.018L97.2669 126.039L96.8142 124.925L96.8029 124.926L96.6178 126.115L96.4372 126.136ZM98.1287 125.278L98.2044 125.93L98.0379 125.95L97.87 124.505L98.0365 124.485L98.0982 125.016L98.1123 125.014C98.1312 124.955 98.1641 124.907 98.2111 124.868C98.2584 124.828 98.3247 124.804 98.4098 124.794C98.4837 124.785 98.5501 124.793 98.609 124.816C98.6679 124.838 98.7161 124.878 98.7538 124.936C98.7918 124.992 98.8162 125.067 98.8271 125.16L98.9071 125.849L98.7406 125.868L98.6619 125.191C98.6519 125.105 98.6218 125.041 98.5717 124.999C98.5219 124.956 98.4578 124.94 98.3792 124.949C98.3247 124.955 98.2771 124.973 98.2365 125.001C98.1964 125.029 98.1664 125.066 98.1467 125.113C98.1273 125.16 98.1213 125.215 98.1287 125.278ZM99.3273 126.212C99.2991 126.215 99.2737 126.215 99.251 126.213C99.2284 126.212 99.2127 126.209 99.2037 126.206L99.229 126.054C99.2706 126.06 99.3068 126.06 99.3375 126.053C99.3682 126.047 99.3941 126.03 99.4152 126.002C99.4368 125.975 99.4546 125.932 99.4684 125.875L99.4896 125.787L98.9623 124.744L99.1429 124.723L99.5424 125.552L99.5537 125.55L99.7524 124.652L99.933 124.631L99.6174 125.926C99.6032 125.985 99.5829 126.034 99.5566 126.074C99.5304 126.115 99.4981 126.146 99.4597 126.169C99.4218 126.192 99.3777 126.206 99.3273 126.212ZM100.992 126.018C100.964 126.021 100.938 126.022 100.916 126.02C100.893 126.018 100.877 126.016 100.868 126.012L100.894 125.861C100.935 125.866 100.971 125.866 101.002 125.86C101.033 125.853 101.059 125.836 101.08 125.808C101.101 125.781 101.119 125.739 101.133 125.681L101.154 125.593L100.627 124.55L100.807 124.529L101.207 125.358L101.218 125.357L101.417 124.459L101.598 124.438L101.282 125.733C101.268 125.791 101.247 125.84 101.221 125.881C101.195 125.921 101.163 125.953 101.124 125.976C101.086 125.998 101.042 126.012 100.992 126.018ZM102.347 125.472C102.25 125.483 102.161 125.47 102.082 125.432C102.003 125.394 101.938 125.335 101.887 125.256C101.836 125.177 101.804 125.082 101.791 124.97C101.778 124.857 101.787 124.756 101.818 124.667C101.85 124.578 101.9 124.506 101.968 124.451C102.036 124.396 102.119 124.363 102.217 124.351C102.315 124.34 102.403 124.353 102.482 124.391C102.561 124.429 102.626 124.488 102.677 124.567C102.728 124.647 102.76 124.743 102.773 124.856C102.786 124.968 102.777 125.068 102.745 125.157C102.714 125.245 102.664 125.317 102.596 125.372C102.528 125.427 102.445 125.46 102.347 125.472ZM102.33 125.322C102.404 125.313 102.463 125.287 102.507 125.244C102.55 125.2 102.58 125.146 102.596 125.081C102.612 125.016 102.615 124.948 102.607 124.875C102.598 124.803 102.579 124.737 102.549 124.677C102.518 124.617 102.477 124.57 102.425 124.537C102.372 124.504 102.309 124.492 102.235 124.501C102.16 124.51 102.101 124.536 102.058 124.58C102.014 124.624 101.985 124.679 101.969 124.744C101.953 124.809 101.949 124.878 101.958 124.951C101.966 125.023 101.986 125.089 102.016 125.148C102.046 125.208 102.087 125.254 102.14 125.286C102.192 125.319 102.256 125.331 102.33 125.322ZM103.721 124.84L103.647 124.199L103.813 124.18L103.939 125.264L103.773 125.283L103.751 125.1L103.74 125.101C103.721 125.159 103.687 125.21 103.638 125.255C103.589 125.299 103.523 125.326 103.441 125.336C103.374 125.344 103.312 125.336 103.256 125.312C103.199 125.288 103.153 125.248 103.116 125.191C103.079 125.134 103.055 125.06 103.044 124.967L102.964 124.279L103.13 124.259L103.209 124.937C103.218 125.016 103.248 125.076 103.297 125.118C103.348 125.16 103.407 125.177 103.476 125.169C103.518 125.164 103.559 125.149 103.599 125.122C103.64 125.096 103.672 125.06 103.696 125.012C103.721 124.965 103.729 124.908 103.721 124.84ZM104.803 125.163L104.677 124.08L104.838 124.061L104.857 124.225L104.868 124.223C104.882 124.167 104.912 124.12 104.96 124.08C105.008 124.041 105.064 124.018 105.129 124.01C105.142 124.009 105.157 124.007 105.175 124.005C105.194 124.004 105.208 124.003 105.217 124.003L105.237 124.172C105.231 124.171 105.218 124.171 105.197 124.17C105.177 124.169 105.156 124.17 105.134 124.172C105.081 124.179 105.036 124.195 104.997 124.222C104.958 124.248 104.929 124.282 104.91 124.324C104.891 124.364 104.884 124.409 104.89 124.458L104.969 125.144L104.803 125.163ZM105.542 125.077L105.416 123.994L105.583 123.974L105.709 125.058L105.542 125.077ZM105.48 123.803C105.447 123.807 105.418 123.799 105.392 123.78C105.366 123.761 105.352 123.735 105.348 123.704C105.345 123.673 105.353 123.645 105.373 123.621C105.394 123.596 105.421 123.581 105.454 123.578C105.486 123.574 105.515 123.582 105.541 123.601C105.567 123.62 105.582 123.646 105.585 123.677C105.589 123.708 105.58 123.736 105.559 123.761C105.539 123.785 105.512 123.8 105.48 123.803ZM106.501 125.401C106.42 125.41 106.35 125.408 106.29 125.394C106.23 125.38 106.178 125.359 106.136 125.33C106.094 125.302 106.059 125.27 106.033 125.235L106.154 125.126C106.172 125.144 106.193 125.165 106.219 125.187C106.245 125.211 106.279 125.229 106.322 125.243C106.364 125.258 106.418 125.262 106.484 125.254C106.571 125.244 106.641 125.214 106.693 125.165C106.745 125.116 106.766 125.047 106.755 124.956L106.73 124.736L106.715 124.738C106.706 124.759 106.691 124.786 106.672 124.817C106.653 124.849 106.624 124.878 106.585 124.905C106.546 124.932 106.491 124.95 106.421 124.958C106.333 124.968 106.252 124.957 106.178 124.923C106.104 124.89 106.042 124.836 105.993 124.762C105.943 124.688 105.912 124.594 105.899 124.481C105.886 124.37 105.895 124.271 105.924 124.184C105.953 124.097 106 124.027 106.065 123.973C106.129 123.92 106.207 123.888 106.298 123.877C106.369 123.869 106.426 123.874 106.47 123.893C106.514 123.911 106.55 123.934 106.575 123.961C106.601 123.987 106.621 124.009 106.636 124.027L106.653 124.025L106.633 123.852L106.793 123.834L106.923 124.948C106.934 125.041 106.921 125.12 106.886 125.183C106.851 125.247 106.799 125.296 106.732 125.332C106.664 125.368 106.587 125.391 106.501 125.401ZM106.426 124.806C106.493 124.798 106.547 124.776 106.59 124.74C106.632 124.704 106.662 124.656 106.68 124.596C106.697 124.536 106.701 124.466 106.692 124.386C106.683 124.308 106.663 124.24 106.632 124.183C106.602 124.126 106.562 124.084 106.512 124.055C106.462 124.027 106.403 124.016 106.335 124.024C106.265 124.032 106.208 124.057 106.165 124.098C106.123 124.14 106.093 124.192 106.077 124.255C106.061 124.317 106.057 124.386 106.065 124.459C106.074 124.534 106.094 124.599 106.124 124.654C106.154 124.709 106.195 124.75 106.245 124.778C106.296 124.805 106.356 124.814 106.426 124.806ZM107.315 124.211L107.391 124.863L107.224 124.882L107.056 123.437L107.223 123.418L107.284 123.948L107.298 123.947C107.317 123.888 107.35 123.839 107.397 123.8C107.445 123.761 107.511 123.736 107.596 123.726C107.67 123.718 107.736 123.725 107.795 123.748C107.854 123.771 107.902 123.811 107.94 123.868C107.978 123.924 108.002 123.999 108.013 124.092L108.093 124.781L107.927 124.8L107.848 124.123C107.838 124.037 107.808 123.973 107.758 123.931C107.708 123.889 107.644 123.872 107.565 123.881C107.511 123.888 107.463 123.905 107.423 123.933C107.383 123.961 107.353 123.998 107.333 124.046C107.314 124.093 107.308 124.148 107.315 124.211ZM108.743 123.607L108.76 123.748L108.198 123.813L108.182 123.672L108.743 123.607ZM108.315 123.394L108.482 123.374L108.602 124.407C108.607 124.454 108.618 124.489 108.634 124.511C108.651 124.532 108.671 124.545 108.693 124.551C108.716 124.556 108.74 124.557 108.765 124.554C108.783 124.552 108.798 124.549 108.809 124.546C108.821 124.542 108.83 124.539 108.837 124.537L108.888 124.683C108.877 124.688 108.862 124.694 108.842 124.701C108.823 124.708 108.797 124.713 108.766 124.717C108.719 124.722 108.672 124.718 108.625 124.703C108.578 124.688 108.537 124.661 108.502 124.623C108.468 124.585 108.448 124.535 108.44 124.472L108.315 123.394ZM109.476 123.522L109.493 123.663L108.908 123.731L108.892 123.59L109.476 123.522ZM109.193 124.653L109.05 123.42C109.042 123.358 109.051 123.304 109.075 123.26C109.1 123.215 109.134 123.179 109.178 123.153C109.222 123.127 109.27 123.111 109.322 123.105C109.363 123.1 109.397 123.1 109.423 123.103C109.45 123.107 109.47 123.111 109.483 123.115L109.452 123.264C109.443 123.263 109.431 123.26 109.415 123.258C109.4 123.255 109.381 123.256 109.357 123.258C109.302 123.265 109.264 123.283 109.242 123.314C109.222 123.344 109.214 123.386 109.221 123.44L109.359 124.634L109.193 124.653ZM110.467 124.056L110.392 123.415L110.559 123.396L110.685 124.48L110.518 124.499L110.497 124.316L110.486 124.317C110.467 124.375 110.433 124.426 110.384 124.471C110.334 124.515 110.269 124.542 110.187 124.552C110.119 124.56 110.057 124.552 110.001 124.528C109.945 124.504 109.898 124.464 109.861 124.407C109.824 124.35 109.8 124.275 109.79 124.183L109.71 123.495L109.876 123.475L109.955 124.153C109.964 124.232 109.993 124.292 110.043 124.334C110.093 124.376 110.153 124.393 110.222 124.385C110.263 124.38 110.304 124.364 110.345 124.338C110.385 124.312 110.418 124.275 110.442 124.228C110.466 124.181 110.475 124.124 110.467 124.056ZM110.988 122.98L111.156 124.425L110.99 124.444L110.822 122.999L110.988 122.98ZM111.46 122.925L111.628 124.37L111.461 124.389L111.293 122.945L111.46 122.925ZM112.087 124.728C112.059 124.732 112.033 124.732 112.011 124.73C111.988 124.729 111.972 124.726 111.964 124.723L111.989 124.571C112.03 124.577 112.067 124.576 112.097 124.57C112.128 124.564 112.154 124.547 112.175 124.519C112.197 124.491 112.214 124.449 112.228 124.392L112.249 124.304L111.722 123.261L111.903 123.24L112.302 124.069L112.313 124.067L112.512 123.169L112.693 123.148L112.377 124.443C112.363 124.501 112.343 124.551 112.316 124.591C112.29 124.632 112.258 124.663 112.219 124.686C112.182 124.708 112.137 124.723 112.087 124.728ZM66.8452 130.928L66.921 131.58L66.7545 131.599L66.5865 130.155L66.753 130.135L66.8147 130.666L66.8288 130.664C66.8477 130.605 66.8806 130.556 66.9276 130.517C66.975 130.478 67.0412 130.453 67.1264 130.444C67.2002 130.435 67.2666 130.442 67.3255 130.465C67.3844 130.488 67.4327 130.528 67.4703 130.585C67.5083 130.642 67.5328 130.717 67.5436 130.81L67.6236 131.498L67.4571 131.518L67.3784 130.84C67.3684 130.754 67.3383 130.69 67.2882 130.649C67.2384 130.606 67.1743 130.59 67.0958 130.599C67.0412 130.605 66.9936 130.622 66.953 130.65C66.9129 130.678 66.883 130.716 66.8632 130.763C66.8439 130.81 66.8379 130.865 66.8452 130.928ZM68.25 131.451C68.1814 131.459 68.1176 131.454 68.0586 131.434C67.9995 131.414 67.9507 131.382 67.912 131.336C67.8733 131.29 67.8499 131.232 67.8417 131.161C67.8344 131.099 67.8408 131.047 67.8608 131.006C67.8807 130.964 67.9099 130.93 67.9482 130.903C67.9865 130.876 68.0298 130.854 68.0779 130.838C68.1265 130.821 68.1755 130.806 68.2251 130.793C68.2899 130.777 68.3426 130.765 68.383 130.756C68.4238 130.746 68.453 130.735 68.4706 130.722C68.4886 130.709 68.4961 130.689 68.493 130.662L68.4923 130.657C68.4842 130.587 68.4589 130.535 68.4163 130.501C68.3742 130.467 68.3148 130.454 68.2381 130.463C68.1587 130.472 68.0984 130.497 68.0573 130.537C68.0161 130.577 67.9887 130.618 67.975 130.66L67.8104 130.621C67.8309 130.552 67.8626 130.497 67.9054 130.455C67.9486 130.412 67.9973 130.38 68.0516 130.359C68.1063 130.337 68.1609 130.323 68.2154 130.317C68.2502 130.313 68.2907 130.313 68.3368 130.316C68.3834 130.318 68.4293 130.33 68.4746 130.35C68.5203 130.371 68.5603 130.405 68.5945 130.453C68.6287 130.501 68.6508 130.568 68.6608 130.654L68.7437 131.368L68.5772 131.387L68.5602 131.241L68.5517 131.242C68.5432 131.267 68.5273 131.294 68.5041 131.324C68.4808 131.354 68.4485 131.381 68.4069 131.404C68.3653 131.428 68.3131 131.444 68.25 131.451ZM68.2581 131.299C68.3239 131.291 68.3779 131.272 68.42 131.241C68.4626 131.209 68.4931 131.172 68.5114 131.128C68.5301 131.085 68.5369 131.04 68.5317 130.995L68.5139 130.843C68.5079 130.852 68.4933 130.862 68.4701 130.872C68.4473 130.881 68.4207 130.89 68.3903 130.899C68.3603 130.907 68.3309 130.915 68.3022 130.922C68.2739 130.928 68.2509 130.934 68.2333 130.938C68.1907 130.949 68.1513 130.963 68.1152 130.98C68.0794 130.997 68.0515 131.019 68.0314 131.046C68.0116 131.073 68.0042 131.108 68.0091 131.15C68.0159 131.208 68.0423 131.249 68.0886 131.274C68.1352 131.298 68.1917 131.306 68.2581 131.299ZM69.3929 130.194L69.4093 130.335L68.8478 130.401L68.8314 130.26L69.3929 130.194ZM68.9649 129.981L69.1314 129.962L69.2514 130.995C69.2569 131.042 69.2678 131.076 69.2842 131.098C69.301 131.119 69.3206 131.133 69.3432 131.138C69.3662 131.143 69.3899 131.144 69.4143 131.141C69.4327 131.139 69.4476 131.137 69.4592 131.133C69.4707 131.13 69.4798 131.127 69.4867 131.124L69.538 131.27C69.5272 131.276 69.5119 131.282 69.4922 131.288C69.4725 131.295 69.4472 131.301 69.4161 131.304C69.3691 131.31 69.3218 131.305 69.2743 131.29C69.2273 131.275 69.1865 131.248 69.1521 131.211C69.1181 131.173 69.0975 131.122 69.0902 131.059L68.9649 129.981ZM70.2146 131.22C70.1102 131.232 70.0175 131.22 69.9364 131.182C69.8557 131.144 69.7901 131.086 69.7395 131.008C69.6893 130.929 69.6578 130.834 69.6449 130.723C69.632 130.612 69.6409 130.512 69.6715 130.422C69.7025 130.332 69.7517 130.259 69.8191 130.204C69.8869 130.147 69.9697 130.113 70.0675 130.102C70.1239 130.095 70.1808 130.098 70.238 130.11C70.2952 130.123 70.3488 130.148 70.3989 130.185C70.4489 130.221 70.4913 130.273 70.5262 130.339C70.561 130.405 70.5843 130.488 70.5961 130.589L70.6043 130.66L69.769 130.757L69.7523 130.613L70.4182 130.536C70.4111 130.475 70.3926 130.421 70.3625 130.376C70.333 130.331 70.2942 130.297 70.2463 130.275C70.1989 130.252 70.1451 130.244 70.0849 130.251C70.0186 130.259 69.9631 130.282 69.9185 130.321C69.8743 130.359 69.8423 130.405 69.8225 130.461C69.8027 130.516 69.7963 130.573 69.8032 130.633L69.8143 130.729C69.8239 130.811 69.846 130.878 69.8809 130.932C69.9161 130.985 69.9609 131.024 70.0151 131.047C70.0693 131.071 70.13 131.078 70.1973 131.07C70.241 131.065 70.2798 131.055 70.3136 131.038C70.3479 131.021 70.3765 130.999 70.3995 130.971C70.4224 130.943 70.4387 130.909 70.4485 130.87L70.6146 130.896C70.604 130.953 70.5811 131.004 70.5459 131.05C70.5107 131.096 70.4651 131.133 70.4089 131.163C70.3528 131.193 70.288 131.211 70.2146 131.22ZM71.8804 129.539L72.0554 129.519L72.1754 130.552C72.1862 130.644 72.1783 130.724 72.152 130.792C72.1256 130.861 72.0835 130.915 72.0258 130.956C71.9681 130.996 71.8973 131.022 71.8136 131.031C71.7346 131.04 71.6626 131.034 71.5977 131.013C71.5327 130.991 71.4794 130.955 71.4379 130.906C71.3964 130.856 71.3714 130.794 71.3628 130.72L71.5349 130.7C71.5397 130.741 71.554 130.776 71.5777 130.804C71.6019 130.832 71.6329 130.852 71.6706 130.865C71.7083 130.878 71.75 130.881 71.7956 130.876C71.8459 130.87 71.8875 130.855 71.9203 130.829C71.9531 130.804 71.9763 130.77 71.9899 130.727C72.0039 130.683 72.0074 130.632 72.0005 130.572L71.8804 129.539ZM72.8732 130.914C72.8045 130.922 72.7407 130.916 72.6817 130.897C72.6227 130.877 72.5739 130.844 72.5352 130.799C72.4965 130.753 72.473 130.694 72.4648 130.624C72.4576 130.562 72.464 130.51 72.484 130.469C72.5039 130.427 72.533 130.392 72.5714 130.366C72.6097 130.339 72.653 130.317 72.7011 130.3C72.7496 130.283 72.7987 130.269 72.8482 130.256C72.9131 130.24 72.9657 130.227 73.0062 130.218C73.047 130.209 73.0762 130.198 73.0938 130.185C73.1118 130.172 73.1192 130.152 73.1161 130.125L73.1155 130.119C73.1074 130.05 73.082 129.998 73.0395 129.964C72.9974 129.929 72.938 129.917 72.8613 129.926C72.7818 129.935 72.7215 129.96 72.6804 130C72.6393 130.04 72.6119 130.081 72.5981 130.122L72.4336 130.084C72.4541 130.015 72.4858 129.959 72.5286 129.917C72.5717 129.874 72.6205 129.843 72.6747 129.822C72.7294 129.8 72.7841 129.786 72.8386 129.78C72.8734 129.776 72.9139 129.775 72.96 129.778C73.0066 129.781 73.0525 129.793 73.0978 129.813C73.1435 129.834 73.1835 129.868 73.2177 129.916C73.2518 129.964 73.2739 130.031 73.2839 130.117L73.3669 130.831L73.2004 130.85L73.1834 130.703L73.1749 130.704C73.1663 130.729 73.1505 130.757 73.1272 130.786C73.104 130.816 73.0716 130.843 73.0301 130.867C72.9885 130.891 72.9362 130.907 72.8732 130.914ZM72.8812 130.761C72.9471 130.754 73.0011 130.734 73.0432 130.703C73.0858 130.672 73.1163 130.635 73.1346 130.591C73.1533 130.547 73.1601 130.503 73.1548 130.458L73.1371 130.305C73.131 130.315 73.1164 130.324 73.0933 130.334C73.0705 130.343 73.0439 130.353 73.0135 130.361C72.9835 130.37 72.9541 130.377 72.9254 130.384C72.897 130.391 72.8741 130.397 72.8565 130.401C72.8139 130.412 72.7745 130.426 72.7384 130.443C72.7026 130.459 72.6747 130.481 72.6545 130.509C72.6348 130.536 72.6274 130.571 72.6323 130.613C72.639 130.671 72.6655 130.712 72.7118 130.737C72.7584 130.761 72.8149 130.769 72.8812 130.761ZM74.3921 129.613L74.1174 130.744L73.948 130.763L73.4214 129.726L73.602 129.705L74.0015 130.534L74.0128 130.533L74.2115 129.634L74.3921 129.613ZM75.0267 130.664C74.958 130.672 74.8942 130.666 74.8352 130.646C74.7762 130.627 74.7273 130.594 74.6887 130.548C74.65 130.502 74.6265 130.444 74.6183 130.374C74.6111 130.311 74.6175 130.26 74.6374 130.218C74.6574 130.176 74.6865 130.142 74.7248 130.115C74.7632 130.088 74.8064 130.067 74.8546 130.05C74.9031 130.033 74.9521 130.018 75.0017 130.006C75.0666 129.99 75.1192 129.977 75.1596 129.968C75.2005 129.959 75.2297 129.947 75.2472 129.934C75.2653 129.921 75.2727 129.901 75.2696 129.875L75.2689 129.869C75.2608 129.799 75.2355 129.747 75.1929 129.713C75.1508 129.679 75.0914 129.666 75.0148 129.675C74.9353 129.685 74.875 129.709 74.8339 129.749C74.7928 129.789 74.7654 129.83 74.7516 129.872L74.587 129.834C74.6076 129.765 74.6393 129.709 74.682 129.667C74.7252 129.624 74.7739 129.592 74.8282 129.571C74.8829 129.55 74.9375 129.536 74.9921 129.529C75.0269 129.525 75.0674 129.525 75.1135 129.528C75.16 129.531 75.206 129.542 75.2512 129.563C75.297 129.583 75.3369 129.617 75.3711 129.665C75.4053 129.713 75.4274 129.78 75.4374 129.866L75.5204 130.58L75.3539 130.6L75.3368 130.453L75.3284 130.454C75.3198 130.479 75.3039 130.506 75.2807 130.536C75.2575 130.566 75.2251 130.593 75.1835 130.617C75.142 130.641 75.0897 130.656 75.0267 130.664ZM75.0347 130.511C75.1005 130.503 75.1545 130.484 75.1967 130.453C75.2393 130.422 75.2697 130.384 75.288 130.341C75.3068 130.297 75.3135 130.253 75.3083 130.208L75.2906 130.055C75.2845 130.064 75.2699 130.074 75.2467 130.084C75.224 130.093 75.1974 130.102 75.1669 130.111C75.1369 130.119 75.1075 130.127 75.0788 130.134C75.0505 130.141 75.0276 130.146 75.01 130.151C74.9674 130.161 74.928 130.175 74.8918 130.192C74.8561 130.209 74.8281 130.231 74.808 130.259C74.7883 130.286 74.7809 130.32 74.7858 130.363C74.7925 130.421 74.819 130.462 74.8652 130.486C74.9119 130.511 74.9684 130.519 75.0347 130.511ZM76.4941 129.615L76.3494 129.675C76.3371 129.651 76.3204 129.628 76.2994 129.607C76.2787 129.585 76.252 129.568 76.2191 129.556C76.1863 129.544 76.1456 129.541 76.0972 129.547C76.0309 129.554 75.9774 129.576 75.9367 129.612C75.8965 129.647 75.8791 129.688 75.8845 129.734C75.8893 129.776 75.9081 129.807 75.941 129.827C75.9739 129.848 76.0233 129.862 76.0891 129.871L76.2545 129.892C76.3542 129.904 76.4305 129.931 76.4837 129.974C76.5367 130.017 76.5677 130.076 76.5765 130.152C76.5837 130.214 76.5723 130.271 76.5422 130.324C76.5126 130.377 76.4677 130.422 76.4075 130.457C76.3473 130.493 76.2751 130.516 76.1909 130.525C76.0804 130.538 75.9861 130.525 75.9081 130.485C75.8301 130.446 75.7761 130.381 75.7461 130.291L75.8996 130.233C75.9214 130.29 75.9549 130.33 76.0002 130.354C76.0459 130.379 76.1028 130.387 76.171 130.379C76.2486 130.37 76.3083 130.346 76.3501 130.308C76.3923 130.269 76.4107 130.227 76.4053 130.18C76.401 130.143 76.3841 130.113 76.3548 130.09C76.3255 130.067 76.2828 130.053 76.2268 130.046L76.0412 130.025C75.9393 130.013 75.8621 129.985 75.8098 129.941C75.758 129.897 75.7277 129.837 75.719 129.762C75.7119 129.701 75.7227 129.645 75.7516 129.594C75.7809 129.543 75.8239 129.501 75.8805 129.467C75.9376 129.433 76.0043 129.412 76.0805 129.403C76.1877 129.39 76.2746 129.404 76.3412 129.444C76.4083 129.484 76.4592 129.541 76.4941 129.615ZM77.305 130.396C77.2035 130.408 77.1132 130.394 77.0342 130.354C76.9553 130.315 76.8912 130.255 76.8419 130.176C76.7926 130.096 76.7617 130.002 76.7491 129.894C76.7363 129.784 76.7452 129.685 76.7759 129.596C76.807 129.506 76.8562 129.434 76.9236 129.378C76.9914 129.321 77.0742 129.287 77.172 129.276C77.2482 129.267 77.3185 129.273 77.3829 129.294C77.4473 129.315 77.502 129.349 77.547 129.395C77.5919 129.442 77.623 129.498 77.6403 129.565L77.4738 129.584C77.4554 129.536 77.4221 129.496 77.3739 129.463C77.3261 129.429 77.2656 129.417 77.1922 129.425C77.1273 129.433 77.0724 129.456 77.0274 129.496C76.9828 129.535 76.9505 129.586 76.9303 129.651C76.9105 129.715 76.9054 129.787 76.9149 129.869C76.9247 129.953 76.9463 130.024 76.9799 130.083C77.0139 130.142 77.0571 130.186 77.1095 130.215C77.1624 130.243 77.2218 130.254 77.2877 130.246C77.3309 130.241 77.3693 130.229 77.4029 130.21C77.4364 130.191 77.4637 130.166 77.4849 130.135C77.5061 130.104 77.5195 130.068 77.5253 130.027L77.6918 130.008C77.6898 130.073 77.6732 130.133 77.642 130.189C77.6113 130.244 77.5673 130.29 77.5101 130.327C77.4534 130.364 77.385 130.387 77.305 130.396ZM77.9719 130.295L77.846 129.212L78.0068 129.193L78.0258 129.357L78.0371 129.356C78.0506 129.3 78.0813 129.252 78.1292 129.213C78.177 129.173 78.2334 129.15 78.2983 129.142C78.3106 129.141 78.3259 129.139 78.3443 129.138C78.3627 129.136 78.3766 129.135 78.3861 129.135L78.4058 129.304C78.4 129.303 78.3868 129.303 78.3663 129.302C78.3461 129.301 78.325 129.302 78.3029 129.305C78.2502 129.311 78.2045 129.327 78.1657 129.354C78.1273 129.381 78.0983 129.414 78.0788 129.456C78.0597 129.497 78.053 129.541 78.0587 129.59L78.1384 130.276L77.9719 130.295ZM78.7111 130.21L78.5851 129.126L78.7516 129.107L78.8776 130.19L78.7111 130.21ZM78.6488 128.936C78.6163 128.939 78.5871 128.931 78.561 128.912C78.5354 128.893 78.5208 128.867 78.5172 128.836C78.5135 128.805 78.522 128.777 78.5425 128.753C78.5634 128.728 78.5901 128.714 78.6226 128.71C78.655 128.706 78.684 128.714 78.7097 128.733C78.7357 128.753 78.7506 128.778 78.7542 128.809C78.7578 128.84 78.7491 128.868 78.7282 128.893C78.7077 128.917 78.6812 128.932 78.6488 128.936ZM79.2297 130.561L79.0566 129.071L79.2174 129.052L79.2374 129.225L79.2572 129.222C79.2672 129.202 79.2814 129.176 79.2996 129.144C79.3183 129.112 79.3467 129.082 79.385 129.054C79.4236 129.026 79.4782 129.008 79.5488 129C79.64 128.989 79.7231 129.003 79.798 129.04C79.8729 129.078 79.9347 129.136 79.9835 129.215C80.0323 129.294 80.0633 129.391 80.0765 129.505C80.0898 129.619 80.0819 129.721 80.0526 129.81C80.0233 129.898 79.9768 129.969 79.913 130.023C79.8492 130.077 79.7721 130.109 79.6818 130.12C79.6122 130.128 79.5551 130.123 79.5106 130.104C79.466 130.086 79.4307 130.063 79.4047 130.036C79.3786 130.009 79.3583 129.986 79.3438 129.967L79.3297 129.969L79.3962 130.542L79.2297 130.561ZM79.2832 129.594C79.2927 129.676 79.3131 129.747 79.3444 129.806C79.3756 129.866 79.4163 129.91 79.4665 129.94C79.5166 129.97 79.5751 129.98 79.6418 129.973C79.7114 129.965 79.7674 129.939 79.8097 129.897C79.8524 129.855 79.8819 129.801 79.8981 129.736C79.9148 129.67 79.9186 129.598 79.9097 129.521C79.9008 129.445 79.8811 129.378 79.8505 129.319C79.8203 129.26 79.7796 129.216 79.7284 129.185C79.6776 129.155 79.6169 129.143 79.5464 129.152C79.4787 129.159 79.4238 129.183 79.3816 129.223C79.3395 129.262 79.3102 129.314 79.2938 129.377C79.2773 129.441 79.2738 129.513 79.2832 129.594ZM80.7384 128.876L80.7548 129.017L80.1933 129.082L80.1769 128.941L80.7384 128.876ZM80.3104 128.662L80.4768 128.643L80.5969 129.676C80.6024 129.723 80.6133 129.757 80.6297 129.779C80.6464 129.801 80.6661 129.814 80.6887 129.82C80.7117 129.824 80.7354 129.826 80.7598 129.823C80.7782 129.821 80.7931 129.818 80.8047 129.815C80.8161 129.811 80.8253 129.808 80.8322 129.806L80.8835 129.951C80.8727 129.957 80.8574 129.963 80.8377 129.97C80.818 129.977 80.7926 129.982 80.7616 129.986C80.7146 129.991 80.6673 129.986 80.6198 129.971C80.5728 129.956 80.532 129.93 80.4976 129.892C80.4636 129.854 80.443 129.803 80.4357 129.74L80.3104 128.662ZM81.1499 128.462L81.1646 128.589C81.1691 128.627 81.1669 128.669 81.1578 128.715C81.1492 128.76 81.1339 128.804 81.1118 128.848C81.0902 128.891 81.0623 128.93 81.0282 128.965L80.9294 128.902C80.9541 128.856 80.9746 128.809 80.9909 128.761C81.0077 128.713 81.013 128.662 81.0069 128.61L80.9919 128.48L81.1499 128.462ZM81.5111 128.42L81.5258 128.547C81.5303 128.585 81.5281 128.627 81.519 128.673C81.5104 128.718 81.4951 128.762 81.473 128.806C81.4514 128.85 81.4235 128.889 81.3894 128.923L81.2906 128.86C81.3153 128.814 81.3358 128.767 81.3521 128.719C81.3689 128.671 81.3742 128.62 81.3681 128.568L81.3531 128.438L81.5111 128.42Z" fill="white"/>
<path d="M58.9611 62.5877C59.0541 62.6373 59.2149 62.6924 59.4434 62.7531C59.6712 62.8071 59.9341 62.8169 60.2321 62.7822C60.4903 62.7522 60.6972 62.6845 60.8528 62.5792C61.0076 62.4672 61.1176 62.3169 61.1829 62.1281C61.2548 61.9385 61.2875 61.6998 61.2809 61.412C61.2809 61.1234 61.2578 60.7804 61.2116 60.3831L60.7821 56.688L62.1529 56.5286L62.5697 60.1145C62.6313 60.6443 62.6577 61.1311 62.6489 61.5751C62.6401 62.0191 62.5681 62.41 62.4328 62.7479C62.2976 63.0858 62.0645 63.3612 61.7336 63.5742C61.4092 63.7864 60.959 63.9259 60.3829 63.9929C60.065 64.0299 59.776 64.0265 59.5159 63.9829C59.2558 63.9393 59.0113 63.857 58.7825 63.736L58.9611 62.5877ZM63.6027 61.9475C63.5634 61.6098 63.6219 61.3043 63.7781 61.0311C63.9401 60.7505 64.1819 60.5211 64.5034 60.3427C64.825 60.1644 65.2043 60.0499 65.6414 59.9991C65.8599 59.9737 66.0837 59.9644 66.3127 59.9714C66.5417 59.9783 66.7432 60.0086 66.9172 60.0622L66.8849 59.7841C66.8464 59.453 66.7174 59.2096 66.498 59.0538C66.2851 58.8974 65.9867 58.8415 65.6026 58.8861C65.3179 58.9192 65.0521 59.0004 64.8054 59.1298C64.5587 59.2591 64.3041 59.4364 64.0417 59.6615L63.513 58.837C63.8312 58.5719 64.1625 58.3622 64.507 58.2081C64.8581 58.0532 65.2324 57.9526 65.6297 57.9064C66.3714 57.8202 66.969 57.9387 67.4227 58.2618C67.883 58.5841 68.1532 59.0896 68.2332 59.7783L68.426 61.4372C68.4422 61.5762 68.4769 61.6729 68.5302 61.7271C68.5901 61.7805 68.6771 61.8073 68.7912 61.8075L68.9171 62.8902C68.8002 62.9239 68.6929 62.9532 68.5951 62.978C68.5039 63.002 68.4252 63.0178 68.359 63.0255C68.0941 63.0563 67.8852 63.0202 67.7323 62.9172C67.586 62.8134 67.4863 62.6773 67.4331 62.509L67.3722 62.2442C67.1809 62.5618 66.9256 62.8197 66.6064 63.0178C66.2871 63.216 65.952 63.3355 65.601 63.3763C65.2567 63.4163 64.9374 63.383 64.6431 63.2762C64.3546 63.1621 64.1167 62.9918 63.9293 62.7652C63.7477 62.5313 63.6389 62.2587 63.6027 61.9475ZM66.8721 61.8393C66.9357 61.7513 66.986 61.665 67.0232 61.5801C67.0603 61.4953 67.075 61.4197 67.0673 61.3535L67.0061 60.827C66.8395 60.7793 66.6615 60.7496 66.4723 60.7381C66.2822 60.7199 66.1044 60.7204 65.9389 60.7397C65.5945 60.7797 65.3186 60.8889 65.1112 61.0674C64.9096 61.2385 64.823 61.4466 64.8515 61.6916C64.8669 61.824 64.9179 61.9456 65.0046 62.0563C65.0913 62.1671 65.2085 62.2508 65.356 62.3075C65.5035 62.3641 65.6733 62.3813 65.8653 62.359C66.064 62.3359 66.2551 62.2768 66.4387 62.1816C66.6215 62.0798 66.766 61.9657 66.8721 61.8393ZM71.0593 62.6412L68.5372 57.6591L69.9179 57.4986L71.6932 61.3393L72.5502 57.1926L73.8117 57.046L72.5095 62.4726L71.0593 62.6412ZM74.4477 60.6869C74.4084 60.3492 74.4669 60.0437 74.623 59.7705C74.785 59.49 75.0268 59.2605 75.3484 59.0822C75.67 58.9039 76.0493 58.7893 76.4863 58.7385C76.7049 58.7131 76.9286 58.7039 77.1576 58.7108C77.3866 58.7178 77.5881 58.748 77.7621 58.8016L77.7298 58.5235C77.6913 58.1924 77.5624 57.949 77.3429 57.7933C77.1301 57.6368 76.8316 57.5809 76.4476 57.6255C76.1628 57.6586 75.8971 57.7399 75.6504 57.8692C75.4037 57.9986 75.1491 58.1758 74.8867 58.4009L74.3579 57.5765C74.6761 57.3113 75.0074 57.1016 75.352 56.9475C75.7031 56.7926 76.0773 56.692 76.4746 56.6459C77.2163 56.5597 77.814 56.6781 78.2677 57.0012C78.728 57.3236 78.9981 57.8291 79.0782 58.5178L79.271 60.1766C79.2872 60.3157 79.3219 60.4123 79.3752 60.4665C79.4351 60.52 79.5221 60.5468 79.6362 60.5469L79.762 61.6296C79.6451 61.6634 79.5378 61.6926 79.44 61.7174C79.3488 61.7414 79.2702 61.7573 79.2039 61.765C78.939 61.7958 78.7301 61.7596 78.5772 61.6566C78.4309 61.5528 78.3312 61.4167 78.2781 61.2484L78.2171 60.9837C78.0258 61.3012 77.7706 61.5591 77.4513 61.7573C77.1321 61.9555 76.797 62.075 76.446 62.1158C76.1016 62.1558 75.7823 62.1224 75.488 62.0157C75.1996 61.9016 74.9617 61.7312 74.7743 61.5047C74.5927 61.2707 74.4838 60.9982 74.4477 60.6869ZM77.717 60.5787C77.7806 60.4908 77.831 60.4044 77.8681 60.3195C77.9052 60.2347 77.9199 60.1592 77.9122 60.0929L77.851 59.5665C77.6844 59.5187 77.5065 59.4891 77.3172 59.4775C77.1272 59.4593 76.9494 59.4599 76.7838 59.4791C76.4395 59.5191 76.1636 59.6284 75.9561 59.8069C75.7545 59.978 75.668 60.186 75.6965 60.431C75.7119 60.5635 75.7629 60.6851 75.8496 60.7958C75.9363 60.9065 76.0534 60.9902 76.2009 61.0469C76.3485 61.1036 76.5183 61.1208 76.7103 61.0984C76.909 61.0753 77.1001 61.0162 77.2837 60.921C77.4665 60.8193 77.6109 60.7052 77.717 60.5787ZM84.4138 55.8137C84.3621 55.7727 84.2687 55.7198 84.1336 55.6549C84.0052 55.5893 83.8474 55.5305 83.6601 55.4784C83.4795 55.4256 83.2834 55.3846 83.072 55.3555C82.8598 55.3198 82.6477 55.3142 82.4358 55.3389C82.065 55.382 81.7916 55.4842 81.6157 55.6456C81.4465 55.8062 81.3765 56.0123 81.4057 56.264C81.428 56.456 81.5053 56.6014 81.6376 56.7001C81.7699 56.7988 81.9599 56.8741 82.2075 56.9258C82.4551 56.9776 82.7631 57.029 83.1315 57.0802C83.6081 57.1389 84.0249 57.2314 84.3819 57.3577C84.7447 57.4766 85.0309 57.6581 85.2405 57.9022C85.4559 58.1389 85.5887 58.4725 85.6387 58.9029C85.6826 59.2804 85.6508 59.6129 85.5433 59.9006C85.435 60.1816 85.268 60.4192 85.0422 60.6132C84.8164 60.8072 84.5525 60.9621 84.2505 61.0777C83.9477 61.1867 83.6209 61.2616 83.2699 61.3024C82.9189 61.3432 82.5637 61.3476 82.2043 61.3156C81.8449 61.2835 81.4952 61.2201 81.1553 61.1254C80.8147 61.0241 80.4974 60.8931 80.2036 60.7327L80.6721 59.4802C80.7387 59.5329 80.8539 59.6 81.0177 59.6816C81.1808 59.7566 81.3774 59.8311 81.6074 59.905C81.8368 59.9723 82.0844 60.0241 82.3503 60.0603C82.6163 60.0965 82.8817 60.0992 83.1466 60.0684C83.5174 60.0253 83.7916 59.9297 83.969 59.7816C84.1464 59.6334 84.2216 59.4435 84.1947 59.2117C84.1701 58.9998 84.0747 58.8431 83.9085 58.7416C83.7423 58.6401 83.5185 58.5621 83.237 58.5076C82.9547 58.4464 82.622 58.3844 82.2388 58.3216C81.7805 58.2473 81.3935 58.1513 81.0778 58.0337C80.7614 57.9094 80.5164 57.7365 80.343 57.515C80.1697 57.2936 80.0622 57.0041 80.0206 56.6465C79.9644 56.163 80.03 55.746 80.2175 55.3954C80.4108 55.0373 80.6931 54.7528 81.0646 54.5418C81.4353 54.3243 81.859 54.1878 82.3358 54.1323C82.6669 54.0939 82.9824 54.0941 83.2822 54.1331C83.5887 54.1713 83.878 54.235 84.1501 54.3241C84.4222 54.4133 84.669 54.5155 84.8904 54.6307L84.4138 55.8137ZM89.215 60.6315C88.7912 60.6808 88.4024 60.6555 88.0485 60.5557C87.6938 60.4493 87.3827 60.2841 87.115 60.0602C86.8466 59.8296 86.6273 59.5598 86.4571 59.2507C86.2936 58.9409 86.1911 58.6071 86.1495 58.2496C86.0925 57.7595 86.1498 57.2998 86.3214 56.8705C86.4989 56.4337 86.7786 56.069 87.1607 55.7763C87.5428 55.4835 88.0153 55.3044 88.5782 55.239C89.141 55.1736 89.6387 55.2399 90.0711 55.438C90.5035 55.636 90.8422 55.9222 91.087 56.2964L89.832 56.845C89.6971 56.666 89.5311 56.5377 89.3342 56.4599C89.1364 56.3755 88.925 56.3464 88.6998 56.3725C88.4482 56.4018 88.2241 56.495 88.0276 56.652C87.837 56.8017 87.6959 57.0027 87.6044 57.2549C87.5121 57.5006 87.4841 57.779 87.5203 58.0902C87.5557 58.3948 87.6468 58.6594 87.7937 58.884C87.9465 59.1011 88.1336 59.2673 88.3551 59.3825C88.5757 59.4911 88.8119 59.5307 89.0635 59.5015C89.2225 59.483 89.3684 59.4392 89.5013 59.3701C89.6408 59.3002 89.7615 59.2123 89.8633 59.1065C89.9651 59.0007 90.0355 58.8851 90.0747 58.7598L91.4221 59.0059C91.3329 59.278 91.1844 59.5301 90.9764 59.7624C90.7752 59.9938 90.5258 60.1872 90.2284 60.3426C89.9369 60.4906 89.5991 60.5869 89.215 60.6315ZM95.0146 55.7493C94.6107 55.7962 94.259 55.9177 93.9596 56.1135C93.6595 56.3028 93.4568 56.5512 93.3516 56.8587L93.7176 60.0075L92.3866 60.1622L91.7816 54.9573L93.0034 54.8153L93.1327 55.9278C93.2765 55.5486 93.4789 55.2399 93.7398 55.0015C94.0007 54.7631 94.2889 54.6155 94.6044 54.5587C94.6773 54.5502 94.7336 54.5437 94.7733 54.5391C94.813 54.5344 94.8465 54.5339 94.8738 54.5374L95.0146 55.7493ZM96.2279 59.7157L95.6229 54.5108L96.9539 54.3561L97.5589 59.561L96.2279 59.7157ZM95.5386 53.7857L95.3851 52.4646L96.7161 52.3098L96.8697 53.6309L95.5386 53.7857ZM101.89 59.1583C101.486 59.2052 101.118 59.1574 100.786 59.0148C100.46 58.8647 100.193 58.6441 99.9845 58.3529L100.337 61.3825L99.0056 61.5372L98.1547 54.2165L99.3169 54.0814L99.4208 54.9754C99.584 54.6477 99.808 54.38 100.093 54.1725C100.376 53.9583 100.714 53.8285 101.104 53.783C101.455 53.7422 101.785 53.7744 102.092 53.8796C102.406 53.9841 102.687 54.1494 102.935 54.3756C103.182 54.5953 103.384 54.8604 103.541 55.171C103.704 55.4742 103.807 55.8113 103.85 56.1821C103.908 56.6854 103.862 57.1539 103.711 57.5875C103.567 58.0204 103.337 58.3794 103.021 58.6644C102.711 58.9421 102.334 59.1067 101.89 59.1583ZM101.312 58.0778C101.517 58.054 101.697 57.9894 101.853 57.884C102.008 57.7787 102.137 57.6463 102.24 57.4867C102.348 57.3198 102.421 57.1402 102.459 56.9478C102.503 56.7481 102.513 56.5456 102.489 56.3403C102.463 56.1218 102.404 55.924 102.309 55.7471C102.221 55.5693 102.103 55.4187 101.955 55.295C101.805 55.1647 101.637 55.0702 101.449 55.0115C101.267 54.9521 101.074 54.9343 100.868 54.9581C100.743 54.9728 100.616 55.0109 100.489 55.0727C100.368 55.127 100.252 55.2009 100.142 55.2942C100.032 55.3875 99.9373 55.4926 99.8569 55.6093C99.7831 55.7252 99.7337 55.8484 99.7086 55.9789L99.8506 57.2007C99.9524 57.3835 100.079 57.5466 100.23 57.6902C100.387 57.8329 100.561 57.9403 100.75 58.0122C100.939 58.0775 101.126 58.0994 101.312 58.0778ZM108.075 58.0669C107.968 58.1263 107.838 58.1951 107.686 58.2731C107.534 58.3512 107.368 58.4176 107.186 58.4722C107.012 58.5327 106.832 58.5738 106.647 58.5953C106.402 58.6238 106.171 58.6069 105.956 58.5447C105.741 58.4825 105.559 58.366 105.412 58.1952C105.271 58.017 105.182 57.7756 105.147 57.471L104.799 54.4811L104.114 54.5608L103.995 53.5377L104.68 53.458L104.484 51.7694L105.815 51.6147L106.011 53.3033L107.104 53.1763L107.223 54.1994L106.13 54.3264L106.426 56.8693C106.453 57.0473 106.518 57.1707 106.62 57.2394C106.722 57.308 106.842 57.3343 106.981 57.3181C107.12 57.302 107.253 57.263 107.381 57.2013C107.508 57.1395 107.609 57.0875 107.685 57.0451L108.075 58.0669Z" fill="#FFC100"/>
<path d="M57.9501 54.0976L57.6222 51.2765L58.8142 51.138C58.936 51.1238 59.0502 51.1361 59.1567 51.1747C59.2632 51.2133 59.3586 51.272 59.4429 51.3508C59.5296 51.4267 59.599 51.5152 59.651 51.6166C59.7054 51.715 59.7389 51.8184 59.7515 51.927C59.7672 52.0621 59.7555 52.1924 59.7164 52.3177C59.6799 52.4428 59.6188 52.5519 59.533 52.6451C59.4498 52.738 59.3462 52.8051 59.2221 52.8463L60.04 53.8546L59.7261 53.8911L58.9416 52.9272L58.1072 53.0242L58.2282 54.0652L57.9501 54.0976ZM58.0786 52.7779L59.0004 52.6707C59.1116 52.6578 59.2048 52.6161 59.2798 52.5456C59.3548 52.4752 59.4092 52.3883 59.4428 52.2851C59.4761 52.1792 59.4863 52.0706 59.4734 51.9594C59.4602 51.8455 59.4215 51.7439 59.3575 51.6547C59.2957 51.5626 59.2178 51.4924 59.1236 51.4443C59.0318 51.3932 58.9329 51.3739 58.8269 51.3862L57.929 51.4906L58.0786 52.7779ZM60.4709 53.8046L60.2303 51.7345L60.5004 51.7031L60.7411 53.7731L60.4709 53.8046ZM60.1799 51.3014L60.1337 50.9041L60.4039 50.8727L60.4501 51.27L60.1799 51.3014ZM62.2387 53.6393C62.0877 53.6569 61.9454 53.6452 61.8118 53.6044C61.6806 53.5606 61.5614 53.4939 61.4543 53.4043C61.3499 53.3144 61.2637 53.2077 61.1956 53.0841C61.1302 52.9601 61.089 52.8253 61.0721 52.6796C61.0493 52.4836 61.0722 52.2997 61.1409 52.128C61.2095 51.9562 61.3164 51.8136 61.4616 51.7001C61.6068 51.5866 61.7814 51.5179 61.9854 51.4942C62.1787 51.4718 62.3548 51.4969 62.5136 51.5698C62.6721 51.6399 62.7959 51.7463 62.8849 51.889L62.6324 52.0029C62.5618 51.9038 62.4702 51.8312 62.3574 51.7852C62.247 51.7363 62.1283 51.7192 62.0011 51.734C61.8634 51.75 61.7417 51.8004 61.6362 51.8852C61.5306 51.9699 61.4506 52.0786 61.3962 52.2111C61.3444 52.3433 61.3278 52.4888 61.3463 52.6477C61.3644 52.804 61.4153 52.9417 61.499 53.0609C61.5826 53.18 61.6859 53.2714 61.8087 53.3349C61.9312 53.3959 62.0613 53.4183 62.1991 53.4023C62.2891 53.3919 62.3734 53.366 62.4518 53.3246C62.5329 53.283 62.6008 53.2321 62.6556 53.1721C62.7127 53.1091 62.7481 53.0445 62.7619 52.9785L63.0374 53.027C63.0117 53.1293 62.9597 53.2253 62.8816 53.3149C62.8057 53.4016 62.7121 53.4742 62.6008 53.5328C62.4919 53.5884 62.3712 53.6239 62.2387 53.6393ZM64.9948 53.2787L64.1047 52.307L63.7117 52.7715L63.787 53.4191L63.5168 53.4505L63.1796 50.55L63.4498 50.5186L63.678 52.4814L64.7189 51.2168L65.0169 51.1821L64.269 52.1268L65.2888 53.2445L64.9948 53.2787ZM66.692 53.0814L66.3641 50.2604L67.5561 50.1219C67.6779 50.1077 67.7921 50.12 67.8986 50.1586C68.0051 50.1972 68.1005 50.2559 68.1849 50.3347C68.2715 50.4105 68.3409 50.4991 68.3929 50.6005C68.4473 50.6988 68.4808 50.8023 68.4935 50.9109C68.5092 51.046 68.4975 51.1762 68.4583 51.3016C68.4219 51.4266 68.3607 51.5358 68.2749 51.629C68.1917 51.7219 68.0881 51.7889 67.9641 51.8302L68.7819 52.8385L68.4681 52.875L67.6835 51.9111L66.8491 52.0081L66.9701 53.0491L66.692 53.0814ZM66.8205 51.7618L67.7423 51.6546C67.8536 51.6417 67.9467 51.6 68.0217 51.5295C68.0968 51.4591 68.1511 51.3722 68.1847 51.269C68.2181 51.1631 68.2283 51.0545 68.2153 50.9433C68.2021 50.8294 68.1634 50.7278 68.0994 50.6386C68.0377 50.5465 67.9597 50.4763 67.8655 50.4282C67.7737 50.3771 67.6748 50.3578 67.5688 50.3701L66.6709 50.4744L66.8205 51.7618ZM68.965 52.2132C68.9499 52.0834 68.9741 51.9678 69.0375 51.8665C69.1005 51.7625 69.1941 51.6778 69.318 51.6124C69.4443 51.5441 69.5935 51.4999 69.7657 51.4798C69.8663 51.4682 69.9719 51.4639 70.0823 51.4672C70.1928 51.4705 70.2923 51.4831 70.3807 51.505L70.3604 51.3302C70.3401 51.1554 70.2723 51.0223 70.1569 50.931C70.0416 50.8397 69.8926 50.8047 69.7098 50.8259C69.5986 50.8389 69.4911 50.8728 69.3874 50.9278C69.2861 50.9799 69.1818 51.0524 69.0745 51.1454L68.949 50.9667C69.0733 50.8583 69.1977 50.774 69.3223 50.7139C69.4465 50.6512 69.5762 50.6119 69.7113 50.5962C69.9656 50.5667 70.1754 50.6161 70.3406 50.7446C70.5059 50.873 70.6035 51.0657 70.6333 51.3226L70.7446 52.2802C70.749 52.3173 70.7601 52.3441 70.7782 52.3608C70.7959 52.3749 70.8222 52.3812 70.8569 52.3799L70.8818 52.5944C70.853 52.6005 70.8282 52.606 70.8073 52.6112C70.7864 52.6163 70.7705 52.6181 70.7596 52.6167C70.6931 52.6217 70.6403 52.6064 70.6012 52.5707C70.5622 52.5349 70.5387 52.4947 70.5308 52.45L70.5093 52.2995C70.4304 52.4295 70.3207 52.5362 70.1801 52.6196C70.0391 52.7004 69.8918 52.7498 69.7382 52.7676C69.6057 52.783 69.482 52.7692 69.3669 52.7262C69.2542 52.6803 69.1618 52.6131 69.0898 52.5249C69.0202 52.4336 68.9786 52.3297 68.965 52.2132ZM70.3701 52.211C70.395 52.1705 70.4133 52.1321 70.4252 52.0958C70.4371 52.0595 70.4415 52.0282 70.4384 52.0017L70.4033 51.6997C70.3093 51.6757 70.2122 51.6602 70.112 51.653C70.0145 51.6456 69.9167 51.6475 69.8187 51.6589C69.6254 51.6814 69.4735 51.738 69.3633 51.8286C69.253 51.9193 69.2056 52.0309 69.221 52.1633C69.2299 52.2401 69.2582 52.3107 69.306 52.3749C69.3534 52.4365 69.4181 52.4854 69.5002 52.5215C69.5819 52.5549 69.6744 52.5656 69.7777 52.5536C69.9075 52.5386 70.0251 52.4994 70.1305 52.4361C70.2386 52.3726 70.3185 52.2975 70.3701 52.211ZM73.1066 52.3358L72.8364 52.3673L72.702 51.211C72.6737 50.9673 72.6173 50.794 72.5328 50.6911C72.4481 50.5855 72.3289 50.5416 72.1752 50.5595C72.0693 50.5718 71.9677 50.6105 71.8706 50.6754C71.7731 50.7378 71.6899 50.8186 71.6209 50.9179C71.5542 51.0142 71.5103 51.1214 71.4891 51.2393L71.6364 52.5067L71.3663 52.5381L71.1257 50.4681L71.372 50.4394L71.4265 50.9083C71.4704 50.8012 71.5331 50.7053 71.6145 50.6206C71.6957 50.5334 71.7907 50.4619 71.8997 50.4063C72.0087 50.3507 72.1241 50.3158 72.2459 50.3016C72.3598 50.2884 72.459 50.2983 72.5434 50.3315C72.6278 50.3646 72.6984 50.4181 72.7553 50.4921C72.8119 50.5633 72.8573 50.6534 72.8914 50.7622C72.9252 50.8683 72.95 50.9889 72.9657 51.124L73.1066 52.3358ZM73.424 51.256C73.4012 51.06 73.4202 50.8765 73.4809 50.7057C73.5439 50.532 73.6412 50.3878 73.7729 50.2731C73.9045 50.1585 74.0617 50.0905 74.2445 50.0693C74.4167 50.0493 74.5757 50.0778 74.7216 50.1548C74.8698 50.2288 74.9898 50.3263 75.0817 50.4472L74.9349 49.1837L75.205 49.1523L75.5043 51.7269C75.5086 51.764 75.5198 51.7909 75.5379 51.8076C75.5556 51.8216 75.5805 51.8281 75.6126 51.8271L75.6375 52.0417C75.5855 52.0558 75.5447 52.0632 75.5153 52.0639C75.4594 52.0677 75.4077 52.0509 75.3604 52.0135C75.3131 51.976 75.2865 51.9321 75.2807 51.8818L75.2571 51.6792C75.1907 51.8238 75.092 51.944 74.9608 52.0398C74.8296 52.1356 74.6886 52.1922 74.5376 52.2098C74.3946 52.2264 74.2587 52.2127 74.1301 52.1686C74.0041 52.1241 73.8903 52.0568 73.7885 51.9666C73.6894 51.8761 73.6073 51.7703 73.5422 51.649C73.4794 51.5247 73.44 51.3937 73.424 51.256ZM75.1893 51.3729L75.115 50.7332C75.0695 50.6419 75.0038 50.5623 74.9181 50.4944C74.832 50.4238 74.7374 50.3718 74.6341 50.3381C74.5332 50.3015 74.4351 50.2888 74.3398 50.2998C74.2285 50.3128 74.1306 50.3483 74.0461 50.4065C73.9613 50.462 73.8904 50.5333 73.8334 50.6205C73.7791 50.7073 73.7405 50.8031 73.7178 50.9077C73.695 51.0124 73.6898 51.1177 73.7022 51.2236C73.7151 51.3349 73.7459 51.4387 73.7947 51.535C73.8462 51.6311 73.9123 51.7147 73.993 51.7858C74.0735 51.8543 74.1625 51.9044 74.2601 51.936C74.3578 51.9676 74.4609 51.9771 74.5695 51.9645C74.6384 51.9565 74.7083 51.9349 74.7794 51.8998C74.8505 51.8647 74.9165 51.8208 74.9775 51.768C75.0409 51.7123 75.0913 51.6501 75.129 51.5813C75.1666 51.5125 75.1867 51.443 75.1893 51.3729ZM76.3474 52.6035C76.3848 52.6018 76.4207 52.599 76.4552 52.595C76.4899 52.5936 76.5149 52.5894 76.5302 52.5822C76.5614 52.5732 76.5897 52.5511 76.6151 52.516C76.6406 52.4808 76.6679 52.4159 76.6972 52.3212C76.7264 52.2265 76.7667 52.0876 76.8179 51.9045L75.6753 49.9392L75.9614 49.906L76.9286 51.6097L77.4196 49.7365L77.6898 49.7051L76.9273 52.4998C76.9147 52.5523 76.8922 52.6019 76.8601 52.6486C76.8282 52.6979 76.7859 52.7377 76.733 52.768C76.6831 52.8007 76.6186 52.8229 76.5394 52.8348C76.5159 52.8403 76.4907 52.8432 76.4639 52.8436C76.4401 52.8464 76.4107 52.8471 76.3756 52.8458L76.3474 52.6035Z" fill="white"/>
<path d="M65.7406 72.8435L63.2275 73.1356L63.9757 79.5722L63.2804 79.6531L62.5322 73.2164L60.0191 73.5085L59.9475 72.8927L65.669 72.2276L65.7406 72.8435ZM71.7568 78.6678L71.0814 78.7463L70.7454 75.8558C70.6776 75.273 70.5242 74.8479 70.285 74.5804C70.0451 74.3063 69.7331 74.1915 69.349 74.2362C69.0974 74.2654 68.8535 74.3609 68.6172 74.5226C68.3868 74.6769 68.1887 74.8778 68.0228 75.1252C67.8628 75.3653 67.7596 75.6323 67.7132 75.9263L68.0816 79.095L67.4061 79.1735L66.5633 71.9223L67.2387 71.8438L67.6163 75.092C67.7769 74.684 68.0262 74.3463 68.3643 74.0788C68.7082 73.8039 69.0887 73.6423 69.5059 73.5938C69.8039 73.5591 70.0617 73.5828 70.2793 73.6649C70.5035 73.7463 70.6905 73.8823 70.8402 74.0729C70.9957 74.2562 71.119 74.4801 71.2102 74.7447C71.3006 75.0026 71.3654 75.3005 71.4047 75.6382L71.7568 78.6678ZM75.4437 78.3399C75.0729 78.383 74.7204 78.3535 74.3864 78.2514C74.0516 78.1427 73.7541 77.9793 73.4938 77.7612C73.2328 77.5365 73.0172 77.2696 72.8471 76.9605C72.6835 76.6507 72.5802 76.3103 72.5371 75.9395C72.4809 75.4561 72.5386 74.9997 72.7102 74.5703C72.8884 74.1402 73.159 73.7833 73.522 73.4994C73.8842 73.209 74.3136 73.0349 74.8103 72.9772C75.3202 72.9179 75.7781 72.9889 76.184 73.19C76.5966 73.3904 76.9356 73.6799 77.2011 74.0584C77.4658 74.4303 77.6259 74.8547 77.6813 75.3315C77.6875 75.3844 77.6936 75.4374 77.6998 75.4904C77.7052 75.5368 77.7061 75.5736 77.7025 75.6008L73.2724 76.1158C73.3486 76.4827 73.4897 76.8019 73.6958 77.0733C73.9077 77.3372 74.1627 77.5392 74.4608 77.679C74.7648 77.8115 75.0823 77.8584 75.4135 77.82C75.7512 77.7807 76.059 77.6577 76.337 77.4509C76.6216 77.2433 76.8074 76.9935 76.8942 76.7015L77.4988 76.7923C77.4213 77.0497 77.2848 77.2904 77.0894 77.5144C76.8939 77.7385 76.6538 77.9241 76.3689 78.0713C76.0898 78.2111 75.7814 78.3007 75.4437 78.3399ZM73.1959 75.6313L77.0202 75.1868C76.9498 74.8125 76.8087 74.4933 76.5968 74.2293C76.3915 73.9646 76.1373 73.7693 75.8341 73.6435C75.5367 73.5102 75.2191 73.4633 74.8814 73.5025C74.5437 73.5418 74.2454 73.6603 73.9865 73.8582C73.7268 74.0495 73.5246 74.3012 73.3796 74.6133C73.2405 74.9181 73.1793 75.2574 73.1959 75.6313ZM64.9853 91.6364C64.6079 91.6802 64.2521 91.6511 63.9181 91.549C63.5899 91.4395 63.292 91.2728 63.0244 91.0488C62.7634 90.8241 62.5478 90.5572 62.3776 90.2482C62.2141 89.9383 62.1111 89.6013 62.0688 89.237C62.0118 88.747 62.0692 88.2873 62.2407 87.858C62.4123 87.4286 62.6796 87.072 63.0426 86.7882C63.4056 86.5044 63.842 86.3329 64.3519 86.2736C64.8353 86.2174 65.2755 86.2804 65.6726 86.4624C66.0688 86.6378 66.3782 86.9039 66.6009 87.2606L65.9696 87.5454C65.7931 87.2974 65.564 87.116 65.2821 87.0011C65.0062 86.8788 64.7093 86.8361 64.3914 86.8731C64.047 86.9131 63.7429 87.0391 63.4789 87.251C63.215 87.4628 63.015 87.7344 62.879 88.0657C62.7496 88.3962 62.708 88.7601 62.7542 89.1574C62.7996 89.5481 62.9269 89.8924 63.136 90.1902C63.3451 90.4881 63.6032 90.7164 63.9103 90.8754C64.2166 91.0277 64.5419 91.0839 64.8863 91.0438C65.1114 91.0177 65.322 90.9529 65.518 90.8496C65.7207 90.7455 65.8905 90.6184 66.0274 90.4682C66.1702 90.3107 66.2588 90.1494 66.2933 89.9843L66.9819 90.1056C66.9177 90.3614 66.7879 90.6013 66.5924 90.8254C66.4029 91.0421 66.1689 91.2236 65.8906 91.3701C65.6182 91.5091 65.3164 91.5979 64.9853 91.6364ZM70.3487 91.013C69.9778 91.0561 69.6254 91.0265 69.2914 90.9244C68.9632 90.8149 68.669 90.6511 68.4087 90.4331C68.1543 90.2076 67.9458 89.9432 67.783 89.64C67.6195 89.3301 67.5169 88.9964 67.4753 88.6388C67.4322 88.268 67.4551 87.9163 67.544 87.5838C67.6321 87.2447 67.7778 86.9392 67.9811 86.6672C68.1836 86.3887 68.4324 86.1618 68.7275 85.9865C69.0284 85.8039 69.3643 85.691 69.7351 85.6479C70.106 85.6048 70.4555 85.638 70.7836 85.7475C71.111 85.8504 71.4053 86.0142 71.6663 86.2389C71.9265 86.457 72.1384 86.7209 72.302 87.0308C72.4647 87.334 72.5677 87.6711 72.6108 88.0419C72.6523 88.3995 72.6291 88.7478 72.541 89.087C72.4521 89.4194 72.3064 89.725 72.1039 90.0036C71.9072 90.2747 71.6584 90.5016 71.3575 90.6843C71.0624 90.8595 70.7261 90.9691 70.3487 91.013ZM68.1619 88.5691C68.2065 88.9532 68.3301 89.2945 68.5326 89.5931C68.7409 89.8844 68.9983 90.1061 69.3046 90.2585C69.6101 90.4042 69.935 90.457 70.2794 90.417C70.6237 90.3769 70.9275 90.2477 71.1907 90.0292C71.4539 89.8106 71.6531 89.5324 71.7884 89.1946C71.9228 88.8501 71.9681 88.4891 71.9242 88.1116C71.8796 87.7276 71.7527 87.3866 71.5436 87.0887C71.3345 86.7909 71.0767 86.5658 70.7704 86.4135C70.4641 86.2612 70.1388 86.205 69.7945 86.2451C69.4501 86.2851 69.1467 86.4177 68.8843 86.6428C68.6285 86.8672 68.433 87.1483 68.2978 87.4862C68.1618 87.8174 68.1165 88.1784 68.1619 88.5691ZM78.3902 89.9776L77.7147 90.0561L77.3787 87.1655C77.3079 86.5563 77.167 86.123 76.9558 85.8657C76.7439 85.6017 76.4459 85.4921 76.0619 85.5367C75.797 85.5675 75.5431 85.6641 75.3002 85.8266C75.0566 85.9824 74.8485 86.1844 74.676 86.4327C74.5094 86.6735 74.3996 86.9413 74.3466 87.2361L74.7149 90.4048L74.0395 90.4833L73.4379 85.3081L74.0538 85.2365L74.19 86.4086C74.2998 86.1408 74.4565 85.9011 74.6601 85.6896C74.863 85.4713 75.1006 85.2927 75.373 85.1537C75.6455 85.0146 75.934 84.9274 76.2386 84.892C76.5234 84.8589 76.7712 84.8838 76.9822 84.9666C77.1932 85.0495 77.3698 85.1833 77.5121 85.3681C77.6536 85.5463 77.767 85.7714 77.8523 86.0434C77.9369 86.3087 77.9988 86.6102 78.038 86.948L78.3902 89.9776ZM82.2365 89.2788C82.1858 89.3048 82.1073 89.3509 82.0008 89.4169C81.8944 89.483 81.7641 89.5451 81.6097 89.6034C81.4554 89.6616 81.2856 89.7014 81.1001 89.723C80.9081 89.7453 80.7218 89.7301 80.5411 89.6772C80.3671 89.6236 80.222 89.5298 80.1057 89.3956C79.9887 89.2549 79.9174 89.0752 79.892 88.8567L79.4614 85.1516L78.7462 85.2348L78.6839 84.6984L79.399 84.6152L79.1958 82.867L79.8713 82.7885L80.0745 84.5367L81.2665 84.3982L81.3288 84.9346L80.1368 85.0731L80.5456 88.5894C80.5804 88.7733 80.6627 88.9047 80.7927 88.9835C80.9293 89.0616 81.0771 89.0914 81.236 89.073C81.4214 89.0514 81.5868 89.002 81.7322 88.9247C81.8768 88.8407 81.9641 88.7836 81.9942 88.7533L82.2365 89.2788ZM85.1596 84.5497C84.7109 84.6153 84.3282 84.7873 84.0115 85.0657C83.7015 85.3434 83.5012 85.6989 83.4106 86.1322L83.7847 89.3505L83.1093 89.4291L82.5077 84.2539L83.1434 84.18L83.2878 85.4216C83.4242 85.0366 83.6251 84.7146 83.8903 84.4556C84.1621 84.1958 84.462 84.0335 84.79 83.9685C84.8555 83.9542 84.9114 83.9443 84.9577 83.9389C85.0107 83.9328 85.0541 83.9311 85.088 83.9338L85.1596 84.5497ZM88.6435 88.8865C88.2726 88.9296 87.9202 88.9001 87.5862 88.7979C87.258 88.6884 86.9638 88.5246 86.7035 88.3066C86.4491 88.0811 86.2406 87.8167 86.0778 87.5135C85.9143 87.2036 85.8117 86.8699 85.7701 86.5123C85.727 86.1415 85.7499 85.7898 85.8388 85.4573C85.9269 85.1182 86.0726 84.8127 86.2759 84.5408C86.4784 84.2622 86.7272 84.0353 87.0223 83.86C87.3232 83.6774 87.6591 83.5645 88.0299 83.5214C88.4008 83.4783 88.7503 83.5115 89.0784 83.621C89.4058 83.7239 89.7001 83.8877 89.9611 84.1124C90.2213 84.3305 90.4332 84.5945 90.5968 84.9043C90.7595 85.2075 90.8625 85.5446 90.9056 85.9154C90.9471 86.273 90.9239 86.6214 90.8358 86.9605C90.7469 87.293 90.6012 87.5985 90.3987 87.8771C90.202 88.1482 89.9532 88.3752 89.6523 88.5578C89.3572 88.733 89.0209 88.8426 88.6435 88.8865ZM86.4567 86.4426C86.5013 86.8267 86.6249 87.168 86.8274 87.4666C87.0357 87.7579 87.2931 87.9796 87.5994 88.132C87.9049 88.2777 88.2298 88.3305 88.5742 88.2905C88.9185 88.2504 89.2223 88.1212 89.4855 87.9027C89.7487 87.6841 89.9479 87.406 90.0831 87.0681C90.2176 86.7236 90.2629 86.3626 90.219 85.9851C90.1744 85.6011 90.0475 85.2601 89.8384 84.9623C89.6293 84.6644 89.3715 84.4393 89.0652 84.287C88.7589 84.1347 88.4336 84.0785 88.0893 84.1186C87.7449 84.1586 87.4415 84.2912 87.1791 84.5163C86.9233 84.7407 86.7278 85.0218 86.5926 85.3597C86.4566 85.6909 86.4113 86.0519 86.4567 86.4426ZM93.6993 88.1981L91.0019 83.2666L91.7071 83.1846L93.9982 87.4788L95.2532 82.7724L95.9188 82.6951L94.4244 88.1138L93.6993 88.1981ZM99.5279 87.6213C99.1571 87.6644 98.8047 87.6349 98.4706 87.5328C98.1358 87.4241 97.8383 87.2606 97.5781 87.0426C97.317 86.8179 97.1014 86.551 96.9313 86.2419C96.7678 85.932 96.6644 85.5917 96.6213 85.2208C96.5651 84.7374 96.6228 84.2811 96.7944 83.8517C96.9726 83.4216 97.2432 83.0646 97.6062 82.7808C97.9684 82.4904 98.3979 82.3163 98.8945 82.2586C99.4044 82.1993 99.8623 82.2702 100.268 82.4714C100.681 82.6718 101.02 82.9612 101.285 83.3398C101.55 83.7117 101.71 84.1361 101.766 84.6128C101.772 84.6658 101.778 84.7188 101.784 84.7718C101.789 84.8181 101.79 84.8549 101.787 84.8822L97.3566 85.3971C97.4328 85.7641 97.5739 86.0833 97.78 86.3547C97.9919 86.6186 98.2469 86.8205 98.545 86.9604C98.849 87.0928 99.1666 87.1398 99.4977 87.1013C99.8354 87.0621 100.143 86.939 100.421 86.7322C100.706 86.5246 100.892 86.2749 100.978 85.9829L101.583 86.0737C101.506 86.331 101.369 86.5717 101.174 86.7958C100.978 87.0198 100.738 87.2055 100.453 87.3527C100.174 87.4925 99.8656 87.5821 99.5279 87.6213ZM97.2802 84.9127L101.104 84.4682C101.034 84.0938 100.893 83.7747 100.681 83.5107C100.476 83.2459 100.222 83.0507 99.9183 82.9248C99.6209 82.7916 99.3034 82.7446 98.9656 82.7839C98.6279 82.8231 98.3296 82.9417 98.0707 83.1396C97.8111 83.3308 97.6088 83.5825 97.4639 83.8947C97.3248 84.1995 97.2635 84.5388 97.2802 84.9127ZM105.162 82.2248C104.713 82.2903 104.33 82.4624 104.014 82.7408C103.704 83.0184 103.503 83.3739 103.413 83.8073L103.787 87.0256L103.111 87.1041L102.51 81.929L103.145 81.8551L103.29 83.0967C103.426 82.7117 103.627 82.3897 103.892 82.1307C104.164 81.8709 104.464 81.7085 104.792 81.6435C104.858 81.6292 104.913 81.6194 104.96 81.614C105.013 81.6078 105.056 81.6061 105.09 81.6089L105.162 82.2248ZM108.304 86.6012C107.88 86.6505 107.478 86.6268 107.098 86.53C106.717 86.4333 106.378 86.258 106.08 86.004L106.303 85.4949C106.626 85.7325 106.94 85.8973 107.246 85.9893C107.558 86.0738 107.879 86.0969 108.211 86.0584C108.614 86.0114 108.933 85.8939 109.166 85.7057C109.399 85.5109 109.497 85.2612 109.462 84.9566C109.438 84.7513 109.357 84.603 109.219 84.5116C109.086 84.4129 108.901 84.3439 108.661 84.3046C108.427 84.258 108.147 84.2134 107.82 84.1709C107.451 84.1131 107.138 84.0455 106.88 83.968C106.629 83.8831 106.431 83.7652 106.285 83.6143C106.146 83.456 106.061 83.2411 106.029 82.9696C105.99 82.6318 106.041 82.3441 106.181 82.1063C106.327 81.8612 106.539 81.6654 106.817 81.5189C107.101 81.3651 107.425 81.267 107.79 81.2247C108.187 81.1785 108.545 81.2006 108.864 81.291C109.184 81.3814 109.452 81.528 109.671 81.7309L109.396 82.2259C109.186 82.0355 108.946 81.9057 108.676 81.8364C108.412 81.7597 108.125 81.7394 107.813 81.7756C107.601 81.8002 107.403 81.8535 107.218 81.9354C107.032 82.0107 106.884 82.1219 106.773 82.269C106.669 82.4086 106.63 82.5911 106.656 82.8162C106.677 83.0016 106.741 83.1419 106.846 83.2371C106.95 83.3257 107.099 83.3956 107.293 83.4469C107.486 83.4915 107.723 83.5378 108.004 83.5857C108.407 83.6463 108.76 83.7159 109.065 83.7946C109.369 83.8667 109.61 83.9796 109.789 84.1333C109.968 84.287 110.075 84.5195 110.112 84.8307C110.168 85.3141 110.029 85.7127 109.697 86.0266C109.364 86.3404 108.9 86.532 108.304 86.6012ZM111.771 87.7083C111.865 87.7041 111.955 87.6971 112.041 87.6871C112.128 87.6837 112.19 87.673 112.228 87.6552C112.306 87.6327 112.377 87.5775 112.441 87.4896C112.504 87.4016 112.573 87.2393 112.646 87.0026C112.719 86.7659 112.82 86.4187 112.948 85.9608L110.091 81.0477L110.806 80.9646L113.224 85.2239L114.452 80.5409L115.127 80.4624L113.221 87.4492C113.189 87.5804 113.133 87.7044 113.053 87.8211C112.973 87.9444 112.867 88.044 112.735 88.1198C112.611 88.2014 112.449 88.257 112.251 88.2867C112.193 88.3003 112.13 88.3076 112.063 88.3087C112.003 88.3156 111.929 88.3175 111.842 88.3142L111.771 87.7083ZM66.3708 103.556C65.9934 103.6 65.6376 103.571 65.3036 103.469C64.9754 103.359 64.6775 103.193 64.4099 102.969C64.1488 102.744 63.9333 102.477 63.7631 102.168C63.5996 101.858 63.4966 101.521 63.4543 101.157C63.3973 100.667 63.4546 100.207 63.6262 99.7777C63.7978 99.3484 64.0651 98.9918 64.4281 98.708C64.7911 98.4242 65.2275 98.2526 65.7374 98.1934C66.2208 98.1372 66.661 98.2001 67.058 98.3822C67.4543 98.5576 67.7637 98.8236 67.9864 99.1803L67.3551 99.4651C67.1786 99.2172 66.9494 99.0357 66.6676 98.9208C66.3917 98.7985 66.0947 98.7559 65.7769 98.7928C65.4325 98.8328 65.1284 98.9588 64.8644 99.1707C64.6004 99.3826 64.4005 99.6542 64.2645 99.9854C64.1351 100.316 64.0935 100.68 64.1397 101.077C64.1851 101.468 64.3124 101.812 64.5215 102.11C64.7306 102.408 64.9887 102.636 65.2958 102.795C65.6021 102.947 65.9274 103.004 66.2717 102.964C66.4969 102.937 66.7075 102.873 66.9035 102.769C67.1062 102.665 67.276 102.538 67.4129 102.388C67.5557 102.23 67.6443 102.069 67.6788 101.904L68.3674 102.025C68.3032 102.281 68.1734 102.521 67.9779 102.745C67.7883 102.962 67.5544 103.143 67.2761 103.29C67.0037 103.429 66.7019 103.518 66.3708 103.556ZM71.7342 102.933C71.3633 102.976 71.0109 102.946 70.6769 102.844C70.3487 102.735 70.0545 102.571 69.7942 102.353C69.5398 102.127 69.3312 101.863 69.1685 101.56C69.0049 101.25 68.9024 100.916 68.8608 100.559C68.8177 100.188 68.8406 99.8361 68.9295 99.5036C69.0176 99.1645 69.1633 98.8589 69.3666 98.587C69.5691 98.3084 69.8179 98.0815 70.113 97.9063C70.4139 97.7236 70.7498 97.6108 71.1206 97.5677C71.4915 97.5246 71.841 97.5578 72.1691 97.6673C72.4965 97.7702 72.7907 97.9339 73.0518 98.1586C73.312 98.3767 73.5239 98.6407 73.6874 98.9505C73.8502 99.2538 73.9532 99.5908 73.9963 99.9617C74.0378 100.319 74.0145 100.668 73.9264 101.007C73.8376 101.339 73.6919 101.645 73.4894 101.923C73.2927 102.194 73.0439 102.421 72.743 102.604C72.4479 102.779 72.1116 102.889 71.7342 102.933ZM69.5474 100.489C69.592 100.873 69.7156 101.214 69.9181 101.513C70.1264 101.804 70.3838 102.026 70.6901 102.178C70.9956 102.324 71.3205 102.377 71.6649 102.337C72.0092 102.297 72.313 102.167 72.5762 101.949C72.8394 101.73 73.0386 101.452 73.1738 101.114C73.3083 100.77 73.3536 100.409 73.3097 100.031C73.2651 99.6473 73.1382 99.3063 72.9291 99.0085C72.7199 98.7106 72.4622 98.4856 72.1559 98.3332C71.8496 98.1809 71.5243 98.1248 71.18 98.1648C70.8356 98.2048 70.5322 98.3374 70.2698 98.5625C70.014 98.7869 69.8185 99.068 69.6832 99.4059C69.5472 99.7372 69.502 100.098 69.5474 100.489ZM79.7757 101.897L79.1002 101.976L78.7642 99.0853C78.6934 98.4761 78.5524 98.0428 78.3413 97.7854C78.1294 97.5215 77.8314 97.4118 77.4474 97.4564C77.1825 97.4872 76.9286 97.5839 76.6857 97.7463C76.4421 97.9022 76.234 98.1042 76.0615 98.3524C75.8949 98.5933 75.7851 98.8611 75.7321 99.1559L76.1004 102.325L75.4249 102.403L74.8234 97.2279L75.4393 97.1563L75.5755 98.3284C75.6853 98.0606 75.842 97.8209 76.0456 97.6093C76.2485 97.3911 76.4861 97.2125 76.7585 97.0734C77.031 96.9344 77.3195 96.8471 77.6241 96.8117C77.9088 96.7786 78.1567 96.8035 78.3677 96.8864C78.5787 96.9692 78.7553 97.1031 78.8976 97.2879C79.0391 97.4661 79.1525 97.6911 79.2378 97.9631C79.3224 98.2285 79.3843 98.53 79.4235 98.8677L79.7757 101.897ZM83.622 101.199C83.5713 101.225 83.4927 101.271 83.3863 101.337C83.2799 101.403 83.1495 101.465 82.9952 101.523C82.8409 101.581 82.6711 101.621 82.4856 101.643C82.2936 101.665 82.1073 101.65 81.9266 101.597C81.7526 101.543 81.6075 101.45 81.4912 101.315C81.3742 101.175 81.3029 100.995 81.2775 100.776L80.8469 97.0714L80.1317 97.1545L80.0693 96.6181L80.7845 96.535L80.5813 94.7868L81.2568 94.7082L81.46 96.4565L82.652 96.3179L82.7143 96.8543L81.5223 96.9929L81.9311 100.509C81.9658 100.693 82.0482 100.824 82.1782 100.903C82.3148 100.981 82.4626 101.011 82.6215 100.993C82.8069 100.971 82.9723 100.922 83.1177 100.844C83.2623 100.76 83.3496 100.703 83.3797 100.673L83.622 101.199ZM84.4947 101.349L83.8932 96.1736L84.5687 96.0951L85.1702 101.27L84.4947 101.349ZM83.7674 95.0909L83.6519 94.0976L84.3274 94.0191L84.4428 95.0124L83.7674 95.0909ZM91.0086 100.592L90.3332 100.67L89.9972 97.7796C89.9264 97.1704 89.7854 96.7371 89.5743 96.4798C89.3624 96.2158 89.0644 96.1061 88.6803 96.1508C88.4154 96.1816 88.1616 96.2782 87.9187 96.4407C87.6751 96.5965 87.467 96.7985 87.2945 97.0468C87.1279 97.2876 87.018 97.5554 86.9651 97.8502L87.3334 101.019L86.6579 101.097L86.0564 95.9222L86.6722 95.8506L86.8085 97.0227C86.9183 96.7549 87.075 96.5152 87.2786 96.3036C87.4814 96.0854 87.7191 95.9068 87.9915 95.7678C88.2639 95.6287 88.5525 95.5415 88.8571 95.5061C89.1418 95.473 89.3897 95.4979 89.6007 95.5807C89.8116 95.6636 89.9883 95.7974 90.1306 95.9822C90.2721 96.1604 90.3855 96.3855 90.4708 96.6575C90.5553 96.9228 90.6172 97.2243 90.6565 97.5621L91.0086 100.592ZM92.1511 98.2944L91.7978 95.2549L92.4733 95.1763L92.8127 98.0967C92.8812 98.6861 93.0317 99.1149 93.2643 99.3832C93.5034 99.6507 93.8216 99.7613 94.219 99.7151C94.4839 99.6844 94.7323 99.5984 94.9642 99.4574C95.202 99.3089 95.4046 99.1176 95.572 98.8834C95.7386 98.6425 95.8551 98.3739 95.9213 98.0777L95.5426 94.8196L96.218 94.7411L96.7249 99.1017C96.7357 99.1944 96.7636 99.2616 96.8088 99.3034C96.8531 99.3385 96.9154 99.3547 96.9956 99.3521L97.058 99.8885C96.9793 99.9044 96.9168 99.915 96.8704 99.9204C96.8248 99.9324 96.7822 99.9407 96.7424 99.9453C96.6084 99.9475 96.4864 99.908 96.3763 99.8268C96.2728 99.7449 96.2101 99.6381 96.188 99.5064L96.0874 98.8134C95.9084 99.2369 95.6366 99.5839 95.2721 99.8545C94.9142 100.124 94.5101 100.285 94.0598 100.338C93.5168 100.401 93.0843 100.26 92.7623 99.9147C92.4403 99.5695 92.2365 99.0294 92.1511 98.2944ZM100.593 99.5783C100.222 99.6214 99.87 99.5919 99.536 99.4897C99.2012 99.381 98.9037 99.2176 98.6434 98.9995C98.3824 98.7748 98.1668 98.5079 97.9967 98.1988C97.8331 97.889 97.7298 97.5486 97.6867 97.1778C97.6305 96.6944 97.6882 96.238 97.8598 95.8087C98.038 95.3785 98.3086 95.0216 98.6716 94.7378C99.0338 94.4473 99.4632 94.2733 99.9599 94.2155C100.47 94.1563 100.928 94.2272 101.334 94.4283C101.746 94.6287 102.085 94.9182 102.351 95.2967C102.615 95.6687 102.775 96.093 102.831 96.5698C102.837 96.6228 102.843 96.6758 102.849 96.7287C102.855 96.7751 102.856 96.8119 102.852 96.8392L98.422 97.3541C98.4982 97.7211 98.6393 98.0403 98.8454 98.3116C99.0573 98.5756 99.3123 98.7775 99.6104 98.9173C99.9144 99.0498 100.232 99.0968 100.563 99.0583C100.901 99.019 101.209 98.896 101.487 98.6892C101.771 98.4816 101.957 98.2318 102.044 97.9398L102.648 98.0306C102.571 98.288 102.434 98.5287 102.239 98.7527C102.044 98.9768 101.803 99.1624 101.518 99.3097C101.239 99.4495 100.931 99.539 100.593 99.5783ZM98.3455 96.8697L102.17 96.4252C102.099 96.0508 101.958 95.7316 101.746 95.4676C101.541 95.2029 101.287 95.0076 100.984 94.8818C100.686 94.7486 100.369 94.7016 100.031 94.7408C99.6933 94.7801 99.395 94.8987 99.1361 95.0965C98.8764 95.2878 98.6742 95.5395 98.5292 95.8517C98.3902 96.1564 98.3289 96.4958 98.3455 96.8697ZM105.887 98.963C105.463 99.0122 105.061 98.9885 104.681 98.8918C104.3 98.7951 103.961 98.6197 103.663 98.3657L103.886 97.8566C104.209 98.0943 104.523 98.2591 104.829 98.351C105.141 98.4356 105.462 98.4586 105.793 98.4201C106.197 98.3732 106.516 98.2556 106.749 98.0674C106.982 97.8726 107.08 97.6229 107.045 97.3183C107.021 97.113 106.94 96.9647 106.802 96.8734C106.669 96.7747 106.483 96.7057 106.244 96.6664C106.01 96.6197 105.73 96.5751 105.403 96.5326C105.034 96.4748 104.721 96.4072 104.463 96.3297C104.212 96.2449 104.013 96.127 103.868 95.976C103.729 95.8177 103.644 95.6028 103.612 95.3313C103.573 94.9936 103.623 94.7058 103.764 94.4681C103.91 94.2229 104.122 94.0271 104.4 93.8806C104.684 93.7268 105.008 93.6287 105.373 93.5864C105.77 93.5402 106.128 93.5623 106.447 93.6527C106.767 93.7432 107.035 93.8898 107.254 94.0926L106.979 94.5876C106.769 94.3973 106.529 94.2674 106.259 94.1981C105.995 94.1214 105.708 94.1012 105.396 94.1373C105.184 94.162 104.986 94.2152 104.801 94.2972C104.615 94.3725 104.467 94.4836 104.356 94.6307C104.252 94.7704 104.213 94.9528 104.239 95.1779C104.26 95.3634 104.324 95.5037 104.429 95.5988C104.533 95.6874 104.682 95.7573 104.876 95.8086C105.069 95.8533 105.306 95.8996 105.587 95.9475C105.99 96.008 106.343 96.0776 106.648 96.1563C106.952 96.2284 107.193 96.3413 107.372 96.495C107.551 96.6487 107.658 96.8812 107.694 97.1924C107.751 97.6758 107.612 98.0745 107.28 98.3883C106.947 98.7022 106.483 98.8937 105.887 98.963Z" fill="white"/>
<path d="M56.5715 71.3722L60.5548 105.641" stroke="#FFC100"/>
<defs>
<filter id="filter0_dd_217_495" x="34.8179" y="34.0299" width="133.863" height="644.61" filterUnits="userSpaceOnUse" color-interpolation-filters="sRGB">
<feFlood flood-opacity="0" result="BackgroundImageFix"/>
<feColorMatrix in="SourceAlpha" type="matrix" values="0 0 0 0 0 0 0 0 0 0 0 0 0 0 0 0 0 0 127 0" result="hardAlpha"/>
<feMorphology radius="3.50755" operator="dilate" in="SourceAlpha" result="effect1_dropShadow_217_495"/>
<feOffset dx="4.20906" dy="4.20906"/>
<feGaussianBlur stdDeviation="5.26132"/>
<feColorMatrix type="matrix" values="0 0 0 0 0 0 0 0 0 0 0 0 0 0 0 0 0 0 0.1 0"/>
<feBlend mode="normal" in2="BackgroundImageFix" result="effect1_dropShadow_217_495"/>
<feColorMatrix in="SourceAlpha" type="matrix" values="0 0 0 0 0 0 0 0 0 0 0 0 0 0 0 0 0 0 127 0" result="hardAlpha"/>
<feOffset dx="4.20906" dy="4.20906"/>
<feGaussianBlur stdDeviation="3.50755"/>
<feColorMatrix type="matrix" values="0 0 0 0 0 0 0 0 0 0 0 0 0 0 0 0 0 0 0.2 0"/>
<feBlend mode="normal" in2="effect1_dropShadow_217_495" result="effect2_dropShadow_217_495"/>
<feBlend mode="normal" in="SourceGraphic" in2="effect2_dropShadow_217_495" result="shape"/>
</filter>
<filter id="filter1_d_217_495" x="44.92" y="36.2284" width="90.1103" height="112.914" filterUnits="userSpaceOnUse" color-interpolation-filters="sRGB">
<feFlood flood-opacity="0" result="BackgroundImageFix"/>
<feColorMatrix in="SourceAlpha" type="matrix" values="0 0 0 0 0 0 0 0 0 0 0 0 0 0 0 0 0 0 127 0" result="hardAlpha"/>
<feOffset dx="0.70151" dy="1.40302"/>
<feGaussianBlur stdDeviation="1.75378"/>
<feColorMatrix type="matrix" values="0 0 0 0 0.883333 0 0 0 0 0.806042 0 0 0 0 0.806042 0 0 0 0.25 0"/>
<feBlend mode="normal" in2="BackgroundImageFix" result="effect1_dropShadow_217_495"/>
<feBlend mode="normal" in="SourceGraphic" in2="effect1_dropShadow_217_495" result="shape"/>
</filter>
<linearGradient id="paint0_linear_217_495" x1="4.97044" y1="96.0312" x2="-8.57171" y2="94.792" gradientUnits="userSpaceOnUse">
<stop stop-opacity="0.2"/>
<stop offset="0.338542" stop-opacity="0"/>
<stop offset="0.630208" stop-color="white" stop-opacity="0"/>
<stop offset="1" stop-color="white" stop-opacity="0.3"/>
</linearGradient>
<linearGradient id="paint1_linear_217_495" x1="72.6379" y1="97.5258" x2="-0.354132" y2="1.40826" gradientUnits="userSpaceOnUse">
<stop stop-opacity="0.2"/>
<stop offset="0.338542" stop-opacity="0"/>
<stop offset="0.630208" stop-color="white" stop-opacity="0"/>
<stop offset="1" stop-color="white" stop-opacity="0.3"/>
</linearGradient>
<linearGradient id="paint2_linear_217_495" x1="72.6379" y1="97.5601" x2="-0.386673" y2="1.43347" gradientUnits="userSpaceOnUse">
<stop stop-opacity="0.2"/>
<stop offset="0.338542" stop-opacity="0"/>
<stop offset="0.630208" stop-color="white" stop-opacity="0"/>
<stop offset="1" stop-color="white" stop-opacity="0.3"/>
</linearGradient>
<clipPath id="clip0_217_495">
<rect width="4.97044" height="96.0312" fill="white" transform="matrix(0.624322 0.196185 0.110254 1.03645 44.639 43.8511)"/>
</clipPath>
<clipPath id="clip1_217_495">
<rect width="66.6434" height="582.253" fill="white" transform="matrix(0.624322 0.196185 0.110254 1.03645 44.639 43.8511)"/>
</clipPath>
<clipPath id="clip2_217_495">
<path d="M44.6516 43.854C46.3654 44.3925 48.0001 47.1356 48.3028 49.9807L57.7946 139.209C58.0973 142.054 56.9533 143.924 55.2395 143.385L44.6516 43.854Z" fill="white"/>
</clipPath>
<clipPath id="clip3_217_495">
<path d="M47.7261 44.9315L99.0932 40.2447C110.665 39.1889 121.063 47.7032 122.318 59.262L128.299 114.391C129.554 125.95 121.189 136.176 109.617 137.232L58.2498 141.919L47.7261 44.9315Z" fill="white"/>
</clipPath>
<clipPath id="clip4_217_495">
<path d="M47.7261 44.9315L99.0932 40.2447C110.665 39.1889 121.063 47.7032 122.318 59.262L128.303 114.425C129.557 125.984 121.193 136.21 109.621 137.266L58.2535 141.953L47.7261 44.9315Z" fill="white"/>
</clipPath>
</defs>
</svg>
