<svg width="365" height="349" viewBox="0 0 365 349" fill="none" xmlns="http://www.w3.org/2000/svg">
<path d="M93.6689 87.1849L207.524 70.3528C219.015 68.654 230.088 76.2584 232.366 87.413L264.269 243.627C266.63 255.191 258.639 266.019 246.672 267.471L127.908 281.879L93.6689 87.1849Z" fill="#D3D3D3"/>
<path d="M94.0053 87.8797L212.713 70.8711C224.479 69.1853 235.702 77.2249 237.599 88.6981L263.288 244.078C265.159 255.393 257.235 265.73 245.591 267.164L127.177 281.743L94.0053 87.8797Z" fill="#E2E2E2"/>
<path d="M92.614 86.5191L217.174 71.523C228.791 70.1244 239.701 78.1192 241.573 89.4031L267.129 243.458C269.006 254.776 261.081 265.12 249.433 266.554L126.57 281.681L92.614 86.5191Z" fill="#EDEDED"/>
<path d="M98.2124 87.7451L220.73 72.5877C232.633 71.1151 243.749 79.5081 245.273 91.1183L265.352 244.146C266.809 255.249 258.922 265.185 247.538 266.589L125.766 281.606L98.2124 87.7451Z" fill="#F5F5F5"/>
<g clip-path="url(#clip0_217_470)">
<g clip-path="url(#clip1_217_470)">
<g filter="url(#filter0_dd_217_470)">
<rect width="66.6434" height="582.253" transform="matrix(0.626174 0.187078 0.115793 1.03492 92.5757 86.4624)" fill="#FFC100"/>
</g>
</g>
</g>
<g clip-path="url(#clip2_217_470)">
<rect width="10.2775" height="189.629" transform="matrix(0.626174 0.187079 0.115793 1.03492 92.603 86.4695)" fill="url(#paint0_linear_217_470)" fill-opacity="0.5"/>
<path d="M92.6785 83.5475L115.361 286.275" stroke="white" stroke-opacity="0.16" stroke-width="1.05226"/>
<path d="M92.2798 83.4286L114.962 286.156" stroke="white" stroke-opacity="0.16" stroke-width="2.10453"/>
</g>
<g filter="url(#filter1_d_217_470)">
<g clip-path="url(#clip3_217_470)">
<rect width="149.335" height="194.141" transform="matrix(1.00434 -0.0871247 0.112417 0.98503 98.9783 88.5939)" fill="url(#paint1_linear_217_470)" fill-opacity="0.5"/>
<path d="M108.342 84.8535L130.813 281.748" stroke="white" stroke-opacity="0.16" stroke-width="1.05227"/>
<path d="M99.0571 85.6591L121.528 282.554" stroke="white" stroke-opacity="0.16" stroke-width="2.10453"/>
</g>
<g clip-path="url(#clip4_217_470)">
<rect width="149.335" height="194.209" transform="matrix(1.00434 -0.0871247 0.112417 0.98503 98.9783 88.5939)" fill="url(#paint2_linear_217_470)" fill-opacity="0.5"/>
<path d="M108.342 84.8535L130.813 281.748" stroke="white" stroke-opacity="0.16" stroke-width="1.05227"/>
<path d="M99.0571 85.6591L121.528 282.554" stroke="white" stroke-opacity="0.16" stroke-width="2.10453"/>
</g>
</g>
<rect x="0.552351" y="0.438362" width="150.55" height="196.527" transform="matrix(0.993128 -0.117032 0.111573 0.993756 98.9564 88.4209)" fill="#2F3234" stroke="white"/>
<path d="M143.317 263.016L142.911 259.402L144.131 259.258C144.415 259.225 144.652 259.249 144.843 259.33C145.036 259.41 145.185 259.531 145.292 259.694C145.398 259.856 145.463 260.044 145.487 260.257C145.511 260.47 145.489 260.669 145.422 260.853C145.356 261.037 145.238 261.192 145.07 261.316C144.902 261.44 144.677 261.518 144.396 261.551L143.521 261.654L143.478 261.266L144.338 261.165C144.532 261.142 144.684 261.09 144.794 261.009C144.904 260.928 144.979 260.828 145.02 260.707C145.061 260.586 145.073 260.453 145.057 260.308C145.041 260.163 144.999 260.037 144.932 259.929C144.866 259.821 144.771 259.742 144.645 259.691C144.519 259.64 144.357 259.625 144.161 259.648L143.392 259.739L143.754 262.964L143.317 263.016ZM147.217 262.621C147.045 262.641 146.886 262.627 146.739 262.579C146.591 262.529 146.47 262.448 146.373 262.334C146.277 262.219 146.219 262.073 146.199 261.897C146.182 261.741 146.198 261.612 146.249 261.508C146.299 261.404 146.372 261.317 146.468 261.25C146.564 261.183 146.672 261.128 146.793 261.087C146.914 261.044 147.037 261.007 147.161 260.975C147.323 260.935 147.454 260.903 147.556 260.881C147.658 260.857 147.731 260.828 147.775 260.796C147.82 260.763 147.839 260.713 147.831 260.646L147.83 260.632C147.81 260.458 147.747 260.328 147.641 260.243C147.536 260.158 147.388 260.126 147.196 260.149C146.998 260.172 146.847 260.234 146.744 260.334C146.641 260.435 146.572 260.537 146.537 260.641L146.126 260.547C146.178 260.374 146.258 260.234 146.365 260.129C146.473 260.022 146.596 259.942 146.731 259.889C146.868 259.835 147.005 259.799 147.141 259.783C147.228 259.773 147.329 259.772 147.444 259.78C147.561 259.786 147.675 259.815 147.788 259.866C147.902 259.917 148.002 260.003 148.087 260.122C148.172 260.242 148.226 260.41 148.251 260.625L148.451 262.411L148.035 262.46L147.994 262.093L147.972 262.095C147.951 262.158 147.911 262.226 147.853 262.301C147.794 262.376 147.713 262.443 147.609 262.503C147.505 262.563 147.374 262.602 147.217 262.621ZM147.238 262.239C147.403 262.22 147.538 262.171 147.643 262.093C147.75 262.015 147.827 261.921 147.873 261.812C147.92 261.703 147.937 261.592 147.925 261.479L147.882 261.098C147.867 261.121 147.83 261.145 147.772 261.17C147.715 261.193 147.649 261.216 147.572 261.238C147.497 261.259 147.424 261.278 147.352 261.296C147.281 261.313 147.224 261.327 147.18 261.338C147.073 261.365 146.975 261.4 146.884 261.442C146.795 261.484 146.725 261.539 146.674 261.608C146.625 261.676 146.606 261.763 146.618 261.869C146.634 262.014 146.7 262.117 146.815 262.178C146.931 262.238 147.072 262.259 147.238 262.239ZM149.211 262.321L148.906 259.611L149.308 259.564L149.354 259.973L149.383 259.97C149.417 259.83 149.494 259.711 149.614 259.612C149.734 259.513 149.875 259.454 150.037 259.435C150.068 259.431 150.106 259.427 150.152 259.423C150.198 259.419 150.233 259.417 150.257 259.416L150.304 259.84C150.29 259.838 150.257 259.836 150.205 259.835C150.155 259.833 150.102 259.835 150.047 259.841C149.915 259.857 149.801 259.898 149.704 259.966C149.607 260.032 149.535 260.117 149.486 260.22C149.438 260.323 149.42 260.435 149.434 260.557L149.627 262.272L149.211 262.321ZM152.102 259.235L152.141 259.587L150.737 259.753L150.698 259.4L152.102 259.235ZM151.034 258.702L151.45 258.653L151.74 261.237C151.753 261.354 151.78 261.44 151.821 261.495C151.863 261.549 151.912 261.582 151.968 261.596C152.026 261.608 152.085 261.611 152.146 261.604C152.192 261.598 152.229 261.591 152.258 261.583C152.287 261.574 152.31 261.566 152.327 261.561L152.454 261.925C152.427 261.939 152.388 261.954 152.339 261.971C152.29 261.988 152.226 262.002 152.149 262.011C152.031 262.025 151.913 262.013 151.795 261.976C151.677 261.938 151.576 261.872 151.49 261.777C151.406 261.683 151.354 261.556 151.337 261.399L151.034 258.702ZM155.647 261.613C155.414 261.64 155.202 261.625 155.011 261.566C154.821 261.508 154.665 261.413 154.542 261.284C154.42 261.153 154.344 260.993 154.313 260.805L154.757 260.752C154.78 260.868 154.831 260.964 154.911 261.04C154.991 261.115 155.09 261.169 155.21 261.201C155.329 261.234 155.458 261.242 155.596 261.226C155.752 261.207 155.886 261.164 156 261.096C156.114 261.028 156.199 260.941 156.257 260.837C156.314 260.732 156.336 260.616 156.321 260.489C156.306 260.356 156.26 260.243 156.183 260.15C156.106 260.055 156.001 259.987 155.867 259.944C155.734 259.901 155.575 259.891 155.392 259.912L155.103 259.946L155.059 259.558L155.348 259.524C155.492 259.507 155.615 259.467 155.717 259.402C155.82 259.337 155.897 259.254 155.948 259.153C156 259.052 156.019 258.937 156.004 258.81C155.991 258.688 155.952 258.585 155.887 258.501C155.823 258.416 155.739 258.355 155.634 258.316C155.531 258.277 155.413 258.265 155.28 258.281C155.156 258.295 155.041 258.332 154.935 258.391C154.831 258.449 154.749 258.525 154.689 258.619C154.629 258.711 154.603 258.818 154.611 258.939L154.188 258.989C154.173 258.799 154.212 258.626 154.303 258.471C154.394 258.315 154.521 258.187 154.685 258.086C154.85 257.986 155.036 257.923 155.244 257.899C155.468 257.872 155.664 257.895 155.835 257.967C156.004 258.037 156.141 258.141 156.243 258.278C156.345 258.415 156.406 258.569 156.425 258.739C156.448 258.943 156.414 259.123 156.323 259.279C156.233 259.435 156.101 259.551 155.925 259.628L155.928 259.656C156.16 259.667 156.349 259.743 156.495 259.884C156.64 260.025 156.726 260.209 156.752 260.439C156.774 260.635 156.74 260.818 156.651 260.987C156.562 261.155 156.431 261.294 156.258 261.405C156.085 261.516 155.881 261.585 155.647 261.613ZM160.093 261.096C159.849 261.125 159.628 261.092 159.43 260.997C159.234 260.902 159.072 260.756 158.945 260.559C158.819 260.362 158.741 260.123 158.709 259.843C158.677 259.561 158.701 259.309 158.78 259.086C158.859 258.863 158.984 258.683 159.155 258.545C159.326 258.406 159.534 258.323 159.779 258.294C160.023 258.265 160.244 258.298 160.44 258.393C160.638 258.488 160.8 258.634 160.926 258.833C161.053 259.031 161.132 259.272 161.164 259.554C161.195 259.834 161.171 260.085 161.091 260.306C161.012 260.528 160.887 260.708 160.716 260.846C160.545 260.984 160.338 261.067 160.093 261.096ZM160.051 260.722C160.237 260.7 160.385 260.635 160.494 260.525C160.603 260.416 160.678 260.28 160.718 260.118C160.758 259.956 160.768 259.784 160.748 259.603C160.727 259.422 160.68 259.257 160.604 259.107C160.529 258.957 160.426 258.841 160.295 258.759C160.165 258.677 160.007 258.646 159.821 258.668C159.635 258.69 159.488 258.756 159.379 258.867C159.269 258.978 159.195 259.114 159.155 259.278C159.115 259.441 159.105 259.613 159.125 259.794C159.146 259.975 159.193 260.14 159.268 260.289C159.343 260.437 159.446 260.552 159.577 260.633C159.707 260.714 159.866 260.744 160.051 260.722ZM162.851 257.968L162.891 258.321L161.431 258.493L161.391 258.14L162.851 257.968ZM162.133 260.799L161.787 257.714C161.769 257.559 161.791 257.425 161.852 257.313C161.914 257.201 162 257.112 162.11 257.047C162.221 256.981 162.341 256.941 162.47 256.926C162.572 256.914 162.657 256.912 162.723 256.921C162.79 256.93 162.84 256.939 162.873 256.95L162.793 257.324C162.771 257.319 162.741 257.314 162.702 257.308C162.665 257.302 162.616 257.302 162.556 257.309C162.418 257.325 162.323 257.372 162.27 257.448C162.217 257.525 162.199 257.63 162.214 257.764L162.549 260.75L162.133 260.799ZM166.009 257.596L166.049 257.949L164.645 258.114L164.606 257.761L166.009 257.596ZM164.942 257.064L165.358 257.015L165.648 259.598C165.661 259.715 165.688 259.802 165.729 259.856C165.771 259.91 165.82 259.943 165.876 259.957C165.933 259.969 165.992 259.972 166.054 259.965C166.099 259.959 166.137 259.953 166.166 259.944C166.194 259.935 166.217 259.928 166.235 259.922L166.361 260.286C166.334 260.3 166.296 260.315 166.247 260.332C166.197 260.349 166.134 260.363 166.056 260.372C165.939 260.386 165.821 260.374 165.702 260.337C165.585 260.299 165.483 260.233 165.398 260.139C165.313 260.044 165.262 259.917 165.244 259.76L164.942 257.064ZM167.231 258.546L167.414 260.176L166.998 260.225L166.592 256.612L167.008 256.563L167.157 257.89L167.192 257.885C167.24 257.738 167.323 257.616 167.441 257.518C167.559 257.42 167.725 257.358 167.938 257.333C168.122 257.311 168.288 257.329 168.435 257.387C168.582 257.443 168.702 257.543 168.796 257.686C168.89 257.827 168.951 258.014 168.977 258.247L169.17 259.969L168.754 260.018L168.564 258.324C168.54 258.109 168.465 257.949 168.34 257.845C168.216 257.739 168.056 257.698 167.86 257.721C167.724 257.737 167.605 257.78 167.503 257.851C167.402 257.921 167.327 258.015 167.277 258.133C167.229 258.251 167.213 258.388 167.231 258.546ZM171.073 259.802C170.812 259.833 170.581 259.802 170.379 259.709C170.177 259.615 170.014 259.469 169.888 259.273C169.764 259.076 169.686 258.838 169.655 258.561C169.624 258.283 169.647 258.032 169.724 257.809C169.802 257.584 169.926 257.401 170.095 257.261C170.265 257.119 170.472 257.034 170.716 257.005C170.858 256.989 171 256.996 171.142 257.027C171.285 257.057 171.419 257.119 171.544 257.212C171.668 257.303 171.774 257.431 171.86 257.596C171.947 257.761 172.004 257.97 172.032 258.223L172.052 258.4L169.964 258.646L169.924 258.286L171.589 258.09C171.571 257.937 171.526 257.804 171.451 257.691C171.378 257.578 171.281 257.494 171.162 257.437C171.043 257.381 170.909 257.362 170.758 257.379C170.593 257.399 170.454 257.457 170.342 257.554C170.231 257.649 170.151 257.766 170.101 257.904C170.051 258.042 170.034 258.186 170.051 258.335L170.078 258.575C170.101 258.78 170.156 258.949 170.242 259.083C170.33 259.216 170.441 259.312 170.577 259.371C170.712 259.429 170.863 259.448 171.031 259.428C171.141 259.415 171.238 259.388 171.322 259.347C171.408 259.305 171.48 259.249 171.538 259.179C171.595 259.108 171.636 259.023 171.661 258.925L172.076 258.99C172.049 259.132 171.991 259.26 171.903 259.376C171.814 259.49 171.7 259.584 171.559 259.659C171.419 259.733 171.257 259.781 171.073 259.802ZM174.275 259.368L173.869 255.754L174.285 255.705L174.435 257.039L174.47 257.035C174.495 256.984 174.531 256.919 174.577 256.84C174.624 256.759 174.695 256.684 174.791 256.614C174.888 256.543 175.024 256.498 175.201 256.477C175.429 256.45 175.636 256.483 175.823 256.577C176.01 256.67 176.164 256.816 176.285 257.014C176.406 257.212 176.482 257.453 176.514 257.738C176.547 258.025 176.526 258.28 176.452 258.502C176.378 258.722 176.261 258.901 176.101 259.036C175.941 259.171 175.748 259.251 175.522 259.278C175.348 259.298 175.206 259.286 175.095 259.241C174.984 259.194 174.896 259.137 174.831 259.07C174.766 259.001 174.715 258.944 174.679 258.898L174.63 258.904L174.677 259.32L174.275 259.368ZM174.532 257.964C174.555 258.169 174.605 258.346 174.682 258.496C174.76 258.644 174.861 258.755 174.986 258.83C175.111 258.903 175.257 258.93 175.424 258.911C175.598 258.89 175.738 258.827 175.844 258.722C175.951 258.615 176.025 258.48 176.067 258.316C176.109 258.152 176.119 257.973 176.097 257.78C176.076 257.589 176.027 257.421 175.951 257.275C175.877 257.128 175.775 257.016 175.648 256.941C175.521 256.864 175.37 256.836 175.193 256.857C175.024 256.877 174.887 256.936 174.781 257.036C174.675 257.134 174.602 257.263 174.56 257.423C174.518 257.582 174.509 257.762 174.532 257.964ZM178.444 258.934C178.183 258.964 177.952 258.933 177.749 258.84C177.548 258.746 177.385 258.601 177.259 258.405C177.135 258.207 177.057 257.97 177.026 257.692C176.994 257.414 177.018 257.164 177.095 256.94C177.173 256.715 177.297 256.533 177.466 256.392C177.636 256.251 177.843 256.165 178.087 256.137C178.228 256.12 178.37 256.127 178.513 256.158C178.656 256.189 178.79 256.251 178.915 256.343C179.039 256.434 179.145 256.563 179.231 256.728C179.318 256.893 179.375 257.102 179.403 257.355L179.423 257.531L177.335 257.777L177.295 257.417L178.96 257.221C178.942 257.068 178.896 256.935 178.822 256.822C178.748 256.709 178.652 256.625 178.533 256.569C178.414 256.512 178.28 256.493 178.129 256.511C177.964 256.53 177.825 256.588 177.713 256.685C177.602 256.78 177.522 256.897 177.472 257.035C177.422 257.173 177.405 257.317 177.422 257.467L177.449 257.706C177.472 257.911 177.527 258.081 177.613 258.215C177.701 258.347 177.812 258.443 177.947 258.502C178.083 258.56 178.234 258.579 178.402 258.56C178.512 258.547 178.609 258.52 178.693 258.479C178.779 258.436 178.851 258.38 178.909 258.31C178.966 258.239 179.007 258.155 179.032 258.056L179.447 258.122C179.42 258.263 179.362 258.392 179.274 258.507C179.185 258.621 179.071 258.716 178.93 258.791C178.79 258.864 178.628 258.912 178.444 258.934ZM181.875 256.341L181.513 256.491C181.482 256.431 181.441 256.375 181.388 256.322C181.337 256.267 181.27 256.225 181.188 256.195C181.107 256.165 181.005 256.158 180.884 256.172C180.718 256.191 180.584 256.246 180.482 256.335C180.382 256.423 180.338 256.526 180.351 256.642C180.362 256.746 180.409 256.823 180.491 256.874C180.573 256.925 180.696 256.961 180.861 256.983L181.274 257.034C181.523 257.064 181.713 257.133 181.845 257.24C181.978 257.346 182.054 257.494 182.076 257.683C182.093 257.839 182.064 257.983 181.988 258.116C181.914 258.248 181.801 258.359 181.651 258.449C181.5 258.538 181.319 258.595 181.109 258.62C180.832 258.652 180.597 258.619 180.403 258.521C180.208 258.422 180.074 258.26 180 258.035L180.384 257.89C180.438 258.031 180.521 258.132 180.634 258.193C180.748 258.253 180.89 258.274 181.06 258.253C181.254 258.231 181.404 258.171 181.509 258.076C181.614 257.978 181.661 257.872 181.648 257.755C181.637 257.661 181.595 257.586 181.522 257.53C181.449 257.473 181.343 257.437 181.203 257.421L180.74 257.369C180.485 257.339 180.292 257.269 180.162 257.16C180.033 257.049 179.958 256.899 179.937 256.712C179.92 256.56 179.947 256.419 180.02 256.291C180.094 256.164 180.202 256.057 180.343 255.973C180.486 255.888 180.653 255.834 180.844 255.812C181.112 255.78 181.329 255.814 181.495 255.914C181.662 256.013 181.789 256.156 181.875 256.341ZM183.66 255.516L183.7 255.869L182.296 256.034L182.257 255.681L183.66 255.516ZM182.593 254.984L183.009 254.934L183.299 257.518C183.312 257.635 183.339 257.722 183.38 257.776C183.422 257.83 183.471 257.863 183.527 257.877C183.585 257.889 183.644 257.892 183.705 257.885C183.751 257.879 183.788 257.872 183.817 257.864C183.846 257.855 183.869 257.847 183.886 257.842L184.013 258.206C183.986 258.22 183.947 258.235 183.898 258.252C183.849 258.269 183.785 258.283 183.708 258.292C183.59 258.306 183.472 258.294 183.354 258.257C183.236 258.219 183.135 258.153 183.049 258.058C182.965 257.964 182.913 257.837 182.896 257.68L182.593 254.984ZM186.225 255.828L185.863 255.978C185.832 255.919 185.791 255.862 185.738 255.809C185.687 255.754 185.62 255.712 185.538 255.682C185.456 255.653 185.355 255.645 185.234 255.659C185.068 255.679 184.934 255.733 184.832 255.823C184.731 255.911 184.687 256.013 184.7 256.13C184.712 256.233 184.759 256.31 184.841 256.362C184.923 256.413 185.046 256.449 185.21 256.47L185.624 256.521C185.872 256.552 186.063 256.62 186.195 256.728C186.327 256.834 186.404 256.981 186.425 257.171C186.443 257.326 186.414 257.47 186.338 257.603C186.264 257.736 186.151 257.847 186 257.936C185.85 258.025 185.669 258.082 185.459 258.107C185.182 258.14 184.947 258.107 184.752 258.008C184.558 257.909 184.424 257.748 184.349 257.523L184.733 257.377C184.787 257.519 184.871 257.62 184.984 257.68C185.098 257.741 185.24 257.761 185.41 257.741C185.604 257.718 185.754 257.659 185.858 257.563C185.964 257.466 186.011 257.359 185.998 257.243C185.987 257.148 185.945 257.074 185.872 257.018C185.799 256.961 185.693 256.925 185.553 256.909L185.089 256.856C184.835 256.827 184.642 256.757 184.512 256.647C184.383 256.536 184.308 256.387 184.287 256.2C184.27 256.047 184.297 255.907 184.37 255.779C184.444 255.651 184.551 255.545 184.693 255.46C184.836 255.375 185.003 255.322 185.193 255.299C185.461 255.268 185.678 255.302 185.844 255.401C186.012 255.501 186.138 255.643 186.225 255.828ZM188.279 257.775C188.018 257.805 187.786 257.774 187.584 257.681C187.383 257.587 187.219 257.442 187.094 257.246C186.969 257.048 186.891 256.811 186.86 256.533C186.829 256.256 186.852 256.005 186.929 255.781C187.007 255.556 187.131 255.374 187.3 255.233C187.47 255.092 187.677 255.007 187.922 254.978C188.063 254.961 188.205 254.968 188.347 254.999C188.49 255.03 188.624 255.092 188.749 255.184C188.873 255.276 188.979 255.404 189.065 255.569C189.152 255.734 189.209 255.943 189.238 256.196L189.257 256.372L187.17 256.618L187.129 256.258L188.794 256.062C188.777 255.909 188.731 255.776 188.656 255.664C188.583 255.551 188.486 255.466 188.367 255.41C188.249 255.353 188.114 255.334 187.964 255.352C187.798 255.371 187.659 255.429 187.547 255.526C187.436 255.621 187.356 255.738 187.306 255.876C187.256 256.014 187.239 256.158 187.256 256.308L187.283 256.548C187.306 256.752 187.361 256.922 187.447 257.056C187.535 257.188 187.646 257.284 187.782 257.343C187.917 257.401 188.068 257.42 188.237 257.401C188.346 257.388 188.443 257.361 188.528 257.32C188.613 257.278 188.685 257.221 188.743 257.152C188.8 257.08 188.841 256.996 188.866 256.897L189.281 256.963C189.254 257.104 189.196 257.233 189.108 257.348C189.019 257.462 188.905 257.557 188.765 257.632C188.624 257.705 188.462 257.753 188.279 257.775ZM190.037 253.849L190.443 257.462L190.027 257.512L189.621 253.898L190.037 253.849ZM191.216 253.71L191.621 257.324L191.205 257.373L190.799 253.759L191.216 253.71ZM192.384 257.234L192.079 254.524L192.495 254.475L192.8 257.185L192.384 257.234ZM192.24 254.047C192.159 254.056 192.086 254.037 192.021 253.989C191.957 253.94 191.921 253.877 191.912 253.8C191.903 253.722 191.925 253.652 191.976 253.59C192.029 253.528 192.096 253.492 192.177 253.482C192.258 253.473 192.33 253.492 192.394 253.541C192.459 253.589 192.496 253.652 192.505 253.73C192.513 253.807 192.491 253.877 192.439 253.939C192.387 254.002 192.321 254.037 192.24 254.047ZM193.795 255.416L193.978 257.046L193.562 257.095L193.258 254.385L193.66 254.337L193.707 254.761L193.742 254.757C193.79 254.612 193.874 254.49 193.994 254.391C194.114 254.291 194.276 254.229 194.481 254.205C194.664 254.183 194.829 254.202 194.975 254.261C195.121 254.319 195.241 254.419 195.334 254.562C195.427 254.703 195.487 254.89 195.513 255.12L195.706 256.842L195.29 256.891L195.1 255.197C195.076 254.984 195.002 254.825 194.878 254.719C194.754 254.612 194.596 254.57 194.403 254.593C194.27 254.609 194.155 254.651 194.057 254.721C193.96 254.791 193.887 254.885 193.84 255.003C193.792 255.12 193.777 255.258 193.795 255.416ZM197.68 257.697C197.479 257.72 197.304 257.715 197.153 257.68C197.003 257.647 196.875 257.594 196.769 257.522C196.665 257.45 196.579 257.371 196.512 257.284L196.817 257.012C196.86 257.057 196.914 257.107 196.979 257.164C197.044 257.222 197.129 257.269 197.234 257.304C197.341 257.34 197.476 257.349 197.639 257.33C197.858 257.304 198.032 257.23 198.163 257.107C198.293 256.984 198.346 256.81 198.32 256.584L198.258 256.034L198.223 256.038C198.198 256.091 198.161 256.157 198.113 256.237C198.066 256.315 197.993 256.389 197.895 256.457C197.798 256.525 197.661 256.569 197.485 256.59C197.266 256.616 197.064 256.587 196.878 256.504C196.694 256.421 196.54 256.286 196.417 256.101C196.295 255.915 196.218 255.681 196.186 255.398C196.155 255.121 196.176 254.873 196.251 254.656C196.325 254.437 196.443 254.261 196.604 254.128C196.765 253.993 196.96 253.913 197.188 253.886C197.364 253.865 197.508 253.878 197.618 253.925C197.729 253.97 197.816 254.026 197.88 254.094C197.944 254.16 197.995 254.215 198.03 254.258L198.073 254.253L198.024 253.823L198.426 253.776L198.739 256.563C198.766 256.796 198.734 256.992 198.645 257.15C198.556 257.31 198.427 257.434 198.258 257.523C198.089 257.613 197.897 257.671 197.68 257.697ZM197.499 256.209C197.666 256.189 197.803 256.135 197.909 256.044C198.016 255.954 198.091 255.834 198.135 255.684C198.179 255.533 198.19 255.358 198.167 255.158C198.145 254.962 198.096 254.794 198.021 254.651C197.945 254.509 197.845 254.402 197.721 254.331C197.596 254.26 197.449 254.234 197.28 254.254C197.103 254.275 196.961 254.337 196.854 254.44C196.747 254.543 196.673 254.673 196.631 254.831C196.591 254.988 196.581 255.159 196.601 255.342C196.622 255.53 196.67 255.693 196.745 255.831C196.822 255.968 196.922 256.07 197.048 256.139C197.175 256.206 197.325 256.23 197.499 256.209ZM202.572 253.902L202.21 254.052C202.179 253.992 202.138 253.936 202.085 253.883C202.034 253.828 201.967 253.786 201.885 253.756C201.803 253.726 201.702 253.719 201.581 253.733C201.415 253.752 201.281 253.807 201.179 253.896C201.078 253.985 201.034 254.087 201.047 254.203C201.059 254.307 201.106 254.384 201.188 254.435C201.27 254.486 201.393 254.523 201.557 254.544L201.97 254.595C202.219 254.625 202.41 254.694 202.542 254.801C202.674 254.907 202.751 255.055 202.772 255.244C202.79 255.4 202.761 255.544 202.685 255.677C202.611 255.809 202.498 255.92 202.347 256.01C202.196 256.099 202.016 256.156 201.805 256.181C201.529 256.213 201.294 256.18 201.099 256.082C200.905 255.983 200.77 255.821 200.696 255.596L201.08 255.451C201.134 255.592 201.218 255.693 201.33 255.754C201.444 255.814 201.587 255.835 201.757 255.815C201.951 255.792 202.1 255.732 202.205 255.637C202.311 255.539 202.357 255.433 202.344 255.316C202.334 255.222 202.292 255.147 202.219 255.091C202.146 255.035 202.039 254.998 201.9 254.983L201.436 254.93C201.182 254.9 200.989 254.831 200.859 254.721C200.73 254.61 200.655 254.461 200.634 254.274C200.616 254.121 200.644 253.98 200.717 253.853C200.791 253.725 200.898 253.618 201.04 253.534C201.183 253.449 201.35 253.395 201.54 253.373C201.808 253.341 202.025 253.375 202.191 253.475C202.358 253.574 202.485 253.717 202.572 253.902ZM204.625 255.848C204.364 255.879 204.133 255.848 203.931 255.755C203.729 255.661 203.566 255.516 203.44 255.319C203.316 255.122 203.238 254.884 203.207 254.607C203.176 254.329 203.199 254.079 203.276 253.855C203.354 253.63 203.478 253.447 203.647 253.307C203.817 253.165 204.024 253.08 204.269 253.051C204.41 253.035 204.552 253.042 204.694 253.073C204.837 253.104 204.971 253.165 205.096 253.258C205.22 253.349 205.326 253.477 205.412 253.642C205.499 253.807 205.556 254.016 205.584 254.269L205.604 254.446L203.516 254.692L203.476 254.332L205.141 254.136C205.123 253.983 205.078 253.85 205.003 253.737C204.93 253.624 204.833 253.54 204.714 253.483C204.595 253.427 204.461 253.408 204.311 253.425C204.145 253.445 204.006 253.503 203.894 253.6C203.783 253.695 203.703 253.812 203.653 253.95C203.603 254.088 203.586 254.232 203.603 254.381L203.63 254.621C203.653 254.826 203.708 254.995 203.794 255.129C203.882 255.262 203.993 255.358 204.129 255.417C204.264 255.475 204.415 255.494 204.583 255.474C204.693 255.461 204.79 255.435 204.875 255.394C204.96 255.351 205.032 255.295 205.09 255.225C205.147 255.154 205.188 255.069 205.213 254.971L205.628 255.037C205.601 255.178 205.543 255.306 205.455 255.422C205.366 255.536 205.252 255.63 205.111 255.705C204.971 255.779 204.809 255.827 204.625 255.848ZM206.374 255.585L206.069 252.875L206.471 252.828L206.517 253.237L206.546 253.234C206.58 253.094 206.657 252.974 206.777 252.876C206.897 252.777 207.038 252.718 207.2 252.699C207.231 252.695 207.269 252.691 207.315 252.687C207.361 252.683 207.396 252.68 207.42 252.68L207.467 253.104C207.453 253.102 207.42 253.1 207.368 253.099C207.318 253.097 207.265 253.099 207.21 253.105C207.078 253.121 206.964 253.162 206.867 253.23C206.771 253.296 206.698 253.381 206.649 253.484C206.601 253.586 206.583 253.699 206.597 253.821L206.79 255.536L206.374 255.585ZM208.221 255.367L207.917 252.657L208.333 252.608L208.637 255.318L208.221 255.367ZM208.078 252.181C207.997 252.19 207.924 252.171 207.859 252.122C207.795 252.074 207.759 252.011 207.75 251.933C207.741 251.856 207.762 251.786 207.814 251.724C207.866 251.661 207.933 251.625 208.014 251.616C208.096 251.606 208.168 251.626 208.232 251.674C208.297 251.723 208.334 251.786 208.342 251.863C208.351 251.941 208.329 252.011 208.277 252.073C208.225 252.135 208.159 252.171 208.078 252.181ZM210.542 255.151C210.281 255.182 210.049 255.151 209.847 255.058C209.646 254.964 209.482 254.818 209.357 254.622C209.232 254.425 209.154 254.187 209.123 253.91C209.092 253.632 209.115 253.381 209.192 253.158C209.27 252.933 209.394 252.75 209.563 252.61C209.733 252.468 209.94 252.383 210.185 252.354C210.326 252.338 210.468 252.345 210.61 252.376C210.753 252.406 210.887 252.468 211.012 252.561C211.136 252.652 211.242 252.78 211.328 252.945C211.415 253.11 211.472 253.319 211.501 253.572L211.52 253.749L209.433 253.995L209.392 253.635L211.057 253.439C211.04 253.286 210.994 253.153 210.919 253.04C210.846 252.927 210.749 252.843 210.63 252.786C210.511 252.73 210.377 252.711 210.227 252.728C210.061 252.748 209.922 252.806 209.81 252.903C209.699 252.998 209.619 253.115 209.569 253.253C209.519 253.391 209.502 253.535 209.519 253.684L209.546 253.924C209.569 254.129 209.624 254.298 209.71 254.432C209.798 254.565 209.909 254.661 210.045 254.72C210.18 254.778 210.331 254.797 210.5 254.777C210.609 254.764 210.706 254.737 210.791 254.696C210.876 254.654 210.948 254.598 211.006 254.528C211.063 254.457 211.104 254.372 211.129 254.274L211.544 254.339C211.517 254.481 211.459 254.609 211.371 254.725C211.282 254.839 211.168 254.933 211.028 255.008C210.887 255.082 210.725 255.13 210.542 255.151ZM213.972 252.559L213.61 252.709C213.58 252.649 213.538 252.593 213.486 252.539C213.434 252.484 213.368 252.442 213.286 252.413C213.204 252.383 213.102 252.375 212.981 252.389C212.815 252.409 212.682 252.463 212.58 252.553C212.479 252.641 212.435 252.743 212.448 252.86C212.46 252.963 212.506 253.041 212.588 253.092C212.67 253.143 212.793 253.179 212.958 253.2L213.371 253.252C213.62 253.282 213.81 253.351 213.943 253.458C214.075 253.564 214.152 253.712 214.173 253.901C214.19 254.056 214.161 254.2 214.086 254.333C214.011 254.466 213.899 254.577 213.748 254.666C213.597 254.755 213.416 254.812 213.206 254.837C212.93 254.87 212.694 254.837 212.5 254.738C212.305 254.639 212.171 254.478 212.097 254.253L212.481 254.107C212.535 254.249 212.618 254.35 212.731 254.411C212.845 254.471 212.987 254.491 213.158 254.471C213.352 254.448 213.501 254.389 213.606 254.293C213.712 254.196 213.758 254.089 213.745 253.973C213.734 253.879 213.693 253.804 213.62 253.748C213.547 253.691 213.44 253.655 213.3 253.639L212.837 253.586C212.582 253.557 212.39 253.487 212.259 253.377C212.13 253.266 212.055 253.117 212.034 252.93C212.017 252.777 212.045 252.637 212.117 252.509C212.191 252.381 212.299 252.275 212.441 252.19C212.584 252.105 212.75 252.052 212.941 252.029C213.209 251.998 213.426 252.032 213.592 252.131C213.759 252.231 213.886 252.373 213.972 252.559ZM215.861 251.95L215.825 251.632C215.814 251.536 215.82 251.432 215.842 251.319C215.865 251.206 215.903 251.095 215.958 250.986C216.013 250.875 216.084 250.777 216.17 250.691L216.416 250.848C216.354 250.962 216.301 251.08 216.259 251.202C216.218 251.323 216.205 251.448 216.219 251.579L216.256 251.903L215.861 251.95ZM216.764 251.844L216.728 251.526C216.717 251.429 216.723 251.325 216.745 251.213C216.767 251.099 216.806 250.988 216.861 250.879C216.916 250.769 216.987 250.671 217.072 250.584L217.319 250.741C217.257 250.856 217.204 250.974 217.162 251.096C217.121 251.216 217.107 251.342 217.122 251.472L217.158 251.797L216.764 251.844ZM218.884 254.111L217.491 250.614L217.935 250.561L219.021 253.415L219.056 253.411L219.494 250.378L219.988 250.319L221.087 253.172L221.123 253.168L221.547 250.136L221.991 250.083L221.409 253.813L220.958 253.867L219.838 251.081L219.809 251.084L219.336 254.058L218.884 254.111ZM223.118 251.96L223.302 253.59L222.885 253.639L222.48 250.026L222.896 249.977L223.045 251.304L223.08 251.299C223.128 251.152 223.211 251.03 223.328 250.932C223.447 250.834 223.613 250.772 223.826 250.747C224.01 250.725 224.176 250.743 224.323 250.801C224.47 250.857 224.59 250.957 224.684 251.1C224.778 251.241 224.838 251.428 224.864 251.661L225.058 253.383L224.642 253.432L224.451 251.739C224.427 251.523 224.353 251.363 224.228 251.259C224.104 251.153 223.944 251.112 223.748 251.135C223.611 251.151 223.492 251.194 223.391 251.265C223.29 251.335 223.215 251.429 223.165 251.547C223.116 251.665 223.101 251.802 223.118 251.96ZM226.104 254.29C226.034 254.298 225.97 254.3 225.914 254.294C225.857 254.29 225.818 254.284 225.795 254.276L225.86 253.897C225.964 253.911 226.054 253.91 226.131 253.893C226.208 253.877 226.273 253.834 226.326 253.765C226.38 253.697 226.425 253.591 226.46 253.447L226.514 253.226L225.206 250.62L225.658 250.567L226.648 252.638L226.676 252.635L227.181 250.387L227.633 250.334L226.832 253.575C226.796 253.721 226.745 253.844 226.678 253.945C226.612 254.047 226.531 254.126 226.435 254.183C226.34 254.239 226.23 254.275 226.104 254.29ZM230.265 253.8C230.194 253.808 230.131 253.809 230.074 253.804C230.018 253.8 229.978 253.794 229.956 253.786L230.021 253.406C230.125 253.42 230.215 253.419 230.292 253.403C230.369 253.387 230.434 253.344 230.487 253.275C230.541 253.206 230.585 253.1 230.621 252.957L230.674 252.736L229.367 250.13L229.818 250.076L230.809 252.148L230.837 252.145L231.342 249.897L231.793 249.844L230.992 253.085C230.956 253.231 230.905 253.354 230.839 253.455C230.773 253.557 230.692 253.636 230.596 253.693C230.501 253.749 230.391 253.785 230.265 253.8ZM233.657 252.427C233.412 252.456 233.191 252.423 232.993 252.328C232.797 252.234 232.635 252.088 232.508 251.89C232.382 251.693 232.304 251.454 232.272 251.174C232.241 250.892 232.264 250.64 232.343 250.417C232.423 250.194 232.548 250.014 232.718 249.876C232.889 249.738 233.097 249.654 233.342 249.625C233.587 249.597 233.807 249.63 234.003 249.724C234.201 249.819 234.363 249.966 234.489 250.164C234.616 250.363 234.695 250.603 234.727 250.885C234.758 251.165 234.734 251.416 234.654 251.638C234.575 251.859 234.45 252.039 234.279 252.177C234.109 252.315 233.901 252.398 233.657 252.427ZM233.615 252.053C233.8 252.031 233.948 251.966 234.057 251.856C234.166 251.747 234.241 251.611 234.281 251.449C234.321 251.287 234.331 251.115 234.311 250.934C234.291 250.753 234.243 250.588 234.168 250.438C234.092 250.288 233.989 250.172 233.859 250.09C233.728 250.008 233.57 249.977 233.384 249.999C233.198 250.021 233.051 250.088 232.942 250.198C232.833 250.309 232.758 250.446 232.718 250.609C232.678 250.772 232.668 250.944 232.689 251.125C232.709 251.307 232.757 251.471 232.832 251.62C232.907 251.768 233.009 251.883 233.14 251.964C233.271 252.045 233.429 252.075 233.615 252.053ZM237.095 250.842L236.915 249.24L237.332 249.191L237.636 251.901L237.22 251.95L237.168 251.491L237.14 251.495C237.092 251.64 237.006 251.769 236.883 251.881C236.76 251.992 236.596 252.059 236.391 252.084C236.222 252.104 236.067 252.084 235.928 252.026C235.787 251.966 235.671 251.865 235.579 251.723C235.487 251.581 235.428 251.394 235.402 251.163L235.209 249.441L235.625 249.392L235.815 251.086C235.837 251.284 235.91 251.435 236.034 251.539C236.159 251.644 236.307 251.686 236.48 251.665C236.584 251.653 236.686 251.614 236.787 251.549C236.889 251.483 236.971 251.391 237.031 251.273C237.093 251.155 237.114 251.012 237.095 250.842ZM143.93 268.985L143.626 266.275L144.028 266.227L144.074 266.637L144.102 266.633C144.136 266.494 144.213 266.374 144.333 266.275C144.453 266.177 144.594 266.118 144.757 266.099C144.787 266.095 144.825 266.091 144.871 266.087C144.917 266.083 144.952 266.08 144.976 266.08L145.024 266.503C145.009 266.502 144.976 266.5 144.925 266.499C144.874 266.497 144.822 266.499 144.766 266.505C144.635 266.521 144.52 266.562 144.423 266.63C144.327 266.696 144.254 266.781 144.205 266.884C144.157 266.986 144.14 267.099 144.154 267.221L144.346 268.936L143.93 268.985ZM145.778 268.767L145.473 266.057L145.889 266.008L146.194 268.718L145.778 268.767ZM145.634 265.58C145.553 265.59 145.48 265.571 145.415 265.522C145.351 265.474 145.315 265.411 145.306 265.333C145.297 265.255 145.319 265.186 145.37 265.123C145.423 265.061 145.49 265.025 145.571 265.016C145.652 265.006 145.724 265.026 145.788 265.074C145.853 265.123 145.89 265.186 145.899 265.263C145.907 265.341 145.885 265.411 145.833 265.473C145.782 265.535 145.715 265.571 145.634 265.58ZM148.17 269.572C147.969 269.596 147.793 269.591 147.642 269.556C147.492 269.522 147.364 269.47 147.258 269.397C147.154 269.326 147.068 269.247 147.001 269.159L147.307 268.888C147.35 268.932 147.404 268.983 147.468 269.04C147.533 269.098 147.618 269.145 147.724 269.18C147.83 269.216 147.965 269.225 148.128 269.205C148.347 269.18 148.522 269.105 148.652 268.983C148.782 268.86 148.835 268.686 148.809 268.46L148.748 267.91L148.712 267.914C148.687 267.967 148.651 268.033 148.602 268.113C148.555 268.191 148.483 268.264 148.384 268.333C148.287 268.401 148.15 268.445 147.974 268.466C147.755 268.491 147.553 268.463 147.368 268.38C147.183 268.297 147.029 268.162 146.906 267.976C146.784 267.791 146.707 267.557 146.675 267.274C146.644 266.997 146.666 266.749 146.74 266.532C146.814 266.313 146.932 266.137 147.094 266.004C147.255 265.869 147.449 265.788 147.677 265.762C147.854 265.741 147.997 265.754 148.107 265.8C148.218 265.846 148.305 265.902 148.369 265.97C148.434 266.036 148.484 266.091 148.52 266.134L148.562 266.129L148.514 265.699L148.916 265.651L149.229 268.439C149.255 268.672 149.223 268.868 149.134 269.026C149.046 269.186 148.917 269.31 148.747 269.399C148.578 269.489 148.386 269.547 148.17 269.572ZM147.988 268.085C148.155 268.065 148.292 268.01 148.399 267.92C148.505 267.83 148.581 267.71 148.624 267.559C148.668 267.409 148.679 267.234 148.656 267.034C148.635 266.838 148.586 266.669 148.51 266.527C148.435 266.385 148.335 266.278 148.21 266.207C148.085 266.135 147.938 266.11 147.769 266.13C147.592 266.151 147.451 266.213 147.343 266.316C147.237 266.419 147.163 266.549 147.121 266.707C147.08 266.864 147.07 267.035 147.091 267.218C147.112 267.406 147.16 267.569 147.235 267.707C147.311 267.844 147.412 267.946 147.537 268.015C147.664 268.082 147.814 268.105 147.988 268.085ZM150.215 266.592L150.398 268.223L149.982 268.272L149.576 264.658L149.992 264.609L150.141 265.936L150.177 265.932C150.224 265.784 150.307 265.662 150.425 265.565C150.544 265.466 150.709 265.404 150.922 265.379C151.107 265.358 151.272 265.376 151.419 265.433C151.566 265.49 151.687 265.59 151.78 265.732C151.874 265.874 151.935 266.061 151.961 266.294L152.154 268.016L151.738 268.065L151.548 266.371C151.524 266.156 151.449 265.996 151.324 265.891C151.201 265.786 151.04 265.744 150.844 265.767C150.708 265.784 150.589 265.827 150.487 265.897C150.387 265.967 150.311 266.061 150.261 266.179C150.213 266.297 150.197 266.435 150.215 266.592ZM153.789 265.077L153.829 265.43L152.425 265.595L152.386 265.243L153.789 265.077ZM152.722 264.545L153.138 264.496L153.428 267.079C153.441 267.197 153.468 267.283 153.509 267.338C153.551 267.391 153.6 267.425 153.656 267.438C153.713 267.451 153.773 267.453 153.834 267.446C153.88 267.441 153.917 267.434 153.946 267.426C153.975 267.416 153.997 267.409 154.015 267.403L154.141 267.767C154.114 267.781 154.076 267.797 154.027 267.813C153.978 267.831 153.914 267.844 153.837 267.853C153.719 267.867 153.601 267.856 153.482 267.818C153.365 267.781 153.264 267.715 153.178 267.62C153.093 267.525 153.042 267.399 153.025 267.241L152.722 264.545ZM155.621 264.861L155.661 265.214L154.201 265.386L154.161 265.033L155.621 264.861ZM154.903 267.692L154.557 264.608C154.539 264.452 154.561 264.319 154.622 264.207C154.684 264.095 154.77 264.006 154.88 263.94C154.991 263.875 155.111 263.834 155.24 263.819C155.342 263.807 155.427 263.806 155.493 263.814C155.56 263.823 155.61 263.833 155.643 263.843L155.563 264.217C155.541 264.213 155.511 264.207 155.472 264.201C155.435 264.195 155.386 264.195 155.326 264.202C155.188 264.219 155.093 264.265 155.04 264.342C154.987 264.418 154.969 264.523 154.984 264.657L155.319 267.643L154.903 267.692ZM158.091 266.194L157.912 264.591L158.328 264.542L158.632 267.253L158.216 267.302L158.164 266.843L158.136 266.846C158.088 266.991 158.003 267.12 157.879 267.232C157.756 267.343 157.592 267.411 157.388 267.435C157.218 267.455 157.064 267.436 156.924 267.377C156.784 267.317 156.667 267.216 156.575 267.075C156.483 266.932 156.424 266.745 156.398 266.515L156.205 264.793L156.621 264.743L156.811 266.437C156.833 266.635 156.906 266.786 157.03 266.891C157.155 266.995 157.304 267.037 157.476 267.017C157.58 267.005 157.682 266.966 157.783 266.9C157.885 266.835 157.967 266.743 158.027 266.625C158.089 266.507 158.11 266.363 158.091 266.194ZM159.405 263.5L159.81 267.114L159.394 267.163L158.989 263.549L159.405 263.5ZM160.583 263.361L160.989 266.975L160.573 267.024L160.167 263.41L160.583 263.361ZM162.133 267.87C162.063 267.878 161.999 267.88 161.942 267.874C161.886 267.87 161.847 267.864 161.824 267.856L161.889 267.477C161.993 267.491 162.083 267.489 162.16 267.473C162.237 267.457 162.302 267.414 162.355 267.345C162.409 267.276 162.454 267.171 162.489 267.027L162.543 266.806L161.235 264.2L161.687 264.147L162.677 266.218L162.705 266.215L163.21 263.967L163.661 263.914L162.86 267.155C162.824 267.301 162.773 267.424 162.707 267.525C162.641 267.627 162.56 267.706 162.464 267.763C162.369 267.819 162.259 267.855 162.133 267.87ZM166.145 264.715L166.328 266.346L165.912 266.395L165.506 262.781L165.922 262.732L166.071 264.059L166.106 264.055C166.154 263.907 166.237 263.785 166.355 263.688C166.473 263.589 166.639 263.527 166.852 263.502C167.036 263.48 167.202 263.498 167.349 263.556C167.496 263.613 167.616 263.712 167.71 263.855C167.804 263.996 167.865 264.184 167.891 264.417L168.084 266.139L167.668 266.188L167.478 264.494C167.454 264.279 167.379 264.119 167.254 264.014C167.13 263.908 166.97 263.867 166.774 263.89C166.638 263.906 166.519 263.95 166.417 264.02C166.316 264.09 166.241 264.184 166.191 264.302C166.143 264.42 166.127 264.558 166.145 264.715ZM169.65 266.019C169.478 266.039 169.319 266.025 169.171 265.977C169.024 265.927 168.902 265.846 168.806 265.732C168.71 265.617 168.652 265.471 168.632 265.295C168.615 265.139 168.631 265.01 168.681 264.906C168.732 264.801 168.805 264.715 168.901 264.648C168.997 264.581 169.105 264.526 169.225 264.485C169.347 264.442 169.47 264.405 169.594 264.373C169.756 264.333 169.887 264.301 169.988 264.278C170.091 264.254 170.164 264.226 170.208 264.194C170.253 264.161 170.272 264.111 170.264 264.044L170.263 264.03C170.243 263.856 170.18 263.726 170.074 263.641C169.969 263.555 169.821 263.524 169.629 263.547C169.431 263.57 169.28 263.632 169.177 263.732C169.074 263.833 169.005 263.935 168.97 264.039L168.559 263.944C168.611 263.771 168.691 263.632 168.798 263.527C168.906 263.42 169.028 263.34 169.164 263.287C169.301 263.233 169.438 263.197 169.574 263.181C169.661 263.171 169.762 263.17 169.877 263.178C169.994 263.184 170.108 263.213 170.221 263.264C170.335 263.315 170.435 263.4 170.52 263.52C170.605 263.64 170.659 263.808 170.683 264.023L170.884 265.809L170.468 265.858L170.427 265.491L170.405 265.493C170.384 265.555 170.344 265.624 170.286 265.699C170.227 265.774 170.146 265.841 170.042 265.901C169.938 265.961 169.807 266 169.65 266.019ZM169.671 265.637C169.836 265.618 169.971 265.569 170.076 265.491C170.183 265.413 170.26 265.319 170.306 265.21C170.353 265.101 170.37 264.99 170.358 264.877L170.315 264.496C170.3 264.519 170.263 264.543 170.205 264.568C170.148 264.591 170.082 264.614 170.005 264.636C169.93 264.657 169.857 264.676 169.785 264.694C169.714 264.711 169.657 264.725 169.613 264.736C169.506 264.763 169.408 264.797 169.317 264.84C169.228 264.882 169.158 264.937 169.107 265.006C169.058 265.074 169.039 265.161 169.051 265.267C169.067 265.411 169.133 265.515 169.248 265.576C169.364 265.636 169.505 265.657 169.671 265.637ZM172.517 262.87L172.557 263.223L171.153 263.389L171.113 263.036L172.517 262.87ZM171.45 262.338L171.866 262.289L172.156 264.872C172.169 264.99 172.196 265.076 172.237 265.131C172.278 265.184 172.327 265.218 172.384 265.232C172.441 265.244 172.5 265.246 172.562 265.239C172.607 265.234 172.645 265.227 172.674 265.219C172.702 265.21 172.725 265.202 172.743 265.196L172.869 265.561C172.842 265.574 172.804 265.59 172.755 265.606C172.705 265.624 172.642 265.637 172.564 265.646C172.447 265.66 172.329 265.649 172.21 265.611C172.093 265.574 171.991 265.508 171.906 265.413C171.821 265.318 171.77 265.192 171.752 265.034L171.45 262.338ZM174.56 265.433C174.299 265.464 174.068 265.432 173.865 265.339C173.664 265.245 173.501 265.1 173.375 264.904C173.251 264.706 173.173 264.469 173.142 264.191C173.11 263.914 173.133 263.663 173.211 263.439C173.289 263.214 173.413 263.032 173.582 262.891C173.752 262.75 173.959 262.665 174.203 262.636C174.344 262.619 174.486 262.626 174.629 262.657C174.772 262.688 174.906 262.75 175.031 262.842C175.155 262.934 175.261 263.062 175.347 263.227C175.434 263.392 175.491 263.601 175.519 263.854L175.539 264.03L173.451 264.276L173.411 263.916L175.075 263.72C175.058 263.567 175.012 263.434 174.938 263.322C174.864 263.209 174.768 263.124 174.648 263.068C174.53 263.011 174.396 262.992 174.245 263.01C174.08 263.029 173.941 263.087 173.829 263.184C173.718 263.279 173.638 263.396 173.588 263.534C173.538 263.672 173.521 263.816 173.538 263.966L173.565 264.206C173.588 264.41 173.643 264.58 173.729 264.714C173.817 264.846 173.928 264.942 174.063 265.001C174.199 265.059 174.35 265.078 174.518 265.059C174.628 265.046 174.725 265.019 174.809 264.978C174.895 264.936 174.967 264.879 175.025 264.81C175.082 264.738 175.123 264.654 175.148 264.555L175.563 264.621C175.536 264.762 175.478 264.891 175.39 265.006C175.301 265.12 175.187 265.215 175.046 265.29C174.906 265.363 174.744 265.411 174.56 265.433ZM178.738 261.222L179.176 261.17L179.466 263.753C179.491 263.984 179.471 264.185 179.405 264.356C179.338 264.527 179.232 264.663 179.088 264.765C178.943 264.867 178.766 264.93 178.557 264.955C178.36 264.978 178.18 264.963 178.018 264.909C177.855 264.854 177.723 264.765 177.62 264.641C177.516 264.518 177.454 264.363 177.434 264.179L177.864 264.128C177.875 264.23 177.911 264.317 177.97 264.387C178.03 264.457 178.107 264.507 178.201 264.539C178.295 264.571 178.399 264.58 178.513 264.566C178.639 264.552 178.743 264.513 178.825 264.449C178.908 264.386 178.966 264.3 179 264.193C179.036 264.084 179.045 263.954 179.028 263.805L178.738 261.222ZM181.205 264.657C181.034 264.677 180.874 264.663 180.727 264.615C180.58 264.565 180.458 264.484 180.362 264.37C180.266 264.255 180.208 264.109 180.188 263.933C180.17 263.778 180.187 263.648 180.237 263.544C180.287 263.44 180.36 263.354 180.457 263.286C180.553 263.219 180.661 263.164 180.781 263.123C180.903 263.08 181.025 263.043 181.149 263.011C181.312 262.971 181.443 262.939 181.544 262.917C181.646 262.893 181.719 262.864 181.763 262.832C181.809 262.799 181.827 262.749 181.82 262.682L181.818 262.668C181.799 262.494 181.736 262.364 181.63 262.279C181.525 262.194 181.377 262.162 181.185 262.185C180.986 262.208 180.836 262.27 180.733 262.371C180.629 262.471 180.561 262.573 180.526 262.677L180.115 262.583C180.167 262.41 180.247 262.27 180.354 262.165C180.462 262.058 180.584 261.978 180.72 261.925C180.857 261.871 180.993 261.836 181.13 261.82C181.217 261.809 181.318 261.808 181.433 261.816C181.549 261.823 181.664 261.851 181.777 261.902C181.891 261.953 181.991 262.039 182.076 262.159C182.16 262.279 182.215 262.446 182.239 262.661L182.44 264.447L182.024 264.496L181.982 264.129L181.961 264.132C181.94 264.194 181.9 264.262 181.841 264.337C181.783 264.412 181.702 264.479 181.598 264.539C181.494 264.599 181.363 264.638 181.205 264.657ZM181.227 264.275C181.391 264.256 181.527 264.207 181.632 264.129C181.739 264.051 181.815 263.957 181.861 263.848C181.909 263.739 181.926 263.628 181.913 263.515L181.871 263.134C181.855 263.157 181.819 263.181 181.761 263.206C181.704 263.229 181.637 263.252 181.561 263.274C181.486 263.295 181.413 263.314 181.341 263.332C181.27 263.349 181.213 263.363 181.169 263.374C181.062 263.401 180.963 263.436 180.873 263.478C180.784 263.52 180.714 263.575 180.663 263.644C180.613 263.712 180.595 263.799 180.606 263.905C180.623 264.05 180.688 264.153 180.804 264.214C180.92 264.274 181.061 264.295 181.227 264.275ZM185.013 261.398L184.315 264.226L183.892 264.276L182.586 261.684L183.038 261.63L184.028 263.702L184.056 263.699L184.561 261.451L185.013 261.398ZM186.588 264.023C186.416 264.043 186.257 264.029 186.11 263.981C185.963 263.931 185.841 263.85 185.745 263.736C185.648 263.621 185.59 263.475 185.571 263.299C185.553 263.143 185.57 263.014 185.62 262.91C185.67 262.805 185.743 262.719 185.839 262.652C185.935 262.585 186.044 262.53 186.164 262.488C186.285 262.446 186.408 262.408 186.532 262.377C186.694 262.337 186.826 262.305 186.927 262.282C187.029 262.258 187.102 262.23 187.146 262.198C187.191 262.165 187.21 262.115 187.203 262.048L187.201 262.034C187.181 261.86 187.119 261.73 187.013 261.645C186.908 261.559 186.759 261.528 186.568 261.551C186.369 261.574 186.218 261.636 186.115 261.736C186.012 261.837 185.943 261.939 185.908 262.043L185.498 261.948C185.55 261.775 185.629 261.636 185.737 261.531C185.845 261.424 185.967 261.344 186.103 261.291C186.24 261.236 186.376 261.201 186.513 261.185C186.6 261.175 186.701 261.174 186.816 261.182C186.932 261.188 187.047 261.217 187.16 261.268C187.274 261.319 187.373 261.404 187.458 261.524C187.543 261.644 187.598 261.812 187.622 262.027L187.822 263.813L187.406 263.862L187.365 263.495L187.344 263.497C187.322 263.559 187.282 263.628 187.224 263.703C187.166 263.777 187.084 263.845 186.98 263.905C186.876 263.965 186.746 264.004 186.588 264.023ZM186.61 263.641C186.774 263.622 186.909 263.573 187.015 263.495C187.122 263.417 187.198 263.323 187.244 263.214C187.291 263.105 187.309 262.994 187.296 262.881L187.253 262.5C187.238 262.523 187.201 262.547 187.143 262.572C187.087 262.595 187.02 262.618 186.944 262.64C186.869 262.661 186.795 262.68 186.723 262.698C186.653 262.715 186.595 262.728 186.551 262.74C186.445 262.766 186.346 262.801 186.256 262.844C186.166 262.886 186.096 262.941 186.046 263.01C185.996 263.078 185.977 263.165 185.989 263.271C186.005 263.415 186.071 263.518 186.186 263.58C186.303 263.64 186.444 263.661 186.61 263.641ZM190.264 261.394L189.902 261.544C189.872 261.484 189.83 261.428 189.778 261.374C189.727 261.32 189.66 261.277 189.578 261.248C189.496 261.218 189.394 261.21 189.273 261.225C189.108 261.244 188.974 261.299 188.872 261.388C188.771 261.476 188.727 261.579 188.74 261.695C188.752 261.799 188.799 261.876 188.881 261.927C188.963 261.978 189.086 262.014 189.25 262.035L189.663 262.087C189.912 262.117 190.103 262.186 190.235 262.293C190.367 262.399 190.444 262.547 190.465 262.736C190.483 262.891 190.453 263.035 190.378 263.168C190.303 263.301 190.191 263.412 190.04 263.501C189.889 263.591 189.709 263.648 189.498 263.672C189.222 263.705 188.987 263.672 188.792 263.573C188.598 263.475 188.463 263.313 188.389 263.088L188.773 262.943C188.827 263.084 188.91 263.185 189.023 263.246C189.137 263.306 189.279 263.326 189.45 263.306C189.644 263.283 189.793 263.224 189.898 263.128C190.004 263.031 190.05 262.924 190.037 262.808C190.027 262.714 189.985 262.639 189.912 262.583C189.839 262.526 189.732 262.49 189.592 262.474L189.129 262.422C188.874 262.392 188.682 262.322 188.552 262.212C188.422 262.101 188.347 261.952 188.326 261.765C188.309 261.612 188.337 261.472 188.41 261.344C188.483 261.216 188.591 261.11 188.733 261.025C188.876 260.941 189.043 260.887 189.233 260.865C189.501 260.833 189.718 260.867 189.884 260.967C190.051 261.066 190.178 261.209 190.264 261.394ZM192.283 263.344C192.029 263.374 191.804 263.34 191.607 263.242C191.41 263.143 191.25 262.995 191.128 262.796C191.006 262.597 190.929 262.362 190.899 262.091C190.868 261.816 190.891 261.567 190.969 261.345C191.047 261.121 191.171 260.939 191.34 260.799C191.51 260.657 191.717 260.572 191.961 260.543C192.152 260.521 192.327 260.536 192.488 260.588C192.649 260.641 192.785 260.725 192.897 260.84C193.009 260.956 193.086 261.097 193.129 261.264L192.712 261.313C192.667 261.193 192.584 261.092 192.464 261.01C192.345 260.926 192.194 260.895 192.01 260.916C191.848 260.935 191.711 260.995 191.598 261.094C191.486 261.191 191.405 261.321 191.354 261.482C191.304 261.641 191.29 261.824 191.313 262.028C191.337 262.238 191.39 262.416 191.474 262.564C191.558 262.711 191.666 262.821 191.796 262.892C191.928 262.964 192.076 262.99 192.241 262.97C192.349 262.957 192.445 262.927 192.529 262.879C192.613 262.831 192.682 262.768 192.735 262.69C192.788 262.613 192.822 262.523 192.837 262.421L193.253 262.372C193.247 262.535 193.205 262.686 193.127 262.825C193.049 262.963 192.939 263.078 192.796 263.171C192.654 263.263 192.483 263.321 192.283 263.344ZM193.95 263.091L193.646 260.38L194.048 260.333L194.094 260.742L194.122 260.739C194.156 260.599 194.233 260.48 194.353 260.381C194.473 260.282 194.614 260.223 194.777 260.204C194.807 260.201 194.845 260.197 194.891 260.192C194.937 260.188 194.972 260.186 194.996 260.185L195.044 260.609C195.029 260.607 194.996 260.606 194.945 260.605C194.895 260.602 194.842 260.604 194.787 260.611C194.655 260.626 194.54 260.668 194.443 260.735C194.347 260.801 194.274 260.886 194.225 260.99C194.177 261.092 194.16 261.204 194.174 261.326L194.366 263.042L193.95 263.091ZM195.798 262.873L195.493 260.163L195.91 260.114L196.214 262.824L195.798 262.873ZM195.654 259.686C195.573 259.696 195.5 259.676 195.435 259.628C195.371 259.579 195.335 259.516 195.326 259.439C195.318 259.361 195.339 259.291 195.39 259.229C195.443 259.167 195.51 259.131 195.591 259.121C195.672 259.112 195.744 259.131 195.808 259.18C195.873 259.228 195.91 259.291 195.919 259.369C195.927 259.446 195.906 259.516 195.853 259.579C195.802 259.641 195.735 259.676 195.654 259.686ZM197.09 263.75L196.672 260.024L197.074 259.976L197.122 260.407L197.171 260.401C197.197 260.35 197.232 260.285 197.278 260.206C197.325 260.126 197.397 260.05 197.492 259.981C197.589 259.91 197.726 259.864 197.902 259.843C198.13 259.816 198.338 259.85 198.524 259.943C198.711 260.037 198.865 260.182 198.986 260.38C199.107 260.578 199.184 260.82 199.216 261.104C199.248 261.391 199.227 261.646 199.153 261.868C199.079 262.089 198.962 262.267 198.802 262.403C198.642 262.537 198.449 262.618 198.224 262.644C198.05 262.665 197.907 262.652 197.796 262.607C197.685 262.561 197.597 262.504 197.532 262.436C197.467 262.367 197.417 262.31 197.381 262.264L197.345 262.269L197.506 263.701L197.09 263.75ZM197.233 261.331C197.256 261.535 197.306 261.712 197.384 261.862C197.461 262.01 197.562 262.121 197.687 262.196C197.812 262.27 197.958 262.296 198.125 262.277C198.299 262.256 198.439 262.193 198.545 262.088C198.653 261.981 198.727 261.846 198.768 261.683C198.81 261.518 198.82 261.339 198.799 261.146C198.777 260.956 198.729 260.787 198.653 260.641C198.578 260.494 198.477 260.383 198.349 260.307C198.223 260.23 198.071 260.202 197.895 260.223C197.725 260.243 197.588 260.303 197.482 260.402C197.377 260.5 197.303 260.629 197.261 260.789C197.22 260.948 197.21 261.128 197.233 261.331ZM200.876 259.528L200.915 259.881L199.512 260.047L199.472 259.694L200.876 259.528ZM199.808 258.996L200.224 258.947L200.514 261.53C200.528 261.648 200.554 261.734 200.595 261.789C200.637 261.843 200.686 261.876 200.742 261.89C200.8 261.902 200.859 261.905 200.92 261.897C200.966 261.892 201.003 261.885 201.032 261.877C201.061 261.868 201.084 261.86 201.101 261.855L201.228 262.219C201.201 262.233 201.162 262.248 201.113 262.264C201.064 262.282 201 262.296 200.923 262.305C200.805 262.319 200.687 262.307 200.569 262.27C200.451 262.232 200.35 262.166 200.264 262.071C200.18 261.976 200.129 261.85 200.111 261.692L199.808 258.996ZM201.908 258.491L201.943 258.809C201.954 258.905 201.948 259.01 201.925 259.124C201.903 259.236 201.864 259.348 201.809 259.458C201.754 259.567 201.684 259.664 201.599 259.751L201.352 259.594C201.415 259.479 201.466 259.362 201.508 259.241C201.55 259.119 201.564 258.993 201.549 258.863L201.513 258.538L201.908 258.491ZM202.81 258.385L202.846 258.703C202.857 258.799 202.851 258.904 202.828 259.018C202.806 259.13 202.767 259.241 202.712 259.351C202.657 259.46 202.587 259.558 202.502 259.644L202.255 259.487C202.317 259.373 202.369 259.255 202.41 259.135C202.453 259.013 202.467 258.887 202.452 258.756L202.415 258.432L202.81 258.385Z" fill="white"/>
<path d="M123.634 129.634C123.754 129.699 123.963 129.77 124.26 129.848C124.555 129.918 124.897 129.93 125.284 129.885C125.62 129.845 125.889 129.757 126.091 129.619C126.293 129.474 126.437 129.278 126.523 129.032C126.617 128.785 126.661 128.475 126.653 128.1C126.655 127.725 126.627 127.279 126.569 126.762L126.029 121.956L127.811 121.746L128.334 126.41C128.412 127.099 128.444 127.732 128.43 128.31C128.416 128.887 128.321 129.396 128.143 129.836C127.966 130.276 127.662 130.634 127.231 130.912C126.808 131.189 126.223 131.371 125.474 131.459C125.061 131.508 124.685 131.504 124.348 131.448C124.01 131.392 123.693 131.285 123.396 131.128L123.634 129.634ZM129.667 128.792C129.618 128.353 129.695 127.956 129.9 127.6C130.112 127.235 130.427 126.936 130.845 126.703C131.264 126.471 131.758 126.321 132.326 126.254C132.61 126.22 132.9 126.208 133.198 126.216C133.495 126.225 133.757 126.264 133.983 126.333L133.942 125.972C133.894 125.541 133.727 125.225 133.443 125.023C133.167 124.819 132.78 124.747 132.281 124.806C131.911 124.85 131.565 124.956 131.244 125.125C130.923 125.293 130.591 125.524 130.249 125.818L129.566 124.746C129.981 124.401 130.412 124.127 130.861 123.926C131.318 123.724 131.804 123.593 132.321 123.532C133.285 123.418 134.061 123.571 134.649 123.99C135.245 124.409 135.593 125.066 135.694 125.962L135.936 128.119C135.956 128.3 136.001 128.426 136.07 128.496C136.148 128.565 136.261 128.6 136.409 128.6L136.567 130.008C136.415 130.052 136.275 130.091 136.148 130.123C136.03 130.154 135.927 130.175 135.841 130.185C135.497 130.226 135.226 130.179 135.027 130.046C134.838 129.911 134.709 129.734 134.641 129.515L134.563 129.171C134.313 129.584 133.98 129.92 133.564 130.179C133.148 130.437 132.712 130.593 132.256 130.647C131.809 130.7 131.394 130.657 131.012 130.519C130.638 130.371 130.33 130.15 130.087 129.855C129.853 129.551 129.713 129.197 129.667 128.792ZM133.915 128.645C133.998 128.531 134.064 128.418 134.113 128.308C134.162 128.197 134.181 128.099 134.171 128.013L134.094 127.328C133.878 127.266 133.647 127.228 133.401 127.213C133.155 127.19 132.924 127.191 132.708 127.217C132.261 127.269 131.902 127.412 131.631 127.645C131.369 127.868 131.255 128.138 131.291 128.457C131.31 128.629 131.376 128.787 131.488 128.931C131.6 129.075 131.752 129.184 131.943 129.257C132.135 129.331 132.355 129.353 132.605 129.323C132.863 129.293 133.112 129.215 133.351 129.091C133.589 128.959 133.777 128.81 133.915 128.645ZM139.351 129.68L136.099 123.204L137.894 122.993L140.181 127.985L141.315 122.59L142.955 122.396L141.236 129.458L139.351 129.68ZM143.763 127.131C143.714 126.692 143.791 126.295 143.995 125.939C144.207 125.574 144.523 125.275 144.941 125.042C145.36 124.809 145.853 124.66 146.421 124.593C146.705 124.559 146.996 124.547 147.294 124.555C147.591 124.564 147.853 124.603 148.079 124.672L148.038 124.311C147.99 123.88 147.823 123.564 147.539 123.361C147.263 123.158 146.876 123.086 146.377 123.145C146.006 123.189 145.661 123.295 145.34 123.464C145.019 123.632 144.687 123.863 144.345 124.157L143.662 123.085C144.077 122.74 144.508 122.466 144.957 122.265C145.414 122.063 145.9 121.931 146.417 121.871C147.381 121.757 148.157 121.91 148.744 122.329C149.341 122.748 149.689 123.405 149.79 124.301L150.032 126.458C150.052 126.639 150.097 126.764 150.166 126.835C150.243 126.904 150.356 126.939 150.505 126.939L150.663 128.347C150.511 128.391 150.371 128.429 150.244 128.462C150.125 128.493 150.023 128.514 149.937 128.524C149.593 128.565 149.321 128.518 149.123 128.385C148.934 128.25 148.805 128.073 148.737 127.854L148.659 127.51C148.409 127.923 148.076 128.259 147.66 128.518C147.244 128.776 146.808 128.932 146.352 128.986C145.905 129.039 145.49 128.996 145.108 128.858C144.734 128.71 144.426 128.489 144.183 128.194C143.949 127.89 143.809 127.536 143.763 127.131ZM148.011 126.984C148.094 126.87 148.16 126.757 148.209 126.647C148.257 126.536 148.277 126.438 148.267 126.352L148.19 125.667C147.974 125.605 147.743 125.567 147.497 125.552C147.25 125.529 147.019 125.53 146.804 125.556C146.357 125.608 145.998 125.751 145.727 125.984C145.464 126.206 145.351 126.477 145.387 126.796C145.406 126.968 145.472 127.126 145.584 127.27C145.696 127.414 145.848 127.523 146.039 127.596C146.23 127.67 146.451 127.692 146.701 127.662C146.959 127.632 147.207 127.554 147.446 127.43C147.684 127.297 147.873 127.149 148.011 126.984ZM156.735 120.772C156.668 120.719 156.547 120.651 156.372 120.567C156.205 120.481 156.001 120.405 155.758 120.338C155.523 120.27 155.269 120.217 154.994 120.179C154.719 120.133 154.443 120.126 154.168 120.159C153.686 120.216 153.33 120.349 153.101 120.559C152.88 120.769 152.788 121.037 152.825 121.364C152.853 121.614 152.953 121.803 153.124 121.931C153.295 122.059 153.542 122.157 153.863 122.224C154.185 122.29 154.585 122.357 155.063 122.423C155.682 122.498 156.223 122.617 156.686 122.781C157.157 122.935 157.528 123.171 157.799 123.488C158.078 123.795 158.248 124.229 158.311 124.789C158.366 125.279 158.323 125.712 158.182 126.087C158.04 126.452 157.822 126.762 157.528 127.015C157.233 127.267 156.89 127.469 156.497 127.62C156.103 127.763 155.678 127.861 155.222 127.915C154.766 127.968 154.304 127.975 153.837 127.934C153.37 127.893 152.916 127.811 152.475 127.688C152.033 127.557 151.622 127.388 151.241 127.179L151.856 125.549C151.942 125.618 152.091 125.705 152.304 125.811C152.515 125.908 152.77 126.004 153.069 126.1C153.366 126.187 153.688 126.254 154.033 126.301C154.379 126.347 154.723 126.35 155.068 126.31C155.55 126.253 155.906 126.128 156.138 125.935C156.369 125.742 156.467 125.495 156.434 125.193C156.403 124.917 156.279 124.714 156.064 124.582C155.849 124.45 155.558 124.349 155.193 124.279C154.826 124.2 154.394 124.12 153.897 124.039C153.302 123.943 152.8 123.819 152.39 123.667C151.98 123.506 151.662 123.281 151.438 122.994C151.214 122.706 151.076 122.33 151.023 121.864C150.953 121.236 151.04 120.693 151.286 120.237C151.538 119.77 151.907 119.4 152.39 119.125C152.873 118.841 153.424 118.663 154.044 118.589C154.474 118.539 154.884 118.538 155.273 118.589C155.671 118.638 156.047 118.72 156.4 118.835C156.753 118.951 157.073 119.083 157.36 119.233L156.735 120.772ZM162.949 127.03C162.398 127.095 161.893 127.063 161.434 126.934C160.973 126.796 160.57 126.582 160.223 126.291C159.876 125.992 159.592 125.641 159.373 125.239C159.162 124.837 159.03 124.403 158.978 123.938C158.906 123.3 158.983 122.702 159.208 122.143C159.441 121.575 159.806 121.1 160.304 120.718C160.802 120.337 161.417 120.103 162.148 120.017C162.88 119.931 163.526 120.016 164.087 120.273C164.648 120.529 165.086 120.901 165.402 121.387L163.769 122.103C163.595 121.871 163.38 121.704 163.124 121.603C162.868 121.494 162.593 121.457 162.301 121.491C161.974 121.53 161.682 121.651 161.426 121.856C161.178 122.051 160.993 122.313 160.873 122.641C160.752 122.961 160.714 123.323 160.76 123.728C160.804 124.124 160.921 124.468 161.111 124.76C161.308 125.042 161.551 125.258 161.838 125.407C162.124 125.548 162.431 125.599 162.758 125.56C162.964 125.536 163.154 125.479 163.327 125.389C163.509 125.297 163.666 125.183 163.799 125.045C163.931 124.907 164.024 124.757 164.075 124.594L165.824 124.911C165.707 125.265 165.513 125.594 165.242 125.896C164.979 126.198 164.654 126.45 164.267 126.652C163.887 126.845 163.448 126.971 162.949 127.03ZM170.508 120.668C169.983 120.73 169.525 120.888 169.135 121.144C168.745 121.391 168.48 121.714 168.342 122.114L168.802 126.21L167.072 126.413L166.312 119.644L167.9 119.457L168.062 120.904C168.251 120.41 168.515 120.008 168.855 119.698C169.195 119.387 169.571 119.194 169.981 119.12C170.076 119.109 170.149 119.1 170.2 119.094C170.252 119.088 170.296 119.087 170.331 119.092L170.508 120.668ZM172.064 125.825L171.304 119.056L173.034 118.852L173.794 125.621L172.064 125.825ZM171.198 118.113L171.006 116.394L172.736 116.19L172.928 117.909L171.198 118.113ZM179.424 125.089C178.898 125.151 178.421 125.089 177.99 124.904C177.567 124.71 177.221 124.423 176.952 124.045L177.394 127.985L175.664 128.189L174.595 118.668L176.106 118.49L176.236 119.653C176.45 119.226 176.742 118.877 177.113 118.607C177.483 118.328 177.922 118.158 178.429 118.098C178.886 118.044 179.313 118.086 179.712 118.222C180.12 118.357 180.484 118.572 180.805 118.865C181.125 119.151 181.386 119.495 181.588 119.899C181.798 120.293 181.93 120.731 181.984 121.214C182.058 121.868 181.995 122.478 181.797 123.042C181.607 123.605 181.307 124.073 180.895 124.444C180.491 124.806 180 125.021 179.424 125.089ZM178.677 123.684C178.944 123.653 179.179 123.569 179.381 123.431C179.584 123.294 179.752 123.122 179.886 122.914C180.027 122.696 180.123 122.463 180.173 122.212C180.231 121.952 180.245 121.689 180.215 121.422C180.183 121.138 180.107 120.881 179.985 120.651C179.872 120.42 179.719 120.224 179.526 120.063C179.333 119.894 179.114 119.772 178.87 119.696C178.635 119.619 178.384 119.596 178.117 119.627C177.953 119.647 177.789 119.696 177.624 119.777C177.466 119.848 177.315 119.944 177.172 120.066C177.029 120.187 176.905 120.324 176.8 120.476C176.703 120.627 176.638 120.788 176.605 120.957L176.783 122.546C176.915 122.784 177.078 122.996 177.273 123.182C177.477 123.368 177.702 123.507 177.948 123.6C178.193 123.685 178.436 123.713 178.677 123.684ZM187.464 123.657C187.325 123.734 187.156 123.824 186.958 123.926C186.76 124.028 186.543 124.115 186.307 124.186C186.08 124.265 185.847 124.319 185.606 124.347C185.287 124.385 184.988 124.363 184.709 124.283C184.429 124.202 184.194 124.051 184.004 123.829C183.821 123.598 183.707 123.284 183.663 122.888L183.226 118.999L182.335 119.104L182.186 117.773L183.077 117.668L182.83 115.472L184.56 115.268L184.807 117.464L186.227 117.297L186.376 118.628L184.956 118.795L185.327 122.102C185.362 122.334 185.446 122.494 185.578 122.583C185.71 122.672 185.866 122.706 186.047 122.685C186.228 122.664 186.401 122.613 186.566 122.532C186.732 122.452 186.863 122.384 186.962 122.329L187.464 123.657Z" fill="#FFC100"/>
<path d="M120.157 110.295L119.603 105.356L121.688 105.11C121.902 105.085 122.101 105.106 122.287 105.174C122.473 105.241 122.64 105.343 122.787 105.481C122.938 105.614 123.058 105.769 123.149 105.946C123.243 106.118 123.301 106.299 123.322 106.489C123.349 106.726 123.328 106.954 123.258 107.174C123.194 107.393 123.086 107.584 122.935 107.747C122.789 107.91 122.608 108.028 122.39 108.101L123.814 109.864L123.265 109.929L121.899 108.243L120.439 108.415L120.644 110.238L120.157 110.295ZM120.391 107.984L122.004 107.794C122.198 107.771 122.362 107.697 122.493 107.574C122.625 107.45 122.721 107.298 122.78 107.117C122.839 106.932 122.858 106.742 122.836 106.547C122.813 106.347 122.746 106.17 122.635 106.014C122.528 105.852 122.392 105.73 122.227 105.646C122.067 105.557 121.894 105.523 121.709 105.545L120.138 105.73L120.391 107.984ZM124.568 109.775L124.161 106.151L124.634 106.095L125.041 109.719L124.568 109.775ZM124.076 105.393L123.998 104.697L124.47 104.641L124.549 105.337L124.076 105.393ZM127.661 109.481C127.397 109.512 127.148 109.492 126.914 109.421C126.685 109.345 126.477 109.228 126.291 109.072C126.109 108.915 125.958 108.728 125.84 108.512C125.727 108.295 125.656 108.059 125.627 107.804C125.588 107.461 125.63 107.138 125.751 106.838C125.872 106.537 126.06 106.287 126.315 106.087C126.569 105.888 126.875 105.768 127.232 105.726C127.57 105.686 127.878 105.729 128.155 105.856C128.432 105.979 128.648 106.165 128.803 106.414L128.36 106.615C128.237 106.441 128.078 106.314 127.881 106.234C127.688 106.149 127.48 106.119 127.258 106.145C127.017 106.174 126.804 106.262 126.619 106.411C126.433 106.56 126.293 106.75 126.197 106.982C126.105 107.214 126.075 107.469 126.107 107.747C126.137 108.021 126.225 108.262 126.371 108.47C126.516 108.679 126.696 108.838 126.911 108.949C127.125 109.056 127.352 109.095 127.593 109.066C127.751 109.048 127.898 109.002 128.036 108.93C128.178 108.856 128.297 108.767 128.393 108.662C128.493 108.551 128.556 108.438 128.58 108.323L129.062 108.407C129.016 108.586 128.924 108.754 128.787 108.911C128.654 109.063 128.49 109.191 128.295 109.294C128.104 109.391 127.892 109.454 127.661 109.481ZM132.483 108.842L130.933 107.143L130.243 107.958L130.37 109.091L129.897 109.147L129.327 104.069L129.8 104.013L130.186 107.45L132.015 105.232L132.536 105.171L131.222 106.827L132.998 108.782L132.483 108.842ZM135.453 108.492L134.898 103.553L136.984 103.308C137.197 103.283 137.397 103.304 137.583 103.371C137.769 103.438 137.935 103.541 138.082 103.679C138.233 103.811 138.354 103.966 138.444 104.144C138.539 104.316 138.597 104.497 138.618 104.687C138.644 104.923 138.623 105.152 138.554 105.371C138.489 105.59 138.382 105.781 138.231 105.945C138.085 106.108 137.903 106.225 137.686 106.298L139.11 108.062L138.56 108.126L137.195 106.441L135.735 106.613L135.939 108.435L135.453 108.492ZM135.686 106.181L137.299 105.991C137.494 105.968 137.657 105.895 137.789 105.771C137.92 105.648 138.016 105.496 138.076 105.315C138.135 105.129 138.153 104.939 138.131 104.744C138.109 104.545 138.042 104.367 137.931 104.211C137.823 104.05 137.687 103.927 137.523 103.843C137.363 103.754 137.19 103.72 137.004 103.742L135.433 103.927L135.686 106.181ZM139.434 106.966C139.408 106.739 139.451 106.536 139.563 106.359C139.674 106.177 139.838 106.028 140.055 105.913C140.277 105.793 140.538 105.715 140.839 105.68C141.015 105.659 141.2 105.651 141.393 105.657C141.586 105.662 141.76 105.684 141.915 105.722L141.88 105.416C141.846 105.11 141.728 104.877 141.527 104.718C141.326 104.558 141.066 104.497 140.746 104.535C140.551 104.558 140.363 104.618 140.181 104.714C140.004 104.806 139.821 104.933 139.632 105.096L139.414 104.783C139.632 104.593 139.851 104.445 140.069 104.34C140.287 104.23 140.514 104.16 140.75 104.133C141.195 104.08 141.561 104.166 141.85 104.391C142.138 104.615 142.307 104.952 142.358 105.402L142.546 107.079C142.553 107.144 142.572 107.191 142.604 107.22C142.635 107.244 142.681 107.255 142.741 107.253L142.784 107.629C142.733 107.639 142.69 107.649 142.653 107.658C142.617 107.667 142.589 107.67 142.57 107.668C142.453 107.677 142.361 107.65 142.293 107.588C142.225 107.525 142.184 107.455 142.171 107.377L142.134 107.113C141.995 107.341 141.803 107.528 141.556 107.675C141.309 107.816 141.051 107.903 140.782 107.935C140.551 107.962 140.334 107.938 140.133 107.863C139.937 107.783 139.775 107.666 139.65 107.512C139.529 107.352 139.457 107.17 139.434 106.966ZM141.891 106.958C141.935 106.887 141.967 106.82 141.988 106.757C142.009 106.693 142.017 106.638 142.012 106.592L141.953 106.063C141.788 106.021 141.619 105.994 141.444 105.982C141.273 105.969 141.102 105.973 140.931 105.993C140.592 106.033 140.326 106.133 140.133 106.292C139.94 106.451 139.856 106.646 139.882 106.878C139.897 107.013 139.946 107.136 140.029 107.248C140.112 107.356 140.225 107.441 140.368 107.504C140.51 107.563 140.672 107.581 140.853 107.56C141.08 107.533 141.286 107.464 141.471 107.353C141.66 107.242 141.8 107.11 141.891 106.958ZM146.676 107.17L146.203 107.226L145.976 105.201C145.928 104.775 145.831 104.471 145.684 104.291C145.536 104.107 145.328 104.03 145.059 104.062C144.874 104.084 144.696 104.152 144.526 104.266C144.355 104.375 144.209 104.517 144.087 104.691C143.97 104.86 143.893 105.047 143.855 105.254L144.104 107.473L143.631 107.529L143.224 103.904L143.655 103.854L143.748 104.675C143.825 104.487 143.935 104.319 144.078 104.17C144.221 104.017 144.388 103.892 144.578 103.794C144.769 103.697 144.972 103.635 145.185 103.61C145.384 103.587 145.557 103.604 145.705 103.662C145.852 103.719 145.975 103.813 146.074 103.942C146.173 104.067 146.252 104.224 146.311 104.415C146.369 104.601 146.411 104.812 146.438 105.048L146.676 107.17ZM147.239 105.278C147.2 104.935 147.235 104.614 147.342 104.314C147.453 104.01 147.624 103.757 147.855 103.556C148.086 103.355 148.362 103.236 148.682 103.198C148.983 103.162 149.261 103.212 149.515 103.346C149.774 103.476 149.983 103.646 150.143 103.857L149.895 101.645L150.368 101.59L150.874 106.097C150.881 106.162 150.9 106.209 150.932 106.238C150.963 106.263 151.006 106.274 151.062 106.272L151.105 106.648C151.013 106.673 150.942 106.686 150.891 106.687C150.793 106.694 150.703 106.665 150.62 106.599C150.538 106.534 150.491 106.457 150.482 106.369L150.442 106.014C150.325 106.268 150.151 106.478 149.921 106.647C149.691 106.815 149.444 106.914 149.18 106.945C148.93 106.975 148.692 106.951 148.467 106.874C148.247 106.797 148.049 106.679 147.871 106.522C147.699 106.363 147.556 106.178 147.443 105.966C147.334 105.749 147.266 105.519 147.239 105.278ZM150.325 105.478L150.199 104.358C150.12 104.198 150.006 104.059 149.857 103.941C149.707 103.817 149.542 103.726 149.361 103.668C149.185 103.604 149.013 103.582 148.847 103.601C148.652 103.624 148.481 103.687 148.332 103.789C148.184 103.886 148.059 104.011 147.959 104.164C147.863 104.316 147.795 104.484 147.755 104.667C147.714 104.851 147.704 105.035 147.725 105.221C147.747 105.416 147.8 105.597 147.885 105.766C147.974 105.934 148.089 106.08 148.23 106.204C148.37 106.324 148.526 106.412 148.696 106.467C148.867 106.522 149.047 106.538 149.237 106.516C149.358 106.501 149.48 106.464 149.605 106.402C149.729 106.34 149.845 106.263 149.952 106.171C150.063 106.073 150.152 105.964 150.218 105.843C150.285 105.723 150.32 105.601 150.325 105.478ZM152.342 107.63C152.408 107.627 152.471 107.622 152.531 107.615C152.592 107.612 152.635 107.605 152.662 107.592C152.717 107.576 152.766 107.538 152.811 107.476C152.856 107.414 152.904 107.301 152.956 107.135C153.008 106.969 153.079 106.725 153.17 106.405L151.185 102.966L151.685 102.907L153.365 105.888L154.237 102.607L154.709 102.551L153.357 107.447C153.335 107.539 153.295 107.626 153.239 107.708C153.183 107.794 153.108 107.864 153.016 107.917C152.928 107.974 152.815 108.014 152.677 108.035C152.635 108.044 152.591 108.049 152.544 108.05C152.503 108.055 152.451 108.056 152.39 108.054L152.342 107.63Z" fill="white"/>
<path d="M134.756 142.652L130.987 143.096L132.072 152.755L131.029 152.878L129.945 143.219L126.176 143.663L126.072 142.739L134.652 141.727L134.756 142.652ZM143.741 151.38L142.728 151.499L142.241 147.162C142.143 146.287 141.916 145.649 141.559 145.248C141.201 144.837 140.733 144.666 140.157 144.734C139.78 144.778 139.414 144.922 139.059 145.165C138.713 145.397 138.414 145.699 138.164 146.071C137.923 146.432 137.767 146.833 137.696 147.274L138.229 152.029L137.216 152.149L135.995 141.267L137.008 141.148L137.555 146.022C137.798 145.41 138.174 144.902 138.682 144.5C139.199 144.087 139.771 143.843 140.396 143.769C140.843 143.717 141.23 143.752 141.555 143.874C141.891 143.996 142.17 144.2 142.394 144.485C142.626 144.76 142.809 145.096 142.945 145.493C143.079 145.88 143.174 146.327 143.231 146.834L143.741 151.38ZM149.27 150.879C148.714 150.945 148.186 150.902 147.686 150.749C147.184 150.587 146.739 150.342 146.35 150.015C145.96 149.679 145.639 149.278 145.385 148.815C145.142 148.35 144.989 147.84 144.927 147.283C144.845 146.558 144.934 145.873 145.194 145.228C145.464 144.582 145.871 144.045 146.417 143.619C146.962 143.182 147.607 142.92 148.351 142.832C149.116 142.742 149.802 142.847 150.41 143.148C151.027 143.448 151.533 143.882 151.929 144.449C152.324 145.007 152.561 145.643 152.642 146.359C152.651 146.438 152.66 146.518 152.668 146.597C152.676 146.667 152.677 146.722 152.672 146.763L146.028 147.546C146.14 148.097 146.35 148.575 146.657 148.982C146.973 149.378 147.354 149.68 147.8 149.89C148.255 150.088 148.731 150.158 149.228 150.099C149.734 150.039 150.196 149.854 150.614 149.543C151.042 149.231 151.322 148.855 151.454 148.417L152.36 148.552C152.242 148.938 152.036 149.3 151.742 149.637C151.448 149.973 151.086 150.253 150.658 150.474C150.239 150.685 149.777 150.82 149.27 150.879ZM145.916 146.819L151.651 146.143C151.548 145.582 151.338 145.103 151.022 144.707C150.716 144.31 150.336 144.018 149.882 143.829C149.437 143.63 148.961 143.56 148.455 143.62C147.949 143.68 147.501 143.858 147.111 144.156C146.721 144.444 146.416 144.822 146.197 145.291C145.987 145.749 145.893 146.258 145.916 146.819ZM129.256 168.946C129.201 168.459 129.293 168.025 129.532 167.644C129.77 167.254 130.122 166.936 130.587 166.689C131.062 166.432 131.621 166.265 132.267 166.189C132.644 166.145 133.04 166.129 133.454 166.14C133.868 166.152 134.24 166.199 134.571 166.28L134.498 165.624C134.424 164.969 134.172 164.47 133.741 164.128C133.31 163.786 132.752 163.655 132.067 163.736C131.65 163.785 131.247 163.913 130.857 164.12C130.477 164.316 130.085 164.589 129.681 164.938L129.214 164.269C129.681 163.861 130.149 163.544 130.616 163.318C131.083 163.082 131.569 162.934 132.076 162.874C133.029 162.762 133.815 162.946 134.432 163.427C135.05 163.908 135.413 164.631 135.521 165.595L135.924 169.187C135.94 169.326 135.981 169.427 136.049 169.489C136.115 169.542 136.213 169.566 136.343 169.56L136.434 170.365C136.326 170.388 136.232 170.409 136.154 170.429C136.076 170.448 136.016 170.455 135.975 170.45C135.726 170.469 135.528 170.412 135.383 170.278C135.237 170.144 135.149 169.993 135.12 169.825L135.042 169.261C134.745 169.749 134.332 170.15 133.803 170.464C133.274 170.768 132.721 170.954 132.145 171.022C131.649 171.08 131.185 171.029 130.755 170.868C130.333 170.697 129.988 170.445 129.719 170.115C129.459 169.773 129.305 169.383 129.256 168.946ZM134.522 168.929C134.615 168.777 134.685 168.633 134.73 168.497C134.775 168.361 134.792 168.243 134.781 168.144L134.653 167.011C134.301 166.921 133.938 166.864 133.562 166.837C133.197 166.81 132.831 166.818 132.463 166.861C131.738 166.946 131.168 167.16 130.754 167.5C130.339 167.841 130.16 168.26 130.216 168.757C130.248 169.045 130.353 169.31 130.531 169.551C130.708 169.781 130.95 169.964 131.257 170.099C131.563 170.224 131.909 170.264 132.297 170.219C132.783 170.161 133.225 170.014 133.62 169.776C134.026 169.536 134.327 169.254 134.522 168.929ZM142.229 169.833C141.584 169.91 140.984 169.809 140.43 169.532C139.885 169.254 139.436 168.884 139.082 168.422L139.62 173.207L138.607 173.326L137.378 162.385L138.287 162.278L138.456 163.784C138.709 163.26 139.077 162.819 139.56 162.46C140.042 162.091 140.576 161.872 141.162 161.803C141.698 161.74 142.203 161.796 142.675 161.972C143.147 162.138 143.567 162.391 143.937 162.73C144.308 163.069 144.609 163.471 144.843 163.937C145.085 164.392 145.235 164.878 145.293 165.394C145.375 166.12 145.301 166.808 145.072 167.459C144.852 168.1 144.5 168.635 144.015 169.064C143.53 169.494 142.935 169.75 142.229 169.833ZM141.846 168.972C142.273 168.922 142.646 168.793 142.965 168.584C143.282 168.365 143.543 168.093 143.748 167.767C143.963 167.439 144.114 167.084 144.202 166.701C144.289 166.308 144.31 165.913 144.265 165.516C144.218 165.098 144.099 164.709 143.908 164.349C143.727 163.988 143.486 163.679 143.185 163.423C142.885 163.166 142.551 162.974 142.184 162.846C141.818 162.718 141.431 162.678 141.024 162.726C140.766 162.756 140.503 162.838 140.236 162.97C139.969 163.102 139.717 163.277 139.48 163.497C139.252 163.705 139.066 163.933 138.923 164.182C138.78 164.43 138.703 164.686 138.692 164.949L138.96 167.334C139.16 167.683 139.411 167.991 139.713 168.257C140.013 168.514 140.347 168.711 140.715 168.849C141.092 168.976 141.469 169.017 141.846 168.972ZM150.768 168.827C150.212 168.893 149.684 168.849 149.184 168.697C148.692 168.533 148.252 168.288 147.863 167.961C147.483 167.623 147.172 167.227 146.93 166.772C146.687 166.308 146.535 165.807 146.475 165.27C146.412 164.714 146.448 164.186 146.584 163.687C146.718 163.178 146.938 162.719 147.244 162.31C147.549 161.891 147.923 161.55 148.367 161.287C148.819 161.012 149.323 160.842 149.879 160.776C150.435 160.711 150.959 160.76 151.45 160.923C151.941 161.077 152.381 161.322 152.771 161.659C153.16 161.985 153.476 162.381 153.719 162.846C153.961 163.301 154.114 163.806 154.176 164.363C154.236 164.899 154.2 165.422 154.066 165.931C153.93 166.431 153.71 166.89 153.405 167.308C153.109 167.716 152.734 168.057 152.282 168.332C151.839 168.595 151.334 168.761 150.768 168.827ZM147.504 165.164C147.569 165.74 147.752 166.253 148.054 166.7C148.365 167.137 148.749 167.469 149.207 167.697C149.664 167.915 150.151 167.994 150.668 167.933C151.184 167.872 151.64 167.677 152.036 167.349C152.432 167.02 152.732 166.602 152.937 166.095C153.14 165.577 153.21 165.035 153.147 164.469C153.082 163.893 152.894 163.381 152.582 162.935C152.27 162.488 151.885 162.151 151.427 161.923C150.969 161.695 150.481 161.611 149.965 161.672C149.448 161.733 148.993 161.933 148.598 162.271C148.213 162.609 147.919 163.031 147.714 163.538C147.508 164.036 147.438 164.578 147.504 165.164ZM159.687 167.776C159.121 167.843 158.588 167.8 158.088 167.647C157.597 167.484 157.151 167.234 156.751 166.899C156.361 166.562 156.039 166.162 155.786 165.698C155.543 165.234 155.39 164.728 155.329 164.182C155.247 163.446 155.335 162.756 155.595 162.111C155.854 161.466 156.257 160.931 156.803 160.504C157.349 160.077 158.004 159.819 158.769 159.728C159.494 159.643 160.153 159.737 160.747 160.009C161.34 160.271 161.803 160.67 162.134 161.205L161.186 161.634C160.923 161.262 160.581 160.99 160.159 160.818C159.746 160.635 159.301 160.572 158.824 160.628C158.308 160.689 157.851 160.879 157.454 161.197C157.057 161.516 156.756 161.924 156.55 162.422C156.354 162.918 156.29 163.464 156.357 164.06C156.423 164.647 156.612 165.163 156.923 165.61C157.235 166.056 157.621 166.399 158.08 166.636C158.538 166.864 159.026 166.948 159.542 166.887C159.88 166.847 160.196 166.75 160.49 166.594C160.795 166.437 161.05 166.246 161.256 166.021C161.471 165.784 161.605 165.541 161.658 165.294L162.689 165.474C162.591 165.858 162.395 166.219 162.101 166.555C161.816 166.881 161.464 167.154 161.046 167.374C160.637 167.584 160.184 167.718 159.687 167.776ZM163.603 164.898C163.548 164.411 163.641 163.977 163.88 163.597C164.117 163.206 164.469 162.888 164.935 162.642C165.409 162.385 165.969 162.218 166.614 162.142C166.992 162.097 167.387 162.081 167.801 162.093C168.215 162.104 168.588 162.151 168.919 162.233L168.845 161.577C168.771 160.921 168.519 160.422 168.088 160.08C167.658 159.738 167.1 159.608 166.414 159.688C165.997 159.738 165.594 159.866 165.205 160.073C164.824 160.269 164.432 160.541 164.029 160.891L163.561 160.221C164.028 159.814 164.496 159.497 164.964 159.27C165.43 159.034 165.917 158.886 166.423 158.826C167.377 158.714 168.162 158.898 168.78 159.379C169.397 159.861 169.76 160.583 169.868 161.547L170.271 165.139C170.287 165.279 170.329 165.379 170.396 165.442C170.462 165.494 170.561 165.518 170.691 165.513L170.781 166.318C170.673 166.341 170.58 166.362 170.501 166.381C170.423 166.4 170.364 166.407 170.323 166.402C170.073 166.421 169.876 166.364 169.73 166.23C169.584 166.096 169.497 165.946 169.468 165.778L169.389 165.213C169.092 165.701 168.679 166.102 168.151 166.416C167.621 166.72 167.069 166.906 166.493 166.974C165.996 167.033 165.532 166.982 165.102 166.821C164.68 166.649 164.335 166.398 164.066 166.067C163.807 165.725 163.652 165.335 163.603 164.898ZM168.869 164.882C168.963 164.73 169.032 164.586 169.077 164.449C169.122 164.313 169.139 164.195 169.128 164.096L169.001 162.963C168.649 162.874 168.285 162.816 167.91 162.79C167.544 162.762 167.178 162.77 166.81 162.813C166.085 162.899 165.516 163.112 165.101 163.453C164.687 163.794 164.507 164.213 164.563 164.71C164.595 164.998 164.7 165.262 164.878 165.503C165.055 165.734 165.297 165.917 165.604 166.052C165.91 166.177 166.257 166.217 166.644 166.171C167.131 166.114 167.572 165.966 167.968 165.728C168.374 165.489 168.674 165.207 168.869 164.882ZM171.42 155.217L172.433 155.098L173.458 164.22C173.501 164.608 173.599 164.853 173.751 164.956C173.904 165.059 174.079 165.098 174.278 165.075C174.457 165.054 174.633 165.013 174.808 164.952C174.982 164.891 175.131 164.834 175.256 164.779L175.527 165.577C175.347 165.679 175.121 165.771 174.848 165.854C174.586 165.935 174.355 165.987 174.157 166.011C173.7 166.064 173.317 165.974 173.009 165.738C172.711 165.501 172.536 165.149 172.483 164.682L171.42 155.217ZM177.124 167.987C177.264 167.981 177.398 167.97 177.527 167.954C177.658 167.949 177.751 167.933 177.809 167.906C177.926 167.872 178.032 167.789 178.128 167.657C178.224 167.525 178.327 167.281 178.438 166.926C178.549 166.57 178.702 166.049 178.897 165.361L174.643 157.994L175.716 157.867L179.316 164.255L181.183 157.223L182.196 157.104L179.298 167.595C179.25 167.792 179.165 167.978 179.044 168.153C178.924 168.339 178.765 168.488 178.566 168.602C178.379 168.725 178.137 168.809 177.84 168.854C177.752 168.875 177.657 168.886 177.557 168.887C177.467 168.898 177.357 168.901 177.226 168.896L177.124 167.987ZM188.462 164.385C187.817 164.461 187.217 164.361 186.662 164.084C186.118 163.806 185.669 163.436 185.315 162.974L185.852 167.759L184.839 167.878L183.611 156.937L184.52 156.83L184.689 158.335C184.942 157.812 185.31 157.371 185.793 157.012C186.275 156.643 186.809 156.424 187.395 156.355C187.931 156.292 188.435 156.348 188.908 156.524C189.379 156.69 189.8 156.943 190.17 157.282C190.54 157.621 190.842 158.023 191.076 158.489C191.318 158.944 191.468 159.43 191.526 159.946C191.607 160.672 191.534 161.36 191.305 162.011C191.085 162.651 190.733 163.186 190.248 163.616C189.762 164.046 189.167 164.302 188.462 164.385ZM188.079 163.524C188.506 163.474 188.879 163.344 189.197 163.136C189.515 162.917 189.776 162.645 189.981 162.318C190.196 161.991 190.347 161.636 190.435 161.253C190.522 160.86 190.543 160.465 190.498 160.067C190.451 159.65 190.332 159.261 190.141 158.901C189.959 158.54 189.718 158.231 189.418 157.974C189.117 157.718 188.784 157.526 188.417 157.398C188.051 157.27 187.664 157.23 187.257 157.278C186.998 157.308 186.736 157.389 186.469 157.521C186.202 157.654 185.95 157.829 185.713 158.049C185.485 158.257 185.299 158.485 185.156 158.733C185.013 158.982 184.936 159.238 184.925 159.501L185.193 161.886C185.393 162.235 185.644 162.542 185.946 162.809C186.246 163.066 186.58 163.263 186.948 163.401C187.324 163.528 187.701 163.569 188.079 163.524ZM196.241 163.469C195.606 163.543 195.003 163.509 194.433 163.364C193.864 163.22 193.356 162.958 192.911 162.577L193.248 161.813C193.731 162.169 194.201 162.415 194.659 162.552C195.126 162.679 195.608 162.713 196.104 162.654C196.71 162.583 197.189 162.405 197.539 162.122C197.889 161.83 198.038 161.455 197.986 160.997C197.952 160.689 197.831 160.467 197.625 160.33C197.427 160.182 197.149 160.079 196.79 160.021C196.44 159.951 196.02 159.885 195.53 159.822C194.977 159.736 194.508 159.635 194.122 159.519C193.746 159.393 193.449 159.216 193.233 158.99C193.025 158.753 192.898 158.43 192.853 158.023C192.796 157.516 192.873 157.084 193.084 156.727C193.305 156.359 193.624 156.064 194.042 155.844C194.469 155.612 194.955 155.464 195.501 155.4C196.097 155.33 196.634 155.362 197.112 155.497C197.59 155.632 197.992 155.851 198.318 156.155L197.904 156.899C197.59 156.614 197.231 156.419 196.827 156.316C196.432 156.201 196.001 156.172 195.534 156.227C195.216 156.264 194.918 156.345 194.64 156.468C194.361 156.581 194.138 156.749 193.972 156.97C193.814 157.179 193.755 157.453 193.793 157.791C193.824 158.069 193.918 158.28 194.075 158.423C194.23 158.555 194.454 158.66 194.744 158.736C195.033 158.803 195.388 158.872 195.809 158.943C196.412 159.033 196.942 159.137 197.398 159.254C197.853 159.362 198.214 159.531 198.482 159.761C198.749 159.991 198.909 160.34 198.961 160.807C199.043 161.532 198.833 162.131 198.333 162.603C197.832 163.075 197.135 163.363 196.241 163.469ZM204.247 162.525C203.691 162.591 203.163 162.547 202.662 162.395C202.161 162.232 201.716 161.988 201.327 161.661C200.937 161.324 200.616 160.924 200.362 160.461C200.119 159.996 199.966 159.485 199.903 158.929C199.822 158.203 199.911 157.518 200.171 156.873C200.44 156.227 200.848 155.691 201.394 155.264C201.939 154.828 202.583 154.565 203.328 154.478C204.093 154.387 204.779 154.493 205.386 154.794C206.004 155.094 206.51 155.527 206.906 156.095C207.301 156.653 207.538 157.289 207.618 158.005C207.627 158.084 207.636 158.164 207.645 158.243C207.653 158.313 207.654 158.368 207.649 158.409L201.005 159.192C201.117 159.742 201.327 160.221 201.634 160.628C201.95 161.024 202.331 161.326 202.777 161.535C203.232 161.734 203.708 161.803 204.204 161.745C204.711 161.685 205.173 161.5 205.591 161.189C206.019 160.877 206.299 160.501 206.431 160.063L207.336 160.198C207.219 160.584 207.013 160.946 206.719 161.282C206.424 161.619 206.063 161.898 205.635 162.12C205.216 162.33 204.753 162.466 204.247 162.525ZM200.893 158.465L206.628 157.789C206.525 157.227 206.315 156.749 205.999 156.353C205.693 155.956 205.313 155.663 204.859 155.475C204.414 155.276 203.938 155.206 203.432 155.266C202.925 155.325 202.477 155.504 202.088 155.802C201.698 156.089 201.393 156.468 201.174 156.936C200.964 157.394 200.87 157.904 200.893 158.465ZM132.141 188.996L131.269 181.229L132.282 181.11L133.154 188.876L132.141 188.996ZM131.086 179.605L130.919 178.114L131.932 177.995L132.099 179.485L131.086 179.605ZM137.949 188.462C137.313 188.537 136.711 188.502 136.141 188.358C135.571 188.214 135.064 187.951 134.619 187.571L134.956 186.806C135.438 187.162 135.909 187.409 136.367 187.546C136.834 187.672 137.316 187.706 137.812 187.648C138.418 187.576 138.896 187.399 139.247 187.116C139.596 186.823 139.745 186.448 139.694 185.991C139.66 185.683 139.539 185.46 139.332 185.324C139.135 185.176 138.856 185.073 138.498 185.014C138.148 184.945 137.728 184.878 137.238 184.815C136.685 184.73 136.215 184.629 135.83 184.513C135.454 184.386 135.157 184.21 134.941 183.984C134.733 183.746 134.606 183.424 134.56 183.016C134.503 182.51 134.581 182.078 134.792 181.72C135.012 181.352 135.332 181.058 135.75 180.837C136.176 180.606 136.663 180.458 137.209 180.393C137.805 180.323 138.342 180.356 138.82 180.491C139.298 180.626 139.7 180.845 140.026 181.149L139.611 181.893C139.298 181.607 138.939 181.413 138.535 181.31C138.139 181.195 137.708 181.165 137.242 181.22C136.924 181.258 136.626 181.338 136.348 181.462C136.069 181.575 135.846 181.742 135.68 181.963C135.522 182.173 135.462 182.447 135.5 182.785C135.532 183.063 135.626 183.273 135.783 183.416C135.938 183.549 136.161 183.653 136.452 183.73C136.741 183.797 137.096 183.865 137.516 183.937C138.12 184.027 138.65 184.13 139.106 184.248C139.561 184.355 139.922 184.524 140.189 184.755C140.457 184.985 140.617 185.333 140.669 185.801C140.75 186.526 140.541 187.125 140.04 187.596C139.54 188.068 138.843 188.357 137.949 188.462ZM137.532 206.635C136.966 206.702 136.433 206.659 135.933 206.507C135.442 206.343 134.996 206.094 134.596 205.758C134.206 205.421 133.885 205.021 133.631 204.558C133.388 204.093 133.236 203.587 133.174 203.041C133.092 202.306 133.18 201.615 133.44 200.971C133.7 200.326 134.102 199.79 134.648 199.363C135.194 198.936 135.849 198.678 136.614 198.588C137.339 198.502 137.998 198.596 138.592 198.868C139.185 199.131 139.648 199.529 139.98 200.064L139.031 200.493C138.768 200.121 138.426 199.849 138.004 199.678C137.591 199.495 137.146 199.431 136.67 199.487C136.153 199.548 135.696 199.738 135.3 200.057C134.903 200.375 134.601 200.783 134.396 201.281C134.2 201.777 134.135 202.324 134.202 202.92C134.268 203.506 134.457 204.023 134.769 204.469C135.08 204.916 135.466 205.258 135.925 205.496C136.384 205.724 136.871 205.807 137.387 205.746C137.725 205.707 138.041 205.609 138.336 205.453C138.64 205.297 138.895 205.106 139.101 204.88C139.316 204.643 139.45 204.401 139.503 204.153L140.534 204.333C140.437 204.717 140.241 205.078 139.946 205.415C139.661 205.74 139.309 206.013 138.891 206.234C138.482 206.443 138.029 206.577 137.532 206.635ZM145.576 205.688C145.02 205.753 144.492 205.71 143.992 205.557C143.5 205.394 143.06 205.148 142.671 204.822C142.291 204.484 141.98 204.087 141.738 203.633C141.494 203.168 141.343 202.667 141.282 202.131C141.22 201.574 141.256 201.046 141.391 200.547C141.525 200.038 141.746 199.579 142.052 199.17C142.357 198.752 142.731 198.411 143.175 198.147C143.627 197.872 144.131 197.702 144.687 197.636C145.243 197.571 145.767 197.62 146.258 197.784C146.749 197.937 147.189 198.182 147.579 198.519C147.968 198.846 148.284 199.242 148.527 199.706C148.769 200.161 148.922 200.667 148.984 201.223C149.044 201.76 149.007 202.283 148.873 202.792C148.738 203.291 148.518 203.75 148.213 204.169C147.917 204.576 147.542 204.917 147.09 205.192C146.647 205.456 146.142 205.621 145.576 205.688ZM142.312 202.025C142.377 202.601 142.56 203.113 142.862 203.561C143.172 203.997 143.557 204.33 144.015 204.558C144.472 204.776 144.959 204.854 145.476 204.793C145.992 204.732 146.448 204.538 146.844 204.209C147.24 203.881 147.54 203.463 147.745 202.955C147.948 202.438 148.018 201.896 147.955 201.329C147.89 200.753 147.702 200.242 147.39 199.795C147.078 199.348 146.693 199.011 146.235 198.783C145.776 198.555 145.289 198.472 144.773 198.533C144.256 198.593 143.801 198.793 143.406 199.132C143.021 199.469 142.727 199.891 142.522 200.399C142.316 200.896 142.246 201.438 142.312 202.025ZM162.657 203.524L161.644 203.643L161.157 199.305C161.055 198.401 160.837 197.752 160.501 197.359C160.165 196.965 159.714 196.802 159.147 196.869C158.562 196.938 158.059 197.209 157.639 197.681C157.229 198.152 156.966 198.727 156.851 199.405L157.383 204.145L156.37 204.265L155.883 199.927C155.781 199.013 155.567 198.363 155.242 197.979C154.916 197.584 154.465 197.421 153.889 197.489C153.313 197.556 152.814 197.822 152.393 198.284C151.972 198.746 151.705 199.322 151.591 200.01L152.125 204.765L151.112 204.884L150.24 197.118L151.163 197.009L151.361 198.768C151.621 198.123 151.985 197.607 152.455 197.219C152.935 196.831 153.487 196.599 154.113 196.526C154.758 196.45 155.3 196.572 155.739 196.893C156.177 197.214 156.475 197.667 156.631 198.253C156.915 197.555 157.286 197.008 157.745 196.611C158.214 196.214 158.766 195.977 159.401 195.903C159.838 195.851 160.215 195.887 160.53 196.011C160.856 196.134 161.125 196.334 161.337 196.611C161.558 196.877 161.732 197.214 161.858 197.622C161.994 198.019 162.09 198.47 162.146 198.977L162.657 203.524ZM164.801 203.271L163.929 195.505L164.942 195.385L165.814 203.152L164.801 203.271ZM163.747 193.88L163.579 192.389L164.592 192.27L164.76 193.761L163.747 193.88ZM174.57 202.12L173.557 202.239L173.07 197.901C172.968 196.987 172.759 196.337 172.444 195.951C172.128 195.556 171.682 195.392 171.106 195.46C170.708 195.506 170.327 195.652 169.962 195.896C169.596 196.131 169.283 196.435 169.023 196.808C168.772 197.17 168.606 197.572 168.524 198.014L169.058 202.769L168.045 202.889L167.173 195.123L168.097 195.014L168.295 196.773C168.461 196.37 168.697 196.01 169.003 195.692C169.309 195.364 169.666 195.096 170.075 194.886C170.484 194.677 170.917 194.545 171.374 194.492C171.801 194.441 172.173 194.478 172.488 194.602C172.804 194.726 173.068 194.926 173.28 195.203C173.492 195.47 173.66 195.808 173.787 196.216C173.912 196.614 174.003 197.067 174.06 197.573L174.57 202.12ZM179.856 201.603C179.329 201.665 178.83 201.613 178.359 201.447C177.887 201.281 177.467 201.033 177.098 200.704C176.738 200.364 176.442 199.966 176.209 199.51C175.977 199.054 175.832 198.573 175.776 198.066C175.714 197.519 175.741 196.998 175.856 196.501C175.981 195.993 176.18 195.531 176.456 195.116C176.741 194.7 177.09 194.362 177.504 194.102C177.916 193.831 178.391 193.665 178.927 193.602C179.592 193.523 180.187 193.624 180.712 193.905C181.246 194.184 181.71 194.552 182.104 195.009L181.922 193.385L182.83 193.278L183.706 201.074C183.786 201.789 183.68 202.411 183.387 202.939C183.105 203.475 182.685 203.902 182.127 204.22C181.579 204.536 180.962 204.735 180.277 204.815C179.393 204.92 178.66 204.845 178.078 204.591C177.496 204.338 177.001 203.963 176.593 203.467L177.164 202.902C177.526 203.352 177.974 203.667 178.507 203.846C179.051 204.024 179.61 204.078 180.186 204.011C180.693 203.951 181.144 203.802 181.54 203.564C181.947 203.335 182.254 203.022 182.461 202.625C182.678 202.227 182.755 201.749 182.693 201.193L182.52 199.658C182.277 200.18 181.914 200.62 181.431 200.979C180.947 201.328 180.422 201.536 179.856 201.603ZM180.043 200.72C180.351 200.683 180.638 200.594 180.904 200.452C181.179 200.309 181.426 200.134 181.645 199.927C181.862 199.71 182.037 199.478 182.17 199.231C182.304 198.983 182.377 198.738 182.39 198.495L182.12 196.095C181.929 195.735 181.678 195.427 181.367 195.172C181.056 194.906 180.712 194.715 180.337 194.598C179.97 194.47 179.599 194.429 179.221 194.473C178.784 194.525 178.402 194.665 178.076 194.895C177.758 195.114 177.498 195.391 177.294 195.727C177.099 196.052 176.958 196.411 176.872 196.804C176.785 197.197 176.763 197.582 176.805 197.96C176.852 198.377 176.971 198.766 177.162 199.126C177.353 199.476 177.594 199.785 177.885 200.053C178.186 200.309 178.519 200.497 178.884 200.615C179.26 200.732 179.646 200.767 180.043 200.72Z" fill="white"/>
<line y1="-1.5" x2="72.434" y2="-1.5" transform="matrix(0.111573 0.993756 -0.993128 0.117032 117.611 139.439)" stroke="#FFC100" stroke-width="3"/>
<defs>
<filter id="filter0_dd_217_470" x="82.7545" y="76.6413" width="137.212" height="643.113" filterUnits="userSpaceOnUse" color-interpolation-filters="sRGB">
<feFlood flood-opacity="0" result="BackgroundImageFix"/>
<feColorMatrix in="SourceAlpha" type="matrix" values="0 0 0 0 0 0 0 0 0 0 0 0 0 0 0 0 0 0 127 0" result="hardAlpha"/>
<feMorphology radius="3.50755" operator="dilate" in="SourceAlpha" result="effect1_dropShadow_217_470"/>
<feOffset dx="4.20906" dy="4.20906"/>
<feGaussianBlur stdDeviation="5.26132"/>
<feColorMatrix type="matrix" values="0 0 0 0 0 0 0 0 0 0 0 0 0 0 0 0 0 0 0.1 0"/>
<feBlend mode="normal" in2="BackgroundImageFix" result="effect1_dropShadow_217_470"/>
<feColorMatrix in="SourceAlpha" type="matrix" values="0 0 0 0 0 0 0 0 0 0 0 0 0 0 0 0 0 0 127 0" result="hardAlpha"/>
<feOffset dx="4.20906" dy="4.20906"/>
<feGaussianBlur stdDeviation="3.50755"/>
<feColorMatrix type="matrix" values="0 0 0 0 0 0 0 0 0 0 0 0 0 0 0 0 0 0 0.2 0"/>
<feBlend mode="normal" in2="effect1_dropShadow_217_470" result="effect2_dropShadow_217_470"/>
<feBlend mode="normal" in="SourceGraphic" in2="effect2_dropShadow_217_470" result="shape"/>
</filter>
<filter id="filter1_d_217_470" x="96.1722" y="73.4786" width="179.343" height="215.822" filterUnits="userSpaceOnUse" color-interpolation-filters="sRGB">
<feFlood flood-opacity="0" result="BackgroundImageFix"/>
<feColorMatrix in="SourceAlpha" type="matrix" values="0 0 0 0 0 0 0 0 0 0 0 0 0 0 0 0 0 0 127 0" result="hardAlpha"/>
<feOffset dx="0.70151" dy="1.40302"/>
<feGaussianBlur stdDeviation="1.75378"/>
<feColorMatrix type="matrix" values="0 0 0 0 0.883333 0 0 0 0 0.806042 0 0 0 0 0.806042 0 0 0 0.25 0"/>
<feBlend mode="normal" in2="BackgroundImageFix" result="effect1_dropShadow_217_470"/>
<feBlend mode="normal" in="SourceGraphic" in2="effect1_dropShadow_217_470" result="shape"/>
</filter>
<linearGradient id="paint0_linear_217_470" x1="10.2775" y1="189.629" x2="-17.7016" y2="186.948" gradientUnits="userSpaceOnUse">
<stop stop-opacity="0.2"/>
<stop offset="0.338542" stop-opacity="0"/>
<stop offset="0.630208" stop-color="white" stop-opacity="0"/>
<stop offset="1" stop-color="white" stop-opacity="0.3"/>
</linearGradient>
<linearGradient id="paint1_linear_217_470" x1="149.335" y1="194.141" x2="5.35349" y2="-1.66847" gradientUnits="userSpaceOnUse">
<stop stop-opacity="0.2"/>
<stop offset="0.338542" stop-opacity="0"/>
<stop offset="0.630208" stop-color="white" stop-opacity="0"/>
<stop offset="1" stop-color="white" stop-opacity="0.3"/>
</linearGradient>
<linearGradient id="paint2_linear_217_470" x1="149.335" y1="194.209" x2="5.28777" y2="-1.62072" gradientUnits="userSpaceOnUse">
<stop stop-opacity="0.2"/>
<stop offset="0.338542" stop-opacity="0"/>
<stop offset="0.630208" stop-color="white" stop-opacity="0"/>
<stop offset="1" stop-color="white" stop-opacity="0.3"/>
</linearGradient>
<clipPath id="clip0_217_470">
<rect width="10.2775" height="189.629" fill="white" transform="matrix(0.626174 0.187078 0.115793 1.03492 92.5757 86.4624)"/>
</clipPath>
<clipPath id="clip1_217_470">
<rect width="66.6434" height="582.253" fill="white" transform="matrix(0.626174 0.187078 0.115793 1.03492 92.5757 86.4624)"/>
</clipPath>
<clipPath id="clip2_217_470">
<path d="M92.603 86.4695C96.1573 87.5314 99.5714 93.1543 100.229 99.0286L119.806 274.007C120.464 279.881 118.115 283.782 114.561 282.721L92.603 86.4695Z" fill="white"/>
</clipPath>
<clipPath id="clip3_217_470">
<path d="M98.9783 88.5939L227.825 77.4167C239.498 76.4041 250.02 84.8644 251.327 96.3134L268.42 246.088C269.727 257.537 261.323 267.639 249.649 268.651L120.803 279.829L98.9783 88.5939Z" fill="white"/>
</clipPath>
<clipPath id="clip4_217_470">
<path d="M98.9783 88.5939L227.825 77.4167C239.498 76.4041 250.02 84.8644 251.327 96.3134L268.428 246.155C269.734 257.604 261.33 267.706 249.657 268.719L120.811 279.896L98.9783 88.5939Z" fill="white"/>
</clipPath>
</defs>
</svg>
