<svg width="169" height="177" viewBox="0 0 169 177" fill="none" xmlns="http://www.w3.org/2000/svg">
<path d="M38.1661 44.2169L82.7983 37.2769C94.0297 35.5305 104.849 43.3221 107.069 54.7561L118.299 112.593C120.6 124.444 112.786 135.544 101.091 137.036L54.6757 142.959L38.1661 44.2169Z" fill="#D3D3D3"/>
<path d="M38.3283 44.5693L84.957 37.5423C96.456 35.8094 107.42 44.0457 109.269 55.8052L118.287 113.179C120.11 124.776 112.362 135.374 100.982 136.847L54.3233 142.89L38.3283 44.5693Z" fill="#E2E2E2"/>
<path d="M37.6575 43.8793L87.3157 37.5912C98.6693 36.1535 109.327 44.3441 111.151 55.9089L120.133 112.859C121.963 124.46 114.213 135.065 102.83 136.539L54.0306 142.858L37.6575 43.8793Z" fill="#EDEDED"/>
<path d="M40.3569 44.501L88.6639 38.2152C100.296 36.7016 111.154 45.299 112.639 57.1977L119.663 113.504C121.083 124.885 113.371 135.073 102.245 136.516L53.6429 142.82L40.3569 44.501Z" fill="#F5F5F5"/>
<g clip-path="url(#clip0_217_472)">
<g clip-path="url(#clip1_217_472)">
<g filter="url(#filter0_dd_217_472)">
<rect width="66.6434" height="582.253" transform="matrix(0.624322 0.196185 0.110254 1.03645 37.639 43.8511)" fill="#FFC100"/>
</g>
</g>
</g>
<g clip-path="url(#clip2_217_472)">
<rect width="4.97044" height="96.0312" transform="matrix(0.624322 0.196185 0.110254 1.03645 37.6516 43.854)" fill="url(#paint0_linear_217_472)" fill-opacity="0.5"/>
<path d="M37.5277 40.8662L48.7612 146.467" stroke="white" stroke-opacity="0.16" stroke-width="1.05226"/>
<path d="M37.3356 40.8059L48.5691 146.406" stroke="white" stroke-opacity="0.16" stroke-width="2.10453"/>
</g>
<g filter="url(#filter1_d_217_472)">
<g clip-path="url(#clip3_217_472)">
<rect width="72.6379" height="97.5258" transform="matrix(0.995631 -0.0908421 0.107907 0.994478 40.7261 44.9315)" fill="url(#paint1_linear_217_472)" fill-opacity="0.5"/>
<path d="M45.083 41.5778L56.2932 144.891" stroke="white" stroke-opacity="0.16" stroke-width="1.05227"/>
<path d="M40.606 41.9863L51.8161 145.3" stroke="white" stroke-opacity="0.16" stroke-width="2.10453"/>
</g>
<g clip-path="url(#clip4_217_472)">
<rect width="72.6379" height="97.5601" transform="matrix(0.995631 -0.0908421 0.107907 0.994478 40.7261 44.9315)" fill="url(#paint2_linear_217_472)" fill-opacity="0.5"/>
<path d="M45.083 41.5778L56.2932 144.891" stroke="white" stroke-opacity="0.16" stroke-width="1.05227"/>
<path d="M40.606 41.9863L51.8161 145.3" stroke="white" stroke-opacity="0.16" stroke-width="2.10453"/>
</g>
</g>
<rect x="40.5546" y="44.896" width="72.3" height="99.12" transform="rotate(-6.62517 40.5546 44.896)" fill="#2F3234" stroke="white"/>
<path d="M58.9151 129.821L58.7473 128.377L59.2355 128.32C59.3488 128.307 59.4439 128.316 59.5206 128.349C59.5977 128.381 59.6577 128.43 59.7005 128.495C59.7434 128.56 59.7697 128.635 59.7796 128.72C59.7895 128.805 59.7811 128.885 59.7544 128.958C59.7281 129.032 59.6814 129.094 59.6143 129.143C59.547 129.193 59.4572 129.224 59.3448 129.237L58.9949 129.277L58.9769 129.122L59.3212 129.082C59.3988 129.073 59.4595 129.053 59.5034 129.02C59.5474 128.988 59.5773 128.948 59.5931 128.9C59.6094 128.851 59.6142 128.798 59.6075 128.74C59.6007 128.682 59.5839 128.632 59.557 128.589C59.5305 128.545 59.492 128.514 59.4415 128.493C59.391 128.473 59.3264 128.467 59.2479 128.476L58.9403 128.512L59.0901 129.801L58.9151 129.821ZM60.4754 129.666C60.4067 129.674 60.3429 129.668 60.284 129.649C60.2249 129.629 60.1761 129.596 60.1374 129.551C60.0987 129.505 60.0753 129.446 60.0671 129.376C60.0599 129.314 60.0662 129.262 60.0862 129.221C60.1061 129.179 60.1353 129.144 60.1736 129.118C60.212 129.091 60.2552 129.069 60.3033 129.052C60.3519 129.035 60.4009 129.021 60.4505 129.008C60.5154 128.992 60.568 128.98 60.6084 128.971C60.6493 128.961 60.6785 128.95 60.696 128.937C60.7141 128.924 60.7215 128.904 60.7184 128.877L60.7177 128.871C60.7097 128.802 60.6843 128.75 60.6417 128.716C60.5996 128.682 60.5403 128.669 60.4636 128.678C60.3841 128.687 60.3238 128.712 60.2827 128.752C60.2416 128.792 60.2142 128.833 60.2004 128.874L60.0358 128.836C60.0564 128.767 60.0881 128.711 60.1308 128.669C60.174 128.627 60.2228 128.595 60.277 128.574C60.3317 128.552 60.3864 128.538 60.4409 128.532C60.4757 128.528 60.5162 128.527 60.5623 128.53C60.6089 128.533 60.6548 128.545 60.7001 128.565C60.7458 128.586 60.7858 128.62 60.8199 128.668C60.8541 128.716 60.8762 128.783 60.8862 128.869L60.9691 129.583L60.8026 129.602L60.7856 129.456L60.7771 129.456C60.7686 129.481 60.7527 129.509 60.7294 129.539C60.7062 129.568 60.6738 129.595 60.6323 129.619C60.5907 129.643 60.5384 129.659 60.4754 129.666ZM60.4834 129.513C60.5493 129.506 60.6033 129.486 60.6454 129.455C60.688 129.424 60.7185 129.387 60.7368 129.343C60.7556 129.3 60.7623 129.255 60.7571 129.21L60.7394 129.058C60.7333 129.067 60.7187 129.076 60.6955 129.086C60.6728 129.096 60.6462 129.105 60.6157 129.113C60.5857 129.122 60.5563 129.129 60.5276 129.137C60.4993 129.143 60.4763 129.149 60.4587 129.153C60.4161 129.164 60.3767 129.178 60.3406 129.195C60.3049 129.211 60.2769 129.233 60.2568 129.261C60.237 129.288 60.2296 129.323 60.2345 129.365C60.2413 129.423 60.2677 129.464 60.314 129.489C60.3606 129.513 60.4171 129.521 60.4834 129.513ZM61.273 129.548L61.1472 128.464L61.308 128.445L61.327 128.609L61.3383 128.608C61.3518 128.552 61.3825 128.504 61.4304 128.465C61.4782 128.425 61.5346 128.402 61.5995 128.394C61.6117 128.393 61.6271 128.391 61.6455 128.39C61.6639 128.388 61.6778 128.387 61.6873 128.387L61.707 128.556C61.7012 128.556 61.688 128.555 61.6675 128.554C61.6473 128.553 61.6262 128.554 61.6041 128.557C61.5514 128.563 61.5057 128.579 61.4668 128.606C61.4284 128.633 61.3995 128.667 61.38 128.708C61.3609 128.749 61.3542 128.794 61.3599 128.843L61.4395 129.528L61.273 129.548ZM62.4255 128.316L62.4419 128.457L61.8803 128.522L61.8639 128.381L62.4255 128.316ZM61.9974 128.102L62.1639 128.083L62.2839 129.116C62.2894 129.163 62.3003 129.197 62.3166 129.219C62.3334 129.24 62.3531 129.254 62.3757 129.259C62.3987 129.264 62.4224 129.265 62.4468 129.263C62.4652 129.26 62.4801 129.258 62.4916 129.254C62.5031 129.251 62.5123 129.248 62.5192 129.246L62.5704 129.391C62.5597 129.397 62.5444 129.403 62.5247 129.409C62.505 129.416 62.4796 129.422 62.4486 129.425C62.4015 129.431 62.3543 129.426 62.3068 129.411C62.2597 129.396 62.219 129.37 62.1846 129.332C62.1506 129.294 62.13 129.243 62.1226 129.18L61.9974 128.102ZM63.6979 127.802L63.8657 129.246L63.6907 129.267L63.5442 128.005L63.5357 128.006L63.2102 128.282L63.1895 128.104L63.5229 127.822L63.6979 127.802ZM65.2856 129.104C65.1878 129.116 65.0992 129.102 65.02 129.065C64.9412 129.026 64.8763 128.968 64.8252 128.889C64.7745 128.81 64.7427 128.715 64.7297 128.603C64.7166 128.49 64.7256 128.389 64.7567 128.3C64.7883 128.211 64.8381 128.139 64.9061 128.084C64.9745 128.029 65.0577 127.995 65.1555 127.984C65.2533 127.973 65.3416 127.986 65.4204 128.024C65.4996 128.062 65.5646 128.121 65.6153 128.2C65.6665 128.28 65.6986 128.376 65.7117 128.489C65.7247 128.601 65.7154 128.701 65.6837 128.789C65.6525 128.878 65.6027 128.95 65.5343 129.005C65.4663 129.06 65.3834 129.093 65.2856 129.104ZM65.2682 128.955C65.3425 128.946 65.4015 128.92 65.445 128.876C65.4886 128.833 65.5183 128.779 65.5341 128.714C65.5499 128.649 65.5536 128.58 65.5452 128.508C65.5368 128.436 65.5175 128.369 65.4871 128.31C65.4568 128.25 65.4155 128.203 65.363 128.17C65.3105 128.137 65.2472 128.125 65.1729 128.134C65.0985 128.142 65.0396 128.169 64.9962 128.213C64.9527 128.257 64.923 128.312 64.9072 128.377C64.8915 128.442 64.8878 128.511 64.8962 128.583C64.9046 128.656 64.9239 128.722 64.9542 128.781C64.9844 128.841 65.0258 128.887 65.0782 128.919C65.1306 128.952 65.1939 128.964 65.2682 128.955ZM66.3848 127.856L66.4012 127.997L65.8171 128.065L65.8007 127.923L66.3848 127.856ZM66.1015 128.987L65.9583 127.754C65.9511 127.692 65.9597 127.638 65.984 127.593C66.0084 127.549 66.0426 127.513 66.0868 127.487C66.1309 127.461 66.1789 127.445 66.2306 127.439C66.2715 127.434 66.3053 127.433 66.3319 127.437C66.3586 127.441 66.3786 127.445 66.3919 127.449L66.3607 127.598C66.3519 127.596 66.3397 127.594 66.3242 127.592C66.3091 127.589 66.2896 127.589 66.2656 127.592C66.2105 127.598 66.1724 127.617 66.1512 127.648C66.1304 127.678 66.1231 127.72 66.1294 127.774L66.268 128.967L66.1015 128.987ZM67.6482 127.709L67.6646 127.85L67.103 127.915L67.0866 127.774L67.6482 127.709ZM67.2201 127.495L67.3866 127.476L67.5066 128.509C67.5121 128.556 67.523 128.591 67.5393 128.612C67.5561 128.634 67.5758 128.647 67.5984 128.653C67.6214 128.658 67.6451 128.659 67.6695 128.656C67.6879 128.654 67.7028 128.651 67.7144 128.648C67.7258 128.644 67.735 128.641 67.7419 128.639L67.7932 128.785C67.7824 128.79 67.7671 128.796 67.7474 128.803C67.7277 128.81 67.7023 128.815 67.6713 128.819C67.6242 128.824 67.577 128.819 67.5295 128.804C67.4825 128.789 67.4417 128.763 67.4073 128.725C67.3733 128.687 67.3527 128.637 67.3453 128.573L67.2201 127.495ZM68.1386 128.09L68.2143 128.741L68.0478 128.761L67.88 127.316L68.0465 127.297L68.1081 127.827L68.1222 127.825C68.1411 127.767 68.174 127.718 68.221 127.679C68.2684 127.639 68.3346 127.615 68.4198 127.605C68.4936 127.596 68.56 127.604 68.6189 127.627C68.6778 127.65 68.7261 127.69 68.7637 127.747C68.8017 127.803 68.8261 127.878 68.837 127.971L68.9169 128.66L68.7504 128.679L68.6718 128.002C68.6618 127.916 68.6317 127.852 68.5816 127.81C68.5318 127.768 68.4677 127.751 68.3892 127.76C68.3346 127.766 68.287 127.784 68.2464 127.812C68.2063 127.84 68.1764 127.877 68.1566 127.924C68.1372 127.971 68.1312 128.027 68.1386 128.09ZM69.6785 128.594C69.5741 128.606 69.4813 128.594 69.4003 128.556C69.3196 128.519 69.254 128.46 69.2034 128.382C69.1532 128.303 69.1217 128.208 69.1088 128.097C69.0959 127.986 69.1048 127.886 69.1354 127.796C69.1664 127.707 69.2156 127.634 69.283 127.578C69.3508 127.521 69.4336 127.487 69.5314 127.476C69.5879 127.469 69.6447 127.472 69.7019 127.485C69.7591 127.497 69.8128 127.522 69.8628 127.559C69.9128 127.596 69.9553 127.647 69.9901 127.713C70.0249 127.779 70.0482 127.862 70.06 127.964L70.0682 128.034L69.2329 128.131L69.2162 127.987L69.8821 127.91C69.875 127.849 69.8565 127.796 69.8264 127.75C69.7969 127.705 69.7582 127.671 69.7103 127.649C69.6628 127.626 69.609 127.618 69.5488 127.625C69.4825 127.633 69.427 127.656 69.3824 127.695C69.3382 127.733 69.3062 127.779 69.2864 127.835C69.2666 127.89 69.2601 127.947 69.2671 128.007L69.2782 128.103C69.2877 128.185 69.3099 128.253 69.3447 128.306C69.38 128.359 69.4247 128.398 69.479 128.421C69.5331 128.445 69.5939 128.452 69.6611 128.445C69.7049 128.44 69.7436 128.429 69.7775 128.413C69.8118 128.396 69.8404 128.373 69.8634 128.345C69.8863 128.317 69.9026 128.283 69.9124 128.244L70.0784 128.27C70.0679 128.327 70.045 128.378 70.0098 128.424C69.9746 128.47 69.9289 128.507 69.8728 128.537C69.8166 128.567 69.7519 128.586 69.6785 128.594ZM70.9591 128.423L70.7913 126.978L70.9578 126.958L71.0198 127.492L71.0339 127.49C71.0439 127.47 71.0581 127.444 71.0763 127.412C71.095 127.38 71.1234 127.35 71.1617 127.322C71.2003 127.294 71.2549 127.276 71.3255 127.267C71.4167 127.257 71.4998 127.27 71.5747 127.308C71.6496 127.345 71.7114 127.404 71.7602 127.483C71.809 127.562 71.84 127.659 71.8532 127.772C71.8665 127.887 71.8585 127.989 71.8293 128.078C71.8 128.166 71.7534 128.237 71.6896 128.291C71.6258 128.345 71.5487 128.377 71.4584 128.387C71.3888 128.396 71.3317 128.391 71.2872 128.372C71.2426 128.354 71.2073 128.331 71.1813 128.304C71.1552 128.276 71.1349 128.253 71.1204 128.235L71.1007 128.237L71.12 128.404L70.9591 128.423ZM71.0599 127.862C71.0694 127.944 71.0898 128.014 71.121 128.074C71.1522 128.133 71.1929 128.178 71.2431 128.208C71.2932 128.237 71.3517 128.248 71.4185 128.241C71.4881 128.232 71.544 128.207 71.5863 128.165C71.6291 128.123 71.6585 128.069 71.6748 128.003C71.6915 127.938 71.6953 127.866 71.6863 127.789C71.6775 127.713 71.6578 127.646 71.6271 127.587C71.5969 127.528 71.5563 127.484 71.5051 127.453C71.4543 127.422 71.3936 127.411 71.3231 127.419C71.2554 127.427 71.2005 127.451 71.1583 127.491C71.1162 127.53 71.0869 127.581 71.0705 127.645C71.054 127.709 71.0505 127.781 71.0599 127.862ZM72.6274 128.252C72.523 128.264 72.4303 128.251 72.3492 128.214C72.2685 128.176 72.2029 128.118 72.1523 128.039C72.1021 127.96 72.0706 127.865 72.0577 127.754C72.0448 127.643 72.0537 127.543 72.0843 127.454C72.1153 127.364 72.1645 127.291 72.2319 127.235C72.2997 127.179 72.3825 127.145 72.4804 127.133C72.5368 127.127 72.5936 127.13 72.6508 127.142C72.708 127.155 72.7617 127.179 72.8118 127.216C72.8618 127.253 72.9042 127.304 72.939 127.37C72.9739 127.436 72.9972 127.52 73.0089 127.621L73.0171 127.692L72.1818 127.789L72.1651 127.645L72.8311 127.567C72.824 127.506 72.8054 127.453 72.7754 127.408C72.7458 127.363 72.7071 127.329 72.6592 127.306C72.6117 127.284 72.5579 127.276 72.4977 127.283C72.4314 127.291 72.3759 127.314 72.3313 127.352C72.2871 127.39 72.2551 127.437 72.2353 127.492C72.2155 127.547 72.2091 127.605 72.216 127.665L72.2272 127.761C72.2367 127.842 72.2588 127.91 72.2937 127.964C72.3289 128.017 72.3736 128.055 72.4279 128.079C72.4821 128.102 72.5428 128.11 72.61 128.102C72.6538 128.097 72.6926 128.086 72.7264 128.07C72.7607 128.053 72.7893 128.031 72.8123 128.003C72.8352 127.974 72.8515 127.941 72.8613 127.901L73.0274 127.928C73.0168 127.984 72.9939 128.036 72.9587 128.082C72.9235 128.127 72.8778 128.165 72.8217 128.195C72.7655 128.224 72.7008 128.243 72.6274 128.252ZM73.9966 127.217L73.852 127.277C73.8397 127.253 73.823 127.231 73.8019 127.209C73.7813 127.187 73.7545 127.171 73.7217 127.159C73.6888 127.147 73.6482 127.144 73.5997 127.149C73.5334 127.157 73.4799 127.179 73.4393 127.214C73.399 127.249 73.3816 127.29 73.387 127.337C73.3918 127.378 73.4107 127.409 73.4436 127.43C73.4765 127.45 73.5258 127.465 73.5916 127.473L73.7571 127.494C73.8567 127.506 73.9331 127.534 73.9862 127.577C74.0393 127.619 74.0702 127.678 74.079 127.754C74.0862 127.816 74.0748 127.874 74.0447 127.927C74.0151 127.98 73.9702 128.024 73.91 128.06C73.8498 128.095 73.7776 128.118 73.6934 128.128C73.5829 128.141 73.4886 128.127 73.4106 128.088C73.3326 128.048 73.2786 127.983 73.2486 127.894L73.4021 127.836C73.4239 127.892 73.4574 127.933 73.5027 127.957C73.5484 127.981 73.6053 127.989 73.6735 127.981C73.7511 127.972 73.8108 127.949 73.8526 127.911C73.8948 127.872 73.9132 127.829 73.9078 127.783C73.9035 127.745 73.8866 127.715 73.8574 127.693C73.828 127.67 73.7853 127.655 73.7293 127.649L73.5438 127.628C73.4418 127.616 73.3647 127.588 73.3124 127.544C73.2605 127.499 73.2302 127.44 73.2215 127.365C73.2144 127.304 73.2253 127.248 73.2542 127.196C73.2835 127.145 73.3265 127.103 73.3831 127.069C73.4402 127.035 73.5068 127.014 73.583 127.005C73.6903 126.993 73.7772 127.007 73.8438 127.046C73.9109 127.086 73.9618 127.143 73.9966 127.217ZM74.7101 126.889L74.7265 127.03L74.1649 127.095L74.1485 126.954L74.7101 126.889ZM74.282 126.675L74.4485 126.656L74.5685 127.689C74.574 127.736 74.5849 127.77 74.6012 127.792C74.618 127.814 74.6377 127.827 74.6603 127.833C74.6833 127.837 74.707 127.839 74.7314 127.836C74.7498 127.834 74.7647 127.831 74.7763 127.828C74.7877 127.824 74.7969 127.821 74.8038 127.819L74.8551 127.964C74.8443 127.97 74.829 127.976 74.8093 127.983C74.7896 127.99 74.7642 127.995 74.7332 127.999C74.6861 128.004 74.6389 127.999 74.5914 127.984C74.5444 127.969 74.5036 127.943 74.4692 127.905C74.4352 127.867 74.4146 127.816 74.4072 127.753L74.282 126.675ZM75.7369 127.015L75.5922 127.075C75.5799 127.051 75.5633 127.029 75.5422 127.007C75.5215 126.985 75.4948 126.968 75.4619 126.956C75.4291 126.945 75.3884 126.941 75.34 126.947C75.2737 126.955 75.2202 126.976 75.1795 127.012C75.1393 127.047 75.1219 127.088 75.1273 127.135C75.1321 127.176 75.1509 127.207 75.1838 127.228C75.2167 127.248 75.2661 127.263 75.3319 127.271L75.4973 127.292C75.5969 127.304 75.6733 127.332 75.7264 127.375C75.7795 127.417 75.8105 127.476 75.8192 127.552C75.8265 127.614 75.815 127.672 75.785 127.725C75.7554 127.778 75.7105 127.822 75.6503 127.858C75.59 127.893 75.5178 127.916 75.4337 127.926C75.3231 127.939 75.2289 127.925 75.1509 127.886C75.0729 127.846 75.0189 127.781 74.9889 127.691L75.1423 127.634C75.1641 127.69 75.1977 127.731 75.2429 127.755C75.2886 127.779 75.3456 127.787 75.4138 127.779C75.4914 127.77 75.5511 127.747 75.5929 127.708C75.6351 127.67 75.6535 127.627 75.6481 127.581C75.6437 127.543 75.6269 127.513 75.5976 127.491C75.5683 127.468 75.5256 127.453 75.4695 127.447L75.284 127.425C75.1821 127.413 75.1049 127.385 75.0526 127.342C75.0007 127.297 74.9705 127.237 74.9618 127.163C74.9547 127.101 74.9656 127.045 74.9944 126.994C75.0238 126.943 75.0667 126.901 75.1234 126.867C75.1804 126.833 75.2471 126.812 75.3233 126.803C75.4305 126.791 75.5174 126.804 75.584 126.844C75.6511 126.884 75.7021 126.941 75.7369 127.015ZM76.5619 127.795C76.4575 127.807 76.3647 127.794 76.2837 127.757C76.203 127.719 76.1374 127.661 76.0868 127.582C76.0366 127.503 76.0051 127.408 75.9922 127.297C75.9793 127.186 75.9882 127.086 76.0188 126.997C76.0498 126.907 76.099 126.834 76.1664 126.778C76.2342 126.722 76.317 126.688 76.4148 126.676C76.4713 126.67 76.5281 126.673 76.5853 126.685C76.6425 126.698 76.6962 126.722 76.7462 126.759C76.7963 126.796 76.8387 126.847 76.8735 126.913C76.9084 126.979 76.9316 127.063 76.9434 127.164L76.9516 127.235L76.1163 127.332L76.0996 127.188L76.7656 127.11C76.7585 127.049 76.7399 126.996 76.7099 126.951C76.6803 126.906 76.6416 126.872 76.5937 126.849C76.5462 126.827 76.4924 126.819 76.4322 126.826C76.3659 126.834 76.3104 126.857 76.2658 126.895C76.2216 126.933 76.1896 126.98 76.1698 127.035C76.15 127.09 76.1436 127.148 76.1505 127.208L76.1616 127.304C76.1711 127.385 76.1933 127.453 76.2281 127.507C76.2634 127.56 76.3081 127.598 76.3624 127.622C76.4165 127.645 76.4773 127.653 76.5445 127.645C76.5883 127.64 76.6271 127.629 76.6609 127.613C76.6952 127.596 76.7238 127.574 76.7468 127.546C76.7697 127.517 76.786 127.484 76.7958 127.444L76.9619 127.471C76.9513 127.527 76.9284 127.579 76.8932 127.625C76.858 127.67 76.8123 127.708 76.7562 127.738C76.7 127.767 76.6353 127.786 76.5619 127.795ZM77.2599 126.226L77.4277 127.671L77.2612 127.691L77.0934 126.246L77.2599 126.226ZM77.7313 126.172L77.8992 127.617L77.7327 127.636L77.5649 126.191L77.7313 126.172ZM78.2041 127.581L78.0782 126.497L78.2447 126.478L78.3706 127.562L78.2041 127.581ZM78.1419 126.307C78.1095 126.311 78.0802 126.303 78.0541 126.284C78.0285 126.264 78.0139 126.239 78.0103 126.208C78.0067 126.177 78.0151 126.149 78.0356 126.124C78.0566 126.099 78.0833 126.085 78.1157 126.081C78.1482 126.077 78.1772 126.085 78.2028 126.105C78.2289 126.124 78.2437 126.149 78.2473 126.18C78.2509 126.211 78.2423 126.239 78.2213 126.264C78.2008 126.289 78.1744 126.303 78.1419 126.307ZM78.7663 126.855L78.842 127.507L78.6756 127.526L78.5497 126.443L78.7105 126.424L78.7302 126.593L78.7443 126.592C78.7633 126.534 78.7968 126.485 78.8446 126.446C78.8924 126.406 78.9572 126.381 79.0391 126.372C79.1124 126.363 79.1784 126.371 79.2369 126.394C79.2954 126.418 79.3434 126.458 79.381 126.515C79.4186 126.572 79.4427 126.646 79.4534 126.738L79.5334 127.427L79.3669 127.446L79.2883 126.769C79.2784 126.684 79.2486 126.62 79.1988 126.578C79.1491 126.535 79.0856 126.518 79.0085 126.527C78.9553 126.533 78.9092 126.55 78.87 126.578C78.8313 126.606 78.8025 126.643 78.7836 126.69C78.7648 126.737 78.759 126.792 78.7663 126.855ZM80.3249 127.769C80.2445 127.779 80.1741 127.777 80.1139 127.763C80.0537 127.749 80.0023 127.728 79.9599 127.699C79.918 127.67 79.8835 127.639 79.8566 127.604L79.9784 127.495C79.9958 127.513 80.0174 127.533 80.0434 127.556C80.0695 127.579 80.1036 127.598 80.1457 127.612C80.1884 127.627 80.2425 127.63 80.3078 127.623C80.3953 127.613 80.4651 127.583 80.517 127.534C80.569 127.485 80.5898 127.416 80.5793 127.325L80.5537 127.105L80.5396 127.107C80.5297 127.128 80.5151 127.154 80.4959 127.186C80.4772 127.217 80.4482 127.247 80.4089 127.274C80.3701 127.301 80.3154 127.319 80.2449 127.327C80.1574 127.337 80.0764 127.325 80.002 127.292C79.9281 127.259 79.8663 127.205 79.8167 127.131C79.7675 127.056 79.7364 126.963 79.7233 126.85C79.7104 126.739 79.7187 126.64 79.7482 126.553C79.7776 126.466 79.8245 126.395 79.8888 126.342C79.9531 126.289 80.0309 126.256 80.1222 126.246C80.1927 126.238 80.25 126.243 80.2942 126.262C80.3387 126.28 80.3737 126.302 80.3993 126.329C80.4253 126.356 80.4454 126.378 80.4599 126.395L80.4768 126.393L80.4568 126.221L80.6176 126.203L80.7471 127.317C80.7579 127.41 80.7456 127.488 80.71 127.552C80.675 127.615 80.6235 127.665 80.5557 127.7C80.4884 127.736 80.4114 127.759 80.3249 127.769ZM80.2501 127.175C80.3169 127.167 80.3715 127.145 80.4141 127.109C80.4566 127.073 80.4865 127.025 80.5039 126.965C80.5212 126.905 80.5252 126.835 80.5159 126.755C80.5068 126.677 80.4871 126.609 80.4566 126.552C80.4262 126.495 80.3859 126.453 80.3359 126.424C80.2859 126.395 80.227 126.385 80.1593 126.393C80.0887 126.401 80.032 126.426 79.9891 126.467C79.9467 126.508 79.9173 126.56 79.9007 126.623C79.8847 126.686 79.8809 126.754 79.8894 126.828C79.8982 126.903 79.9177 126.968 79.9479 127.023C79.9786 127.078 80.0191 127.119 80.0695 127.146C80.1203 127.173 80.1805 127.183 80.2501 127.175ZM82.2769 126.256L82.1323 126.315C82.12 126.292 82.1033 126.269 82.0822 126.248C82.0615 126.226 82.0348 126.209 82.0019 126.197C81.9691 126.185 81.9285 126.182 81.88 126.187C81.8137 126.195 81.7602 126.217 81.7196 126.253C81.6793 126.288 81.6619 126.329 81.6673 126.375C81.6721 126.417 81.691 126.448 81.7238 126.468C81.7567 126.488 81.8061 126.503 81.8719 126.512L82.0373 126.532C82.137 126.545 82.2133 126.572 82.2665 126.615C82.3195 126.658 82.3505 126.717 82.3593 126.792C82.3665 126.855 82.3551 126.912 82.325 126.965C82.2954 127.018 82.2505 127.062 82.1903 127.098C82.1301 127.134 82.0579 127.156 81.9737 127.166C81.8631 127.179 81.7689 127.166 81.6909 127.126C81.6129 127.086 81.5589 127.022 81.5289 126.932L81.6823 126.874C81.7042 126.931 81.7377 126.971 81.7829 126.995C81.8286 127.019 81.8856 127.028 81.9538 127.02C82.0314 127.011 82.0911 126.987 82.1329 126.949C82.1751 126.91 82.1935 126.867 82.1881 126.821C82.1837 126.783 82.1669 126.753 82.1376 126.731C82.1083 126.708 82.0656 126.694 82.0096 126.687L81.824 126.666C81.7221 126.654 81.6449 126.626 81.5926 126.582C81.5408 126.537 81.5105 126.478 81.5018 126.403C81.4947 126.342 81.5056 126.286 81.5344 126.235C81.5638 126.184 81.6068 126.141 81.6634 126.108C81.7205 126.074 81.7871 126.052 81.8633 126.044C81.9705 126.031 82.0575 126.045 82.1241 126.085C82.1911 126.125 82.2421 126.182 82.2769 126.256ZM83.1019 127.035C82.9975 127.047 82.9048 127.035 82.8237 126.997C82.743 126.96 82.6774 126.901 82.6268 126.823C82.5766 126.744 82.5451 126.649 82.5322 126.538C82.5193 126.427 82.5282 126.327 82.5588 126.237C82.5898 126.147 82.639 126.075 82.7064 126.019C82.7742 125.962 82.857 125.928 82.9549 125.917C83.0113 125.91 83.0681 125.913 83.1253 125.926C83.1826 125.938 83.2362 125.963 83.2863 126C83.3363 126.036 83.3787 126.088 83.4135 126.154C83.4484 126.22 83.4717 126.303 83.4834 126.404L83.4916 126.475L82.6563 126.572L82.6396 126.428L83.3056 126.351C83.2985 126.29 83.2799 126.236 83.2499 126.191C83.2203 126.146 83.1816 126.112 83.1337 126.09C83.0862 126.067 83.0324 126.059 82.9722 126.066C82.9059 126.074 82.8504 126.097 82.8058 126.136C82.7616 126.174 82.7296 126.22 82.7098 126.276C82.69 126.331 82.6836 126.388 82.6905 126.448L82.7017 126.544C82.7112 126.626 82.7333 126.693 82.7682 126.747C82.8034 126.8 82.8481 126.839 82.9024 126.862C82.9566 126.886 83.0173 126.893 83.0845 126.886C83.1283 126.88 83.1671 126.87 83.2009 126.853C83.2352 126.837 83.2638 126.814 83.2868 126.786C83.3097 126.758 83.326 126.724 83.3358 126.685L83.5019 126.711C83.4913 126.768 83.4684 126.819 83.4332 126.865C83.398 126.911 83.3523 126.948 83.2962 126.978C83.2401 127.008 83.1753 127.027 83.1019 127.035ZM83.8012 126.931L83.6754 125.847L83.8362 125.829L83.8552 125.992L83.8665 125.991C83.8801 125.935 83.9108 125.887 83.9586 125.848C84.0065 125.809 84.0628 125.785 84.1278 125.778C84.14 125.776 84.1553 125.775 84.1737 125.773C84.1921 125.771 84.206 125.77 84.2156 125.77L84.2352 125.94C84.2294 125.939 84.2162 125.938 84.1957 125.938C84.1756 125.937 84.1544 125.938 84.1323 125.94C84.0796 125.946 84.0339 125.963 83.9951 125.99C83.9567 126.016 83.9277 126.05 83.9082 126.091C83.8891 126.132 83.8824 126.177 83.8881 126.226L83.9677 126.912L83.8012 126.931ZM84.5404 126.845L84.4146 125.762L84.5811 125.742L84.7069 126.826L84.5404 126.845ZM84.4782 125.571C84.4458 125.575 84.4165 125.567 84.3904 125.548C84.3648 125.528 84.3502 125.503 84.3466 125.472C84.343 125.441 84.3514 125.413 84.3719 125.388C84.3929 125.363 84.4196 125.349 84.452 125.345C84.4845 125.342 84.5135 125.349 84.5391 125.369C84.5652 125.388 84.58 125.413 84.5837 125.444C84.5873 125.475 84.5786 125.503 84.5576 125.528C84.5372 125.553 84.5107 125.567 84.4782 125.571ZM85.4688 126.76C85.3644 126.772 85.2717 126.76 85.1906 126.722C85.1099 126.685 85.0443 126.626 84.9937 126.548C84.9435 126.469 84.912 126.374 84.8991 126.263C84.8862 126.152 84.8951 126.052 84.9257 125.962C84.9567 125.873 85.0059 125.8 85.0733 125.744C85.1411 125.687 85.2239 125.653 85.3218 125.642C85.3782 125.635 85.435 125.638 85.4922 125.651C85.5495 125.663 85.6031 125.688 85.6532 125.725C85.7032 125.762 85.7456 125.813 85.7804 125.879C85.8153 125.945 85.8386 126.028 85.8503 126.13L85.8585 126.2L85.0232 126.297L85.0065 126.153L85.6725 126.076C85.6654 126.015 85.6468 125.962 85.6168 125.916C85.5872 125.871 85.5485 125.837 85.5006 125.815C85.4532 125.792 85.3993 125.784 85.3391 125.791C85.2728 125.799 85.2173 125.822 85.1727 125.861C85.1285 125.899 85.0965 125.945 85.0767 126.001C85.0569 126.056 85.0505 126.113 85.0574 126.173L85.0686 126.269C85.0781 126.351 85.1002 126.419 85.1351 126.472C85.1703 126.525 85.215 126.564 85.2693 126.587C85.3235 126.611 85.3842 126.618 85.4514 126.611C85.4952 126.606 85.534 126.595 85.5678 126.579C85.6021 126.562 85.6307 126.539 85.6537 126.511C85.6766 126.483 85.6929 126.449 85.7027 126.41L85.8688 126.436C85.8582 126.493 85.8353 126.544 85.8001 126.59C85.7649 126.636 85.7192 126.673 85.6631 126.703C85.607 126.733 85.5422 126.752 85.4688 126.76ZM86.838 125.726L86.6934 125.786C86.6811 125.762 86.6644 125.739 86.6433 125.718C86.6227 125.696 86.5959 125.679 86.5631 125.667C86.5302 125.655 86.4896 125.652 86.4411 125.658C86.3748 125.665 86.3213 125.687 86.2807 125.723C86.2404 125.758 86.223 125.799 86.2284 125.845C86.2332 125.887 86.2521 125.918 86.285 125.938C86.3179 125.959 86.3672 125.973 86.433 125.982L86.5985 126.003C86.6981 126.015 86.7745 126.042 86.8276 126.085C86.8807 126.128 86.9116 126.187 86.9204 126.263C86.9276 126.325 86.9162 126.382 86.8861 126.435C86.8565 126.488 86.8116 126.533 86.7514 126.568C86.6912 126.604 86.619 126.627 86.5348 126.636C86.4243 126.649 86.33 126.636 86.252 126.596C86.174 126.557 86.12 126.492 86.09 126.402L86.2435 126.344C86.2653 126.401 86.2988 126.441 86.3441 126.465C86.3898 126.49 86.4467 126.498 86.5149 126.49C86.5925 126.481 86.6522 126.457 86.694 126.419C86.7363 126.38 86.7547 126.338 86.7492 126.291C86.7449 126.254 86.728 126.224 86.6988 126.201C86.6694 126.178 86.6267 126.164 86.5707 126.157L86.3852 126.136C86.2832 126.124 86.2061 126.096 86.1538 126.052C86.1019 126.008 86.0716 125.948 86.0629 125.873C86.0558 125.812 86.0667 125.756 86.0956 125.705C86.1249 125.654 86.1679 125.611 86.2245 125.578C86.2816 125.544 86.3482 125.523 86.4244 125.514C86.5317 125.501 86.6186 125.515 86.6852 125.555C86.7523 125.595 86.8032 125.652 86.838 125.726ZM87.593 125.484L87.5783 125.357C87.5738 125.318 87.5759 125.277 87.5845 125.232C87.5935 125.186 87.6088 125.142 87.6305 125.098C87.6525 125.054 87.6806 125.015 87.7148 124.981L87.8136 125.044C87.7889 125.089 87.7681 125.137 87.7514 125.185C87.735 125.233 87.7299 125.283 87.736 125.336L87.7511 125.465L87.593 125.484ZM87.9542 125.442L87.9395 125.315C87.935 125.276 87.9371 125.235 87.9457 125.19C87.9547 125.144 87.97 125.1 87.9917 125.056C88.0137 125.012 88.0418 124.973 88.076 124.939L88.1748 125.002C88.1501 125.047 88.1293 125.095 88.1126 125.143C88.0963 125.191 88.0911 125.242 88.0972 125.294L88.1123 125.424L87.9542 125.442ZM88.8065 126.35L88.2436 124.951L88.4214 124.93L88.86 126.072L88.8741 126.07L89.045 124.858L89.2426 124.835L89.6868 125.976L89.7009 125.974L89.8662 124.762L90.044 124.742L89.8167 126.232L89.6361 126.253L89.1835 125.139L89.1722 125.14L88.9871 126.329L88.8065 126.35ZM90.498 125.492L90.5737 126.144L90.4072 126.164L90.2394 124.719L90.4059 124.7L90.4675 125.23L90.4816 125.228C90.5005 125.17 90.5335 125.121 90.5804 125.082C90.6278 125.042 90.6941 125.018 90.7792 125.008C90.8531 124.999 90.9194 125.007 90.9784 125.03C91.0373 125.053 91.0855 125.092 91.1231 125.15C91.1612 125.206 91.1856 125.281 91.1964 125.374L91.2764 126.063L91.1099 126.082L91.0312 125.405C91.0212 125.319 90.9912 125.255 90.941 125.213C90.8913 125.171 90.8272 125.154 90.7486 125.163C90.6941 125.169 90.6465 125.187 90.6059 125.215C90.5658 125.243 90.5358 125.28 90.516 125.327C90.4967 125.374 90.4907 125.429 90.498 125.492ZM91.6966 126.426C91.6684 126.429 91.643 126.43 91.6203 126.427C91.5977 126.426 91.5819 126.423 91.573 126.42L91.5983 126.268C91.6399 126.274 91.6761 126.274 91.7068 126.267C91.7375 126.261 91.7634 126.244 91.7845 126.216C91.8061 126.189 91.8238 126.146 91.8377 126.089L91.8589 126.001L91.3317 124.958L91.5123 124.937L91.9117 125.766L91.923 125.765L92.1218 124.866L92.3024 124.845L91.9866 126.14C91.9725 126.199 91.9522 126.248 91.9259 126.288C91.8996 126.329 91.8673 126.361 91.8289 126.383C91.791 126.406 91.7469 126.42 91.6966 126.426ZM93.3612 126.232C93.333 126.236 93.3075 126.236 93.2849 126.234C93.2623 126.232 93.2465 126.23 93.2376 126.227L93.2628 126.075C93.3045 126.081 93.3407 126.08 93.3714 126.074C93.4021 126.068 93.428 126.05 93.4491 126.023C93.4707 125.995 93.4884 125.953 93.5023 125.896L93.5235 125.807L92.9962 124.765L93.1769 124.744L93.5763 125.573L93.5876 125.571L93.7864 124.673L93.967 124.652L93.6512 125.947C93.637 126.005 93.6168 126.055 93.5905 126.095C93.5642 126.136 93.5319 126.167 93.4935 126.19C93.4556 126.212 93.4115 126.227 93.3612 126.232ZM94.7167 125.686C94.6188 125.697 94.5303 125.684 94.451 125.646C94.3723 125.608 94.3073 125.55 94.2562 125.471C94.2056 125.392 94.1737 125.296 94.1607 125.184C94.1476 125.071 94.1566 124.971 94.1878 124.882C94.2194 124.793 94.2692 124.721 94.3371 124.665C94.4056 124.61 94.4887 124.577 94.5865 124.566C94.6844 124.554 94.7727 124.568 94.8514 124.606C94.9307 124.644 94.9957 124.702 95.0464 124.782C95.0975 124.861 95.1297 124.957 95.1428 125.07C95.1558 125.182 95.1464 125.282 95.1148 125.371C95.0836 125.459 95.0338 125.531 94.9653 125.586C94.8974 125.641 94.8145 125.675 94.7167 125.686ZM94.6993 125.536C94.7736 125.528 94.8325 125.502 94.8761 125.458C94.9196 125.414 94.9493 125.36 94.9652 125.295C94.981 125.231 94.9847 125.162 94.9763 125.09C94.9679 125.017 94.9485 124.951 94.9182 124.891C94.8879 124.831 94.8465 124.785 94.7941 124.752C94.7416 124.719 94.6782 124.707 94.6039 124.715C94.5296 124.724 94.4707 124.75 94.4272 124.794C94.3837 124.839 94.3541 124.893 94.3383 124.959C94.3225 125.024 94.3188 125.093 94.3272 125.165C94.3357 125.237 94.355 125.303 94.3852 125.363C94.4155 125.422 94.4568 125.468 94.5092 125.501C94.5616 125.533 94.625 125.545 94.6993 125.536ZM96.0907 125.055L96.0163 124.414L96.1827 124.395L96.3086 125.478L96.1421 125.498L96.1208 125.314L96.1095 125.315C96.0905 125.373 96.0564 125.425 96.0073 125.47C95.9581 125.514 95.8926 125.541 95.8108 125.55C95.743 125.558 95.6811 125.55 95.625 125.527C95.5688 125.503 95.5222 125.463 95.4851 125.406C95.448 125.349 95.424 125.274 95.4133 125.182L95.3333 124.493L95.4998 124.474L95.5785 125.151C95.5877 125.23 95.6171 125.291 95.6668 125.333C95.7169 125.374 95.7766 125.391 95.8457 125.383C95.8871 125.379 95.928 125.363 95.9683 125.337C96.0091 125.311 96.0415 125.274 96.0656 125.227C96.0902 125.18 96.0985 125.122 96.0907 125.055ZM97.1723 125.378L97.0464 124.294L97.2073 124.276L97.2263 124.439L97.2376 124.438C97.2511 124.382 97.2818 124.334 97.3297 124.295C97.3775 124.256 97.4339 124.232 97.4988 124.225C97.511 124.223 97.5263 124.222 97.5447 124.22C97.5631 124.218 97.5771 124.217 97.5866 124.217L97.6063 124.387C97.6005 124.386 97.5873 124.385 97.5667 124.385C97.5466 124.384 97.5255 124.385 97.5034 124.387C97.4507 124.393 97.4049 124.41 97.3661 124.437C97.3277 124.463 97.2988 124.497 97.2793 124.538C97.2602 124.579 97.2535 124.624 97.2591 124.673L97.3388 125.359L97.1723 125.378ZM97.9115 125.292L97.7856 124.208L97.9521 124.189L98.078 125.273L97.9115 125.292ZM97.8493 124.018C97.8168 124.022 97.7876 124.014 97.7615 123.995C97.7359 123.975 97.7213 123.95 97.7177 123.919C97.7141 123.888 97.7225 123.86 97.743 123.835C97.7639 123.81 97.7906 123.796 97.8231 123.792C97.8555 123.789 97.8846 123.796 97.9102 123.816C97.9362 123.835 97.9511 123.86 97.9547 123.891C97.9583 123.922 97.9496 123.95 97.9287 123.975C97.9082 124 97.8817 124.014 97.8493 124.018ZM98.8701 125.615C98.7897 125.625 98.7194 125.622 98.6591 125.609C98.5989 125.595 98.5476 125.574 98.5051 125.545C98.4632 125.516 98.4288 125.485 98.4018 125.45L98.5237 125.341C98.541 125.359 98.5627 125.379 98.5887 125.402C98.6147 125.425 98.6488 125.444 98.691 125.458C98.7337 125.473 98.7877 125.476 98.8531 125.469C98.9406 125.459 99.0103 125.429 99.0623 125.38C99.1143 125.331 99.135 125.262 99.1246 125.171L99.099 124.951L99.0849 124.953C99.0749 124.974 99.0604 125 99.0412 125.032C99.0224 125.063 98.9934 125.093 98.9542 125.12C98.9154 125.147 98.8607 125.165 98.7901 125.173C98.7026 125.183 98.6217 125.171 98.5473 125.138C98.4733 125.105 98.4116 125.051 98.3619 124.977C98.3128 124.902 98.2816 124.809 98.2685 124.696C98.2556 124.585 98.2639 124.486 98.2934 124.399C98.3228 124.312 98.3697 124.241 98.4341 124.188C98.4984 124.134 98.5762 124.102 98.6674 124.092C98.738 124.084 98.7953 124.089 98.8394 124.108C98.8839 124.126 98.919 124.148 98.9445 124.175C98.9705 124.202 98.9907 124.224 99.0051 124.241L99.022 124.239L99.002 124.067L99.1629 124.048L99.2924 125.163C99.3032 125.256 99.2908 125.334 99.2552 125.398C99.2202 125.461 99.1688 125.511 99.1009 125.546C99.0336 125.582 98.9567 125.605 98.8701 125.615ZM98.7953 125.021C98.8621 125.013 98.9168 124.991 98.9593 124.955C99.0019 124.919 99.0318 124.871 99.0491 124.811C99.0664 124.751 99.0705 124.681 99.0612 124.601C99.0521 124.523 99.0323 124.455 99.0019 124.398C98.9714 124.341 98.9312 124.298 98.8812 124.27C98.8311 124.241 98.7723 124.231 98.7045 124.239C98.634 124.247 98.5773 124.272 98.5344 124.313C98.492 124.354 98.4625 124.406 98.446 124.469C98.4299 124.532 98.4262 124.6 98.4347 124.674C98.4434 124.749 98.4629 124.814 98.4932 124.869C98.5238 124.924 98.5643 124.965 98.6147 124.992C98.6655 125.019 98.7257 125.029 98.7953 125.021ZM99.6843 124.426L99.76 125.077L99.5935 125.097L99.4257 123.652L99.5922 123.633L99.6538 124.163L99.6679 124.161C99.6868 124.103 99.7198 124.054 99.7667 124.015C99.8141 123.975 99.8804 123.951 99.9655 123.941C100.039 123.932 100.106 123.94 100.165 123.963C100.224 123.986 100.272 124.026 100.309 124.083C100.347 124.139 100.372 124.214 100.383 124.307L100.463 124.996L100.296 125.015L100.218 124.338C100.208 124.252 100.177 124.188 100.127 124.146C100.078 124.104 100.013 124.087 99.9349 124.096C99.8803 124.102 99.8328 124.12 99.7922 124.148C99.7521 124.176 99.7221 124.213 99.7023 124.26C99.683 124.307 99.677 124.362 99.6843 124.426ZM101.113 123.822L101.129 123.963L100.567 124.028L100.551 123.887L101.113 123.822ZM100.685 123.609L100.851 123.589L100.971 124.622C100.977 124.669 100.987 124.704 101.004 124.726C101.021 124.747 101.04 124.76 101.063 124.766C101.086 124.771 101.11 124.772 101.134 124.769C101.152 124.767 101.167 124.764 101.179 124.761C101.19 124.757 101.2 124.754 101.206 124.752L101.258 124.898C101.247 124.903 101.232 124.909 101.212 124.916C101.192 124.923 101.167 124.928 101.136 124.932C101.089 124.937 101.041 124.933 100.994 124.918C100.947 124.903 100.906 124.876 100.872 124.838C100.838 124.8 100.817 124.75 100.81 124.687L100.685 123.609ZM101.846 123.737L101.862 123.878L101.278 123.946L101.262 123.805L101.846 123.737ZM101.562 124.868L101.419 123.635C101.412 123.573 101.42 123.519 101.445 123.475C101.469 123.43 101.503 123.394 101.548 123.368C101.592 123.342 101.64 123.326 101.691 123.32C101.732 123.315 101.766 123.315 101.793 123.318C101.819 123.322 101.839 123.326 101.853 123.33L101.821 123.479C101.813 123.478 101.801 123.475 101.785 123.473C101.77 123.47 101.75 123.471 101.726 123.473C101.671 123.48 101.633 123.498 101.612 123.529C101.591 123.559 101.584 123.601 101.59 123.655L101.729 124.849L101.562 124.868ZM102.836 124.271L102.762 123.63L102.928 123.611L103.054 124.695L102.888 124.714L102.866 124.531L102.855 124.532C102.836 124.59 102.802 124.641 102.753 124.686C102.704 124.73 102.638 124.757 102.556 124.767C102.489 124.775 102.427 124.767 102.371 124.743C102.314 124.719 102.268 124.679 102.231 124.622C102.194 124.565 102.17 124.491 102.159 124.398L102.079 123.71L102.246 123.69L102.324 124.368C102.333 124.447 102.363 124.507 102.412 124.549C102.463 124.591 102.522 124.608 102.591 124.6C102.633 124.595 102.674 124.58 102.714 124.553C102.755 124.527 102.787 124.491 102.811 124.443C102.836 124.396 102.844 124.339 102.836 124.271ZM103.358 123.195L103.526 124.64L103.359 124.659L103.191 123.215L103.358 123.195ZM103.829 123.14L103.997 124.585L103.831 124.605L103.663 123.16L103.829 123.14ZM104.457 124.944C104.428 124.947 104.403 124.948 104.38 124.945C104.358 124.944 104.342 124.941 104.333 124.938L104.358 124.786C104.4 124.792 104.436 124.792 104.467 124.785C104.497 124.779 104.523 124.762 104.544 124.734C104.566 124.707 104.584 124.664 104.598 124.607L104.619 124.519L104.092 123.476L104.272 123.455L104.672 124.284L104.683 124.283L104.882 123.384L105.062 123.363L104.747 124.658C104.732 124.717 104.712 124.766 104.686 124.806C104.66 124.847 104.627 124.879 104.589 124.901C104.551 124.924 104.507 124.938 104.457 124.944ZM59.2141 131.14L59.2898 131.791L59.1233 131.811L58.9555 130.366L59.122 130.347L59.1836 130.877L59.1977 130.875C59.2166 130.817 59.2495 130.768 59.2965 130.729C59.3439 130.69 59.4101 130.665 59.4953 130.655C59.5691 130.646 59.6355 130.654 59.6944 130.677C59.7533 130.7 59.8016 130.74 59.8392 130.797C59.8772 130.853 59.9016 130.928 59.9125 131.021L59.9924 131.71L59.8259 131.729L59.7473 131.052C59.7373 130.966 59.7072 130.902 59.6571 130.86C59.6073 130.818 59.5432 130.801 59.4647 130.81C59.4101 130.816 59.3625 130.834 59.3219 130.862C59.2818 130.89 59.2519 130.927 59.2321 130.974C59.2127 131.021 59.2067 131.077 59.2141 131.14ZM60.6189 131.663C60.5502 131.671 60.4864 131.665 60.4274 131.646C60.3684 131.626 60.3195 131.593 60.2809 131.548C60.2422 131.502 60.2187 131.443 60.2105 131.373C60.2033 131.311 60.2097 131.259 60.2297 131.217C60.2496 131.176 60.2787 131.141 60.3171 131.114C60.3554 131.088 60.3987 131.066 60.4468 131.049C60.4953 131.032 60.5444 131.017 60.5939 131.005C60.6588 130.989 60.7114 130.976 60.7519 130.967C60.7927 130.958 60.8219 130.947 60.8395 130.934C60.8575 130.921 60.865 130.901 60.8618 130.874L60.8612 130.868C60.8531 130.799 60.8278 130.747 60.7852 130.713C60.7431 130.678 60.6837 130.666 60.607 130.675C60.5276 130.684 60.4673 130.708 60.4262 130.749C60.385 130.789 60.3576 130.829 60.3439 130.871L60.1793 130.833C60.1998 130.764 60.2315 130.708 60.2743 130.666C60.3175 130.623 60.3662 130.592 60.4205 130.57C60.4752 130.549 60.5298 130.535 60.5844 130.529C60.6192 130.524 60.6596 130.524 60.7058 130.527C60.7523 130.53 60.7982 130.542 60.8435 130.562C60.8893 130.582 60.9292 130.617 60.9634 130.665C60.9976 130.713 61.0196 130.78 61.0296 130.866L61.1126 131.58L60.9461 131.599L60.929 131.452L60.9206 131.453C60.912 131.478 60.8961 131.505 60.8729 131.535C60.8497 131.565 60.8173 131.592 60.7757 131.616C60.7342 131.64 60.6819 131.655 60.6189 131.663ZM60.6269 131.51C60.6927 131.503 60.7467 131.483 60.7889 131.452C60.8315 131.421 60.8619 131.384 60.8802 131.34C60.899 131.296 60.9058 131.252 60.9005 131.207L60.8828 131.054C60.8767 131.064 60.8621 131.073 60.839 131.083C60.8162 131.092 60.7896 131.101 60.7592 131.11C60.7291 131.118 60.6998 131.126 60.671 131.133C60.6427 131.14 60.6198 131.145 60.6022 131.15C60.5596 131.161 60.5202 131.174 60.484 131.192C60.4483 131.208 60.4204 131.23 60.4002 131.258C60.3805 131.285 60.3731 131.32 60.378 131.362C60.3847 131.42 60.4112 131.461 60.4574 131.486C60.5041 131.51 60.5606 131.518 60.6269 131.51ZM61.7619 130.406L61.7782 130.547L61.2167 130.612L61.2003 130.471L61.7619 130.406ZM61.3338 130.193L61.5003 130.173L61.6203 131.206C61.6257 131.253 61.6366 131.288 61.653 131.31C61.6698 131.331 61.6895 131.344 61.712 131.35C61.735 131.355 61.7587 131.356 61.7832 131.353C61.8015 131.351 61.8165 131.348 61.828 131.345C61.8395 131.341 61.8487 131.338 61.8556 131.336L61.9068 131.482C61.896 131.487 61.8808 131.493 61.861 131.5C61.8413 131.507 61.816 131.512 61.7849 131.516C61.7379 131.521 61.6906 131.517 61.6431 131.502C61.5961 131.487 61.5554 131.46 61.5209 131.422C61.487 131.384 61.4663 131.334 61.459 131.271L61.3338 130.193ZM62.5835 131.432C62.4791 131.444 62.3863 131.431 62.3052 131.394C62.2246 131.356 62.159 131.298 62.1084 131.22C62.0582 131.14 62.0267 131.045 62.0138 130.934C62.0009 130.823 62.0098 130.723 62.0404 130.634C62.0714 130.544 62.1206 130.471 62.188 130.415C62.2558 130.359 62.3386 130.325 62.4364 130.313C62.4929 130.307 62.5497 130.31 62.6069 130.322C62.6641 130.335 62.7178 130.359 62.7678 130.396C62.8178 130.433 62.8603 130.484 62.8951 130.55C62.9299 130.616 62.9532 130.7 62.965 130.801L62.9732 130.872L62.1379 130.969L62.1212 130.825L62.7871 130.747C62.78 130.686 62.7615 130.633 62.7314 130.588C62.7019 130.543 62.6632 130.509 62.6152 130.486C62.5678 130.464 62.514 130.456 62.4538 130.463C62.3875 130.471 62.332 130.494 62.2874 130.532C62.2432 130.57 62.2112 130.617 62.1914 130.672C62.1716 130.727 62.1651 130.785 62.1721 130.845L62.1832 130.941C62.1927 131.022 62.2149 131.09 62.2497 131.144C62.285 131.197 62.3297 131.235 62.384 131.259C62.4381 131.282 62.4989 131.29 62.5661 131.282C62.6098 131.277 62.6486 131.266 62.6825 131.25C62.7168 131.233 62.7454 131.211 62.7684 131.183C62.7913 131.154 62.8076 131.121 62.8173 131.081L62.9834 131.108C62.9728 131.164 62.95 131.216 62.9148 131.262C62.8796 131.307 62.8339 131.345 62.7778 131.375C62.7216 131.404 62.6569 131.423 62.5835 131.432ZM64.2494 129.751L64.4244 129.731L64.5443 130.764C64.555 130.856 64.5472 130.936 64.5208 131.004C64.4945 131.073 64.4524 131.127 64.3947 131.168C64.3369 131.208 64.2662 131.233 64.1825 131.243C64.1035 131.252 64.0315 131.246 63.9665 131.225C63.9015 131.203 63.8483 131.167 63.8068 131.117C63.7653 131.068 63.7403 131.006 63.7317 130.932L63.9038 130.912C63.9086 130.953 63.9228 130.988 63.9466 131.016C63.9708 131.044 64.0017 131.064 64.0395 131.077C64.0772 131.09 64.1188 131.093 64.1645 131.088C64.2148 131.082 64.2564 131.067 64.2892 131.041C64.322 131.016 64.3452 130.982 64.3588 130.939C64.3728 130.895 64.3763 130.844 64.3694 130.784L64.2494 129.751ZM65.2421 131.126C65.1734 131.134 65.1096 131.128 65.0506 131.109C64.9916 131.089 64.9427 131.056 64.9041 131.011C64.8654 130.965 64.8419 130.906 64.8337 130.836C64.8265 130.774 64.8329 130.722 64.8529 130.681C64.8728 130.639 64.9019 130.604 64.9403 130.577C64.9786 130.551 65.0219 130.529 65.07 130.512C65.1185 130.495 65.1676 130.48 65.2172 130.468C65.282 130.452 65.3347 130.439 65.3751 130.43C65.4159 130.421 65.4451 130.41 65.4627 130.397C65.4807 130.384 65.4882 130.364 65.4851 130.337L65.4844 130.331C65.4763 130.262 65.451 130.21 65.4084 130.176C65.3663 130.141 65.3069 130.129 65.2303 130.138C65.1508 130.147 65.0905 130.171 65.0494 130.212C65.0083 130.252 64.9808 130.292 64.9671 130.334L64.8025 130.296C64.8231 130.227 64.8547 130.171 64.8975 130.129C64.9407 130.086 64.9894 130.055 65.0437 130.033C65.0984 130.012 65.153 129.998 65.2076 129.992C65.2424 129.987 65.2828 129.987 65.329 129.99C65.3755 129.993 65.4214 130.005 65.4667 130.025C65.5125 130.045 65.5524 130.08 65.5866 130.128C65.6208 130.176 65.6429 130.243 65.6529 130.329L65.7358 131.043L65.5693 131.062L65.5522 130.915L65.5438 130.916C65.5352 130.941 65.5193 130.968 65.4961 130.998C65.4729 131.028 65.4405 131.055 65.3989 131.079C65.3574 131.103 65.3051 131.118 65.2421 131.126ZM65.2501 130.973C65.3159 130.966 65.3699 130.946 65.4121 130.915C65.4547 130.884 65.4852 130.847 65.5035 130.803C65.5222 130.759 65.529 130.715 65.5237 130.67L65.506 130.517C65.5 130.527 65.4853 130.536 65.4622 130.546C65.4394 130.555 65.4128 130.564 65.3824 130.573C65.3524 130.582 65.323 130.589 65.2943 130.596C65.266 130.603 65.243 130.609 65.2254 130.613C65.1828 130.624 65.1434 130.637 65.1073 130.655C65.0715 130.671 65.0436 130.693 65.0234 130.721C65.0037 130.748 64.9963 130.783 65.0012 130.825C65.0079 130.883 65.0344 130.924 65.0806 130.949C65.1273 130.973 65.1838 130.981 65.2501 130.973ZM66.7611 129.825L66.4862 130.956L66.3169 130.975L65.7904 129.938L65.971 129.917L66.3704 130.746L66.3817 130.745L66.5805 129.846L66.7611 129.825ZM67.3956 130.876C67.3269 130.884 67.2631 130.878 67.2041 130.859C67.1451 130.839 67.0962 130.806 67.0576 130.76C67.0189 130.714 66.9954 130.656 66.9872 130.586C66.98 130.524 66.9864 130.472 67.0064 130.43C67.0263 130.389 67.0554 130.354 67.0938 130.327C67.1321 130.3 67.1754 130.279 67.2235 130.262C67.272 130.245 67.3211 130.23 67.3706 130.218C67.4355 130.202 67.4882 130.189 67.5286 130.18C67.5694 130.171 67.5986 130.159 67.6162 130.146C67.6342 130.133 67.6417 130.113 67.6385 130.087L67.6379 130.081C67.6298 130.011 67.6045 129.96 67.5619 129.925C67.5198 129.891 67.4604 129.879 67.3837 129.887C67.3043 129.897 67.244 129.921 67.2029 129.961C67.1617 130.001 67.1343 130.042 67.1206 130.084L66.956 130.046C66.9766 129.977 67.0082 129.921 67.051 129.879C67.0942 129.836 67.1429 129.804 67.1972 129.783C67.2519 129.762 67.3065 129.748 67.3611 129.741C67.3959 129.737 67.4363 129.737 67.4825 129.74C67.529 129.743 67.5749 129.754 67.6202 129.775C67.666 129.795 67.7059 129.83 67.7401 129.878C67.7743 129.926 67.7964 129.993 67.8064 130.079L67.8893 130.793L67.7228 130.812L67.7057 130.665L67.6973 130.666C67.6887 130.691 67.6728 130.718 67.6496 130.748C67.6264 130.778 67.594 130.805 67.5524 130.829C67.5109 130.853 67.4586 130.868 67.3956 130.876ZM67.4036 130.723C67.4694 130.716 67.5234 130.696 67.5656 130.665C67.6082 130.634 67.6387 130.596 67.6569 130.553C67.6757 130.509 67.6825 130.465 67.6772 130.42L67.6595 130.267C67.6535 130.277 67.6388 130.286 67.6157 130.296C67.5929 130.305 67.5663 130.314 67.5359 130.323C67.5059 130.331 67.4765 130.339 67.4478 130.346C67.4194 130.353 67.3965 130.358 67.3789 130.363C67.3363 130.373 67.2969 130.387 67.2607 130.404C67.225 130.421 67.1971 130.443 67.1769 130.471C67.1572 130.498 67.1498 130.532 67.1547 130.575C67.1614 130.633 67.1879 130.674 67.2341 130.699C67.2808 130.723 67.3373 130.731 67.4036 130.723ZM68.8631 129.827L68.7184 129.887C68.7061 129.863 68.6894 129.84 68.6683 129.819C68.6477 129.797 68.6209 129.78 68.5881 129.768C68.5552 129.756 68.5146 129.753 68.4662 129.759C68.3998 129.767 68.3464 129.788 68.3057 129.824C68.2655 129.859 68.248 129.9 68.2534 129.947C68.2583 129.988 68.2771 130.019 68.31 130.039C68.3429 130.06 68.3922 130.074 68.458 130.083L68.6235 130.104C68.7231 130.116 68.7995 130.144 68.8526 130.187C68.9057 130.229 68.9366 130.288 68.9454 130.364C68.9526 130.426 68.9412 130.484 68.9111 130.537C68.8815 130.59 68.8366 130.634 68.7764 130.67C68.7162 130.705 68.644 130.728 68.5598 130.738C68.4493 130.75 68.355 130.737 68.277 130.698C68.199 130.658 68.145 130.593 68.115 130.503L68.2685 130.445C68.2903 130.502 68.3238 130.542 68.3691 130.567C68.4148 130.591 68.4718 130.599 68.5399 130.591C68.6176 130.582 68.6773 130.559 68.7191 130.52C68.7613 130.482 68.7797 130.439 68.7743 130.392C68.7699 130.355 68.7531 130.325 68.7238 130.302C68.6944 130.28 68.6517 130.265 68.5957 130.259L68.4102 130.237C68.3082 130.225 68.2311 130.197 68.1788 130.153C68.1269 130.109 68.0966 130.049 68.0879 129.974C68.0808 129.913 68.0917 129.857 68.1206 129.806C68.1499 129.755 68.1929 129.713 68.2495 129.679C68.3066 129.645 68.3733 129.624 68.4494 129.615C68.5567 129.603 68.6436 129.616 68.7102 129.656C68.7773 129.696 68.8282 129.753 68.8631 129.827ZM69.674 130.608C69.5724 130.62 69.4821 130.606 69.4032 130.567C69.3242 130.527 69.2601 130.468 69.2108 130.388C69.1615 130.309 69.1306 130.215 69.118 130.106C69.1053 129.996 69.1142 129.897 69.1449 129.808C69.176 129.719 69.2252 129.646 69.2926 129.59C69.3604 129.533 69.4432 129.5 69.541 129.488C69.6172 129.479 69.6875 129.485 69.7519 129.507C69.8163 129.528 69.871 129.561 69.916 129.608C69.9609 129.654 69.992 129.71 70.0093 129.777L69.8428 129.796C69.8243 129.748 69.791 129.708 69.7429 129.675C69.6951 129.641 69.6346 129.629 69.5612 129.637C69.4963 129.645 69.4414 129.669 69.3964 129.708C69.3518 129.747 69.3194 129.799 69.2993 129.863C69.2795 129.927 69.2744 130 69.2839 130.081C69.2936 130.165 69.3152 130.237 69.3488 130.296C69.3828 130.355 69.426 130.398 69.4785 130.427C69.5314 130.456 69.5907 130.466 69.6566 130.459C69.6999 130.454 69.7382 130.442 69.7718 130.422C69.8053 130.403 69.8327 130.378 69.8538 130.347C69.875 130.316 69.8885 130.28 69.8942 130.239L70.0607 130.22C70.0588 130.285 70.0422 130.345 70.011 130.401C69.9802 130.456 69.9362 130.502 69.879 130.539C69.8223 130.576 69.7539 130.599 69.674 130.608ZM70.3408 130.508L70.215 129.424L70.3758 129.406L70.3948 129.569L70.4061 129.568C70.4196 129.512 70.4503 129.464 70.4982 129.425C70.5461 129.386 70.6024 129.362 70.6673 129.355C70.6796 129.353 70.6949 129.352 70.7133 129.35C70.7317 129.348 70.7456 129.347 70.7551 129.347L70.7748 129.516C70.769 129.516 70.7558 129.515 70.7353 129.515C70.7151 129.514 70.694 129.514 70.6719 129.517C70.6192 129.523 70.5735 129.54 70.5347 129.567C70.4963 129.593 70.4673 129.627 70.4478 129.668C70.4287 129.709 70.422 129.754 70.4277 129.803L70.5073 130.489L70.3408 130.508ZM71.08 130.422L70.9541 129.338L71.1206 129.319L71.2465 130.403L71.08 130.422ZM71.0178 129.148C70.9854 129.152 70.9561 129.144 70.93 129.125C70.9044 129.105 70.8898 129.08 70.8862 129.049C70.8826 129.018 70.891 128.99 70.9115 128.965C70.9325 128.94 70.9592 128.926 70.9916 128.922C71.0241 128.918 71.0531 128.926 71.0787 128.946C71.1048 128.965 71.1196 128.99 71.1232 129.021C71.1268 129.052 71.1182 129.08 71.0972 129.105C71.0767 129.13 71.0503 129.144 71.0178 129.148ZM71.5986 130.774L71.4256 129.284L71.5864 129.265L71.6064 129.437L71.6262 129.435C71.6362 129.415 71.6504 129.389 71.6686 129.357C71.6873 129.325 71.7157 129.295 71.754 129.267C71.7926 129.239 71.8472 129.22 71.9178 129.212C72.009 129.202 72.0921 129.215 72.167 129.253C72.2419 129.29 72.3037 129.348 72.3525 129.428C72.4013 129.507 72.4323 129.603 72.4455 129.717C72.4588 129.832 72.4508 129.934 72.4216 130.022C72.3923 130.111 72.3457 130.182 72.2819 130.236C72.2181 130.29 72.141 130.322 72.0507 130.332C71.9811 130.34 71.924 130.335 71.8795 130.317C71.8349 130.298 71.7996 130.275 71.7736 130.248C71.7475 130.221 71.7272 130.198 71.7127 130.18L71.6986 130.181L71.7651 130.754L71.5986 130.774ZM71.6522 129.806C71.6617 129.888 71.6821 129.959 71.7133 130.019C71.7445 130.078 71.7852 130.123 71.8354 130.153C71.8855 130.182 71.944 130.193 72.0108 130.185C72.0804 130.177 72.1363 130.152 72.1786 130.11C72.2214 130.067 72.2508 130.013 72.2671 129.948C72.2838 129.882 72.2876 129.811 72.2787 129.734C72.2698 129.657 72.2501 129.59 72.2195 129.532C72.1893 129.473 72.1486 129.428 72.0974 129.398C72.0466 129.367 71.986 129.356 71.9154 129.364C71.8477 129.372 71.7928 129.396 71.7507 129.435C71.7085 129.475 71.6792 129.526 71.6628 129.59C71.6463 129.653 71.6428 129.726 71.6522 129.806ZM73.1075 129.088L73.1238 129.229L72.5623 129.295L72.5459 129.153L73.1075 129.088ZM72.6794 128.875L72.8459 128.856L72.9659 129.888C72.9713 129.935 72.9822 129.97 72.9986 129.992C73.0154 130.013 73.0351 130.027 73.0576 130.032C73.0806 130.037 73.1043 130.038 73.1288 130.035C73.1471 130.033 73.1621 130.03 73.1736 130.027C73.1851 130.024 73.1943 130.021 73.2012 130.018L73.2524 130.164C73.2416 130.169 73.2264 130.176 73.2066 130.182C73.1869 130.189 73.1616 130.195 73.1305 130.198C73.0835 130.204 73.0362 130.199 72.9887 130.184C72.9417 130.169 72.901 130.142 72.8665 130.104C72.8326 130.066 72.8119 130.016 72.8046 129.953L72.6794 128.875ZM73.519 128.674L73.5337 128.801C73.5382 128.84 73.5359 128.882 73.5269 128.927C73.5183 128.972 73.5029 129.017 73.4809 129.061C73.4592 129.104 73.4314 129.143 73.3972 129.178L73.2984 129.115C73.3231 129.069 73.3436 129.022 73.36 128.974C73.3767 128.925 73.3821 128.875 73.376 128.823L73.3609 128.693L73.519 128.674ZM73.8802 128.632L73.8949 128.759C73.8994 128.798 73.8971 128.84 73.8881 128.885C73.8795 128.93 73.8641 128.975 73.8421 129.019C73.8204 129.062 73.7926 129.101 73.7584 129.136L73.6596 129.073C73.6843 129.027 73.7048 128.98 73.7212 128.932C73.7379 128.883 73.7433 128.833 73.7372 128.781L73.7221 128.651L73.8802 128.632Z" fill="white"/>
<path d="M51.6886 63.7876C51.7816 63.8372 51.9423 63.8923 52.1709 63.953C52.3986 64.0071 52.6615 64.0169 52.9595 63.9822C53.2178 63.9522 53.4247 63.8846 53.5802 63.7793C53.735 63.6673 53.8451 63.517 53.9104 63.3282C53.9823 63.1386 54.015 62.8999 54.0084 62.6121C54.0085 62.3235 53.9854 61.9805 53.9393 61.5832L53.5101 57.888L54.8809 57.7288L55.2974 61.3147C55.3589 61.8445 55.3852 62.3314 55.3764 62.7753C55.3676 63.2193 55.2955 63.6102 55.1603 63.9481C55.025 64.286 54.7919 64.5614 54.4609 64.7743C54.1366 64.9865 53.6863 65.126 53.1102 65.1929C52.7923 65.2299 52.5034 65.2265 52.2432 65.1829C51.9831 65.1393 51.7387 65.0569 51.5099 64.9359L51.6886 63.7876ZM56.3302 63.1478C56.291 62.8101 56.3495 62.5046 56.5056 62.2314C56.6677 61.9509 56.9095 61.7214 57.2311 61.5431C57.5527 61.3648 57.932 61.2503 58.369 61.1995C58.5876 61.1742 58.8113 61.165 59.0403 61.1719C59.2693 61.1789 59.4708 61.2092 59.6449 61.2628L59.6125 60.9846C59.5741 60.6535 59.4451 60.4101 59.2257 60.2544C59.0129 60.0979 58.7145 60.042 58.3304 60.0866C58.0456 60.1196 57.7799 60.2008 57.5332 60.3302C57.2864 60.4595 57.0318 60.6367 56.7694 60.8618L56.2407 60.0373C56.5589 59.7722 56.8903 59.5626 57.2348 59.4084C57.586 59.2536 57.9602 59.153 58.3575 59.1069C59.0992 59.0208 59.6969 59.1393 60.1505 59.4624C60.6108 59.7848 60.8809 60.2903 60.9609 60.979L61.1536 62.6379C61.1697 62.777 61.2044 62.8736 61.2577 62.9278C61.3176 62.9813 61.4046 63.0081 61.5187 63.0082L61.6445 64.091C61.5276 64.1247 61.4203 64.1539 61.3225 64.1787C61.2313 64.2027 61.1526 64.2186 61.0864 64.2262C60.8215 64.257 60.6126 64.2209 60.4597 64.1178C60.3134 64.014 60.2137 63.8779 60.1606 63.7096L60.0996 63.4449C59.9083 63.7624 59.653 64.0202 59.3338 64.2184C59.0145 64.4166 58.6794 64.536 58.3284 64.5768C57.9841 64.6168 57.6647 64.5834 57.3705 64.4766C57.082 64.3625 56.8441 64.1921 56.6567 63.9656C56.4752 63.7316 56.3663 63.459 56.3302 63.1478ZM59.5996 63.0399C59.6632 62.9519 59.7136 62.8655 59.7507 62.7807C59.7878 62.6958 59.8025 62.6203 59.7948 62.5541L59.7337 62.0276C59.5671 61.9799 59.3891 61.9502 59.1999 61.9386C59.0098 61.9204 58.832 61.9209 58.6665 61.9402C58.3221 61.9802 58.0462 62.0894 57.8387 62.2679C57.6371 62.4389 57.5506 62.647 57.579 62.892C57.5944 63.0244 57.6454 63.146 57.7321 63.2568C57.8188 63.3675 57.9359 63.4512 58.0835 63.5079C58.231 63.5646 58.4008 63.5818 58.5928 63.5595C58.7915 63.5364 58.9826 63.4773 59.1662 63.3822C59.349 63.2804 59.4935 63.1663 59.5996 63.0399ZM63.7867 63.8421L61.2651 58.8598L62.6458 58.6994L64.4208 62.5403L65.2781 58.3937L66.5396 58.2472L65.237 63.6737L63.7867 63.8421ZM67.1753 61.8881C67.136 61.5504 67.1945 61.245 67.3507 60.9718C67.5127 60.6912 67.7546 60.4618 68.0761 60.2835C68.3977 60.1052 68.777 59.9907 69.2141 59.9399C69.4326 59.9145 69.6564 59.9053 69.8854 59.9123C70.1144 59.9192 70.3159 59.9495 70.4899 60.0031L70.4576 59.725C70.4191 59.3939 70.2902 59.1505 70.0708 58.9948C69.858 58.8383 69.5595 58.7823 69.1754 58.8269C68.8907 58.86 68.6249 58.9412 68.3782 59.0705C68.1315 59.1999 67.8769 59.3771 67.6145 59.6022L67.0858 58.7777C67.404 58.5125 67.7354 58.3029 68.0799 58.1488C68.431 57.9939 68.8053 57.8934 69.2026 57.8473C69.9443 57.7611 70.5419 57.8796 70.9956 58.2028C71.4558 58.5251 71.726 59.0307 71.806 59.7194L71.9986 61.3782C72.0148 61.5173 72.0495 61.6139 72.1028 61.6682C72.1627 61.7216 72.2497 61.7484 72.3638 61.7486L72.4896 62.8313C72.3727 62.865 72.2653 62.8943 72.1675 62.919C72.0764 62.9431 71.9977 62.9589 71.9314 62.9666C71.6666 62.9974 71.4577 62.9612 71.3048 62.8582C71.1585 62.7544 71.0588 62.6183 71.0057 62.45L70.9447 62.1852C70.7534 62.5028 70.4981 62.7606 70.1788 62.9588C69.8596 63.1569 69.5244 63.2764 69.1735 63.3171C68.8291 63.3571 68.5098 63.3238 68.2155 63.217C67.9271 63.1028 67.6892 62.9325 67.5018 62.7059C67.3203 62.472 67.2114 62.1994 67.1753 61.8881ZM70.4446 61.7802C70.5083 61.6923 70.5586 61.6059 70.5957 61.5211C70.6329 61.4362 70.6476 61.3607 70.6399 61.2944L70.5787 60.768C70.4121 60.7202 70.2342 60.6906 70.0449 60.679C69.8549 60.6608 69.6771 60.6613 69.5115 60.6805C69.1672 60.7205 68.8913 60.8298 68.6838 61.0082C68.4822 61.1793 68.3956 61.3873 68.4241 61.6323C68.4395 61.7648 68.4905 61.8864 68.5772 61.9971C68.6639 62.1079 68.781 62.1916 68.9285 62.2483C69.076 62.305 69.2458 62.3221 69.4379 62.2998C69.6365 62.2768 69.8277 62.2177 70.0112 62.1225C70.194 62.0207 70.3385 61.9066 70.4446 61.7802ZM77.1419 57.0157C77.0901 56.9747 76.9967 56.9218 76.8617 56.857C76.7332 56.7914 76.5754 56.7325 76.3881 56.6804C76.2075 56.6276 76.0115 56.5866 75.8 56.5575C75.5878 56.5217 75.3758 56.5161 75.1638 56.5408C74.793 56.5838 74.5196 56.6861 74.3437 56.8474C74.1745 57.008 74.1045 57.2141 74.1337 57.4658C74.156 57.6578 74.2333 57.8032 74.3656 57.9019C74.4978 58.0007 74.6878 58.0759 74.9354 58.1277C75.183 58.1795 75.491 58.231 75.8594 58.2821C76.336 58.3409 76.7528 58.4334 77.1098 58.5597C77.4726 58.6787 77.7588 58.8602 77.9683 59.1043C78.1838 59.341 78.3165 59.6746 78.3665 60.1051C78.4103 60.4825 78.3785 60.8151 78.2709 61.1027C78.1626 61.3838 77.9956 61.6213 77.7698 61.8153C77.544 62.0093 77.2801 62.1642 76.9781 62.2798C76.6753 62.3888 76.3484 62.4636 75.9975 62.5044C75.6465 62.5452 75.2913 62.5495 74.9318 62.5174C74.5724 62.4854 74.2228 62.4219 73.8829 62.3272C73.5423 62.2258 73.225 62.0949 72.9312 61.9344L73.3998 60.6819C73.4664 60.7346 73.5816 60.8018 73.7454 60.8834C73.9085 60.9584 74.105 61.0329 74.3351 61.1069C74.5644 61.1742 74.812 61.226 75.078 61.2622C75.344 61.2984 75.6094 61.3011 75.8743 61.2704C76.2451 61.2273 76.5192 61.1317 76.6967 60.9836C76.8741 60.8355 76.9493 60.6455 76.9224 60.4137C76.8978 60.2018 76.8024 60.0451 76.6363 59.9436C76.4701 59.8421 76.2463 59.7641 75.9648 59.7095C75.6825 59.6483 75.3498 59.5863 74.9666 59.5234C74.5084 59.4491 74.1214 59.3531 73.8057 59.2355C73.4892 59.1111 73.2443 58.9382 73.0709 58.7168C72.8975 58.4953 72.7901 58.2057 72.7486 57.8481C72.6924 57.3647 72.7581 56.9477 72.9455 56.5971C73.1388 56.239 73.4212 55.9546 73.7927 55.7436C74.1634 55.5261 74.5872 55.3896 75.064 55.3342C75.3951 55.2958 75.7106 55.296 76.0104 55.335C76.3168 55.3733 76.6061 55.437 76.8782 55.5262C77.1503 55.6154 77.3971 55.7176 77.6186 55.8328L77.1419 57.0157ZM81.9426 61.834C81.5188 61.8832 81.13 61.8579 80.7761 61.7581C80.4214 61.6516 80.1103 61.4864 79.8427 61.2625C79.5743 61.0319 79.355 60.7621 79.1849 60.453C79.0214 60.1431 78.9188 59.8094 78.8773 59.4518C78.8204 58.9617 78.8777 58.502 79.0493 58.0727C79.2268 57.636 79.5066 57.2713 79.8887 56.9786C80.2708 56.6858 80.7433 56.5068 81.3062 56.4414C81.8691 56.376 82.3667 56.4424 82.7992 56.6405C83.2316 56.8386 83.5702 57.1248 83.815 57.499L82.5599 58.0475C82.425 57.8685 82.2591 57.7402 82.0621 57.6624C81.8644 57.578 81.653 57.5488 81.4278 57.575C81.1762 57.6042 80.9521 57.6973 80.7556 57.8544C80.5649 58.0041 80.4238 58.205 80.3323 58.4573C80.24 58.7029 80.2119 58.9813 80.2481 59.2925C80.2835 59.5972 80.3746 59.8618 80.5215 60.0863C80.6742 60.3035 80.8613 60.4697 81.0828 60.5849C81.3034 60.6935 81.5396 60.7332 81.7912 60.7039C81.9502 60.6855 82.0961 60.6417 82.229 60.5726C82.3685 60.5027 82.4892 60.4148 82.591 60.309C82.6928 60.2032 82.7633 60.0877 82.8024 59.9623L84.1498 60.2085C84.0606 60.4806 83.9121 60.7328 83.7041 60.965C83.5028 61.1964 83.2535 61.3898 82.9561 61.5452C82.6645 61.6931 82.3267 61.7894 81.9426 61.834ZM87.7427 56.9522C87.3387 56.9992 86.987 57.1205 86.6876 57.3164C86.3875 57.5056 86.1848 57.754 86.0795 58.0615L86.4453 61.2104L85.1142 61.365L84.5097 56.16L85.7314 56.018L85.8607 57.1306C86.0046 56.7514 86.207 56.4427 86.4679 56.2043C86.7288 55.966 87.017 55.8184 87.3326 55.7616C87.4054 55.7531 87.4617 55.7466 87.5014 55.742C87.5412 55.7374 87.5746 55.7368 87.6019 55.7404L87.7427 56.9522ZM88.9556 60.9188L88.351 55.7138L89.6821 55.5592L90.2866 60.7642L88.9556 60.9188ZM88.2668 54.9887L88.1134 53.6675L89.4444 53.5129L89.5979 54.8341L88.2668 54.9887ZM94.618 60.3618C94.214 60.4087 93.846 60.3608 93.514 60.2182C93.1879 60.0682 92.9206 59.8475 92.7123 59.5563L93.0642 62.5859L91.7331 62.7405L90.8828 55.4197L92.045 55.2847L92.1489 56.1787C92.3121 55.851 92.5361 55.5834 92.8207 55.3758C93.1046 55.1617 93.4418 55.0319 93.8326 54.9865C94.1835 54.9457 94.5128 54.978 94.8203 55.0832C95.1345 55.1876 95.4154 55.353 95.6632 55.5793C95.9102 55.7989 96.1121 56.064 96.269 56.3747C96.4317 56.6779 96.5346 57.015 96.5777 57.3858C96.6362 57.8891 96.5899 58.3576 96.4389 58.7912C96.2946 59.2241 96.0644 59.583 95.7485 59.868C95.4385 60.1457 95.0616 60.3103 94.618 60.3618ZM94.0394 59.2813C94.2447 59.2575 94.4251 59.1929 94.5807 59.0876C94.7363 58.9823 94.8652 58.8498 94.9674 58.6903C95.0756 58.5234 95.1487 58.3437 95.1867 58.1514C95.2307 57.9517 95.2407 57.7492 95.2168 57.5439C95.1915 57.3253 95.1316 57.1276 95.0372 56.9506C94.9494 56.7729 94.8313 56.6222 94.6827 56.4985C94.5333 56.3682 94.3646 56.2737 94.1766 56.215C93.9952 56.1555 93.8018 56.1377 93.5965 56.1616C93.4707 56.1762 93.3443 56.2144 93.2172 56.2761C93.096 56.3305 92.9804 56.4043 92.8705 56.4976C92.7605 56.5909 92.6653 56.6959 92.5849 56.8126C92.5111 56.9286 92.4617 57.0518 92.4366 57.1822L92.5785 58.404C92.6802 58.5868 92.8066 58.75 92.9575 58.8936C93.115 59.0363 93.2885 59.1437 93.4781 59.2156C93.6669 59.281 93.854 59.3029 94.0394 59.2813ZM100.803 59.2709C100.696 59.3303 100.566 59.3991 100.414 59.4772C100.262 59.5552 100.095 59.6216 99.9138 59.6762C99.7396 59.7367 99.5598 59.7777 99.3744 59.7993C99.1293 59.8277 98.8992 59.8108 98.6839 59.7486C98.4686 59.6863 98.2873 59.5698 98.1399 59.399C97.9984 59.2208 97.91 58.9794 97.8746 58.6748L97.5273 55.6849L96.8419 55.7645L96.7231 54.7414L97.4085 54.6618L97.2124 52.9731L98.5434 52.8185L98.7395 54.5072L99.8322 54.3803L99.951 55.4034L98.8584 55.5303L99.1537 58.0732C99.1811 58.2512 99.2458 58.3746 99.3477 58.4433C99.4497 58.512 99.5702 58.5383 99.7092 58.5221C99.8483 58.5059 99.9814 58.467 100.108 58.4053C100.235 58.3435 100.337 58.2915 100.412 58.2491L100.803 59.2709Z" fill="#FFC100"/>
<path d="M50.5629 54.3042L50.2353 51.4831L51.4272 51.3447C51.5491 51.3305 51.6633 51.3428 51.7698 51.3814C51.8763 51.42 51.9717 51.4788 52.056 51.5576C52.1427 51.6334 52.212 51.722 52.2641 51.8233C52.3184 51.9217 52.3519 52.0252 52.3645 52.1338C52.3802 52.2689 52.3685 52.3991 52.3294 52.5245C52.2929 52.6495 52.2318 52.7586 52.1459 52.8518C52.0628 52.9447 51.9591 53.0118 51.8351 53.053L52.6529 54.0614L52.339 54.0979L51.5545 53.1339L50.7201 53.2309L50.841 54.2719L50.5629 54.3042ZM50.6915 52.9845L51.6133 52.8774C51.7246 52.8645 51.8177 52.8228 51.8928 52.7524C51.9678 52.6819 52.0221 52.5951 52.0558 52.4918C52.0891 52.3859 52.0993 52.2774 52.0864 52.1661C52.0732 52.0522 52.0345 51.9507 51.9705 51.8615C51.9088 51.7693 51.8308 51.6992 51.7367 51.651C51.6448 51.6 51.5459 51.5806 51.44 51.5929L50.542 51.6972L50.6915 52.9845ZM53.0837 54.0114L52.8433 51.9413L53.1135 51.9099L53.3539 53.98L53.0837 54.0114ZM52.793 51.5082L52.7468 51.1109L53.017 51.0795L53.0632 51.4768L52.793 51.5082ZM54.8516 53.8463C54.7006 53.8638 54.5583 53.8522 54.4247 53.8113C54.2934 53.7675 54.1743 53.7008 54.0672 53.6112C53.9628 53.5213 53.8766 53.4146 53.8085 53.2909C53.7431 53.167 53.702 53.0322 53.685 52.8865C53.6623 52.6905 53.6852 52.5066 53.7539 52.3349C53.8225 52.1631 53.9294 52.0205 54.0746 51.907C54.2199 51.7935 54.3944 51.7249 54.5984 51.7012C54.7918 51.6787 54.9678 51.7039 55.1266 51.7768C55.2851 51.8469 55.4089 51.9534 55.498 52.096L55.2454 52.2099C55.1748 52.1108 55.0832 52.0382 54.9705 51.9922C54.8601 51.9433 54.7413 51.9262 54.6142 51.941C54.4764 51.957 54.3548 52.0073 54.2492 52.0921C54.1436 52.1768 54.0636 52.2855 54.0092 52.418C53.9574 52.5502 53.9407 52.6957 53.9592 52.8546C53.9774 53.0109 54.0283 53.1486 54.1119 53.2678C54.1955 53.3869 54.2988 53.4783 54.4216 53.5419C54.5441 53.6028 54.6742 53.6253 54.812 53.6093C54.902 53.5988 54.9863 53.5729 55.0647 53.5316C55.1458 53.49 55.2137 53.4391 55.2685 53.3791C55.3256 53.3161 55.361 53.2516 55.3748 53.1855L55.6503 53.2341C55.6246 53.3364 55.5726 53.4324 55.4945 53.522C55.4186 53.6086 55.325 53.6812 55.2137 53.7398C55.1047 53.7954 54.984 53.8309 54.8516 53.8463ZM57.6077 53.4859L56.7177 52.5141L56.3246 52.9786L56.3998 53.6262L56.1297 53.6576L55.7928 50.7571L56.0629 50.7257L56.2909 52.6885L57.332 51.424L57.63 51.3893L56.882 52.334L57.9017 53.4518L57.6077 53.4859ZM59.3049 53.2888L58.9773 50.4678L60.1693 50.3293C60.2911 50.3152 60.4053 50.3274 60.5118 50.366C60.6183 50.4047 60.7137 50.4634 60.798 50.5422C60.8847 50.618 60.954 50.7066 61.0061 50.808C61.0604 50.9063 61.0939 51.0098 61.1066 51.1184C61.1223 51.2535 61.1105 51.3837 61.0714 51.5091C61.0349 51.6341 60.9738 51.7433 60.8879 51.8365C60.8048 51.9293 60.7011 51.9964 60.5771 52.0377L61.3949 53.046L61.081 53.0825L60.2965 52.1186L59.4621 52.2155L59.5831 53.2565L59.3049 53.2888ZM59.4335 51.9691L60.3553 51.8621C60.4666 51.8491 60.5597 51.8075 60.6348 51.737C60.7098 51.6665 60.7642 51.5797 60.7978 51.4764C60.8311 51.3706 60.8414 51.262 60.8284 51.1507C60.8152 51.0368 60.7766 50.9353 60.7125 50.8461C60.6508 50.7539 60.5728 50.6838 60.4787 50.6357C60.3868 50.5846 60.2879 50.5652 60.182 50.5775L59.284 50.6818L59.4335 51.9691ZM61.578 52.4207C61.5629 52.2909 61.5871 52.1754 61.6505 52.0741C61.7136 51.9701 61.8071 51.8854 61.931 51.82C62.0573 51.7516 62.2066 51.7075 62.3787 51.6875C62.4794 51.6758 62.5849 51.6716 62.6954 51.6748C62.8058 51.6781 62.9053 51.6907 62.9938 51.7127L62.9734 51.5378C62.9531 51.363 62.8853 51.23 62.77 51.1386C62.6547 51.0473 62.5057 51.0123 62.3229 51.0335C62.2117 51.0465 62.1042 51.0804 62.0005 51.1354C61.8992 51.1874 61.7949 51.26 61.6875 51.353L61.5621 51.1743C61.6864 51.0659 61.8108 50.9816 61.9354 50.9215C62.0597 50.8587 62.1893 50.8195 62.3244 50.8038C62.5787 50.7743 62.7885 50.8237 62.9537 50.9522C63.119 51.0807 63.2166 51.2734 63.2464 51.5303L63.3576 52.4879C63.3619 52.5249 63.3731 52.5518 63.3912 52.5685C63.4089 52.5826 63.4351 52.5889 63.4699 52.5876L63.4948 52.8021C63.466 52.8082 63.4411 52.8137 63.4202 52.8189C63.3993 52.824 63.3834 52.8258 63.3725 52.8244C63.306 52.8294 63.2532 52.8141 63.2142 52.7784C63.1751 52.7426 63.1517 52.7024 63.1438 52.6577L63.1223 52.5071C63.0434 52.6371 62.9337 52.7438 62.793 52.8273C62.6521 52.9081 62.5048 52.9574 62.3511 52.9752C62.2187 52.9906 62.0949 52.9768 61.9799 52.9338C61.8671 52.8878 61.7748 52.8207 61.7028 52.7324C61.6331 52.6412 61.5915 52.5373 61.578 52.4207ZM62.9831 52.4186C63.008 52.3781 63.0263 52.3398 63.0382 52.3035C63.0501 52.2672 63.0545 52.2358 63.0514 52.2093L63.0164 51.9074C62.9223 51.8834 62.8252 51.8678 62.725 51.8607C62.6275 51.8532 62.5298 51.8552 62.4318 51.8665C62.2384 51.889 62.0866 51.9456 61.9763 52.0362C61.866 52.1269 61.8186 52.2384 61.8339 52.3709C61.8429 52.4477 61.8712 52.5182 61.9189 52.5825C61.9664 52.6441 62.0311 52.6929 62.1131 52.7291C62.1949 52.7625 62.2874 52.7732 62.3907 52.7612C62.5205 52.7462 62.6381 52.707 62.7435 52.6438C62.8516 52.5802 62.9314 52.5052 62.9831 52.4186ZM65.7195 52.5437L65.4493 52.5751L65.315 51.4189C65.2867 51.1752 65.2304 51.0019 65.1459 50.8989C65.0612 50.7933 64.942 50.7495 64.7884 50.7673C64.6824 50.7796 64.5808 50.8183 64.4837 50.8832C64.3862 50.9456 64.303 51.0264 64.234 51.1257C64.1673 51.222 64.1234 51.3291 64.1022 51.447L64.2494 52.7145L63.9792 52.7459L63.7388 50.6758L63.9851 50.6472L64.0396 51.116C64.0835 51.0089 64.1462 50.913 64.2277 50.8284C64.3088 50.7411 64.4039 50.6697 64.5128 50.6141C64.6218 50.5585 64.7372 50.5236 64.8591 50.5094C64.973 50.4962 65.0721 50.5062 65.1565 50.5393C65.2409 50.5725 65.3115 50.626 65.3685 50.6999C65.4251 50.7712 65.4704 50.8612 65.5045 50.97C65.5383 51.0762 65.5631 51.1968 65.5788 51.3319L65.7195 52.5437ZM66.0371 51.4639C66.0143 51.2679 66.0333 51.0845 66.094 50.9136C66.157 50.7399 66.2544 50.5957 66.386 50.4811C66.5177 50.3664 66.6749 50.2985 66.8577 50.2773C67.0298 50.2573 67.1889 50.2858 67.3347 50.3628C67.4829 50.4369 67.603 50.5344 67.6949 50.6552L67.5481 49.3917L67.8183 49.3603L68.1173 51.935C68.1216 51.9721 68.1328 51.999 68.1509 52.0157C68.1686 52.0297 68.1935 52.0362 68.2256 52.0352L68.2505 52.2498C68.1985 52.2639 68.1577 52.2713 68.1283 52.272C68.0724 52.2758 68.0207 52.259 67.9734 52.2215C67.9261 52.1841 67.8996 52.1402 67.8937 52.0899L67.8702 51.8872C67.8038 52.0319 67.705 52.1521 67.5738 52.2478C67.4426 52.3436 67.3016 52.4003 67.1506 52.4178C67.0075 52.4344 66.8717 52.4206 66.7431 52.3765C66.6171 52.3321 66.5033 52.2648 66.4015 52.1746C66.3024 52.0841 66.2203 51.9782 66.1552 51.8569C66.0925 51.7326 66.0531 51.6016 66.0371 51.4639ZM67.8024 51.581L67.7281 50.9413C67.6826 50.8499 67.617 50.7703 67.5312 50.7024C67.4452 50.6319 67.3505 50.5798 67.2473 50.5461C67.1464 50.5095 67.0483 50.4968 66.9529 50.5078C66.8417 50.5208 66.7438 50.5563 66.6592 50.6144C66.5744 50.6699 66.5035 50.7413 66.4465 50.8284C66.3922 50.9153 66.3536 51.011 66.3309 51.1157C66.3081 51.2203 66.3029 51.3256 66.3152 51.4316C66.3281 51.5428 66.359 51.6466 66.4078 51.743C66.4592 51.839 66.5253 51.9226 66.606 51.9938C66.6865 52.0623 66.7755 52.1124 66.8731 52.144C66.9708 52.1756 67.0739 52.1851 67.1825 52.1725C67.2514 52.1645 67.3213 52.1429 67.3924 52.1078C67.4635 52.0727 67.5296 52.0288 67.5906 51.9761C67.6539 51.9204 67.7044 51.8582 67.742 51.7894C67.7797 51.7206 67.7998 51.6511 67.8024 51.581ZM68.9604 52.8116C68.9978 52.81 69.0337 52.8071 69.0681 52.8031C69.1029 52.8018 69.1279 52.7975 69.1432 52.7904C69.1743 52.7814 69.2026 52.7593 69.2281 52.7241C69.2535 52.689 69.2809 52.6241 69.3102 52.5294C69.3394 52.4347 69.3797 52.2958 69.4309 52.1127L68.2885 50.1473L68.5746 50.1141L69.5416 51.8179L70.0328 49.9447L70.303 49.9134L69.5403 52.708C69.5276 52.7605 69.5052 52.8101 69.473 52.8568C69.4412 52.9061 69.3988 52.9459 69.346 52.9762C69.2961 53.0089 69.2315 53.0311 69.1524 53.043C69.1288 53.0484 69.1037 53.0514 69.0769 53.0518C69.053 53.0545 69.0236 53.0553 68.9885 53.054L68.9604 52.8116Z" fill="white"/>
<path d="M58.3517 73.0507L55.8386 73.3426L56.5862 79.7793L55.8909 79.8601L55.1433 73.4233L52.6302 73.7152L52.5586 73.0994L58.2802 72.4348L58.3517 73.0507ZM64.3674 78.8755L63.692 78.954L63.3562 76.0634C63.2885 75.4807 63.1351 75.0555 62.896 74.788C62.6561 74.5138 62.3441 74.3991 61.96 74.4437C61.7084 74.4729 61.4644 74.5683 61.2282 74.73C60.9978 74.8843 60.7996 75.0852 60.6337 75.3326C60.4737 75.5727 60.3705 75.8397 60.3241 76.1337L60.6921 79.3024L60.0167 79.3808L59.1744 72.1296L59.8499 72.0511L60.2272 75.2993C60.3878 74.8914 60.6372 74.5537 60.9753 74.2862C61.3192 74.0114 61.6998 73.8497 62.117 73.8013C62.4149 73.7667 62.6727 73.7904 62.8903 73.8725C63.1146 73.9539 63.3015 74.0899 63.4512 74.2805C63.6067 74.4638 63.73 74.6878 63.8211 74.9523C63.9115 75.2103 63.9763 75.5082 64.0155 75.8459L64.3674 78.8755ZM68.0543 78.548C67.6835 78.591 67.3311 78.5615 66.997 78.4593C66.6623 78.3506 66.3647 78.1871 66.1045 77.969C65.8435 77.7443 65.6279 77.4774 65.4578 77.1683C65.2943 76.8584 65.191 76.5181 65.1479 76.1472C65.0918 75.6638 65.1495 75.2075 65.3211 74.7781C65.4994 74.348 65.77 73.9911 66.133 73.7073C66.4953 73.4169 66.9247 73.2429 67.4214 73.1852C67.9313 73.1259 68.3892 73.1969 68.7951 73.3981C69.2077 73.5985 69.5466 73.888 69.8121 74.2666C70.0768 74.6385 70.2368 75.0629 70.2922 75.5397C70.2983 75.5927 70.3045 75.6456 70.3106 75.6986C70.316 75.745 70.317 75.7818 70.3134 75.809L65.8832 76.3236C65.9594 76.6906 66.1005 77.0098 66.3065 77.2811C66.5184 77.5451 66.7734 77.7471 67.0715 77.8869C67.3755 78.0194 67.693 78.0664 68.0241 78.028C68.3619 77.9887 68.6697 77.8657 68.9477 77.6589C69.2323 77.4514 69.4181 77.2016 69.505 76.9096L70.1095 77.0005C70.032 77.2578 69.8955 77.4985 69.7001 77.7226C69.5046 77.9466 69.2644 78.1322 68.9795 78.2794C68.7004 78.4192 68.392 78.5087 68.0543 78.548ZM65.8068 75.8392L69.6311 75.395C69.5607 75.0206 69.4196 74.7014 69.2078 74.4374C69.0025 74.1727 68.7483 73.9774 68.4451 73.8515C68.1477 73.7183 67.8302 73.6712 67.4924 73.7105C67.1547 73.7497 66.8564 73.8682 66.5975 74.0661C66.3378 74.2573 66.1355 74.509 65.9906 74.8212C65.8515 75.1259 65.7902 75.4653 65.8068 75.8392ZM57.4225 91.8333C57.0715 91.8741 56.7386 91.8389 56.4237 91.7278C56.1087 91.6168 55.8278 91.4514 55.5808 91.2318C55.3397 91.0047 55.141 90.7392 54.9849 90.4352C54.8288 90.1312 54.7311 89.8103 54.6919 89.4726C54.6496 89.1084 54.6663 88.7608 54.7419 88.4298C54.8234 88.0915 54.9555 87.7842 55.1382 87.508C55.3275 87.2309 55.5598 87.006 55.835 86.8331C56.1095 86.6535 56.4255 86.543 56.7831 86.5015C57.2268 86.4499 57.6239 86.5179 57.9746 86.7054C58.3318 86.8921 58.6423 87.1379 58.9059 87.4428L58.7801 86.3601L59.386 86.2897L59.9894 91.4848C60.0448 91.9616 59.9755 92.3757 59.7814 92.7271C59.5947 93.0844 59.3156 93.3685 58.9441 93.5794C58.5793 93.7896 58.1684 93.9212 57.7114 93.9743C57.1221 94.0427 56.633 93.9921 56.2441 93.8225C55.8553 93.6529 55.5242 93.4028 55.2509 93.0721L55.6301 92.6959C55.873 92.9965 56.1726 93.2067 56.5288 93.3264C56.8916 93.4453 57.2651 93.4825 57.6491 93.4379C57.9869 93.3986 58.2875 93.3 58.551 93.1418C58.8219 92.9896 59.0259 92.7813 59.163 92.5171C59.3067 92.252 59.3571 91.9341 59.314 91.5633L59.1951 90.5402C59.0342 90.8877 58.793 91.1808 58.4718 91.4195C58.1497 91.6515 57.8 91.7895 57.4225 91.8333ZM57.5455 91.2452C57.7508 91.2213 57.9419 91.1622 58.1188 91.0679C58.3024 90.9727 58.4668 90.8563 58.6118 90.7186C58.7562 90.5744 58.8725 90.4199 58.9607 90.2553C59.049 90.0907 59.0971 89.9274 59.1052 89.7654L58.9194 88.1661C58.7908 87.926 58.6227 87.7207 58.415 87.5502C58.2065 87.3731 57.9769 87.2454 57.7262 87.1671C57.4813 87.0815 57.2331 87.0532 56.9814 87.0825C56.6901 87.1163 56.4358 87.2096 56.2186 87.3623C56.0073 87.5077 55.8341 87.6922 55.699 87.916C55.5698 88.1323 55.4768 88.3713 55.4199 88.633C55.363 88.8946 55.3492 89.1513 55.3785 89.4029C55.4108 89.681 55.4912 89.9401 55.6197 90.1803C55.7475 90.4137 55.9091 90.6198 56.1043 90.7985C56.3054 90.9698 56.528 91.0949 56.7721 91.1739C57.0228 91.2522 57.2806 91.276 57.5455 91.2452ZM63.5295 86.4125C63.0807 86.4781 62.698 86.65 62.3814 86.9284C62.0713 87.2061 61.871 87.5615 61.7804 87.9949L62.1542 91.2132L61.4787 91.2917L60.8776 86.1165L61.5134 86.0427L61.6576 87.2843C61.7941 86.8993 61.9949 86.5773 62.2602 86.3183C62.532 86.0586 62.832 85.8962 63.16 85.8313C63.2254 85.817 63.2813 85.8071 63.3277 85.8017C63.3807 85.7956 63.4241 85.7939 63.458 85.7967L63.5295 86.4125ZM67.0428 90.7461C66.672 90.7892 66.3195 90.7597 65.9855 90.6575C65.6507 90.5487 65.3532 90.3853 65.093 90.1672C64.832 89.9425 64.6164 89.6756 64.4463 89.3665C64.2828 89.0566 64.1795 88.7162 64.1364 88.3454C64.0803 87.862 64.138 87.4056 64.3096 86.9763C64.4878 86.5462 64.7585 86.1892 65.1215 85.9055C65.4837 85.6151 65.9132 85.441 66.4098 85.3833C66.9198 85.3241 67.3777 85.3951 67.7836 85.5963C68.1961 85.7967 68.5351 86.0862 68.8006 86.4647C69.0653 86.8367 69.2253 87.261 69.2807 87.7378C69.2868 87.7908 69.293 87.8438 69.2991 87.8968C69.3045 87.9431 69.3054 87.9799 69.3019 88.0072L64.8717 88.5218C64.9479 88.8887 65.089 89.2079 65.295 89.4793C65.5068 89.7433 65.7618 89.9452 66.06 90.0851C66.364 90.2176 66.6815 90.2646 67.0126 90.2261C67.3503 90.1869 67.6582 90.0639 67.9362 89.8571C68.2208 89.6495 68.4066 89.3998 68.4935 89.1078L69.098 89.1987C69.0205 89.456 68.884 89.6967 68.6886 89.9207C68.4931 90.1448 68.2529 90.3304 67.968 90.4776C67.6889 90.6174 67.3805 90.7069 67.0428 90.7461ZM64.7953 88.0373L68.6196 87.5931C68.5492 87.2188 68.4081 86.8996 68.1963 86.6356C67.991 86.3708 67.7368 86.1755 67.4336 86.0497C67.1362 85.9164 66.8187 85.8694 66.4809 85.9086C66.1432 85.9479 65.8449 86.0664 65.586 86.2643C65.3263 86.4555 65.124 86.7072 64.979 87.0193C64.8399 87.3241 64.7787 87.6634 64.7953 88.0373ZM70.036 88.7877C69.9983 88.4632 70.0587 88.1743 70.2172 87.921C70.3749 87.6611 70.6087 87.4494 70.9186 87.2858C71.2343 87.1149 71.6074 87.0045 72.0378 86.9545C72.2895 86.9253 72.5534 86.9148 72.8295 86.923C73.1056 86.9312 73.3542 86.9627 73.5754 87.0175L73.5246 86.5805C73.4739 86.1434 73.3043 85.8107 73.0161 85.5825C72.7278 85.3542 72.3552 85.2666 71.8983 85.3197C71.6202 85.352 71.3515 85.4369 71.0923 85.5744C70.839 85.7045 70.5781 85.8858 70.3098 86.1183L69.9962 85.6715C70.307 85.4005 70.6181 85.1898 70.9295 85.0396C71.2402 84.8827 71.5643 84.7846 71.9021 84.7454C72.5378 84.6716 73.0622 84.7952 73.4754 85.1164C73.8885 85.4375 74.1324 85.9193 74.207 86.5616L74.4851 88.9555C74.4958 89.0482 74.5238 89.1155 74.5689 89.1572C74.6132 89.1923 74.6788 89.2082 74.7657 89.2048L74.828 89.7412C74.7559 89.7563 74.6938 89.7702 74.6416 89.783C74.5894 89.7958 74.5496 89.8004 74.5224 89.7968C74.356 89.8094 74.2241 89.7711 74.1264 89.6817C74.0288 89.5924 73.9702 89.4918 73.9505 89.38L73.8967 89.0037C73.6995 89.3286 73.4251 89.5954 73.0735 89.804C72.7211 90.006 72.3529 90.1294 71.9688 90.174C71.6377 90.2124 71.3283 90.1779 71.0407 90.0704C70.7589 89.9554 70.528 89.7876 70.348 89.5669C70.1738 89.3388 70.0698 89.0791 70.036 88.7877ZM73.5488 88.7824C73.6109 88.6812 73.6568 88.5853 73.6865 88.4946C73.7163 88.4039 73.7273 88.3254 73.7196 88.2592L73.6319 87.5043C73.3968 87.4443 73.154 87.4054 72.9036 87.3875C72.6598 87.3688 72.4154 87.3737 72.1704 87.4022C71.687 87.4583 71.3074 87.5997 71.0317 87.8264C70.756 88.0531 70.6374 88.3319 70.6759 88.663C70.6982 88.8551 70.769 89.0314 70.8883 89.1921C71.0069 89.3461 71.1687 89.4682 71.3738 89.5585C71.5782 89.6421 71.8095 89.669 72.0678 89.639C72.3922 89.6013 72.6862 89.5034 72.9498 89.3453C73.2199 89.1864 73.4196 88.9987 73.5488 88.7824ZM78.4547 89.0683C78.4041 89.0943 78.3255 89.1403 78.2191 89.2064C78.1127 89.2724 77.9823 89.3346 77.828 89.3928C77.6737 89.4509 77.5038 89.4908 77.3184 89.5123C77.1263 89.5347 76.94 89.5194 76.7594 89.4665C76.5853 89.4129 76.4402 89.319 76.3239 89.1849C76.2069 89.0441 76.1357 88.8645 76.1103 88.6459L75.68 84.9408L74.9648 85.0239L74.9025 84.4875L75.6177 84.4044L75.4146 82.6562L76.0901 82.5777L76.2932 84.326L77.4851 84.1875L77.5474 84.7239L76.3555 84.8624L76.7639 88.3788C76.7987 88.5626 76.881 88.694 77.011 88.7729C77.1476 88.851 77.2954 88.8808 77.4543 88.8623C77.6397 88.8408 77.8051 88.7914 77.9505 88.7141C78.0951 88.6302 78.1824 88.5731 78.2125 88.5427L78.4547 89.0683ZM56.0764 101.392C56.0195 100.902 56.0669 100.444 56.2186 100.017C56.3762 99.5824 56.6196 99.2219 56.9487 98.9354C57.2779 98.6488 57.6709 98.479 58.1278 98.426C58.5583 98.376 58.9558 98.4472 59.3205 98.6398C59.691 98.8249 59.9911 99.0686 60.2208 99.3708L59.8539 96.212L60.5294 96.1336L61.277 102.57C61.2878 102.663 61.3157 102.73 61.3608 102.772C61.4052 102.807 61.4675 102.823 61.5477 102.821L61.61 103.357C61.4799 103.392 61.378 103.411 61.3044 103.413C61.1646 103.422 61.0355 103.38 60.9172 103.287C60.799 103.193 60.7325 103.083 60.7179 102.957L60.6591 102.451C60.493 102.812 60.2461 103.113 59.9182 103.352C59.5903 103.592 59.2376 103.733 58.8601 103.777C58.5025 103.819 58.163 103.784 57.8414 103.674C57.5265 103.563 57.2418 103.395 56.9875 103.169C56.7397 102.943 56.5345 102.678 56.3717 102.375C56.2148 102.064 56.1164 101.737 56.0764 101.392ZM60.4896 101.685L60.3039 100.086C60.1901 99.8576 60.026 99.6585 59.8117 99.4888C59.5966 99.3124 59.36 99.1822 59.1019 99.0981C58.8496 99.0066 58.6043 98.9746 58.3659 99.0023C58.0878 99.0346 57.8431 99.1235 57.6318 99.2688C57.4197 99.4075 57.2424 99.5859 57.0999 99.8037C56.9641 100.021 56.8677 100.26 56.8109 100.522C56.754 100.784 56.7409 101.047 56.7717 101.312C56.804 101.59 56.8811 101.849 57.0031 102.09C57.1316 102.33 57.2969 102.539 57.4987 102.717C57.6998 102.888 57.9224 103.014 58.1665 103.093C58.4106 103.172 58.6684 103.195 58.9399 103.164C59.1121 103.144 59.287 103.09 59.4647 103.002C59.6425 102.915 59.8076 102.805 59.9601 102.673C60.1184 102.534 60.2446 102.378 60.3387 102.206C60.4328 102.034 60.4831 101.86 60.4896 101.685ZM65.1485 103.047C64.7777 103.09 64.4253 103.06 64.0913 102.958C63.7565 102.849 63.459 102.686 63.1987 102.468C62.9377 102.243 62.7222 101.976 62.552 101.667C62.3885 101.357 62.2852 101.017 62.2422 100.646C62.186 100.163 62.2437 99.7063 62.4154 99.277C62.5936 98.8469 62.8642 98.4899 63.2272 98.2061C63.5895 97.9157 64.0189 97.7417 64.5156 97.684C65.0255 97.6248 65.4834 97.6958 65.8893 97.8969C66.3019 98.0974 66.6409 98.3868 66.9063 98.7654C67.171 99.1374 67.331 99.5617 67.3864 100.039C67.3926 100.092 67.3987 100.144 67.4049 100.197C67.4103 100.244 67.4112 100.281 67.4076 100.308L62.9774 100.822C63.0536 101.189 63.1947 101.509 63.4007 101.78C63.6126 102.044 63.8676 102.246 64.1657 102.386C64.4697 102.518 64.7872 102.565 65.1183 102.527C65.4561 102.488 65.7639 102.365 66.0419 102.158C66.3266 101.95 66.5123 101.7 66.5992 101.408L67.2037 101.499C67.1262 101.757 66.9898 101.997 66.7943 102.221C66.5988 102.445 66.3587 102.631 66.0737 102.778C65.7947 102.918 65.4863 103.008 65.1485 103.047ZM62.901 100.338L66.7253 99.8938C66.655 99.5194 66.5139 99.2003 66.302 98.9363C66.0967 98.6715 65.8425 98.4762 65.5393 98.3504C65.2419 98.2171 64.9244 98.1701 64.5867 98.2093C64.2489 98.2486 63.9506 98.3671 63.6917 98.565C63.4321 98.7562 63.2297 99.0079 63.0848 99.32C62.9457 99.6248 62.8844 99.9641 62.901 100.338ZM71.2765 102.335C70.8725 102.382 70.4865 102.323 70.1183 102.157C69.7493 101.986 69.4503 101.752 69.2214 101.456L69.3379 102.46L68.732 102.53L67.8898 95.2787L68.5652 95.2002L68.9321 98.359C69.1231 97.9811 69.3685 97.6673 69.6684 97.4177C69.9675 97.1615 70.3323 97.0084 70.7627 96.9584C71.127 96.9161 71.4603 96.9546 71.7627 97.0738C72.0718 97.1923 72.344 97.3687 72.5792 97.6031C72.8138 97.8309 73.0028 98.1009 73.1465 98.4131C73.2894 98.7187 73.3804 99.0403 73.4196 99.378C73.4619 99.7423 73.4386 100.091 73.3497 100.423C73.2675 100.755 73.1284 101.06 72.9324 101.337C72.7357 101.609 72.4969 101.834 72.2158 102.015C71.9406 102.187 71.6275 102.294 71.2765 102.335ZM71.0483 101.758C71.3265 101.725 71.5782 101.639 71.8035 101.499C72.0288 101.358 72.216 101.179 72.3651 100.96C72.5142 100.742 72.6209 100.504 72.6852 100.249C72.7487 99.9862 72.765 99.7225 72.7342 99.4576C72.6919 99.0934 72.5729 98.7616 72.377 98.4622C72.187 98.1554 71.9418 97.9222 71.6414 97.7624C71.3468 97.5953 71.0141 97.5333 70.6432 97.5763C70.3783 97.6071 70.1369 97.6955 69.919 97.8417C69.7077 97.987 69.5242 98.1694 69.3685 98.3888C69.2186 98.6009 69.1008 98.8293 69.0152 99.0742L69.2021 100.683C69.2493 100.859 69.3385 101.02 69.4695 101.166C69.5998 101.305 69.7542 101.421 69.9329 101.515C70.1181 101.607 70.3073 101.676 70.5004 101.72C70.6935 101.765 70.8762 101.778 71.0483 101.758ZM74.2724 100.376C74.2347 100.052 74.2951 99.7629 74.4536 99.5096C74.6113 99.2497 74.8451 99.038 75.155 98.8745C75.4707 98.7036 75.8438 98.5931 76.2742 98.5431C76.5259 98.5139 76.7898 98.5034 77.0659 98.5116C77.342 98.5198 77.5906 98.5513 77.8118 98.6061L77.761 98.1691C77.7103 97.732 77.5407 97.3994 77.2525 97.1711C76.9642 96.9428 76.5916 96.8552 76.1347 96.9083C75.8566 96.9406 75.5879 97.0255 75.3287 97.163C75.0754 97.2931 74.8145 97.4744 74.5462 97.7069L74.2326 97.2601C74.5434 96.9891 74.8545 96.7785 75.1659 96.6282C75.4766 96.4713 75.8007 96.3733 76.1385 96.334C76.7742 96.2602 77.2986 96.3838 77.7118 96.705C78.1249 97.0261 78.3688 97.5079 78.4434 98.1502L78.7215 100.544C78.7322 100.637 78.7602 100.704 78.8053 100.746C78.8496 100.781 78.9152 100.797 79.0021 100.793L79.0644 101.33C78.9923 101.345 78.9302 101.359 78.878 101.372C78.8258 101.384 78.786 101.389 78.7588 101.385C78.5924 101.398 78.4605 101.36 78.3628 101.27C78.2652 101.181 78.2066 101.08 78.1869 100.969L78.1331 100.592C77.9359 100.917 77.6615 101.184 77.3099 101.393C76.9575 101.595 76.5893 101.718 76.2052 101.763C75.8741 101.801 75.5647 101.767 75.2771 101.659C74.9953 101.544 74.7644 101.376 74.5844 101.156C74.4102 100.927 74.3062 100.668 74.2724 100.376ZM77.7852 100.371C77.8473 100.27 77.8932 100.174 77.9229 100.083C77.9527 99.9925 77.9637 99.914 77.956 99.8478L77.8683 99.0929C77.6332 99.0329 77.3904 98.994 77.14 98.9761C76.8962 98.9575 76.6518 98.9624 76.4068 98.9908C75.9234 99.047 75.5438 99.1884 75.2681 99.415C74.9924 99.6417 74.8738 99.9206 74.9123 100.252C74.9346 100.444 75.0054 100.62 75.1247 100.781C75.2433 100.935 75.4051 101.057 75.6102 101.147C75.8146 101.231 76.0459 101.258 76.3042 101.228C76.6286 101.19 76.9227 101.092 77.1862 100.934C77.4563 100.775 77.656 100.587 77.7852 100.371ZM82.6911 100.657C82.6405 100.683 82.5619 100.729 82.4555 100.795C82.3491 100.861 82.2187 100.923 82.0644 100.981C81.9101 101.04 81.7402 101.079 81.5548 101.101C81.3627 101.123 81.1764 101.108 80.9958 101.055C80.8217 101.002 80.6766 100.908 80.5604 100.774C80.4433 100.633 80.3721 100.453 80.3467 100.235L79.9164 96.5295L79.2012 96.6125L79.1389 96.0761L79.8541 95.9931L79.651 94.2448L80.3265 94.1664L80.5296 95.9146L81.7215 95.7762L81.7838 96.3126L80.5919 96.451L81.0003 99.9674C81.0351 100.151 81.1174 100.283 81.2474 100.361C81.384 100.44 81.5318 100.469 81.6907 100.451C81.8761 100.429 82.0415 100.38 82.1869 100.303C82.3315 100.219 82.4188 100.162 82.4489 100.131L82.6911 100.657ZM85.7231 100.657C85.3523 100.7 84.9998 100.671 84.6658 100.568C84.331 100.46 84.0335 100.296 83.7733 100.078C83.5123 99.8535 83.2967 99.5865 83.1266 99.2774C82.9631 98.9676 82.8598 98.6272 82.8167 98.2564C82.7606 97.773 82.8183 97.3166 82.9899 96.8872C83.1682 96.4571 83.4388 96.1002 83.8018 95.8164C84.1641 95.526 84.5935 95.352 85.0902 95.2943C85.6001 95.2351 86.058 95.306 86.4639 95.5072C86.8764 95.7076 87.2154 95.9971 87.4809 96.3757C87.7456 96.7476 87.9056 97.172 87.961 97.6488C87.9671 97.7018 87.9733 97.7548 87.9794 97.8077C87.9848 97.8541 87.9857 97.8909 87.9822 97.9182L83.552 98.4327C83.6282 98.7997 83.7693 99.1189 83.9753 99.3903C84.1872 99.6543 84.4422 99.8562 84.7403 99.9961C85.0443 100.129 85.3618 100.176 85.6929 100.137C86.0307 100.098 86.3385 99.9749 86.6165 99.7681C86.9011 99.5605 87.0869 99.3108 87.1738 99.0188L87.7783 99.1096C87.7008 99.367 87.5643 99.6076 87.3689 99.8317C87.1734 100.056 86.9332 100.241 86.6483 100.389C86.3692 100.528 86.0608 100.618 85.7231 100.657ZM83.4756 97.9483L87.2999 97.5041C87.2295 97.1297 87.0884 96.8105 86.8766 96.5466C86.6713 96.2818 86.4171 96.0865 86.1139 95.9606C85.8165 95.8274 85.499 95.7804 85.1612 95.8196C84.8235 95.8588 84.5252 95.9774 84.2663 96.1752C84.0066 96.3665 83.8043 96.6182 83.6594 96.9303C83.5203 97.2351 83.459 97.5744 83.4756 97.9483Z" fill="white"/>
<path d="M50.2654 71.4529L54.2458 105.722" stroke="#FFC100"/>
<defs>
<filter id="filter0_dd_217_472" x="27.8179" y="34.0299" width="133.863" height="644.61" filterUnits="userSpaceOnUse" color-interpolation-filters="sRGB">
<feFlood flood-opacity="0" result="BackgroundImageFix"/>
<feColorMatrix in="SourceAlpha" type="matrix" values="0 0 0 0 0 0 0 0 0 0 0 0 0 0 0 0 0 0 127 0" result="hardAlpha"/>
<feMorphology radius="3.50755" operator="dilate" in="SourceAlpha" result="effect1_dropShadow_217_472"/>
<feOffset dx="4.20906" dy="4.20906"/>
<feGaussianBlur stdDeviation="5.26132"/>
<feColorMatrix type="matrix" values="0 0 0 0 0 0 0 0 0 0 0 0 0 0 0 0 0 0 0.1 0"/>
<feBlend mode="normal" in2="BackgroundImageFix" result="effect1_dropShadow_217_472"/>
<feColorMatrix in="SourceAlpha" type="matrix" values="0 0 0 0 0 0 0 0 0 0 0 0 0 0 0 0 0 0 127 0" result="hardAlpha"/>
<feOffset dx="4.20906" dy="4.20906"/>
<feGaussianBlur stdDeviation="3.50755"/>
<feColorMatrix type="matrix" values="0 0 0 0 0 0 0 0 0 0 0 0 0 0 0 0 0 0 0.2 0"/>
<feBlend mode="normal" in2="effect1_dropShadow_217_472" result="effect2_dropShadow_217_472"/>
<feBlend mode="normal" in="SourceGraphic" in2="effect2_dropShadow_217_472" result="shape"/>
</filter>
<filter id="filter1_d_217_472" x="37.92" y="36.2284" width="90.1103" height="112.914" filterUnits="userSpaceOnUse" color-interpolation-filters="sRGB">
<feFlood flood-opacity="0" result="BackgroundImageFix"/>
<feColorMatrix in="SourceAlpha" type="matrix" values="0 0 0 0 0 0 0 0 0 0 0 0 0 0 0 0 0 0 127 0" result="hardAlpha"/>
<feOffset dx="0.70151" dy="1.40302"/>
<feGaussianBlur stdDeviation="1.75378"/>
<feColorMatrix type="matrix" values="0 0 0 0 0.883333 0 0 0 0 0.806042 0 0 0 0 0.806042 0 0 0 0.25 0"/>
<feBlend mode="normal" in2="BackgroundImageFix" result="effect1_dropShadow_217_472"/>
<feBlend mode="normal" in="SourceGraphic" in2="effect1_dropShadow_217_472" result="shape"/>
</filter>
<linearGradient id="paint0_linear_217_472" x1="4.97044" y1="96.0312" x2="-8.57171" y2="94.792" gradientUnits="userSpaceOnUse">
<stop stop-opacity="0.2"/>
<stop offset="0.338542" stop-opacity="0"/>
<stop offset="0.630208" stop-color="white" stop-opacity="0"/>
<stop offset="1" stop-color="white" stop-opacity="0.3"/>
</linearGradient>
<linearGradient id="paint1_linear_217_472" x1="72.6379" y1="97.5258" x2="-0.354132" y2="1.40826" gradientUnits="userSpaceOnUse">
<stop stop-opacity="0.2"/>
<stop offset="0.338542" stop-opacity="0"/>
<stop offset="0.630208" stop-color="white" stop-opacity="0"/>
<stop offset="1" stop-color="white" stop-opacity="0.3"/>
</linearGradient>
<linearGradient id="paint2_linear_217_472" x1="72.6379" y1="97.5601" x2="-0.386673" y2="1.43347" gradientUnits="userSpaceOnUse">
<stop stop-opacity="0.2"/>
<stop offset="0.338542" stop-opacity="0"/>
<stop offset="0.630208" stop-color="white" stop-opacity="0"/>
<stop offset="1" stop-color="white" stop-opacity="0.3"/>
</linearGradient>
<clipPath id="clip0_217_472">
<rect width="4.97044" height="96.0312" fill="white" transform="matrix(0.624322 0.196185 0.110254 1.03645 37.639 43.8511)"/>
</clipPath>
<clipPath id="clip1_217_472">
<rect width="66.6434" height="582.253" fill="white" transform="matrix(0.624322 0.196185 0.110254 1.03645 37.639 43.8511)"/>
</clipPath>
<clipPath id="clip2_217_472">
<path d="M37.6516 43.854C39.3654 44.3925 41.0001 47.1356 41.3028 49.9807L50.7946 139.209C51.0973 142.054 49.9533 143.924 48.2395 143.385L37.6516 43.854Z" fill="white"/>
</clipPath>
<clipPath id="clip3_217_472">
<path d="M40.7261 44.9315L92.0932 40.2447C103.665 39.1889 114.063 47.7032 115.318 59.262L121.299 114.391C122.554 125.95 114.189 136.176 102.617 137.232L51.2498 141.919L40.7261 44.9315Z" fill="white"/>
</clipPath>
<clipPath id="clip4_217_472">
<path d="M40.7261 44.9315L92.0932 40.2447C103.665 39.1889 114.063 47.7032 115.318 59.262L121.303 114.425C122.557 125.984 114.193 136.21 102.621 137.266L51.2535 141.953L40.7261 44.9315Z" fill="white"/>
</clipPath>
</defs>
</svg>
