<svg width="365" height="349" viewBox="0 0 365 349" fill="none" xmlns="http://www.w3.org/2000/svg">
<path d="M93.6684 87.1849L207.524 70.3528C219.015 68.654 230.088 76.2584 232.366 87.413L264.268 243.627C266.63 255.191 258.639 266.019 246.672 267.471L127.907 281.879L93.6684 87.1849Z" fill="#D3D3D3"/>
<path d="M94.0048 87.8797L212.713 70.8711C224.479 69.1853 235.701 77.2249 237.598 88.6981L263.288 244.078C265.158 255.393 257.234 265.73 245.59 267.164L127.176 281.743L94.0048 87.8797Z" fill="#E2E2E2"/>
<path d="M92.6135 86.5191L217.173 71.523C228.791 70.1244 239.701 78.1192 241.573 89.4031L267.128 243.458C269.006 254.776 261.081 265.12 249.432 266.554L126.569 281.681L92.6135 86.5191Z" fill="#EDEDED"/>
<path d="M98.2119 87.7451L220.73 72.5877C232.633 71.1151 243.749 79.5081 245.272 91.1183L265.351 244.146C266.808 255.249 258.922 265.185 247.538 266.589L125.765 281.606L98.2119 87.7451Z" fill="#F5F5F5"/>
<g clip-path="url(#clip0_217_396)">
<g clip-path="url(#clip1_217_396)">
<g filter="url(#filter0_dd_217_396)">
<rect width="66.6434" height="582.253" transform="matrix(0.626174 0.187078 0.115793 1.03492 92.5752 86.4621)" fill="#FFC100"/>
</g>
</g>
</g>
<g clip-path="url(#clip2_217_396)">
<rect width="10.2775" height="189.629" transform="matrix(0.626174 0.187079 0.115793 1.03492 92.6025 86.4689)" fill="url(#paint0_linear_217_396)" fill-opacity="0.5"/>
<path d="M92.6777 83.5469L115.36 286.274" stroke="white" stroke-opacity="0.16" stroke-width="1.05226"/>
<path d="M92.2793 83.428L114.962 286.155" stroke="white" stroke-opacity="0.16" stroke-width="2.10453"/>
</g>
<g filter="url(#filter1_d_217_396)">
<g clip-path="url(#clip3_217_396)">
<rect width="149.335" height="194.141" transform="matrix(1.00434 -0.0871247 0.112417 0.98503 98.9778 88.5939)" fill="url(#paint1_linear_217_396)" fill-opacity="0.5"/>
<path d="M108.341 84.8535L130.812 281.748" stroke="white" stroke-opacity="0.16" stroke-width="1.05227"/>
<path d="M99.0564 85.6591L121.527 282.554" stroke="white" stroke-opacity="0.16" stroke-width="2.10453"/>
</g>
<g clip-path="url(#clip4_217_396)">
<rect width="149.335" height="194.209" transform="matrix(1.00434 -0.0871247 0.112417 0.98503 98.9778 88.5939)" fill="url(#paint2_linear_217_396)" fill-opacity="0.5"/>
<path d="M108.341 84.8535L130.812 281.748" stroke="white" stroke-opacity="0.16" stroke-width="1.05227"/>
<path d="M99.0564 85.6591L121.527 282.554" stroke="white" stroke-opacity="0.16" stroke-width="2.10453"/>
</g>
</g>
<rect x="98.5551" y="89.1724" width="150.55" height="196.53" transform="rotate(-6.72 98.5551 89.1724)" fill="#2F3234" stroke="white"/>
<path d="M136.636 258.029L136.211 254.418L137.431 254.274C137.714 254.241 137.952 254.265 138.144 254.346C138.337 254.425 138.487 254.547 138.594 254.709C138.702 254.872 138.768 255.059 138.793 255.272C138.818 255.485 138.797 255.683 138.731 255.868C138.666 256.052 138.549 256.206 138.381 256.331C138.214 256.454 137.989 256.532 137.708 256.566L136.834 256.669L136.788 256.281L137.648 256.179C137.842 256.156 137.994 256.105 138.104 256.024C138.214 255.943 138.288 255.842 138.328 255.722C138.368 255.6 138.38 255.467 138.363 255.323C138.346 255.178 138.304 255.052 138.236 254.944C138.17 254.837 138.073 254.757 137.947 254.707C137.82 254.655 137.659 254.641 137.463 254.664L136.694 254.754L137.074 257.978L136.636 258.029ZM140.537 257.634C140.365 257.654 140.205 257.64 140.058 257.592C139.91 257.543 139.788 257.461 139.691 257.347C139.594 257.233 139.535 257.087 139.514 256.911C139.496 256.755 139.512 256.626 139.562 256.522C139.611 256.418 139.684 256.332 139.78 256.264C139.876 256.197 139.984 256.143 140.104 256.101C140.225 256.058 140.348 256.021 140.472 255.99C140.634 255.949 140.765 255.918 140.866 255.895C140.968 255.871 141.041 255.843 141.085 255.81C141.13 255.777 141.149 255.728 141.141 255.661L141.139 255.646C141.119 255.472 141.055 255.343 140.948 255.258C140.843 255.172 140.695 255.141 140.503 255.164C140.304 255.187 140.154 255.249 140.051 255.349C139.948 255.449 139.88 255.552 139.846 255.656L139.434 255.561C139.485 255.388 139.564 255.249 139.671 255.144C139.779 255.037 139.9 254.957 140.036 254.904C140.173 254.85 140.309 254.815 140.446 254.798C140.533 254.788 140.634 254.787 140.749 254.795C140.865 254.801 140.98 254.83 141.094 254.881C141.208 254.932 141.308 255.017 141.394 255.137C141.479 255.257 141.535 255.425 141.56 255.64L141.77 257.424L141.354 257.473L141.311 257.107L141.29 257.109C141.269 257.171 141.229 257.24 141.171 257.314C141.113 257.389 141.032 257.456 140.929 257.516C140.825 257.576 140.694 257.615 140.537 257.634ZM140.556 257.253C140.721 257.233 140.855 257.185 140.961 257.107C141.067 257.029 141.143 256.935 141.189 256.826C141.235 256.717 141.252 256.606 141.239 256.493L141.194 256.112C141.179 256.135 141.142 256.159 141.084 256.184C141.028 256.207 140.961 256.23 140.885 256.252C140.81 256.273 140.737 256.292 140.665 256.31C140.594 256.327 140.537 256.341 140.493 256.352C140.386 256.379 140.288 256.414 140.198 256.456C140.108 256.498 140.039 256.553 139.988 256.622C139.939 256.69 139.921 256.777 139.933 256.883C139.95 257.027 140.017 257.13 140.132 257.192C140.249 257.252 140.39 257.272 140.556 257.253ZM142.53 257.335L142.211 254.626L142.613 254.579L142.661 254.988L142.689 254.985C142.723 254.845 142.799 254.726 142.919 254.627C143.038 254.528 143.179 254.469 143.342 254.45C143.372 254.447 143.41 254.443 143.456 254.438C143.502 254.434 143.537 254.432 143.561 254.431L143.611 254.855C143.596 254.853 143.563 254.851 143.512 254.85C143.462 254.848 143.409 254.85 143.354 254.856C143.222 254.872 143.108 254.913 143.011 254.981C142.915 255.047 142.843 255.132 142.794 255.235C142.746 255.337 142.73 255.449 142.744 255.572L142.946 257.286L142.53 257.335ZM145.406 254.25L145.448 254.602L144.044 254.768L144.002 254.415L145.406 254.25ZM144.335 253.718L144.751 253.669L145.055 256.251C145.069 256.368 145.097 256.454 145.138 256.509C145.18 256.562 145.229 256.596 145.285 256.61C145.343 256.622 145.402 256.624 145.463 256.617C145.509 256.612 145.547 256.605 145.575 256.597C145.604 256.588 145.627 256.58 145.644 256.575L145.773 256.938C145.746 256.952 145.708 256.967 145.659 256.984C145.609 257.002 145.546 257.015 145.468 257.024C145.351 257.038 145.233 257.026 145.114 256.989C144.996 256.952 144.894 256.886 144.808 256.791C144.723 256.696 144.671 256.57 144.653 256.412L144.335 253.718ZM148.585 252.96L149.01 256.571L148.573 256.623L148.202 253.47L148.18 253.472L147.368 254.162L147.315 253.717L148.148 253.011L148.585 252.96ZM152.56 256.21C152.315 256.239 152.094 256.206 151.895 256.111C151.698 256.017 151.536 255.871 151.408 255.674C151.281 255.477 151.201 255.238 151.168 254.958C151.135 254.676 151.157 254.424 151.234 254.201C151.313 253.979 151.437 253.798 151.607 253.66C151.778 253.522 151.985 253.439 152.23 253.41C152.474 253.381 152.695 253.414 152.892 253.509C153.09 253.604 153.253 253.75 153.38 253.948C153.508 254.147 153.589 254.387 153.622 254.669C153.655 254.949 153.632 255.199 153.554 255.421C153.476 255.642 153.352 255.822 153.181 255.96C153.011 256.098 152.804 256.181 152.56 256.21ZM152.516 255.836C152.701 255.815 152.849 255.749 152.957 255.64C153.066 255.53 153.14 255.395 153.179 255.233C153.219 255.071 153.228 254.899 153.206 254.718C153.185 254.537 153.136 254.372 153.06 254.222C152.984 254.073 152.881 253.957 152.749 253.874C152.618 253.792 152.46 253.762 152.274 253.784C152.088 253.806 151.941 253.872 151.832 253.982C151.724 254.093 151.65 254.23 151.611 254.393C151.572 254.556 151.563 254.728 151.584 254.909C151.605 255.09 151.654 255.255 151.73 255.403C151.806 255.552 151.909 255.666 152.04 255.748C152.171 255.829 152.33 255.858 152.516 255.836ZM155.303 253.084L155.344 253.436L153.884 253.608L153.843 253.256L155.303 253.084ZM154.599 255.913L154.236 252.83C154.218 252.675 154.239 252.542 154.299 252.43C154.36 252.317 154.446 252.229 154.556 252.163C154.666 252.098 154.786 252.058 154.915 252.042C155.018 252.03 155.102 252.029 155.169 252.037C155.235 252.046 155.285 252.056 155.319 252.066L155.241 252.44C155.219 252.436 155.189 252.43 155.15 252.424C155.112 252.418 155.063 252.418 155.003 252.425C154.866 252.441 154.771 252.488 154.718 252.564C154.666 252.641 154.648 252.746 154.664 252.88L155.015 255.864L154.599 255.913ZM158.46 252.712L158.502 253.064L157.098 253.23L157.057 252.877L158.46 252.712ZM157.389 252.18L157.806 252.131L158.11 254.712C158.124 254.83 158.151 254.916 158.192 254.971C158.234 255.024 158.283 255.058 158.34 255.071C158.397 255.084 158.456 255.086 158.518 255.079C158.563 255.074 158.601 255.067 158.63 255.059C158.658 255.049 158.681 255.042 158.699 255.036L158.827 255.4C158.8 255.414 158.762 255.429 158.713 255.446C158.664 255.464 158.6 255.477 158.523 255.486C158.405 255.5 158.287 255.488 158.168 255.451C158.05 255.414 157.949 255.348 157.862 255.253C157.777 255.158 157.725 255.032 157.707 254.874L157.389 252.18ZM159.688 253.661L159.88 255.291L159.464 255.34L159.038 251.728L159.454 251.679L159.611 253.005L159.646 253.001C159.693 252.854 159.775 252.731 159.892 252.634C160.011 252.536 160.176 252.474 160.389 252.449C160.573 252.427 160.739 252.445 160.887 252.503C161.034 252.559 161.155 252.659 161.249 252.801C161.345 252.943 161.406 253.13 161.433 253.363L161.636 255.084L161.22 255.133L161.021 253.44C160.995 253.225 160.92 253.065 160.794 252.96C160.67 252.855 160.509 252.813 160.313 252.837C160.177 252.853 160.058 252.896 159.956 252.966C159.856 253.036 159.781 253.13 159.732 253.248C159.684 253.366 159.669 253.504 159.688 253.661ZM163.54 254.916C163.279 254.947 163.047 254.916 162.844 254.823C162.642 254.729 162.478 254.584 162.351 254.388C162.225 254.191 162.146 253.953 162.113 253.676C162.081 253.398 162.102 253.148 162.179 252.924C162.256 252.699 162.379 252.517 162.547 252.377C162.716 252.235 162.923 252.15 163.167 252.121C163.309 252.105 163.451 252.112 163.594 252.143C163.737 252.173 163.871 252.235 163.996 252.328C164.122 252.419 164.228 252.547 164.315 252.712C164.403 252.877 164.461 253.086 164.491 253.338L164.512 253.515L162.424 253.761L162.381 253.401L164.046 253.205C164.028 253.052 163.981 252.919 163.906 252.807C163.832 252.694 163.735 252.609 163.615 252.553C163.497 252.497 163.362 252.477 163.212 252.495C163.046 252.515 162.907 252.573 162.796 252.669C162.685 252.764 162.606 252.881 162.556 253.019C162.507 253.157 162.491 253.301 162.509 253.45L162.537 253.69C162.561 253.895 162.617 254.064 162.704 254.198C162.793 254.331 162.905 254.426 163.04 254.485C163.176 254.543 163.328 254.562 163.496 254.543C163.605 254.53 163.702 254.503 163.787 254.462C163.872 254.42 163.944 254.364 164.001 254.294C164.058 254.223 164.099 254.138 164.123 254.04L164.538 254.105C164.512 254.246 164.455 254.375 164.367 254.49C164.279 254.604 164.165 254.699 164.025 254.773C163.885 254.847 163.723 254.895 163.54 254.916ZM166.741 254.482L166.315 250.871L166.731 250.822L166.888 252.155L166.924 252.151C166.949 252.1 166.984 252.035 167.029 251.956C167.076 251.875 167.147 251.8 167.242 251.73C167.339 251.66 167.475 251.614 167.652 251.593C167.88 251.566 168.088 251.599 168.275 251.693C168.462 251.786 168.617 251.932 168.739 252.13C168.862 252.328 168.94 252.569 168.973 252.853C169.007 253.14 168.987 253.394 168.915 253.616C168.842 253.837 168.726 254.015 168.566 254.151C168.407 254.285 168.214 254.366 167.989 254.392C167.815 254.413 167.672 254.4 167.561 254.355C167.449 254.309 167.361 254.252 167.296 254.184C167.23 254.116 167.179 254.059 167.143 254.013L167.094 254.019L167.143 254.435L166.741 254.482ZM166.99 253.08C167.014 253.284 167.066 253.461 167.144 253.61C167.222 253.759 167.324 253.87 167.45 253.944C167.575 254.018 167.721 254.045 167.888 254.025C168.062 254.005 168.202 253.942 168.308 253.836C168.414 253.729 168.488 253.594 168.528 253.431C168.569 253.267 168.579 253.088 168.556 252.895C168.534 252.705 168.484 252.537 168.407 252.391C168.331 252.243 168.23 252.132 168.101 252.057C167.974 251.98 167.823 251.952 167.646 251.973C167.477 251.992 167.34 252.052 167.235 252.152C167.13 252.25 167.057 252.379 167.016 252.538C166.975 252.697 166.966 252.877 166.99 253.08ZM170.911 254.048C170.65 254.079 170.418 254.048 170.215 253.955C170.013 253.861 169.849 253.715 169.722 253.519C169.596 253.322 169.517 253.085 169.484 252.807C169.452 252.53 169.473 252.279 169.55 252.056C169.627 251.831 169.749 251.648 169.918 251.508C170.087 251.367 170.294 251.282 170.538 251.253C170.679 251.236 170.822 251.243 170.965 251.274C171.108 251.305 171.242 251.367 171.367 251.459C171.492 251.55 171.599 251.678 171.686 251.843C171.773 252.008 171.832 252.217 171.862 252.47L171.883 252.646L169.795 252.892L169.752 252.532L171.417 252.336C171.399 252.184 171.352 252.051 171.277 251.938C171.203 251.825 171.106 251.741 170.986 251.684C170.867 251.628 170.733 251.609 170.582 251.627C170.417 251.646 170.278 251.704 170.167 251.801C170.056 251.896 169.977 252.013 169.927 252.151C169.878 252.289 169.862 252.433 169.88 252.582L169.908 252.822C169.932 253.026 169.988 253.195 170.075 253.329C170.163 253.462 170.275 253.558 170.411 253.617C170.547 253.675 170.698 253.694 170.867 253.674C170.976 253.661 171.073 253.634 171.157 253.593C171.243 253.551 171.314 253.495 171.372 253.425C171.429 253.354 171.47 253.269 171.494 253.171L171.909 253.237C171.883 253.378 171.826 253.506 171.738 253.622C171.65 253.736 171.536 253.83 171.396 253.905C171.256 253.979 171.094 254.026 170.911 254.048ZM174.329 251.457L173.968 251.607C173.937 251.547 173.895 251.491 173.843 251.437C173.791 251.383 173.724 251.34 173.642 251.311C173.56 251.281 173.458 251.273 173.337 251.288C173.171 251.307 173.038 251.362 172.936 251.451C172.836 251.539 172.792 251.642 172.806 251.758C172.818 251.861 172.865 251.939 172.948 251.99C173.03 252.041 173.153 252.077 173.318 252.098L173.732 252.149C173.981 252.18 174.172 252.248 174.305 252.355C174.438 252.461 174.515 252.609 174.538 252.798C174.556 252.953 174.527 253.097 174.453 253.23C174.379 253.363 174.267 253.474 174.116 253.563C173.966 253.652 173.786 253.709 173.575 253.734C173.299 253.767 173.063 253.734 172.868 253.635C172.673 253.536 172.538 253.375 172.462 253.15L172.846 253.005C172.9 253.146 172.984 253.247 173.098 253.308C173.212 253.368 173.354 253.388 173.525 253.368C173.719 253.345 173.868 253.286 173.972 253.19C174.078 253.093 174.123 252.986 174.11 252.87C174.099 252.776 174.056 252.701 173.983 252.645C173.91 252.589 173.803 252.552 173.663 252.537L173.199 252.484C172.944 252.454 172.751 252.385 172.62 252.275C172.49 252.164 172.414 252.015 172.392 251.828C172.374 251.675 172.401 251.535 172.473 251.407C172.546 251.28 172.654 251.173 172.795 251.089C172.938 251.004 173.104 250.95 173.295 250.928C173.563 250.896 173.78 250.93 173.947 251.03C174.114 251.129 174.242 251.272 174.329 251.457ZM176.112 250.632L176.153 250.984L174.75 251.15L174.708 250.797L176.112 250.632ZM175.041 250.1L175.457 250.051L175.761 252.633C175.775 252.75 175.802 252.836 175.843 252.891C175.885 252.945 175.935 252.978 175.991 252.992C176.049 253.004 176.108 253.007 176.169 252.999C176.215 252.994 176.252 252.987 176.281 252.979C176.31 252.97 176.333 252.962 176.35 252.957L176.479 253.32C176.452 253.334 176.413 253.35 176.364 253.366C176.315 253.384 176.252 253.397 176.174 253.406C176.056 253.42 175.938 253.409 175.819 253.371C175.702 253.334 175.6 253.268 175.514 253.173C175.429 253.078 175.377 252.952 175.358 252.795L175.041 250.1ZM178.679 250.944L178.318 251.094C178.287 251.035 178.245 250.978 178.192 250.925C178.141 250.87 178.074 250.828 177.992 250.798C177.909 250.769 177.808 250.761 177.687 250.775C177.521 250.795 177.387 250.849 177.286 250.939C177.185 251.027 177.142 251.129 177.156 251.245C177.168 251.349 177.215 251.426 177.297 251.477C177.38 251.528 177.503 251.564 177.668 251.586L178.081 251.637C178.331 251.667 178.522 251.736 178.655 251.843C178.787 251.949 178.865 252.096 178.887 252.286C178.906 252.441 178.877 252.585 178.802 252.718C178.729 252.85 178.616 252.961 178.466 253.05C178.316 253.14 178.135 253.197 177.925 253.222C177.649 253.254 177.413 253.221 177.218 253.122C177.023 253.024 176.887 252.862 176.812 252.638L177.195 252.492C177.25 252.634 177.334 252.735 177.447 252.795C177.562 252.855 177.704 252.876 177.875 252.856C178.069 252.833 178.218 252.773 178.322 252.678C178.427 252.581 178.473 252.474 178.46 252.358C178.448 252.264 178.406 252.189 178.333 252.133C178.26 252.076 178.153 252.04 178.013 252.024L177.549 251.971C177.294 251.942 177.101 251.872 176.97 251.763C176.84 251.651 176.764 251.503 176.742 251.316C176.724 251.163 176.751 251.023 176.823 250.895C176.896 250.767 177.003 250.661 177.145 250.576C177.287 250.492 177.454 250.438 177.644 250.415C177.912 250.384 178.13 250.418 178.296 250.517C178.464 250.617 178.592 250.759 178.679 250.944ZM180.745 252.889C180.484 252.92 180.252 252.889 180.049 252.796C179.847 252.702 179.683 252.557 179.556 252.361C179.431 252.163 179.351 251.926 179.319 251.648C179.286 251.371 179.308 251.121 179.384 250.897C179.461 250.672 179.584 250.49 179.752 250.349C179.921 250.208 180.128 250.123 180.373 250.094C180.514 250.077 180.656 250.084 180.799 250.115C180.942 250.146 181.076 250.208 181.202 250.3C181.327 250.392 181.433 250.52 181.52 250.685C181.608 250.85 181.666 251.058 181.696 251.311L181.717 251.487L179.629 251.733L179.587 251.374L181.251 251.178C181.233 251.025 181.187 250.892 181.111 250.779C181.037 250.666 180.94 250.582 180.82 250.526C180.702 250.469 180.567 250.45 180.417 250.468C180.251 250.487 180.112 250.545 180.001 250.642C179.891 250.737 179.811 250.854 179.762 250.992C179.712 251.13 179.696 251.274 179.714 251.423L179.742 251.663C179.766 251.867 179.822 252.037 179.909 252.171C179.998 252.303 180.11 252.399 180.245 252.458C180.381 252.516 180.533 252.535 180.701 252.515C180.81 252.503 180.907 252.476 180.992 252.435C181.077 252.392 181.149 252.336 181.206 252.266C181.263 252.195 181.304 252.111 181.328 252.012L181.744 252.078C181.717 252.219 181.66 252.348 181.573 252.463C181.485 252.577 181.371 252.671 181.23 252.746C181.09 252.82 180.928 252.868 180.745 252.889ZM182.483 248.966L182.909 252.577L182.493 252.626L182.067 249.015L182.483 248.966ZM183.662 248.827L184.087 252.438L183.671 252.487L183.246 248.876L183.662 248.827ZM184.85 252.348L184.53 249.64L184.947 249.591L185.266 252.299L184.85 252.348ZM184.689 249.164C184.608 249.173 184.535 249.154 184.469 249.105C184.405 249.057 184.369 248.994 184.359 248.916C184.35 248.839 184.371 248.769 184.422 248.707C184.475 248.645 184.541 248.609 184.622 248.599C184.703 248.59 184.776 248.609 184.84 248.658C184.906 248.706 184.943 248.769 184.952 248.846C184.961 248.924 184.939 248.994 184.887 249.056C184.836 249.118 184.77 249.154 184.689 249.164ZM186.252 250.531L186.444 252.161L186.028 252.21L185.709 249.501L186.111 249.454L186.161 249.877L186.196 249.873C186.243 249.728 186.327 249.606 186.446 249.507C186.565 249.407 186.727 249.345 186.932 249.321C187.115 249.3 187.28 249.318 187.427 249.377C187.573 249.435 187.693 249.535 187.787 249.678C187.882 249.819 187.942 250.005 187.969 250.236L188.172 251.957L187.756 252.006L187.557 250.313C187.532 250.1 187.457 249.941 187.332 249.835C187.208 249.728 187.049 249.686 186.856 249.709C186.723 249.725 186.608 249.768 186.51 249.837C186.413 249.907 186.342 250.001 186.295 250.119C186.248 250.236 186.234 250.374 186.252 250.531ZM190.152 252.811C189.951 252.834 189.775 252.829 189.625 252.794C189.474 252.761 189.346 252.708 189.24 252.636C189.135 252.565 189.048 252.485 188.981 252.398L189.285 252.126C189.328 252.171 189.383 252.222 189.448 252.279C189.513 252.336 189.598 252.383 189.704 252.418C189.811 252.455 189.946 252.463 190.109 252.444C190.328 252.418 190.502 252.344 190.632 252.221C190.762 252.099 190.813 251.925 190.787 251.699L190.722 251.149L190.686 251.153C190.662 251.206 190.625 251.272 190.578 251.352C190.531 251.43 190.458 251.503 190.36 251.572C190.263 251.64 190.127 251.684 189.95 251.704C189.732 251.73 189.529 251.702 189.343 251.619C189.158 251.536 189.004 251.401 188.879 251.216C188.756 251.03 188.678 250.796 188.644 250.514C188.612 250.236 188.632 249.989 188.705 249.772C188.779 249.553 188.896 249.378 189.056 249.244C189.217 249.11 189.411 249.029 189.639 249.002C189.816 248.981 189.959 248.994 190.069 249.041C190.181 249.086 190.268 249.143 190.332 249.21C190.397 249.276 190.448 249.331 190.484 249.375L190.526 249.37L190.476 248.939L190.878 248.892L191.206 251.678C191.233 251.911 191.203 252.106 191.114 252.265C191.027 252.424 190.898 252.548 190.729 252.637C190.561 252.727 190.369 252.785 190.152 252.811ZM189.963 251.324C190.13 251.304 190.266 251.249 190.373 251.16C190.479 251.07 190.553 250.949 190.596 250.799C190.639 250.648 190.649 250.473 190.626 250.273C190.603 250.078 190.553 249.909 190.477 249.767C190.4 249.625 190.299 249.518 190.174 249.447C190.049 249.376 189.902 249.35 189.733 249.37C189.556 249.391 189.415 249.453 189.308 249.556C189.202 249.659 189.128 249.789 189.087 249.947C189.047 250.104 189.038 250.274 189.06 250.458C189.082 250.646 189.131 250.809 189.207 250.946C189.284 251.083 189.385 251.185 189.511 251.254C189.638 251.321 189.789 251.344 189.963 251.324ZM195.026 249.018L194.665 249.168C194.634 249.109 194.592 249.052 194.539 248.999C194.488 248.944 194.421 248.902 194.338 248.872C194.256 248.843 194.155 248.835 194.034 248.849C193.868 248.869 193.734 248.923 193.633 249.013C193.532 249.101 193.489 249.203 193.503 249.319C193.515 249.423 193.562 249.5 193.644 249.551C193.727 249.602 193.85 249.638 194.015 249.659L194.428 249.711C194.677 249.741 194.868 249.81 195.001 249.917C195.134 250.023 195.212 250.17 195.234 250.36C195.252 250.515 195.224 250.659 195.149 250.792C195.075 250.924 194.963 251.035 194.813 251.124C194.663 251.214 194.482 251.271 194.272 251.295C193.995 251.328 193.76 251.295 193.565 251.196C193.369 251.098 193.234 250.936 193.159 250.711L193.542 250.566C193.597 250.707 193.681 250.808 193.794 250.869C193.909 250.929 194.051 250.95 194.221 250.929C194.415 250.907 194.565 250.847 194.669 250.752C194.774 250.655 194.82 250.548 194.806 250.431C194.795 250.337 194.753 250.263 194.68 250.207C194.606 250.15 194.5 250.114 194.36 250.098L193.896 250.045C193.641 250.016 193.448 249.946 193.317 249.836C193.187 249.725 193.111 249.576 193.089 249.389C193.071 249.237 193.098 249.096 193.17 248.969C193.243 248.841 193.35 248.735 193.492 248.65C193.634 248.565 193.801 248.512 193.991 248.489C194.259 248.458 194.477 248.492 194.643 248.591C194.811 248.691 194.939 248.833 195.026 249.018ZM197.092 250.963C196.831 250.994 196.599 250.963 196.396 250.87C196.194 250.776 196.03 250.631 195.903 250.435C195.777 250.237 195.698 250 195.666 249.722C195.633 249.445 195.655 249.194 195.731 248.971C195.808 248.746 195.931 248.564 196.099 248.423C196.268 248.282 196.475 248.197 196.72 248.168C196.861 248.151 197.003 248.158 197.146 248.189C197.289 248.22 197.423 248.282 197.548 248.374C197.674 248.466 197.78 248.594 197.867 248.759C197.955 248.923 198.013 249.132 198.043 249.385L198.064 249.561L195.976 249.807L195.934 249.448L197.598 249.252C197.58 249.099 197.533 248.966 197.458 248.853C197.384 248.74 197.287 248.656 197.167 248.6C197.049 248.543 196.914 248.524 196.764 248.542C196.598 248.561 196.459 248.619 196.348 248.716C196.238 248.811 196.158 248.928 196.108 249.066C196.059 249.204 196.043 249.348 196.061 249.497L196.089 249.737C196.113 249.941 196.169 250.111 196.256 250.245C196.345 250.377 196.457 250.473 196.592 250.532C196.728 250.59 196.88 250.609 197.048 250.589C197.157 250.576 197.254 250.55 197.339 250.509C197.424 250.466 197.496 250.41 197.553 250.34C197.61 250.269 197.651 250.185 197.675 250.086L198.09 250.152C198.064 250.293 198.007 250.421 197.919 250.537C197.832 250.651 197.718 250.745 197.577 250.82C197.437 250.894 197.275 250.942 197.092 250.963ZM198.84 250.7L198.521 247.991L198.923 247.944L198.971 248.353L198.999 248.35C199.033 248.21 199.109 248.091 199.229 247.992C199.348 247.893 199.489 247.834 199.651 247.815C199.682 247.812 199.72 247.808 199.766 247.804C199.812 247.799 199.847 247.797 199.871 247.797L199.921 248.22C199.906 248.218 199.873 248.216 199.822 248.215C199.771 248.213 199.719 248.215 199.663 248.222C199.532 248.237 199.417 248.279 199.32 248.346C199.225 248.412 199.152 248.497 199.104 248.6C199.056 248.702 199.04 248.815 199.054 248.937L199.256 250.651L198.84 250.7ZM200.687 250.482L200.368 247.774L200.784 247.725L201.103 250.433L200.687 250.482ZM200.527 247.297C200.445 247.307 200.372 247.288 200.307 247.239C200.243 247.191 200.206 247.128 200.197 247.05C200.188 246.973 200.209 246.903 200.26 246.841C200.312 246.779 200.379 246.743 200.46 246.733C200.541 246.724 200.614 246.743 200.678 246.791C200.743 246.84 200.78 246.903 200.79 246.98C200.799 247.058 200.777 247.128 200.725 247.19C200.674 247.252 200.608 247.288 200.527 247.297ZM203.008 250.266C202.747 250.297 202.515 250.266 202.312 250.173C202.11 250.079 201.946 249.933 201.819 249.737C201.694 249.54 201.614 249.303 201.582 249.025C201.549 248.748 201.571 248.497 201.647 248.274C201.724 248.049 201.847 247.867 202.015 247.726C202.184 247.585 202.391 247.5 202.636 247.471C202.777 247.454 202.919 247.461 203.062 247.492C203.205 247.523 203.339 247.585 203.465 247.677C203.59 247.768 203.696 247.897 203.783 248.061C203.871 248.226 203.929 248.435 203.959 248.688L203.98 248.864L201.892 249.11L201.85 248.751L203.514 248.554C203.496 248.402 203.45 248.269 203.374 248.156C203.3 248.043 203.203 247.959 203.083 247.903C202.965 247.846 202.83 247.827 202.68 247.845C202.514 247.864 202.375 247.922 202.264 248.019C202.154 248.114 202.074 248.231 202.025 248.369C201.975 248.507 201.959 248.651 201.977 248.8L202.005 249.04C202.029 249.244 202.085 249.414 202.172 249.547C202.261 249.68 202.373 249.776 202.508 249.835C202.644 249.893 202.796 249.912 202.964 249.892C203.073 249.879 203.17 249.852 203.255 249.811C203.34 249.769 203.412 249.713 203.469 249.643C203.526 249.572 203.567 249.487 203.591 249.389L204.006 249.455C203.98 249.596 203.923 249.724 203.836 249.84C203.748 249.954 203.634 250.048 203.493 250.123C203.353 250.197 203.191 250.244 203.008 250.266ZM206.427 247.675L206.065 247.825C206.034 247.765 205.993 247.709 205.94 247.655C205.888 247.601 205.821 247.559 205.739 247.529C205.657 247.499 205.555 247.492 205.434 247.506C205.268 247.525 205.135 247.58 205.033 247.669C204.933 247.757 204.889 247.86 204.903 247.976C204.915 248.079 204.963 248.157 205.045 248.208C205.127 248.259 205.251 248.295 205.415 248.316L205.829 248.368C206.078 248.398 206.269 248.466 206.402 248.574C206.535 248.679 206.613 248.827 206.635 249.016C206.653 249.171 206.625 249.315 206.55 249.448C206.476 249.581 206.364 249.692 206.214 249.781C206.063 249.87 205.883 249.927 205.672 249.952C205.396 249.985 205.16 249.952 204.965 249.853C204.77 249.755 204.635 249.593 204.559 249.368L204.943 249.223C204.998 249.364 205.082 249.465 205.195 249.526C205.309 249.586 205.452 249.606 205.622 249.586C205.816 249.563 205.965 249.504 206.07 249.408C206.175 249.311 206.221 249.205 206.207 249.088C206.196 248.994 206.154 248.919 206.08 248.864C206.007 248.807 205.9 248.77 205.76 248.755L205.296 248.702C205.041 248.672 204.848 248.603 204.717 248.493C204.588 248.382 204.512 248.233 204.49 248.046C204.472 247.893 204.498 247.753 204.57 247.625C204.644 247.498 204.751 247.391 204.892 247.307C205.035 247.222 205.201 247.169 205.392 247.146C205.66 247.114 205.877 247.148 206.044 247.248C206.212 247.347 206.339 247.49 206.427 247.675ZM208.313 247.066L208.276 246.749C208.264 246.653 208.269 246.548 208.291 246.436C208.313 246.323 208.351 246.212 208.405 246.103C208.46 245.993 208.53 245.894 208.615 245.808L208.863 245.965C208.801 246.079 208.75 246.197 208.708 246.319C208.667 246.44 208.655 246.565 208.67 246.695L208.708 247.02L208.313 247.066ZM209.216 246.96L209.179 246.643C209.167 246.546 209.172 246.442 209.194 246.33C209.216 246.216 209.254 246.105 209.308 245.996C209.363 245.886 209.433 245.788 209.518 245.702L209.766 245.858C209.704 245.973 209.652 246.091 209.611 246.213C209.57 246.333 209.557 246.459 209.573 246.589L209.611 246.914L209.216 246.96ZM211.35 249.226L209.937 245.731L210.382 245.678L211.483 248.531L211.518 248.527L211.941 245.495L212.434 245.437L213.55 248.287L213.585 248.283L213.993 245.253L214.438 245.201L213.876 248.928L213.424 248.982L212.288 246.198L212.26 246.201L211.802 249.173L211.35 249.226ZM215.576 247.076L215.768 248.705L215.351 248.754L214.926 245.143L215.342 245.094L215.498 246.42L215.534 246.416C215.581 246.269 215.663 246.146 215.78 246.049C215.898 245.95 216.064 245.889 216.277 245.864C216.461 245.842 216.627 245.86 216.775 245.918C216.922 245.974 217.043 246.074 217.137 246.216C217.232 246.358 217.294 246.545 217.321 246.777L217.524 248.498L217.108 248.548L216.908 246.855C216.883 246.64 216.808 246.48 216.682 246.375C216.558 246.27 216.397 246.228 216.201 246.252C216.064 246.268 215.946 246.311 215.844 246.381C215.744 246.451 215.669 246.545 215.62 246.663C215.572 246.781 215.557 246.919 215.576 247.076ZM218.576 249.404C218.505 249.413 218.442 249.414 218.385 249.409C218.329 249.405 218.289 249.399 218.267 249.391L218.329 249.011C218.434 249.025 218.524 249.024 218.601 249.008C218.678 248.992 218.742 248.949 218.795 248.88C218.849 248.811 218.893 248.705 218.927 248.562L218.98 248.341L217.658 245.737L218.109 245.683L219.111 247.754L219.139 247.75L219.633 245.504L220.084 245.451L219.3 248.69C219.265 248.836 219.214 248.959 219.149 249.06C219.083 249.162 219.003 249.241 218.907 249.297C218.812 249.354 218.702 249.389 218.576 249.404ZM222.737 248.914C222.666 248.922 222.603 248.924 222.546 248.919C222.489 248.915 222.45 248.909 222.428 248.9L222.49 248.521C222.594 248.535 222.685 248.534 222.762 248.518C222.838 248.502 222.903 248.459 222.956 248.389C223.009 248.321 223.054 248.215 223.088 248.072L223.141 247.851L221.818 245.246L222.27 245.193L223.272 247.263L223.3 247.26L223.793 245.014L224.245 244.96L223.461 248.199C223.425 248.345 223.375 248.469 223.309 248.569C223.244 248.671 223.163 248.751 223.067 248.807C222.973 248.864 222.862 248.899 222.737 248.914ZM226.123 247.542C225.879 247.571 225.657 247.538 225.459 247.444C225.262 247.349 225.099 247.203 224.971 247.006C224.844 246.809 224.764 246.57 224.731 246.291C224.698 246.008 224.72 245.756 224.798 245.534C224.876 245.311 225 245.131 225.17 244.993C225.341 244.855 225.549 244.771 225.793 244.742C226.038 244.713 226.258 244.746 226.456 244.841C226.654 244.936 226.817 245.082 226.944 245.281C227.072 245.479 227.153 245.719 227.186 246.001C227.219 246.281 227.196 246.532 227.117 246.753C227.039 246.974 226.915 247.154 226.744 247.292C226.575 247.43 226.368 247.514 226.123 247.542ZM226.079 247.169C226.265 247.147 226.412 247.081 226.521 246.972C226.629 246.862 226.703 246.727 226.743 246.565C226.782 246.403 226.791 246.231 226.77 246.05C226.748 245.869 226.7 245.704 226.624 245.554C226.548 245.405 226.444 245.289 226.313 245.207C226.181 245.124 226.023 245.094 225.837 245.116C225.651 245.138 225.504 245.204 225.396 245.315C225.287 245.425 225.213 245.562 225.174 245.725C225.135 245.888 225.126 246.06 225.147 246.241C225.169 246.423 225.217 246.587 225.293 246.736C225.369 246.884 225.473 246.999 225.604 247.08C225.735 247.161 225.893 247.191 226.079 247.169ZM229.555 245.958L229.367 244.357L229.783 244.308L230.102 247.016L229.686 247.065L229.632 246.607L229.604 246.61C229.556 246.755 229.471 246.884 229.349 246.996C229.226 247.107 229.062 247.175 228.858 247.199C228.688 247.219 228.534 247.199 228.393 247.141C228.253 247.081 228.136 246.981 228.043 246.839C227.95 246.696 227.89 246.51 227.863 246.279L227.66 244.558L228.076 244.509L228.275 246.202C228.299 246.399 228.373 246.55 228.497 246.655C228.622 246.759 228.772 246.801 228.944 246.781C229.048 246.769 229.15 246.73 229.251 246.664C229.353 246.599 229.434 246.507 229.494 246.389C229.555 246.271 229.575 246.127 229.555 245.958ZM137.282 263.995L136.963 261.286L137.365 261.239L137.413 261.648L137.441 261.645C137.475 261.505 137.552 261.385 137.671 261.287C137.79 261.188 137.931 261.129 138.094 261.11C138.124 261.106 138.162 261.102 138.208 261.098C138.254 261.094 138.289 261.092 138.313 261.091L138.363 261.514C138.348 261.513 138.315 261.511 138.264 261.51C138.214 261.508 138.161 261.51 138.106 261.516C137.974 261.532 137.86 261.573 137.763 261.641C137.667 261.707 137.595 261.792 137.546 261.895C137.498 261.997 137.482 262.109 137.496 262.232L137.698 263.946L137.282 263.995ZM139.13 263.777L138.811 261.068L139.227 261.019L139.546 263.728L139.13 263.777ZM138.969 260.592C138.888 260.602 138.815 260.582 138.749 260.534C138.685 260.485 138.649 260.422 138.639 260.345C138.63 260.267 138.651 260.197 138.702 260.135C138.755 260.073 138.821 260.037 138.902 260.028C138.984 260.018 139.056 260.038 139.12 260.086C139.186 260.134 139.223 260.197 139.232 260.275C139.241 260.353 139.22 260.422 139.167 260.485C139.116 260.547 139.05 260.582 138.969 260.592ZM141.528 264.581C141.327 264.605 141.151 264.6 141 264.565C140.85 264.531 140.721 264.479 140.615 264.406C140.51 264.335 140.424 264.256 140.356 264.169L140.66 263.897C140.704 263.942 140.758 263.993 140.823 264.049C140.888 264.107 140.974 264.154 141.079 264.189C141.186 264.225 141.321 264.234 141.484 264.215C141.703 264.189 141.877 264.115 142.007 263.992C142.137 263.87 142.188 263.695 142.162 263.47L142.097 262.92L142.062 262.924C142.037 262.977 142.001 263.043 141.953 263.122C141.906 263.201 141.834 263.274 141.736 263.343C141.639 263.41 141.502 263.454 141.326 263.475C141.107 263.501 140.905 263.472 140.719 263.389C140.534 263.306 140.379 263.172 140.254 262.986C140.131 262.801 140.053 262.567 140.02 262.285C139.987 262.007 140.007 261.76 140.081 261.543C140.154 261.324 140.271 261.148 140.432 261.015C140.592 260.881 140.786 260.8 141.015 260.773C141.191 260.752 141.334 260.765 141.445 260.812C141.556 260.857 141.644 260.913 141.708 260.981C141.773 261.047 141.823 261.102 141.859 261.145L141.902 261.14L141.851 260.71L142.253 260.663L142.581 263.449C142.609 263.682 142.578 263.877 142.49 264.035C142.402 264.195 142.274 264.319 142.104 264.408C141.936 264.498 141.744 264.556 141.528 264.581ZM141.338 263.095C141.505 263.075 141.642 263.02 141.748 262.93C141.854 262.84 141.929 262.72 141.972 262.57C142.015 262.419 142.025 262.244 142.001 262.044C141.978 261.849 141.928 261.68 141.852 261.538C141.776 261.395 141.675 261.289 141.55 261.218C141.424 261.147 141.277 261.121 141.108 261.141C140.932 261.162 140.79 261.224 140.683 261.327C140.577 261.43 140.504 261.56 140.463 261.718C140.423 261.875 140.414 262.045 140.435 262.229C140.457 262.417 140.506 262.58 140.582 262.717C140.659 262.854 140.76 262.956 140.887 263.025C141.014 263.092 141.164 263.115 141.338 263.095ZM143.558 261.603L143.75 263.233L143.334 263.282L142.908 259.67L143.325 259.621L143.481 260.947L143.516 260.943C143.563 260.796 143.645 260.673 143.763 260.576C143.881 260.478 144.046 260.416 144.259 260.391C144.444 260.369 144.61 260.387 144.757 260.445C144.904 260.501 145.025 260.601 145.12 260.743C145.215 260.885 145.276 261.072 145.304 261.305L145.506 263.026L145.09 263.075L144.891 261.382C144.865 261.167 144.79 261.007 144.665 260.902C144.54 260.797 144.38 260.755 144.183 260.779C144.047 260.795 143.928 260.838 143.827 260.908C143.726 260.978 143.652 261.072 143.602 261.19C143.554 261.308 143.54 261.446 143.558 261.603ZM147.127 260.089L147.168 260.441L145.764 260.607L145.723 260.254L147.127 260.089ZM146.056 259.557L146.472 259.508L146.776 262.089C146.79 262.207 146.817 262.293 146.858 262.348C146.9 262.401 146.95 262.435 147.006 262.448C147.063 262.461 147.123 262.463 147.184 262.456C147.23 262.451 147.267 262.444 147.296 262.436C147.325 262.426 147.348 262.419 147.365 262.413L147.493 262.777C147.466 262.791 147.428 262.806 147.379 262.823C147.33 262.841 147.266 262.854 147.189 262.863C147.071 262.877 146.953 262.865 146.834 262.828C146.717 262.791 146.615 262.725 146.529 262.63C146.443 262.535 146.392 262.409 146.373 262.251L146.056 259.557ZM148.959 259.873L149 260.225L147.54 260.397L147.499 260.045L148.959 259.873ZM148.255 262.702L147.892 259.619C147.874 259.464 147.895 259.331 147.956 259.219C148.016 259.106 148.102 259.018 148.212 258.952C148.322 258.887 148.442 258.847 148.571 258.831C148.674 258.819 148.758 258.818 148.825 258.826C148.891 258.835 148.941 258.845 148.975 258.855L148.897 259.229C148.875 259.225 148.845 259.219 148.806 259.213C148.768 259.207 148.719 259.207 148.659 259.214C148.522 259.23 148.427 259.277 148.374 259.353C148.322 259.43 148.304 259.535 148.32 259.669L148.671 262.653L148.255 262.702ZM151.438 261.204L151.249 259.603L151.665 259.554L151.984 262.262L151.568 262.311L151.514 261.853L151.486 261.856C151.439 262.001 151.354 262.13 151.231 262.242C151.108 262.353 150.944 262.421 150.74 262.445C150.571 262.465 150.416 262.445 150.275 262.387C150.135 262.327 150.018 262.226 149.925 262.085C149.832 261.942 149.772 261.755 149.745 261.525L149.542 259.804L149.958 259.755L150.158 261.448C150.181 261.645 150.255 261.796 150.379 261.901C150.505 262.005 150.654 262.047 150.827 262.027C150.93 262.015 151.032 261.976 151.133 261.91C151.235 261.845 151.316 261.753 151.376 261.635C151.437 261.517 151.457 261.373 151.438 261.204ZM152.737 258.512L153.163 262.123L152.746 262.173L152.321 258.561L152.737 258.512ZM153.915 258.373L154.341 261.985L153.925 262.034L153.499 258.422L153.915 258.373ZM155.491 262.879C155.42 262.887 155.357 262.889 155.3 262.884C155.244 262.879 155.204 262.873 155.182 262.865L155.244 262.486C155.348 262.5 155.439 262.499 155.516 262.483C155.592 262.467 155.657 262.424 155.71 262.354C155.764 262.286 155.808 262.18 155.842 262.037L155.895 261.816L154.572 259.211L155.024 259.158L156.026 261.228L156.054 261.225L156.547 258.979L156.999 258.925L156.215 262.164C156.18 262.31 156.129 262.434 156.063 262.534C155.998 262.636 155.917 262.715 155.822 262.772C155.727 262.828 155.617 262.864 155.491 262.879ZM159.488 259.726L159.68 261.356L159.264 261.405L158.838 257.793L159.254 257.744L159.411 259.07L159.446 259.066C159.493 258.919 159.575 258.796 159.692 258.699C159.811 258.601 159.976 258.539 160.189 258.514C160.374 258.492 160.54 258.51 160.687 258.568C160.834 258.624 160.955 258.724 161.049 258.866C161.145 259.008 161.206 259.195 161.234 259.428L161.436 261.149L161.02 261.198L160.821 259.505C160.795 259.29 160.72 259.13 160.594 259.026C160.47 258.92 160.309 258.879 160.113 258.902C159.977 258.918 159.858 258.961 159.757 259.031C159.656 259.101 159.582 259.196 159.532 259.313C159.484 259.431 159.469 259.569 159.488 259.726ZM163.002 261.028C162.831 261.049 162.671 261.035 162.523 260.987C162.376 260.937 162.254 260.856 162.157 260.742C162.06 260.627 162.001 260.481 161.98 260.305C161.962 260.15 161.978 260.02 162.027 259.917C162.077 259.812 162.15 259.726 162.245 259.659C162.341 259.591 162.449 259.537 162.569 259.495C162.691 259.453 162.813 259.415 162.937 259.384C163.099 259.344 163.231 259.312 163.332 259.289C163.434 259.265 163.507 259.237 163.551 259.205C163.596 259.172 163.614 259.122 163.606 259.055L163.605 259.041C163.584 258.867 163.521 258.737 163.414 258.652C163.309 258.567 163.16 258.535 162.969 258.558C162.77 258.581 162.619 258.643 162.517 258.744C162.414 258.844 162.346 258.946 162.311 259.05L161.9 258.956C161.951 258.783 162.03 258.644 162.137 258.538C162.244 258.431 162.366 258.351 162.502 258.298C162.638 258.244 162.775 258.209 162.911 258.193C162.998 258.183 163.099 258.181 163.215 258.189C163.331 258.196 163.446 258.225 163.559 258.276C163.674 258.327 163.774 258.412 163.859 258.532C163.945 258.652 164 258.819 164.026 259.034L164.236 260.819L163.82 260.868L163.777 260.501L163.756 260.503C163.734 260.566 163.695 260.634 163.637 260.709C163.579 260.784 163.498 260.851 163.394 260.911C163.29 260.971 163.16 261.01 163.002 261.028ZM163.022 260.647C163.186 260.628 163.321 260.579 163.426 260.501C163.533 260.423 163.609 260.329 163.654 260.22C163.701 260.111 163.718 260 163.704 259.887L163.66 259.506C163.644 259.53 163.608 259.554 163.55 259.578C163.493 259.602 163.427 259.624 163.351 259.647C163.276 259.667 163.202 259.687 163.13 259.705C163.06 259.721 163.002 259.735 162.958 259.746C162.852 259.773 162.753 259.808 162.663 259.851C162.574 259.892 162.504 259.948 162.454 260.017C162.405 260.085 162.386 260.171 162.399 260.277C162.416 260.422 162.482 260.525 162.598 260.586C162.715 260.646 162.856 260.667 163.022 260.647ZM165.854 257.882L165.896 258.235L164.492 258.4L164.451 258.047L165.854 257.882ZM164.783 257.35L165.2 257.301L165.504 259.883C165.518 260 165.545 260.086 165.586 260.141C165.628 260.195 165.677 260.228 165.734 260.242C165.791 260.254 165.851 260.257 165.912 260.249C165.958 260.244 165.995 260.237 166.024 260.229C166.052 260.22 166.075 260.212 166.093 260.207L166.221 260.571C166.194 260.584 166.156 260.6 166.107 260.616C166.058 260.634 165.994 260.647 165.917 260.656C165.799 260.67 165.681 260.659 165.562 260.621C165.445 260.584 165.343 260.518 165.256 260.423C165.171 260.328 165.119 260.202 165.101 260.045L164.783 257.35ZM167.913 260.443C167.652 260.473 167.42 260.442 167.217 260.349C167.015 260.255 166.851 260.11 166.724 259.914C166.598 259.717 166.519 259.479 166.486 259.202C166.454 258.925 166.475 258.674 166.552 258.451C166.629 258.226 166.752 258.043 166.92 257.903C167.089 257.761 167.296 257.676 167.54 257.647C167.682 257.631 167.824 257.638 167.967 257.669C168.11 257.7 168.244 257.761 168.369 257.854C168.495 257.945 168.601 258.073 168.688 258.238C168.776 258.403 168.834 258.612 168.864 258.865L168.885 259.041L166.797 259.287L166.754 258.927L168.419 258.731C168.401 258.578 168.354 258.446 168.279 258.333C168.205 258.22 168.108 258.135 167.988 258.079C167.87 258.023 167.735 258.004 167.585 258.021C167.419 258.041 167.28 258.099 167.169 258.195C167.058 258.291 166.979 258.407 166.929 258.545C166.88 258.684 166.864 258.827 166.882 258.977L166.91 259.216C166.934 259.421 166.99 259.59 167.077 259.724C167.166 259.857 167.278 259.953 167.413 260.012C167.549 260.07 167.701 260.089 167.869 260.069C167.978 260.056 168.075 260.029 168.16 259.988C168.245 259.946 168.317 259.89 168.374 259.82C168.431 259.749 168.472 259.664 168.496 259.566L168.911 259.631C168.885 259.773 168.828 259.901 168.74 260.016C168.652 260.13 168.538 260.225 168.398 260.3C168.258 260.373 168.096 260.421 167.913 260.443ZM172.071 256.234L172.508 256.183L172.812 258.764C172.839 258.995 172.82 259.195 172.754 259.366C172.689 259.537 172.584 259.674 172.44 259.775C172.295 259.877 172.119 259.94 171.909 259.965C171.712 259.988 171.532 259.973 171.37 259.919C171.207 259.864 171.074 259.775 170.97 259.652C170.866 259.528 170.803 259.374 170.781 259.189L171.211 259.139C171.223 259.241 171.259 259.327 171.319 259.398C171.379 259.467 171.457 259.517 171.551 259.549C171.646 259.581 171.75 259.59 171.864 259.577C171.99 259.562 172.093 259.523 172.175 259.46C172.257 259.396 172.315 259.311 172.349 259.203C172.384 259.094 172.392 258.965 172.375 258.816L172.071 256.234ZM174.558 259.667C174.386 259.687 174.227 259.673 174.079 259.625C173.932 259.576 173.809 259.494 173.713 259.38C173.616 259.265 173.557 259.12 173.536 258.943C173.518 258.788 173.533 258.659 173.583 258.555C173.633 258.451 173.705 258.364 173.801 258.297C173.897 258.23 174.005 258.175 174.125 258.134C174.247 258.091 174.369 258.054 174.493 258.023C174.655 257.982 174.787 257.95 174.888 257.928C174.99 257.904 175.063 257.876 175.106 257.843C175.151 257.81 175.17 257.76 175.162 257.693L175.16 257.679C175.14 257.505 175.076 257.376 174.97 257.291C174.864 257.205 174.716 257.174 174.524 257.196C174.326 257.22 174.175 257.282 174.072 257.382C173.97 257.482 173.901 257.585 173.867 257.689L173.456 257.594C173.507 257.421 173.586 257.282 173.692 257.176C173.8 257.07 173.922 256.99 174.057 256.937C174.194 256.883 174.331 256.847 174.467 256.831C174.554 256.821 174.655 256.82 174.771 256.828C174.887 256.834 175.002 256.863 175.115 256.914C175.229 256.965 175.33 257.05 175.415 257.17C175.501 257.29 175.556 257.457 175.582 257.673L175.792 259.457L175.376 259.506L175.333 259.139L175.311 259.142C175.29 259.204 175.25 259.272 175.193 259.347C175.135 259.422 175.054 259.489 174.95 259.549C174.846 259.609 174.715 259.648 174.558 259.667ZM174.577 259.286C174.742 259.266 174.877 259.218 174.982 259.14C175.089 259.061 175.165 258.968 175.21 258.859C175.257 258.75 175.274 258.639 175.26 258.526L175.215 258.145C175.2 258.168 175.164 258.192 175.106 258.217C175.049 258.24 174.983 258.263 174.906 258.285C174.831 258.306 174.758 258.325 174.686 258.343C174.615 258.36 174.558 258.374 174.514 258.385C174.408 258.412 174.309 258.446 174.219 258.489C174.13 258.531 174.06 258.586 174.01 258.655C173.96 258.723 173.942 258.81 173.955 258.916C173.972 259.06 174.038 259.163 174.154 259.225C174.27 259.285 174.412 259.305 174.577 259.286ZM178.35 256.41L177.668 259.236L177.244 259.286L175.924 256.695L176.375 256.642L177.377 258.713L177.405 258.709L177.899 256.463L178.35 256.41ZM179.941 259.033C179.769 259.053 179.609 259.039 179.462 258.991C179.314 258.941 179.192 258.86 179.095 258.746C178.998 258.631 178.939 258.486 178.919 258.309C178.9 258.154 178.916 258.025 178.966 257.921C179.015 257.816 179.088 257.73 179.184 257.663C179.28 257.596 179.388 257.541 179.508 257.5C179.629 257.457 179.752 257.42 179.876 257.388C180.038 257.348 180.169 257.316 180.27 257.294C180.372 257.27 180.445 257.241 180.489 257.209C180.534 257.176 180.553 257.126 180.545 257.059L180.543 257.045C180.523 256.871 180.459 256.742 180.353 256.656C180.247 256.571 180.099 256.54 179.907 256.562C179.708 256.586 179.558 256.648 179.455 256.748C179.352 256.848 179.284 256.95 179.25 257.054L178.838 256.96C178.889 256.787 178.968 256.648 179.075 256.542C179.183 256.435 179.305 256.356 179.44 256.303C179.577 256.248 179.713 256.213 179.85 256.197C179.937 256.187 180.038 256.186 180.153 256.194C180.27 256.2 180.384 256.229 180.498 256.28C180.612 256.331 180.712 256.416 180.798 256.536C180.883 256.656 180.939 256.823 180.964 257.038L181.175 258.823L180.758 258.872L180.715 258.505L180.694 258.508C180.673 258.57 180.633 258.638 180.575 258.713C180.517 258.788 180.436 258.855 180.333 258.915C180.229 258.975 180.098 259.014 179.941 259.033ZM179.96 258.651C180.125 258.632 180.26 258.583 180.365 258.505C180.471 258.427 180.547 258.334 180.593 258.225C180.639 258.115 180.656 258.004 180.643 257.892L180.598 257.511C180.583 257.534 180.546 257.558 180.488 257.583C180.432 257.606 180.365 257.629 180.289 257.651C180.214 257.671 180.141 257.691 180.069 257.709C179.998 257.726 179.941 257.739 179.897 257.751C179.79 257.777 179.692 257.812 179.602 257.855C179.512 257.897 179.443 257.952 179.392 258.021C179.343 258.089 179.325 258.176 179.337 258.281C179.354 258.426 179.421 258.529 179.536 258.59C179.653 258.651 179.794 258.671 179.96 258.651ZM183.605 256.405L183.244 256.555C183.213 256.496 183.171 256.439 183.118 256.386C183.066 256.331 183 256.289 182.917 256.259C182.835 256.23 182.734 256.222 182.613 256.236C182.447 256.256 182.313 256.31 182.212 256.4C182.111 256.488 182.068 256.59 182.081 256.707C182.094 256.81 182.141 256.887 182.223 256.938C182.306 256.989 182.429 257.026 182.594 257.047L183.007 257.098C183.256 257.128 183.447 257.197 183.58 257.304C183.713 257.41 183.791 257.558 183.813 257.747C183.831 257.902 183.803 258.046 183.728 258.179C183.654 258.311 183.542 258.422 183.392 258.512C183.242 258.601 183.061 258.658 182.851 258.683C182.574 258.715 182.339 258.682 182.144 258.584C181.948 258.485 181.813 258.323 181.738 258.099L182.121 257.953C182.176 258.095 182.26 258.196 182.373 258.256C182.488 258.317 182.63 258.337 182.8 258.317C182.994 258.294 183.144 258.235 183.248 258.139C183.353 258.042 183.399 257.935 183.385 257.819C183.374 257.725 183.332 257.65 183.259 257.594C183.185 257.537 183.079 257.501 182.938 257.485L182.475 257.433C182.22 257.403 182.027 257.333 181.896 257.224C181.766 257.113 181.69 256.964 181.668 256.777C181.65 256.624 181.677 256.484 181.749 256.356C181.822 256.228 181.929 256.122 182.071 256.037C182.213 255.953 182.38 255.899 182.57 255.877C182.838 255.845 183.056 255.879 183.222 255.979C183.39 256.078 183.518 256.22 183.605 256.405ZM185.635 258.355C185.382 258.384 185.156 258.35 184.958 258.252C184.761 258.154 184.6 258.005 184.477 257.806C184.353 257.608 184.275 257.373 184.244 257.103C184.211 256.827 184.233 256.579 184.309 256.356C184.387 256.133 184.51 255.951 184.678 255.811C184.847 255.669 185.054 255.584 185.298 255.555C185.489 255.533 185.665 255.548 185.826 255.6C185.987 255.653 186.124 255.737 186.236 255.852C186.349 255.968 186.427 256.109 186.47 256.275L186.054 256.324C186.008 256.205 185.924 256.104 185.804 256.021C185.684 255.938 185.533 255.907 185.35 255.928C185.187 255.947 185.05 256.006 184.938 256.105C184.827 256.203 184.746 256.332 184.696 256.493C184.647 256.653 184.634 256.835 184.658 257.039C184.683 257.249 184.737 257.427 184.821 257.574C184.907 257.722 185.015 257.831 185.146 257.903C185.278 257.974 185.427 258 185.591 257.981C185.7 257.968 185.796 257.938 185.879 257.89C185.963 257.842 186.031 257.779 186.084 257.701C186.137 257.623 186.17 257.533 186.185 257.432L186.601 257.383C186.596 257.545 186.555 257.696 186.477 257.835C186.4 257.973 186.291 258.088 186.148 258.182C186.006 258.273 185.835 258.331 185.635 258.355ZM187.302 258.101L186.983 255.392L187.385 255.345L187.433 255.754L187.462 255.751C187.495 255.611 187.572 255.492 187.691 255.393C187.811 255.294 187.952 255.235 188.114 255.216C188.144 255.213 188.183 255.209 188.229 255.205C188.275 255.2 188.309 255.198 188.333 255.198L188.383 255.621C188.369 255.619 188.336 255.617 188.284 255.616C188.234 255.614 188.181 255.616 188.126 255.622C187.994 255.638 187.88 255.679 187.783 255.747C187.687 255.813 187.615 255.898 187.566 256.001C187.519 256.103 187.502 256.216 187.516 256.338L187.718 258.052L187.302 258.101ZM189.15 257.883L188.831 255.175L189.247 255.126L189.566 257.834L189.15 257.883ZM188.989 254.698C188.908 254.708 188.835 254.688 188.77 254.64C188.705 254.592 188.669 254.529 188.66 254.451C188.65 254.374 188.671 254.304 188.723 254.242C188.775 254.179 188.842 254.144 188.923 254.134C189.004 254.124 189.076 254.144 189.14 254.192C189.206 254.241 189.243 254.304 189.252 254.381C189.261 254.459 189.24 254.529 189.187 254.591C189.136 254.653 189.07 254.689 188.989 254.698ZM190.448 258.76L190.009 255.036L190.411 254.988L190.462 255.419L190.511 255.413C190.536 255.362 190.571 255.297 190.617 255.218C190.663 255.138 190.735 255.062 190.83 254.993C190.927 254.922 191.063 254.876 191.239 254.855C191.467 254.828 191.675 254.862 191.863 254.955C192.05 255.049 192.205 255.194 192.327 255.392C192.449 255.59 192.527 255.831 192.561 256.115C192.594 256.402 192.575 256.657 192.502 256.879C192.429 257.099 192.313 257.277 192.154 257.413C191.995 257.547 191.802 257.628 191.576 257.655C191.402 257.675 191.26 257.663 191.148 257.617C191.037 257.571 190.948 257.514 190.883 257.447C190.818 257.378 190.767 257.321 190.731 257.275L190.695 257.279L190.864 258.711L190.448 258.76ZM190.578 256.342C190.602 256.546 190.653 256.723 190.731 256.873C190.81 257.021 190.912 257.132 191.037 257.207C191.163 257.28 191.309 257.307 191.476 257.287C191.65 257.267 191.79 257.204 191.895 257.098C192.002 256.992 192.075 256.857 192.116 256.693C192.157 256.529 192.166 256.35 192.144 256.157C192.121 255.967 192.072 255.799 191.995 255.653C191.919 255.506 191.817 255.394 191.689 255.319C191.562 255.242 191.41 255.214 191.234 255.235C191.065 255.255 190.927 255.314 190.822 255.414C190.717 255.512 190.644 255.641 190.603 255.801C190.562 255.959 190.554 256.14 190.578 256.342ZM194.213 254.541L194.255 254.893L192.851 255.059L192.809 254.706L194.213 254.541ZM193.142 254.009L193.558 253.96L193.862 256.541C193.876 256.659 193.904 256.745 193.945 256.8C193.987 256.853 194.036 256.887 194.092 256.9C194.15 256.913 194.209 256.915 194.27 256.908C194.316 256.903 194.353 256.896 194.382 256.888C194.411 256.878 194.434 256.871 194.451 256.865L194.58 257.229C194.553 257.243 194.515 257.258 194.465 257.275C194.416 257.292 194.353 257.306 194.275 257.315C194.158 257.329 194.04 257.317 193.921 257.28C193.803 257.243 193.701 257.177 193.615 257.082C193.53 256.987 193.478 256.861 193.459 256.703L193.142 254.009ZM195.24 253.504L195.277 253.822C195.289 253.918 195.283 254.023 195.261 254.136C195.239 254.249 195.201 254.36 195.146 254.47C195.092 254.579 195.023 254.676 194.938 254.763L194.69 254.606C194.752 254.491 194.803 254.374 194.844 254.253C194.885 254.132 194.899 254.006 194.883 253.875L194.845 253.551L195.24 253.504ZM196.143 253.398L196.18 253.715C196.192 253.812 196.186 253.916 196.164 254.03C196.142 254.142 196.104 254.253 196.049 254.363C195.995 254.472 195.926 254.57 195.841 254.656L195.593 254.499C195.655 254.385 195.706 254.267 195.747 254.147C195.788 254.025 195.801 253.899 195.786 253.769L195.748 253.444L196.143 253.398Z" fill="white"/>
<path d="M120.906 125.862C121.027 125.926 121.236 125.997 121.533 126.076C121.829 126.145 122.171 126.158 122.559 126.112C122.894 126.072 123.163 125.984 123.365 125.847C123.566 125.701 123.709 125.505 123.793 125.26C123.886 125.013 123.928 124.703 123.919 124.328C123.919 123.953 123.888 123.507 123.827 122.991L123.261 118.188L125.043 117.978L125.592 122.639C125.673 123.328 125.708 123.96 125.698 124.538C125.687 125.115 125.595 125.623 125.419 126.063C125.244 126.502 124.942 126.861 124.512 127.138C124.091 127.415 123.506 127.597 122.757 127.685C122.344 127.734 121.968 127.73 121.63 127.674C121.292 127.618 120.974 127.512 120.676 127.355L120.906 125.862ZM126.939 125.02C126.887 124.581 126.962 124.184 127.165 123.828C127.375 123.463 127.689 123.164 128.106 122.932C128.524 122.699 129.017 122.55 129.585 122.483C129.869 122.449 130.16 122.437 130.458 122.445C130.755 122.454 131.017 122.493 131.244 122.562L131.201 122.201C131.15 121.77 130.982 121.454 130.697 121.252C130.42 121.049 130.032 120.977 129.532 121.036C129.162 121.08 128.817 121.186 128.496 121.354C128.176 121.523 127.845 121.754 127.505 122.047L126.816 120.976C127.229 120.631 127.659 120.358 128.107 120.157C128.563 119.955 129.049 119.823 129.565 119.762C130.529 119.649 131.307 119.801 131.897 120.221C132.496 120.639 132.848 121.295 132.954 122.19L133.208 124.347C133.229 124.527 133.275 124.653 133.344 124.723C133.422 124.793 133.535 124.827 133.683 124.827L133.849 126.235C133.697 126.279 133.558 126.317 133.431 126.349C133.312 126.381 133.21 126.401 133.124 126.412C132.78 126.452 132.508 126.406 132.309 126.272C132.119 126.137 131.989 125.961 131.919 125.742L131.84 125.398C131.592 125.811 131.26 126.147 130.846 126.405C130.431 126.663 129.996 126.819 129.539 126.873C129.092 126.926 128.677 126.883 128.294 126.745C127.919 126.597 127.609 126.376 127.365 126.082C127.128 125.778 126.986 125.424 126.939 125.02ZM131.189 124.872C131.271 124.758 131.336 124.646 131.385 124.535C131.433 124.425 131.452 124.327 131.441 124.241L131.361 123.556C131.144 123.495 130.913 123.456 130.667 123.442C130.42 123.418 130.188 123.42 129.973 123.445C129.526 123.498 129.167 123.64 128.898 123.873C128.636 124.095 128.524 124.366 128.562 124.685C128.582 124.857 128.648 125.015 128.761 125.158C128.874 125.302 129.027 125.411 129.219 125.484C129.411 125.558 129.631 125.58 129.881 125.55C130.139 125.52 130.387 125.442 130.626 125.318C130.863 125.186 131.051 125.037 131.189 124.872ZM136.634 125.906L133.345 119.435L135.139 119.223L137.455 124.213L138.561 118.82L140.2 118.627L138.519 125.684L136.634 125.906ZM141.035 123.359C140.983 122.92 141.058 122.523 141.261 122.167C141.471 121.802 141.785 121.503 142.202 121.271C142.62 121.038 143.113 120.889 143.681 120.822C143.965 120.788 144.256 120.776 144.553 120.784C144.851 120.793 145.113 120.832 145.34 120.901L145.297 120.54C145.246 120.109 145.078 119.793 144.792 119.591C144.515 119.388 144.127 119.316 143.628 119.375C143.258 119.419 142.913 119.525 142.592 119.693C142.272 119.862 141.941 120.093 141.601 120.386L140.912 119.316C141.325 118.97 141.755 118.697 142.202 118.496C142.659 118.294 143.145 118.162 143.661 118.101C144.625 117.988 145.403 118.141 145.993 118.56C146.592 118.978 146.944 119.634 147.05 120.53L147.304 122.686C147.325 122.866 147.37 122.992 147.44 123.062C147.518 123.132 147.631 123.166 147.779 123.166L147.945 124.574C147.793 124.618 147.654 124.656 147.527 124.688C147.408 124.72 147.306 124.741 147.22 124.751C146.876 124.791 146.604 124.745 146.405 124.611C146.215 124.476 146.085 124.3 146.015 124.081L145.935 123.737C145.687 124.15 145.356 124.486 144.941 124.744C144.527 125.003 144.091 125.159 143.635 125.212C143.188 125.265 142.773 125.222 142.39 125.084C142.015 124.936 141.705 124.715 141.461 124.421C141.224 124.118 141.082 123.763 141.035 123.359ZM145.284 123.212C145.367 123.097 145.432 122.985 145.48 122.874C145.528 122.764 145.547 122.666 145.537 122.58L145.457 121.895C145.24 121.834 145.009 121.796 144.762 121.781C144.515 121.758 144.284 121.759 144.069 121.784C143.621 121.837 143.263 121.979 142.994 122.212C142.732 122.435 142.62 122.705 142.657 123.024C142.678 123.196 142.744 123.354 142.857 123.498C142.97 123.641 143.123 123.75 143.315 123.823C143.506 123.897 143.727 123.919 143.977 123.889C144.235 123.859 144.483 123.782 144.722 123.658C144.959 123.525 145.147 123.376 145.284 123.212ZM153.981 117.003C153.913 116.95 153.792 116.882 153.616 116.798C153.449 116.713 153.244 116.636 153 116.569C152.765 116.501 152.51 116.448 152.235 116.411C151.959 116.365 151.684 116.358 151.408 116.39C150.926 116.447 150.571 116.58 150.343 116.791C150.123 117 150.032 117.268 150.071 117.595C150.1 117.845 150.201 118.033 150.373 118.161C150.545 118.29 150.793 118.387 151.115 118.454C151.437 118.52 151.837 118.587 152.316 118.652C152.936 118.728 153.478 118.847 153.942 119.011C154.414 119.164 154.787 119.4 155.06 119.717C155.34 120.024 155.513 120.457 155.579 121.017C155.637 121.507 155.596 121.94 155.457 122.314C155.317 122.68 155.1 122.989 154.807 123.241C154.514 123.494 154.171 123.696 153.779 123.847C153.386 123.989 152.961 124.087 152.505 124.141C152.049 124.195 151.587 124.201 151.119 124.16C150.652 124.119 150.197 124.038 149.755 123.915C149.312 123.784 148.9 123.615 148.517 123.407L149.124 121.777C149.21 121.846 149.36 121.933 149.574 122.039C149.786 122.136 150.041 122.232 150.341 122.328C150.639 122.415 150.961 122.482 151.307 122.528C151.653 122.575 151.998 122.578 152.342 122.537C152.824 122.48 153.18 122.355 153.41 122.163C153.641 121.97 153.738 121.722 153.703 121.421C153.67 121.146 153.546 120.942 153.33 120.811C153.113 120.679 152.822 120.578 152.456 120.508C152.089 120.429 151.656 120.349 151.158 120.268C150.562 120.172 150.059 120.049 149.648 119.896C149.237 119.735 148.918 119.511 148.692 119.223C148.466 118.936 148.326 118.56 148.271 118.095C148.197 117.467 148.282 116.924 148.524 116.468C148.775 116.002 149.142 115.632 149.624 115.357C150.105 115.073 150.656 114.895 151.276 114.822C151.706 114.771 152.116 114.771 152.506 114.821C152.905 114.87 153.281 114.952 153.635 115.068C153.989 115.183 154.31 115.315 154.598 115.465L153.981 117.003ZM160.232 123.257C159.681 123.322 159.176 123.29 158.715 123.161C158.254 123.023 157.849 122.809 157.501 122.518C157.151 122.219 156.866 121.869 156.644 121.467C156.431 121.065 156.297 120.631 156.242 120.166C156.167 119.53 156.24 118.932 156.463 118.373C156.692 117.805 157.055 117.33 157.551 116.949C158.048 116.568 158.661 116.334 159.393 116.248C160.125 116.162 160.772 116.247 161.334 116.503C161.897 116.76 162.338 117.131 162.657 117.617L161.026 118.333C160.851 118.101 160.635 117.934 160.378 117.833C160.121 117.724 159.846 117.687 159.554 117.721C159.226 117.76 158.935 117.881 158.68 118.086C158.433 118.281 158.25 118.542 158.131 118.87C158.012 119.19 157.976 119.552 158.024 119.957C158.07 120.352 158.189 120.696 158.381 120.988C158.58 121.27 158.823 121.485 159.111 121.635C159.399 121.775 159.706 121.827 160.033 121.788C160.239 121.764 160.429 121.706 160.602 121.616C160.783 121.525 160.939 121.411 161.072 121.273C161.204 121.135 161.295 120.985 161.346 120.822L163.098 121.139C162.982 121.493 162.79 121.821 162.52 122.123C162.259 122.425 161.935 122.677 161.549 122.879C161.17 123.072 160.731 123.198 160.232 123.257ZM167.761 116.898C167.236 116.96 166.78 117.118 166.391 117.374C166.001 117.62 165.738 117.944 165.602 118.344L166.084 122.436L164.354 122.64L163.557 115.875L165.145 115.688L165.315 117.134C165.502 116.641 165.764 116.239 166.103 115.928C166.441 115.618 166.816 115.426 167.226 115.351C167.32 115.34 167.394 115.331 167.445 115.325C167.497 115.319 167.54 115.318 167.576 115.323L167.761 116.898ZM169.347 122.052L168.55 115.287L170.28 115.083L171.077 121.848L169.347 122.052ZM168.439 114.344L168.236 112.627L169.966 112.423L170.169 114.14L168.439 114.344ZM176.707 121.316C176.182 121.378 175.703 121.316 175.271 121.131C174.847 120.937 174.499 120.651 174.228 120.273L174.692 124.21L172.962 124.414L171.84 114.899L173.351 114.721L173.488 115.883C173.699 115.457 173.99 115.108 174.36 114.838C174.728 114.559 175.166 114.389 175.674 114.329C176.13 114.276 176.558 114.317 176.958 114.453C177.367 114.588 177.733 114.803 178.055 115.096C178.377 115.381 178.64 115.725 178.844 116.129C179.057 116.523 179.191 116.961 179.248 117.443C179.325 118.097 179.266 118.706 179.071 119.27C178.884 119.833 178.585 120.3 178.175 120.671C177.773 121.033 177.283 121.248 176.707 121.316ZM175.952 119.912C176.219 119.881 176.454 119.797 176.656 119.659C176.858 119.522 177.025 119.35 177.157 119.142C177.298 118.925 177.392 118.691 177.441 118.441C177.498 118.181 177.511 117.918 177.479 117.651C177.446 117.367 177.367 117.11 177.244 116.88C177.13 116.649 176.976 116.454 176.783 116.293C176.588 116.124 176.369 116.002 176.124 115.926C175.888 115.849 175.637 115.826 175.37 115.858C175.206 115.877 175.042 115.927 174.877 116.007C174.72 116.078 174.569 116.174 174.427 116.296C174.284 116.418 174.16 116.554 174.056 116.706C173.96 116.857 173.896 117.017 173.864 117.187L174.051 118.775C174.184 119.012 174.348 119.224 174.545 119.411C174.75 119.596 174.976 119.735 175.222 119.828C175.468 119.913 175.711 119.941 175.952 119.912ZM184.745 119.884C184.606 119.962 184.437 120.051 184.24 120.153C184.042 120.255 183.826 120.342 183.59 120.413C183.363 120.492 183.13 120.546 182.889 120.574C182.57 120.612 182.271 120.59 181.991 120.51C181.711 120.429 181.475 120.278 181.283 120.056C181.099 119.825 180.983 119.511 180.937 119.116L180.479 115.229L179.588 115.334L179.431 114.005L180.322 113.9L180.064 111.705L181.794 111.501L182.052 113.696L183.472 113.528L183.629 114.858L182.209 115.026L182.598 118.331C182.634 118.562 182.719 118.722 182.851 118.811C182.984 118.901 183.141 118.934 183.321 118.913C183.502 118.892 183.675 118.841 183.84 118.76C184.005 118.68 184.137 118.612 184.235 118.557L184.745 119.884Z" fill="#FFC100"/>
<path d="M118.908 106.009L118.327 101.073L120.412 100.828C120.625 100.802 120.825 100.824 121.012 100.891C121.198 100.958 121.365 101.061 121.513 101.198C121.665 101.331 121.787 101.486 121.878 101.663C121.973 101.835 122.032 102.016 122.055 102.206C122.083 102.442 122.063 102.67 121.994 102.89C121.931 103.108 121.824 103.3 121.674 103.463C121.529 103.626 121.348 103.743 121.131 103.816L122.565 105.578L122.016 105.643L120.64 103.958L119.18 104.13L119.395 105.952L118.908 106.009ZM119.129 103.699L120.742 103.509C120.937 103.486 121.1 103.413 121.231 103.29C121.362 103.166 121.457 103.014 121.516 102.833C121.574 102.648 121.591 102.458 121.568 102.263C121.545 102.064 121.477 101.886 121.364 101.73C121.256 101.569 121.12 101.447 120.955 101.363C120.794 101.274 120.621 101.24 120.435 101.262L118.864 101.447L119.129 103.699ZM123.319 105.489L122.892 101.867L123.365 101.812L123.792 105.434L123.319 105.489ZM122.803 101.11L122.721 100.415L123.194 100.359L123.275 101.054L122.803 101.11ZM126.412 105.195C126.148 105.227 125.899 105.207 125.665 105.135C125.435 105.059 125.226 104.943 125.039 104.786C124.856 104.629 124.705 104.443 124.585 104.227C124.47 104.01 124.398 103.774 124.368 103.519C124.327 103.176 124.367 102.854 124.487 102.554C124.606 102.253 124.793 102.003 125.047 101.804C125.301 101.605 125.606 101.484 125.963 101.442C126.301 101.402 126.609 101.446 126.887 101.573C127.165 101.695 127.382 101.881 127.538 102.131L127.097 102.331C126.973 102.157 126.812 102.031 126.615 101.95C126.421 101.865 126.214 101.836 125.991 101.862C125.75 101.89 125.537 101.979 125.353 102.127C125.168 102.276 125.029 102.466 124.934 102.698C124.843 102.93 124.815 103.185 124.848 103.463C124.88 103.736 124.969 103.977 125.116 104.185C125.263 104.393 125.444 104.553 125.659 104.664C125.873 104.77 126.101 104.809 126.342 104.781C126.5 104.762 126.647 104.717 126.784 104.644C126.926 104.571 127.045 104.482 127.14 104.377C127.24 104.266 127.302 104.153 127.326 104.038L127.808 104.122C127.763 104.301 127.673 104.469 127.536 104.626C127.404 104.778 127.24 104.905 127.045 105.008C126.855 105.106 126.644 105.168 126.412 105.195ZM131.234 104.557L129.674 102.859L128.987 103.673L129.121 104.806L128.648 104.862L128.05 99.7866L128.523 99.7309L128.928 103.165L130.746 100.949L131.267 100.888L129.961 102.543L131.749 104.496L131.234 104.557ZM134.204 104.207L133.622 99.271L135.708 99.0253C135.921 99.0002 136.121 99.0213 136.307 99.0886C136.494 99.1559 136.661 99.2584 136.809 99.396C136.961 99.5285 137.082 99.6833 137.174 99.8605C137.269 100.033 137.328 100.214 137.35 100.404C137.378 100.64 137.358 100.868 137.29 101.087C137.226 101.306 137.12 101.497 136.97 101.661C136.825 101.824 136.643 101.941 136.426 102.014L137.86 103.776L137.311 103.841L135.936 102.156L134.476 102.328L134.69 104.15L134.204 104.207ZM134.425 101.897L136.038 101.707C136.233 101.684 136.395 101.611 136.527 101.487C136.658 101.364 136.752 101.212 136.811 101.031C136.869 100.846 136.887 100.656 136.864 100.461C136.84 100.262 136.772 100.084 136.66 99.9281C136.552 99.767 136.415 99.6445 136.25 99.5605C136.089 99.4714 135.916 99.4378 135.731 99.4596L134.16 99.6447L134.425 101.897ZM138.179 102.681C138.152 102.454 138.194 102.252 138.305 102.074C138.415 101.892 138.578 101.744 138.795 101.629C139.016 101.509 139.277 101.431 139.578 101.396C139.754 101.375 139.939 101.367 140.132 101.373C140.326 101.378 140.5 101.4 140.655 101.438L140.619 101.132C140.583 100.826 140.464 100.594 140.261 100.434C140.059 100.275 139.799 100.214 139.479 100.251C139.284 100.274 139.096 100.334 138.915 100.431C138.738 100.522 138.555 100.649 138.368 100.812L138.148 100.5C138.365 100.31 138.582 100.162 138.8 100.057C139.018 99.9463 139.244 99.8773 139.481 99.8495C139.926 99.797 140.293 99.883 140.582 100.107C140.872 100.332 141.043 100.669 141.096 101.118L141.294 102.794C141.301 102.858 141.321 102.905 141.353 102.935C141.384 102.959 141.43 102.97 141.49 102.968L141.535 103.343C141.484 103.354 141.441 103.364 141.404 103.373C141.368 103.382 141.34 103.385 141.321 103.382C141.204 103.391 141.112 103.365 141.043 103.302C140.975 103.24 140.934 103.17 140.92 103.091L140.882 102.828C140.744 103.056 140.552 103.243 140.307 103.389C140.06 103.531 139.803 103.618 139.534 103.649C139.302 103.677 139.085 103.653 138.884 103.578C138.686 103.498 138.525 103.381 138.398 103.226C138.276 103.067 138.203 102.885 138.179 102.681ZM140.638 102.673C140.681 102.603 140.713 102.535 140.734 102.472C140.755 102.408 140.763 102.353 140.757 102.307L140.695 101.779C140.53 101.737 140.36 101.71 140.185 101.698C140.014 101.685 139.843 101.689 139.672 101.709C139.333 101.749 139.068 101.848 138.875 102.007C138.682 102.166 138.6 102.361 138.627 102.593C138.643 102.728 138.693 102.851 138.776 102.963C138.859 103.071 138.973 103.156 139.117 103.219C139.26 103.278 139.422 103.296 139.602 103.275C139.829 103.248 140.035 103.179 140.219 103.068C140.408 102.957 140.548 102.825 140.638 102.673ZM145.427 102.884L144.954 102.94L144.716 100.917C144.666 100.491 144.567 100.188 144.419 100.008C144.27 99.8232 144.061 99.7468 143.792 99.7784C143.607 99.8003 143.429 99.8682 143.26 99.9822C143.089 100.092 142.944 100.233 142.823 100.407C142.707 100.576 142.63 100.764 142.594 100.97L142.855 103.188L142.382 103.243L141.955 99.6213L142.386 99.5705L142.483 100.391C142.56 100.203 142.669 100.035 142.811 99.887C142.953 99.734 143.119 99.6087 143.31 99.5111C143.5 99.4134 143.702 99.3521 143.915 99.3269C144.115 99.3035 144.288 99.3206 144.436 99.3784C144.584 99.4361 144.708 99.5296 144.807 99.6588C144.907 99.7834 144.986 99.9408 145.046 100.131C145.106 100.317 145.149 100.528 145.177 100.764L145.427 102.884ZM145.98 100.994C145.939 100.651 145.972 100.33 146.078 100.031C146.188 99.7265 146.357 99.4738 146.588 99.2729C146.818 99.0719 147.093 98.9526 147.412 98.9149C147.714 98.8794 147.992 98.9288 148.247 99.0632C148.507 99.1924 148.717 99.3626 148.879 99.5739L148.618 97.3632L149.091 97.3075L149.622 101.812C149.629 101.877 149.649 101.924 149.68 101.953C149.712 101.978 149.755 101.989 149.811 101.987L149.856 102.363C149.765 102.388 149.693 102.401 149.642 102.402C149.544 102.409 149.453 102.38 149.371 102.314C149.288 102.249 149.241 102.172 149.231 102.084L149.189 101.729C149.073 101.983 148.901 102.193 148.671 102.361C148.442 102.529 148.195 102.629 147.931 102.66C147.681 102.689 147.443 102.666 147.218 102.589C146.997 102.512 146.798 102.394 146.62 102.236C146.446 102.078 146.302 101.893 146.188 101.681C146.077 101.464 146.008 101.235 145.98 100.994ZM149.069 101.194L148.937 100.074C148.858 99.9147 148.743 99.7755 148.592 99.6569C148.441 99.5337 148.276 99.4428 148.095 99.3843C147.918 99.3205 147.747 99.2984 147.58 99.3181C147.385 99.341 147.214 99.4035 147.066 99.5055C146.918 99.6028 146.794 99.7279 146.694 99.8806C146.6 100.033 146.532 100.2 146.493 100.384C146.453 100.567 146.445 100.751 146.466 100.936C146.489 101.131 146.544 101.313 146.629 101.481C146.72 101.649 146.835 101.795 146.977 101.919C147.118 102.039 147.274 102.127 147.445 102.182C147.616 102.237 147.796 102.253 147.986 102.231C148.107 102.216 148.229 102.178 148.353 102.117C148.478 102.055 148.593 101.978 148.7 101.886C148.81 101.788 148.899 101.679 148.964 101.558C149.03 101.438 149.065 101.316 149.069 101.194ZM151.099 103.344C151.165 103.341 151.228 103.336 151.288 103.329C151.349 103.326 151.392 103.319 151.419 103.306C151.474 103.29 151.523 103.252 151.568 103.19C151.612 103.128 151.66 103.015 151.711 102.849C151.762 102.683 151.832 102.44 151.921 102.119L149.916 98.6834L150.416 98.6244L152.114 101.603L152.968 98.3238L153.441 98.2681L152.114 103.161C152.092 103.253 152.053 103.34 151.997 103.421C151.941 103.508 151.867 103.578 151.775 103.631C151.687 103.688 151.575 103.727 151.436 103.748C151.395 103.758 151.351 103.763 151.304 103.764C151.262 103.769 151.211 103.77 151.149 103.768L151.099 103.344Z" fill="white"/>
<path d="M131.406 141.99L127.637 142.434L128.775 152.088L127.732 152.21L126.595 142.557L122.826 143.001L122.717 142.078L131.297 141.067L131.406 141.99ZM140.444 150.713L139.431 150.832L138.921 146.497C138.818 145.623 138.586 144.986 138.227 144.585C137.866 144.174 137.398 144.003 136.822 144.071C136.445 144.115 136.079 144.259 135.725 144.502C135.38 144.734 135.083 145.036 134.835 145.408C134.596 145.768 134.441 146.169 134.372 146.61L134.932 151.362L133.919 151.481L132.638 140.607L133.651 140.487L134.225 145.359C134.465 144.746 134.838 144.239 135.345 143.837C135.86 143.424 136.43 143.181 137.056 143.107C137.503 143.054 137.89 143.089 138.216 143.212C138.553 143.333 138.834 143.537 139.058 143.822C139.292 144.097 139.478 144.433 139.615 144.829C139.751 145.216 139.849 145.663 139.909 146.169L140.444 150.713ZM145.974 150.212C145.418 150.278 144.889 150.234 144.388 150.082C143.885 149.92 143.439 149.675 143.048 149.349C142.656 149.012 142.332 148.612 142.076 148.149C141.83 147.685 141.674 147.174 141.608 146.618C141.523 145.893 141.608 145.209 141.865 144.564C142.131 143.919 142.536 143.382 143.08 142.956C143.622 142.519 144.266 142.257 145.011 142.17C145.776 142.079 146.463 142.185 147.072 142.486C147.692 142.785 148.201 143.218 148.6 143.786C148.998 144.343 149.239 144.979 149.323 145.694C149.333 145.774 149.342 145.853 149.351 145.933C149.359 146.002 149.361 146.057 149.356 146.098L142.712 146.881C142.827 147.431 143.039 147.91 143.349 148.316C143.667 148.712 144.05 149.014 144.498 149.223C144.954 149.421 145.431 149.491 145.927 149.432C146.434 149.373 146.895 149.187 147.312 148.876C147.738 148.564 148.016 148.189 148.146 147.751L149.053 147.886C148.937 148.272 148.733 148.633 148.44 148.97C148.148 149.307 147.788 149.586 147.361 149.807C146.943 150.017 146.48 150.152 145.974 150.212ZM142.596 146.155L148.331 145.479C148.225 144.917 148.012 144.439 147.694 144.043C147.385 143.647 147.003 143.355 146.548 143.166C146.102 142.967 145.626 142.898 145.119 142.957C144.613 143.017 144.165 143.196 143.777 143.493C143.388 143.78 143.086 144.159 142.869 144.627C142.661 145.085 142.57 145.594 142.596 146.155ZM130.059 170.167C129.533 170.229 129.033 170.177 128.561 170.011C128.088 169.845 127.666 169.598 127.295 169.269C126.933 168.929 126.634 168.531 126.399 168.075C126.164 167.62 126.017 167.139 125.957 166.632C125.893 166.086 125.917 165.565 126.03 165.068C126.151 164.56 126.349 164.099 126.622 163.684C126.905 163.268 127.253 162.93 127.665 162.67C128.077 162.4 128.55 162.234 129.087 162.17C129.752 162.092 130.348 162.193 130.874 162.473C131.411 162.752 131.877 163.12 132.273 163.577L132.082 161.953L132.991 161.846L133.909 169.637C133.993 170.352 133.89 170.974 133.6 171.501C133.32 172.038 132.903 172.465 132.346 172.782C131.799 173.098 131.183 173.296 130.498 173.377C129.614 173.481 128.88 173.407 128.297 173.153C127.713 172.9 127.216 172.525 126.805 172.03L127.373 171.465C127.738 171.915 128.188 172.23 128.722 172.408C129.267 172.586 129.827 172.641 130.403 172.573C130.91 172.513 131.36 172.364 131.755 172.127C132.161 171.897 132.467 171.585 132.672 171.188C132.886 170.79 132.961 170.313 132.896 169.757L132.715 168.222C132.474 168.744 132.113 169.184 131.632 169.543C131.149 169.892 130.625 170.1 130.059 170.167ZM130.242 169.284C130.55 169.248 130.837 169.159 131.102 169.017C131.377 168.873 131.623 168.698 131.84 168.492C132.056 168.275 132.231 168.043 132.363 167.796C132.494 167.549 132.566 167.303 132.578 167.06L132.295 164.662C132.102 164.302 131.849 163.995 131.537 163.739C131.224 163.474 130.879 163.283 130.503 163.166C130.136 163.039 129.763 162.997 129.386 163.041C128.949 163.093 128.568 163.233 128.242 163.463C127.926 163.682 127.666 163.959 127.464 164.295C127.271 164.62 127.132 164.978 127.047 165.371C126.963 165.764 126.943 166.149 126.987 166.526C127.036 166.943 127.157 167.332 127.351 167.691C127.543 168.041 127.786 168.35 128.079 168.618C128.381 168.874 128.716 169.061 129.082 169.179C129.458 169.296 129.845 169.331 130.242 169.284ZM139.206 162.02C138.533 162.12 137.96 162.379 137.485 162.797C137.021 163.214 136.721 163.748 136.586 164.398L137.155 169.225L136.142 169.344L135.228 161.583L136.181 161.47L136.4 163.333C136.604 162.755 136.905 162.271 137.302 161.882C137.709 161.492 138.159 161.247 138.65 161.149C138.749 161.128 138.832 161.113 138.902 161.104C138.981 161.095 139.046 161.092 139.097 161.097L139.206 162.02ZM144.487 168.512C143.931 168.577 143.402 168.534 142.901 168.382C142.398 168.219 141.952 167.975 141.561 167.648C141.169 167.312 140.845 166.912 140.589 166.449C140.343 165.984 140.187 165.474 140.121 164.918C140.036 164.193 140.121 163.508 140.378 162.864C140.644 162.218 141.049 161.682 141.593 161.256C142.135 160.819 142.779 160.557 143.524 160.469C144.289 160.379 144.976 160.484 145.585 160.785C146.205 161.085 146.714 161.518 147.113 162.085C147.511 162.643 147.752 163.279 147.836 163.994C147.846 164.073 147.855 164.153 147.864 164.232C147.872 164.302 147.874 164.357 147.869 164.398L141.225 165.181C141.34 165.731 141.552 166.209 141.862 166.616C142.18 167.011 142.563 167.314 143.011 167.523C143.467 167.721 143.944 167.79 144.44 167.732C144.947 167.672 145.408 167.487 145.825 167.176C146.251 166.864 146.529 166.489 146.659 166.051L147.566 166.186C147.45 166.572 147.246 166.933 146.953 167.27C146.661 167.606 146.301 167.885 145.874 168.107C145.456 168.317 144.993 168.452 144.487 168.512ZM141.109 164.454L146.844 163.778C146.738 163.217 146.525 162.739 146.207 162.343C145.898 161.947 145.516 161.654 145.061 161.466C144.615 161.267 144.139 161.197 143.632 161.257C143.126 161.317 142.678 161.495 142.29 161.793C141.901 162.08 141.599 162.458 141.382 162.927C141.174 163.384 141.083 163.893 141.109 164.454ZM148.972 165.567C148.914 165.08 149.004 164.647 149.241 164.266C149.477 163.876 149.828 163.558 150.292 163.312C150.765 163.055 151.324 162.888 151.97 162.812C152.347 162.768 152.743 162.751 153.157 162.763C153.572 162.774 153.945 162.821 154.276 162.903L154.199 162.247C154.122 161.592 153.867 161.093 153.434 160.752C153.001 160.41 152.442 160.279 151.757 160.36C151.339 160.409 150.937 160.537 150.548 160.744C150.169 160.94 149.778 161.213 149.376 161.562L148.904 160.893C149.37 160.485 149.836 160.169 150.303 159.942C150.768 159.706 151.254 159.558 151.761 159.499C152.714 159.386 153.501 159.571 154.122 160.051C154.742 160.532 155.109 161.254 155.223 162.217L155.646 165.807C155.662 165.947 155.704 166.047 155.772 166.11C155.839 166.162 155.937 166.186 156.067 166.181L156.162 166.985C156.054 167.008 155.961 167.029 155.883 167.048C155.804 167.068 155.745 167.075 155.704 167.069C155.454 167.089 155.256 167.031 155.11 166.898C154.963 166.764 154.875 166.613 154.845 166.446L154.763 165.881C154.468 166.369 154.057 166.77 153.531 167.084C153.002 167.388 152.45 167.574 151.874 167.641C151.378 167.7 150.914 167.649 150.482 167.488C150.059 167.317 149.712 167.065 149.442 166.735C149.18 166.393 149.023 166.004 148.972 165.567ZM154.241 165.55C154.334 165.398 154.402 165.254 154.447 165.118C154.491 164.982 154.508 164.864 154.496 164.765L154.362 163.633C154.01 163.543 153.645 163.486 153.27 163.459C152.904 163.432 152.537 163.44 152.17 163.483C151.445 163.569 150.876 163.782 150.463 164.122C150.05 164.463 149.873 164.882 149.931 165.378C149.965 165.666 150.072 165.931 150.251 166.171C150.429 166.402 150.673 166.585 150.98 166.72C151.287 166.845 151.634 166.884 152.022 166.839C152.508 166.781 152.949 166.634 153.344 166.396C153.749 166.157 154.048 165.875 154.241 165.55ZM161.601 165.967C161.525 166.006 161.407 166.075 161.247 166.175C161.088 166.274 160.893 166.367 160.661 166.455C160.43 166.543 160.175 166.603 159.897 166.636C159.609 166.67 159.33 166.647 159.058 166.568C158.797 166.488 158.579 166.348 158.405 166.147C158.229 165.936 158.122 165.667 158.083 165.339L157.428 159.783L156.356 159.909L156.261 159.104L157.333 158.978L157.024 156.356L158.037 156.237L158.346 158.859L160.134 158.648L160.229 159.453L158.441 159.663L159.063 164.937C159.115 165.212 159.239 165.409 159.434 165.527C159.639 165.644 159.861 165.688 160.099 165.66C160.377 165.628 160.625 165.553 160.843 165.437C161.06 165.31 161.191 165.225 161.236 165.179L161.601 165.967ZM128.064 184.509C127.977 183.774 128.047 183.086 128.274 182.445C128.509 181.793 128.873 181.251 129.366 180.821C129.859 180.39 130.448 180.134 131.133 180.054C131.779 179.978 132.375 180.084 132.923 180.371C133.479 180.648 133.93 181.013 134.275 181.466L133.717 176.729L134.73 176.609L135.868 186.262C135.884 186.401 135.926 186.502 135.994 186.565C136.06 186.617 136.154 186.642 136.274 186.637L136.369 187.442C136.174 187.495 136.021 187.523 135.911 187.526C135.701 187.541 135.507 187.478 135.33 187.338C135.152 187.198 135.052 187.033 135.03 186.844L134.94 186.085C134.692 186.627 134.322 187.079 133.831 187.439C133.34 187.799 132.811 188.012 132.245 188.079C131.709 188.142 131.199 188.091 130.717 187.927C130.244 187.761 129.817 187.509 129.435 187.171C129.062 186.833 128.754 186.436 128.509 185.982C128.273 185.516 128.125 185.025 128.064 184.509ZM134.684 184.937L134.402 182.538C134.23 182.196 133.984 181.898 133.662 181.644C133.339 181.38 132.984 181.185 132.596 181.059C132.218 180.923 131.85 180.876 131.492 180.918C131.075 180.967 130.708 181.101 130.391 181.319C130.074 181.528 129.808 181.796 129.595 182.123C129.392 182.449 129.248 182.808 129.163 183.201C129.079 183.593 129.06 183.988 129.106 184.386C129.156 184.803 129.272 185.192 129.455 185.553C129.649 185.913 129.897 186.226 130.2 186.492C130.503 186.749 130.837 186.936 131.203 187.054C131.569 187.172 131.956 187.207 132.363 187.159C132.622 187.128 132.884 187.047 133.15 186.915C133.417 186.783 133.664 186.618 133.892 186.42C134.129 186.21 134.318 185.977 134.459 185.718C134.6 185.46 134.675 185.2 134.684 184.937ZM141.676 186.968C141.12 187.033 140.591 186.99 140.09 186.837C139.587 186.675 139.141 186.431 138.75 186.104C138.358 185.768 138.034 185.368 137.778 184.905C137.532 184.44 137.376 183.93 137.31 183.374C137.225 182.649 137.31 181.964 137.567 181.32C137.833 180.674 138.238 180.138 138.782 179.711C139.325 179.275 139.968 179.013 140.713 178.925C141.478 178.835 142.165 178.94 142.774 179.241C143.394 179.541 143.903 179.974 144.302 180.541C144.7 181.098 144.941 181.735 145.025 182.45C145.035 182.529 145.044 182.608 145.053 182.688C145.062 182.757 145.063 182.813 145.058 182.854L138.414 183.636C138.529 184.187 138.741 184.665 139.051 185.072C139.37 185.467 139.753 185.769 140.2 185.978C140.656 186.176 141.133 186.246 141.629 186.188C142.136 186.128 142.597 185.943 143.014 185.632C143.44 185.32 143.718 184.945 143.848 184.506L144.755 184.641C144.639 185.027 144.435 185.389 144.143 185.725C143.85 186.062 143.49 186.341 143.063 186.562C142.645 186.773 142.182 186.908 141.676 186.968ZM138.298 182.91L144.033 182.234C143.927 181.673 143.714 181.194 143.396 180.799C143.087 180.402 142.706 180.11 142.25 179.922C141.804 179.723 141.328 179.653 140.821 179.713C140.315 179.772 139.868 179.951 139.48 180.248C139.091 180.536 138.788 180.914 138.571 181.383C138.363 181.84 138.272 182.349 138.298 182.91ZM150.866 185.885C150.26 185.956 149.681 185.868 149.128 185.621C148.574 185.364 148.125 185.014 147.781 184.572L147.959 186.076L147.05 186.183L145.769 175.309L146.782 175.189L147.34 179.926C147.625 179.359 147.993 178.888 148.442 178.513C148.89 178.128 149.437 177.897 150.082 177.821C150.628 177.757 151.128 177.814 151.582 177.992C152.046 178.169 152.455 178.433 152.809 178.784C153.161 179.125 153.445 179.529 153.661 179.997C153.876 180.455 154.014 180.937 154.074 181.444C154.138 181.99 154.104 182.513 153.971 183.012C153.849 183.509 153.641 183.967 153.348 184.384C153.053 184.791 152.695 185.13 152.274 185.402C151.862 185.662 151.392 185.823 150.866 185.885ZM150.522 185.019C150.94 184.97 151.317 184.84 151.655 184.629C151.992 184.418 152.273 184.148 152.496 183.82C152.719 183.491 152.878 183.135 152.974 182.752C153.069 182.358 153.092 181.962 153.046 181.565C152.981 181.019 152.802 180.521 152.507 180.073C152.222 179.613 151.853 179.264 151.402 179.025C150.96 178.775 150.461 178.683 149.904 178.748C149.507 178.795 149.145 178.928 148.819 179.148C148.502 179.367 148.227 179.641 147.994 179.97C147.77 180.289 147.594 180.632 147.466 180.999L147.75 183.412C147.822 183.676 147.956 183.917 148.153 184.135C148.349 184.344 148.58 184.518 148.849 184.657C149.127 184.796 149.411 184.898 149.7 184.965C149.99 185.031 150.264 185.049 150.522 185.019ZM155.355 182.939C155.298 182.453 155.388 182.019 155.625 181.639C155.861 181.248 156.211 180.93 156.675 180.684C157.148 180.427 157.708 180.26 158.353 180.184C158.731 180.14 159.127 180.124 159.541 180.135C159.955 180.147 160.328 180.193 160.66 180.275L160.583 179.62C160.505 178.964 160.25 178.466 159.817 178.124C159.384 177.782 158.825 177.652 158.14 177.733C157.723 177.782 157.32 177.91 156.932 178.117C156.552 178.312 156.161 178.585 155.759 178.934L155.288 178.265C155.753 177.858 156.219 177.541 156.686 177.315C157.152 177.079 157.638 176.931 158.144 176.871C159.098 176.759 159.885 176.943 160.505 177.424C161.126 177.904 161.493 178.626 161.606 179.59L162.029 183.18C162.045 183.319 162.088 183.42 162.155 183.482C162.222 183.535 162.32 183.558 162.451 183.553L162.545 184.358C162.437 184.38 162.344 184.401 162.266 184.421C162.188 184.44 162.128 184.447 162.087 184.442C161.838 184.461 161.64 184.404 161.493 184.27C161.346 184.136 161.258 183.986 161.228 183.818L161.147 183.254C160.852 183.741 160.441 184.142 159.914 184.456C159.386 184.76 158.834 184.946 158.258 185.014C157.761 185.072 157.297 185.021 156.865 184.861C156.442 184.689 156.096 184.438 155.825 184.107C155.563 183.766 155.407 183.376 155.355 182.939ZM160.624 182.922C160.717 182.771 160.786 182.627 160.83 182.49C160.875 182.354 160.891 182.237 160.879 182.137L160.746 181.005C160.393 180.916 160.029 180.858 159.653 180.832C159.287 180.804 158.921 180.812 158.553 180.856C157.828 180.941 157.259 181.154 156.846 181.495C156.433 181.835 156.256 182.254 156.315 182.751C156.349 183.039 156.455 183.303 156.635 183.544C156.813 183.774 157.056 183.957 157.364 184.092C157.671 184.217 158.018 184.257 158.405 184.211C158.892 184.154 159.332 184.006 159.727 183.768C160.132 183.529 160.431 183.247 160.624 182.922ZM167.984 183.339C167.908 183.378 167.79 183.448 167.631 183.547C167.471 183.646 167.276 183.74 167.045 183.827C166.813 183.915 166.559 183.975 166.28 184.008C165.992 184.042 165.713 184.02 165.442 183.941C165.181 183.861 164.963 183.72 164.788 183.519C164.612 183.308 164.505 183.039 164.466 182.711L163.812 177.155L162.739 177.281L162.644 176.477L163.717 176.35L163.408 173.729L164.421 173.609L164.73 176.231L166.517 176.02L166.612 176.825L164.825 177.036L165.446 182.309C165.499 182.585 165.622 182.782 165.818 182.9C166.023 183.016 166.244 183.061 166.483 183.033C166.761 183 167.009 182.925 167.227 182.809C167.443 182.683 167.574 182.597 167.619 182.551L167.984 183.339ZM172.532 183.332C171.976 183.397 171.447 183.354 170.946 183.202C170.443 183.039 169.997 182.795 169.606 182.468C169.214 182.132 168.89 181.732 168.634 181.269C168.388 180.804 168.232 180.294 168.166 179.738C168.081 179.013 168.166 178.328 168.423 177.684C168.689 177.038 169.094 176.502 169.638 176.076C170.181 175.639 170.824 175.377 171.569 175.289C172.334 175.199 173.021 175.305 173.63 175.605C174.25 175.905 174.759 176.338 175.158 176.905C175.556 177.463 175.797 178.099 175.881 178.814C175.891 178.893 175.9 178.973 175.909 179.052C175.917 179.122 175.919 179.177 175.914 179.218L169.27 180.001C169.385 180.551 169.597 181.029 169.907 181.436C170.225 181.831 170.608 182.134 171.056 182.343C171.512 182.541 171.989 182.611 172.485 182.552C172.992 182.492 173.453 182.307 173.87 181.996C174.296 181.684 174.574 181.309 174.704 180.871L175.611 181.006C175.495 181.392 175.291 181.753 174.998 182.09C174.706 182.426 174.346 182.705 173.919 182.927C173.501 183.137 173.038 183.272 172.532 183.332ZM169.154 179.274L174.889 178.599C174.783 178.037 174.57 177.559 174.252 177.163C173.943 176.767 173.561 176.474 173.106 176.286C172.66 176.087 172.184 176.017 171.677 176.077C171.171 176.137 170.723 176.315 170.336 176.613C169.946 176.9 169.644 177.278 169.427 177.747C169.219 178.204 169.128 178.713 169.154 179.274Z" fill="white"/>
<line x1="117.096" y1="139.367" x2="123.622" y2="194.755" stroke="#FFC100" stroke-width="3"/>
<defs>
<filter id="filter0_dd_217_396" x="82.7541" y="76.6409" width="137.212" height="643.113" filterUnits="userSpaceOnUse" color-interpolation-filters="sRGB">
<feFlood flood-opacity="0" result="BackgroundImageFix"/>
<feColorMatrix in="SourceAlpha" type="matrix" values="0 0 0 0 0 0 0 0 0 0 0 0 0 0 0 0 0 0 127 0" result="hardAlpha"/>
<feMorphology radius="3.50755" operator="dilate" in="SourceAlpha" result="effect1_dropShadow_217_396"/>
<feOffset dx="4.20906" dy="4.20906"/>
<feGaussianBlur stdDeviation="5.26132"/>
<feColorMatrix type="matrix" values="0 0 0 0 0 0 0 0 0 0 0 0 0 0 0 0 0 0 0.1 0"/>
<feBlend mode="normal" in2="BackgroundImageFix" result="effect1_dropShadow_217_396"/>
<feColorMatrix in="SourceAlpha" type="matrix" values="0 0 0 0 0 0 0 0 0 0 0 0 0 0 0 0 0 0 127 0" result="hardAlpha"/>
<feOffset dx="4.20906" dy="4.20906"/>
<feGaussianBlur stdDeviation="3.50755"/>
<feColorMatrix type="matrix" values="0 0 0 0 0 0 0 0 0 0 0 0 0 0 0 0 0 0 0.2 0"/>
<feBlend mode="normal" in2="effect1_dropShadow_217_396" result="effect2_dropShadow_217_396"/>
<feBlend mode="normal" in="SourceGraphic" in2="effect2_dropShadow_217_396" result="shape"/>
</filter>
<filter id="filter1_d_217_396" x="96.1717" y="73.4786" width="179.343" height="215.822" filterUnits="userSpaceOnUse" color-interpolation-filters="sRGB">
<feFlood flood-opacity="0" result="BackgroundImageFix"/>
<feColorMatrix in="SourceAlpha" type="matrix" values="0 0 0 0 0 0 0 0 0 0 0 0 0 0 0 0 0 0 127 0" result="hardAlpha"/>
<feOffset dx="0.70151" dy="1.40302"/>
<feGaussianBlur stdDeviation="1.75378"/>
<feColorMatrix type="matrix" values="0 0 0 0 0.883333 0 0 0 0 0.806042 0 0 0 0 0.806042 0 0 0 0.25 0"/>
<feBlend mode="normal" in2="BackgroundImageFix" result="effect1_dropShadow_217_396"/>
<feBlend mode="normal" in="SourceGraphic" in2="effect1_dropShadow_217_396" result="shape"/>
</filter>
<linearGradient id="paint0_linear_217_396" x1="10.2775" y1="189.629" x2="-17.7016" y2="186.948" gradientUnits="userSpaceOnUse">
<stop stop-opacity="0.2"/>
<stop offset="0.338542" stop-opacity="0"/>
<stop offset="0.630208" stop-color="white" stop-opacity="0"/>
<stop offset="1" stop-color="white" stop-opacity="0.3"/>
</linearGradient>
<linearGradient id="paint1_linear_217_396" x1="149.335" y1="194.141" x2="5.35349" y2="-1.66847" gradientUnits="userSpaceOnUse">
<stop stop-opacity="0.2"/>
<stop offset="0.338542" stop-opacity="0"/>
<stop offset="0.630208" stop-color="white" stop-opacity="0"/>
<stop offset="1" stop-color="white" stop-opacity="0.3"/>
</linearGradient>
<linearGradient id="paint2_linear_217_396" x1="149.335" y1="194.209" x2="5.28777" y2="-1.62072" gradientUnits="userSpaceOnUse">
<stop stop-opacity="0.2"/>
<stop offset="0.338542" stop-opacity="0"/>
<stop offset="0.630208" stop-color="white" stop-opacity="0"/>
<stop offset="1" stop-color="white" stop-opacity="0.3"/>
</linearGradient>
<clipPath id="clip0_217_396">
<rect width="10.2775" height="189.629" fill="white" transform="matrix(0.626174 0.187078 0.115793 1.03492 92.5752 86.4621)"/>
</clipPath>
<clipPath id="clip1_217_396">
<rect width="66.6434" height="582.253" fill="white" transform="matrix(0.626174 0.187078 0.115793 1.03492 92.5752 86.4621)"/>
</clipPath>
<clipPath id="clip2_217_396">
<path d="M92.6025 86.4689C96.1568 87.5308 99.5709 93.1537 100.228 99.028L119.806 274.006C120.463 279.881 118.115 283.782 114.56 282.72L92.6025 86.4689Z" fill="white"/>
</clipPath>
<clipPath id="clip3_217_396">
<path d="M98.9778 88.5939L227.824 77.4167C239.497 76.4041 250.02 84.8644 251.327 96.3134L268.42 246.088C269.726 257.537 261.322 267.639 249.649 268.651L120.803 279.829L98.9778 88.5939Z" fill="white"/>
</clipPath>
<clipPath id="clip4_217_396">
<path d="M98.9778 88.5939L227.824 77.4167C239.497 76.4041 250.02 84.8644 251.327 96.3134L268.427 246.155C269.734 257.604 261.33 267.706 249.657 268.719L120.81 279.896L98.9778 88.5939Z" fill="white"/>
</clipPath>
</defs>
</svg>
