<svg width="74" height="75" viewBox="0 0 74 75" fill="none" xmlns="http://www.w3.org/2000/svg">
<circle cx="37" cy="37.9883" r="37" fill="#FFC100"/>
<g clip-path="url(#clip0_390_887)">
<path d="M43.4375 27.9248C43.4375 28.9582 43.2135 29.941 42.8016 30.8299L46.6172 37.4205C44.9045 39.2488 42.7004 40.6074 40.2217 41.2939L36.5 34.8623L31.5859 43.3535C33.1396 43.8449 34.7873 44.1123 36.5072 44.1123C41.6164 44.1123 46.1764 41.7492 49.1465 38.042C49.9486 37.0447 51.4012 36.8857 52.3984 37.6807C53.3957 38.4756 53.5547 39.9354 52.7598 40.9326C48.9369 45.6877 43.0762 48.7373 36.5 48.7373C33.9418 48.7373 31.4848 48.2748 29.2229 47.4293L25.1326 54.4969C24.793 55.0822 24.2871 55.5592 23.6801 55.8627L19.6766 57.8645C19.3152 58.0451 18.8889 58.0234 18.5492 57.8139C18.2096 57.6043 18 57.2285 18 56.8311V52.8275C18 52.2205 18.159 51.6207 18.4697 51.0859L22.8057 43.592C21.8807 42.7826 21.0207 41.8938 20.2547 40.9326C19.4525 39.9354 19.6188 38.4828 20.616 37.6807C21.6133 36.8785 23.0658 37.0447 23.868 38.042C24.2799 38.5551 24.7207 39.0393 25.1832 39.4945L30.1984 30.8299C29.7937 29.9482 29.5625 28.9654 29.5625 27.9248C29.5625 24.0947 32.6699 20.9873 36.5 20.9873C40.3301 20.9873 43.4375 24.0947 43.4375 27.9248ZM44.9551 49.4527C47.3109 48.5277 49.4717 47.227 51.3795 45.6299L54.5375 51.0859C54.841 51.6135 55.0072 52.2133 55.0072 52.8275V56.8311C55.0072 57.2285 54.7977 57.6043 54.458 57.8139C54.1184 58.0234 53.692 58.0451 53.3307 57.8645L49.3271 55.8627C48.7201 55.5592 48.2143 55.0822 47.8746 54.4969L44.9551 49.4527ZM36.5 30.2373C37.7791 30.2373 38.8125 29.2039 38.8125 27.9248C38.8125 26.6457 37.7791 25.6123 36.5 25.6123C35.2209 25.6123 34.1875 26.6457 34.1875 27.9248C34.1875 29.2039 35.2209 30.2373 36.5 30.2373Z" fill="white"/>
</g>
<defs>
<clipPath id="clip0_390_887">
<rect width="37" height="37" fill="white" transform="translate(18 20.9883)"/>
</clipPath>
</defs>
</svg>
