<svg width="141" height="141" viewBox="0 0 141 141" fill="none" xmlns="http://www.w3.org/2000/svg">
<circle cx="70.1372" cy="70.1426" r="70" fill="#FFC100"/>
<path d="M34.1177 38.795C34.1177 34.7152 37.1618 31.4053 40.9138 31.4053H81.6905C85.4425 31.4053 88.4866 34.7152 88.4866 38.795V63.2733L82.4834 65.8905H77.1597H72.629C71.383 65.8905 70.3636 66.999 70.3636 68.3537V73.2802V77.0058V78.2067C70.3636 78.3452 70.3778 78.4684 70.3919 78.6069C70.7176 87.5515 73.8042 100.899 84.3665 109.628C83.5453 110.013 82.6391 110.229 81.6905 110.229H68.0983V97.9125C68.0983 93.8328 65.0542 90.5228 61.3021 90.5228C57.5501 90.5228 54.506 93.8328 54.506 97.9125V110.229H40.9138C37.1618 110.229 34.1177 106.919 34.1177 102.839V38.795ZM45.4445 65.8905C44.1986 65.8905 43.1792 66.999 43.1792 68.3537V73.2802C43.1792 74.635 44.1986 75.7434 45.4445 75.7434H49.9753C51.2212 75.7434 52.2407 74.635 52.2407 73.2802V68.3537C52.2407 66.999 51.2212 65.8905 49.9753 65.8905H45.4445ZM56.7714 68.3537V73.2802C56.7714 74.635 57.7908 75.7434 59.0368 75.7434H63.5675C64.8135 75.7434 65.8329 74.635 65.8329 73.2802V68.3537C65.8329 66.999 64.8135 65.8905 63.5675 65.8905H59.0368C57.7908 65.8905 56.7714 66.999 56.7714 68.3537ZM43.1792 48.6479V53.5744C43.1792 54.9291 44.1986 56.0376 45.4445 56.0376H49.9753C51.2212 56.0376 52.2407 54.9291 52.2407 53.5744V48.6479C52.2407 47.2931 51.2212 46.1847 49.9753 46.1847H45.4445C44.1986 46.1847 43.1792 47.2931 43.1792 48.6479ZM59.0368 46.1847C57.7908 46.1847 56.7714 47.2931 56.7714 48.6479V53.5744C56.7714 54.9291 57.7908 56.0376 59.0368 56.0376H63.5675C64.8135 56.0376 65.8329 54.9291 65.8329 53.5744V48.6479C65.8329 47.2931 64.8135 46.1847 63.5675 46.1847H59.0368ZM70.3636 48.6479V53.5744C70.3636 54.9291 71.383 56.0376 72.629 56.0376H77.1597C78.4057 56.0376 79.4251 54.9291 79.4251 53.5744V48.6479C79.4251 47.2931 78.4057 46.1847 77.1597 46.1847H72.629C71.383 46.1847 70.3636 47.2931 70.3636 48.6479ZM94.0226 66.1522C94.8296 65.7981 95.7358 65.7981 96.5428 66.1522L113.533 73.5419C114.822 74.1115 115.671 75.4663 115.671 76.9751C115.671 86.7202 112.004 102.962 96.5853 109.952C95.75 110.336 94.8013 110.336 93.966 109.952C78.5614 102.962 74.8944 86.7202 74.8944 76.9751C74.8944 75.4663 75.7439 74.1115 77.0323 73.5419L94.0226 66.1522ZM108.79 79.4383L95.2827 73.5573V102.485C104.939 97.4045 108.238 87.2436 108.79 79.4383Z" fill="white"/>
</svg>
