<svg width="196" height="196" viewBox="0 0 196 196" fill="none" xmlns="http://www.w3.org/2000/svg">
<circle cx="97.5589" cy="97.5584" r="70" transform="rotate(35 97.5589 97.5584)" fill="#FFC100"/>
<g clip-path="url(#clip0_256_1045)">
<path d="M151.236 88.0582C151.645 89.5083 151.371 91.0815 150.496 92.331L137.373 111.073C134.958 114.522 129.292 114.725 124.733 111.533C120.174 108.341 118.427 102.947 120.842 99.4984C123.257 96.0493 128.923 95.8463 133.482 99.0384L138.677 91.6196L124.529 85.4374L113.793 100.77C111.378 104.219 105.712 104.422 101.153 101.23C96.5944 98.0375 94.8473 92.6438 97.2624 89.1947C99.6775 85.7456 105.343 85.5426 109.902 88.7348L118.651 76.2399C120.046 74.2486 122.634 73.5202 124.832 74.4771L148.411 84.7807C149.799 85.3835 150.823 86.586 151.245 88.0452L151.236 88.0582ZM69.232 88.1886L72.3781 86.9389C73.9511 86.314 75.7256 86.5285 77.1075 87.4961L85.0758 93.0755C86.4576 94.0431 87.2661 95.6372 87.2169 97.3291L87.1315 100.722L90.5797 103.136C94.0021 105.533 94.8193 110.275 92.4042 113.724L82.1971 128.302C79.782 131.751 75.046 132.605 71.6236 130.209L46.8277 112.846C43.4053 110.45 42.5881 105.707 45.0032 102.258L55.2103 87.681C57.6254 84.2319 62.3614 83.3778 65.7838 85.7741L69.232 88.1886ZM74.9027 112.332C77.3178 108.883 76.5005 104.14 73.0782 101.744C69.6558 99.3476 64.9198 100.202 62.5047 103.651C60.0896 107.1 60.9068 111.842 64.3292 114.239C67.7516 116.635 72.4876 115.781 74.9027 112.332ZM123.749 121.377L110.615 129.579L117.808 134.616C118.674 135.222 119.062 136.289 118.798 137.326C118.534 138.363 117.663 139.111 116.616 139.232L89.8786 142.234C88.7088 142.366 87.6005 141.667 87.2266 140.552C86.8527 139.437 87.2977 138.197 88.2919 137.574L101.422 129.349L94.2287 124.312C93.3635 123.707 92.9751 122.639 93.2393 121.602C93.5036 120.565 94.374 119.817 95.4207 119.697L122.158 116.694C123.328 116.563 124.437 117.261 124.81 118.377C125.184 119.492 124.739 120.732 123.745 121.355L123.749 121.377ZM85.3638 83.0163C83.932 83.2745 82.5759 82.325 82.3935 80.9365L78.9966 59.1805C78.0234 52.874 82.5825 46.7753 89.1112 46.1096C94.7398 45.4926 99.6764 49.822 100.581 55.4017L100.916 57.6726L103.099 57.165C108.652 56.1068 114.344 59.2196 115.819 64.8103C117.361 71.1277 113.19 77.4978 106.931 78.7403L85.3767 83.0254L85.3638 83.0163Z" fill="white"/>
</g>
<defs>
<clipPath id="clip0_256_1045">
<rect width="90.8108" height="81.3513" fill="white" transform="translate(83.1528 38.9707) rotate(35)"/>
</clipPath>
</defs>
</svg>
