<svg width="74" height="75" viewBox="0 0 74 75" fill="none" xmlns="http://www.w3.org/2000/svg">
<circle cx="37" cy="37.9883" r="37" fill="#FFC100"/>
<path fill-rule="evenodd" clip-rule="evenodd" d="M17 25.3062C17 22.5447 19.2386 20.3062 22 20.3062H50.9444C53.7058 20.3062 55.9444 22.5447 55.9444 25.3062V50.7029C55.9444 53.4643 53.7058 55.7029 50.9444 55.7029H22C19.2386 55.7029 17 53.4643 17 50.7029V25.3062ZM22 22.3062C20.3431 22.3062 19 23.6493 19 25.3062V50.7029C19 52.3598 20.3431 53.7029 22 53.7029H50.9444C52.6013 53.7029 53.9444 52.3598 53.9444 50.7029V25.3062C53.9444 23.6493 52.6013 22.3062 50.9444 22.3062H22ZM23.8135 32.01C24.0499 31.5108 24.6462 31.2978 25.1453 31.5341L36.9004 37.1002C37.2497 37.2656 37.4724 37.6175 37.4724 38.004C37.4724 38.3905 37.2497 38.7424 36.9004 38.9078L25.1453 44.474C24.6462 44.7103 24.0499 44.4973 23.8135 43.9981C23.5772 43.499 23.7902 42.9027 24.2894 42.6664L34.1357 38.004L24.2894 33.3417C23.7902 33.1054 23.5772 32.5091 23.8135 32.01ZM37.4718 46.3419C36.9195 46.3419 36.4718 46.7896 36.4718 47.3419C36.4718 47.8942 36.9195 48.3419 37.4718 48.3419H47.2268C47.7791 48.3419 48.2268 47.8942 48.2268 47.3419C48.2268 46.7896 47.7791 46.3419 47.2268 46.3419H37.4718Z" fill="white"/>
<path d="M25.1453 31.5341L25.4663 30.8563V30.8563L25.1453 31.5341ZM23.8135 32.01L23.1357 31.689V31.689L23.8135 32.01ZM36.9004 37.1002L37.2213 36.4224L36.9004 37.1002ZM36.9004 38.9078L37.2213 39.5857L36.9004 38.9078ZM25.1453 44.474L25.4663 45.1518L25.4663 45.1518L25.1453 44.474ZM23.8135 43.9981L23.1357 44.3191H23.1357L23.8135 43.9981ZM24.2894 42.6664L23.9684 41.9885H23.9684L24.2894 42.6664ZM34.1357 38.004L34.4567 38.6819C34.7187 38.5578 34.8857 38.2939 34.8857 38.004C34.8857 37.7142 34.7187 37.4502 34.4567 37.3262L34.1357 38.004ZM24.2894 33.3417L23.9684 34.0196H23.9684L24.2894 33.3417ZM22 19.5562C18.8244 19.5562 16.25 22.1305 16.25 25.3062H17.75C17.75 22.9589 19.6528 21.0562 22 21.0562V19.5562ZM50.9444 19.5562H22V21.0562H50.9444V19.5562ZM56.6944 25.3062C56.6944 22.1305 54.1201 19.5562 50.9444 19.5562V21.0562C53.2916 21.0562 55.1944 22.9589 55.1944 25.3062H56.6944ZM56.6944 50.7029V25.3062H55.1944V50.7029H56.6944ZM50.9444 56.4529C54.1201 56.4529 56.6944 53.8785 56.6944 50.7029H55.1944C55.1944 53.0501 53.2916 54.9529 50.9444 54.9529V56.4529ZM22 56.4529H50.9444V54.9529H22V56.4529ZM16.25 50.7029C16.25 53.8785 18.8244 56.4529 22 56.4529V54.9529C19.6528 54.9529 17.75 53.0501 17.75 50.7029H16.25ZM16.25 25.3062V50.7029H17.75V25.3062H16.25ZM19.75 25.3062C19.75 24.0635 20.7574 23.0562 22 23.0562V21.5562C19.9289 21.5562 18.25 23.2351 18.25 25.3062H19.75ZM19.75 50.7029V25.3062H18.25V50.7029H19.75ZM22 52.9529C20.7574 52.9529 19.75 51.9455 19.75 50.7029H18.25C18.25 52.774 19.9289 54.4529 22 54.4529V52.9529ZM50.9444 52.9529H22V54.4529H50.9444V52.9529ZM53.1944 50.7029C53.1944 51.9455 52.1871 52.9529 50.9444 52.9529V54.4529C53.0155 54.4529 54.6944 52.774 54.6944 50.7029H53.1944ZM53.1944 25.3062V50.7029H54.6944V25.3062H53.1944ZM50.9444 23.0562C52.1871 23.0562 53.1944 24.0635 53.1944 25.3062H54.6944C54.6944 23.2351 53.0155 21.5562 50.9444 21.5562V23.0562ZM22 23.0562H50.9444V21.5562H22V23.0562ZM25.4663 30.8563C24.5928 30.4427 23.5493 30.8155 23.1357 31.689L24.4914 32.3309C24.5505 32.2061 24.6995 32.1529 24.8243 32.212L25.4663 30.8563ZM37.2213 36.4224L25.4663 30.8563L24.8243 32.212L36.5794 37.7781L37.2213 36.4224ZM38.2224 38.004C38.2224 37.3277 37.8326 36.7119 37.2213 36.4224L36.5794 37.7781C36.6667 37.8194 36.7224 37.9074 36.7224 38.004H38.2224ZM37.2213 39.5857C37.8326 39.2962 38.2224 38.6804 38.2224 38.004H36.7224C36.7224 38.1007 36.6667 38.1886 36.5794 38.23L37.2213 39.5857ZM25.4663 45.1518L37.2213 39.5857L36.5794 38.23L24.8243 43.7961L25.4663 45.1518ZM23.1357 44.3191C23.5493 45.1926 24.5928 45.5654 25.4663 45.1518L24.8243 43.7961C24.6995 43.8552 24.5505 43.8019 24.4914 43.6772L23.1357 44.3191ZM23.9684 41.9885C23.0949 42.4021 22.7221 43.4456 23.1357 44.3191L24.4914 43.6772C24.4323 43.5524 24.4856 43.4033 24.6104 43.3442L23.9684 41.9885ZM33.8147 37.3262L23.9684 41.9885L24.6104 43.3442L34.4567 38.6819L33.8147 37.3262ZM23.9684 34.0196L33.8147 38.6819L34.4567 37.3262L24.6104 32.6639L23.9684 34.0196ZM23.1357 31.689C22.7221 32.5625 23.0949 33.6059 23.9684 34.0196L24.6104 32.6639C24.4856 32.6048 24.4323 32.4557 24.4914 32.3309L23.1357 31.689ZM37.2218 47.3419C37.2218 47.2038 37.3337 47.0919 37.4718 47.0919V45.5919C36.5053 45.5919 35.7218 46.3754 35.7218 47.3419H37.2218ZM37.4718 47.5919C37.3337 47.5919 37.2218 47.48 37.2218 47.3419H35.7218C35.7218 48.3084 36.5053 49.0919 37.4718 49.0919V47.5919ZM47.2268 47.5919H37.4718V49.0919H47.2268V47.5919ZM47.4768 47.3419C47.4768 47.48 47.3649 47.5919 47.2268 47.5919V49.0919C48.1933 49.0919 48.9768 48.3084 48.9768 47.3419H47.4768ZM47.2268 47.0919C47.3649 47.0919 47.4768 47.2038 47.4768 47.3419H48.9768C48.9768 46.3754 48.1933 45.5919 47.2268 45.5919V47.0919ZM37.4718 47.0919H47.2268V45.5919H37.4718V47.0919Z" fill="white"/>
</svg>
