<svg width="122" height="122" viewBox="0 0 122 122" fill="none" xmlns="http://www.w3.org/2000/svg">
<circle cx="61" cy="61" r="61" fill="#D9D9D9" fill-opacity="0.34"/>
<path d="M46.1025 33.8975C45.5725 33.3675 44.7132 33.3675 44.1832 33.8975L40 38.0807L35.8168 33.8975C35.2868 33.3675 34.4275 33.3675 33.8975 33.8975C33.3675 34.4275 33.3675 35.2868 33.8975 35.8168L38.0807 40L33.8975 44.1832C33.3675 44.7132 33.3675 45.5725 33.8975 46.1025C34.4275 46.6325 35.2868 46.6325 35.8168 46.1025L40 41.9193L44.1832 46.1025C44.7132 46.6325 45.5725 46.6325 46.1025 46.1025C46.6325 45.5725 46.6325 44.7132 46.1025 44.1832L41.9193 40L46.1025 35.8168C46.6325 35.2868 46.6325 34.4275 46.1025 33.8975Z" fill="#FFC100"/>
<path d="M83.1025 77.8975C82.5725 77.3675 81.7132 77.3675 81.1832 77.8975L77 82.0807L72.8168 77.8975C72.2868 77.3675 71.4275 77.3675 70.8975 77.8975C70.3675 78.4275 70.3675 79.2868 70.8975 79.8168L75.0807 84L70.8975 88.1832C70.3675 88.7132 70.3675 89.5725 70.8975 90.1025C71.4275 90.6325 72.2868 90.6325 72.8168 90.1025L77 85.9193L81.1832 90.1025C81.7132 90.6325 82.5725 90.6325 83.1025 90.1025C83.6325 89.5725 83.6325 88.7132 83.1025 88.1832L78.9193 84L83.1025 79.8168C83.6325 79.2868 83.6325 78.4275 83.1025 77.8975Z" fill="#FFC100"/>
<circle cx="87" cy="40" r="12" stroke="#FFC100" stroke-width="2"/>
<g filter="url(#filter0_d_382_883)">
<path d="M80.4919 48.1559C80.578 47.3319 79.9798 46.5942 79.1559 46.5081L65.7289 45.1053C64.905 45.0192 64.1673 45.6174 64.0812 46.4413C63.9951 47.2653 64.5933 48.003 65.4172 48.0891L77.3523 49.336L76.1053 61.2711C76.0192 62.095 76.6174 62.8327 77.4413 62.9188C78.2653 63.0049 79.003 62.4067 79.0891 61.5828L80.4919 48.1559ZM42.9447 79.1651L79.9447 49.1651L78.0553 46.8349L41.0553 76.8349L42.9447 79.1651Z" fill="black"/>
</g>
<circle cx="32" cy="87" r="12" stroke="#FFC100" stroke-width="2"/>
<defs>
<filter id="filter0_d_382_883" x="37.0552" y="45.0972" width="47.4448" height="42.0679" filterUnits="userSpaceOnUse" color-interpolation-filters="sRGB">
<feFlood flood-opacity="0" result="BackgroundImageFix"/>
<feColorMatrix in="SourceAlpha" type="matrix" values="0 0 0 0 0 0 0 0 0 0 0 0 0 0 0 0 0 0 127 0" result="hardAlpha"/>
<feOffset dy="4"/>
<feGaussianBlur stdDeviation="2"/>
<feComposite in2="hardAlpha" operator="out"/>
<feColorMatrix type="matrix" values="0 0 0 0 0 0 0 0 0 0 0 0 0 0 0 0 0 0 0.25 0"/>
<feBlend mode="normal" in2="BackgroundImageFix" result="effect1_dropShadow_382_883"/>
<feBlend mode="normal" in="SourceGraphic" in2="effect1_dropShadow_382_883" result="shape"/>
</filter>
</defs>
</svg>
