<svg width="74" height="75" viewBox="0 0 74 75" fill="none" xmlns="http://www.w3.org/2000/svg">
<circle cx="37" cy="37.9883" r="37" fill="#FFC100"/>
<g clip-path="url(#clip0_390_885)">
<path d="M17 24.9873V47.4873H57V24.9873H17ZM12 24.9873C12 22.2295 14.2422 19.9873 17 19.9873H57C59.7578 19.9873 62 22.2295 62 24.9873V47.4873C62 50.2451 59.7578 52.4873 57 52.4873H17C14.2422 52.4873 12 50.2451 12 47.4873V24.9873ZM22 54.9873H52C53.3828 54.9873 54.5 56.1045 54.5 57.4873C54.5 58.8701 53.3828 59.9873 52 59.9873H22C20.6172 59.9873 19.5 58.8701 19.5 57.4873C19.5 56.1045 20.6172 54.9873 22 54.9873Z" fill="white"/>
</g>
<defs>
<clipPath id="clip0_390_885">
<rect width="50" height="40" fill="white" transform="translate(12 19.9883)"/>
</clipPath>
</defs>
</svg>
