<svg width="196" height="196" viewBox="0 0 196 196" fill="none" xmlns="http://www.w3.org/2000/svg">
<circle cx="98.2522" cy="98.0204" r="70" transform="rotate(-35 98.2522 98.0204)" fill="#FFC100"/>
<path d="M53.9915 95.9449C50.7357 91.2952 51.3089 85.26 55.2697 82.4866L98.3555 52.3176C102.316 49.5442 108.184 51.0698 111.439 55.7195L135.051 89.4399L127.87 94.4681L104.258 60.7477L61.1725 90.9167L84.7838 124.637L77.6028 129.665L53.9915 95.9449ZM75.1441 141.438C74.1665 140.041 74.3382 138.233 75.5276 137.4L143.029 90.1353C144.218 89.3025 145.976 89.7596 146.954 91.1558C150.865 96.7408 150.178 103.975 145.42 107.306L90.8447 145.52C86.0873 148.851 79.0547 147.023 75.1441 141.438ZM88.7617 93.7807L88.1426 100.3L94.4801 101.947C96.4017 102.447 97.8037 104.449 97.6067 106.413C97.4098 108.376 95.7135 109.584 93.803 109.076L83.9902 106.525C82.0685 106.025 80.6666 104.023 80.8635 102.059L81.8221 91.9655C82.0099 89.9888 83.7154 88.7946 85.6258 89.3022C87.5363 89.8097 88.9494 91.804 88.7525 93.7675L88.7617 93.7807ZM98.1925 80.5029L108.005 83.0543C109.927 83.554 111.329 85.5561 111.132 87.5196L110.173 97.6133C109.986 99.59 108.28 100.784 106.37 100.277C104.459 99.7692 103.046 97.7749 103.243 95.8114L103.862 89.2925L97.5247 87.6447C95.6031 87.1451 94.2011 85.1429 94.3981 83.1794C94.595 81.2159 96.2913 80.0085 98.2018 80.516L98.1925 80.5029Z" fill="white"/>
</svg>
