<svg version="1.1" id="Layer_1" xmlns="http://www.w3.org/2000/svg" xmlns:xlink="http://www.w3.org/1999/xlink" x="0px" y="0px"
	 width="100%" viewBox="0 0 481 580" enable-background="new 0 0 481 580" xml:space="preserve">
<path fill="#252323" opacity="1.000000" stroke="none" 
	d="
M254.000000,581.000000 
	C169.353165,581.000000 85.206322,581.000000 1.029739,581.000000 
	C1.029739,387.732025 1.029739,194.464066 1.029739,1.098051 
	C161.230148,1.098051 321.460358,1.098051 481.845276,1.098051 
	C481.845276,194.333237 481.845276,387.666595 481.845276,581.000000 
	C406.130768,581.000000 330.315369,581.000000 254.000000,581.000000 
M186.111572,10.593965 
	C111.266510,30.041176 58.703331,76.300598 26.186125,145.520905 
	C5.107540,190.391479 -0.366327,237.981842 6.966688,286.945190 
	C15.513778,344.015045 41.138248,392.396667 83.354332,431.500549 
	C126.179649,471.168762 177.249252,491.808044 235.710510,493.595306 
	C240.553192,493.743378 241.893158,495.373657 241.839462,500.062439 
	C241.578110,522.889587 241.619492,545.720398 241.587677,568.549866 
	C241.584824,570.604187 241.824509,572.658936 241.984085,575.239502 
	C245.051971,573.802124 247.461884,572.735046 249.817856,571.559937 
	C284.824554,554.098572 317.414154,532.923889 347.418365,507.811951 
	C393.150543,469.536469 430.082031,424.434753 453.692108,369.245575 
	C476.340515,316.304352 485.400208,261.232178 474.844238,204.263977 
	C460.305145,125.799515 417.566376,67.040749 346.963409,29.392771 
	C314.565948,12.117330 279.583527,4.199209 242.794693,3.911109 
	C223.846146,3.762720 205.308014,6.255455 186.111572,10.593965 
z"/>
<path fill="#FFB82F" opacity="1.000000" stroke="none" 
	d="
M186.503586,10.452536 
	C205.308014,6.255455 223.846146,3.762720 242.794693,3.911109 
	C279.583527,4.199209 314.565948,12.117330 346.963409,29.392771 
	C417.566376,67.040749 460.305145,125.799515 474.844238,204.263977 
	C485.400208,261.232178 476.340515,316.304352 453.692108,369.245575 
	C430.082031,424.434753 393.150543,469.536469 347.418365,507.811951 
	C317.414154,532.923889 284.824554,554.098572 249.817856,571.559937 
	C247.461884,572.735046 245.051971,573.802124 241.984085,575.239502 
	C241.824509,572.658936 241.584824,570.604187 241.587677,568.549866 
	C241.619492,545.720398 241.578110,522.889587 241.839462,500.062439 
	C241.893158,495.373657 240.553192,493.743378 235.710510,493.595306 
	C177.249252,491.808044 126.179649,471.168762 83.354332,431.500549 
	C41.138248,392.396667 15.513778,344.015045 6.966688,286.945190 
	C-0.366327,237.981842 5.107540,190.391479 26.186125,145.520905 
	C58.703331,76.300598 111.266510,30.041176 186.503586,10.452536 
M262.054993,207.499985 
	C262.055023,228.830399 262.045898,250.160797 262.059113,271.491211 
	C262.065247,281.409271 266.414795,285.715118 276.447723,285.746185 
	C293.111084,285.797791 309.774506,285.826569 326.437897,285.863861 
	C328.168518,285.867737 329.899109,285.864380 332.039185,285.864380 
	C331.612030,287.644775 331.384521,288.597076 331.154877,289.548859 
	C330.960144,290.355835 330.816437,291.179749 330.558868,291.966309 
	C326.489136,304.394623 318.097290,312.132385 305.331390,315.018280 
	C301.263763,315.937805 297.323090,316.905701 297.280640,322.184540 
	C297.201599,332.014771 297.053223,341.848877 297.250092,351.675049 
	C297.346375,356.479065 300.027710,358.774750 304.798187,357.946106 
	C310.829987,356.898407 317.110626,355.980316 322.636414,353.540100 
	C351.716156,340.697906 366.884918,317.721893 367.661072,286.305908 
	C368.516541,251.681107 367.837433,217.017776 367.770355,182.371353 
	C367.757507,175.746155 363.005127,170.593079 356.069763,170.543488 
	C328.741882,170.348083 301.411011,170.336563 274.083191,170.530563 
	C266.430664,170.584885 261.985199,175.797867 261.989075,183.504135 
	C261.992920,191.169434 262.031586,198.834686 262.054993,207.499985 
M177.519913,303.938599 
	C172.238922,310.177307 165.356567,313.578522 157.499603,315.279999 
	C153.409988,316.165649 150.396194,318.019989 150.425690,322.861053 
	C150.483521,332.351318 150.392929,341.842499 150.446365,351.332825 
	C150.475143,356.445557 152.479828,358.308777 157.478531,358.066803 
	C158.805267,358.002533 160.140213,357.860962 161.444351,357.612823 
	C196.663986,350.911102 220.916367,321.778748 220.926895,285.984436 
	C220.936752,252.504425 220.808640,219.024338 220.719513,185.544357 
	C220.691452,175.004547 217.083801,170.524124 207.938583,170.478165 
	C181.284180,170.344208 154.628296,170.354706 127.973778,170.477798 
	C119.790047,170.515594 115.046402,175.677017 115.064209,183.782715 
	C115.127884,212.768082 115.189667,241.753433 115.249680,270.738800 
	C115.271957,281.497040 119.530029,285.714752 130.455917,285.746979 
	C146.781128,285.795135 163.106354,285.826294 179.431580,285.863586 
	C181.189850,285.867615 182.948135,285.864105 186.396851,285.864105 
	C183.212769,292.465729 180.584457,297.915100 177.519913,303.938599 
z"/>
<path fill="#262423" opacity="1.000000" stroke="none" 
	d="
M262.054993,206.999969 
	C262.031586,198.834686 261.992920,191.169434 261.989075,183.504135 
	C261.985199,175.797867 266.430664,170.584885 274.083191,170.530563 
	C301.411011,170.336563 328.741882,170.348083 356.069763,170.543488 
	C363.005127,170.593079 367.757507,175.746155 367.770355,182.371353 
	C367.837433,217.017776 368.516541,251.681107 367.661072,286.305908 
	C366.884918,317.721893 351.716156,340.697906 322.636414,353.540100 
	C317.110626,355.980316 310.829987,356.898407 304.798187,357.946106 
	C300.027710,358.774750 297.346375,356.479065 297.250092,351.675049 
	C297.053223,341.848877 297.201599,332.014771 297.280640,322.184540 
	C297.323090,316.905701 301.263763,315.937805 305.331390,315.018280 
	C318.097290,312.132385 326.489136,304.394623 330.558868,291.966309 
	C330.816437,291.179749 330.960144,290.355835 331.154877,289.548859 
	C331.384521,288.597076 331.612030,287.644775 332.039185,285.864380 
	C329.899109,285.864380 328.168518,285.867737 326.437897,285.863861 
	C309.774506,285.826569 293.111084,285.797791 276.447723,285.746185 
	C266.414795,285.715118 262.065247,281.409271 262.059113,271.491211 
	C262.045898,250.160797 262.055023,228.830399 262.054993,206.999969 
z"/>
<path fill="#262423" opacity="1.000000" stroke="none" 
	d="
M177.738022,303.651520 
	C180.584457,297.915100 183.212769,292.465729 186.396851,285.864105 
	C182.948135,285.864105 181.189850,285.867615 179.431580,285.863586 
	C163.106354,285.826294 146.781128,285.795135 130.455917,285.746979 
	C119.530029,285.714752 115.271957,281.497040 115.249680,270.738800 
	C115.189667,241.753433 115.127884,212.768082 115.064209,183.782715 
	C115.046402,175.677017 119.790047,170.515594 127.973778,170.477798 
	C154.628296,170.354706 181.284180,170.344208 207.938583,170.478165 
	C217.083801,170.524124 220.691452,175.004547 220.719513,185.544357 
	C220.808640,219.024338 220.936752,252.504425 220.926895,285.984436 
	C220.916367,321.778748 196.663986,350.911102 161.444351,357.612823 
	C160.140213,357.860962 158.805267,358.002533 157.478531,358.066803 
	C152.479828,358.308777 150.475143,356.445557 150.446365,351.332825 
	C150.392929,341.842499 150.483521,332.351318 150.425690,322.861053 
	C150.396194,318.019989 153.409988,316.165649 157.499603,315.279999 
	C165.356567,313.578522 172.238922,310.177307 177.738022,303.651520 
z"/>
</svg>