<svg width="302" height="302" viewBox="0 0 302 302" fill="none" xmlns="http://www.w3.org/2000/svg">
<circle cx="151" cy="151" r="108.772" transform="rotate(-34 151 151)" fill="#FFC100"/>
<g clip-path="url(#clip0_254_1441)">
<path d="M88.625 118.607C77.0919 126.386 73.5335 141.295 80.6806 151.891L123.833 215.867C130.98 226.463 146.136 228.748 157.669 220.969L220.339 178.697L227.303 174C231.154 171.402 232.338 166.445 229.951 162.906C227.564 159.367 222.524 158.607 218.672 161.205L210.042 148.41C213.893 145.812 215.077 140.854 212.69 137.315L169.538 73.3393C167.151 69.8006 162.111 69.0406 158.259 71.6385L151.296 76.3354L88.625 118.607ZM140.408 195.379L196.115 157.804L204.746 170.599L149.038 208.174C145.187 210.772 140.147 210.012 137.76 206.473C135.373 202.934 136.556 197.976 140.408 195.379ZM115.007 142.7C113.82 140.94 114.416 138.444 116.331 137.152L158.111 108.971C160.026 107.679 162.564 108.062 163.751 109.822C164.937 111.581 164.342 114.077 162.427 115.369L120.646 143.55C118.731 144.842 116.194 144.459 115.007 142.7ZM124.962 149.948L166.742 121.766C168.657 120.475 171.195 120.857 172.381 122.617C173.568 124.376 172.972 126.872 171.057 128.164L129.277 156.345C127.362 157.637 124.824 157.254 123.638 155.495C122.451 153.735 123.047 151.239 124.962 149.948Z" fill="white"/>
</g>
<defs>
<clipPath id="clip0_254_1441">
<rect width="117.591" height="123.471" fill="white" transform="translate(67.7349 132.698) rotate(-34)"/>
</clipPath>
</defs>
</svg>
