<svg width="297" height="297" viewBox="0 0 297 297" fill="none" xmlns="http://www.w3.org/2000/svg">
<circle cx="148.275" cy="148.275" r="108.772" transform="rotate(29.5603 148.275 148.275)" fill="#FFC100"/>
<g clip-path="url(#clip0_254_1458)">
<path d="M213.797 169.312C218.385 161.836 221.01 153.322 221.427 144.56C220.675 140.441 218.502 136.717 215.286 134.036C201.225 124.284 186.653 115.29 171.633 107.095C156.95 98.4288 141.816 90.5507 126.296 83.4937C123.074 82.3686 119.595 82.2056 116.282 83.0246C108.98 84.727 104.157 91.9897 99.998 98.0804C92.7061 109.136 86.165 120.669 80.4189 132.602C78.5323 136.287 77.0424 140.163 75.9741 144.163C75.0904 147.218 74.9782 150.444 75.6474 153.553C76.598 156.933 78.5424 159.949 81.2284 162.21C91.9096 170.142 103.149 177.293 114.859 183.608C133.354 194.45 149.86 203.459 170.044 212.935C173.417 214.156 177.083 214.319 180.552 213.403C182.889 212.757 185.039 211.562 186.823 209.919C192.044 205.153 196.45 199.565 199.866 193.377C201.771 190.514 211.984 172.508 213.797 169.312ZM127.626 156.629L146.328 123.653L168.47 158.108C156.846 157.994 142.037 156.917 127.626 156.629Z" fill="white"/>
</g>
<defs>
<clipPath id="clip0_254_1458">
<rect width="146.989" height="146.989" fill="white" transform="translate(120.606 48.0894) rotate(29.5603)"/>
</clipPath>
</defs>
</svg>
