<svg xmlns="http://www.w3.org/2000/svg" version="1.1" xmlns:xlink="http://www.w3.org/1999/xlink" xmlns:svgjs="http://svgjs.com/svgjs" width="162" height="162"><svg width="162" height="162" viewBox="0 0 162 162" fill="none" xmlns="http://www.w3.org/2000/svg">
<rect width="162" height="162" fill="#2F3234"></rect>
<path d="M19.6818 75V48.8182H23.5682V52.7727H23.8409C24.3182 51.4773 25.1818 50.4261 26.4318 49.6193C27.6818 48.8125 29.0909 48.4091 30.6591 48.4091C30.9545 48.4091 31.3239 48.4148 31.767 48.4261C32.2102 48.4375 32.5455 48.4545 32.7727 48.4773V52.5682C32.6364 52.5341 32.3239 52.483 31.8352 52.4148C31.358 52.3352 30.8523 52.2955 30.3182 52.2955C29.0455 52.2955 27.9091 52.5625 26.9091 53.0966C25.9205 53.6193 25.1364 54.3466 24.5568 55.2784C23.9886 56.1989 23.7045 57.25 23.7045 58.4318V75H19.6818ZM37.5412 75V48.8182H41.5639V75H37.5412ZM39.5866 44.4545C38.8026 44.4545 38.1264 44.1875 37.5582 43.6534C37.0014 43.1193 36.723 42.4773 36.723 41.7273C36.723 40.9773 37.0014 40.3352 37.5582 39.8011C38.1264 39.267 38.8026 39 39.5866 39C40.3707 39 41.0412 39.267 41.598 39.8011C42.1662 40.3352 42.4503 40.9773 42.4503 41.7273C42.4503 42.4773 42.1662 43.1193 41.598 43.6534C41.0412 44.1875 40.3707 44.4545 39.5866 44.4545ZM59.5682 75.5455C57.1136 75.5455 55 74.9659 53.2273 73.8068C51.4545 72.6477 50.0909 71.0511 49.1364 69.017C48.1818 66.983 47.7045 64.6591 47.7045 62.0455C47.7045 59.3864 48.1932 57.0398 49.1705 55.0057C50.1591 52.9602 51.5341 51.3636 53.2955 50.2159C55.0682 49.0568 57.1364 48.4773 59.5 48.4773C61.3409 48.4773 63 48.8182 64.4773 49.5C65.9545 50.1818 67.1648 51.1364 68.108 52.3636C69.0511 53.5909 69.6364 55.0227 69.8636 56.6591H65.8409C65.5341 55.4659 64.8523 54.4091 63.7955 53.4886C62.75 52.5568 61.3409 52.0909 59.5682 52.0909C58 52.0909 56.625 52.5 55.4432 53.3182C54.2727 54.125 53.358 55.267 52.6989 56.7443C52.0511 58.2102 51.7273 59.9318 51.7273 61.9091C51.7273 63.9318 52.0455 65.6932 52.6818 67.1932C53.3295 68.6932 54.2386 69.858 55.4091 70.6875C56.5909 71.517 57.9773 71.9318 59.5682 71.9318C60.6136 71.9318 61.5625 71.75 62.4148 71.3864C63.267 71.0227 63.9886 70.5 64.5795 69.8182C65.1705 69.1364 65.5909 68.3182 65.8409 67.3636H69.8636C69.6364 68.9091 69.0739 70.3011 68.1761 71.5398C67.2898 72.767 66.1136 73.7443 64.6477 74.4716C63.1932 75.1875 61.5 75.5455 59.5682 75.5455ZM79.4943 65.4545L79.4261 60.4773H80.2443L91.6989 48.8182H96.6761L84.4716 61.1591H84.1307L79.4943 65.4545ZM75.7443 75V40.0909H79.767V75H75.7443ZM92.3807 75L82.1534 62.0455L85.017 59.25L97.4943 75H92.3807ZM19.6818 133V106.818H23.5682V110.773H23.8409C24.3182 109.477 25.1818 108.426 26.4318 107.619C27.6818 106.812 29.0909 106.409 30.6591 106.409C30.9545 106.409 31.3239 106.415 31.767 106.426C32.2102 106.437 32.5455 106.455 32.7727 106.477V110.568C32.6364 110.534 32.3239 110.483 31.8352 110.415C31.358 110.335 30.8523 110.295 30.3182 110.295C29.0455 110.295 27.9091 110.562 26.9091 111.097C25.9205 111.619 25.1364 112.347 24.5568 113.278C23.9886 114.199 23.7045 115.25 23.7045 116.432V133H19.6818ZM45.2457 133.614C43.5866 133.614 42.081 133.301 40.7287 132.676C39.3764 132.04 38.3026 131.125 37.5071 129.932C36.7116 128.727 36.3139 127.273 36.3139 125.568C36.3139 124.068 36.6094 122.852 37.2003 121.92C37.7912 120.977 38.581 120.239 39.5696 119.705C40.5582 119.17 41.6491 118.773 42.8423 118.511C44.0469 118.239 45.2571 118.023 46.473 117.864C48.0639 117.659 49.3537 117.506 50.3423 117.403C51.3423 117.29 52.0696 117.102 52.5241 116.841C52.9901 116.58 53.223 116.125 53.223 115.477V115.341C53.223 113.659 52.7628 112.352 51.8423 111.42C50.9332 110.489 49.5526 110.023 47.7003 110.023C45.7798 110.023 44.2741 110.443 43.1832 111.284C42.0923 112.125 41.3253 113.023 40.8821 113.977L37.0639 112.614C37.7457 111.023 38.6548 109.784 39.7912 108.898C40.9389 108 42.1889 107.375 43.5412 107.023C44.9048 106.659 46.2457 106.477 47.5639 106.477C48.4048 106.477 49.3707 106.58 50.4616 106.784C51.5639 106.977 52.6264 107.381 53.6491 107.994C54.6832 108.608 55.5412 109.534 56.223 110.773C56.9048 112.011 57.2457 113.67 57.2457 115.75V133H53.223V129.455H53.0185C52.7457 130.023 52.2912 130.631 51.6548 131.278C51.0185 131.926 50.1719 132.477 49.1151 132.932C48.0582 133.386 46.7685 133.614 45.2457 133.614ZM45.8594 130C47.4503 130 48.7912 129.688 49.8821 129.062C50.9844 128.438 51.8139 127.631 52.3707 126.642C52.9389 125.653 53.223 124.614 53.223 123.523V119.841C53.0526 120.045 52.6776 120.233 52.098 120.403C51.5298 120.562 50.8707 120.705 50.1207 120.83C49.3821 120.943 48.6605 121.045 47.956 121.136C47.2628 121.216 46.7003 121.284 46.2685 121.341C45.223 121.477 44.2457 121.699 43.3366 122.006C42.4389 122.301 41.7116 122.75 41.1548 123.352C40.6094 123.943 40.3366 124.75 40.3366 125.773C40.3366 127.17 40.8537 128.227 41.8878 128.943C42.9332 129.648 44.2571 130 45.8594 130ZM68.6108 117.25V133H64.5881V106.818H68.4744V110.909H68.8153C69.429 109.58 70.3608 108.511 71.6108 107.705C72.8608 106.886 74.4744 106.477 76.4517 106.477C78.2244 106.477 79.7756 106.841 81.1051 107.568C82.4347 108.284 83.4688 109.375 84.2074 110.841C84.946 112.295 85.3153 114.136 85.3153 116.364V133H81.2926V116.636C81.2926 114.58 80.7585 112.977 79.6903 111.83C78.6222 110.67 77.1563 110.091 75.2926 110.091C74.0085 110.091 72.8608 110.369 71.8494 110.926C70.8494 111.483 70.0597 112.295 69.4801 113.364C68.9006 114.432 68.6108 115.727 68.6108 117.25ZM102.553 133.545C100.371 133.545 98.4446 132.994 96.7741 131.892C95.1037 130.778 93.7969 129.21 92.8537 127.188C91.9105 125.153 91.4389 122.75 91.4389 119.977C91.4389 117.227 91.9105 114.841 92.8537 112.818C93.7969 110.795 95.1094 109.233 96.7912 108.131C98.473 107.028 100.416 106.477 102.621 106.477C104.325 106.477 105.672 106.761 106.661 107.33C107.661 107.886 108.422 108.523 108.945 109.239C109.479 109.943 109.893 110.523 110.189 110.977H110.53V98.0909H114.553V133H110.666V128.977H110.189C109.893 129.455 109.473 130.057 108.928 130.784C108.382 131.5 107.604 132.142 106.592 132.71C105.581 133.267 104.234 133.545 102.553 133.545ZM103.098 129.932C104.712 129.932 106.075 129.511 107.189 128.67C108.303 127.818 109.149 126.642 109.729 125.142C110.308 123.631 110.598 121.886 110.598 119.909C110.598 117.955 110.314 116.244 109.746 114.778C109.178 113.301 108.337 112.153 107.223 111.335C106.109 110.506 104.734 110.091 103.098 110.091C101.393 110.091 99.973 110.528 98.8366 111.403C97.7116 112.267 96.8651 113.443 96.2969 114.932C95.7401 116.409 95.4616 118.068 95.4616 119.909C95.4616 121.773 95.7457 123.466 96.3139 124.989C96.8935 126.5 97.7457 127.705 98.8707 128.602C100.007 129.489 101.416 129.932 103.098 129.932ZM125.07 142.818C124.388 142.818 123.78 142.761 123.246 142.648C122.712 142.545 122.342 142.443 122.138 142.341L123.161 138.795C124.138 139.045 125.001 139.136 125.751 139.068C126.501 139 127.166 138.665 127.746 138.062C128.337 137.472 128.876 136.511 129.365 135.182L130.115 133.136L120.433 106.818H124.797L132.024 127.682H132.297L139.524 106.818H143.888L132.774 136.818C132.274 138.17 131.655 139.29 130.916 140.176C130.178 141.074 129.32 141.739 128.342 142.17C127.376 142.602 126.286 142.818 125.07 142.818Z" fill="#FFC100"></path>
<path d="M19.6818 75H18.6818V76H19.6818V75ZM19.6818 48.8182V47.8182H18.6818V48.8182H19.6818ZM23.5682 48.8182H24.5682V47.8182H23.5682V48.8182ZM23.5682 52.7727H22.5682V53.7727H23.5682V52.7727ZM23.8409 52.7727V53.7727H24.5382L24.7793 53.1184L23.8409 52.7727ZM26.4318 49.6193L25.8895 48.7791L25.8895 48.7791L26.4318 49.6193ZM32.7727 48.4773H33.7727V47.5723L32.8722 47.4822L32.7727 48.4773ZM32.7727 52.5682L32.5302 53.5383L33.7727 53.849V52.5682H32.7727ZM31.8352 52.4148L31.6708 53.4012L31.6839 53.4033L31.697 53.4052L31.8352 52.4148ZM26.9091 53.0966L27.3765 53.9806L27.3802 53.9787L26.9091 53.0966ZM24.5568 55.2784L23.7077 54.7503L23.7059 54.7531L24.5568 55.2784ZM23.7045 75V76H24.7045V75H23.7045ZM20.6818 75V48.8182H18.6818V75H20.6818ZM19.6818 49.8182H23.5682V47.8182H19.6818V49.8182ZM22.5682 48.8182V52.7727H24.5682V48.8182H22.5682ZM23.5682 53.7727H23.8409V51.7727H23.5682V53.7727ZM24.7793 53.1184C25.1756 52.0425 25.8912 51.1585 26.9741 50.4595L25.8895 48.7791C24.4724 49.6938 23.4607 50.912 22.9026 52.427L24.7793 53.1184ZM26.9741 50.4595C28.0536 49.7628 29.2724 49.4091 30.6591 49.4091V47.4091C28.9095 47.4091 27.3101 47.8622 25.8895 48.7791L26.9741 50.4595ZM30.6591 49.4091C30.9429 49.4091 31.303 49.4146 31.7414 49.4258L31.7927 47.4265C31.3447 47.415 30.9662 47.4091 30.6591 47.4091V49.4091ZM31.7414 49.4258C32.1783 49.437 32.4837 49.4534 32.6732 49.4723L32.8722 47.4822C32.6072 47.4557 32.2422 47.438 31.7927 47.4265L31.7414 49.4258ZM31.7727 48.4773V52.5682H33.7727V48.4773H31.7727ZM33.0153 51.598C32.8168 51.5484 32.4471 51.4905 31.9734 51.4244L31.697 53.4052C32.2006 53.4754 32.4559 53.5198 32.5302 53.5383L33.0153 51.598ZM31.9996 51.4284C31.4628 51.3389 30.9018 51.2955 30.3182 51.2955V53.2955C30.8028 53.2955 31.2531 53.3316 31.6708 53.4012L31.9996 51.4284ZM30.3182 51.2955C28.9016 51.2955 27.6 51.5939 26.438 52.2145L27.3802 53.9787C28.2182 53.5311 29.1893 53.2955 30.3182 53.2955V51.2955ZM26.4417 52.2126C25.2997 52.8164 24.3826 53.6651 23.7077 54.7503L25.406 55.8065C25.8902 55.028 26.5412 54.4223 27.3765 53.9806L26.4417 52.2126ZM23.7059 54.7531C23.0313 55.8459 22.7045 57.0823 22.7045 58.4318H24.7045C24.7045 57.4177 24.946 56.5518 25.4078 55.8037L23.7059 54.7531ZM22.7045 58.4318V75H24.7045V58.4318H22.7045ZM23.7045 74H19.6818V76H23.7045V74ZM37.5412 75H36.5412V76H37.5412V75ZM37.5412 48.8182V47.8182H36.5412V48.8182H37.5412ZM41.5639 48.8182H42.5639V47.8182H41.5639V48.8182ZM41.5639 75V76H42.5639V75H41.5639ZM37.5582 43.6534L36.866 44.3751L36.8733 44.382L37.5582 43.6534ZM37.5582 39.8011L36.8733 39.0725L36.866 39.0795L37.5582 39.8011ZM41.598 39.8011L40.9058 40.5229L40.9131 40.5298L41.598 39.8011ZM41.598 43.6534L40.9131 42.9247L40.9058 42.9317L41.598 43.6534ZM38.5412 75V48.8182H36.5412V75H38.5412ZM37.5412 49.8182H41.5639V47.8182H37.5412V49.8182ZM40.5639 48.8182V75H42.5639V48.8182H40.5639ZM41.5639 74H37.5412V76H41.5639V74ZM39.5866 43.4545C39.0555 43.4545 38.6247 43.2835 38.2431 42.9248L36.8733 44.382C37.6281 45.0915 38.5496 45.4545 39.5866 45.4545V43.4545ZM38.2505 42.9317C37.8839 42.5801 37.723 42.1961 37.723 41.7273H35.723C35.723 42.7584 36.1189 43.6585 36.866 44.3751L38.2505 42.9317ZM37.723 41.7273C37.723 41.2584 37.8839 40.8744 38.2505 40.5228L36.866 39.0795C36.1189 39.796 35.723 40.6961 35.723 41.7273H37.723ZM38.2431 40.5298C38.6247 40.1711 39.0555 40 39.5866 40V38C38.5496 38 37.6281 38.363 36.8733 39.0725L38.2431 40.5298ZM39.5866 40C40.1174 40 40.5385 40.1705 40.9058 40.5228L42.2902 39.0795C41.5439 38.3636 40.6241 38 39.5866 38V40ZM40.9131 40.5298C41.2892 40.8833 41.4503 41.2653 41.4503 41.7273H43.4503C43.4503 40.6892 43.0432 39.7871 42.2829 39.0725L40.9131 40.5298ZM41.4503 41.7273C41.4503 42.1892 41.2892 42.5712 40.9131 42.9248L42.2829 44.382C43.0432 43.6674 43.4503 42.7653 43.4503 41.7273H41.4503ZM40.9058 42.9317C40.5385 43.284 40.1174 43.4545 39.5866 43.4545V45.4545C40.6241 45.4545 41.5439 45.091 42.2902 44.3751L40.9058 42.9317ZM53.2273 73.8068L52.68 74.6438L52.68 74.6438L53.2273 73.8068ZM49.1705 55.0057L48.2701 54.5705L48.2691 54.5726L49.1705 55.0057ZM53.2955 50.2159L53.8414 51.0537L53.8427 51.0529L53.2955 50.2159ZM68.108 52.3636L68.9009 51.7543L68.9009 51.7543L68.108 52.3636ZM69.8636 56.6591V57.6591H71.0121L70.8541 56.5215L69.8636 56.6591ZM65.8409 56.6591L64.8724 56.9081L65.0655 57.6591H65.8409V56.6591ZM63.7955 53.4886L63.13 54.2352L63.1387 54.2427L63.7955 53.4886ZM55.4432 53.3182L56.0107 54.1415L56.0124 54.1404L55.4432 53.3182ZM52.6989 56.7443L51.7856 56.3369L51.7842 56.3402L52.6989 56.7443ZM52.6818 67.1932L51.7612 67.5837L51.7638 67.5896L52.6818 67.1932ZM55.4091 70.6875L54.8308 71.5034L54.8346 71.506L55.4091 70.6875ZM62.4148 71.3864L62.0223 70.4666L62.0223 70.4666L62.4148 71.3864ZM64.5795 69.8182L65.3352 70.4731L65.3352 70.4731L64.5795 69.8182ZM65.8409 67.3636V66.3636H65.0691L64.8735 67.1103L65.8409 67.3636ZM69.8636 67.3636L70.853 67.5091L71.0215 66.3636H69.8636V67.3636ZM68.1761 71.5398L67.3664 70.9529L67.3655 70.9543L68.1761 71.5398ZM64.6477 74.4716L65.0893 75.3688L65.0922 75.3674L64.6477 74.4716ZM59.5682 74.5455C57.2764 74.5455 55.36 74.0065 53.7745 72.9698L52.68 74.6438C54.64 75.9253 56.9509 76.5455 59.5682 76.5455V74.5455ZM53.7745 72.9698C52.1666 71.9185 50.9224 70.4691 50.0416 68.5922L48.2311 69.4419C49.2594 71.6332 50.7425 73.3769 52.68 74.6438L53.7745 72.9698ZM50.0416 68.5922C49.1589 66.7111 48.7045 64.5361 48.7045 62.0455H46.7045C46.7045 64.7821 47.2048 67.2548 48.2311 69.4419L50.0416 68.5922ZM48.7045 62.0455C48.7045 59.5097 49.1701 57.3157 50.0718 55.4387L48.2691 54.5726C47.2163 56.7639 46.7045 59.263 46.7045 62.0455H48.7045ZM50.0708 55.4408C50.9868 53.5457 52.2449 52.094 53.8414 51.0537L52.7495 49.3781C50.8233 50.6332 49.3314 52.3748 48.2701 54.5705L50.0708 55.4408ZM53.8427 51.0529C55.4343 50.0123 57.3074 49.4773 59.5 49.4773V47.4773C56.9653 47.4773 54.7021 48.1014 52.7482 49.3789L53.8427 51.0529ZM59.5 49.4773C61.2153 49.4773 62.7286 49.7943 64.0582 50.408L64.8963 48.592C63.2714 47.8421 61.4665 47.4773 59.5 47.4773V49.4773ZM64.0582 50.408C65.3963 51.0255 66.4756 51.8806 67.3151 52.973L68.9009 51.7543C67.854 50.3921 66.5128 49.3381 64.8963 48.592L64.0582 50.408ZM67.3151 52.973C68.1455 54.0535 68.6681 55.3201 68.8731 56.7967L70.8541 56.5215C70.6047 54.7254 69.9568 53.1283 68.9009 51.7543L67.3151 52.973ZM69.8636 55.6591H65.8409V57.6591H69.8636V55.6591ZM66.8094 56.41C66.4455 54.9947 65.6399 53.769 64.4522 52.7346L63.1387 54.2427C64.0646 55.0492 64.6227 55.9371 64.8724 56.9081L66.8094 56.41ZM64.4608 52.7421C63.1874 51.6071 61.5188 51.0909 59.5682 51.0909V53.0909C61.163 53.0909 62.3126 53.5065 63.1301 54.2351L64.4608 52.7421ZM59.5682 51.0909C57.816 51.0909 56.2383 51.5515 54.874 52.496L56.0124 54.1404C57.0117 53.4485 58.184 53.0909 59.5682 53.0909V51.0909ZM54.8756 52.4948C53.534 53.4197 52.509 54.7155 51.7856 56.3369L53.6121 57.1518C54.2069 55.8186 55.0115 54.8303 56.0107 54.1415L54.8756 52.4948ZM51.7842 56.3402C51.0687 57.9595 50.7273 59.8243 50.7273 61.9091H52.7273C52.7273 60.0393 53.0336 58.461 53.6136 57.1485L51.7842 56.3402ZM50.7273 61.9091C50.7273 64.0346 51.0615 65.9342 51.7612 67.5837L53.6024 66.8026C53.0295 65.4521 52.7273 63.829 52.7273 61.9091H50.7273ZM51.7638 67.5896C52.4739 69.234 53.4909 70.5537 54.8309 71.5034L55.9873 69.8716C54.9864 69.1622 54.1852 68.1523 53.5999 66.7967L51.7638 67.5896ZM54.8346 71.506C56.2018 72.4657 57.7936 72.9318 59.5682 72.9318V70.9318C58.161 70.9318 56.98 70.5684 55.9836 69.869L54.8346 71.506ZM59.5682 72.9318C60.7313 72.9318 61.8159 72.7291 62.8072 72.3061L62.0223 70.4666C61.3091 70.7709 60.496 70.9318 59.5682 70.9318V72.9318ZM62.8072 72.3061C63.7952 71.8846 64.6422 71.2728 65.3352 70.4731L63.8239 69.1633C63.3351 69.7272 62.7389 70.1609 62.0223 70.4666L62.8072 72.3061ZM65.3352 70.4731C66.0357 69.6649 66.5231 68.7057 66.8083 67.617L64.8735 67.1103C64.6587 67.9306 64.3052 68.6078 63.8239 69.1633L65.3352 70.4731ZM65.8409 68.3636H69.8636V66.3636H65.8409V68.3636ZM68.8743 67.2181C68.6699 68.6077 68.1675 69.8476 67.3664 70.9529L68.9858 72.1266C69.9802 70.7547 70.6028 69.2105 70.853 67.5091L68.8743 67.2181ZM67.3655 70.9543C66.5818 72.0394 65.5358 72.9147 64.2033 73.5758L65.0922 75.3674C66.6915 74.5739 67.9978 73.4947 68.9868 72.1253L67.3655 70.9543ZM64.2061 73.5744C62.9129 74.2109 61.3759 74.5455 59.5682 74.5455V76.5455C61.6241 76.5455 63.4735 76.1641 65.0893 75.3688L64.2061 73.5744ZM79.4943 65.4545L78.4944 65.4682L78.5252 67.7156L80.1739 66.1881L79.4943 65.4545ZM79.4261 60.4773V59.4773H78.4123L78.4262 60.491L79.4261 60.4773ZM80.2443 60.4773V61.4773H80.6637L80.9577 61.1781L80.2443 60.4773ZM91.6989 48.8182V47.8182H91.2795L90.9855 48.1174L91.6989 48.8182ZM96.6761 48.8182L97.3872 49.5213L99.0715 47.8182H96.6761V48.8182ZM84.4716 61.1591V62.1591H84.8891L85.1826 61.8623L84.4716 61.1591ZM84.1307 61.1591V60.1591H83.7386L83.4511 60.4255L84.1307 61.1591ZM75.7443 75H74.7443V76H75.7443V75ZM75.7443 40.0909V39.0909H74.7443V40.0909H75.7443ZM79.767 40.0909H80.767V39.0909H79.767V40.0909ZM79.767 75V76H80.767V75H79.767ZM92.3807 75L91.5958 75.6196L91.8961 76H92.3807V75ZM82.1534 62.0455L81.4549 61.3299L80.8108 61.9586L81.3685 62.6651L82.1534 62.0455ZM85.017 59.25L85.8009 58.629L85.1122 57.7597L84.3185 58.5344L85.017 59.25ZM97.4943 75V76H99.5623L98.2782 74.379L97.4943 75ZM80.4942 65.4408L80.426 60.4636L78.4262 60.491L78.4944 65.4682L80.4942 65.4408ZM79.4261 61.4773H80.2443V59.4773H79.4261V61.4773ZM80.9577 61.1781L92.4122 49.519L90.9855 48.1174L79.531 59.7765L80.9577 61.1781ZM91.6989 49.8182H96.6761V47.8182H91.6989V49.8182ZM95.9651 48.115L83.7606 60.4559L85.1826 61.8623L97.3872 49.5213L95.9651 48.115ZM84.4716 60.1591H84.1307V62.1591H84.4716V60.1591ZM83.4511 60.4255L78.8147 64.721L80.1739 66.1881L84.8103 61.8927L83.4511 60.4255ZM76.7443 75V40.0909H74.7443V75H76.7443ZM75.7443 41.0909H79.767V39.0909H75.7443V41.0909ZM78.767 40.0909V75H80.767V40.0909H78.767ZM79.767 74H75.7443V76H79.767V74ZM93.1656 74.3804L82.9383 61.4258L81.3685 62.6651L91.5958 75.6196L93.1656 74.3804ZM82.8519 62.761L85.7156 59.9656L84.3185 58.5344L81.4549 61.3299L82.8519 62.761ZM84.2332 59.871L96.7105 75.621L98.2782 74.379L85.8009 58.629L84.2332 59.871ZM97.4943 74H92.3807V76H97.4943V74ZM19.6818 133H18.6818V134H19.6818V133ZM19.6818 106.818V105.818H18.6818V106.818H19.6818ZM23.5682 106.818H24.5682V105.818H23.5682V106.818ZM23.5682 110.773H22.5682V111.773H23.5682V110.773ZM23.8409 110.773V111.773H24.5382L24.7793 111.118L23.8409 110.773ZM26.4318 107.619L25.8895 106.779L25.8895 106.779L26.4318 107.619ZM32.7727 106.477H33.7727V105.572L32.8722 105.482L32.7727 106.477ZM32.7727 110.568L32.5302 111.538L33.7727 111.849V110.568H32.7727ZM31.8352 110.415L31.6708 111.401L31.6839 111.403L31.697 111.405L31.8352 110.415ZM26.9091 111.097L27.3765 111.981L27.3802 111.979L26.9091 111.097ZM24.5568 113.278L23.7077 112.75L23.7059 112.753L24.5568 113.278ZM23.7045 133V134H24.7045V133H23.7045ZM20.6818 133V106.818H18.6818V133H20.6818ZM19.6818 107.818H23.5682V105.818H19.6818V107.818ZM22.5682 106.818V110.773H24.5682V106.818H22.5682ZM23.5682 111.773H23.8409V109.773H23.5682V111.773ZM24.7793 111.118C25.1756 110.043 25.8912 109.158 26.9741 108.459L25.8895 106.779C24.4724 107.694 23.4607 108.912 22.9026 110.427L24.7793 111.118ZM26.9741 108.46C28.0536 107.763 29.2724 107.409 30.6591 107.409V105.409C28.9095 105.409 27.3101 105.862 25.8895 106.779L26.9741 108.46ZM30.6591 107.409C30.9429 107.409 31.303 107.415 31.7414 107.426L31.7927 105.426C31.3447 105.415 30.9662 105.409 30.6591 105.409V107.409ZM31.7414 107.426C32.1783 107.437 32.4837 107.453 32.6732 107.472L32.8722 105.482C32.6072 105.456 32.2422 105.438 31.7927 105.426L31.7414 107.426ZM31.7727 106.477V110.568H33.7727V106.477H31.7727ZM33.0153 109.598C32.8168 109.548 32.4471 109.49 31.9734 109.424L31.697 111.405C32.2006 111.475 32.4559 111.52 32.5302 111.538L33.0153 109.598ZM31.9996 109.428C31.4628 109.339 30.9018 109.295 30.3182 109.295V111.295C30.8028 111.295 31.2531 111.332 31.6708 111.401L31.9996 109.428ZM30.3182 109.295C28.9016 109.295 27.6 109.594 26.438 110.215L27.3802 111.979C28.2182 111.531 29.1893 111.295 30.3182 111.295V109.295ZM26.4417 110.213C25.2997 110.816 24.3826 111.665 23.7077 112.75L25.406 113.807C25.8902 113.028 26.5412 112.422 27.3765 111.981L26.4417 110.213ZM23.7059 112.753C23.0313 113.846 22.7045 115.082 22.7045 116.432H24.7045C24.7045 115.418 24.946 114.552 25.4078 113.804L23.7059 112.753ZM22.7045 116.432V133H24.7045V116.432H22.7045ZM23.7045 132H19.6818V134H23.7045V132ZM40.7287 132.676L40.3029 133.581L40.3092 133.584L40.7287 132.676ZM37.5071 129.932L36.6726 130.483L36.6751 130.487L37.5071 129.932ZM37.2003 121.92L38.0448 122.456L38.0477 122.451L37.2003 121.92ZM42.8423 118.511L43.0563 119.488L43.0632 119.487L42.8423 118.511ZM46.473 117.864L46.3455 116.872L46.3433 116.872L46.473 117.864ZM50.3423 117.403L50.4452 118.398L50.4552 118.397L50.3423 117.403ZM52.5241 116.841L52.0349 115.969L52.0257 115.974L52.5241 116.841ZM51.8423 111.42L51.1265 112.119L51.1309 112.123L51.8423 111.42ZM43.1832 111.284L43.7937 112.076L43.7937 112.076L43.1832 111.284ZM40.8821 113.977L40.5458 114.919L41.4049 115.226L41.7891 114.398L40.8821 113.977ZM37.0639 112.614L36.1448 112.22L35.7257 113.198L36.7276 113.555L37.0639 112.614ZM39.7912 108.898L40.4062 109.686L40.4073 109.685L39.7912 108.898ZM43.5412 107.023L43.7933 107.99L43.7989 107.989L43.5412 107.023ZM50.4616 106.784L50.2773 107.767L50.289 107.769L50.4616 106.784ZM53.6491 107.994L53.1346 108.852L53.1388 108.854L53.6491 107.994ZM56.223 110.773L55.347 111.255L55.347 111.255L56.223 110.773ZM57.2457 133V134H58.2457V133H57.2457ZM53.223 133H52.223V134H53.223V133ZM53.223 129.455H54.223V128.455H53.223V129.455ZM53.0185 129.455V128.455H52.3892L52.1169 129.022L53.0185 129.455ZM51.6548 131.278L52.3682 131.979L52.3682 131.979L51.6548 131.278ZM49.1151 132.932L48.7199 132.013L49.1151 132.932ZM49.8821 129.062L49.3889 128.193L49.385 128.195L49.8821 129.062ZM52.3707 126.642L51.5037 126.144L51.4994 126.151L52.3707 126.642ZM53.223 119.841H54.223V117.079L52.4548 119.201L53.223 119.841ZM52.098 120.403L52.3677 121.366L52.3802 121.363L52.098 120.403ZM50.1207 120.83L50.2728 121.818L50.2851 121.816L50.1207 120.83ZM47.956 121.136L48.07 122.13L48.0839 122.128L47.956 121.136ZM46.2685 121.341L46.3978 122.333L46.3989 122.332L46.2685 121.341ZM43.3366 122.006L43.6493 122.956L43.6564 122.953L43.3366 122.006ZM41.1548 123.352L40.4206 122.673L40.42 122.674L41.1548 123.352ZM41.8878 128.943L41.3185 129.765L41.3289 129.772L41.8878 128.943ZM45.2457 132.614C43.7149 132.614 42.3547 132.326 41.1482 131.768L40.3092 133.584C41.8072 134.276 43.4584 134.614 45.2457 134.614V132.614ZM41.1545 131.771C39.9597 131.209 39.0292 130.412 38.3392 129.377L36.6751 130.487C37.5759 131.838 38.7931 132.87 40.3029 133.581L41.1545 131.771ZM38.3416 129.381C37.6724 128.367 37.3139 127.113 37.3139 125.568H35.3139C35.3139 127.433 35.7509 129.087 36.6726 130.483L38.3416 129.381ZM37.3139 125.568C37.3139 124.192 37.5858 123.18 38.0448 122.456L36.3558 121.385C35.6329 122.525 35.3139 123.945 35.3139 125.568H37.3139ZM38.0477 122.451C38.5459 121.656 39.2069 121.037 40.0449 120.584L39.0943 118.825C37.9551 119.44 37.0365 120.298 36.3529 121.39L38.0477 122.451ZM40.0449 120.584C40.9446 120.098 41.9465 119.731 43.0563 119.488L42.6284 117.535C41.3518 117.814 40.1719 118.243 39.0943 118.825L40.0449 120.584ZM43.0632 119.487C44.2378 119.221 45.4177 119.01 46.6027 118.855L46.3433 116.872C45.0966 117.035 43.8559 117.257 42.6215 117.536L43.0632 119.487ZM46.6005 118.855C48.1875 118.651 49.4682 118.499 50.4452 118.398L50.2394 116.409C49.2392 116.512 47.9403 116.667 46.3455 116.872L46.6005 118.855ZM50.4552 118.397C51.4891 118.28 52.3848 118.075 53.0226 117.708L52.0257 115.974C51.7544 116.13 51.1956 116.3 50.2294 116.41L50.4552 118.397ZM53.0134 117.713C53.8668 117.234 54.223 116.396 54.223 115.477H52.223C52.223 115.854 52.1133 115.925 52.0349 115.969L53.0134 117.713ZM54.223 115.477V115.341H52.223V115.477H54.223ZM54.223 115.341C54.223 113.474 53.7076 111.886 52.5538 110.718L51.1309 112.123C51.818 112.819 52.223 113.844 52.223 115.341H54.223ZM52.5581 110.722C51.3932 109.528 49.7067 109.023 47.7003 109.023V111.023C49.3984 111.023 50.4733 111.449 51.1265 112.119L52.5581 110.722ZM47.7003 109.023C45.6443 109.023 43.8959 109.472 42.5727 110.492L43.7937 112.076C44.6524 111.414 45.9153 111.023 47.7003 111.023V109.023ZM42.5727 110.492C41.3925 111.402 40.5035 112.418 39.9751 113.556L41.7891 114.398C42.147 113.627 42.7921 112.848 43.7937 112.076L42.5727 110.492ZM41.2184 113.036L37.4003 111.672L36.7276 113.555L40.5458 114.919L41.2184 113.036ZM37.9831 113.008C38.6117 111.541 39.4272 110.45 40.4062 109.686L39.1762 108.109C37.8824 109.118 36.8797 110.505 36.1448 112.22L37.9831 113.008ZM40.4073 109.685C41.452 108.868 42.579 108.307 43.7933 107.99L43.2891 106.055C41.7988 106.443 40.4259 107.132 39.1751 108.11L40.4073 109.685ZM43.7989 107.989C45.0843 107.646 46.3386 107.477 47.5639 107.477V105.477C46.1528 105.477 44.7253 105.672 43.2835 106.056L43.7989 107.989ZM47.5639 107.477C48.327 107.477 49.2292 107.57 50.2774 107.767L50.6459 105.801C49.5123 105.589 48.4826 105.477 47.5639 105.477V107.477ZM50.289 107.769C51.2627 107.94 52.2101 108.297 53.1347 108.852L54.1636 107.137C53.0427 106.464 51.8651 106.015 50.6343 105.799L50.289 107.769ZM53.1388 108.854C53.9944 109.362 54.7359 110.145 55.347 111.255L57.0991 110.29C56.3465 108.923 55.3721 107.854 54.1595 107.134L53.1388 108.854ZM55.347 111.255C55.9181 112.292 56.2457 113.765 56.2457 115.75H58.2457C58.2457 113.576 57.8916 111.73 57.0991 110.29L55.347 111.255ZM56.2457 115.75V133H58.2457V115.75H56.2457ZM57.2457 132H53.223V134H57.2457V132ZM54.223 133V129.455H52.223V133H54.223ZM53.223 128.455H53.0185V130.455H53.223V128.455ZM52.1169 129.022C51.9077 129.458 51.5318 129.977 50.9415 130.578L52.3682 131.979C53.0506 131.285 53.5838 130.588 53.92 129.887L52.1169 129.022ZM50.9415 130.578C50.4168 131.112 49.6881 131.597 48.7199 132.013L49.5102 133.85C50.6556 133.358 51.6201 132.741 52.3682 131.979L50.9415 130.578ZM48.7199 132.013C47.8213 132.4 46.6743 132.614 45.2457 132.614V134.614C46.8626 134.614 48.2952 134.373 49.5102 133.85L48.7199 132.013ZM45.8594 131C47.5792 131 49.1018 130.662 50.3792 129.93L49.385 128.195C48.4805 128.713 47.3214 129 45.8594 129V131ZM50.3753 129.932C51.6168 129.228 52.5859 128.298 53.242 127.133L51.4994 126.151C51.0419 126.964 50.3519 127.647 49.3889 128.193L50.3753 129.932ZM53.2378 127.14C53.889 126.007 54.223 124.797 54.223 123.523H52.223C52.223 124.431 51.9889 125.3 51.5037 126.144L53.2378 127.14ZM54.223 123.523V119.841H52.223V123.523H54.223ZM52.4548 119.201C52.494 119.154 52.494 119.177 52.3667 119.241C52.2497 119.299 52.0713 119.369 51.8158 119.444L52.3802 121.363C52.7043 121.267 53.0031 121.158 53.2611 121.029C53.5089 120.906 53.7816 120.733 53.9912 120.481L52.4548 119.201ZM51.8284 119.44C51.303 119.588 50.6804 119.722 49.9563 119.843L50.2851 121.816C51.0611 121.687 51.7566 121.537 52.3676 121.366L51.8284 119.44ZM49.9687 119.841C49.2376 119.954 48.5241 120.055 47.828 120.145L48.0839 122.128C48.7969 122.036 49.5266 121.933 50.2728 121.818L49.9687 119.841ZM47.842 120.143C47.1461 120.223 46.5775 120.292 46.138 120.349L46.3989 122.332C46.823 122.277 47.3794 122.209 48.07 122.13L47.842 120.143ZM46.1391 120.349C45.0352 120.493 43.9936 120.729 43.0169 121.058L43.6564 122.953C44.4979 122.669 45.4108 122.461 46.3978 122.333L46.1391 120.349ZM43.024 121.056C41.9898 121.396 41.1092 121.929 40.4206 122.673L41.8891 124.031C42.3141 123.571 42.888 123.206 43.6493 122.956L43.024 121.056ZM40.42 122.674C39.6614 123.496 39.3366 124.569 39.3366 125.773H41.3366C41.3366 124.931 41.5573 124.391 41.8896 124.031L40.42 122.674ZM39.3366 125.773C39.3366 127.456 39.9814 128.84 41.3186 129.765L42.457 128.121C41.726 127.615 41.3366 126.885 41.3366 125.773H39.3366ZM41.3289 129.772C42.5791 130.615 44.1118 131 45.8594 131V129C44.4024 129 43.2874 128.68 42.4466 128.114L41.3289 129.772ZM68.6108 133V134H69.6108V133H68.6108ZM64.5881 133H63.5881V134H64.5881V133ZM64.5881 106.818V105.818H63.5881V106.818H64.5881ZM68.4744 106.818H69.4744V105.818H68.4744V106.818ZM68.4744 110.909H67.4744V111.909H68.4744V110.909ZM68.8153 110.909V111.909H69.4552L69.7233 111.328L68.8153 110.909ZM71.6108 107.705L72.1531 108.545L72.1585 108.541L71.6108 107.705ZM81.1051 107.568L80.6252 108.446L80.631 108.449L81.1051 107.568ZM84.2074 110.841L83.3143 111.291L83.3158 111.294L84.2074 110.841ZM85.3153 133V134H86.3153V133H85.3153ZM81.2926 133H80.2926V134H81.2926V133ZM79.6903 111.83L78.955 112.507L78.9583 112.511L79.6903 111.83ZM71.8494 110.926L71.3671 110.05L71.3629 110.052L71.8494 110.926ZM69.4801 113.364L68.6011 112.887L68.6011 112.887L69.4801 113.364ZM67.6108 117.25V133H69.6108V117.25H67.6108ZM68.6108 132H64.5881V134H68.6108V132ZM65.5881 133V106.818H63.5881V133H65.5881ZM64.5881 107.818H68.4744V105.818H64.5881V107.818ZM67.4744 106.818V110.909H69.4744V106.818H67.4744ZM68.4744 111.909H68.8153V109.909H68.4744V111.909ZM69.7233 111.328C70.2561 110.174 71.0598 109.25 72.1531 108.545L71.0685 106.864C69.6618 107.772 68.6018 108.985 67.9074 110.49L69.7233 111.328ZM72.1585 108.541C73.2007 107.859 74.6073 107.477 76.4517 107.477V105.477C74.3416 105.477 72.5208 105.914 71.0631 106.868L72.1585 108.541ZM76.4517 107.477C78.0853 107.477 79.466 107.811 80.6252 108.446L81.585 106.691C80.0851 105.87 78.3636 105.477 76.4517 105.477V107.477ZM80.631 108.449C81.7643 109.059 82.6595 109.991 83.3143 111.291L85.1004 110.391C84.278 108.759 83.105 107.509 81.5792 106.688L80.631 108.449ZM83.3158 111.294C83.962 112.566 84.3153 114.239 84.3153 116.364H86.3153C86.3153 114.034 85.9301 112.025 85.099 110.388L83.3158 111.294ZM84.3153 116.364V133H86.3153V116.364H84.3153ZM85.3153 132H81.2926V134H85.3153V132ZM82.2926 133V116.636H80.2926V133H82.2926ZM82.2926 116.636C82.2926 114.408 81.711 112.533 80.4224 111.148L78.9583 112.511C79.806 113.422 80.2926 114.751 80.2926 116.636H82.2926ZM80.4257 111.152C79.1336 109.75 77.3801 109.091 75.2926 109.091V111.091C76.9324 111.091 78.1107 111.591 78.955 112.507L80.4257 111.152ZM75.2926 109.091C73.8592 109.091 72.5423 109.403 71.3671 110.05L72.3317 111.802C73.1793 111.335 74.1579 111.091 75.2926 111.091V109.091ZM71.3629 110.052C70.1867 110.707 69.2654 111.663 68.6011 112.887L70.3591 113.841C70.854 112.928 71.5122 112.259 72.3359 111.8L71.3629 110.052ZM68.6011 112.887C67.9245 114.134 67.6108 115.602 67.6108 117.25H69.6108C69.6108 115.852 69.8766 114.73 70.3591 113.841L68.6011 112.887ZM96.7741 131.892L96.2194 132.724L96.2234 132.727L96.7741 131.892ZM92.8537 127.188L91.9465 127.608L91.9474 127.61L92.8537 127.188ZM92.8537 112.818L91.9474 112.396L91.9474 112.396L92.8537 112.818ZM96.7912 108.131L96.243 107.294L96.243 107.294L96.7912 108.131ZM106.661 107.33L106.162 108.197L106.174 108.203L106.661 107.33ZM108.945 109.239L108.137 109.828L108.142 109.836L108.148 109.843L108.945 109.239ZM110.189 110.977L109.35 111.522L109.646 111.977H110.189V110.977ZM110.53 110.977V111.977H111.53V110.977H110.53ZM110.53 98.0909V97.0909H109.53V98.0909H110.53ZM114.553 98.0909H115.553V97.0909H114.553V98.0909ZM114.553 133V134H115.553V133H114.553ZM110.666 133H109.666V134H110.666V133ZM110.666 128.977H111.666V127.977H110.666V128.977ZM110.189 128.977V127.977H109.632L109.339 128.451L110.189 128.977ZM108.928 130.784L109.723 131.39L109.728 131.384L108.928 130.784ZM106.592 132.71L107.075 133.586L107.082 133.582L106.592 132.71ZM107.189 128.67L107.792 129.469L107.797 129.465L107.189 128.67ZM109.729 125.142L110.661 125.502L110.662 125.5L109.729 125.142ZM109.746 114.778L108.812 115.137L108.813 115.14L109.746 114.778ZM107.223 111.335L106.626 112.137L106.631 112.141L107.223 111.335ZM98.8366 111.403L99.4456 112.197L99.4467 112.196L98.8366 111.403ZM96.2969 114.932L95.3626 114.575L95.3611 114.579L96.2969 114.932ZM96.3139 124.989L95.377 125.338L95.3802 125.347L96.3139 124.989ZM98.8707 128.602L98.247 129.384L98.2557 129.391L98.8707 128.602ZM102.553 132.545C100.548 132.545 98.8172 132.042 97.3249 131.057L96.2234 132.727C98.072 133.947 100.193 134.545 102.553 134.545V132.545ZM97.3288 131.06C95.8275 130.059 94.6346 128.641 93.76 126.765L91.9474 127.61C92.9591 129.78 94.3799 131.498 96.2194 132.724L97.3288 131.06ZM93.7609 126.767C92.8915 124.892 92.4389 122.638 92.4389 119.977H90.4389C90.4389 122.862 90.9295 125.415 91.9465 127.608L93.7609 126.767ZM92.4389 119.977C92.4389 117.34 92.8911 115.104 93.76 113.241L91.9474 112.396C90.9299 114.578 90.4389 117.114 90.4389 119.977H92.4389ZM93.76 113.241C94.6335 111.368 95.8298 109.956 97.3394 108.967L96.243 107.294C94.389 108.509 92.9602 110.223 91.9474 112.396L93.76 113.241ZM97.3394 108.967C98.8427 107.982 100.591 107.477 102.621 107.477V105.477C100.241 105.477 98.1033 106.075 96.243 107.294L97.3394 108.967ZM102.621 107.477C104.231 107.477 105.382 107.748 106.162 108.197L107.159 106.463C105.962 105.774 104.42 105.477 102.621 105.477V107.477ZM106.174 108.203C107.083 108.709 107.721 109.258 108.137 109.828L109.752 108.649C109.123 107.787 108.238 107.063 107.147 106.456L106.174 108.203ZM108.148 109.843C108.675 110.538 109.074 111.096 109.35 111.522L111.027 110.432C110.713 109.949 110.282 109.348 109.742 108.635L108.148 109.843ZM110.189 111.977H110.53V109.977H110.189V111.977ZM111.53 110.977V98.0909H109.53V110.977H111.53ZM110.53 99.0909H114.553V97.0909H110.53V99.0909ZM113.553 98.0909V133H115.553V98.0909H113.553ZM114.553 132H110.666V134H114.553V132ZM111.666 133V128.977H109.666V133H111.666ZM110.666 127.977H110.189V129.977H110.666V127.977ZM109.339 128.451C109.065 128.892 108.665 129.468 108.128 130.184L109.728 131.384C110.281 130.646 110.722 130.017 111.039 129.504L109.339 128.451ZM108.132 130.178C107.69 130.759 107.028 131.319 106.103 131.838L107.082 133.582C108.18 132.966 109.075 132.241 109.723 131.39L108.132 130.178ZM106.11 131.834C105.299 132.281 104.138 132.545 102.553 132.545V134.545C104.331 134.545 105.863 134.253 107.075 133.586L106.11 131.834ZM103.098 130.932C104.894 130.932 106.478 130.46 107.792 129.468L106.586 127.872C105.673 128.562 104.53 128.932 103.098 128.932V130.932ZM107.797 129.465C109.077 128.485 110.026 127.148 110.661 125.502L108.796 124.782C108.273 126.136 107.528 127.152 106.581 127.876L107.797 129.465ZM110.662 125.5C111.294 123.852 111.598 121.982 111.598 119.909H109.598C109.598 121.79 109.322 123.409 108.795 124.784L110.662 125.5ZM111.598 119.909C111.598 117.86 111.3 116.022 110.678 114.417L108.813 115.14C109.327 116.466 109.598 118.049 109.598 119.909H111.598ZM110.679 114.419C110.052 112.79 109.104 111.477 107.815 110.529L106.631 112.141C107.569 112.83 108.303 113.812 108.812 115.137L110.679 114.419ZM107.82 110.533C106.505 109.553 104.91 109.091 103.098 109.091V111.091C104.559 111.091 105.714 111.458 106.626 112.137L107.82 110.533ZM103.098 109.091C101.216 109.091 99.5691 109.577 98.2266 110.611L99.4467 112.196C100.377 111.479 101.571 111.091 103.098 111.091V109.091ZM98.2277 110.61C96.9384 111.6 95.9884 112.936 95.3626 114.575L97.2311 115.288C97.7417 113.951 98.4849 112.934 99.4456 112.197L98.2277 110.61ZM95.3611 114.579C94.7554 116.186 94.4616 117.967 94.4616 119.909H96.4616C96.4616 118.169 96.7247 116.632 97.2326 115.285L95.3611 114.579ZM94.4616 119.909C94.4616 121.875 94.7615 123.689 95.377 125.338L97.2508 124.639C96.73 123.243 96.4616 121.671 96.4616 119.909H94.4616ZM95.3802 125.347C96.0154 127.003 96.9661 128.362 98.247 129.384L99.4945 127.821C98.5254 127.047 97.7715 125.997 97.2476 124.631L95.3802 125.347ZM98.2557 129.391C99.5961 130.436 101.232 130.932 103.098 130.932V128.932C101.6 128.932 100.418 128.541 99.4858 127.814L98.2557 129.391ZM123.246 142.648L123.454 141.67L123.444 141.667L123.434 141.666L123.246 142.648ZM122.138 142.341L121.177 142.064L120.946 142.863L121.691 143.235L122.138 142.341ZM123.161 138.795L123.408 137.827L122.469 137.586L122.2 138.518L123.161 138.795ZM125.751 139.068L125.661 138.072L125.661 138.072L125.751 139.068ZM127.746 138.062L127.039 137.355L127.032 137.362L127.025 137.369L127.746 138.062ZM129.365 135.182L130.304 135.527L130.304 135.526L129.365 135.182ZM130.115 133.136L131.054 133.481L131.18 133.136L131.054 132.791L130.115 133.136ZM120.433 106.818V105.818H119L119.495 107.163L120.433 106.818ZM124.797 106.818L125.742 106.491L125.509 105.818H124.797V106.818ZM132.024 127.682L131.079 128.009L131.312 128.682H132.024V127.682ZM132.297 127.682V128.682H133.009L133.242 128.009L132.297 127.682ZM139.524 106.818V105.818H138.812L138.579 106.491L139.524 106.818ZM143.888 106.818L144.826 107.166L145.325 105.818H143.888V106.818ZM132.774 136.818L131.836 136.471L131.836 136.471L132.774 136.818ZM130.916 140.176L130.148 139.536L130.144 139.541L130.916 140.176ZM128.342 142.17L127.938 141.256L127.934 141.258L128.342 142.17ZM125.07 141.818C124.441 141.818 123.905 141.766 123.454 141.67L123.038 143.626C123.655 143.757 124.334 143.818 125.07 143.818V141.818ZM123.434 141.666C122.9 141.563 122.654 141.481 122.585 141.446L121.691 143.235C122.031 143.406 122.523 143.528 123.058 143.63L123.434 141.666ZM123.099 142.618L124.121 139.073L122.2 138.518L121.177 142.064L123.099 142.618ZM122.913 139.764C123.965 140.034 124.947 140.145 125.842 140.064L125.661 138.072C125.056 138.127 124.31 138.057 123.408 137.827L122.913 139.764ZM125.842 140.064C126.858 139.972 127.74 139.511 128.466 138.756L127.025 137.369C126.593 137.818 126.145 138.028 125.661 138.072L125.842 140.064ZM128.453 138.77C129.194 138.029 129.795 136.91 130.304 135.527L128.426 134.837C127.958 136.112 127.479 136.915 127.039 137.355L128.453 138.77ZM130.304 135.526L131.054 133.481L129.176 132.792L128.426 134.838L130.304 135.526ZM131.054 132.791L121.372 106.473L119.495 107.163L129.177 133.482L131.054 132.791ZM120.433 107.818H124.797V105.818H120.433V107.818ZM123.852 107.146L131.079 128.009L132.969 127.354L125.742 106.491L123.852 107.146ZM132.024 128.682H132.297V126.682H132.024V128.682ZM133.242 128.009L140.469 107.146L138.579 106.491L131.352 127.354L133.242 128.009ZM139.524 107.818H143.888V105.818H139.524V107.818ZM142.95 106.471L131.836 136.471L133.712 137.166L144.826 107.166L142.95 106.471ZM131.836 136.471C131.366 137.742 130.798 138.756 130.148 139.536L131.684 140.816C132.512 139.824 133.182 138.598 133.712 137.165L131.836 136.471ZM130.144 139.541C129.496 140.329 128.76 140.892 127.938 141.256L128.746 143.085C129.879 142.585 130.859 141.819 131.688 140.812L130.144 139.541ZM127.934 141.258C127.114 141.624 126.166 141.818 125.07 141.818V143.818C126.405 143.818 127.638 143.581 128.75 143.083L127.934 141.258Z" fill="#FDC854"></path>
</svg><style>@media (prefers-color-scheme: light) { :root { filter: contrast(1) brightness(0.8); } }
</style></svg>