<svg width="365" height="349" viewBox="0 0 365 349" fill="none" xmlns="http://www.w3.org/2000/svg">
<path d="M93.6684 87.1849L207.524 70.3529C219.015 68.6541 230.088 76.2584 232.366 87.413L264.268 243.627C266.63 255.191 258.639 266.019 246.672 267.471L127.907 281.879L93.6684 87.1849Z" fill="#D3D3D3"/>
<path d="M94.0046 87.8797L212.713 70.8712C224.478 69.1854 235.701 77.2249 237.598 88.6981L263.287 244.078C265.158 255.393 257.234 265.73 245.59 267.164L127.176 281.743L94.0046 87.8797Z" fill="#E2E2E2"/>
<path d="M92.6134 86.5192L217.173 71.523C228.791 70.1244 239.701 78.1193 241.573 89.4031L267.128 243.458C269.006 254.776 261.081 265.12 249.432 266.554L126.569 281.681L92.6134 86.5192Z" fill="#EDEDED"/>
<path d="M98.2119 87.7452L220.73 72.5877C232.633 71.1151 243.749 79.5082 245.272 91.1184L265.351 244.146C266.808 255.249 258.922 265.185 247.538 266.589L125.765 281.606L98.2119 87.7452Z" fill="#F5F5F5"/>
<g clip-path="url(#clip0_311_887)">
<g clip-path="url(#clip1_311_887)">
<g filter="url(#filter0_dd_311_887)">
<rect width="66.6434" height="582.253" transform="matrix(0.626174 0.187078 0.115793 1.03492 92.5752 86.4624)" fill="#FFC100"/>
</g>
</g>
</g>
<g clip-path="url(#clip2_311_887)">
<rect width="10.2775" height="189.629" transform="matrix(0.626174 0.187079 0.115793 1.03492 92.6021 86.4695)" fill="url(#paint0_linear_311_887)" fill-opacity="0.5"/>
<path d="M92.6771 83.5475L115.36 286.275" stroke="white" stroke-opacity="0.16" stroke-width="1.05226"/>
<path d="M92.2788 83.4286L114.961 286.156" stroke="white" stroke-opacity="0.16" stroke-width="2.10453"/>
</g>
<g filter="url(#filter1_d_311_887)">
<g clip-path="url(#clip3_311_887)">
<rect width="149.335" height="194.141" transform="matrix(1.00434 -0.0871247 0.112417 0.98503 98.9774 88.5939)" fill="url(#paint1_linear_311_887)" fill-opacity="0.5"/>
<path d="M108.341 84.8535L130.812 281.748" stroke="white" stroke-opacity="0.16" stroke-width="1.05227"/>
<path d="M99.0562 85.6591L121.527 282.554" stroke="white" stroke-opacity="0.16" stroke-width="2.10453"/>
</g>
<g clip-path="url(#clip4_311_887)">
<rect width="149.335" height="194.209" transform="matrix(1.00434 -0.0871247 0.112417 0.98503 98.9774 88.5939)" fill="url(#paint2_linear_311_887)" fill-opacity="0.5"/>
<path d="M108.341 84.8535L130.812 281.748" stroke="white" stroke-opacity="0.16" stroke-width="1.05227"/>
<path d="M99.0562 85.6591L121.527 282.554" stroke="white" stroke-opacity="0.16" stroke-width="2.10453"/>
</g>
</g>
<rect x="0.552351" y="0.438362" width="150.55" height="196.527" transform="matrix(0.993128 -0.117032 0.111573 0.993756 98.9557 88.4209)" fill="#2F3234" stroke="white"/>
<path d="M143.316 263.016L142.911 259.402L144.131 259.258C144.414 259.225 144.652 259.249 144.843 259.33C145.035 259.41 145.185 259.531 145.291 259.694C145.397 259.856 145.463 260.044 145.487 260.257C145.51 260.47 145.489 260.669 145.421 260.853C145.355 261.037 145.238 261.192 145.069 261.316C144.901 261.44 144.676 261.518 144.395 261.551L143.521 261.654L143.477 261.266L144.338 261.165C144.532 261.142 144.684 261.09 144.794 261.009C144.904 260.928 144.979 260.828 145.019 260.707C145.06 260.586 145.073 260.453 145.056 260.308C145.04 260.163 144.998 260.037 144.932 259.929C144.866 259.821 144.77 259.742 144.644 259.691C144.518 259.64 144.357 259.625 144.16 259.648L143.392 259.739L143.754 262.964L143.316 263.016ZM147.216 262.621C147.044 262.641 146.885 262.627 146.738 262.579C146.591 262.529 146.469 262.448 146.373 262.334C146.276 262.219 146.218 262.073 146.199 261.897C146.181 261.741 146.198 261.612 146.248 261.508C146.298 261.403 146.371 261.317 146.467 261.25C146.563 261.183 146.672 261.128 146.792 261.087C146.913 261.044 147.036 261.007 147.16 260.975C147.322 260.935 147.454 260.903 147.555 260.881C147.657 260.857 147.73 260.828 147.774 260.796C147.819 260.763 147.838 260.713 147.831 260.646L147.829 260.632C147.809 260.458 147.747 260.328 147.641 260.243C147.536 260.158 147.387 260.126 147.196 260.149C146.997 260.172 146.846 260.234 146.743 260.334C146.64 260.435 146.571 260.537 146.536 260.641L146.126 260.547C146.178 260.374 146.257 260.234 146.365 260.129C146.473 260.022 146.595 259.942 146.731 259.889C146.868 259.835 147.004 259.799 147.141 259.783C147.228 259.773 147.329 259.772 147.444 259.78C147.56 259.786 147.675 259.815 147.788 259.866C147.902 259.917 148.001 260.003 148.086 260.122C148.171 260.242 148.226 260.41 148.25 260.625L148.45 262.411L148.034 262.46L147.993 262.093L147.972 262.095C147.95 262.158 147.91 262.226 147.852 262.301C147.794 262.376 147.713 262.443 147.608 262.503C147.504 262.563 147.374 262.602 147.216 262.621ZM147.238 262.239C147.402 262.22 147.537 262.171 147.643 262.093C147.75 262.015 147.826 261.921 147.872 261.812C147.919 261.703 147.937 261.592 147.924 261.479L147.881 261.098C147.866 261.121 147.829 261.145 147.771 261.17C147.715 261.193 147.648 261.216 147.572 261.238C147.497 261.259 147.423 261.278 147.351 261.296C147.281 261.313 147.223 261.327 147.179 261.338C147.073 261.365 146.974 261.4 146.884 261.442C146.794 261.484 146.724 261.539 146.674 261.608C146.624 261.676 146.605 261.763 146.617 261.869C146.633 262.014 146.699 262.117 146.814 262.178C146.931 262.238 147.072 262.259 147.238 262.239ZM149.21 262.321L148.906 259.611L149.308 259.564L149.354 259.973L149.382 259.97C149.416 259.83 149.493 259.711 149.613 259.612C149.733 259.513 149.874 259.454 150.037 259.435C150.067 259.431 150.105 259.427 150.151 259.423C150.197 259.419 150.232 259.417 150.256 259.416L150.304 259.84C150.289 259.838 150.256 259.836 150.205 259.835C150.154 259.833 150.102 259.835 150.046 259.841C149.915 259.857 149.8 259.898 149.703 259.966C149.607 260.032 149.534 260.117 149.485 260.22C149.437 260.323 149.42 260.435 149.434 260.557L149.626 262.272L149.21 262.321ZM152.101 259.235L152.141 259.587L150.737 259.753L150.697 259.4L152.101 259.235ZM151.033 258.702L151.45 258.653L151.74 261.237C151.753 261.354 151.78 261.44 151.82 261.495C151.862 261.549 151.911 261.582 151.968 261.596C152.025 261.608 152.084 261.611 152.145 261.604C152.191 261.598 152.229 261.591 152.257 261.583C152.286 261.574 152.309 261.566 152.326 261.561L152.453 261.925C152.426 261.939 152.388 261.954 152.338 261.971C152.289 261.988 152.226 262.002 152.148 262.011C152.031 262.025 151.913 262.013 151.794 261.976C151.677 261.938 151.575 261.872 151.489 261.777C151.405 261.682 151.354 261.556 151.336 261.399L151.033 258.702ZM155.647 261.613C155.414 261.64 155.202 261.625 155.011 261.566C154.821 261.508 154.664 261.413 154.541 261.284C154.419 261.153 154.343 260.993 154.312 260.805L154.757 260.752C154.779 260.868 154.83 260.964 154.91 261.04C154.99 261.115 155.09 261.169 155.209 261.201C155.328 261.234 155.457 261.242 155.596 261.226C155.751 261.207 155.886 261.164 155.999 261.096C156.113 261.028 156.199 260.941 156.256 260.837C156.314 260.732 156.335 260.616 156.321 260.489C156.306 260.356 156.26 260.243 156.183 260.15C156.105 260.055 156 259.987 155.866 259.944C155.733 259.901 155.575 259.891 155.391 259.912L155.102 259.946L155.058 259.558L155.348 259.524C155.491 259.507 155.614 259.467 155.716 259.402C155.82 259.337 155.897 259.254 155.947 259.153C155.999 259.052 156.018 258.937 156.004 258.81C155.99 258.688 155.951 258.585 155.887 258.501C155.822 258.416 155.738 258.355 155.634 258.316C155.53 258.277 155.412 258.265 155.28 258.281C155.155 258.295 155.04 258.332 154.935 258.391C154.83 258.449 154.748 258.525 154.689 258.619C154.629 258.711 154.603 258.818 154.61 258.939L154.187 258.989C154.173 258.799 154.211 258.626 154.302 258.471C154.393 258.315 154.52 258.187 154.684 258.086C154.849 257.986 155.036 257.923 155.244 257.899C155.467 257.872 155.664 257.895 155.834 257.967C156.004 258.037 156.14 258.141 156.242 258.278C156.345 258.415 156.405 258.569 156.424 258.739C156.447 258.943 156.413 259.123 156.322 259.279C156.233 259.435 156.1 259.551 155.924 259.628L155.927 259.656C156.159 259.667 156.348 259.743 156.494 259.884C156.64 260.025 156.725 260.209 156.751 260.439C156.773 260.635 156.739 260.818 156.65 260.987C156.562 261.155 156.431 261.294 156.257 261.405C156.084 261.516 155.88 261.585 155.647 261.613ZM160.093 261.096C159.848 261.125 159.627 261.092 159.43 260.997C159.233 260.902 159.071 260.756 158.944 260.559C158.819 260.362 158.74 260.123 158.709 259.843C158.677 259.561 158.7 259.309 158.779 259.086C158.859 258.863 158.984 258.683 159.154 258.545C159.326 258.406 159.534 258.323 159.778 258.294C160.023 258.265 160.243 258.298 160.44 258.393C160.637 258.488 160.799 258.634 160.925 258.833C161.052 259.031 161.131 259.272 161.163 259.554C161.195 259.834 161.17 260.085 161.09 260.306C161.012 260.528 160.886 260.708 160.715 260.846C160.545 260.984 160.337 261.067 160.093 261.096ZM160.051 260.722C160.236 260.7 160.384 260.635 160.493 260.525C160.602 260.416 160.677 260.28 160.717 260.118C160.757 259.956 160.767 259.784 160.747 259.603C160.727 259.422 160.679 259.257 160.604 259.107C160.529 258.957 160.426 258.841 160.295 258.759C160.164 258.677 160.006 258.646 159.82 258.668C159.634 258.69 159.487 258.756 159.378 258.867C159.269 258.978 159.194 259.114 159.154 259.278C159.114 259.441 159.104 259.613 159.125 259.794C159.145 259.975 159.193 260.14 159.268 260.289C159.343 260.437 159.446 260.552 159.576 260.633C159.707 260.714 159.865 260.744 160.051 260.722ZM162.851 257.968L162.89 258.321L161.43 258.493L161.391 258.14L162.851 257.968ZM162.132 260.799L161.786 257.714C161.769 257.559 161.791 257.425 161.852 257.313C161.913 257.201 161.999 257.112 162.11 257.047C162.22 256.981 162.34 256.941 162.469 256.926C162.572 256.914 162.656 256.912 162.723 256.921C162.789 256.93 162.839 256.939 162.872 256.95L162.793 257.324C162.771 257.319 162.74 257.314 162.702 257.308C162.664 257.301 162.615 257.302 162.555 257.309C162.418 257.325 162.322 257.372 162.269 257.448C162.217 257.525 162.198 257.63 162.213 257.764L162.549 260.75L162.132 260.799ZM166.009 257.596L166.048 257.949L164.645 258.114L164.605 257.761L166.009 257.596ZM164.941 257.064L165.357 257.015L165.647 259.598C165.661 259.715 165.687 259.802 165.728 259.856C165.77 259.91 165.819 259.943 165.875 259.957C165.933 259.969 165.992 259.972 166.053 259.965C166.099 259.959 166.136 259.952 166.165 259.944C166.194 259.935 166.217 259.928 166.234 259.922L166.361 260.286C166.334 260.3 166.295 260.315 166.246 260.332C166.197 260.349 166.133 260.363 166.056 260.372C165.938 260.386 165.82 260.374 165.702 260.337C165.584 260.299 165.483 260.233 165.397 260.139C165.313 260.044 165.262 259.917 165.244 259.76L164.941 257.064ZM167.23 258.546L167.413 260.176L166.997 260.225L166.591 256.612L167.007 256.563L167.156 257.889L167.192 257.885C167.239 257.738 167.322 257.615 167.44 257.518C167.559 257.42 167.724 257.358 167.937 257.333C168.122 257.311 168.288 257.329 168.435 257.387C168.582 257.443 168.702 257.543 168.795 257.686C168.89 257.827 168.95 258.014 168.976 258.247L169.17 259.969L168.753 260.018L168.563 258.324C168.539 258.109 168.464 257.949 168.34 257.845C168.216 257.739 168.056 257.698 167.859 257.721C167.723 257.737 167.604 257.78 167.502 257.851C167.402 257.921 167.327 258.015 167.277 258.133C167.228 258.251 167.212 258.388 167.23 258.546ZM171.073 259.802C170.812 259.833 170.58 259.802 170.378 259.709C170.177 259.615 170.013 259.469 169.888 259.273C169.763 259.076 169.685 258.838 169.654 258.561C169.623 258.283 169.646 258.032 169.723 257.809C169.802 257.584 169.925 257.401 170.094 257.261C170.264 257.119 170.471 257.034 170.716 257.005C170.857 256.989 170.999 256.996 171.142 257.027C171.285 257.057 171.418 257.119 171.543 257.212C171.668 257.303 171.773 257.431 171.86 257.596C171.946 257.761 172.003 257.97 172.032 258.223L172.052 258.4L169.964 258.646L169.923 258.286L171.588 258.09C171.571 257.937 171.525 257.804 171.45 257.691C171.377 257.578 171.281 257.493 171.161 257.437C171.043 257.381 170.908 257.362 170.758 257.379C170.592 257.399 170.453 257.457 170.341 257.553C170.231 257.649 170.15 257.766 170.1 257.904C170.05 258.042 170.034 258.186 170.05 258.335L170.077 258.575C170.1 258.78 170.155 258.949 170.242 259.083C170.329 259.216 170.441 259.312 170.576 259.371C170.711 259.429 170.863 259.448 171.031 259.428C171.14 259.415 171.237 259.388 171.322 259.347C171.408 259.305 171.479 259.249 171.537 259.179C171.595 259.108 171.636 259.023 171.66 258.925L172.075 258.99C172.048 259.132 171.99 259.26 171.902 259.376C171.814 259.49 171.699 259.584 171.559 259.659C171.418 259.733 171.256 259.781 171.073 259.802ZM174.274 259.368L173.868 255.754L174.284 255.705L174.434 257.039L174.469 257.035C174.495 256.984 174.53 256.919 174.576 256.84C174.623 256.759 174.695 256.684 174.79 256.614C174.887 256.543 175.024 256.498 175.2 256.477C175.428 256.45 175.636 256.483 175.822 256.577C176.009 256.67 176.163 256.816 176.284 257.014C176.405 257.212 176.482 257.453 176.514 257.738C176.546 258.025 176.525 258.279 176.451 258.502C176.377 258.722 176.26 258.901 176.1 259.036C175.94 259.171 175.747 259.251 175.522 259.278C175.348 259.298 175.205 259.286 175.094 259.241C174.983 259.194 174.895 259.137 174.83 259.07C174.765 259.001 174.715 258.944 174.679 258.898L174.629 258.904L174.676 259.32L174.274 259.368ZM174.531 257.964C174.554 258.169 174.604 258.346 174.682 258.496C174.759 258.644 174.86 258.755 174.985 258.83C175.11 258.903 175.256 258.93 175.423 258.911C175.597 258.89 175.737 258.827 175.843 258.722C175.951 258.615 176.025 258.48 176.066 258.316C176.108 258.152 176.118 257.973 176.097 257.78C176.075 257.589 176.027 257.421 175.951 257.275C175.876 257.128 175.775 257.016 175.647 256.941C175.521 256.864 175.369 256.836 175.193 256.857C175.023 256.877 174.886 256.936 174.78 257.036C174.675 257.134 174.601 257.263 174.56 257.423C174.518 257.582 174.508 257.762 174.531 257.964ZM178.444 258.934C178.183 258.964 177.951 258.933 177.749 258.84C177.548 258.746 177.384 258.601 177.259 258.405C177.134 258.207 177.056 257.97 177.025 257.692C176.994 257.414 177.017 257.164 177.094 256.94C177.173 256.715 177.296 256.533 177.465 256.392C177.635 256.251 177.842 256.165 178.087 256.137C178.228 256.12 178.37 256.127 178.513 256.158C178.655 256.189 178.789 256.25 178.914 256.343C179.039 256.434 179.144 256.563 179.23 256.728C179.317 256.893 179.374 257.102 179.403 257.355L179.423 257.531L177.335 257.777L177.294 257.417L178.959 257.221C178.942 257.068 178.896 256.935 178.821 256.822C178.748 256.709 178.651 256.625 178.532 256.569C178.414 256.512 178.279 256.493 178.129 256.511C177.963 256.53 177.824 256.588 177.712 256.685C177.602 256.78 177.521 256.897 177.471 257.035C177.421 257.173 177.405 257.317 177.421 257.467L177.448 257.706C177.471 257.911 177.526 258.081 177.613 258.215C177.7 258.347 177.811 258.443 177.947 258.502C178.082 258.56 178.234 258.579 178.402 258.56C178.511 258.547 178.608 258.52 178.693 258.479C178.779 258.436 178.85 258.38 178.908 258.31C178.965 258.239 179.007 258.155 179.031 258.056L179.446 258.122C179.419 258.263 179.361 258.392 179.273 258.507C179.185 258.621 179.07 258.716 178.93 258.791C178.789 258.864 178.627 258.912 178.444 258.934ZM181.874 256.341L181.512 256.491C181.482 256.431 181.44 256.375 181.388 256.321C181.336 256.267 181.27 256.225 181.188 256.195C181.106 256.165 181.004 256.158 180.883 256.172C180.718 256.191 180.584 256.246 180.482 256.335C180.381 256.423 180.337 256.526 180.35 256.642C180.362 256.746 180.409 256.823 180.49 256.874C180.572 256.925 180.696 256.961 180.86 256.983L181.273 257.034C181.522 257.064 181.712 257.133 181.845 257.24C181.977 257.346 182.054 257.494 182.075 257.683C182.092 257.839 182.063 257.983 181.988 258.116C181.913 258.248 181.801 258.359 181.65 258.449C181.499 258.538 181.319 258.595 181.108 258.62C180.832 258.652 180.596 258.619 180.402 258.52C180.207 258.422 180.073 258.26 179.999 258.035L180.383 257.89C180.437 258.031 180.52 258.132 180.633 258.193C180.747 258.253 180.889 258.274 181.06 258.253C181.254 258.231 181.403 258.171 181.508 258.076C181.614 257.978 181.66 257.872 181.647 257.755C181.637 257.661 181.595 257.586 181.522 257.53C181.449 257.473 181.342 257.437 181.202 257.421L180.739 257.369C180.484 257.339 180.292 257.269 180.162 257.16C180.032 257.049 179.957 256.899 179.936 256.712C179.919 256.56 179.947 256.419 180.019 256.291C180.093 256.164 180.201 256.057 180.343 255.973C180.486 255.888 180.652 255.834 180.843 255.812C181.111 255.78 181.328 255.814 181.494 255.914C181.661 256.013 181.788 256.156 181.874 256.341ZM183.66 255.516L183.699 255.869L182.296 256.034L182.256 255.681L183.66 255.516ZM182.592 254.983L183.009 254.934L183.299 257.518C183.312 257.635 183.339 257.722 183.379 257.776C183.421 257.83 183.47 257.863 183.527 257.877C183.584 257.889 183.643 257.892 183.704 257.885C183.75 257.879 183.787 257.872 183.816 257.864C183.845 257.855 183.868 257.847 183.885 257.842L184.012 258.206C183.985 258.22 183.947 258.235 183.897 258.252C183.848 258.269 183.785 258.283 183.707 258.292C183.59 258.306 183.472 258.294 183.353 258.257C183.236 258.219 183.134 258.153 183.048 258.058C182.964 257.964 182.913 257.837 182.895 257.68L182.592 254.983ZM186.224 255.828L185.862 255.978C185.832 255.919 185.79 255.862 185.738 255.809C185.686 255.754 185.62 255.712 185.538 255.682C185.456 255.653 185.354 255.645 185.233 255.659C185.067 255.679 184.933 255.733 184.832 255.823C184.731 255.911 184.687 256.013 184.7 256.13C184.711 256.233 184.758 256.31 184.84 256.362C184.922 256.413 185.045 256.449 185.21 256.47L185.623 256.521C185.872 256.552 186.062 256.62 186.195 256.728C186.327 256.834 186.404 256.981 186.425 257.171C186.442 257.326 186.413 257.47 186.338 257.603C186.263 257.736 186.15 257.847 186 257.936C185.849 258.025 185.668 258.082 185.458 258.107C185.182 258.14 184.946 258.107 184.752 258.008C184.557 257.909 184.423 257.747 184.349 257.523L184.733 257.377C184.787 257.519 184.87 257.62 184.983 257.68C185.097 257.741 185.239 257.761 185.41 257.741C185.604 257.718 185.753 257.659 185.858 257.563C185.964 257.466 186.01 257.359 185.997 257.243C185.986 257.148 185.945 257.074 185.872 257.018C185.799 256.961 185.692 256.925 185.552 256.909L185.089 256.856C184.834 256.827 184.642 256.757 184.511 256.647C184.382 256.536 184.307 256.387 184.286 256.2C184.269 256.047 184.297 255.907 184.369 255.779C184.443 255.651 184.551 255.545 184.693 255.46C184.836 255.375 185.002 255.322 185.193 255.299C185.461 255.268 185.678 255.302 185.844 255.401C186.011 255.501 186.138 255.643 186.224 255.828ZM188.278 257.775C188.017 257.805 187.785 257.774 187.583 257.681C187.382 257.587 187.219 257.442 187.093 257.246C186.968 257.048 186.89 256.811 186.859 256.533C186.828 256.255 186.851 256.005 186.929 255.781C187.007 255.556 187.131 255.374 187.299 255.233C187.469 255.092 187.677 255.007 187.921 254.978C188.062 254.961 188.204 254.968 188.347 254.999C188.49 255.03 188.623 255.092 188.748 255.184C188.873 255.276 188.978 255.404 189.065 255.569C189.151 255.734 189.209 255.943 189.237 256.196L189.257 256.372L187.169 256.618L187.129 256.258L188.793 256.062C188.776 255.909 188.73 255.776 188.656 255.664C188.582 255.551 188.486 255.466 188.366 255.41C188.248 255.353 188.114 255.334 187.963 255.352C187.797 255.371 187.658 255.429 187.547 255.526C187.436 255.621 187.355 255.738 187.305 255.876C187.255 256.014 187.239 256.158 187.256 256.308L187.283 256.548C187.306 256.752 187.36 256.922 187.447 257.056C187.534 257.188 187.646 257.284 187.781 257.343C187.916 257.401 188.068 257.42 188.236 257.401C188.345 257.388 188.442 257.361 188.527 257.32C188.613 257.278 188.685 257.221 188.742 257.151C188.8 257.08 188.841 256.996 188.866 256.897L189.28 256.963C189.253 257.104 189.196 257.233 189.107 257.348C189.019 257.462 188.904 257.557 188.764 257.632C188.623 257.705 188.461 257.753 188.278 257.775ZM190.037 253.849L190.442 257.462L190.026 257.512L189.62 253.898L190.037 253.849ZM191.215 253.71L191.621 257.324L191.205 257.373L190.799 253.759L191.215 253.71ZM192.383 257.234L192.079 254.524L192.495 254.475L192.799 257.185L192.383 257.234ZM192.24 254.047C192.158 254.056 192.085 254.037 192.02 253.989C191.957 253.94 191.92 253.877 191.912 253.799C191.903 253.722 191.924 253.652 191.976 253.59C192.028 253.528 192.095 253.492 192.176 253.482C192.257 253.473 192.33 253.492 192.394 253.541C192.458 253.589 192.495 253.652 192.504 253.73C192.513 253.807 192.491 253.877 192.438 253.939C192.387 254.002 192.321 254.037 192.24 254.047ZM193.794 255.416L193.977 257.046L193.561 257.095L193.257 254.385L193.659 254.337L193.707 254.761L193.742 254.757C193.79 254.612 193.874 254.49 193.994 254.391C194.114 254.291 194.276 254.229 194.48 254.205C194.664 254.183 194.828 254.202 194.974 254.261C195.12 254.319 195.24 254.419 195.333 254.562C195.427 254.703 195.486 254.89 195.512 255.12L195.706 256.842L195.289 256.891L195.099 255.197C195.075 254.984 195.001 254.825 194.878 254.719C194.754 254.612 194.595 254.57 194.402 254.593C194.27 254.609 194.154 254.651 194.056 254.721C193.959 254.791 193.887 254.885 193.839 255.003C193.792 255.12 193.777 255.258 193.794 255.416ZM197.68 257.697C197.479 257.72 197.303 257.715 197.153 257.68C197.002 257.647 196.874 257.594 196.768 257.522C196.664 257.45 196.578 257.371 196.511 257.284L196.817 257.012C196.86 257.057 196.914 257.107 196.979 257.164C197.043 257.222 197.128 257.269 197.234 257.304C197.34 257.34 197.475 257.349 197.639 257.33C197.857 257.304 198.032 257.23 198.162 257.107C198.292 256.984 198.345 256.81 198.32 256.584L198.258 256.034L198.222 256.038C198.197 256.091 198.161 256.157 198.113 256.237C198.065 256.315 197.993 256.389 197.894 256.457C197.797 256.525 197.66 256.569 197.484 256.59C197.265 256.616 197.063 256.587 196.878 256.504C196.693 256.421 196.539 256.286 196.416 256.101C196.294 255.915 196.217 255.681 196.185 255.398C196.154 255.121 196.176 254.873 196.25 254.656C196.325 254.437 196.442 254.261 196.604 254.128C196.765 253.993 196.959 253.913 197.188 253.886C197.364 253.865 197.507 253.878 197.617 253.925C197.728 253.97 197.816 254.026 197.879 254.094C197.944 254.16 197.994 254.215 198.03 254.258L198.072 254.253L198.024 253.823L198.426 253.776L198.739 256.563C198.765 256.796 198.733 256.992 198.644 257.15C198.556 257.31 198.427 257.434 198.257 257.523C198.088 257.613 197.896 257.671 197.68 257.697ZM197.498 256.209C197.665 256.189 197.802 256.135 197.909 256.044C198.015 255.954 198.091 255.834 198.134 255.684C198.178 255.533 198.189 255.358 198.167 255.158C198.145 254.962 198.096 254.794 198.02 254.651C197.945 254.509 197.845 254.402 197.72 254.331C197.595 254.26 197.448 254.234 197.279 254.254C197.103 254.275 196.961 254.337 196.853 254.44C196.747 254.543 196.673 254.673 196.631 254.831C196.59 254.988 196.58 255.159 196.601 255.342C196.622 255.53 196.67 255.693 196.745 255.831C196.821 255.968 196.922 256.07 197.047 256.139C197.174 256.206 197.324 256.23 197.498 256.209ZM202.571 253.902L202.209 254.052C202.178 253.992 202.137 253.936 202.085 253.883C202.033 253.828 201.966 253.786 201.884 253.756C201.803 253.726 201.701 253.719 201.58 253.733C201.414 253.752 201.28 253.807 201.178 253.896C201.078 253.985 201.034 254.087 201.047 254.203C201.058 254.307 201.105 254.384 201.187 254.435C201.269 254.486 201.392 254.523 201.557 254.544L201.97 254.595C202.219 254.625 202.409 254.694 202.541 254.801C202.674 254.907 202.75 255.055 202.772 255.244C202.789 255.4 202.76 255.544 202.684 255.677C202.61 255.809 202.497 255.92 202.347 256.01C202.196 256.099 202.015 256.156 201.805 256.181C201.528 256.213 201.293 256.18 201.099 256.082C200.904 255.983 200.77 255.821 200.696 255.596L201.08 255.451C201.134 255.592 201.217 255.693 201.33 255.754C201.444 255.814 201.586 255.835 201.756 255.815C201.95 255.792 202.1 255.732 202.205 255.637C202.31 255.539 202.357 255.433 202.344 255.316C202.333 255.222 202.291 255.147 202.218 255.091C202.145 255.035 202.039 254.998 201.899 254.982L201.436 254.93C201.181 254.9 200.989 254.831 200.858 254.721C200.729 254.61 200.654 254.461 200.633 254.274C200.616 254.121 200.643 253.98 200.716 253.853C200.79 253.725 200.898 253.618 201.039 253.534C201.182 253.449 201.349 253.395 201.54 253.373C201.808 253.341 202.025 253.375 202.191 253.475C202.358 253.574 202.485 253.717 202.571 253.902ZM204.625 255.848C204.364 255.879 204.132 255.848 203.93 255.755C203.729 255.661 203.565 255.516 203.44 255.319C203.315 255.122 203.237 254.884 203.206 254.607C203.175 254.329 203.198 254.079 203.275 253.855C203.354 253.63 203.477 253.447 203.646 253.307C203.816 253.165 204.023 253.08 204.268 253.051C204.409 253.035 204.551 253.042 204.694 253.073C204.837 253.104 204.97 253.165 205.095 253.258C205.22 253.349 205.325 253.477 205.412 253.642C205.498 253.807 205.555 254.016 205.584 254.269L205.604 254.446L203.516 254.692L203.475 254.332L205.14 254.136C205.123 253.983 205.077 253.85 205.002 253.737C204.929 253.624 204.833 253.54 204.713 253.483C204.595 253.427 204.46 253.408 204.31 253.425C204.144 253.445 204.005 253.503 203.893 253.6C203.783 253.695 203.702 253.812 203.652 253.95C203.602 254.088 203.586 254.232 203.602 254.381L203.629 254.621C203.652 254.826 203.707 254.995 203.794 255.129C203.881 255.262 203.993 255.358 204.128 255.417C204.263 255.475 204.415 255.494 204.583 255.474C204.692 255.461 204.789 255.435 204.874 255.394C204.96 255.351 205.031 255.295 205.089 255.225C205.147 255.154 205.188 255.069 205.212 254.971L205.627 255.037C205.6 255.178 205.542 255.306 205.454 255.422C205.366 255.536 205.251 255.63 205.111 255.705C204.97 255.779 204.808 255.827 204.625 255.848ZM206.373 255.585L206.069 252.875L206.471 252.828L206.517 253.237L206.545 253.234C206.579 253.094 206.656 252.974 206.776 252.876C206.896 252.777 207.037 252.718 207.2 252.699C207.23 252.695 207.268 252.691 207.314 252.687C207.36 252.683 207.395 252.68 207.419 252.68L207.467 253.104C207.452 253.102 207.419 253.1 207.368 253.099C207.318 253.097 207.265 253.099 207.209 253.105C207.078 253.121 206.963 253.162 206.866 253.23C206.77 253.296 206.697 253.381 206.648 253.484C206.6 253.586 206.583 253.699 206.597 253.821L206.789 255.536L206.373 255.585ZM208.221 255.367L207.916 252.657L208.332 252.608L208.637 255.318L208.221 255.367ZM208.077 252.181C207.996 252.19 207.923 252.171 207.858 252.122C207.794 252.074 207.758 252.011 207.749 251.933C207.741 251.856 207.762 251.786 207.813 251.724C207.866 251.661 207.933 251.625 208.014 251.616C208.095 251.606 208.167 251.626 208.231 251.674C208.296 251.723 208.333 251.786 208.342 251.863C208.35 251.941 208.329 252.011 208.276 252.073C208.225 252.135 208.158 252.171 208.077 252.181ZM210.541 255.151C210.28 255.182 210.048 255.151 209.846 255.058C209.645 254.964 209.482 254.818 209.356 254.622C209.231 254.425 209.153 254.187 209.122 253.91C209.091 253.632 209.114 253.381 209.191 253.158C209.27 252.933 209.393 252.75 209.562 252.61C209.732 252.468 209.939 252.383 210.184 252.354C210.325 252.338 210.467 252.345 210.61 252.376C210.753 252.406 210.886 252.468 211.011 252.561C211.136 252.652 211.241 252.78 211.328 252.945C211.414 253.11 211.472 253.319 211.5 253.572L211.52 253.749L209.432 253.995L209.392 253.635L211.056 253.439C211.039 253.286 210.993 253.153 210.918 253.04C210.845 252.927 210.749 252.843 210.629 252.786C210.511 252.73 210.376 252.711 210.226 252.728C210.06 252.748 209.921 252.806 209.81 252.903C209.699 252.998 209.618 253.115 209.568 253.253C209.518 253.391 209.502 253.535 209.519 253.684L209.546 253.924C209.568 254.129 209.623 254.298 209.71 254.432C209.797 254.565 209.909 254.661 210.044 254.72C210.179 254.778 210.331 254.797 210.499 254.777C210.608 254.764 210.705 254.737 210.79 254.696C210.876 254.654 210.947 254.598 211.005 254.528C211.063 254.457 211.104 254.372 211.128 254.274L211.543 254.339C211.516 254.481 211.459 254.609 211.37 254.725C211.282 254.839 211.167 254.933 211.027 255.008C210.886 255.082 210.724 255.13 210.541 255.151ZM213.972 252.559L213.61 252.709C213.579 252.649 213.538 252.593 213.485 252.539C213.434 252.484 213.367 252.442 213.285 252.412C213.203 252.383 213.102 252.375 212.981 252.389C212.815 252.409 212.681 252.463 212.579 252.553C212.478 252.641 212.434 252.743 212.447 252.86C212.459 252.963 212.506 253.041 212.588 253.092C212.67 253.143 212.793 253.179 212.957 253.2L213.37 253.252C213.619 253.282 213.81 253.351 213.942 253.458C214.074 253.564 214.151 253.712 214.172 253.901C214.19 254.056 214.161 254.2 214.085 254.333C214.011 254.466 213.898 254.577 213.747 254.666C213.596 254.755 213.416 254.812 213.205 254.837C212.929 254.87 212.694 254.837 212.499 254.738C212.305 254.639 212.17 254.478 212.096 254.253L212.48 254.107C212.534 254.249 212.618 254.35 212.73 254.41C212.844 254.471 212.987 254.491 213.157 254.471C213.351 254.448 213.5 254.389 213.605 254.293C213.711 254.196 213.757 254.089 213.744 253.973C213.734 253.879 213.692 253.804 213.619 253.748C213.546 253.691 213.439 253.655 213.3 253.639L212.836 253.586C212.582 253.557 212.389 253.487 212.259 253.377C212.13 253.266 212.055 253.117 212.034 252.93C212.016 252.777 212.044 252.637 212.117 252.509C212.19 252.381 212.298 252.275 212.44 252.19C212.583 252.105 212.75 252.052 212.94 252.029C213.208 251.998 213.425 252.032 213.591 252.131C213.758 252.231 213.885 252.373 213.972 252.559ZM215.86 251.95L215.824 251.632C215.814 251.536 215.819 251.432 215.841 251.319C215.864 251.206 215.903 251.094 215.957 250.986C216.013 250.875 216.083 250.777 216.169 250.691L216.415 250.848C216.353 250.962 216.301 251.08 216.259 251.202C216.217 251.323 216.204 251.448 216.219 251.579L216.255 251.903L215.86 251.95ZM216.763 251.844L216.727 251.526C216.716 251.429 216.722 251.325 216.744 251.213C216.767 251.099 216.806 250.988 216.86 250.879C216.916 250.769 216.986 250.671 217.072 250.584L217.318 250.741C217.256 250.856 217.204 250.974 217.161 251.096C217.12 251.216 217.107 251.342 217.121 251.472L217.158 251.797L216.763 251.844ZM218.884 254.111L217.49 250.614L217.935 250.561L219.02 253.415L219.055 253.411L219.494 250.378L219.987 250.319L221.087 253.172L221.122 253.168L221.546 250.136L221.991 250.083L221.409 253.813L220.957 253.867L219.837 251.081L219.809 251.084L219.335 254.058L218.884 254.111ZM223.118 251.96L223.301 253.59L222.885 253.639L222.479 250.026L222.895 249.977L223.044 251.304L223.079 251.299C223.127 251.152 223.21 251.03 223.328 250.932C223.446 250.834 223.612 250.772 223.825 250.747C224.01 250.725 224.175 250.743 224.322 250.801C224.469 250.857 224.589 250.957 224.683 251.1C224.777 251.241 224.838 251.428 224.864 251.661L225.057 253.383L224.641 253.432L224.451 251.739C224.427 251.523 224.352 251.363 224.227 251.259C224.103 251.153 223.943 251.112 223.747 251.135C223.611 251.151 223.492 251.194 223.39 251.265C223.289 251.335 223.214 251.429 223.164 251.547C223.116 251.665 223.1 251.802 223.118 251.96ZM226.104 254.29C226.033 254.298 225.97 254.3 225.913 254.294C225.857 254.29 225.817 254.284 225.795 254.276L225.859 253.897C225.963 253.911 226.054 253.91 226.131 253.893C226.207 253.877 226.272 253.834 226.325 253.765C226.38 253.697 226.424 253.591 226.459 253.447L226.513 253.226L225.206 250.62L225.657 250.567L226.647 252.638L226.675 252.635L227.181 250.387L227.632 250.334L226.831 253.575C226.795 253.721 226.744 253.844 226.678 253.945C226.612 254.047 226.531 254.126 226.435 254.183C226.34 254.239 226.229 254.275 226.104 254.29ZM230.264 253.8C230.194 253.808 230.13 253.809 230.074 253.804C230.017 253.8 229.978 253.794 229.956 253.786L230.02 253.406C230.124 253.42 230.215 253.419 230.291 253.403C230.368 253.387 230.433 253.344 230.486 253.275C230.54 253.206 230.585 253.1 230.62 252.957L230.674 252.736L229.366 250.129L229.818 250.076L230.808 252.148L230.836 252.145L231.341 249.897L231.793 249.844L230.992 253.085C230.956 253.231 230.905 253.354 230.838 253.455C230.773 253.557 230.691 253.636 230.595 253.693C230.5 253.749 230.39 253.785 230.264 253.8ZM233.656 252.427C233.411 252.456 233.19 252.423 232.993 252.328C232.796 252.234 232.635 252.088 232.508 251.89C232.382 251.693 232.303 251.454 232.272 251.174C232.24 250.892 232.264 250.64 232.342 250.417C232.422 250.194 232.547 250.014 232.717 249.876C232.889 249.738 233.097 249.654 233.341 249.625C233.586 249.596 233.806 249.63 234.003 249.724C234.201 249.819 234.362 249.966 234.488 250.164C234.615 250.363 234.695 250.603 234.726 250.885C234.758 251.165 234.734 251.416 234.654 251.638C234.575 251.859 234.45 252.039 234.278 252.177C234.108 252.315 233.901 252.398 233.656 252.427ZM233.614 252.053C233.8 252.031 233.947 251.966 234.056 251.856C234.166 251.747 234.24 251.611 234.28 251.449C234.321 251.287 234.331 251.115 234.31 250.934C234.29 250.753 234.242 250.588 234.167 250.438C234.092 250.288 233.989 250.172 233.858 250.09C233.727 250.008 233.569 249.977 233.383 249.999C233.198 250.021 233.05 250.088 232.941 250.198C232.832 250.309 232.758 250.446 232.717 250.609C232.677 250.772 232.668 250.944 232.688 251.125C232.708 251.307 232.756 251.471 232.831 251.62C232.906 251.768 233.009 251.883 233.139 251.964C233.27 252.045 233.428 252.075 233.614 252.053ZM237.095 250.842L236.915 249.24L237.331 249.191L237.635 251.901L237.219 251.95L237.168 251.491L237.139 251.495C237.091 251.64 237.006 251.769 236.883 251.881C236.759 251.992 236.595 252.059 236.391 252.084C236.222 252.104 236.067 252.084 235.927 252.026C235.787 251.966 235.671 251.865 235.579 251.723C235.486 251.581 235.427 251.394 235.401 251.163L235.208 249.441L235.624 249.392L235.814 251.086C235.836 251.284 235.909 251.435 236.033 251.539C236.158 251.644 236.307 251.686 236.48 251.665C236.583 251.653 236.685 251.614 236.786 251.549C236.889 251.483 236.97 251.391 237.031 251.273C237.092 251.155 237.114 251.012 237.095 250.842ZM143.929 268.985L143.625 266.275L144.027 266.227L144.073 266.637L144.101 266.633C144.136 266.494 144.213 266.374 144.333 266.275C144.453 266.177 144.594 266.118 144.756 266.099C144.786 266.095 144.825 266.091 144.871 266.087C144.917 266.083 144.952 266.08 144.975 266.08L145.023 266.503C145.008 266.502 144.975 266.5 144.924 266.499C144.874 266.497 144.821 266.499 144.766 266.505C144.634 266.521 144.52 266.562 144.422 266.63C144.326 266.696 144.254 266.781 144.204 266.884C144.156 266.986 144.139 267.099 144.153 267.221L144.346 268.936L143.929 268.985ZM145.777 268.767L145.473 266.057L145.889 266.008L146.193 268.718L145.777 268.767ZM145.634 265.58C145.552 265.59 145.479 265.571 145.414 265.522C145.351 265.474 145.314 265.411 145.306 265.333C145.297 265.255 145.318 265.186 145.37 265.123C145.422 265.061 145.489 265.025 145.57 265.016C145.651 265.006 145.724 265.026 145.788 265.074C145.853 265.123 145.889 265.186 145.898 265.263C145.907 265.341 145.885 265.411 145.832 265.473C145.781 265.535 145.715 265.571 145.634 265.58ZM148.169 269.572C147.968 269.596 147.792 269.591 147.642 269.556C147.492 269.522 147.364 269.47 147.258 269.397C147.153 269.326 147.068 269.247 147.001 269.159L147.306 268.888C147.349 268.932 147.403 268.983 147.468 269.04C147.533 269.098 147.618 269.145 147.723 269.18C147.829 269.216 147.964 269.225 148.128 269.205C148.346 269.18 148.521 269.105 148.651 268.983C148.782 268.86 148.834 268.686 148.809 268.46L148.747 267.91L148.712 267.914C148.687 267.967 148.65 268.033 148.602 268.113C148.555 268.191 148.482 268.264 148.384 268.333C148.286 268.401 148.15 268.445 147.973 268.466C147.755 268.491 147.553 268.463 147.367 268.38C147.182 268.297 147.029 268.162 146.905 267.976C146.783 267.791 146.706 267.557 146.675 267.274C146.643 266.997 146.665 266.749 146.74 266.532C146.814 266.313 146.932 266.137 147.093 266.004C147.254 265.869 147.449 265.788 147.677 265.762C147.853 265.741 147.996 265.754 148.106 265.8C148.218 265.846 148.305 265.902 148.368 265.97C148.433 266.036 148.483 266.091 148.519 266.134L148.561 266.129L148.513 265.699L148.915 265.651L149.228 268.439C149.254 268.672 149.223 268.868 149.133 269.026C149.045 269.186 148.916 269.31 148.746 269.399C148.578 269.489 148.385 269.547 148.169 269.572ZM147.988 268.085C148.155 268.065 148.291 268.01 148.398 267.92C148.505 267.83 148.58 267.71 148.624 267.559C148.668 267.409 148.678 267.234 148.656 267.034C148.634 266.838 148.585 266.669 148.51 266.527C148.434 266.385 148.334 266.278 148.209 266.207C148.085 266.135 147.938 266.11 147.768 266.13C147.592 266.151 147.45 266.213 147.342 266.316C147.236 266.419 147.162 266.549 147.12 266.707C147.079 266.864 147.069 267.035 147.09 267.218C147.111 267.406 147.159 267.569 147.234 267.707C147.31 267.844 147.411 267.946 147.537 268.015C147.663 268.082 147.814 268.105 147.988 268.085ZM150.214 266.592L150.397 268.223L149.981 268.272L149.576 264.658L149.992 264.609L150.141 265.936L150.176 265.932C150.224 265.784 150.306 265.662 150.424 265.565C150.543 265.466 150.709 265.404 150.921 265.379C151.106 265.357 151.272 265.376 151.419 265.433C151.566 265.49 151.686 265.59 151.779 265.732C151.874 265.874 151.934 266.061 151.96 266.294L152.154 268.016L151.738 268.065L151.547 266.371C151.523 266.156 151.449 265.996 151.324 265.891C151.2 265.786 151.04 265.744 150.844 265.767C150.707 265.784 150.588 265.827 150.486 265.897C150.386 265.967 150.311 266.061 150.261 266.179C150.212 266.297 150.197 266.435 150.214 266.592ZM153.789 265.077L153.828 265.43L152.425 265.595L152.385 265.243L153.789 265.077ZM152.721 264.545L153.137 264.496L153.427 267.079C153.441 267.197 153.468 267.283 153.508 267.338C153.55 267.391 153.599 267.425 153.655 267.438C153.713 267.451 153.772 267.453 153.833 267.446C153.879 267.441 153.916 267.434 153.945 267.426C153.974 267.416 153.997 267.409 154.014 267.403L154.141 267.767C154.114 267.781 154.076 267.797 154.026 267.813C153.977 267.831 153.914 267.844 153.836 267.853C153.718 267.867 153.6 267.856 153.482 267.818C153.364 267.781 153.263 267.715 153.177 267.62C153.093 267.525 153.042 267.399 153.024 267.241L152.721 264.545ZM155.621 264.861L155.66 265.214L154.2 265.386L154.161 265.033L155.621 264.861ZM154.902 267.692L154.556 264.608C154.539 264.452 154.561 264.319 154.622 264.207C154.683 264.095 154.769 264.006 154.88 263.94C154.99 263.875 155.11 263.834 155.239 263.819C155.342 263.807 155.426 263.806 155.493 263.814C155.559 263.823 155.609 263.833 155.642 263.843L155.563 264.217C155.541 264.213 155.51 264.207 155.472 264.201C155.434 264.195 155.385 264.195 155.325 264.202C155.188 264.219 155.092 264.265 155.039 264.342C154.987 264.418 154.968 264.523 154.983 264.657L155.319 267.643L154.902 267.692ZM158.091 266.193L157.911 264.591L158.327 264.542L158.631 267.253L158.215 267.302L158.164 266.843L158.136 266.846C158.088 266.991 158.002 267.12 157.879 267.232C157.755 267.343 157.591 267.411 157.387 267.435C157.218 267.455 157.063 267.436 156.923 267.377C156.783 267.317 156.667 267.216 156.575 267.075C156.482 266.932 156.423 266.745 156.397 266.515L156.204 264.792L156.62 264.743L156.81 266.437C156.833 266.635 156.906 266.786 157.029 266.891C157.154 266.995 157.303 267.037 157.476 267.017C157.579 267.005 157.681 266.966 157.783 266.9C157.885 266.835 157.966 266.743 158.027 266.625C158.089 266.507 158.11 266.363 158.091 266.193ZM159.404 263.5L159.81 267.114L159.394 267.163L158.988 263.549L159.404 263.5ZM160.582 263.361L160.988 266.975L160.572 267.024L160.166 263.41L160.582 263.361ZM162.133 267.87C162.062 267.878 161.998 267.88 161.942 267.874C161.885 267.87 161.846 267.864 161.824 267.856L161.888 267.477C161.992 267.491 162.083 267.489 162.159 267.473C162.236 267.457 162.301 267.414 162.354 267.345C162.408 267.276 162.453 267.17 162.488 267.027L162.542 266.806L161.234 264.2L161.686 264.147L162.676 266.218L162.704 266.215L163.209 263.967L163.661 263.914L162.86 267.155C162.824 267.301 162.773 267.424 162.707 267.525C162.641 267.627 162.56 267.706 162.464 267.763C162.369 267.819 162.258 267.855 162.133 267.87ZM166.144 264.715L166.327 266.346L165.911 266.395L165.505 262.781L165.921 262.732L166.07 264.059L166.106 264.055C166.153 263.907 166.236 263.785 166.354 263.688C166.473 263.589 166.638 263.527 166.851 263.502C167.036 263.48 167.202 263.498 167.349 263.556C167.496 263.613 167.616 263.712 167.709 263.855C167.804 263.996 167.864 264.184 167.89 264.417L168.084 266.139L167.667 266.188L167.477 264.494C167.453 264.279 167.378 264.119 167.254 264.014C167.13 263.908 166.97 263.867 166.773 263.89C166.637 263.906 166.518 263.95 166.416 264.02C166.316 264.09 166.241 264.184 166.191 264.302C166.142 264.42 166.126 264.558 166.144 264.715ZM169.649 266.019C169.477 266.039 169.318 266.025 169.171 265.977C169.024 265.927 168.902 265.846 168.806 265.732C168.709 265.617 168.651 265.471 168.632 265.295C168.614 265.139 168.631 265.01 168.681 264.906C168.731 264.801 168.804 264.715 168.9 264.648C168.996 264.581 169.104 264.526 169.225 264.485C169.346 264.442 169.469 264.405 169.593 264.373C169.755 264.333 169.887 264.301 169.988 264.278C170.09 264.254 170.163 264.226 170.207 264.194C170.252 264.161 170.271 264.111 170.263 264.044L170.262 264.03C170.242 263.856 170.18 263.726 170.074 263.641C169.969 263.555 169.82 263.524 169.629 263.547C169.43 263.57 169.279 263.632 169.176 263.732C169.073 263.833 169.004 263.935 168.969 264.039L168.559 263.944C168.611 263.771 168.69 263.632 168.797 263.527C168.906 263.42 169.028 263.34 169.164 263.287C169.3 263.232 169.437 263.197 169.573 263.181C169.66 263.171 169.762 263.17 169.877 263.178C169.993 263.184 170.108 263.213 170.221 263.264C170.335 263.315 170.434 263.4 170.519 263.52C170.604 263.64 170.659 263.808 170.683 264.023L170.883 265.809L170.467 265.858L170.426 265.491L170.405 265.493C170.383 265.555 170.343 265.624 170.285 265.699C170.227 265.774 170.145 265.841 170.041 265.901C169.937 265.961 169.807 266 169.649 266.019ZM169.671 265.637C169.835 265.618 169.97 265.569 170.076 265.491C170.183 265.413 170.259 265.319 170.305 265.21C170.352 265.101 170.37 264.99 170.357 264.877L170.314 264.496C170.299 264.519 170.262 264.543 170.204 264.568C170.147 264.591 170.081 264.614 170.005 264.636C169.93 264.657 169.856 264.676 169.784 264.694C169.714 264.711 169.656 264.725 169.612 264.736C169.506 264.763 169.407 264.797 169.317 264.84C169.227 264.882 169.157 264.937 169.107 265.006C169.057 265.074 169.038 265.161 169.05 265.267C169.066 265.411 169.132 265.515 169.247 265.576C169.364 265.636 169.505 265.657 169.671 265.637ZM172.517 262.87L172.556 263.223L171.152 263.389L171.113 263.036L172.517 262.87ZM171.449 262.338L171.865 262.289L172.155 264.872C172.168 264.99 172.195 265.076 172.236 265.131C172.278 265.184 172.327 265.218 172.383 265.232C172.441 265.244 172.5 265.246 172.561 265.239C172.607 265.234 172.644 265.227 172.673 265.219C172.702 265.21 172.725 265.202 172.742 265.196L172.869 265.561C172.842 265.574 172.803 265.59 172.754 265.606C172.705 265.624 172.641 265.637 172.564 265.646C172.446 265.66 172.328 265.649 172.21 265.611C172.092 265.574 171.991 265.508 171.905 265.413C171.821 265.318 171.769 265.192 171.752 265.034L171.449 262.338ZM174.56 265.433C174.299 265.464 174.067 265.432 173.865 265.339C173.664 265.245 173.5 265.1 173.375 264.904C173.25 264.706 173.172 264.469 173.141 264.191C173.11 263.914 173.133 263.663 173.21 263.439C173.289 263.214 173.412 263.032 173.581 262.891C173.751 262.75 173.958 262.665 174.203 262.636C174.344 262.619 174.486 262.626 174.629 262.657C174.771 262.688 174.905 262.75 175.03 262.842C175.155 262.934 175.26 263.062 175.346 263.227C175.433 263.392 175.49 263.601 175.519 263.854L175.539 264.03L173.451 264.276L173.41 263.916L175.075 263.72C175.058 263.567 175.012 263.434 174.937 263.322C174.864 263.209 174.767 263.124 174.648 263.068C174.53 263.011 174.395 262.992 174.245 263.01C174.079 263.029 173.94 263.087 173.828 263.184C173.718 263.279 173.637 263.396 173.587 263.534C173.537 263.672 173.521 263.816 173.537 263.966L173.564 264.206C173.587 264.41 173.642 264.58 173.728 264.714C173.816 264.846 173.927 264.942 174.063 265.001C174.198 265.059 174.35 265.078 174.518 265.059C174.627 265.046 174.724 265.019 174.809 264.978C174.895 264.936 174.966 264.879 175.024 264.81C175.081 264.738 175.123 264.654 175.147 264.555L175.562 264.621C175.535 264.762 175.477 264.891 175.389 265.006C175.301 265.12 175.186 265.215 175.046 265.29C174.905 265.363 174.743 265.411 174.56 265.433ZM178.738 261.222L179.175 261.17L179.465 263.753C179.491 263.984 179.471 264.185 179.404 264.356C179.337 264.527 179.232 264.663 179.087 264.765C178.943 264.867 178.766 264.93 178.556 264.955C178.359 264.978 178.179 264.963 178.017 264.909C177.855 264.854 177.722 264.765 177.619 264.641C177.516 264.518 177.454 264.363 177.433 264.179L177.863 264.128C177.875 264.23 177.91 264.317 177.969 264.387C178.029 264.457 178.107 264.507 178.201 264.539C178.295 264.571 178.399 264.58 178.513 264.566C178.639 264.552 178.743 264.513 178.825 264.449C178.907 264.386 178.965 264.3 179 264.193C179.035 264.084 179.044 263.954 179.028 263.805L178.738 261.222ZM181.205 264.657C181.033 264.677 180.874 264.663 180.727 264.615C180.579 264.565 180.458 264.484 180.361 264.37C180.265 264.255 180.207 264.109 180.187 263.933C180.17 263.778 180.186 263.648 180.237 263.544C180.287 263.44 180.36 263.354 180.456 263.286C180.552 263.219 180.66 263.164 180.781 263.123C180.902 263.08 181.025 263.043 181.149 263.011C181.311 262.971 181.443 262.939 181.544 262.917C181.646 262.893 181.719 262.864 181.763 262.832C181.808 262.799 181.827 262.749 181.819 262.682L181.818 262.668C181.798 262.494 181.735 262.364 181.629 262.279C181.524 262.194 181.376 262.162 181.185 262.185C180.986 262.208 180.835 262.27 180.732 262.37C180.629 262.471 180.56 262.573 180.525 262.677L180.114 262.583C180.166 262.41 180.246 262.27 180.353 262.165C180.462 262.058 180.584 261.978 180.719 261.925C180.856 261.871 180.993 261.836 181.129 261.82C181.216 261.809 181.317 261.808 181.433 261.816C181.549 261.823 181.663 261.851 181.776 261.902C181.89 261.953 181.99 262.039 182.075 262.159C182.16 262.279 182.214 262.446 182.239 262.661L182.439 264.447L182.023 264.496L181.982 264.129L181.961 264.132C181.939 264.194 181.899 264.262 181.841 264.337C181.782 264.412 181.701 264.479 181.597 264.539C181.493 264.599 181.362 264.638 181.205 264.657ZM181.226 264.275C181.391 264.256 181.526 264.207 181.632 264.129C181.738 264.051 181.815 263.957 181.861 263.848C181.908 263.739 181.925 263.628 181.913 263.515L181.87 263.134C181.855 263.157 181.818 263.181 181.76 263.206C181.703 263.229 181.637 263.252 181.561 263.274C181.485 263.295 181.412 263.314 181.34 263.332C181.269 263.349 181.212 263.363 181.168 263.374C181.061 263.401 180.963 263.436 180.872 263.478C180.783 263.52 180.713 263.575 180.662 263.644C180.613 263.712 180.594 263.799 180.606 263.905C180.622 264.05 180.688 264.153 180.803 264.214C180.919 264.274 181.061 264.295 181.226 264.275ZM185.012 261.398L184.315 264.226L183.892 264.276L182.586 261.684L183.037 261.63L184.027 263.702L184.056 263.699L184.561 261.451L185.012 261.398ZM186.587 264.023C186.416 264.043 186.256 264.029 186.109 263.981C185.962 263.931 185.84 263.85 185.744 263.736C185.648 263.621 185.59 263.475 185.57 263.299C185.553 263.143 185.569 263.014 185.619 262.91C185.669 262.805 185.743 262.719 185.839 262.652C185.935 262.585 186.043 262.53 186.163 262.488C186.285 262.446 186.407 262.408 186.531 262.377C186.694 262.337 186.825 262.305 186.926 262.282C187.028 262.258 187.102 262.23 187.146 262.198C187.191 262.165 187.209 262.115 187.202 262.048L187.2 262.034C187.181 261.86 187.118 261.73 187.012 261.645C186.907 261.559 186.759 261.528 186.567 261.551C186.369 261.574 186.218 261.636 186.115 261.736C186.012 261.837 185.943 261.939 185.908 262.043L185.497 261.948C185.549 261.775 185.629 261.636 185.736 261.531C185.844 261.424 185.966 261.344 186.102 261.291C186.239 261.236 186.376 261.201 186.512 261.185C186.599 261.175 186.7 261.174 186.815 261.182C186.932 261.188 187.046 261.217 187.159 261.268C187.273 261.319 187.373 261.404 187.458 261.524C187.543 261.644 187.597 261.812 187.621 262.027L187.822 263.813L187.406 263.862L187.364 263.495L187.343 263.497C187.322 263.559 187.282 263.628 187.223 263.703C187.165 263.777 187.084 263.845 186.98 263.905C186.876 263.965 186.745 264.004 186.587 264.023ZM186.609 263.641C186.774 263.622 186.909 263.573 187.014 263.495C187.121 263.417 187.197 263.323 187.244 263.214C187.291 263.105 187.308 262.994 187.295 262.881L187.253 262.5C187.237 262.523 187.201 262.547 187.143 262.572C187.086 262.595 187.019 262.618 186.943 262.64C186.868 262.66 186.795 262.68 186.723 262.698C186.652 262.715 186.595 262.728 186.551 262.74C186.444 262.766 186.346 262.801 186.255 262.844C186.166 262.886 186.096 262.941 186.045 263.01C185.995 263.078 185.977 263.165 185.989 263.271C186.005 263.415 186.071 263.518 186.186 263.58C186.302 263.64 186.443 263.661 186.609 263.641ZM190.264 261.394L189.902 261.544C189.871 261.484 189.83 261.428 189.777 261.374C189.726 261.32 189.659 261.277 189.577 261.248C189.495 261.218 189.394 261.21 189.273 261.225C189.107 261.244 188.973 261.299 188.871 261.388C188.77 261.476 188.726 261.579 188.74 261.695C188.751 261.799 188.798 261.876 188.88 261.927C188.962 261.978 189.085 262.014 189.249 262.035L189.663 262.087C189.911 262.117 190.102 262.186 190.234 262.293C190.366 262.399 190.443 262.547 190.464 262.736C190.482 262.891 190.453 263.035 190.377 263.168C190.303 263.301 190.19 263.412 190.039 263.501C189.889 263.591 189.708 263.648 189.498 263.672C189.221 263.705 188.986 263.672 188.791 263.573C188.597 263.475 188.463 263.313 188.389 263.088L188.772 262.943C188.826 263.084 188.91 263.185 189.023 263.246C189.137 263.306 189.279 263.326 189.449 263.306C189.643 263.283 189.793 263.224 189.897 263.128C190.003 263.031 190.05 262.924 190.037 262.808C190.026 262.714 189.984 262.639 189.911 262.583C189.838 262.526 189.732 262.49 189.592 262.474L189.128 262.422C188.874 262.392 188.681 262.322 188.551 262.212C188.422 262.101 188.347 261.952 188.326 261.765C188.309 261.612 188.336 261.472 188.409 261.344C188.483 261.216 188.59 261.11 188.732 261.025C188.875 260.941 189.042 260.887 189.232 260.865C189.5 260.833 189.717 260.867 189.883 260.967C190.051 261.066 190.177 261.209 190.264 261.394ZM192.282 263.344C192.028 263.374 191.803 263.34 191.606 263.242C191.409 263.143 191.25 262.995 191.127 262.796C191.005 262.597 190.929 262.362 190.898 262.091C190.867 261.816 190.891 261.567 190.968 261.345C191.046 261.121 191.17 260.939 191.339 260.799C191.509 260.657 191.716 260.572 191.961 260.543C192.151 260.521 192.327 260.536 192.488 260.588C192.648 260.641 192.785 260.725 192.896 260.84C193.008 260.956 193.085 261.097 193.128 261.264L192.712 261.313C192.666 261.193 192.583 261.092 192.463 261.009C192.344 260.926 192.193 260.895 192.01 260.916C191.848 260.935 191.71 260.995 191.597 261.094C191.486 261.191 191.404 261.321 191.353 261.482C191.303 261.641 191.29 261.824 191.313 262.028C191.336 262.238 191.39 262.416 191.473 262.564C191.557 262.711 191.665 262.82 191.796 262.892C191.928 262.964 192.076 262.99 192.24 262.97C192.349 262.957 192.445 262.927 192.529 262.879C192.612 262.831 192.681 262.768 192.734 262.69C192.787 262.613 192.821 262.523 192.836 262.421L193.252 262.372C193.247 262.535 193.205 262.686 193.126 262.825C193.049 262.963 192.939 263.078 192.795 263.171C192.653 263.263 192.482 263.321 192.282 263.344ZM193.949 263.091L193.645 260.38L194.047 260.333L194.093 260.742L194.121 260.739C194.156 260.599 194.233 260.48 194.353 260.381C194.473 260.282 194.614 260.223 194.776 260.204C194.807 260.201 194.845 260.197 194.891 260.192C194.937 260.188 194.972 260.186 194.995 260.185L195.043 260.609C195.029 260.607 194.996 260.606 194.944 260.605C194.894 260.602 194.841 260.604 194.786 260.611C194.654 260.626 194.54 260.668 194.443 260.735C194.346 260.801 194.274 260.886 194.225 260.99C194.176 261.092 194.159 261.204 194.173 261.326L194.366 263.042L193.949 263.091ZM195.797 262.873L195.493 260.163L195.909 260.114L196.213 262.824L195.797 262.873ZM195.654 259.686C195.573 259.696 195.499 259.676 195.434 259.628C195.371 259.579 195.334 259.516 195.326 259.439C195.317 259.361 195.338 259.291 195.39 259.229C195.442 259.167 195.509 259.131 195.59 259.121C195.671 259.112 195.744 259.131 195.808 259.18C195.873 259.228 195.909 259.291 195.918 259.369C195.927 259.446 195.905 259.516 195.852 259.579C195.801 259.641 195.735 259.676 195.654 259.686ZM197.09 263.75L196.671 260.024L197.073 259.976L197.121 260.407L197.171 260.401C197.196 260.35 197.232 260.285 197.278 260.206C197.325 260.126 197.396 260.05 197.492 259.981C197.589 259.91 197.725 259.864 197.901 259.843C198.13 259.816 198.337 259.85 198.524 259.943C198.711 260.037 198.865 260.182 198.986 260.38C199.107 260.578 199.183 260.82 199.215 261.104C199.247 261.391 199.227 261.646 199.153 261.868C199.079 262.089 198.962 262.267 198.802 262.403C198.642 262.537 198.449 262.618 198.223 262.644C198.049 262.665 197.907 262.652 197.796 262.607C197.684 262.561 197.596 262.504 197.532 262.436C197.467 262.367 197.416 262.31 197.38 262.264L197.345 262.269L197.506 263.701L197.09 263.75ZM197.232 261.331C197.255 261.535 197.306 261.712 197.383 261.862C197.46 262.01 197.562 262.121 197.687 262.196C197.812 262.27 197.958 262.296 198.125 262.277C198.299 262.256 198.439 262.193 198.545 262.088C198.652 261.981 198.726 261.846 198.767 261.683C198.81 261.518 198.82 261.339 198.798 261.146C198.777 260.956 198.728 260.787 198.652 260.641C198.577 260.494 198.476 260.383 198.348 260.307C198.222 260.23 198.07 260.202 197.894 260.223C197.725 260.243 197.587 260.303 197.482 260.402C197.376 260.5 197.302 260.629 197.261 260.789C197.219 260.948 197.21 261.128 197.232 261.331ZM200.875 259.528L200.915 259.881L199.511 260.047L199.471 259.694L200.875 259.528ZM199.808 258.996L200.224 258.947L200.514 261.53C200.527 261.648 200.554 261.734 200.595 261.789C200.636 261.843 200.685 261.876 200.742 261.89C200.799 261.902 200.858 261.905 200.919 261.897C200.965 261.892 201.003 261.885 201.031 261.877C201.06 261.868 201.083 261.86 201.1 261.855L201.227 262.219C201.2 262.233 201.162 262.248 201.112 262.264C201.063 262.282 201 262.296 200.922 262.305C200.805 262.319 200.687 262.307 200.568 262.27C200.451 262.232 200.349 262.166 200.264 262.071C200.179 261.976 200.128 261.85 200.11 261.692L199.808 258.996ZM201.907 258.491L201.943 258.809C201.953 258.905 201.947 259.01 201.924 259.124C201.902 259.236 201.864 259.348 201.808 259.458C201.754 259.567 201.684 259.664 201.598 259.751L201.352 259.594C201.414 259.479 201.466 259.362 201.507 259.241C201.549 259.119 201.563 258.993 201.548 258.863L201.512 258.538L201.907 258.491ZM202.81 258.385L202.845 258.703C202.856 258.799 202.85 258.904 202.827 259.018C202.805 259.13 202.767 259.241 202.711 259.351C202.657 259.46 202.587 259.558 202.501 259.644L202.255 259.487C202.317 259.373 202.369 259.255 202.41 259.135C202.452 259.013 202.466 258.887 202.451 258.756L202.415 258.432L202.81 258.385Z" fill="white"/>
<path d="M123.633 129.634C123.754 129.698 123.963 129.77 124.259 129.848C124.555 129.918 124.896 129.93 125.284 129.885C125.619 129.845 125.888 129.757 126.091 129.619C126.293 129.474 126.436 129.278 126.522 129.032C126.617 128.785 126.66 128.475 126.653 128.1C126.654 127.725 126.626 127.279 126.568 126.762L126.029 121.956L127.81 121.746L128.334 126.41C128.411 127.099 128.443 127.732 128.429 128.31C128.416 128.887 128.32 129.396 128.143 129.836C127.966 130.276 127.661 130.634 127.23 130.912C126.808 131.189 126.222 131.371 125.473 131.459C125.06 131.508 124.685 131.504 124.347 131.448C124.009 131.392 123.692 131.285 123.396 131.128L123.633 129.634ZM129.667 128.792C129.617 128.353 129.695 127.956 129.899 127.6C130.111 127.235 130.426 126.936 130.845 126.703C131.264 126.47 131.757 126.321 132.325 126.254C132.609 126.22 132.9 126.208 133.197 126.216C133.495 126.225 133.756 126.264 133.982 126.333L133.942 125.972C133.893 125.541 133.727 125.225 133.443 125.023C133.167 124.819 132.779 124.747 132.28 124.806C131.91 124.85 131.565 124.956 131.243 125.125C130.922 125.293 130.591 125.524 130.249 125.818L129.566 124.746C129.98 124.401 130.412 124.127 130.86 123.926C131.317 123.724 131.804 123.593 132.32 123.532C133.284 123.418 134.06 123.571 134.648 123.99C135.244 124.409 135.593 125.066 135.693 125.962L135.936 128.119C135.956 128.3 136.001 128.425 136.07 128.496C136.147 128.565 136.26 128.6 136.408 128.6L136.566 130.008C136.414 130.052 136.275 130.09 136.148 130.123C136.029 130.154 135.927 130.175 135.841 130.185C135.496 130.226 135.225 130.179 135.027 130.046C134.837 129.911 134.709 129.734 134.64 129.515L134.563 129.171C134.312 129.584 133.979 129.92 133.564 130.179C133.148 130.437 132.712 130.593 132.256 130.647C131.808 130.7 131.394 130.657 131.012 130.519C130.638 130.371 130.329 130.15 130.087 129.855C129.852 129.551 129.712 129.197 129.667 128.792ZM133.915 128.645C133.998 128.531 134.064 128.418 134.112 128.308C134.161 128.197 134.181 128.099 134.171 128.013L134.094 127.328C133.878 127.266 133.647 127.228 133.401 127.213C133.154 127.19 132.923 127.191 132.708 127.217C132.26 127.269 131.901 127.412 131.631 127.645C131.368 127.867 131.255 128.138 131.29 128.457C131.31 128.629 131.376 128.787 131.488 128.931C131.6 129.075 131.751 129.184 131.943 129.257C132.134 129.331 132.355 129.353 132.604 129.323C132.863 129.293 133.111 129.215 133.35 129.091C133.588 128.958 133.776 128.81 133.915 128.645ZM139.351 129.68L136.099 123.204L137.894 122.993L140.181 127.985L141.315 122.59L142.955 122.396L141.236 129.458L139.351 129.68ZM143.763 127.131C143.713 126.692 143.791 126.295 143.995 125.939C144.207 125.574 144.522 125.275 144.941 125.042C145.359 124.809 145.853 124.66 146.421 124.593C146.705 124.559 146.996 124.547 147.293 124.555C147.591 124.564 147.852 124.603 148.078 124.672L148.038 124.311C147.989 123.88 147.823 123.564 147.538 123.361C147.263 123.158 146.875 123.086 146.376 123.145C146.006 123.189 145.66 123.295 145.339 123.464C145.018 123.632 144.686 123.863 144.344 124.157L143.662 123.085C144.076 122.74 144.508 122.466 144.956 122.265C145.413 122.063 145.9 121.931 146.416 121.871C147.38 121.757 148.156 121.91 148.744 122.329C149.34 122.748 149.689 123.405 149.789 124.3L150.032 126.458C150.052 126.639 150.096 126.764 150.165 126.835C150.243 126.904 150.356 126.939 150.504 126.939L150.662 128.347C150.51 128.391 150.371 128.429 150.243 128.462C150.125 128.493 150.023 128.514 149.936 128.524C149.592 128.565 149.321 128.518 149.123 128.384C148.933 128.25 148.804 128.073 148.736 127.854L148.658 127.51C148.408 127.923 148.075 128.259 147.66 128.518C147.244 128.776 146.808 128.932 146.352 128.986C145.904 129.039 145.489 128.996 145.108 128.858C144.733 128.71 144.425 128.489 144.183 128.194C143.948 127.89 143.808 127.536 143.763 127.131ZM148.011 126.984C148.094 126.87 148.16 126.757 148.208 126.647C148.257 126.536 148.276 126.438 148.267 126.352L148.19 125.667C147.974 125.605 147.743 125.567 147.497 125.552C147.25 125.529 147.019 125.53 146.804 125.555C146.356 125.608 145.997 125.751 145.727 125.983C145.464 126.206 145.351 126.477 145.386 126.796C145.406 126.968 145.471 127.126 145.583 127.27C145.696 127.414 145.847 127.523 146.039 127.596C146.23 127.669 146.451 127.691 146.7 127.662C146.958 127.632 147.207 127.554 147.446 127.43C147.684 127.297 147.872 127.149 148.011 126.984ZM156.735 120.772C156.668 120.719 156.547 120.651 156.372 120.567C156.205 120.481 156 120.405 155.757 120.338C155.523 120.269 155.268 120.217 154.994 120.179C154.718 120.133 154.443 120.126 154.167 120.159C153.685 120.215 153.33 120.349 153.1 120.559C152.88 120.769 152.788 121.037 152.824 121.364C152.852 121.614 152.952 121.803 153.124 121.931C153.295 122.059 153.541 122.157 153.863 122.223C154.184 122.29 154.584 122.357 155.062 122.422C155.681 122.498 156.222 122.617 156.686 122.781C157.156 122.935 157.527 123.17 157.798 123.488C158.077 123.795 158.248 124.229 158.311 124.789C158.366 125.279 158.323 125.712 158.182 126.087C158.04 126.452 157.821 126.762 157.527 127.014C157.233 127.267 156.889 127.469 156.496 127.62C156.102 127.763 155.677 127.861 155.221 127.915C154.765 127.968 154.304 127.975 153.837 127.934C153.37 127.893 152.916 127.811 152.475 127.688C152.033 127.557 151.621 127.388 151.24 127.179L151.855 125.549C151.941 125.618 152.091 125.705 152.303 125.811C152.515 125.908 152.77 126.004 153.068 126.1C153.366 126.187 153.687 126.254 154.033 126.301C154.378 126.347 154.723 126.35 155.067 126.31C155.549 126.253 155.906 126.128 156.137 125.935C156.368 125.742 156.467 125.494 156.433 125.193C156.402 124.917 156.279 124.714 156.064 124.582C155.848 124.45 155.558 124.349 155.192 124.279C154.826 124.2 154.394 124.12 153.897 124.039C153.301 123.943 152.799 123.819 152.39 123.667C151.979 123.506 151.662 123.281 151.438 122.994C151.213 122.706 151.075 122.329 151.023 121.864C150.952 121.236 151.04 120.693 151.285 120.237C151.538 119.77 151.906 119.4 152.39 119.125C152.873 118.841 153.424 118.662 154.043 118.589C154.474 118.539 154.884 118.538 155.273 118.589C155.671 118.638 156.046 118.72 156.4 118.835C156.753 118.951 157.073 119.083 157.36 119.233L156.735 120.772ZM162.948 127.03C162.397 127.095 161.892 127.063 161.433 126.934C160.973 126.796 160.569 126.582 160.223 126.291C159.875 125.992 159.592 125.641 159.372 125.239C159.161 124.837 159.03 124.403 158.978 123.938C158.906 123.3 158.983 122.702 159.208 122.143C159.44 121.575 159.806 121.1 160.304 120.718C160.801 120.337 161.416 120.103 162.148 120.017C162.879 119.931 163.526 120.016 164.086 120.273C164.647 120.529 165.086 120.901 165.402 121.387L163.769 122.103C163.594 121.871 163.379 121.704 163.124 121.603C162.867 121.494 162.593 121.457 162.3 121.491C161.973 121.53 161.682 121.651 161.426 121.856C161.177 122.051 160.993 122.313 160.873 122.641C160.752 122.961 160.714 123.323 160.759 123.728C160.804 124.124 160.921 124.468 161.111 124.76C161.308 125.042 161.55 125.258 161.837 125.407C162.123 125.548 162.43 125.599 162.757 125.56C162.964 125.536 163.154 125.479 163.327 125.389C163.508 125.297 163.665 125.183 163.798 125.045C163.931 124.907 164.023 124.757 164.074 124.594L165.824 124.911C165.707 125.265 165.512 125.594 165.241 125.896C164.978 126.198 164.653 126.45 164.266 126.652C163.887 126.845 163.448 126.971 162.948 127.03ZM170.507 120.668C169.982 120.73 169.525 120.888 169.135 121.144C168.744 121.39 168.48 121.714 168.341 122.114L168.801 126.21L167.071 126.413L166.311 119.644L167.899 119.457L168.061 120.904C168.25 120.41 168.515 120.008 168.855 119.698C169.195 119.387 169.57 119.194 169.98 119.12C170.075 119.109 170.148 119.1 170.2 119.094C170.252 119.088 170.295 119.087 170.33 119.092L170.507 120.668ZM172.064 125.825L171.304 119.056L173.034 118.852L173.794 125.621L172.064 125.825ZM171.198 118.112L171.005 116.394L172.735 116.19L172.928 117.909L171.198 118.112ZM179.423 125.089C178.898 125.151 178.42 125.089 177.99 124.904C177.567 124.71 177.22 124.423 176.951 124.045L177.394 127.985L175.664 128.189L174.595 118.668L176.105 118.49L176.236 119.652C176.449 119.226 176.742 118.877 177.112 118.607C177.482 118.327 177.921 118.158 178.429 118.098C178.885 118.044 179.313 118.086 179.712 118.222C180.119 118.357 180.483 118.572 180.804 118.865C181.124 119.151 181.385 119.495 181.587 119.899C181.797 120.293 181.929 120.731 181.984 121.213C182.057 121.868 181.995 122.478 181.796 123.042C181.607 123.605 181.306 124.073 180.894 124.444C180.49 124.806 180 125.021 179.423 125.089ZM178.677 123.684C178.944 123.653 179.178 123.569 179.381 123.431C179.583 123.294 179.752 123.121 179.885 122.914C180.027 122.696 180.122 122.463 180.173 122.212C180.231 121.952 180.245 121.689 180.215 121.422C180.183 121.138 180.106 120.881 179.984 120.651C179.871 120.42 179.718 120.224 179.526 120.063C179.333 119.894 179.114 119.771 178.87 119.695C178.634 119.619 178.383 119.596 178.117 119.627C177.953 119.646 177.789 119.696 177.623 119.777C177.465 119.848 177.315 119.944 177.172 120.066C177.028 120.187 176.904 120.324 176.799 120.476C176.703 120.627 176.638 120.788 176.605 120.957L176.783 122.546C176.914 122.784 177.078 122.996 177.273 123.182C177.477 123.368 177.702 123.507 177.948 123.6C178.193 123.685 178.436 123.713 178.677 123.684ZM187.464 123.657C187.324 123.734 187.155 123.824 186.958 123.926C186.76 124.028 186.543 124.114 186.307 124.186C186.08 124.265 185.846 124.319 185.605 124.347C185.287 124.385 184.988 124.363 184.708 124.283C184.429 124.202 184.194 124.051 184.003 123.829C183.82 123.598 183.707 123.284 183.662 122.887L183.226 118.999L182.335 119.104L182.185 117.773L183.076 117.668L182.83 115.472L184.56 115.268L184.806 117.464L186.226 117.297L186.376 118.628L184.956 118.795L185.327 122.102C185.362 122.334 185.445 122.494 185.577 122.583C185.709 122.672 185.866 122.706 186.046 122.685C186.227 122.664 186.4 122.613 186.566 122.532C186.731 122.452 186.863 122.384 186.961 122.329L187.464 123.657Z" fill="#FFC100"/>
<path d="M120.157 110.295L119.602 105.356L121.688 105.11C121.901 105.085 122.101 105.106 122.287 105.174C122.473 105.241 122.639 105.343 122.786 105.481C122.937 105.614 123.058 105.769 123.148 105.946C123.243 106.118 123.3 106.299 123.322 106.489C123.348 106.726 123.327 106.954 123.258 107.174C123.193 107.393 123.085 107.584 122.935 107.747C122.789 107.91 122.607 108.028 122.39 108.101L123.813 109.864L123.264 109.929L121.899 108.243L120.439 108.415L120.643 110.238L120.157 110.295ZM120.39 107.984L122.003 107.794C122.198 107.771 122.361 107.697 122.493 107.574C122.624 107.45 122.72 107.298 122.779 107.117C122.838 106.932 122.857 106.742 122.835 106.547C122.813 106.347 122.746 106.17 122.634 106.014C122.527 105.852 122.391 105.73 122.227 105.646C122.067 105.557 121.894 105.523 121.708 105.545L120.137 105.73L120.39 107.984ZM124.567 109.775L124.16 106.151L124.633 106.095L125.04 109.719L124.567 109.775ZM124.075 105.393L123.997 104.697L124.47 104.641L124.548 105.337L124.075 105.393ZM127.66 109.481C127.396 109.512 127.147 109.492 126.914 109.421C126.684 109.345 126.477 109.228 126.29 109.072C126.108 108.915 125.958 108.728 125.84 108.512C125.726 108.295 125.655 108.059 125.626 107.804C125.588 107.461 125.629 107.138 125.75 106.838C125.871 106.537 126.059 106.287 126.314 106.087C126.569 105.888 126.875 105.768 127.231 105.726C127.57 105.686 127.878 105.729 128.155 105.856C128.431 105.979 128.647 106.165 128.802 106.414L128.36 106.615C128.237 106.441 128.077 106.314 127.88 106.234C127.687 106.149 127.48 106.119 127.257 106.145C127.016 106.174 126.803 106.262 126.618 106.411C126.433 106.56 126.292 106.75 126.196 106.982C126.105 107.214 126.075 107.469 126.106 107.747C126.137 108.021 126.225 108.262 126.37 108.47C126.516 108.679 126.696 108.838 126.91 108.949C127.124 109.056 127.351 109.095 127.592 109.066C127.75 109.048 127.897 109.002 128.035 108.93C128.177 108.856 128.296 108.767 128.392 108.662C128.493 108.551 128.555 108.438 128.58 108.323L129.061 108.407C129.015 108.586 128.924 108.754 128.787 108.911C128.653 109.063 128.489 109.191 128.294 109.294C128.103 109.391 127.892 109.454 127.66 109.481ZM132.483 108.842L130.932 107.143L130.242 107.958L130.369 109.091L129.897 109.147L129.326 104.069L129.799 104.013L130.185 107.45L132.014 105.232L132.535 105.171L131.221 106.827L132.997 108.782L132.483 108.842ZM135.452 108.492L134.898 103.553L136.983 103.308C137.196 103.283 137.396 103.304 137.582 103.371C137.768 103.438 137.935 103.541 138.082 103.679C138.233 103.811 138.353 103.966 138.444 104.144C138.538 104.316 138.596 104.497 138.617 104.687C138.644 104.923 138.623 105.152 138.553 105.371C138.489 105.59 138.381 105.781 138.23 105.945C138.084 106.108 137.903 106.225 137.685 106.298L139.109 108.062L138.56 108.126L137.194 106.441L135.734 106.613L135.939 108.435L135.452 108.492ZM135.686 106.181L137.299 105.991C137.493 105.968 137.656 105.895 137.788 105.771C137.92 105.648 138.015 105.496 138.075 105.315C138.134 105.129 138.153 104.939 138.131 104.744C138.108 104.545 138.041 104.367 137.93 104.211C137.823 104.05 137.687 103.927 137.522 103.843C137.362 103.754 137.189 103.72 137.004 103.742L135.433 103.927L135.686 106.181ZM139.433 106.966C139.408 106.739 139.451 106.536 139.562 106.359C139.673 106.177 139.837 106.028 140.055 105.913C140.276 105.793 140.537 105.715 140.839 105.68C141.015 105.659 141.199 105.651 141.392 105.657C141.586 105.662 141.759 105.684 141.914 105.722L141.88 105.416C141.845 105.11 141.727 104.877 141.526 104.718C141.325 104.558 141.065 104.497 140.745 104.535C140.551 104.558 140.362 104.618 140.181 104.714C140.003 104.806 139.82 104.933 139.632 105.096L139.414 104.783C139.632 104.593 139.85 104.445 140.068 104.34C140.286 104.23 140.513 104.16 140.749 104.133C141.194 104.08 141.561 104.166 141.849 104.391C142.137 104.615 142.306 104.952 142.357 105.402L142.545 107.079C142.552 107.144 142.572 107.191 142.603 107.22C142.634 107.244 142.68 107.255 142.741 107.253L142.783 107.629C142.733 107.639 142.689 107.649 142.653 107.658C142.616 107.667 142.588 107.67 142.569 107.668C142.453 107.677 142.36 107.65 142.292 107.588C142.224 107.525 142.184 107.455 142.17 107.377L142.133 107.113C141.995 107.341 141.802 107.528 141.556 107.675C141.308 107.816 141.051 107.903 140.782 107.935C140.55 107.962 140.334 107.938 140.133 107.863C139.936 107.783 139.775 107.666 139.649 107.512C139.528 107.352 139.456 107.17 139.433 106.966ZM141.891 106.958C141.934 106.887 141.967 106.82 141.988 106.757C142.009 106.693 142.017 106.638 142.012 106.592L141.952 106.063C141.788 106.021 141.618 105.994 141.443 105.982C141.273 105.969 141.102 105.973 140.93 105.993C140.592 106.033 140.326 106.133 140.132 106.292C139.939 106.451 139.855 106.646 139.881 106.878C139.896 107.013 139.945 107.136 140.028 107.248C140.111 107.356 140.224 107.441 140.367 107.504C140.51 107.563 140.672 107.581 140.852 107.56C141.079 107.533 141.285 107.464 141.47 107.353C141.66 107.242 141.8 107.11 141.891 106.958ZM146.676 107.17L146.203 107.226L145.976 105.201C145.928 104.775 145.83 104.471 145.683 104.291C145.536 104.107 145.328 104.03 145.059 104.062C144.873 104.084 144.695 104.152 144.525 104.266C144.354 104.375 144.208 104.517 144.087 104.691C143.97 104.86 143.892 105.047 143.854 105.254L144.103 107.473L143.631 107.529L143.224 103.904L143.655 103.854L143.747 104.675C143.824 104.487 143.935 104.319 144.078 104.17C144.22 104.017 144.387 103.892 144.578 103.794C144.769 103.697 144.971 103.635 145.184 103.61C145.383 103.587 145.557 103.604 145.704 103.662C145.851 103.719 145.975 103.813 146.074 103.942C146.172 104.067 146.251 104.224 146.31 104.415C146.368 104.601 146.411 104.812 146.437 105.048L146.676 107.17ZM147.238 105.278C147.2 104.935 147.234 104.614 147.341 104.314C147.453 104.01 147.624 103.757 147.855 103.556C148.086 103.355 148.361 103.236 148.681 103.198C148.982 103.162 149.26 103.212 149.515 103.346C149.773 103.476 149.983 103.646 150.143 103.857L149.894 101.645L150.367 101.59L150.873 106.097C150.88 106.162 150.9 106.209 150.931 106.238C150.962 106.263 151.006 106.274 151.062 106.272L151.104 106.648C151.013 106.673 150.942 106.686 150.89 106.687C150.792 106.694 150.702 106.665 150.62 106.599C150.537 106.534 150.491 106.457 150.481 106.369L150.441 106.014C150.324 106.268 150.15 106.478 149.92 106.647C149.69 106.815 149.443 106.914 149.179 106.945C148.929 106.975 148.691 106.951 148.467 106.874C148.247 106.797 148.048 106.679 147.871 106.522C147.698 106.363 147.555 106.178 147.442 105.966C147.333 105.748 147.265 105.519 147.238 105.278ZM150.325 105.478L150.199 104.358C150.12 104.198 150.006 104.059 149.856 103.94C149.706 103.817 149.541 103.726 149.361 103.668C149.184 103.604 149.013 103.582 148.846 103.601C148.651 103.624 148.48 103.687 148.332 103.789C148.183 103.886 148.058 104.011 147.958 104.164C147.863 104.316 147.795 104.484 147.754 104.667C147.714 104.851 147.704 105.035 147.725 105.221C147.747 105.415 147.8 105.597 147.884 105.766C147.974 105.934 148.089 106.08 148.23 106.204C148.37 106.324 148.525 106.412 148.696 106.467C148.866 106.522 149.047 106.538 149.237 106.516C149.357 106.501 149.48 106.464 149.604 106.402C149.729 106.34 149.845 106.263 149.952 106.171C150.063 106.073 150.151 105.964 150.218 105.843C150.284 105.723 150.32 105.601 150.325 105.478ZM152.342 107.63C152.407 107.627 152.47 107.622 152.53 107.615C152.591 107.612 152.635 107.605 152.662 107.592C152.716 107.576 152.766 107.538 152.81 107.476C152.855 107.414 152.903 107.301 152.955 107.135C153.007 106.969 153.078 106.725 153.169 106.405L151.184 102.966L151.685 102.907L153.365 105.888L154.236 102.607L154.709 102.551L153.357 107.447C153.334 107.539 153.295 107.626 153.238 107.708C153.182 107.794 153.108 107.864 153.015 107.917C152.927 107.974 152.814 108.014 152.676 108.035C152.635 108.044 152.591 108.049 152.544 108.05C152.502 108.055 152.451 108.056 152.389 108.054L152.342 107.63Z" fill="white"/>
<path d="M134.756 142.652L130.987 143.096L132.071 152.755L131.028 152.878L129.944 143.219L126.175 143.663L126.071 142.739L134.652 141.728L134.756 142.652ZM143.741 151.38L142.728 151.499L142.241 147.162C142.143 146.287 141.915 145.649 141.558 145.248C141.2 144.838 140.733 144.666 140.157 144.734C139.779 144.778 139.413 144.922 139.058 145.165C138.712 145.398 138.414 145.7 138.164 146.071C137.922 146.432 137.766 146.833 137.695 147.274L138.229 152.03L137.216 152.149L135.994 141.267L137.007 141.148L137.554 146.022C137.798 145.41 138.173 144.902 138.682 144.5C139.199 144.087 139.77 143.843 140.396 143.769C140.843 143.717 141.229 143.752 141.555 143.874C141.89 143.996 142.17 144.2 142.393 144.485C142.625 144.76 142.809 145.096 142.944 145.493C143.078 145.88 143.173 146.327 143.23 146.834L143.741 151.38ZM149.269 150.88C148.713 150.945 148.185 150.902 147.685 150.749C147.184 150.587 146.739 150.342 146.35 150.015C145.96 149.679 145.638 149.279 145.385 148.815C145.142 148.35 144.989 147.84 144.926 147.283C144.845 146.558 144.934 145.873 145.193 145.228C145.463 144.582 145.871 144.045 146.417 143.619C146.961 143.182 147.606 142.92 148.351 142.832C149.116 142.742 149.802 142.847 150.409 143.148C151.026 143.448 151.533 143.882 151.929 144.449C152.323 145.007 152.561 145.643 152.641 146.359C152.65 146.438 152.659 146.518 152.668 146.597C152.676 146.667 152.677 146.722 152.671 146.763L146.027 147.546C146.139 148.097 146.349 148.576 146.656 148.982C146.973 149.378 147.354 149.681 147.8 149.89C148.255 150.088 148.731 150.158 149.227 150.099C149.734 150.039 150.196 149.854 150.614 149.543C151.042 149.231 151.321 148.856 151.453 148.417L152.359 148.552C152.241 148.938 152.035 149.3 151.741 149.637C151.447 149.973 151.086 150.253 150.658 150.474C150.239 150.685 149.776 150.82 149.269 150.88ZM145.916 146.819L151.651 146.143C151.548 145.582 151.338 145.103 151.022 144.707C150.715 144.31 150.335 144.018 149.882 143.83C149.437 143.63 148.961 143.56 148.454 143.62C147.948 143.68 147.5 143.858 147.111 144.156C146.72 144.444 146.416 144.822 146.197 145.291C145.986 145.749 145.893 146.258 145.916 146.819ZM129.255 168.946C129.2 168.459 129.293 168.025 129.532 167.644C129.77 167.254 130.121 166.936 130.587 166.689C131.061 166.432 131.621 166.266 132.266 166.189C132.644 166.145 133.039 166.129 133.453 166.14C133.867 166.152 134.24 166.199 134.571 166.28L134.497 165.624C134.424 164.969 134.171 164.47 133.74 164.128C133.31 163.786 132.752 163.655 132.066 163.736C131.649 163.785 131.246 163.913 130.857 164.12C130.476 164.316 130.084 164.589 129.681 164.938L129.213 164.269C129.68 163.861 130.148 163.544 130.616 163.318C131.082 163.082 131.569 162.934 132.075 162.874C133.029 162.762 133.814 162.946 134.432 163.427C135.049 163.908 135.412 164.631 135.52 165.595L135.924 169.187C135.939 169.326 135.981 169.427 136.048 169.489C136.114 169.542 136.213 169.566 136.343 169.56L136.433 170.365C136.325 170.388 136.232 170.409 136.154 170.429C136.075 170.448 136.016 170.455 135.975 170.45C135.725 170.469 135.528 170.412 135.382 170.278C135.236 170.144 135.149 169.993 135.12 169.825L135.041 169.261C134.744 169.749 134.331 170.15 133.803 170.464C133.273 170.768 132.721 170.954 132.145 171.022C131.648 171.08 131.185 171.029 130.754 170.869C130.332 170.697 129.987 170.445 129.718 170.115C129.459 169.773 129.304 169.383 129.255 168.946ZM134.521 168.929C134.615 168.777 134.684 168.633 134.729 168.497C134.774 168.361 134.791 168.243 134.78 168.144L134.653 167.011C134.301 166.921 133.937 166.864 133.562 166.837C133.196 166.81 132.83 166.818 132.462 166.861C131.738 166.947 131.168 167.16 130.753 167.501C130.339 167.841 130.159 168.26 130.215 168.757C130.247 169.045 130.353 169.31 130.531 169.551C130.707 169.782 130.949 169.964 131.256 170.099C131.562 170.225 131.909 170.264 132.296 170.219C132.783 170.161 133.224 170.014 133.62 169.776C134.026 169.536 134.326 169.254 134.521 168.929ZM142.229 169.833C141.583 169.91 140.983 169.809 140.429 169.532C139.885 169.254 139.435 168.884 139.082 168.422L139.619 173.207L138.606 173.326L137.378 162.385L138.286 162.278L138.455 163.784C138.708 163.26 139.077 162.819 139.56 162.46C140.041 162.091 140.575 161.872 141.161 161.803C141.697 161.74 142.202 161.797 142.674 161.972C143.146 162.138 143.567 162.391 143.937 162.73C144.307 163.069 144.609 163.471 144.842 163.937C145.084 164.392 145.235 164.878 145.293 165.394C145.374 166.12 145.3 166.808 145.072 167.46C144.852 168.1 144.499 168.635 144.014 169.064C143.529 169.494 142.934 169.75 142.229 169.833ZM141.845 168.972C142.272 168.922 142.645 168.793 142.964 168.584C143.282 168.365 143.543 168.093 143.748 167.767C143.962 167.439 144.114 167.084 144.202 166.701C144.288 166.308 144.309 165.913 144.265 165.516C144.218 165.098 144.099 164.71 143.907 164.349C143.726 163.988 143.485 163.679 143.184 163.423C142.884 163.166 142.55 162.974 142.184 162.846C141.817 162.718 141.43 162.678 141.023 162.726C140.765 162.756 140.502 162.838 140.236 162.97C139.969 163.102 139.717 163.278 139.48 163.497C139.251 163.705 139.066 163.933 138.923 164.182C138.779 164.43 138.702 164.686 138.692 164.949L138.96 167.334C139.16 167.683 139.411 167.991 139.712 168.257C140.013 168.514 140.347 168.711 140.715 168.849C141.091 168.976 141.468 169.017 141.845 168.972ZM150.768 168.827C150.211 168.893 149.683 168.849 149.183 168.697C148.692 168.533 148.252 168.288 147.863 167.961C147.483 167.623 147.172 167.227 146.929 166.772C146.686 166.308 146.534 165.807 146.474 165.27C146.411 164.714 146.448 164.186 146.583 163.687C146.717 163.178 146.937 162.719 147.243 162.31C147.549 161.891 147.923 161.55 148.366 161.287C148.818 161.012 149.323 160.842 149.879 160.776C150.435 160.711 150.959 160.76 151.45 160.923C151.94 161.077 152.38 161.322 152.77 161.659C153.159 161.985 153.475 162.381 153.719 162.846C153.961 163.301 154.113 163.806 154.176 164.363C154.236 164.899 154.199 165.422 154.065 165.932C153.93 166.431 153.71 166.89 153.404 167.308C153.108 167.716 152.734 168.057 152.282 168.332C151.838 168.595 151.334 168.761 150.768 168.827ZM147.503 165.164C147.568 165.741 147.751 166.253 148.053 166.7C148.364 167.137 148.748 167.469 149.207 167.697C149.664 167.915 150.151 167.994 150.667 167.933C151.184 167.872 151.64 167.677 152.035 167.349C152.431 167.02 152.731 166.602 152.936 166.095C153.14 165.577 153.21 165.035 153.146 164.469C153.081 163.893 152.893 163.381 152.581 162.935C152.27 162.488 151.885 162.151 151.426 161.923C150.968 161.695 150.481 161.611 149.964 161.672C149.448 161.733 148.992 161.933 148.598 162.271C148.213 162.609 147.918 163.031 147.713 163.538C147.508 164.036 147.438 164.578 147.503 165.164ZM159.687 167.776C159.121 167.843 158.588 167.8 158.087 167.648C157.596 167.484 157.15 167.234 156.751 166.899C156.361 166.562 156.039 166.162 155.786 165.699C155.542 165.234 155.39 164.728 155.328 164.182C155.246 163.446 155.334 162.756 155.594 162.111C155.854 161.467 156.257 160.931 156.802 160.504C157.348 160.077 158.003 159.819 158.768 159.729C159.493 159.643 160.153 159.737 160.747 160.009C161.34 160.271 161.802 160.67 162.134 161.205L161.186 161.634C160.923 161.262 160.58 160.99 160.158 160.818C159.745 160.635 159.3 160.572 158.824 160.628C158.307 160.689 157.851 160.879 157.454 161.197C157.057 161.516 156.756 161.924 156.55 162.422C156.354 162.918 156.289 163.464 156.356 164.061C156.422 164.647 156.611 165.163 156.923 165.61C157.235 166.056 157.62 166.399 158.08 166.637C158.538 166.864 159.025 166.948 159.542 166.887C159.879 166.847 160.195 166.75 160.49 166.594C160.794 166.437 161.049 166.246 161.256 166.021C161.471 165.784 161.604 165.541 161.657 165.294L162.689 165.474C162.591 165.858 162.395 166.219 162.101 166.555C161.815 166.881 161.463 167.154 161.045 167.374C160.636 167.584 160.183 167.718 159.687 167.776ZM163.602 164.898C163.548 164.411 163.64 163.978 163.879 163.597C164.117 163.206 164.469 162.888 164.934 162.642C165.408 162.385 165.968 162.218 166.614 162.142C166.991 162.097 167.387 162.081 167.801 162.093C168.214 162.104 168.587 162.151 168.918 162.233L168.844 161.577C168.771 160.921 168.519 160.422 168.088 160.08C167.657 159.738 167.099 159.608 166.414 159.688C165.997 159.738 165.593 159.866 165.204 160.073C164.823 160.269 164.431 160.541 164.028 160.891L163.56 160.221C164.028 159.814 164.495 159.497 164.963 159.27C165.43 159.034 165.916 158.886 166.423 158.827C167.376 158.714 168.161 158.899 168.779 159.38C169.396 159.861 169.759 160.583 169.868 161.547L170.271 165.139C170.286 165.279 170.328 165.379 170.395 165.442C170.462 165.495 170.56 165.518 170.69 165.513L170.781 166.318C170.672 166.341 170.579 166.362 170.501 166.381C170.422 166.4 170.363 166.407 170.322 166.402C170.073 166.421 169.875 166.364 169.729 166.23C169.583 166.096 169.496 165.946 169.467 165.778L169.389 165.213C169.091 165.701 168.678 166.102 168.15 166.416C167.621 166.72 167.068 166.906 166.492 166.974C165.995 167.033 165.532 166.982 165.101 166.821C164.679 166.649 164.334 166.398 164.066 166.067C163.806 165.725 163.651 165.335 163.602 164.898ZM168.868 164.882C168.962 164.73 169.031 164.586 169.076 164.45C169.122 164.313 169.138 164.195 169.127 164.096L169 162.963C168.648 162.874 168.284 162.816 167.909 162.79C167.544 162.762 167.177 162.77 166.81 162.814C166.085 162.899 165.515 163.112 165.1 163.453C164.686 163.794 164.507 164.213 164.562 164.71C164.595 164.998 164.7 165.262 164.878 165.503C165.055 165.734 165.297 165.917 165.604 166.052C165.909 166.177 166.256 166.217 166.643 166.171C167.13 166.114 167.571 165.966 167.967 165.728C168.373 165.489 168.673 165.207 168.868 164.882ZM171.42 155.217L172.433 155.098L173.457 164.22C173.5 164.608 173.598 164.853 173.751 164.956C173.903 165.059 174.079 165.099 174.277 165.075C174.456 165.054 174.633 165.013 174.807 164.952C174.981 164.891 175.131 164.834 175.255 164.779L175.526 165.577C175.347 165.679 175.12 165.771 174.848 165.854C174.585 165.935 174.355 165.987 174.156 166.011C173.699 166.065 173.317 165.974 173.009 165.738C172.71 165.501 172.535 165.15 172.482 164.682L171.42 155.217ZM177.123 167.987C177.263 167.981 177.398 167.97 177.527 167.955C177.657 167.949 177.751 167.933 177.808 167.906C177.925 167.872 178.032 167.789 178.127 167.657C178.223 167.525 178.327 167.281 178.438 166.926C178.549 166.57 178.702 166.049 178.896 165.362L174.643 157.994L175.715 157.867L179.315 164.255L181.182 157.223L182.195 157.104L179.298 167.595C179.249 167.792 179.165 167.978 179.044 168.153C178.923 168.339 178.764 168.488 178.566 168.602C178.378 168.725 178.136 168.809 177.839 168.854C177.751 168.875 177.657 168.886 177.556 168.888C177.467 168.898 177.356 168.901 177.225 168.896L177.123 167.987ZM188.462 164.385C187.816 164.461 187.216 164.361 186.662 164.084C186.117 163.806 185.668 163.436 185.315 162.974L185.852 167.759L184.839 167.878L183.61 156.937L184.519 156.83L184.688 158.335C184.941 157.812 185.309 157.371 185.792 157.012C186.274 156.643 186.808 156.424 187.394 156.355C187.93 156.292 188.435 156.348 188.907 156.524C189.379 156.69 189.8 156.943 190.17 157.282C190.54 157.621 190.842 158.023 191.075 158.489C191.317 158.944 191.467 159.43 191.525 159.946C191.607 160.672 191.533 161.36 191.304 162.011C191.085 162.651 190.732 163.186 190.247 163.616C189.762 164.046 189.167 164.302 188.462 164.385ZM188.078 163.524C188.505 163.474 188.878 163.344 189.197 163.136C189.514 162.917 189.776 162.645 189.98 162.318C190.195 161.991 190.347 161.636 190.434 161.253C190.521 160.86 190.542 160.465 190.498 160.067C190.451 159.65 190.332 159.261 190.14 158.901C189.959 158.54 189.718 158.231 189.417 157.975C189.117 157.718 188.783 157.526 188.417 157.398C188.05 157.27 187.663 157.23 187.256 157.278C186.998 157.308 186.735 157.389 186.468 157.522C186.201 157.654 185.949 157.829 185.712 158.049C185.484 158.257 185.299 158.485 185.155 158.734C185.012 158.982 184.935 159.238 184.925 159.501L185.192 161.886C185.393 162.235 185.643 162.543 185.945 162.809C186.246 163.066 186.58 163.263 186.947 163.401C187.324 163.528 187.701 163.569 188.078 163.524ZM196.241 163.469C195.605 163.544 195.002 163.509 194.433 163.365C193.863 163.22 193.356 162.958 192.91 162.577L193.247 161.813C193.73 162.169 194.2 162.415 194.659 162.553C195.126 162.679 195.607 162.713 196.104 162.654C196.71 162.583 197.188 162.405 197.539 162.123C197.888 161.83 198.037 161.455 197.986 160.997C197.951 160.689 197.831 160.467 197.624 160.33C197.426 160.182 197.148 160.079 196.789 160.021C196.439 159.951 196.019 159.885 195.529 159.822C194.976 159.736 194.507 159.635 194.122 159.52C193.745 159.393 193.449 159.216 193.232 158.99C193.024 158.753 192.898 158.43 192.852 158.023C192.795 157.516 192.872 157.084 193.084 156.727C193.304 156.359 193.623 156.064 194.041 155.844C194.468 155.612 194.955 155.464 195.501 155.4C196.097 155.33 196.634 155.362 197.112 155.497C197.59 155.632 197.992 155.851 198.318 156.155L197.903 156.899C197.589 156.614 197.23 156.419 196.826 156.316C196.431 156.202 196 156.172 195.533 156.227C195.215 156.264 194.918 156.345 194.64 156.468C194.36 156.581 194.138 156.749 193.971 156.97C193.814 157.18 193.754 157.453 193.792 157.791C193.823 158.07 193.917 158.28 194.074 158.423C194.23 158.555 194.453 158.66 194.743 158.736C195.033 158.803 195.387 158.872 195.808 158.943C196.412 159.033 196.942 159.137 197.398 159.254C197.852 159.362 198.214 159.531 198.481 159.761C198.748 159.991 198.908 160.34 198.961 160.807C199.042 161.533 198.833 162.131 198.332 162.603C197.832 163.075 197.134 163.363 196.241 163.469ZM204.246 162.525C203.69 162.591 203.162 162.547 202.662 162.395C202.161 162.232 201.715 161.988 201.327 161.661C200.937 161.324 200.615 160.924 200.362 160.461C200.118 159.996 199.965 159.485 199.903 158.929C199.821 158.203 199.911 157.518 200.17 156.874C200.44 156.228 200.848 155.691 201.393 155.264C201.938 154.828 202.583 154.565 203.328 154.478C204.092 154.387 204.778 154.493 205.386 154.794C206.003 155.094 206.51 155.527 206.905 156.095C207.3 156.653 207.537 157.289 207.618 158.005C207.627 158.084 207.636 158.164 207.645 158.243C207.652 158.313 207.654 158.368 207.648 158.409L201.004 159.192C201.116 159.742 201.326 160.221 201.633 160.628C201.949 161.024 202.33 161.326 202.777 161.535C203.232 161.734 203.707 161.803 204.204 161.745C204.71 161.685 205.173 161.5 205.59 161.189C206.018 160.877 206.298 160.501 206.43 160.063L207.336 160.198C207.218 160.584 207.012 160.946 206.718 161.282C206.424 161.619 206.063 161.898 205.635 162.12C205.215 162.33 204.753 162.466 204.246 162.525ZM200.892 158.465L206.628 157.789C206.524 157.227 206.315 156.749 205.998 156.353C205.692 155.956 205.312 155.663 204.858 155.475C204.413 155.276 203.938 155.206 203.431 155.266C202.925 155.326 202.477 155.504 202.088 155.802C201.697 156.089 201.393 156.468 201.173 156.937C200.963 157.394 200.87 157.904 200.892 158.465ZM132.14 188.996L131.268 181.229L132.281 181.11L133.153 188.876L132.14 188.996ZM131.086 179.605L130.918 178.114L131.931 177.995L132.099 179.485L131.086 179.605ZM137.948 188.462C137.313 188.537 136.71 188.502 136.141 188.358C135.571 188.214 135.063 187.951 134.618 187.571L134.955 186.806C135.438 187.162 135.908 187.409 136.366 187.546C136.833 187.672 137.315 187.706 137.812 187.648C138.417 187.576 138.896 187.399 139.246 187.116C139.596 186.823 139.745 186.448 139.694 185.991C139.659 185.683 139.538 185.461 139.332 185.324C139.134 185.176 138.856 185.073 138.497 185.014C138.147 184.945 137.727 184.879 137.237 184.815C136.684 184.73 136.215 184.629 135.83 184.513C135.453 184.386 135.157 184.21 134.94 183.984C134.732 183.746 134.605 183.424 134.56 183.016C134.503 182.51 134.58 182.078 134.792 181.72C135.012 181.352 135.331 181.058 135.749 180.837C136.176 180.606 136.662 180.458 137.209 180.393C137.804 180.323 138.341 180.356 138.819 180.491C139.297 180.626 139.699 180.845 140.025 181.149L139.611 181.893C139.297 181.607 138.938 181.413 138.534 181.31C138.139 181.195 137.708 181.165 137.241 181.22C136.923 181.258 136.625 181.338 136.347 181.462C136.068 181.575 135.846 181.742 135.679 181.963C135.522 182.173 135.462 182.447 135.5 182.785C135.531 183.063 135.625 183.274 135.782 183.416C135.938 183.549 136.161 183.653 136.451 183.73C136.74 183.797 137.095 183.866 137.516 183.937C138.12 184.027 138.649 184.13 139.105 184.248C139.56 184.355 139.921 184.524 140.189 184.755C140.456 184.985 140.616 185.334 140.668 185.801C140.75 186.526 140.54 187.125 140.04 187.596C139.539 188.068 138.842 188.357 137.948 188.462ZM137.532 206.636C136.966 206.702 136.433 206.659 135.933 206.507C135.441 206.343 134.996 206.094 134.596 205.758C134.206 205.421 133.884 205.021 133.631 204.558C133.387 204.093 133.235 203.588 133.174 203.041C133.091 202.306 133.18 201.615 133.439 200.971C133.699 200.326 134.102 199.79 134.648 199.363C135.193 198.936 135.849 198.678 136.613 198.588C137.338 198.502 137.998 198.596 138.592 198.868C139.185 199.131 139.647 199.529 139.979 200.064L139.031 200.493C138.768 200.121 138.425 199.849 138.003 199.678C137.591 199.495 137.146 199.431 136.669 199.488C136.153 199.548 135.696 199.738 135.299 200.057C134.902 200.375 134.601 200.783 134.395 201.281C134.199 201.777 134.135 202.324 134.202 202.92C134.267 203.506 134.456 204.023 134.768 204.469C135.08 204.916 135.465 205.258 135.925 205.496C136.383 205.724 136.87 205.807 137.387 205.746C137.724 205.707 138.041 205.609 138.335 205.453C138.639 205.297 138.895 205.106 139.101 204.88C139.316 204.643 139.449 204.401 139.502 204.153L140.534 204.333C140.436 204.718 140.24 205.078 139.946 205.415C139.66 205.74 139.309 206.013 138.891 206.234C138.481 206.443 138.028 206.577 137.532 206.636ZM145.575 205.688C145.019 205.753 144.491 205.71 143.991 205.557C143.5 205.394 143.06 205.148 142.671 204.822C142.291 204.484 141.979 204.088 141.737 203.633C141.494 203.168 141.342 202.667 141.282 202.131C141.219 201.574 141.256 201.046 141.391 200.547C141.525 200.038 141.745 199.579 142.051 199.17C142.356 198.752 142.731 198.411 143.174 198.147C143.626 197.872 144.13 197.702 144.687 197.636C145.243 197.571 145.766 197.62 146.258 197.784C146.748 197.937 147.188 198.182 147.578 198.519C147.967 198.846 148.283 199.242 148.526 199.706C148.769 200.161 148.921 200.667 148.984 201.223C149.044 201.76 149.007 202.283 148.873 202.792C148.738 203.291 148.518 203.75 148.212 204.169C147.916 204.576 147.542 204.917 147.09 205.192C146.646 205.456 146.141 205.621 145.575 205.688ZM142.311 202.025C142.376 202.601 142.559 203.113 142.861 203.561C143.172 203.997 143.556 204.33 144.015 204.558C144.472 204.776 144.959 204.854 145.475 204.793C145.991 204.732 146.448 204.538 146.843 204.209C147.239 203.881 147.539 203.463 147.744 202.955C147.948 202.438 148.018 201.896 147.954 201.329C147.889 200.753 147.701 200.242 147.389 199.795C147.077 199.348 146.692 199.011 146.234 198.783C145.776 198.555 145.289 198.472 144.772 198.533C144.256 198.593 143.8 198.793 143.405 199.132C143.021 199.469 142.726 199.891 142.521 200.399C142.316 200.896 142.246 201.438 142.311 202.025ZM162.656 203.524L161.643 203.643L161.156 199.305C161.055 198.401 160.836 197.752 160.5 197.359C160.164 196.966 159.713 196.802 159.147 196.869C158.561 196.938 158.058 197.209 157.638 197.681C157.228 198.152 156.966 198.727 156.851 199.405L157.383 204.145L156.37 204.265L155.883 199.927C155.78 199.013 155.566 198.363 155.241 197.979C154.915 197.584 154.464 197.421 153.888 197.489C153.312 197.556 152.814 197.822 152.393 198.284C151.972 198.747 151.704 199.322 151.59 200.01L152.124 204.765L151.111 204.884L150.239 197.118L151.163 197.009L151.36 198.768C151.62 198.123 151.985 197.607 152.454 197.22C152.934 196.831 153.487 196.599 154.112 196.526C154.758 196.45 155.3 196.572 155.738 196.893C156.177 197.214 156.474 197.667 156.631 198.253C156.915 197.555 157.286 197.008 157.744 196.611C158.213 196.214 158.765 195.977 159.401 195.903C159.838 195.851 160.214 195.887 160.53 196.011C160.856 196.134 161.125 196.334 161.337 196.611C161.558 196.877 161.731 197.214 161.858 197.622C161.993 198.019 162.089 198.471 162.146 198.977L162.656 203.524ZM164.801 203.271L163.929 195.505L164.942 195.386L165.814 203.152L164.801 203.271ZM163.746 193.88L163.579 192.389L164.592 192.27L164.759 193.761L163.746 193.88ZM174.57 202.12L173.557 202.239L173.07 197.902C172.967 196.987 172.758 196.337 172.443 195.951C172.127 195.556 171.681 195.392 171.105 195.46C170.708 195.507 170.327 195.652 169.962 195.897C169.595 196.131 169.282 196.435 169.022 196.808C168.771 197.17 168.605 197.572 168.524 198.014L169.058 202.769L168.045 202.889L167.173 195.123L168.096 195.014L168.294 196.773C168.46 196.371 168.696 196.01 169.003 195.692C169.308 195.364 169.665 195.096 170.075 194.886C170.484 194.677 170.917 194.545 171.374 194.492C171.801 194.441 172.172 194.478 172.488 194.602C172.804 194.726 173.068 194.926 173.28 195.203C173.491 195.471 173.66 195.808 173.786 196.216C173.911 196.614 174.002 197.067 174.059 197.573L174.57 202.12ZM179.855 201.603C179.329 201.665 178.83 201.613 178.358 201.447C177.887 201.281 177.467 201.033 177.098 200.704C176.737 200.364 176.441 199.966 176.209 199.51C175.976 199.054 175.832 198.573 175.775 198.066C175.714 197.519 175.741 196.998 175.856 196.501C175.98 195.993 176.18 195.531 176.455 195.116C176.74 194.7 177.09 194.362 177.503 194.102C177.916 193.831 178.39 193.665 178.926 193.602C179.592 193.523 180.187 193.624 180.711 193.905C181.246 194.184 181.71 194.552 182.103 195.009L181.921 193.385L182.83 193.278L183.705 201.074C183.785 201.789 183.679 202.411 183.386 202.939C183.104 203.475 182.684 203.902 182.126 204.22C181.578 204.536 180.961 204.735 180.276 204.816C179.392 204.92 178.659 204.845 178.077 204.591C177.495 204.338 177.001 203.963 176.593 203.467L177.163 202.902C177.526 203.352 177.974 203.667 178.507 203.846C179.05 204.024 179.61 204.078 180.186 204.011C180.692 203.951 181.143 203.802 181.539 203.564C181.946 203.335 182.253 203.022 182.46 202.625C182.677 202.227 182.754 201.749 182.692 201.193L182.52 199.658C182.276 200.18 181.913 200.62 181.43 200.979C180.946 201.328 180.421 201.536 179.855 201.603ZM180.043 200.72C180.35 200.684 180.637 200.594 180.903 200.452C181.179 200.309 181.426 200.134 181.644 199.927C181.861 199.71 182.036 199.478 182.17 199.231C182.303 198.983 182.376 198.738 182.389 198.495L182.12 196.095C181.928 195.735 181.677 195.427 181.367 195.172C181.055 194.906 180.712 194.715 180.336 194.598C179.97 194.47 179.598 194.429 179.221 194.473C178.784 194.525 178.402 194.665 178.075 194.895C177.758 195.114 177.497 195.391 177.293 195.727C177.098 196.052 176.958 196.411 176.871 196.804C176.784 197.197 176.762 197.582 176.804 197.96C176.851 198.377 176.97 198.766 177.162 199.126C177.352 199.476 177.593 199.785 177.885 200.053C178.185 200.309 178.518 200.497 178.884 200.615C179.259 200.732 179.645 200.767 180.043 200.72Z" fill="white"/>
<line y1="-1.5" x2="72.434" y2="-1.5" transform="matrix(0.111573 0.993756 -0.993128 0.117032 117.61 139.439)" stroke="#FFC100" stroke-width="3"/>
<defs>
<filter id="filter0_dd_311_887" x="82.7541" y="76.6413" width="137.212" height="643.113" filterUnits="userSpaceOnUse" color-interpolation-filters="sRGB">
<feFlood flood-opacity="0" result="BackgroundImageFix"/>
<feColorMatrix in="SourceAlpha" type="matrix" values="0 0 0 0 0 0 0 0 0 0 0 0 0 0 0 0 0 0 127 0" result="hardAlpha"/>
<feMorphology radius="3.50755" operator="dilate" in="SourceAlpha" result="effect1_dropShadow_311_887"/>
<feOffset dx="4.20906" dy="4.20906"/>
<feGaussianBlur stdDeviation="5.26132"/>
<feColorMatrix type="matrix" values="0 0 0 0 0 0 0 0 0 0 0 0 0 0 0 0 0 0 0.1 0"/>
<feBlend mode="normal" in2="BackgroundImageFix" result="effect1_dropShadow_311_887"/>
<feColorMatrix in="SourceAlpha" type="matrix" values="0 0 0 0 0 0 0 0 0 0 0 0 0 0 0 0 0 0 127 0" result="hardAlpha"/>
<feOffset dx="4.20906" dy="4.20906"/>
<feGaussianBlur stdDeviation="3.50755"/>
<feColorMatrix type="matrix" values="0 0 0 0 0 0 0 0 0 0 0 0 0 0 0 0 0 0 0.2 0"/>
<feBlend mode="normal" in2="effect1_dropShadow_311_887" result="effect2_dropShadow_311_887"/>
<feBlend mode="normal" in="SourceGraphic" in2="effect2_dropShadow_311_887" result="shape"/>
</filter>
<filter id="filter1_d_311_887" x="96.1715" y="73.4786" width="179.343" height="215.822" filterUnits="userSpaceOnUse" color-interpolation-filters="sRGB">
<feFlood flood-opacity="0" result="BackgroundImageFix"/>
<feColorMatrix in="SourceAlpha" type="matrix" values="0 0 0 0 0 0 0 0 0 0 0 0 0 0 0 0 0 0 127 0" result="hardAlpha"/>
<feOffset dx="0.70151" dy="1.40302"/>
<feGaussianBlur stdDeviation="1.75378"/>
<feColorMatrix type="matrix" values="0 0 0 0 0.883333 0 0 0 0 0.806042 0 0 0 0 0.806042 0 0 0 0.25 0"/>
<feBlend mode="normal" in2="BackgroundImageFix" result="effect1_dropShadow_311_887"/>
<feBlend mode="normal" in="SourceGraphic" in2="effect1_dropShadow_311_887" result="shape"/>
</filter>
<linearGradient id="paint0_linear_311_887" x1="10.2775" y1="189.629" x2="-17.7016" y2="186.948" gradientUnits="userSpaceOnUse">
<stop stop-opacity="0.2"/>
<stop offset="0.338542" stop-opacity="0"/>
<stop offset="0.630208" stop-color="white" stop-opacity="0"/>
<stop offset="1" stop-color="white" stop-opacity="0.3"/>
</linearGradient>
<linearGradient id="paint1_linear_311_887" x1="149.335" y1="194.141" x2="5.35349" y2="-1.66847" gradientUnits="userSpaceOnUse">
<stop stop-opacity="0.2"/>
<stop offset="0.338542" stop-opacity="0"/>
<stop offset="0.630208" stop-color="white" stop-opacity="0"/>
<stop offset="1" stop-color="white" stop-opacity="0.3"/>
</linearGradient>
<linearGradient id="paint2_linear_311_887" x1="149.335" y1="194.209" x2="5.28777" y2="-1.62072" gradientUnits="userSpaceOnUse">
<stop stop-opacity="0.2"/>
<stop offset="0.338542" stop-opacity="0"/>
<stop offset="0.630208" stop-color="white" stop-opacity="0"/>
<stop offset="1" stop-color="white" stop-opacity="0.3"/>
</linearGradient>
<clipPath id="clip0_311_887">
<rect width="10.2775" height="189.629" fill="white" transform="matrix(0.626174 0.187078 0.115793 1.03492 92.5752 86.4624)"/>
</clipPath>
<clipPath id="clip1_311_887">
<rect width="66.6434" height="582.253" fill="white" transform="matrix(0.626174 0.187078 0.115793 1.03492 92.5752 86.4624)"/>
</clipPath>
<clipPath id="clip2_311_887">
<path d="M92.6021 86.4695V86.4695C96.1563 87.5314 99.5704 93.1543 100.228 99.0286L119.805 274.007C120.463 279.881 118.114 283.782 114.56 282.721V282.721L92.6021 86.4695Z" fill="white"/>
</clipPath>
<clipPath id="clip3_311_887">
<path d="M98.9775 88.5939L227.824 77.4167C239.497 76.404 250.02 84.8644 251.326 96.3134L268.419 246.088C269.726 257.537 261.322 267.639 249.649 268.651L120.802 279.829L98.9775 88.5939Z" fill="white"/>
</clipPath>
<clipPath id="clip4_311_887">
<path d="M98.9775 88.5939L227.824 77.4167C239.497 76.404 250.02 84.8644 251.326 96.3134L268.427 246.155C269.734 257.604 261.33 267.706 249.656 268.719L120.81 279.896L98.9775 88.5939Z" fill="white"/>
</clipPath>
</defs>
</svg>
