<svg width="365" height="349" viewBox="0 0 365 349" fill="none" xmlns="http://www.w3.org/2000/svg">
<path d="M93.6687 87.1849L207.524 70.3528C219.015 68.654 230.088 76.2584 232.366 87.413L264.269 243.627C266.63 255.191 258.639 266.019 246.672 267.471L127.907 281.879L93.6687 87.1849Z" fill="#D3D3D3"/>
<path d="M94.0051 87.8797L212.713 70.8711C224.479 69.1853 235.702 77.2249 237.599 88.6981L263.288 244.078C265.159 255.393 257.234 265.73 245.59 267.164L127.177 281.743L94.0051 87.8797Z" fill="#E2E2E2"/>
<path d="M92.6138 86.5191L217.174 71.523C228.791 70.1244 239.701 78.1192 241.573 89.4031L267.128 243.458C269.006 254.776 261.081 265.12 249.432 266.554L126.569 281.681L92.6138 86.5191Z" fill="#EDEDED"/>
<path d="M98.2122 87.7451L220.73 72.5877C232.633 71.1151 243.749 79.5081 245.272 91.1183L265.352 244.146C266.809 255.249 258.922 265.185 247.538 266.589L125.765 281.606L98.2122 87.7451Z" fill="#F5F5F5"/>
<g clip-path="url(#clip0_217_419)">
<g clip-path="url(#clip1_217_419)">
<g filter="url(#filter0_dd_217_419)">
<rect width="66.6434" height="582.253" transform="matrix(0.626174 0.187078 0.115793 1.03492 92.5754 86.4617)" fill="#FFC100"/>
</g>
</g>
</g>
<g clip-path="url(#clip2_217_419)">
<rect width="10.2775" height="189.629" transform="matrix(0.626174 0.187079 0.115793 1.03492 92.6028 86.4685)" fill="url(#paint0_linear_217_419)" fill-opacity="0.5"/>
<path d="M92.678 83.5465L115.36 286.274" stroke="white" stroke-opacity="0.16" stroke-width="1.05226"/>
<path d="M92.2795 83.4276L114.962 286.155" stroke="white" stroke-opacity="0.16" stroke-width="2.10453"/>
</g>
<g filter="url(#filter1_d_217_419)">
<g clip-path="url(#clip3_217_419)">
<rect width="149.335" height="194.141" transform="matrix(1.00434 -0.0871247 0.112417 0.98503 98.978 88.5939)" fill="url(#paint1_linear_217_419)" fill-opacity="0.5"/>
<path d="M108.342 84.8535L130.812 281.748" stroke="white" stroke-opacity="0.16" stroke-width="1.05227"/>
<path d="M99.0566 85.6591L121.527 282.554" stroke="white" stroke-opacity="0.16" stroke-width="2.10453"/>
</g>
<g clip-path="url(#clip4_217_419)">
<rect width="149.335" height="194.209" transform="matrix(1.00434 -0.0871247 0.112417 0.98503 98.978 88.5939)" fill="url(#paint2_linear_217_419)" fill-opacity="0.5"/>
<path d="M108.342 84.8535L130.812 281.748" stroke="white" stroke-opacity="0.16" stroke-width="1.05227"/>
<path d="M99.0566 85.6591L121.527 282.554" stroke="white" stroke-opacity="0.16" stroke-width="2.10453"/>
</g>
</g>
<rect x="97.5553" y="89.1724" width="150.55" height="196.53" transform="rotate(-6.72 97.5553 89.1724)" fill="#2F3234" stroke="white"/>
<path d="M135.636 258.029L135.211 254.418L136.431 254.274C136.714 254.241 136.952 254.264 137.144 254.346C137.337 254.425 137.487 254.546 137.594 254.709C137.702 254.872 137.768 255.059 137.793 255.272C137.818 255.485 137.797 255.683 137.731 255.868C137.666 256.052 137.549 256.206 137.381 256.331C137.214 256.454 136.989 256.532 136.708 256.566L135.834 256.669L135.788 256.281L136.648 256.179C136.842 256.156 136.994 256.105 137.104 256.024C137.214 255.943 137.288 255.842 137.328 255.722C137.368 255.6 137.38 255.467 137.363 255.323C137.346 255.178 137.304 255.052 137.236 254.944C137.17 254.837 137.073 254.757 136.947 254.707C136.82 254.655 136.659 254.64 136.463 254.664L135.694 254.754L136.074 257.978L135.636 258.029ZM139.537 257.634C139.365 257.654 139.205 257.64 139.058 257.592C138.91 257.543 138.788 257.461 138.691 257.347C138.594 257.233 138.535 257.087 138.514 256.911C138.496 256.755 138.512 256.626 138.562 256.522C138.611 256.418 138.684 256.332 138.78 256.264C138.876 256.197 138.984 256.143 139.104 256.101C139.225 256.058 139.348 256.021 139.472 255.99C139.634 255.949 139.765 255.918 139.866 255.895C139.968 255.871 140.041 255.843 140.085 255.81C140.13 255.777 140.149 255.728 140.141 255.661L140.139 255.646C140.119 255.472 140.055 255.343 139.948 255.258C139.843 255.172 139.695 255.141 139.503 255.164C139.304 255.187 139.154 255.249 139.051 255.349C138.948 255.449 138.88 255.552 138.846 255.656L138.434 255.561C138.485 255.388 138.564 255.249 138.671 255.144C138.779 255.037 138.9 254.957 139.036 254.904C139.173 254.85 139.309 254.815 139.446 254.798C139.533 254.788 139.634 254.787 139.749 254.795C139.865 254.801 139.98 254.83 140.094 254.881C140.208 254.932 140.308 255.017 140.394 255.137C140.479 255.257 140.535 255.425 140.56 255.64L140.77 257.424L140.354 257.473L140.311 257.106L140.29 257.109C140.269 257.171 140.229 257.24 140.171 257.314C140.113 257.389 140.032 257.456 139.929 257.516C139.825 257.576 139.694 257.615 139.537 257.634ZM139.556 257.253C139.721 257.233 139.855 257.185 139.961 257.107C140.067 257.029 140.143 256.935 140.189 256.826C140.235 256.717 140.252 256.606 140.239 256.493L140.194 256.112C140.179 256.135 140.142 256.159 140.084 256.184C140.028 256.207 139.961 256.23 139.885 256.252C139.81 256.273 139.737 256.292 139.665 256.31C139.594 256.327 139.537 256.341 139.493 256.352C139.386 256.379 139.288 256.414 139.198 256.456C139.108 256.498 139.039 256.553 138.988 256.622C138.939 256.69 138.921 256.777 138.933 256.883C138.95 257.027 139.017 257.13 139.132 257.192C139.249 257.252 139.39 257.272 139.556 257.253ZM141.53 257.335L141.211 254.626L141.613 254.579L141.661 254.988L141.689 254.985C141.723 254.845 141.799 254.726 141.919 254.627C142.038 254.528 142.179 254.469 142.342 254.45C142.372 254.446 142.41 254.443 142.456 254.438C142.502 254.434 142.537 254.432 142.561 254.431L142.611 254.855C142.596 254.853 142.563 254.851 142.512 254.85C142.462 254.848 142.409 254.85 142.354 254.856C142.222 254.872 142.108 254.913 142.011 254.981C141.915 255.047 141.843 255.132 141.794 255.235C141.746 255.337 141.73 255.449 141.744 255.572L141.946 257.286L141.53 257.335ZM144.406 254.25L144.448 254.602L143.044 254.768L143.002 254.415L144.406 254.25ZM143.335 253.718L143.751 253.669L144.055 256.251C144.069 256.368 144.097 256.454 144.138 256.509C144.18 256.562 144.229 256.596 144.285 256.61C144.343 256.622 144.402 256.624 144.463 256.617C144.509 256.612 144.547 256.605 144.575 256.597C144.604 256.588 144.627 256.58 144.644 256.574L144.773 256.938C144.746 256.952 144.708 256.967 144.659 256.984C144.609 257.002 144.546 257.015 144.468 257.024C144.351 257.038 144.233 257.026 144.114 256.989C143.996 256.952 143.894 256.886 143.808 256.791C143.723 256.696 143.671 256.57 143.653 256.412L143.335 253.718ZM147.585 252.96L148.01 256.571L147.573 256.623L147.202 253.47L147.18 253.472L146.368 254.162L146.315 253.717L147.148 253.011L147.585 252.96ZM151.56 256.21C151.315 256.239 151.094 256.206 150.895 256.111C150.698 256.017 150.536 255.871 150.408 255.674C150.281 255.476 150.201 255.238 150.168 254.958C150.135 254.676 150.157 254.424 150.234 254.201C150.313 253.979 150.437 253.798 150.607 253.66C150.778 253.522 150.985 253.439 151.23 253.41C151.474 253.381 151.695 253.414 151.892 253.509C152.09 253.604 152.253 253.75 152.38 253.948C152.508 254.147 152.589 254.387 152.622 254.669C152.655 254.949 152.632 255.199 152.554 255.421C152.476 255.642 152.352 255.822 152.181 255.96C152.011 256.098 151.804 256.181 151.56 256.21ZM151.516 255.836C151.701 255.814 151.849 255.749 151.957 255.64C152.066 255.53 152.14 255.394 152.179 255.233C152.219 255.071 152.228 254.899 152.206 254.718C152.185 254.537 152.136 254.372 152.06 254.222C151.984 254.073 151.881 253.957 151.749 253.874C151.618 253.792 151.46 253.762 151.274 253.784C151.088 253.806 150.941 253.872 150.832 253.982C150.724 254.093 150.65 254.23 150.611 254.393C150.572 254.556 150.563 254.728 150.584 254.909C150.605 255.09 150.654 255.255 150.73 255.403C150.806 255.552 150.909 255.666 151.04 255.748C151.171 255.829 151.33 255.858 151.516 255.836ZM154.303 253.084L154.344 253.436L152.884 253.608L152.843 253.256L154.303 253.084ZM153.599 255.913L153.236 252.83C153.218 252.675 153.239 252.542 153.299 252.43C153.36 252.317 153.446 252.229 153.556 252.163C153.666 252.098 153.786 252.058 153.915 252.042C154.018 252.03 154.102 252.029 154.169 252.037C154.235 252.046 154.285 252.056 154.319 252.066L154.241 252.44C154.219 252.436 154.189 252.43 154.15 252.424C154.112 252.418 154.063 252.418 154.003 252.425C153.866 252.441 153.771 252.488 153.718 252.564C153.666 252.641 153.648 252.746 153.664 252.88L154.015 255.864L153.599 255.913ZM157.46 252.712L157.502 253.064L156.098 253.23L156.057 252.877L157.46 252.712ZM156.389 252.18L156.806 252.131L157.11 254.712C157.124 254.83 157.151 254.916 157.192 254.971C157.234 255.024 157.283 255.058 157.34 255.071C157.397 255.084 157.456 255.086 157.518 255.079C157.563 255.074 157.601 255.067 157.63 255.059C157.658 255.049 157.681 255.042 157.699 255.036L157.827 255.4C157.8 255.414 157.762 255.429 157.713 255.446C157.664 255.464 157.6 255.477 157.523 255.486C157.405 255.5 157.287 255.488 157.168 255.451C157.05 255.414 156.949 255.348 156.862 255.253C156.777 255.158 156.725 255.032 156.707 254.874L156.389 252.18ZM158.688 253.661L158.88 255.29L158.464 255.34L158.038 251.728L158.454 251.679L158.611 253.005L158.646 253.001C158.693 252.854 158.775 252.731 158.892 252.634C159.011 252.535 159.176 252.474 159.389 252.449C159.573 252.427 159.739 252.445 159.887 252.503C160.034 252.559 160.155 252.659 160.249 252.801C160.345 252.943 160.406 253.13 160.433 253.362L160.636 255.084L160.22 255.133L160.021 253.44C159.995 253.225 159.92 253.065 159.794 252.96C159.67 252.855 159.509 252.813 159.313 252.837C159.177 252.853 159.058 252.896 158.956 252.966C158.856 253.036 158.781 253.13 158.732 253.248C158.684 253.366 158.669 253.504 158.688 253.661ZM162.54 254.916C162.279 254.947 162.047 254.916 161.844 254.823C161.642 254.729 161.478 254.584 161.351 254.388C161.225 254.191 161.146 253.953 161.113 253.676C161.081 253.398 161.102 253.148 161.179 252.924C161.256 252.699 161.379 252.517 161.547 252.377C161.716 252.235 161.923 252.15 162.167 252.121C162.309 252.105 162.451 252.112 162.594 252.142C162.737 252.173 162.871 252.235 162.996 252.327C163.122 252.419 163.228 252.547 163.315 252.712C163.403 252.877 163.461 253.086 163.491 253.338L163.512 253.515L161.424 253.761L161.381 253.401L163.046 253.205C163.028 253.052 162.981 252.919 162.906 252.807C162.832 252.694 162.735 252.609 162.615 252.553C162.497 252.497 162.362 252.477 162.212 252.495C162.046 252.515 161.907 252.573 161.796 252.669C161.685 252.764 161.606 252.881 161.556 253.019C161.507 253.157 161.491 253.301 161.509 253.45L161.537 253.69C161.561 253.895 161.617 254.064 161.704 254.198C161.793 254.33 161.905 254.426 162.04 254.485C162.176 254.543 162.328 254.562 162.496 254.543C162.605 254.53 162.702 254.503 162.787 254.462C162.872 254.42 162.944 254.363 163.001 254.294C163.058 254.222 163.099 254.138 163.123 254.04L163.538 254.105C163.512 254.246 163.455 254.375 163.367 254.49C163.279 254.604 163.165 254.699 163.025 254.773C162.885 254.847 162.723 254.895 162.54 254.916ZM165.741 254.482L165.315 250.871L165.731 250.822L165.888 252.155L165.924 252.151C165.949 252.1 165.984 252.035 166.029 251.956C166.076 251.875 166.147 251.8 166.242 251.73C166.339 251.659 166.475 251.614 166.652 251.593C166.88 251.566 167.088 251.599 167.275 251.693C167.462 251.786 167.617 251.932 167.739 252.13C167.862 252.328 167.94 252.569 167.973 252.853C168.007 253.14 167.987 253.394 167.915 253.616C167.842 253.837 167.726 254.015 167.566 254.151C167.407 254.285 167.214 254.366 166.989 254.392C166.815 254.413 166.672 254.4 166.561 254.355C166.449 254.309 166.361 254.252 166.296 254.184C166.23 254.116 166.179 254.059 166.143 254.013L166.094 254.019L166.143 254.435L165.741 254.482ZM165.99 253.08C166.014 253.284 166.066 253.461 166.144 253.61C166.222 253.758 166.324 253.87 166.45 253.944C166.575 254.018 166.721 254.045 166.888 254.025C167.062 254.005 167.202 253.942 167.308 253.836C167.414 253.729 167.488 253.594 167.528 253.431C167.569 253.267 167.579 253.088 167.556 252.895C167.534 252.705 167.484 252.536 167.407 252.391C167.331 252.243 167.23 252.132 167.101 252.057C166.974 251.98 166.823 251.952 166.646 251.972C166.477 251.992 166.34 252.052 166.235 252.151C166.13 252.25 166.057 252.379 166.016 252.538C165.975 252.697 165.966 252.877 165.99 253.08ZM169.911 254.048C169.65 254.079 169.418 254.048 169.215 253.955C169.013 253.861 168.849 253.715 168.722 253.519C168.596 253.322 168.517 253.085 168.484 252.807C168.452 252.53 168.473 252.279 168.55 252.056C168.627 251.831 168.749 251.648 168.918 251.508C169.087 251.367 169.294 251.282 169.538 251.253C169.679 251.236 169.822 251.243 169.965 251.274C170.108 251.305 170.242 251.366 170.367 251.459C170.492 251.55 170.599 251.678 170.686 251.843C170.773 252.008 170.832 252.217 170.862 252.47L170.883 252.646L168.795 252.892L168.752 252.532L170.417 252.336C170.399 252.184 170.352 252.051 170.277 251.938C170.203 251.825 170.106 251.741 169.986 251.684C169.867 251.628 169.733 251.609 169.582 251.627C169.417 251.646 169.278 251.704 169.167 251.801C169.056 251.896 168.977 252.013 168.927 252.151C168.878 252.289 168.862 252.433 168.88 252.582L168.908 252.822C168.932 253.026 168.988 253.195 169.075 253.329C169.163 253.462 169.275 253.558 169.411 253.617C169.547 253.675 169.698 253.694 169.867 253.674C169.976 253.661 170.073 253.634 170.157 253.593C170.243 253.551 170.314 253.495 170.372 253.425C170.429 253.354 170.47 253.269 170.494 253.171L170.909 253.237C170.883 253.378 170.826 253.506 170.738 253.621C170.65 253.736 170.536 253.83 170.396 253.905C170.256 253.979 170.094 254.026 169.911 254.048ZM173.329 251.457L172.968 251.607C172.937 251.547 172.895 251.491 172.843 251.437C172.791 251.383 172.724 251.34 172.642 251.311C172.56 251.281 172.458 251.273 172.337 251.288C172.171 251.307 172.038 251.362 171.936 251.451C171.836 251.539 171.792 251.642 171.806 251.758C171.818 251.861 171.865 251.939 171.948 251.99C172.03 252.041 172.153 252.077 172.318 252.098L172.732 252.149C172.981 252.18 173.172 252.248 173.305 252.355C173.438 252.461 173.515 252.609 173.538 252.798C173.556 252.953 173.527 253.097 173.453 253.23C173.379 253.363 173.267 253.474 173.116 253.563C172.966 253.652 172.786 253.709 172.575 253.734C172.299 253.767 172.063 253.734 171.868 253.635C171.673 253.536 171.538 253.375 171.462 253.15L171.846 253.005C171.9 253.146 171.984 253.247 172.098 253.308C172.212 253.368 172.354 253.388 172.525 253.368C172.719 253.345 172.868 253.286 172.972 253.19C173.078 253.093 173.123 252.986 173.11 252.87C173.099 252.776 173.056 252.701 172.983 252.645C172.91 252.589 172.803 252.552 172.663 252.537L172.199 252.484C171.944 252.454 171.751 252.385 171.62 252.275C171.49 252.164 171.414 252.015 171.392 251.828C171.374 251.675 171.401 251.535 171.473 251.407C171.546 251.28 171.654 251.173 171.795 251.089C171.938 251.004 172.104 250.95 172.295 250.928C172.563 250.896 172.78 250.93 172.947 251.03C173.114 251.129 173.242 251.272 173.329 251.457ZM175.112 250.632L175.153 250.984L173.75 251.15L173.708 250.797L175.112 250.632ZM174.041 250.1L174.457 250.051L174.761 252.633C174.775 252.75 174.802 252.836 174.843 252.891C174.885 252.945 174.935 252.978 174.991 252.992C175.049 253.004 175.108 253.007 175.169 252.999C175.215 252.994 175.252 252.987 175.281 252.979C175.31 252.97 175.333 252.962 175.35 252.957L175.479 253.32C175.452 253.334 175.413 253.35 175.364 253.366C175.315 253.384 175.252 253.397 175.174 253.406C175.056 253.42 174.938 253.408 174.819 253.371C174.702 253.334 174.6 253.268 174.514 253.173C174.429 253.078 174.377 252.952 174.358 252.794L174.041 250.1ZM177.679 250.944L177.318 251.094C177.287 251.035 177.245 250.978 177.192 250.925C177.141 250.87 177.074 250.828 176.992 250.798C176.909 250.769 176.808 250.761 176.687 250.775C176.521 250.795 176.387 250.849 176.286 250.939C176.185 251.027 176.142 251.129 176.156 251.245C176.168 251.349 176.215 251.426 176.297 251.477C176.38 251.528 176.503 251.564 176.668 251.586L177.081 251.637C177.331 251.667 177.522 251.736 177.655 251.843C177.787 251.949 177.865 252.096 177.887 252.286C177.906 252.441 177.877 252.585 177.802 252.718C177.729 252.85 177.616 252.961 177.466 253.05C177.316 253.14 177.135 253.197 176.925 253.221C176.649 253.254 176.413 253.221 176.218 253.122C176.023 253.024 175.887 252.862 175.812 252.637L176.195 252.492C176.25 252.634 176.334 252.734 176.447 252.795C176.562 252.855 176.704 252.876 176.875 252.856C177.069 252.833 177.218 252.773 177.322 252.678C177.427 252.581 177.473 252.474 177.46 252.358C177.448 252.263 177.406 252.189 177.333 252.133C177.26 252.076 177.153 252.04 177.013 252.024L176.549 251.971C176.294 251.942 176.101 251.872 175.97 251.762C175.84 251.651 175.764 251.502 175.742 251.316C175.724 251.163 175.751 251.022 175.823 250.895C175.896 250.767 176.003 250.661 176.145 250.576C176.287 250.491 176.454 250.438 176.644 250.415C176.912 250.384 177.13 250.418 177.296 250.517C177.464 250.617 177.592 250.759 177.679 250.944ZM179.745 252.889C179.484 252.92 179.252 252.889 179.049 252.796C178.847 252.702 178.683 252.557 178.556 252.361C178.431 252.163 178.351 251.926 178.319 251.648C178.286 251.371 178.308 251.121 178.384 250.897C178.461 250.672 178.584 250.49 178.752 250.349C178.921 250.208 179.128 250.123 179.373 250.094C179.514 250.077 179.656 250.084 179.799 250.115C179.942 250.146 180.076 250.208 180.202 250.3C180.327 250.392 180.433 250.52 180.52 250.685C180.608 250.85 180.666 251.058 180.696 251.311L180.717 251.487L178.629 251.733L178.587 251.374L180.251 251.178C180.233 251.025 180.187 250.892 180.111 250.779C180.037 250.666 179.94 250.582 179.82 250.526C179.702 250.469 179.567 250.45 179.417 250.468C179.251 250.487 179.112 250.545 179.001 250.642C178.891 250.737 178.811 250.854 178.762 250.992C178.712 251.13 178.696 251.274 178.714 251.423L178.742 251.663C178.766 251.867 178.822 252.037 178.909 252.171C178.998 252.303 179.11 252.399 179.245 252.458C179.381 252.516 179.533 252.535 179.701 252.515C179.81 252.502 179.907 252.476 179.992 252.435C180.077 252.392 180.149 252.336 180.206 252.266C180.263 252.195 180.304 252.111 180.328 252.012L180.744 252.078C180.717 252.219 180.66 252.348 180.573 252.463C180.485 252.577 180.371 252.671 180.23 252.746C180.09 252.82 179.928 252.868 179.745 252.889ZM181.483 248.966L181.909 252.577L181.493 252.626L181.067 249.015L181.483 248.966ZM182.662 248.827L183.087 252.438L182.671 252.487L182.246 248.876L182.662 248.827ZM183.85 252.348L183.53 249.64L183.947 249.591L184.266 252.299L183.85 252.348ZM183.689 249.163C183.608 249.173 183.535 249.154 183.469 249.105C183.405 249.057 183.369 248.994 183.359 248.916C183.35 248.839 183.371 248.769 183.422 248.707C183.475 248.645 183.541 248.609 183.622 248.599C183.703 248.59 183.776 248.609 183.84 248.658C183.906 248.706 183.943 248.769 183.952 248.846C183.961 248.924 183.939 248.994 183.887 249.056C183.836 249.118 183.77 249.154 183.689 249.163ZM185.252 250.531L185.444 252.16L185.028 252.21L184.709 249.501L185.111 249.454L185.161 249.877L185.196 249.873C185.243 249.728 185.327 249.606 185.446 249.507C185.565 249.407 185.727 249.345 185.932 249.321C186.115 249.299 186.28 249.318 186.427 249.377C186.573 249.435 186.693 249.535 186.787 249.678C186.882 249.819 186.942 250.005 186.969 250.236L187.172 251.957L186.756 252.006L186.557 250.313C186.532 250.1 186.457 249.941 186.332 249.835C186.208 249.728 186.049 249.686 185.856 249.709C185.723 249.725 185.608 249.768 185.51 249.837C185.413 249.907 185.342 250.001 185.295 250.118C185.248 250.236 185.234 250.374 185.252 250.531ZM189.152 252.811C188.951 252.834 188.775 252.829 188.625 252.794C188.474 252.761 188.346 252.708 188.24 252.636C188.135 252.565 188.048 252.485 187.981 252.398L188.285 252.126C188.328 252.171 188.383 252.222 188.448 252.279C188.513 252.336 188.598 252.383 188.704 252.418C188.811 252.455 188.946 252.463 189.109 252.444C189.328 252.418 189.502 252.344 189.632 252.221C189.762 252.099 189.813 251.925 189.787 251.699L189.722 251.149L189.686 251.153C189.662 251.206 189.625 251.272 189.578 251.352C189.531 251.43 189.458 251.503 189.36 251.572C189.263 251.64 189.127 251.684 188.95 251.704C188.732 251.73 188.529 251.702 188.343 251.619C188.158 251.536 188.004 251.401 187.879 251.216C187.756 251.03 187.678 250.796 187.644 250.514C187.612 250.236 187.632 249.989 187.705 249.772C187.779 249.553 187.896 249.378 188.056 249.244C188.217 249.11 188.411 249.029 188.639 249.002C188.816 248.981 188.959 248.994 189.069 249.041C189.181 249.086 189.268 249.143 189.332 249.21C189.397 249.276 189.448 249.331 189.484 249.375L189.526 249.37L189.476 248.939L189.878 248.892L190.206 251.678C190.233 251.911 190.203 252.106 190.114 252.265C190.027 252.424 189.898 252.548 189.729 252.637C189.561 252.727 189.369 252.785 189.152 252.811ZM188.963 251.324C189.13 251.304 189.266 251.249 189.373 251.159C189.479 251.069 189.553 250.949 189.596 250.799C189.639 250.648 189.649 250.473 189.626 250.273C189.603 250.078 189.553 249.909 189.477 249.767C189.4 249.625 189.299 249.518 189.174 249.447C189.049 249.376 188.902 249.35 188.733 249.37C188.556 249.391 188.415 249.453 188.308 249.556C188.202 249.659 188.128 249.789 188.087 249.947C188.047 250.104 188.038 250.274 188.06 250.458C188.082 250.646 188.131 250.809 188.207 250.946C188.284 251.083 188.385 251.185 188.511 251.254C188.638 251.321 188.789 251.344 188.963 251.324ZM194.026 249.018L193.665 249.168C193.634 249.108 193.592 249.052 193.539 248.999C193.488 248.944 193.421 248.902 193.338 248.872C193.256 248.842 193.155 248.835 193.034 248.849C192.868 248.869 192.734 248.923 192.633 249.013C192.532 249.101 192.489 249.203 192.503 249.319C192.515 249.423 192.562 249.5 192.644 249.551C192.727 249.602 192.85 249.638 193.015 249.659L193.428 249.711C193.677 249.741 193.868 249.81 194.001 249.917C194.134 250.023 194.212 250.17 194.234 250.36C194.252 250.515 194.224 250.659 194.149 250.792C194.075 250.924 193.963 251.035 193.813 251.124C193.663 251.214 193.482 251.271 193.272 251.295C192.995 251.328 192.76 251.295 192.565 251.196C192.369 251.098 192.234 250.936 192.159 250.711L192.542 250.566C192.597 250.707 192.681 250.808 192.794 250.869C192.909 250.929 193.051 250.95 193.221 250.929C193.415 250.907 193.565 250.847 193.669 250.752C193.774 250.655 193.82 250.548 193.806 250.431C193.795 250.337 193.753 250.263 193.68 250.207C193.606 250.15 193.5 250.114 193.36 250.098L192.896 250.045C192.641 250.016 192.448 249.946 192.317 249.836C192.187 249.725 192.111 249.576 192.089 249.389C192.071 249.237 192.098 249.096 192.17 248.969C192.243 248.841 192.35 248.735 192.492 248.65C192.634 248.565 192.801 248.512 192.991 248.489C193.259 248.458 193.477 248.492 193.643 248.591C193.811 248.691 193.939 248.833 194.026 249.018ZM196.092 250.963C195.831 250.994 195.599 250.963 195.396 250.87C195.194 250.776 195.03 250.631 194.903 250.435C194.777 250.237 194.698 250 194.666 249.722C194.633 249.445 194.655 249.194 194.731 248.971C194.808 248.746 194.931 248.564 195.099 248.423C195.268 248.282 195.475 248.197 195.72 248.168C195.861 248.151 196.003 248.158 196.146 248.189C196.289 248.22 196.423 248.282 196.548 248.374C196.674 248.465 196.78 248.594 196.867 248.759C196.955 248.923 197.013 249.132 197.043 249.385L197.064 249.561L194.976 249.807L194.934 249.448L196.598 249.251C196.58 249.099 196.533 248.966 196.458 248.853C196.384 248.74 196.287 248.656 196.167 248.6C196.049 248.543 195.914 248.524 195.764 248.542C195.598 248.561 195.459 248.619 195.348 248.716C195.238 248.811 195.158 248.928 195.108 249.066C195.059 249.204 195.043 249.348 195.061 249.497L195.089 249.737C195.113 249.941 195.169 250.111 195.256 250.245C195.345 250.377 195.457 250.473 195.592 250.532C195.728 250.59 195.88 250.609 196.048 250.589C196.157 250.576 196.254 250.549 196.339 250.509C196.424 250.466 196.496 250.41 196.553 250.34C196.61 250.269 196.651 250.184 196.675 250.086L197.09 250.152C197.064 250.293 197.007 250.421 196.919 250.537C196.832 250.651 196.718 250.745 196.577 250.82C196.437 250.894 196.275 250.942 196.092 250.963ZM197.84 250.7L197.521 247.991L197.923 247.944L197.971 248.353L197.999 248.35C198.033 248.21 198.109 248.091 198.229 247.992C198.348 247.893 198.489 247.834 198.651 247.815C198.682 247.812 198.72 247.808 198.766 247.804C198.812 247.799 198.847 247.797 198.871 247.797L198.921 248.22C198.906 248.218 198.873 248.216 198.822 248.215C198.771 248.213 198.719 248.215 198.663 248.221C198.532 248.237 198.417 248.278 198.32 248.346C198.225 248.412 198.152 248.497 198.104 248.6C198.056 248.702 198.04 248.815 198.054 248.937L198.256 250.651L197.84 250.7ZM199.687 250.482L199.368 247.774L199.784 247.725L200.103 250.433L199.687 250.482ZM199.527 247.297C199.445 247.307 199.372 247.288 199.307 247.239C199.243 247.191 199.206 247.128 199.197 247.05C199.188 246.973 199.209 246.903 199.26 246.841C199.312 246.779 199.379 246.743 199.46 246.733C199.541 246.724 199.614 246.743 199.678 246.791C199.743 246.84 199.78 246.903 199.79 246.98C199.799 247.058 199.777 247.128 199.725 247.19C199.674 247.252 199.608 247.288 199.527 247.297ZM202.008 250.266C201.747 250.297 201.515 250.266 201.312 250.173C201.11 250.079 200.946 249.933 200.819 249.737C200.694 249.54 200.614 249.303 200.582 249.025C200.549 248.748 200.571 248.497 200.647 248.274C200.724 248.049 200.847 247.866 201.015 247.726C201.184 247.585 201.391 247.5 201.636 247.471C201.777 247.454 201.919 247.461 202.062 247.492C202.205 247.523 202.339 247.585 202.465 247.677C202.59 247.768 202.696 247.897 202.783 248.061C202.871 248.226 202.929 248.435 202.959 248.688L202.98 248.864L200.892 249.11L200.85 248.751L202.514 248.554C202.496 248.402 202.45 248.269 202.374 248.156C202.3 248.043 202.203 247.959 202.083 247.903C201.965 247.846 201.83 247.827 201.68 247.845C201.514 247.864 201.375 247.922 201.264 248.019C201.154 248.114 201.074 248.231 201.025 248.369C200.975 248.507 200.959 248.651 200.977 248.8L201.005 249.04C201.029 249.244 201.085 249.414 201.172 249.547C201.261 249.68 201.373 249.776 201.508 249.835C201.644 249.893 201.796 249.912 201.964 249.892C202.073 249.879 202.17 249.852 202.255 249.811C202.34 249.769 202.412 249.713 202.469 249.643C202.526 249.572 202.567 249.487 202.591 249.389L203.006 249.455C202.98 249.596 202.923 249.724 202.836 249.84C202.748 249.954 202.634 250.048 202.493 250.123C202.353 250.197 202.191 250.244 202.008 250.266ZM205.427 247.675L205.065 247.825C205.034 247.765 204.993 247.709 204.94 247.655C204.888 247.601 204.821 247.558 204.739 247.529C204.657 247.499 204.555 247.492 204.434 247.506C204.268 247.525 204.135 247.58 204.033 247.669C203.933 247.757 203.889 247.86 203.903 247.976C203.915 248.079 203.963 248.157 204.045 248.208C204.127 248.259 204.251 248.295 204.415 248.316L204.829 248.367C205.078 248.398 205.269 248.466 205.402 248.573C205.535 248.679 205.613 248.827 205.635 249.016C205.653 249.171 205.625 249.315 205.55 249.448C205.476 249.581 205.364 249.692 205.214 249.781C205.063 249.87 204.883 249.927 204.672 249.952C204.396 249.985 204.16 249.952 203.965 249.853C203.77 249.754 203.635 249.593 203.559 249.368L203.943 249.223C203.998 249.364 204.082 249.465 204.195 249.526C204.309 249.586 204.452 249.606 204.622 249.586C204.816 249.563 204.965 249.504 205.07 249.408C205.175 249.311 205.221 249.205 205.207 249.088C205.196 248.994 205.154 248.919 205.08 248.863C205.007 248.807 204.9 248.77 204.76 248.755L204.296 248.702C204.041 248.672 203.848 248.603 203.717 248.493C203.588 248.382 203.512 248.233 203.49 248.046C203.472 247.893 203.498 247.753 203.57 247.625C203.644 247.498 203.751 247.391 203.892 247.307C204.035 247.222 204.201 247.168 204.392 247.146C204.66 247.114 204.877 247.148 205.044 247.248C205.212 247.347 205.339 247.49 205.427 247.675ZM207.313 247.066L207.276 246.749C207.264 246.653 207.269 246.548 207.291 246.436C207.313 246.323 207.351 246.212 207.405 246.103C207.46 245.992 207.53 245.894 207.615 245.808L207.863 245.965C207.801 246.079 207.75 246.197 207.708 246.319C207.667 246.439 207.655 246.565 207.67 246.695L207.708 247.02L207.313 247.066ZM208.216 246.96L208.179 246.643C208.167 246.546 208.172 246.442 208.194 246.33C208.216 246.216 208.254 246.105 208.308 245.996C208.363 245.886 208.433 245.788 208.518 245.702L208.766 245.858C208.704 245.973 208.652 246.091 208.611 246.213C208.57 246.333 208.557 246.459 208.573 246.589L208.611 246.914L208.216 246.96ZM210.35 249.226L208.937 245.731L209.382 245.678L210.483 248.531L210.518 248.527L210.941 245.495L211.434 245.437L212.55 248.287L212.585 248.283L212.993 245.253L213.438 245.201L212.876 248.928L212.424 248.982L211.288 246.198L211.26 246.201L210.802 249.173L210.35 249.226ZM214.576 247.076L214.768 248.705L214.351 248.754L213.926 245.143L214.342 245.094L214.498 246.42L214.534 246.416C214.581 246.269 214.663 246.146 214.78 246.049C214.898 245.95 215.064 245.889 215.277 245.864C215.461 245.842 215.627 245.86 215.775 245.917C215.922 245.974 216.043 246.074 216.137 246.216C216.232 246.358 216.294 246.545 216.321 246.777L216.524 248.498L216.108 248.547L215.908 246.855C215.883 246.64 215.808 246.48 215.682 246.375C215.558 246.27 215.397 246.228 215.201 246.251C215.064 246.268 214.946 246.311 214.844 246.381C214.744 246.451 214.669 246.545 214.62 246.663C214.572 246.781 214.557 246.919 214.576 247.076ZM217.576 249.404C217.505 249.413 217.442 249.414 217.385 249.409C217.329 249.405 217.289 249.399 217.267 249.391L217.329 249.011C217.434 249.025 217.524 249.024 217.601 249.008C217.678 248.992 217.742 248.949 217.795 248.88C217.849 248.811 217.893 248.705 217.927 248.562L217.98 248.341L216.658 245.737L217.109 245.683L218.111 247.754L218.139 247.75L218.633 245.504L219.084 245.451L218.3 248.69C218.265 248.836 218.214 248.959 218.149 249.06C218.083 249.162 218.003 249.241 217.907 249.297C217.812 249.354 217.702 249.389 217.576 249.404ZM221.737 248.914C221.666 248.922 221.603 248.924 221.546 248.919C221.489 248.915 221.45 248.908 221.428 248.9L221.49 248.521C221.594 248.535 221.685 248.534 221.762 248.518C221.838 248.502 221.903 248.459 221.956 248.389C222.009 248.321 222.054 248.215 222.088 248.072L222.141 247.851L220.818 245.246L221.27 245.193L222.272 247.263L222.3 247.26L222.793 245.014L223.245 244.96L222.461 248.199C222.425 248.345 222.375 248.469 222.309 248.569C222.244 248.671 222.163 248.751 222.067 248.807C221.973 248.864 221.862 248.899 221.737 248.914ZM225.123 247.542C224.879 247.571 224.657 247.538 224.459 247.444C224.262 247.349 224.099 247.203 223.971 247.006C223.844 246.809 223.764 246.57 223.731 246.29C223.698 246.008 223.72 245.756 223.798 245.534C223.876 245.311 224 245.131 224.17 244.993C224.341 244.855 224.549 244.771 224.793 244.742C225.038 244.713 225.258 244.746 225.456 244.841C225.654 244.936 225.817 245.082 225.944 245.281C226.072 245.479 226.153 245.719 226.186 246.001C226.219 246.281 226.196 246.532 226.117 246.753C226.039 246.974 225.915 247.154 225.744 247.292C225.575 247.43 225.368 247.514 225.123 247.542ZM225.079 247.169C225.265 247.147 225.412 247.081 225.521 246.972C225.629 246.862 225.703 246.727 225.743 246.565C225.782 246.403 225.791 246.231 225.77 246.05C225.748 245.869 225.7 245.704 225.624 245.554C225.548 245.405 225.444 245.289 225.313 245.207C225.181 245.124 225.023 245.094 224.837 245.116C224.651 245.138 224.504 245.204 224.396 245.315C224.287 245.425 224.213 245.562 224.174 245.725C224.135 245.888 224.126 246.06 224.147 246.241C224.169 246.422 224.217 246.587 224.293 246.736C224.369 246.884 224.473 246.999 224.604 247.08C224.735 247.161 224.893 247.191 225.079 247.169ZM228.555 245.958L228.367 244.357L228.783 244.308L229.102 247.016L228.686 247.065L228.632 246.607L228.604 246.61C228.556 246.755 228.471 246.884 228.349 246.996C228.226 247.107 228.062 247.175 227.858 247.199C227.688 247.219 227.534 247.199 227.393 247.141C227.253 247.081 227.136 246.98 227.043 246.839C226.95 246.696 226.89 246.509 226.863 246.279L226.66 244.558L227.076 244.509L227.275 246.202C227.299 246.399 227.373 246.55 227.497 246.655C227.622 246.759 227.772 246.801 227.944 246.781C228.048 246.769 228.15 246.73 228.251 246.664C228.353 246.599 228.434 246.507 228.494 246.389C228.555 246.271 228.575 246.127 228.555 245.958ZM136.282 263.995L135.963 261.286L136.365 261.239L136.413 261.648L136.441 261.644C136.475 261.505 136.552 261.385 136.671 261.287C136.79 261.188 136.931 261.129 137.094 261.11C137.124 261.106 137.162 261.102 137.208 261.098C137.254 261.094 137.289 261.092 137.313 261.091L137.363 261.514C137.348 261.513 137.315 261.511 137.264 261.51C137.214 261.508 137.161 261.51 137.106 261.516C136.974 261.532 136.86 261.573 136.763 261.641C136.667 261.707 136.595 261.791 136.546 261.895C136.498 261.997 136.482 262.109 136.496 262.232L136.698 263.946L136.282 263.995ZM138.13 263.777L137.811 261.068L138.227 261.019L138.546 263.728L138.13 263.777ZM137.969 260.592C137.888 260.602 137.815 260.582 137.749 260.534C137.685 260.485 137.649 260.422 137.639 260.345C137.63 260.267 137.651 260.197 137.702 260.135C137.755 260.073 137.821 260.037 137.902 260.028C137.984 260.018 138.056 260.038 138.12 260.086C138.186 260.134 138.223 260.197 138.232 260.275C138.241 260.353 138.22 260.422 138.167 260.485C138.116 260.547 138.05 260.582 137.969 260.592ZM140.528 264.581C140.327 264.605 140.151 264.6 140 264.565C139.85 264.531 139.721 264.479 139.615 264.406C139.51 264.335 139.424 264.256 139.356 264.169L139.66 263.897C139.704 263.942 139.758 263.993 139.823 264.049C139.888 264.107 139.974 264.154 140.079 264.189C140.186 264.225 140.321 264.234 140.484 264.215C140.703 264.189 140.877 264.115 141.007 263.992C141.137 263.87 141.188 263.695 141.162 263.47L141.097 262.92L141.062 262.924C141.037 262.977 141.001 263.043 140.953 263.122C140.906 263.201 140.834 263.274 140.736 263.343C140.639 263.41 140.502 263.454 140.326 263.475C140.107 263.501 139.905 263.472 139.719 263.389C139.534 263.306 139.379 263.172 139.254 262.986C139.131 262.801 139.053 262.567 139.02 262.285C138.987 262.007 139.007 261.76 139.081 261.543C139.154 261.324 139.271 261.148 139.432 261.015C139.592 260.88 139.786 260.8 140.015 260.773C140.191 260.752 140.334 260.765 140.445 260.812C140.556 260.857 140.644 260.913 140.708 260.981C140.773 261.047 140.823 261.102 140.859 261.145L140.902 261.14L140.851 260.71L141.253 260.663L141.581 263.449C141.609 263.682 141.578 263.877 141.49 264.035C141.402 264.195 141.274 264.319 141.104 264.408C140.936 264.498 140.744 264.556 140.528 264.581ZM140.338 263.095C140.505 263.075 140.642 263.02 140.748 262.93C140.854 262.84 140.929 262.72 140.972 262.57C141.015 262.419 141.025 262.244 141.001 262.044C140.978 261.849 140.928 261.68 140.852 261.538C140.776 261.395 140.675 261.289 140.55 261.218C140.424 261.147 140.277 261.121 140.108 261.141C139.932 261.162 139.79 261.224 139.683 261.327C139.577 261.43 139.504 261.56 139.463 261.718C139.423 261.875 139.414 262.045 139.435 262.229C139.457 262.417 139.506 262.58 139.582 262.717C139.659 262.854 139.76 262.956 139.887 263.025C140.014 263.092 140.164 263.115 140.338 263.095ZM142.558 261.603L142.75 263.232L142.334 263.282L141.908 259.67L142.325 259.621L142.481 260.947L142.516 260.943C142.563 260.796 142.645 260.673 142.763 260.576C142.881 260.478 143.046 260.416 143.259 260.391C143.444 260.369 143.61 260.387 143.757 260.445C143.904 260.501 144.025 260.601 144.12 260.743C144.215 260.885 144.276 261.072 144.304 261.305L144.506 263.026L144.09 263.075L143.891 261.382C143.865 261.167 143.79 261.007 143.665 260.902C143.54 260.797 143.38 260.755 143.183 260.779C143.047 260.795 142.928 260.838 142.827 260.908C142.726 260.978 142.652 261.072 142.602 261.19C142.554 261.308 142.54 261.446 142.558 261.603ZM146.127 260.089L146.168 260.441L144.764 260.607L144.723 260.254L146.127 260.089ZM145.056 259.557L145.472 259.508L145.776 262.089C145.79 262.207 145.817 262.293 145.858 262.348C145.9 262.401 145.95 262.435 146.006 262.448C146.063 262.461 146.123 262.463 146.184 262.456C146.23 262.451 146.267 262.444 146.296 262.436C146.325 262.426 146.348 262.419 146.365 262.413L146.493 262.777C146.466 262.791 146.428 262.806 146.379 262.823C146.33 262.841 146.266 262.854 146.189 262.863C146.071 262.877 145.953 262.865 145.834 262.828C145.717 262.791 145.615 262.725 145.529 262.63C145.443 262.535 145.392 262.409 145.373 262.251L145.056 259.557ZM147.959 259.873L148 260.225L146.54 260.397L146.499 260.045L147.959 259.873ZM147.255 262.702L146.892 259.619C146.874 259.464 146.895 259.331 146.956 259.218C147.016 259.106 147.102 259.018 147.212 258.952C147.322 258.887 147.442 258.846 147.571 258.831C147.674 258.819 147.758 258.818 147.825 258.826C147.891 258.835 147.941 258.845 147.975 258.855L147.897 259.229C147.875 259.225 147.845 259.219 147.806 259.213C147.768 259.207 147.719 259.207 147.659 259.214C147.522 259.23 147.427 259.277 147.374 259.353C147.322 259.43 147.304 259.535 147.32 259.669L147.671 262.653L147.255 262.702ZM150.438 261.204L150.249 259.603L150.665 259.554L150.984 262.262L150.568 262.311L150.514 261.853L150.486 261.856C150.439 262.001 150.354 262.13 150.231 262.242C150.108 262.353 149.944 262.421 149.74 262.445C149.571 262.465 149.416 262.445 149.275 262.387C149.135 262.327 149.018 262.226 148.925 262.085C148.832 261.942 148.772 261.755 148.745 261.525L148.542 259.804L148.958 259.755L149.158 261.448C149.181 261.645 149.255 261.796 149.379 261.901C149.505 262.005 149.654 262.047 149.827 262.027C149.93 262.015 150.032 261.976 150.133 261.91C150.235 261.845 150.316 261.753 150.376 261.635C150.437 261.517 150.457 261.373 150.438 261.204ZM151.737 258.512L152.163 262.123L151.746 262.172L151.321 258.561L151.737 258.512ZM152.915 258.373L153.341 261.985L152.925 262.034L152.499 258.422L152.915 258.373ZM154.491 262.879C154.42 262.887 154.357 262.889 154.3 262.884C154.244 262.879 154.204 262.873 154.182 262.865L154.244 262.486C154.348 262.5 154.439 262.499 154.516 262.483C154.592 262.466 154.657 262.424 154.71 262.354C154.764 262.286 154.808 262.18 154.842 262.037L154.895 261.816L153.572 259.211L154.024 259.158L155.026 261.228L155.054 261.225L155.547 258.978L155.999 258.925L155.215 262.164C155.18 262.31 155.129 262.434 155.063 262.534C154.998 262.636 154.917 262.715 154.822 262.772C154.727 262.828 154.617 262.864 154.491 262.879ZM158.488 259.726L158.68 261.356L158.264 261.405L157.838 257.793L158.254 257.744L158.411 259.07L158.446 259.066C158.493 258.919 158.575 258.796 158.692 258.699C158.811 258.601 158.976 258.539 159.189 258.514C159.374 258.492 159.54 258.51 159.687 258.568C159.834 258.624 159.955 258.724 160.049 258.866C160.145 259.008 160.206 259.195 160.234 259.428L160.436 261.149L160.02 261.198L159.821 259.505C159.795 259.29 159.72 259.13 159.594 259.025C159.47 258.92 159.309 258.878 159.113 258.902C158.977 258.918 158.858 258.961 158.757 259.031C158.656 259.101 158.582 259.195 158.532 259.313C158.484 259.431 158.469 259.569 158.488 259.726ZM162.002 261.028C161.831 261.049 161.671 261.035 161.523 260.987C161.376 260.937 161.254 260.856 161.157 260.742C161.06 260.627 161.001 260.481 160.98 260.305C160.962 260.15 160.978 260.02 161.027 259.917C161.077 259.812 161.15 259.726 161.245 259.659C161.341 259.591 161.449 259.537 161.569 259.495C161.691 259.453 161.813 259.415 161.937 259.384C162.099 259.344 162.231 259.312 162.332 259.289C162.434 259.265 162.507 259.237 162.551 259.205C162.596 259.172 162.614 259.122 162.606 259.055L162.605 259.041C162.584 258.867 162.521 258.737 162.414 258.652C162.309 258.567 162.16 258.535 161.969 258.558C161.77 258.581 161.619 258.643 161.517 258.744C161.414 258.844 161.346 258.946 161.311 259.05L160.9 258.956C160.951 258.783 161.03 258.644 161.137 258.538C161.244 258.431 161.366 258.351 161.502 258.298C161.638 258.244 161.775 258.209 161.911 258.193C161.998 258.183 162.099 258.181 162.215 258.189C162.331 258.196 162.446 258.225 162.559 258.276C162.674 258.327 162.774 258.412 162.859 258.532C162.945 258.652 163 258.819 163.026 259.034L163.236 260.819L162.82 260.868L162.777 260.501L162.756 260.503C162.734 260.566 162.695 260.634 162.637 260.709C162.579 260.784 162.498 260.851 162.394 260.911C162.29 260.971 162.16 261.01 162.002 261.028ZM162.022 260.647C162.186 260.628 162.321 260.579 162.426 260.501C162.533 260.423 162.609 260.329 162.654 260.22C162.701 260.111 162.718 260 162.704 259.887L162.66 259.506C162.644 259.53 162.608 259.554 162.55 259.578C162.493 259.602 162.427 259.624 162.351 259.646C162.276 259.667 162.202 259.687 162.13 259.705C162.06 259.721 162.002 259.735 161.958 259.746C161.852 259.773 161.753 259.808 161.663 259.851C161.574 259.892 161.504 259.948 161.454 260.017C161.405 260.085 161.386 260.171 161.399 260.277C161.416 260.422 161.482 260.525 161.598 260.586C161.715 260.646 161.856 260.667 162.022 260.647ZM164.854 257.882L164.896 258.235L163.492 258.4L163.451 258.047L164.854 257.882ZM163.783 257.35L164.2 257.301L164.504 259.883C164.518 260 164.545 260.086 164.586 260.141C164.628 260.195 164.677 260.228 164.734 260.242C164.791 260.254 164.851 260.257 164.912 260.249C164.958 260.244 164.995 260.237 165.024 260.229C165.052 260.22 165.075 260.212 165.093 260.207L165.221 260.57C165.194 260.584 165.156 260.6 165.107 260.616C165.058 260.634 164.994 260.647 164.917 260.656C164.799 260.67 164.681 260.659 164.562 260.621C164.445 260.584 164.343 260.518 164.256 260.423C164.171 260.328 164.119 260.202 164.101 260.045L163.783 257.35ZM166.913 260.443C166.652 260.473 166.42 260.442 166.217 260.349C166.015 260.255 165.851 260.11 165.724 259.914C165.598 259.717 165.519 259.479 165.486 259.202C165.454 258.924 165.475 258.674 165.552 258.45C165.629 258.226 165.752 258.043 165.92 257.903C166.089 257.761 166.296 257.676 166.54 257.647C166.682 257.631 166.824 257.638 166.967 257.669C167.11 257.7 167.244 257.761 167.369 257.854C167.495 257.945 167.601 258.073 167.688 258.238C167.776 258.403 167.834 258.612 167.864 258.865L167.885 259.041L165.797 259.287L165.754 258.927L167.419 258.731C167.401 258.578 167.354 258.445 167.279 258.333C167.205 258.22 167.108 258.135 166.988 258.079C166.87 258.023 166.735 258.004 166.585 258.021C166.419 258.041 166.28 258.099 166.169 258.195C166.058 258.291 165.979 258.407 165.929 258.545C165.88 258.684 165.864 258.827 165.882 258.977L165.91 259.216C165.934 259.421 165.99 259.59 166.077 259.724C166.166 259.857 166.278 259.953 166.413 260.012C166.549 260.07 166.701 260.089 166.869 260.069C166.978 260.056 167.075 260.029 167.16 259.988C167.245 259.946 167.317 259.89 167.374 259.82C167.431 259.749 167.472 259.664 167.496 259.566L167.911 259.631C167.885 259.773 167.828 259.901 167.74 260.016C167.652 260.13 167.538 260.225 167.398 260.3C167.258 260.373 167.096 260.421 166.913 260.443ZM171.071 256.234L171.508 256.183L171.812 258.764C171.839 258.995 171.82 259.195 171.754 259.366C171.689 259.537 171.584 259.674 171.44 259.775C171.295 259.877 171.119 259.94 170.909 259.965C170.712 259.988 170.532 259.973 170.37 259.919C170.207 259.864 170.074 259.775 169.97 259.652C169.866 259.528 169.803 259.374 169.781 259.189L170.211 259.139C170.223 259.241 170.259 259.327 170.319 259.398C170.379 259.467 170.457 259.517 170.551 259.549C170.646 259.581 170.75 259.59 170.864 259.577C170.99 259.562 171.093 259.523 171.175 259.46C171.257 259.396 171.315 259.311 171.349 259.203C171.384 259.094 171.392 258.965 171.375 258.816L171.071 256.234ZM173.558 259.667C173.386 259.687 173.227 259.673 173.079 259.625C172.932 259.576 172.809 259.494 172.713 259.38C172.616 259.265 172.557 259.12 172.536 258.943C172.518 258.788 172.533 258.659 172.583 258.555C172.633 258.45 172.705 258.364 172.801 258.297C172.897 258.23 173.005 258.175 173.125 258.134C173.247 258.091 173.369 258.054 173.493 258.023C173.655 257.982 173.787 257.95 173.888 257.928C173.99 257.904 174.063 257.876 174.106 257.843C174.151 257.81 174.17 257.76 174.162 257.693L174.16 257.679C174.14 257.505 174.076 257.376 173.97 257.291C173.864 257.205 173.716 257.174 173.524 257.196C173.326 257.22 173.175 257.282 173.072 257.382C172.97 257.482 172.901 257.585 172.867 257.689L172.456 257.594C172.507 257.421 172.586 257.282 172.692 257.176C172.8 257.07 172.922 256.99 173.057 256.937C173.194 256.883 173.331 256.847 173.467 256.831C173.554 256.821 173.655 256.82 173.771 256.828C173.887 256.834 174.002 256.863 174.115 256.914C174.229 256.965 174.33 257.05 174.415 257.17C174.501 257.29 174.556 257.457 174.582 257.673L174.792 259.457L174.376 259.506L174.333 259.139L174.311 259.142C174.29 259.204 174.25 259.272 174.193 259.347C174.135 259.422 174.054 259.489 173.95 259.549C173.846 259.609 173.715 259.648 173.558 259.667ZM173.577 259.286C173.742 259.266 173.877 259.217 173.982 259.14C174.089 259.061 174.165 258.968 174.21 258.859C174.257 258.75 174.274 258.639 174.26 258.526L174.215 258.145C174.2 258.168 174.164 258.192 174.106 258.217C174.049 258.24 173.983 258.263 173.906 258.285C173.831 258.306 173.758 258.325 173.686 258.343C173.615 258.36 173.558 258.374 173.514 258.385C173.408 258.412 173.309 258.446 173.219 258.489C173.13 258.531 173.06 258.586 173.01 258.655C172.96 258.723 172.942 258.81 172.955 258.916C172.972 259.06 173.038 259.163 173.154 259.225C173.27 259.285 173.412 259.305 173.577 259.286ZM177.35 256.41L176.668 259.236L176.244 259.286L174.924 256.695L175.375 256.642L176.377 258.713L176.405 258.709L176.899 256.463L177.35 256.41ZM178.941 259.033C178.769 259.053 178.609 259.039 178.462 258.991C178.314 258.941 178.192 258.86 178.095 258.746C177.998 258.631 177.939 258.486 177.919 258.309C177.9 258.154 177.916 258.025 177.966 257.921C178.015 257.816 178.088 257.73 178.184 257.663C178.28 257.596 178.388 257.541 178.508 257.5C178.629 257.457 178.752 257.42 178.876 257.388C179.038 257.348 179.169 257.316 179.27 257.294C179.372 257.27 179.445 257.241 179.489 257.209C179.534 257.176 179.553 257.126 179.545 257.059L179.543 257.045C179.523 256.871 179.459 256.742 179.353 256.656C179.247 256.571 179.099 256.54 178.907 256.562C178.708 256.586 178.558 256.647 178.455 256.748C178.352 256.848 178.284 256.95 178.25 257.054L177.838 256.96C177.889 256.787 177.968 256.648 178.075 256.542C178.183 256.435 178.305 256.355 178.44 256.303C178.577 256.248 178.713 256.213 178.85 256.197C178.937 256.187 179.038 256.186 179.153 256.194C179.27 256.2 179.384 256.229 179.498 256.28C179.612 256.331 179.712 256.416 179.798 256.536C179.883 256.656 179.939 256.823 179.964 257.038L180.175 258.823L179.758 258.872L179.715 258.505L179.694 258.508C179.673 258.57 179.633 258.638 179.575 258.713C179.517 258.788 179.436 258.855 179.333 258.915C179.229 258.975 179.098 259.014 178.941 259.033ZM178.96 258.651C179.125 258.632 179.26 258.583 179.365 258.505C179.471 258.427 179.547 258.334 179.593 258.225C179.639 258.115 179.656 258.004 179.643 257.891L179.598 257.511C179.583 257.534 179.546 257.558 179.488 257.583C179.432 257.606 179.365 257.629 179.289 257.651C179.214 257.671 179.141 257.691 179.069 257.709C178.998 257.725 178.941 257.739 178.897 257.751C178.79 257.777 178.692 257.812 178.602 257.855C178.512 257.897 178.443 257.952 178.392 258.021C178.343 258.089 178.325 258.176 178.337 258.281C178.354 258.426 178.421 258.529 178.536 258.59C178.653 258.651 178.794 258.671 178.96 258.651ZM182.605 256.405L182.244 256.555C182.213 256.496 182.171 256.439 182.118 256.386C182.066 256.331 182 256.289 181.917 256.259C181.835 256.23 181.734 256.222 181.613 256.236C181.447 256.256 181.313 256.31 181.212 256.4C181.111 256.488 181.068 256.59 181.081 256.706C181.094 256.81 181.141 256.887 181.223 256.938C181.306 256.989 181.429 257.025 181.594 257.047L182.007 257.098C182.256 257.128 182.447 257.197 182.58 257.304C182.713 257.41 182.791 257.558 182.813 257.747C182.831 257.902 182.803 258.046 182.728 258.179C182.654 258.311 182.542 258.422 182.392 258.512C182.242 258.601 182.061 258.658 181.851 258.683C181.574 258.715 181.339 258.682 181.144 258.584C180.948 258.485 180.813 258.323 180.738 258.099L181.121 257.953C181.176 258.095 181.26 258.196 181.373 258.256C181.488 258.317 181.63 258.337 181.8 258.317C181.994 258.294 182.144 258.235 182.248 258.139C182.353 258.042 182.399 257.935 182.385 257.819C182.374 257.725 182.332 257.65 182.259 257.594C182.185 257.537 182.079 257.501 181.938 257.485L181.475 257.433C181.22 257.403 181.027 257.333 180.896 257.224C180.766 257.113 180.69 256.964 180.668 256.777C180.65 256.624 180.677 256.484 180.749 256.356C180.822 256.228 180.929 256.122 181.071 256.037C181.213 255.953 181.38 255.899 181.57 255.877C181.838 255.845 182.056 255.879 182.222 255.979C182.39 256.078 182.518 256.22 182.605 256.405ZM184.635 258.354C184.382 258.384 184.156 258.35 183.958 258.252C183.761 258.154 183.6 258.005 183.477 257.806C183.353 257.607 183.275 257.373 183.244 257.103C183.211 256.827 183.233 256.579 183.309 256.356C183.387 256.133 183.51 255.951 183.678 255.811C183.847 255.669 184.054 255.584 184.298 255.555C184.489 255.533 184.665 255.548 184.826 255.6C184.987 255.653 185.124 255.737 185.236 255.852C185.349 255.968 185.427 256.109 185.47 256.275L185.054 256.324C185.008 256.205 184.924 256.103 184.804 256.021C184.684 255.937 184.533 255.906 184.35 255.928C184.187 255.947 184.05 256.006 183.938 256.105C183.827 256.203 183.746 256.332 183.696 256.493C183.647 256.653 183.634 256.835 183.658 257.039C183.683 257.249 183.737 257.427 183.821 257.574C183.907 257.722 184.015 257.831 184.146 257.903C184.278 257.974 184.427 258 184.591 257.981C184.7 257.968 184.796 257.938 184.879 257.89C184.963 257.842 185.031 257.779 185.084 257.701C185.137 257.623 185.17 257.533 185.185 257.432L185.601 257.383C185.596 257.545 185.555 257.696 185.477 257.835C185.4 257.973 185.291 258.088 185.148 258.181C185.006 258.273 184.835 258.331 184.635 258.354ZM186.302 258.101L185.983 255.392L186.385 255.345L186.433 255.754L186.462 255.751C186.495 255.611 186.572 255.492 186.691 255.393C186.811 255.294 186.952 255.235 187.114 255.216C187.144 255.213 187.183 255.209 187.229 255.204C187.275 255.2 187.309 255.198 187.333 255.198L187.383 255.621C187.369 255.619 187.336 255.617 187.284 255.616C187.234 255.614 187.181 255.616 187.126 255.622C186.994 255.638 186.88 255.679 186.783 255.747C186.687 255.813 186.615 255.898 186.566 256.001C186.519 256.103 186.502 256.216 186.516 256.338L186.718 258.052L186.302 258.101ZM188.15 257.883L187.831 255.175L188.247 255.126L188.566 257.834L188.15 257.883ZM187.989 254.698C187.908 254.708 187.835 254.688 187.77 254.64C187.705 254.592 187.669 254.529 187.66 254.451C187.65 254.373 187.671 254.304 187.723 254.242C187.775 254.179 187.842 254.144 187.923 254.134C188.004 254.124 188.076 254.144 188.14 254.192C188.206 254.241 188.243 254.304 188.252 254.381C188.261 254.459 188.24 254.529 188.187 254.591C188.136 254.653 188.07 254.689 187.989 254.698ZM189.448 258.76L189.009 255.036L189.411 254.988L189.462 255.419L189.511 255.413C189.536 255.362 189.571 255.297 189.617 255.218C189.663 255.137 189.735 255.062 189.83 254.993C189.927 254.922 190.063 254.876 190.239 254.855C190.467 254.828 190.675 254.862 190.863 254.955C191.05 255.049 191.205 255.194 191.327 255.392C191.449 255.59 191.527 255.831 191.561 256.115C191.594 256.402 191.575 256.657 191.502 256.879C191.429 257.099 191.313 257.277 191.154 257.413C190.995 257.547 190.802 257.628 190.576 257.654C190.402 257.675 190.26 257.663 190.148 257.617C190.037 257.571 189.948 257.514 189.883 257.447C189.818 257.378 189.767 257.321 189.731 257.275L189.695 257.279L189.864 258.711L189.448 258.76ZM189.578 256.342C189.602 256.546 189.653 256.723 189.731 256.873C189.81 257.021 189.912 257.132 190.037 257.207C190.163 257.28 190.309 257.307 190.476 257.287C190.65 257.267 190.79 257.204 190.895 257.098C191.002 256.992 191.075 256.857 191.116 256.693C191.157 256.529 191.166 256.35 191.144 256.157C191.121 255.967 191.072 255.799 190.995 255.653C190.919 255.506 190.817 255.394 190.689 255.319C190.562 255.242 190.41 255.214 190.234 255.235C190.065 255.255 189.927 255.314 189.822 255.414C189.717 255.512 189.644 255.641 189.603 255.801C189.562 255.959 189.554 256.14 189.578 256.342ZM193.213 254.54L193.255 254.893L191.851 255.059L191.809 254.706L193.213 254.54ZM192.142 254.009L192.558 253.96L192.862 256.541C192.876 256.659 192.904 256.745 192.945 256.8C192.987 256.853 193.036 256.887 193.092 256.9C193.15 256.913 193.209 256.915 193.27 256.908C193.316 256.903 193.353 256.896 193.382 256.888C193.411 256.878 193.434 256.871 193.451 256.865L193.58 257.229C193.553 257.243 193.515 257.258 193.465 257.275C193.416 257.292 193.353 257.306 193.275 257.315C193.158 257.329 193.04 257.317 192.921 257.28C192.803 257.243 192.701 257.176 192.615 257.082C192.53 256.987 192.478 256.861 192.459 256.703L192.142 254.009ZM194.24 253.504L194.277 253.821C194.289 253.918 194.283 254.023 194.261 254.136C194.239 254.248 194.201 254.36 194.146 254.47C194.092 254.579 194.023 254.676 193.938 254.763L193.69 254.606C193.752 254.491 193.803 254.374 193.844 254.253C193.885 254.132 193.899 254.006 193.883 253.875L193.845 253.551L194.24 253.504ZM195.143 253.398L195.18 253.715C195.192 253.812 195.186 253.916 195.164 254.03C195.142 254.142 195.104 254.253 195.049 254.363C194.995 254.472 194.926 254.57 194.841 254.656L194.593 254.499C194.655 254.385 194.706 254.267 194.747 254.147C194.788 254.025 194.801 253.899 194.786 253.769L194.748 253.444L195.143 253.398Z" fill="white"/>
<path d="M119.593 122.437C119.714 122.501 119.923 122.573 120.221 122.651C120.517 122.721 120.859 122.733 121.246 122.687C121.582 122.648 121.85 122.56 122.052 122.422C122.253 122.276 122.396 122.081 122.481 121.835C122.574 121.589 122.616 121.278 122.606 120.904C122.606 120.529 122.575 120.083 122.514 119.567L121.948 114.764L123.73 114.554L124.279 119.215C124.36 119.903 124.396 120.536 124.385 121.113C124.375 121.69 124.282 122.199 124.107 122.638C123.932 123.078 123.629 123.436 123.199 123.714C122.778 123.99 122.193 124.173 121.444 124.261C121.031 124.31 120.656 124.306 120.317 124.25C119.979 124.194 119.661 124.087 119.363 123.93L119.593 122.437ZM125.626 121.595C125.574 121.156 125.65 120.759 125.852 120.404C126.062 120.039 126.376 119.74 126.794 119.507C127.211 119.275 127.704 119.125 128.272 119.058C128.556 119.025 128.847 119.012 129.145 119.021C129.443 119.03 129.705 119.068 129.931 119.138L129.888 118.776C129.838 118.346 129.669 118.03 129.384 117.828C129.107 117.625 128.719 117.553 128.22 117.612C127.849 117.655 127.504 117.761 127.184 117.93C126.863 118.099 126.533 118.33 126.192 118.623L125.503 117.552C125.916 117.207 126.346 116.933 126.794 116.732C127.25 116.53 127.736 116.399 128.253 116.338C129.217 116.224 129.994 116.377 130.584 116.796C131.183 117.214 131.536 117.871 131.641 118.766L131.895 120.922C131.917 121.103 131.962 121.228 132.031 121.299C132.109 121.368 132.222 121.403 132.371 121.403L132.537 122.81C132.385 122.854 132.245 122.892 132.118 122.925C132 122.956 131.897 122.977 131.811 122.987C131.467 123.028 131.195 122.981 130.996 122.848C130.806 122.713 130.676 122.536 130.607 122.318L130.527 121.974C130.279 122.387 129.947 122.722 129.533 122.981C129.118 123.239 128.683 123.395 128.227 123.449C127.779 123.502 127.364 123.459 126.981 123.321C126.606 123.173 126.296 122.952 126.052 122.658C125.816 122.354 125.674 122 125.626 121.595ZM129.876 121.448C129.958 121.334 130.024 121.221 130.072 121.111C130.12 121 130.139 120.902 130.129 120.816L130.048 120.132C129.831 120.07 129.6 120.032 129.354 120.017C129.107 119.994 128.876 119.995 128.66 120.021C128.213 120.073 127.854 120.216 127.585 120.448C127.323 120.671 127.211 120.942 127.249 121.26C127.269 121.432 127.336 121.59 127.449 121.734C127.562 121.878 127.714 121.986 127.906 122.06C128.098 122.133 128.319 122.155 128.568 122.126C128.826 122.095 129.075 122.018 129.313 121.894C129.551 121.761 129.738 121.613 129.876 121.448ZM135.321 122.482L132.032 116.01L133.827 115.799L136.142 120.788L137.248 115.396L138.888 115.203L137.206 122.26L135.321 122.482ZM139.722 119.935C139.67 119.496 139.745 119.098 139.948 118.743C140.158 118.378 140.472 118.079 140.889 117.847C141.307 117.614 141.8 117.464 142.368 117.397C142.652 117.364 142.943 117.352 143.241 117.36C143.538 117.369 143.8 117.408 144.027 117.477L143.984 117.115C143.933 116.685 143.765 116.369 143.48 116.167C143.203 115.964 142.815 115.892 142.315 115.951C141.945 115.994 141.6 116.1 141.28 116.269C140.959 116.438 140.629 116.669 140.288 116.962L139.599 115.891C140.012 115.546 140.442 115.273 140.89 115.071C141.346 114.869 141.832 114.738 142.349 114.677C143.313 114.563 144.09 114.716 144.68 115.135C145.279 115.553 145.632 116.21 145.737 117.105L145.991 119.261C146.012 119.442 146.058 119.568 146.127 119.638C146.205 119.707 146.318 119.742 146.467 119.742L146.632 121.149C146.481 121.193 146.341 121.232 146.214 121.264C146.095 121.295 145.993 121.316 145.907 121.326C145.563 121.367 145.291 121.32 145.092 121.187C144.902 121.052 144.772 120.875 144.702 120.657L144.623 120.313C144.375 120.726 144.043 121.062 143.629 121.32C143.214 121.578 142.779 121.734 142.323 121.788C141.875 121.841 141.46 121.798 141.077 121.66C140.702 121.512 140.392 121.291 140.148 120.997C139.912 120.693 139.769 120.339 139.722 119.935ZM143.972 119.787C144.054 119.673 144.12 119.56 144.168 119.45C144.216 119.34 144.235 119.241 144.225 119.155L144.144 118.471C143.927 118.409 143.696 118.371 143.45 118.356C143.203 118.333 142.972 118.334 142.756 118.36C142.309 118.412 141.95 118.555 141.681 118.787C141.419 119.01 141.307 119.281 141.345 119.599C141.365 119.771 141.432 119.929 141.545 120.073C141.657 120.217 141.81 120.326 142.002 120.399C142.194 120.472 142.414 120.494 142.664 120.465C142.922 120.434 143.171 120.357 143.409 120.233C143.646 120.1 143.834 119.952 143.972 119.787ZM152.668 113.579C152.6 113.526 152.479 113.457 152.303 113.373C152.136 113.288 151.931 113.212 151.687 113.145C151.452 113.076 151.197 113.024 150.922 112.986C150.647 112.94 150.371 112.933 150.095 112.966C149.613 113.023 149.258 113.156 149.03 113.366C148.81 113.575 148.72 113.843 148.758 114.171C148.788 114.42 148.888 114.609 149.061 114.737C149.233 114.865 149.48 114.963 149.802 115.029C150.124 115.096 150.524 115.162 151.003 115.228C151.623 115.303 152.165 115.423 152.629 115.586C153.101 115.74 153.474 115.975 153.747 116.292C154.027 116.6 154.201 117.033 154.266 117.592C154.324 118.083 154.284 118.515 154.144 118.89C154.004 119.255 153.788 119.564 153.494 119.817C153.201 120.07 152.859 120.272 152.466 120.423C152.073 120.565 151.648 120.663 151.192 120.717C150.736 120.77 150.274 120.777 149.807 120.736C149.339 120.695 148.885 120.613 148.443 120.491C148 120.36 147.587 120.19 147.205 119.982L147.811 118.353C147.898 118.421 148.048 118.508 148.261 118.614C148.473 118.711 148.729 118.808 149.028 118.903C149.326 118.991 149.648 119.057 149.994 119.104C150.34 119.15 150.685 119.153 151.029 119.113C151.511 119.056 151.867 118.931 152.098 118.738C152.328 118.545 152.425 118.298 152.39 117.997C152.357 117.721 152.233 117.518 152.017 117.386C151.801 117.255 151.51 117.154 151.143 117.083C150.776 117.005 150.344 116.925 149.845 116.844C149.25 116.748 148.746 116.624 148.336 116.472C147.924 116.311 147.605 116.087 147.379 115.799C147.153 115.512 147.013 115.135 146.958 114.671C146.884 114.042 146.969 113.5 147.212 113.044C147.462 112.578 147.829 112.207 148.311 111.932C148.793 111.649 149.343 111.471 149.963 111.397C150.393 111.347 150.803 111.346 151.193 111.397C151.592 111.446 151.968 111.528 152.322 111.643C152.676 111.759 152.997 111.891 153.285 112.04L152.668 113.579ZM158.919 119.832C158.368 119.897 157.863 119.865 157.403 119.736C156.941 119.599 156.536 119.384 156.188 119.094C155.839 118.795 155.553 118.444 155.331 118.043C155.118 117.641 154.984 117.207 154.929 116.742C154.854 116.105 154.928 115.507 155.15 114.949C155.38 114.381 155.743 113.906 156.239 113.525C156.735 113.143 157.349 112.91 158.08 112.823C158.812 112.737 159.459 112.822 160.022 113.079C160.584 113.336 161.025 113.707 161.344 114.193L159.713 114.909C159.538 114.676 159.322 114.51 159.066 114.409C158.808 114.3 158.533 114.262 158.241 114.297C157.914 114.335 157.623 114.457 157.367 114.661C157.12 114.856 156.937 115.118 156.819 115.446C156.699 115.766 156.663 116.128 156.711 116.532C156.757 116.928 156.877 117.272 157.068 117.563C157.267 117.845 157.511 118.061 157.799 118.21C158.086 118.351 158.393 118.402 158.72 118.364C158.927 118.339 159.116 118.282 159.289 118.192C159.47 118.101 159.627 117.986 159.759 117.849C159.891 117.711 159.982 117.56 160.033 117.397L161.785 117.715C161.67 118.068 161.477 118.397 161.207 118.699C160.946 119 160.622 119.252 160.236 119.455C159.857 119.648 159.418 119.774 158.919 119.832ZM166.449 113.474C165.924 113.536 165.467 113.694 165.078 113.949C164.688 114.196 164.425 114.519 164.289 114.919L164.771 119.012L163.041 119.216L162.244 112.451L163.832 112.264L164.003 113.71C164.189 113.216 164.451 112.815 164.79 112.504C165.129 112.194 165.503 112.001 165.913 111.927C166.008 111.916 166.081 111.907 166.133 111.901C166.184 111.895 166.228 111.894 166.263 111.899L166.449 113.474ZM168.034 118.628L167.237 111.862L168.967 111.658L169.764 118.424L168.034 118.628ZM167.126 110.92L166.924 109.203L168.654 108.999L168.856 110.716L167.126 110.92ZM175.394 117.891C174.869 117.953 174.39 117.892 173.959 117.707C173.534 117.513 173.186 117.226 172.915 116.848L173.379 120.786L171.649 120.99L170.528 111.475L172.038 111.297L172.175 112.459C172.387 112.032 172.677 111.684 173.047 111.413C173.415 111.134 173.854 110.965 174.361 110.905C174.818 110.851 175.246 110.893 175.646 111.029C176.054 111.164 176.42 111.378 176.742 111.672C177.064 111.957 177.327 112.301 177.532 112.704C177.744 113.098 177.878 113.536 177.935 114.018C178.012 114.672 177.953 115.282 177.758 115.846C177.571 116.409 177.273 116.876 176.863 117.247C176.46 117.609 175.971 117.823 175.394 117.891ZM174.64 116.488C174.906 116.456 175.141 116.372 175.343 116.235C175.545 116.098 175.712 115.925 175.845 115.718C175.985 115.5 176.08 115.267 176.129 115.017C176.185 114.757 176.198 114.493 176.166 114.227C176.133 113.943 176.055 113.686 175.932 113.456C175.817 113.225 175.663 113.029 175.47 112.869C175.275 112.7 175.056 112.577 174.811 112.501C174.575 112.424 174.324 112.402 174.057 112.433C173.894 112.452 173.729 112.502 173.564 112.583C173.407 112.654 173.257 112.75 173.114 112.872C172.971 112.993 172.848 113.13 172.743 113.282C172.648 113.433 172.584 113.593 172.551 113.763L172.738 115.351C172.871 115.588 173.036 115.8 173.232 115.986C173.437 116.171 173.663 116.311 173.91 116.404C174.155 116.488 174.399 116.516 174.64 116.488ZM183.432 116.46C183.293 116.537 183.125 116.627 182.927 116.729C182.73 116.831 182.513 116.917 182.277 116.989C182.051 117.068 181.817 117.121 181.576 117.15C181.258 117.187 180.958 117.166 180.678 117.085C180.398 117.005 180.162 116.854 179.97 116.632C179.786 116.401 179.671 116.087 179.624 115.691L179.166 111.805L178.275 111.91L178.119 110.58L179.009 110.475L178.751 108.28L180.481 108.077L180.739 110.271L182.16 110.104L182.316 111.434L180.896 111.601L181.286 114.906C181.322 115.138 181.406 115.298 181.539 115.387C181.671 115.476 181.828 115.51 182.009 115.489C182.189 115.467 182.362 115.416 182.527 115.336C182.692 115.255 182.824 115.188 182.922 115.132L183.432 116.46Z" fill="#FFC100"/>
<path d="M117.908 106.009L117.327 101.073L119.412 100.827C119.625 100.802 119.825 100.823 120.012 100.891C120.198 100.958 120.365 101.06 120.513 101.198C120.665 101.331 120.787 101.485 120.878 101.663C120.973 101.835 121.032 102.016 121.055 102.206C121.083 102.442 121.063 102.67 120.994 102.889C120.931 103.108 120.824 103.299 120.674 103.463C120.529 103.626 120.348 103.743 120.131 103.816L121.565 105.578L121.016 105.643L119.64 103.958L118.18 104.13L118.395 105.952L117.908 106.009ZM118.129 103.699L119.742 103.509C119.937 103.486 120.1 103.413 120.231 103.29C120.362 103.166 120.457 103.014 120.516 102.833C120.574 102.648 120.591 102.458 120.568 102.263C120.545 102.064 120.477 101.886 120.364 101.73C120.256 101.569 120.12 101.447 119.955 101.363C119.794 101.273 119.621 101.24 119.435 101.262L117.864 101.447L118.129 103.699ZM122.319 105.489L121.892 101.867L122.365 101.812L122.792 105.434L122.319 105.489ZM121.803 101.11L121.721 100.414L122.194 100.359L122.275 101.054L121.803 101.11ZM125.412 105.195C125.148 105.226 124.899 105.206 124.665 105.135C124.435 105.059 124.226 104.943 124.039 104.786C123.856 104.629 123.705 104.443 123.585 104.226C123.47 104.01 123.398 103.774 123.368 103.519C123.327 103.176 123.367 102.854 123.487 102.553C123.606 102.253 123.793 102.003 124.047 101.804C124.301 101.605 124.606 101.484 124.963 101.442C125.301 101.402 125.609 101.446 125.887 101.573C126.165 101.695 126.382 101.881 126.538 102.13L126.097 102.331C125.973 102.157 125.812 102.03 125.615 101.95C125.421 101.865 125.214 101.835 124.991 101.862C124.75 101.89 124.537 101.979 124.353 102.127C124.168 102.276 124.029 102.466 123.934 102.698C123.843 102.93 123.815 103.184 123.848 103.462C123.88 103.736 123.969 103.977 124.116 104.185C124.263 104.393 124.444 104.553 124.659 104.664C124.873 104.77 125.101 104.809 125.342 104.781C125.5 104.762 125.647 104.717 125.784 104.644C125.926 104.571 126.045 104.482 126.14 104.376C126.24 104.266 126.302 104.153 126.326 104.037L126.808 104.122C126.763 104.301 126.673 104.469 126.536 104.626C126.404 104.778 126.24 104.905 126.045 105.008C125.855 105.106 125.644 105.168 125.412 105.195ZM130.234 104.557L128.674 102.859L127.987 103.673L128.121 104.806L127.648 104.861L127.05 99.7865L127.523 99.7308L127.928 103.165L129.746 100.949L130.267 100.888L128.961 102.543L130.749 104.496L130.234 104.557ZM133.204 104.207L132.622 99.2709L134.708 99.0252C134.921 99 135.121 99.0211 135.307 99.0884C135.494 99.1558 135.661 99.2582 135.809 99.3959C135.961 99.5284 136.082 99.6832 136.174 99.8604C136.269 100.032 136.328 100.213 136.35 100.403C136.378 100.64 136.358 100.868 136.29 101.087C136.226 101.306 136.12 101.497 135.97 101.661C135.825 101.823 135.643 101.941 135.426 102.014L136.86 103.776L136.311 103.841L134.936 102.156L133.476 102.328L133.69 104.149L133.204 104.207ZM133.425 101.897L135.038 101.707C135.233 101.684 135.395 101.611 135.527 101.487C135.658 101.364 135.752 101.212 135.811 101.031C135.869 100.845 135.887 100.655 135.864 100.461C135.84 100.261 135.772 100.084 135.66 99.9279C135.552 99.7668 135.415 99.6443 135.25 99.5604C135.089 99.4713 134.916 99.4376 134.731 99.4595L133.16 99.6446L133.425 101.897ZM137.179 102.681C137.152 102.454 137.194 102.252 137.305 102.074C137.415 101.892 137.578 101.744 137.795 101.629C138.016 101.509 138.277 101.431 138.578 101.396C138.754 101.375 138.939 101.367 139.132 101.373C139.326 101.378 139.5 101.4 139.655 101.438L139.619 101.132C139.583 100.826 139.464 100.593 139.261 100.434C139.059 100.275 138.799 100.214 138.479 100.251C138.284 100.274 138.096 100.334 137.915 100.431C137.738 100.522 137.555 100.649 137.368 100.812L137.148 100.5C137.365 100.31 137.582 100.162 137.8 100.056C138.018 99.9462 138.244 99.8772 138.481 99.8493C138.926 99.7969 139.293 99.8829 139.582 100.107C139.872 100.332 140.043 100.668 140.096 101.118L140.294 102.793C140.301 102.858 140.321 102.905 140.353 102.934C140.384 102.959 140.43 102.97 140.49 102.968L140.535 103.343C140.484 103.354 140.441 103.363 140.404 103.372C140.368 103.381 140.34 103.385 140.321 103.382C140.204 103.391 140.112 103.365 140.043 103.302C139.975 103.24 139.934 103.169 139.92 103.091L139.882 102.828C139.744 103.056 139.552 103.243 139.307 103.389C139.06 103.531 138.803 103.618 138.534 103.649C138.302 103.677 138.085 103.653 137.884 103.578C137.686 103.498 137.525 103.38 137.398 103.226C137.276 103.067 137.203 102.885 137.179 102.681ZM139.638 102.673C139.681 102.602 139.713 102.535 139.734 102.472C139.755 102.408 139.763 102.353 139.757 102.307L139.695 101.779C139.53 101.737 139.36 101.71 139.185 101.698C139.014 101.685 138.843 101.689 138.672 101.709C138.333 101.749 138.068 101.848 137.875 102.007C137.682 102.166 137.6 102.361 137.627 102.593C137.643 102.727 137.693 102.851 137.776 102.963C137.859 103.071 137.973 103.156 138.117 103.219C138.26 103.277 138.422 103.296 138.602 103.275C138.829 103.248 139.035 103.179 139.219 103.068C139.408 102.956 139.548 102.825 139.638 102.673ZM144.427 102.884L143.954 102.94L143.716 100.917C143.666 100.491 143.567 100.188 143.419 100.008C143.27 99.8231 143.061 99.7466 142.792 99.7783C142.607 99.8001 142.429 99.8681 142.26 99.982C142.089 100.091 141.944 100.233 141.823 100.407C141.707 100.576 141.63 100.763 141.594 100.97L141.855 103.187L141.382 103.243L140.955 99.6212L141.386 99.5704L141.483 100.391C141.56 100.203 141.669 100.035 141.811 99.8868C141.953 99.7339 142.119 99.6086 142.31 99.5109C142.5 99.4133 142.702 99.3519 142.915 99.3268C143.115 99.3033 143.288 99.3205 143.436 99.3782C143.584 99.436 143.708 99.5295 143.807 99.6587C143.907 99.7833 143.986 99.9407 144.046 100.131C144.106 100.317 144.149 100.528 144.177 100.764L144.427 102.884ZM144.98 100.994C144.939 100.651 144.972 100.33 145.078 100.031C145.188 99.7263 145.357 99.4737 145.588 99.2727C145.818 99.0718 146.093 98.9524 146.412 98.9148C146.714 98.8793 146.992 98.9287 147.247 99.0631C147.507 99.1922 147.717 99.3625 147.879 99.5737L147.618 97.363L148.091 97.3073L148.622 101.812C148.629 101.877 148.649 101.924 148.68 101.953C148.712 101.978 148.755 101.989 148.811 101.987L148.856 102.363C148.765 102.387 148.693 102.4 148.642 102.402C148.544 102.409 148.453 102.379 148.371 102.314C148.288 102.249 148.241 102.172 148.231 102.084L148.189 101.729C148.073 101.983 147.901 102.193 147.671 102.361C147.442 102.529 147.195 102.629 146.931 102.66C146.681 102.689 146.443 102.666 146.218 102.589C145.997 102.511 145.798 102.394 145.62 102.236C145.446 102.078 145.302 101.893 145.188 101.681C145.077 101.464 145.008 101.235 144.98 100.994ZM148.069 101.194L147.937 100.074C147.858 99.9145 147.743 99.7754 147.592 99.6568C147.441 99.5336 147.276 99.4427 147.095 99.3841C146.918 99.3204 146.747 99.2983 146.58 99.318C146.385 99.3409 146.214 99.4034 146.066 99.5053C145.918 99.6027 145.794 99.7277 145.694 99.8804C145.6 100.033 145.532 100.2 145.493 100.383C145.453 100.567 145.445 100.751 145.466 100.936C145.489 101.131 145.544 101.313 145.629 101.481C145.72 101.649 145.835 101.795 145.977 101.919C146.118 102.039 146.274 102.126 146.445 102.181C146.616 102.236 146.796 102.253 146.986 102.23C147.107 102.216 147.229 102.178 147.353 102.117C147.478 102.055 147.593 101.978 147.7 101.886C147.81 101.788 147.899 101.679 147.964 101.558C148.03 101.438 148.065 101.316 148.069 101.194ZM150.099 103.344C150.165 103.341 150.228 103.336 150.288 103.329C150.349 103.326 150.392 103.319 150.419 103.306C150.474 103.29 150.523 103.252 150.568 103.19C150.612 103.128 150.66 103.015 150.711 102.849C150.762 102.683 150.832 102.44 150.921 102.119L148.916 98.6832L149.416 98.6242L151.114 101.603L151.968 98.3236L152.441 98.2679L151.114 103.161C151.092 103.253 151.053 103.339 150.997 103.421C150.941 103.508 150.867 103.578 150.775 103.631C150.687 103.688 150.575 103.727 150.436 103.748C150.395 103.758 150.351 103.763 150.304 103.764C150.262 103.769 150.211 103.77 150.149 103.768L150.099 103.344Z" fill="white"/>
<path d="M130.406 141.99L126.637 142.434L127.775 152.088L126.732 152.21L125.595 142.557L121.826 143.001L121.717 142.078L130.297 141.067L130.406 141.99ZM139.444 150.713L138.431 150.832L137.921 146.497C137.818 145.623 137.586 144.986 137.227 144.585C136.866 144.174 136.398 144.003 135.822 144.071C135.445 144.115 135.079 144.259 134.725 144.502C134.38 144.734 134.083 145.036 133.835 145.407C133.596 145.768 133.441 146.169 133.372 146.61L133.932 151.362L132.919 151.481L131.638 140.607L132.651 140.487L133.225 145.358C133.465 144.746 133.838 144.239 134.345 143.837C134.86 143.424 135.43 143.18 136.056 143.107C136.503 143.054 136.89 143.089 137.216 143.212C137.553 143.333 137.834 143.537 138.058 143.822C138.292 144.097 138.478 144.432 138.615 144.829C138.751 145.216 138.849 145.662 138.909 146.169L139.444 150.713ZM144.974 150.212C144.418 150.278 143.889 150.234 143.388 150.082C142.885 149.919 142.439 149.675 142.048 149.349C141.656 149.012 141.332 148.612 141.076 148.149C140.83 147.685 140.674 147.174 140.608 146.618C140.523 145.893 140.608 145.208 140.865 144.564C141.131 143.918 141.536 143.382 142.08 142.956C142.622 142.519 143.266 142.257 144.011 142.169C144.776 142.079 145.463 142.185 146.072 142.485C146.692 142.785 147.201 143.218 147.6 143.786C147.998 144.343 148.239 144.979 148.323 145.694C148.333 145.774 148.342 145.853 148.351 145.932C148.359 146.002 148.361 146.057 148.356 146.098L141.712 146.881C141.827 147.431 142.039 147.91 142.349 148.316C142.667 148.712 143.05 149.014 143.498 149.223C143.954 149.421 144.431 149.491 144.927 149.432C145.434 149.372 145.895 149.187 146.312 148.876C146.738 148.564 147.016 148.189 147.146 147.751L148.053 147.886C147.937 148.272 147.733 148.633 147.44 148.97C147.148 149.306 146.788 149.585 146.361 149.807C145.943 150.017 145.48 150.152 144.974 150.212ZM141.596 146.154L147.331 145.479C147.225 144.917 147.012 144.439 146.694 144.043C146.385 143.647 146.003 143.354 145.548 143.166C145.102 142.967 144.626 142.898 144.119 142.957C143.613 143.017 143.165 143.195 142.777 143.493C142.388 143.78 142.086 144.158 141.869 144.627C141.661 145.084 141.57 145.594 141.596 146.154ZM129.318 170.181C128.752 170.248 128.218 170.205 127.717 170.053C127.224 169.889 126.777 169.64 126.375 169.305C125.983 168.968 125.659 168.568 125.403 168.105C125.157 167.641 125.002 167.135 124.937 166.589C124.851 165.854 124.935 165.165 125.192 164.52C125.448 163.876 125.848 163.34 126.392 162.914C126.936 162.487 127.59 162.229 128.355 162.139C129.08 162.053 129.74 162.147 130.336 162.419C130.931 162.681 131.396 163.079 131.731 163.614L130.784 164.042C130.519 163.671 130.175 163.399 129.752 163.228C129.338 163.045 128.892 162.982 128.416 163.038C127.899 163.099 127.443 163.288 127.048 163.607C126.652 163.925 126.353 164.333 126.15 164.83C125.956 165.326 125.895 165.872 125.965 166.468C126.034 167.054 126.226 167.57 126.54 168.016C126.855 168.463 127.242 168.805 127.703 169.042C128.163 169.27 128.651 169.354 129.168 169.293C129.505 169.253 129.821 169.155 130.115 169C130.419 168.843 130.673 168.652 130.878 168.427C131.092 168.19 131.224 167.948 131.276 167.7L132.309 167.88C132.213 168.264 132.019 168.624 131.726 168.961C131.443 169.286 131.092 169.559 130.675 169.78C130.267 169.989 129.814 170.123 129.318 170.181ZM137.361 169.234C136.805 169.299 136.276 169.256 135.775 169.103C135.283 168.94 134.841 168.695 134.45 168.368C134.068 168.031 133.754 167.635 133.509 167.18C133.263 166.716 133.109 166.215 133.046 165.679C132.98 165.123 133.014 164.595 133.146 164.096C133.277 163.588 133.495 163.129 133.8 162.721C134.103 162.302 134.475 161.961 134.918 161.698C135.369 161.423 135.872 161.253 136.428 161.187C136.984 161.122 137.509 161.171 138.001 161.334C138.493 161.488 138.934 161.733 139.326 162.069C139.717 162.396 140.036 162.791 140.282 163.256C140.527 163.71 140.682 164.215 140.747 164.772C140.81 165.308 140.776 165.83 140.645 166.339C140.513 166.838 140.295 167.297 139.992 167.715C139.697 168.123 139.325 168.463 138.874 168.738C138.431 169.002 137.927 169.167 137.361 169.234ZM134.075 165.573C134.143 166.149 134.329 166.661 134.634 167.108C134.947 167.544 135.333 167.876 135.793 168.104C136.252 168.322 136.739 168.401 137.256 168.34C137.772 168.279 138.228 168.084 138.622 167.756C139.016 167.427 139.314 167.01 139.516 166.503C139.717 165.986 139.784 165.444 139.718 164.878C139.65 164.302 139.459 163.791 139.144 163.344C138.83 162.898 138.443 162.561 137.983 162.333C137.523 162.106 137.035 162.022 136.519 162.083C136.002 162.144 135.547 162.343 135.154 162.682C134.771 163.019 134.479 163.441 134.276 163.948C134.073 164.445 134.006 164.987 134.075 165.573ZM149.421 167.662L148.408 167.781L147.897 163.446C147.79 162.532 147.577 161.883 147.26 161.497C146.941 161.102 146.494 160.938 145.918 161.006C145.521 161.052 145.14 161.198 144.776 161.442C144.411 161.677 144.1 161.98 143.841 162.353C143.592 162.715 143.428 163.117 143.349 163.559L143.909 168.311L142.896 168.43L141.982 160.669L142.905 160.56L143.112 162.318C143.276 161.916 143.511 161.556 143.816 161.238C144.12 160.91 144.476 160.642 144.884 160.433C145.292 160.224 145.725 160.092 146.182 160.038C146.609 159.988 146.981 160.025 147.297 160.148C147.614 160.272 147.879 160.473 148.093 160.749C148.306 161.016 148.476 161.354 148.605 161.761C148.732 162.159 148.826 162.611 148.886 163.118L149.421 167.662ZM155.189 166.604C155.113 166.643 154.995 166.713 154.836 166.812C154.676 166.911 154.481 167.005 154.249 167.093C154.018 167.18 153.763 167.24 153.485 167.273C153.197 167.307 152.918 167.285 152.647 167.206C152.386 167.126 152.168 166.985 151.993 166.785C151.817 166.574 151.71 166.304 151.671 165.977L151.016 160.42L149.944 160.546L149.849 159.742L150.922 159.616L150.613 156.994L151.626 156.874L151.935 159.496L153.722 159.286L153.817 160.09L152.029 160.301L152.651 165.574C152.703 165.85 152.827 166.047 153.022 166.165C153.228 166.282 153.449 166.326 153.688 166.298C153.966 166.265 154.214 166.191 154.432 166.074C154.648 165.948 154.779 165.862 154.824 165.817L155.189 166.604ZM159.562 159.504C158.889 159.603 158.316 159.862 157.841 160.28C157.377 160.698 157.077 161.231 156.943 161.882L157.511 166.708L156.498 166.828L155.584 159.066L156.537 158.954L156.757 160.816C156.96 160.238 157.261 159.755 157.658 159.366C158.065 158.975 158.515 158.731 159.007 158.633C159.105 158.611 159.189 158.596 159.258 158.588C159.338 158.579 159.403 158.576 159.453 158.58L159.562 159.504ZM164.798 166.001C164.242 166.066 163.713 166.023 163.212 165.87C162.72 165.707 162.278 165.462 161.887 165.135C161.505 164.798 161.191 164.402 160.947 163.947C160.701 163.483 160.546 162.983 160.483 162.446C160.417 161.89 160.451 161.363 160.583 160.864C160.715 160.355 160.932 159.896 161.237 159.488C161.54 159.069 161.913 158.728 162.355 158.465C162.806 158.19 163.309 158.02 163.865 157.955C164.422 157.889 164.946 157.938 165.438 158.102C165.93 158.255 166.371 158.5 166.763 158.837C167.154 159.163 167.473 159.558 167.719 160.023C167.964 160.477 168.119 160.983 168.184 161.539C168.248 162.075 168.214 162.598 168.082 163.107C167.95 163.605 167.732 164.064 167.429 164.482C167.134 164.89 166.762 165.231 166.311 165.505C165.869 165.769 165.364 165.934 164.798 166.001ZM161.512 162.34C161.58 162.916 161.766 163.428 162.071 163.875C162.384 164.312 162.771 164.644 163.23 164.871C163.689 165.089 164.177 165.168 164.693 165.107C165.209 165.046 165.665 164.851 166.059 164.523C166.453 164.195 166.752 163.777 166.954 163.27C167.154 162.753 167.222 162.211 167.155 161.645C167.087 161.069 166.896 160.558 166.581 160.112C166.267 159.665 165.88 159.328 165.42 159.101C164.96 158.873 164.472 158.789 163.956 158.85C163.439 158.911 162.985 159.111 162.591 159.449C162.208 159.786 161.916 160.208 161.714 160.715C161.51 161.213 161.443 161.754 161.512 162.34ZM172.38 164.956L168.323 157.565L169.38 157.441L172.827 163.877L174.699 156.814L175.697 156.696L173.468 164.828L172.38 164.956ZM181.122 164.077C180.566 164.143 180.037 164.099 179.536 163.947C179.033 163.785 178.587 163.54 178.196 163.214C177.804 162.877 177.48 162.478 177.224 162.014C176.978 161.55 176.822 161.04 176.756 160.483C176.671 159.758 176.757 159.074 177.013 158.429C177.279 157.784 177.684 157.248 178.228 156.821C178.771 156.385 179.414 156.122 180.159 156.035C180.924 155.945 181.611 156.05 182.22 156.351C182.84 156.65 183.349 157.084 183.748 157.651C184.146 158.208 184.387 158.844 184.471 159.559C184.481 159.639 184.49 159.718 184.499 159.798C184.508 159.867 184.509 159.922 184.504 159.963L177.86 160.746C177.975 161.296 178.187 161.775 178.497 162.181C178.816 162.577 179.199 162.879 179.646 163.088C180.102 163.286 180.579 163.356 181.075 163.297C181.582 163.238 182.043 163.052 182.46 162.742C182.886 162.43 183.164 162.054 183.294 161.616L184.201 161.751C184.085 162.137 183.881 162.499 183.589 162.835C183.296 163.172 182.936 163.451 182.509 163.672C182.091 163.883 181.628 164.018 181.122 164.077ZM177.744 160.02L183.479 159.344C183.373 158.783 183.16 158.304 182.842 157.909C182.533 157.512 182.152 157.22 181.696 157.032C181.25 156.833 180.774 156.763 180.267 156.823C179.761 156.882 179.314 157.061 178.926 157.358C178.537 157.646 178.234 158.024 178.017 158.492C177.809 158.95 177.718 159.459 177.744 160.02ZM189.56 155.969C188.887 156.069 188.313 156.328 187.839 156.746C187.375 157.163 187.075 157.697 186.94 158.347L187.509 163.174L186.496 163.293L185.581 155.532L186.535 155.419L186.754 157.282C186.958 156.704 187.258 156.22 187.656 155.831C188.063 155.441 188.512 155.197 189.004 155.098C189.102 155.077 189.186 155.062 189.256 155.054C189.335 155.044 189.4 155.042 189.451 155.046L189.56 155.969ZM194.283 162.527C193.648 162.601 193.045 162.567 192.474 162.423C191.903 162.278 191.394 162.016 190.946 161.636L191.279 160.872C191.764 161.227 192.236 161.474 192.695 161.611C193.163 161.737 193.646 161.771 194.142 161.712C194.748 161.641 195.226 161.464 195.575 161.181C195.923 160.888 196.07 160.514 196.016 160.057C195.98 159.749 195.858 159.527 195.651 159.39C195.452 159.242 195.173 159.139 194.814 159.081C194.463 159.011 194.043 158.945 193.552 158.882C192.998 158.796 192.528 158.696 192.142 158.58C191.765 158.453 191.467 158.277 191.249 158.051C191.04 157.814 190.911 157.492 190.863 157.084C190.803 156.578 190.878 156.146 191.088 155.789C191.307 155.421 191.624 155.127 192.041 154.907C192.467 154.675 192.953 154.527 193.499 154.463C194.095 154.393 194.633 154.425 195.112 154.56C195.591 154.695 195.994 154.914 196.322 155.218L195.911 155.961C195.596 155.676 195.236 155.482 194.831 155.378C194.435 155.264 194.003 155.234 193.536 155.289C193.219 155.327 192.921 155.407 192.644 155.53C192.365 155.644 192.143 155.811 191.978 156.032C191.821 156.242 191.763 156.515 191.802 156.853C191.835 157.131 191.931 157.341 192.088 157.484C192.245 157.616 192.469 157.721 192.76 157.797C193.049 157.864 193.405 157.933 193.826 158.004C194.431 158.094 194.962 158.197 195.418 158.315C195.874 158.422 196.236 158.591 196.505 158.821C196.774 159.051 196.936 159.4 196.991 159.866C197.076 160.591 196.87 161.19 196.372 161.661C195.873 162.133 195.177 162.421 194.283 162.527ZM199.487 164.179C199.628 164.172 199.762 164.162 199.891 164.146C200.022 164.141 200.115 164.125 200.173 164.098C200.289 164.064 200.396 163.981 200.491 163.849C200.586 163.717 200.688 163.474 200.797 163.118C200.906 162.763 201.057 162.242 201.247 161.555L196.951 154.192L198.024 154.066L201.661 160.449L203.491 153.422L204.504 153.302L201.661 163.787C201.614 163.984 201.53 164.17 201.41 164.345C201.291 164.53 201.132 164.68 200.934 164.794C200.747 164.917 200.506 165 200.209 165.045C200.121 165.066 200.026 165.077 199.926 165.079C199.836 165.089 199.726 165.092 199.594 165.088L199.487 164.179ZM131.424 188.058C130.858 188.124 130.324 188.081 129.823 187.929C129.33 187.766 128.883 187.516 128.481 187.181C128.089 186.845 127.765 186.445 127.509 185.981C127.263 185.517 127.108 185.012 127.044 184.466C126.957 183.731 127.042 183.041 127.298 182.397C127.554 181.752 127.955 181.217 128.498 180.79C129.042 180.363 129.696 180.105 130.461 180.015C131.186 179.93 131.847 180.023 132.443 180.295C133.037 180.557 133.502 180.956 133.837 181.49L132.891 181.919C132.625 181.547 132.281 181.276 131.858 181.104C131.444 180.921 130.999 180.858 130.522 180.914C130.005 180.975 129.549 181.165 129.154 181.483C128.759 181.802 128.459 182.209 128.256 182.707C128.063 183.203 128.001 183.749 128.071 184.344C128.14 184.93 128.332 185.446 128.647 185.893C128.961 186.339 129.349 186.681 129.81 186.919C130.269 187.146 130.758 187.23 131.274 187.169C131.612 187.129 131.927 187.032 132.221 186.876C132.525 186.72 132.779 186.528 132.984 186.303C133.198 186.066 133.331 185.824 133.382 185.576L134.415 185.757C134.32 186.141 134.125 186.501 133.833 186.837C133.549 187.163 133.198 187.436 132.781 187.656C132.373 187.865 131.921 187.999 131.424 188.058ZM139.467 187.11C138.911 187.175 138.383 187.132 137.881 186.98C137.389 186.816 136.947 186.571 136.556 186.245C136.174 185.907 135.861 185.511 135.616 185.056C135.37 184.592 135.215 184.092 135.152 183.555C135.086 182.999 135.12 182.472 135.252 181.973C135.384 181.464 135.602 181.005 135.906 180.597C136.209 180.179 136.582 179.838 137.024 179.574C137.475 179.299 137.978 179.129 138.535 179.064C139.091 178.998 139.615 179.047 140.108 179.211C140.599 179.364 141.041 179.609 141.433 179.946C141.824 180.272 142.142 180.668 142.388 181.132C142.633 181.587 142.788 182.092 142.854 182.648C142.917 183.184 142.883 183.707 142.751 184.216C142.619 184.715 142.401 185.173 142.098 185.592C141.804 185.999 141.431 186.34 140.98 186.614C140.538 186.878 140.034 187.043 139.467 187.11ZM136.182 183.449C136.249 184.025 136.436 184.537 136.74 184.984C137.053 185.421 137.44 185.753 137.9 185.981C138.358 186.198 138.846 186.277 139.362 186.216C139.879 186.155 140.334 185.961 140.728 185.632C141.123 185.304 141.421 184.886 141.623 184.379C141.824 183.862 141.891 183.32 141.824 182.754C141.756 182.178 141.565 181.667 141.251 181.221C140.936 180.774 140.549 180.437 140.089 180.21C139.629 179.982 139.141 179.898 138.625 179.959C138.109 180.02 137.654 180.22 137.261 180.558C136.877 180.895 136.585 181.317 136.383 181.825C136.18 182.322 136.113 182.863 136.182 183.449ZM151.527 185.538L150.514 185.657L150.004 181.322C149.896 180.409 149.683 179.759 149.366 179.373C149.048 178.978 148.6 178.814 148.024 178.882C147.627 178.929 147.247 179.074 146.883 179.319C146.518 179.553 146.206 179.857 145.948 180.229C145.698 180.591 145.534 180.993 145.455 181.435L146.015 186.187L145.002 186.307L144.088 178.545L145.012 178.437L145.219 180.194C145.383 179.792 145.617 179.432 145.922 179.115C146.226 178.787 146.582 178.518 146.99 178.309C147.399 178.1 147.831 177.968 148.288 177.915C148.715 177.864 149.087 177.901 149.404 178.025C149.72 178.149 149.985 178.349 150.199 178.626C150.412 178.893 150.583 179.23 150.711 179.638C150.839 180.036 150.932 180.488 150.992 180.994L151.527 185.538ZM157.295 184.481C157.219 184.52 157.101 184.589 156.942 184.688C156.782 184.788 156.587 184.881 156.356 184.969C156.124 185.057 155.87 185.117 155.592 185.15C155.304 185.184 155.024 185.161 154.753 185.082C154.492 185.002 154.274 184.862 154.099 184.661C153.923 184.45 153.816 184.181 153.777 183.853L153.123 178.296L152.05 178.423L151.955 177.618L153.028 177.492L152.719 174.87L153.732 174.751L154.041 177.373L155.829 177.162L155.923 177.966L154.136 178.177L154.757 183.451C154.81 183.726 154.934 183.923 155.129 184.041C155.334 184.158 155.556 184.202 155.794 184.174C156.072 184.141 156.32 184.067 156.538 183.951C156.755 183.824 156.885 183.738 156.93 183.693L157.295 184.481ZM158.605 184.704L157.69 176.943L158.703 176.823L159.618 184.585L158.605 184.704ZM157.499 175.319L157.323 173.829L158.336 173.71L158.512 175.2L157.499 175.319ZM168.374 183.553L167.361 183.672L166.85 179.337C166.742 178.424 166.53 177.774 166.212 177.388C165.894 176.993 165.447 176.829 164.871 176.897C164.473 176.944 164.093 177.089 163.729 177.334C163.364 177.568 163.052 177.872 162.794 178.244C162.545 178.606 162.381 179.008 162.302 179.45L162.862 184.202L161.849 184.322L160.934 176.56L161.858 176.452L162.065 178.209C162.229 177.807 162.464 177.448 162.768 177.13C163.072 176.802 163.428 176.533 163.837 176.324C164.245 176.115 164.677 175.983 165.134 175.93C165.561 175.879 165.933 175.916 166.25 176.04C166.567 176.164 166.832 176.364 167.046 176.641C167.258 176.908 167.429 177.245 167.558 177.653C167.685 178.051 167.779 178.503 167.838 179.009L168.374 183.553ZM170.082 180.104L169.545 175.546L170.558 175.426L171.074 179.806C171.178 180.69 171.405 181.333 171.754 181.735C172.114 182.136 172.591 182.301 173.187 182.231C173.584 182.184 173.957 182.054 174.304 181.842C174.661 181.619 174.964 181.331 175.215 180.98C175.464 180.618 175.638 180.215 175.737 179.77L175.161 174.884L176.174 174.765L176.945 181.305C176.961 181.444 177.003 181.544 177.071 181.607C177.137 181.659 177.231 181.684 177.351 181.679L177.446 182.484C177.328 182.508 177.234 182.524 177.165 182.532C177.096 182.55 177.032 182.563 176.973 182.57C176.772 182.573 176.589 182.514 176.423 182.393C176.268 182.27 176.174 182.11 176.14 181.913L175.988 180.874C175.72 181.509 175.313 182.03 174.767 182.437C174.231 182.843 173.625 183.085 172.95 183.165C172.135 183.261 171.486 183.05 171.002 182.533C170.519 182.016 170.212 181.207 170.082 180.104ZM182.748 182.01C182.192 182.076 181.663 182.032 181.162 181.88C180.66 181.718 180.213 181.473 179.822 181.147C179.43 180.81 179.106 180.41 178.85 179.947C178.604 179.483 178.448 178.973 178.383 178.416C178.297 177.691 178.383 177.007 178.639 176.362C178.905 175.717 179.31 175.181 179.854 174.754C180.397 174.318 181.041 174.055 181.785 173.968C182.55 173.878 183.237 173.983 183.847 174.284C184.466 174.583 184.975 175.017 185.374 175.584C185.772 176.141 186.013 176.777 186.098 177.492C186.107 177.572 186.116 177.651 186.126 177.731C186.134 177.8 186.135 177.855 186.13 177.896L179.486 178.679C179.601 179.229 179.814 179.708 180.123 180.114C180.442 180.51 180.825 180.812 181.272 181.021C181.729 181.219 182.205 181.289 182.702 181.23C183.208 181.171 183.67 180.985 184.086 180.674C184.513 180.362 184.791 179.987 184.92 179.549L185.827 179.684C185.712 180.07 185.507 180.431 185.215 180.768C184.922 181.105 184.562 181.384 184.135 181.605C183.717 181.816 183.255 181.951 182.748 182.01ZM179.37 177.953L185.106 177.277C184.999 176.715 184.787 176.237 184.468 175.842C184.16 175.445 183.778 175.153 183.323 174.965C182.876 174.765 182.4 174.696 181.893 174.755C181.387 174.815 180.94 174.994 180.552 175.291C180.163 175.579 179.86 175.957 179.643 176.425C179.435 176.883 179.344 177.392 179.37 177.953ZM190.687 181.075C190.051 181.15 189.448 181.115 188.877 180.971C188.307 180.827 187.797 180.564 187.35 180.184L187.683 179.42C188.168 179.776 188.64 180.022 189.099 180.159C189.567 180.285 190.049 180.319 190.546 180.261C191.152 180.189 191.629 180.012 191.978 179.729C192.327 179.437 192.474 179.062 192.42 178.605C192.384 178.297 192.262 178.075 192.054 177.938C191.856 177.79 191.577 177.687 191.217 177.629C190.867 177.56 190.446 177.493 189.956 177.43C189.402 177.345 188.932 177.244 188.545 177.128C188.168 177.002 187.87 176.825 187.652 176.599C187.443 176.362 187.315 176.04 187.267 175.633C187.207 175.126 187.282 174.694 187.492 174.337C187.71 173.969 188.028 173.675 188.445 173.455C188.871 173.223 189.357 173.076 189.903 173.011C190.499 172.941 191.036 172.973 191.515 173.108C191.995 173.243 192.398 173.462 192.726 173.766L192.315 174.509C191.999 174.224 191.639 174.03 191.234 173.927C190.838 173.812 190.407 173.783 189.94 173.838C189.622 173.875 189.325 173.955 189.047 174.079C188.768 174.192 188.546 174.359 188.381 174.58C188.225 174.79 188.166 175.063 188.206 175.401C188.239 175.679 188.334 175.89 188.492 176.032C188.648 176.165 188.872 176.269 189.163 176.346C189.453 176.412 189.808 176.481 190.23 176.552C190.834 176.642 191.365 176.746 191.822 176.863C192.278 176.97 192.64 177.139 192.909 177.369C193.177 177.6 193.339 177.948 193.394 178.415C193.48 179.14 193.273 179.738 192.775 180.21C192.277 180.681 191.581 180.97 190.687 181.075Z" fill="white"/>
<line x1="116.096" y1="139.367" x2="122.623" y2="194.755" stroke="#FFC100" stroke-width="3"/>
<defs>
<filter id="filter0_dd_217_419" x="82.7543" y="76.6405" width="137.212" height="643.113" filterUnits="userSpaceOnUse" color-interpolation-filters="sRGB">
<feFlood flood-opacity="0" result="BackgroundImageFix"/>
<feColorMatrix in="SourceAlpha" type="matrix" values="0 0 0 0 0 0 0 0 0 0 0 0 0 0 0 0 0 0 127 0" result="hardAlpha"/>
<feMorphology radius="3.50755" operator="dilate" in="SourceAlpha" result="effect1_dropShadow_217_419"/>
<feOffset dx="4.20906" dy="4.20906"/>
<feGaussianBlur stdDeviation="5.26132"/>
<feColorMatrix type="matrix" values="0 0 0 0 0 0 0 0 0 0 0 0 0 0 0 0 0 0 0.1 0"/>
<feBlend mode="normal" in2="BackgroundImageFix" result="effect1_dropShadow_217_419"/>
<feColorMatrix in="SourceAlpha" type="matrix" values="0 0 0 0 0 0 0 0 0 0 0 0 0 0 0 0 0 0 127 0" result="hardAlpha"/>
<feOffset dx="4.20906" dy="4.20906"/>
<feGaussianBlur stdDeviation="3.50755"/>
<feColorMatrix type="matrix" values="0 0 0 0 0 0 0 0 0 0 0 0 0 0 0 0 0 0 0.2 0"/>
<feBlend mode="normal" in2="effect1_dropShadow_217_419" result="effect2_dropShadow_217_419"/>
<feBlend mode="normal" in="SourceGraphic" in2="effect2_dropShadow_217_419" result="shape"/>
</filter>
<filter id="filter1_d_217_419" x="96.172" y="73.4786" width="179.343" height="215.822" filterUnits="userSpaceOnUse" color-interpolation-filters="sRGB">
<feFlood flood-opacity="0" result="BackgroundImageFix"/>
<feColorMatrix in="SourceAlpha" type="matrix" values="0 0 0 0 0 0 0 0 0 0 0 0 0 0 0 0 0 0 127 0" result="hardAlpha"/>
<feOffset dx="0.70151" dy="1.40302"/>
<feGaussianBlur stdDeviation="1.75378"/>
<feColorMatrix type="matrix" values="0 0 0 0 0.883333 0 0 0 0 0.806042 0 0 0 0 0.806042 0 0 0 0.25 0"/>
<feBlend mode="normal" in2="BackgroundImageFix" result="effect1_dropShadow_217_419"/>
<feBlend mode="normal" in="SourceGraphic" in2="effect1_dropShadow_217_419" result="shape"/>
</filter>
<linearGradient id="paint0_linear_217_419" x1="10.2775" y1="189.629" x2="-17.7016" y2="186.948" gradientUnits="userSpaceOnUse">
<stop stop-opacity="0.2"/>
<stop offset="0.338542" stop-opacity="0"/>
<stop offset="0.630208" stop-color="white" stop-opacity="0"/>
<stop offset="1" stop-color="white" stop-opacity="0.3"/>
</linearGradient>
<linearGradient id="paint1_linear_217_419" x1="149.335" y1="194.141" x2="5.35349" y2="-1.66847" gradientUnits="userSpaceOnUse">
<stop stop-opacity="0.2"/>
<stop offset="0.338542" stop-opacity="0"/>
<stop offset="0.630208" stop-color="white" stop-opacity="0"/>
<stop offset="1" stop-color="white" stop-opacity="0.3"/>
</linearGradient>
<linearGradient id="paint2_linear_217_419" x1="149.335" y1="194.209" x2="5.28777" y2="-1.62072" gradientUnits="userSpaceOnUse">
<stop stop-opacity="0.2"/>
<stop offset="0.338542" stop-opacity="0"/>
<stop offset="0.630208" stop-color="white" stop-opacity="0"/>
<stop offset="1" stop-color="white" stop-opacity="0.3"/>
</linearGradient>
<clipPath id="clip0_217_419">
<rect width="10.2775" height="189.629" fill="white" transform="matrix(0.626174 0.187078 0.115793 1.03492 92.5754 86.4617)"/>
</clipPath>
<clipPath id="clip1_217_419">
<rect width="66.6434" height="582.253" fill="white" transform="matrix(0.626174 0.187078 0.115793 1.03492 92.5754 86.4617)"/>
</clipPath>
<clipPath id="clip2_217_419">
<path d="M92.6028 86.4685C96.157 87.5304 99.5711 93.1533 100.228 99.0276L119.806 274.006C120.463 279.88 118.115 283.781 114.561 282.72L92.6028 86.4685Z" fill="white"/>
</clipPath>
<clipPath id="clip3_217_419">
<path d="M98.978 88.5939L227.824 77.4167C239.498 76.4041 250.02 84.8644 251.327 96.3134L268.42 246.088C269.727 257.537 261.323 267.639 249.649 268.651L120.803 279.829L98.978 88.5939Z" fill="white"/>
</clipPath>
<clipPath id="clip4_217_419">
<path d="M98.978 88.5939L227.824 77.4167C239.498 76.4041 250.02 84.8644 251.327 96.3134L268.428 246.155C269.734 257.604 261.33 267.706 249.657 268.719L120.81 279.896L98.978 88.5939Z" fill="white"/>
</clipPath>
</defs>
</svg>
