<svg width="122" height="122" viewBox="0 0 122 122" fill="none" xmlns="http://www.w3.org/2000/svg">
<circle cx="61" cy="61" r="61" fill="#D9D9D9" fill-opacity="0.33"/>
<ellipse cx="43.5" cy="78" rx="22.5" ry="22" fill="#D9D9D9"/>
<path d="M42.9185 85.8182V67.6364H44.0833V85.8182H42.9185ZM46.839 73.0909C46.7537 72.3712 46.4081 71.8125 45.802 71.4148C45.196 71.017 44.4526 70.8182 43.5719 70.8182C42.928 70.8182 42.3645 70.9223 41.8816 71.1307C41.4034 71.339 41.0293 71.6255 40.7594 71.9901C40.4943 72.3546 40.3617 72.7689 40.3617 73.233C40.3617 73.6212 40.454 73.955 40.6387 74.2344C40.8281 74.509 41.0695 74.7386 41.3631 74.9233C41.6567 75.1032 41.9644 75.2524 42.2864 75.3707C42.6084 75.4844 42.9043 75.5767 43.1742 75.6477L44.6515 76.0455C45.0302 76.1449 45.4516 76.2822 45.9157 76.4574C46.3844 76.6326 46.8319 76.8717 47.258 77.1747C47.6889 77.473 48.044 77.8565 48.3233 78.3253C48.6027 78.794 48.7424 79.3693 48.7424 80.0511C48.7424 80.8371 48.5364 81.5473 48.1245 82.1818C47.7173 82.8163 47.1207 83.3205 46.3347 83.6946C45.5534 84.0687 44.6041 84.2557 43.4867 84.2557C42.445 84.2557 41.543 84.0876 40.7807 83.7514C40.0231 83.4152 39.4266 82.9465 38.9909 82.3452C38.5601 81.7438 38.3162 81.0455 38.2594 80.25H40.0776C40.1249 80.7992 40.3096 81.2538 40.6316 81.6136C40.9583 81.9687 41.3702 82.2339 41.8674 82.4091C42.3693 82.5795 42.909 82.6648 43.4867 82.6648C44.159 82.6648 44.7627 82.5559 45.2978 82.3381C45.8328 82.1155 46.2566 81.8078 46.5691 81.4148C46.8816 81.017 47.0378 80.553 47.0378 80.0227C47.0378 79.5398 46.9029 79.1468 46.633 78.8438C46.3631 78.5407 46.008 78.2945 45.5676 78.1051C45.1273 77.9157 44.6515 77.75 44.1401 77.608L42.3503 77.0966C41.214 76.7699 40.3143 76.3035 39.6515 75.6974C38.9886 75.0914 38.6571 74.2983 38.6571 73.3182C38.6571 72.5038 38.8773 71.7936 39.3176 71.1875C39.7627 70.5767 40.3593 70.1032 41.1074 69.767C41.8603 69.4261 42.7007 69.2557 43.6287 69.2557C44.5662 69.2557 45.3996 69.4238 46.1287 69.7599C46.8579 70.0914 47.4355 70.5459 47.8617 71.1236C48.2926 71.7012 48.5198 72.357 48.5435 73.0909H46.839Z" fill="#FFC100"/>
<g clip-path="url(#clip0_382_882)">
<path d="M104 34.875V42C104 48.5609 91.9103 53.875 77 53.875C62.0897 53.875 50 48.5609 50 42V34.875C50 28.3141 62.0897 23 77 23C91.9103 23 104 28.3141 104 34.875ZM97.3946 54.8695C99.9018 53.7711 102.204 52.3609 104 50.6242V65.75C104 72.3109 91.9103 77.625 77 77.625C62.0897 77.625 50 72.3109 50 65.75V50.6242C51.796 52.3758 54.0982 53.7711 56.6054 54.8695C62.0174 57.2445 69.2254 58.625 77 58.625C84.7746 58.625 91.9826 57.2445 97.3946 54.8695ZM50 74.3742C51.796 76.1258 54.0982 77.5211 56.6054 78.6195C62.0174 80.9945 69.2254 82.375 77 82.375C84.7746 82.375 91.9826 80.9945 97.3946 78.6195C99.9018 77.5211 102.204 76.1109 104 74.3742V87.125C104 93.6859 91.9103 99 77 99C62.0897 99 50 93.6859 50 87.125V74.3742Z" fill="#FFC100"/>
</g>
<defs>
<clipPath id="clip0_382_882">
<rect width="54" height="76" fill="white" transform="translate(50 23)"/>
</clipPath>
</defs>
</svg>
