<svg width="122" height="122" viewBox="0 0 122 122" fill="none" xmlns="http://www.w3.org/2000/svg">
<circle cx="61" cy="61" r="61" fill="#D9D9D9" fill-opacity="0.34"/>
<path fill-rule="evenodd" clip-rule="evenodd" d="M67.8725 67.776C64.4362 66.3256 60.9999 64.8752 57.0727 64.8752C51.994 64.8752 47.7219 65.8133 43.3281 67.6894V87.0992C43.3281 88.7013 42.0095 90 40.3828 90C38.7562 90 37.4375 88.7013 37.4375 87.0992V41.6692L37.4377 41.6342L37.4377 38.8365C37.4377 38.1899 37.7642 37.5828 38.3203 37.2391C43.9719 33.7464 50.1431 32 57.0727 32C60.9999 32 64.4362 33.4504 67.8725 34.9008C71.3086 36.3512 74.7447 37.8015 78.6716 37.8015H80.6354C82.8043 37.8015 84.5625 39.5331 84.5625 41.6692V66.8091C84.5625 68.9451 82.8043 70.6767 80.6354 70.6767H78.6716C74.7447 70.6767 71.3086 69.2264 67.8725 67.776ZM43.3283 41.0818C47.4975 38.8955 51.9972 37.8015 57.0727 37.8015C59.6031 37.8015 61.9505 38.7131 65.5519 40.2332L65.8752 40.3698C69.1182 41.7412 73.5211 43.603 78.6716 43.603L78.6719 64.8752C76.1417 64.8752 73.7943 63.9637 70.1928 62.4436L69.8697 62.307C66.6266 60.9356 62.2235 59.0737 57.0727 59.0737C52.0192 59.0737 47.6196 59.8869 43.3282 61.4415L43.3283 41.0818Z" fill="#FFC100"/>
</svg>
