<svg width="74" height="75" viewBox="0 0 74 75" fill="none" xmlns="http://www.w3.org/2000/svg">
<circle cx="37" cy="37.9883" r="37" fill="#FFC100"/>
<path d="M44.0782 59.952C39.9104 59.9883 36.6128 56.7935 36.5793 52.949C36.5457 49.1046 39.787 45.8526 43.9548 45.8162C48.1226 45.7799 51.4202 48.9747 51.4538 52.8192C51.4873 56.6636 48.246 59.9156 44.0782 59.952Z" stroke="white" stroke-width="3"/>
<path d="M21.2073 46.2195C17.0962 46.2554 13.7411 42.9613 13.7053 38.8699C13.6696 34.7786 16.9668 31.4264 21.0779 31.3905C25.1889 31.3546 28.5441 34.6487 28.5798 38.7401C28.6156 42.8314 25.3184 46.1836 21.2073 46.2195Z" stroke="white" stroke-width="3"/>
<path d="M37 48.9883L28 42.9883" stroke="white" stroke-width="3"/>
<path d="M43.8301 31.4409C47.9376 31.4051 51.2383 28.0462 51.2025 23.9388C51.1666 19.8313 47.8078 16.5306 43.7003 16.5665C39.5928 16.6023 36.2921 19.9611 36.328 24.0686C36.3638 28.1761 39.7227 31.4768 43.8301 31.4409Z" stroke="white" stroke-width="3"/>
<path d="M28 33.9883L37.2662 28.2089" stroke="white" stroke-width="3"/>
</svg>
