<svg width="486" height="437" viewBox="0 0 486 437" fill="none" xmlns="http://www.w3.org/2000/svg">
<path d="M280.325 342.608C280.325 342.608 356.005 345.789 403.876 268.886C451.747 191.983 395.419 121.241 308.406 105.955C221.392 90.6687 178.041 33.2731 100.485 77.2091C22.9294 121.145 66.0279 355.132 280.325 342.608Z" fill="#FDC854"/>
<path opacity="0.4" d="M280.325 342.608C280.325 342.608 356.005 345.789 403.876 268.886C451.747 191.983 395.419 121.241 308.406 105.955C221.392 90.6687 178.041 33.2731 100.485 77.2091C22.9294 121.145 66.0279 355.132 280.325 342.608Z" fill="white"/>
<path d="M243.01 376.886C343.717 376.886 425.357 372.336 425.357 366.722C425.357 361.108 343.717 356.557 243.01 356.557C142.302 356.557 60.6626 361.108 60.6626 366.722C60.6626 372.336 142.302 376.886 243.01 376.886Z" fill="#FDC854"/>
<path opacity="0.7" d="M243.01 376.886C343.717 376.886 425.357 372.336 425.357 366.722C425.357 361.108 343.717 356.557 243.01 356.557C142.302 356.557 60.6626 361.108 60.6626 366.722C60.6626 372.336 142.302 376.886 243.01 376.886Z" fill="white"/>
<path d="M282.93 98.9719L282.405 102.975L284.815 103.744C284.85 105.116 285.062 106.48 285.447 107.808L283.357 109.171L285.117 112.886L287.654 112.458C288.444 113.63 289.383 114.715 290.453 115.691L289.393 117.824L292.99 120.236L294.934 118.75C296.27 119.413 297.69 119.929 299.162 120.289L299.434 122.605L303.876 123.086L304.741 120.909C306.267 120.878 307.784 120.687 309.261 120.341L310.787 122.212L314.928 120.612L314.471 118.34C315.771 117.628 316.975 116.784 318.058 115.823L320.429 116.775L323.112 113.541L321.45 111.793C322.188 110.596 322.762 109.322 323.161 108L325.737 107.756L326.271 103.753L323.851 102.975C323.821 101.605 323.609 100.244 323.219 98.9194L325.319 97.5472L323.55 93.8327L321.022 94.2523C320.228 93.0832 319.285 92.001 318.213 91.0272L319.263 88.9034L315.637 86.5261L313.693 88.0206C312.363 87.366 310.955 86.85 309.494 86.4824L309.222 84.1663L304.77 83.6943L303.905 85.8619C302.382 85.8957 300.869 86.0893 299.395 86.4387L297.869 84.5596L293.738 86.1415L294.205 88.4139C292.91 89.1148 291.71 89.9477 290.628 90.8961L288.266 89.9522L285.573 93.186L287.236 94.934C286.5 96.1359 285.926 97.4122 285.525 98.7359L282.93 98.9719ZM293.262 102.179C293.522 100.211 294.426 98.3569 295.859 96.8509C297.292 95.3449 299.19 94.255 301.312 93.7192C303.434 93.1834 305.685 93.2257 307.781 93.8409C309.876 94.4561 311.721 95.6164 313.083 97.175C314.444 98.7336 315.261 100.62 315.43 102.597C315.598 104.573 315.111 106.549 314.029 108.276C312.948 110.003 311.321 111.403 309.354 112.298C307.388 113.194 305.17 113.544 302.982 113.305V113.305C300.054 112.986 297.386 111.635 295.564 109.55C293.741 107.464 292.914 104.813 293.262 102.179Z" stroke="#263238" stroke-width="1.57112" stroke-linejoin="round"/>
<path d="M166.805 197.471L166.329 201.099L168.516 201.798C168.546 203.04 168.739 204.275 169.089 205.477L167.145 206.718L168.739 210.083L171.033 209.69C171.751 210.75 172.602 211.733 173.57 212.618L172.598 214.549L175.932 216.752L177.691 215.397C178.901 216 180.187 216.469 181.521 216.796L181.764 218.893L185.798 219.33L186.575 217.355C187.957 217.329 189.331 217.156 190.668 216.839L192.048 218.544L195.78 217.101L195.372 215.004C196.551 214.358 197.644 213.593 198.628 212.723L200.776 213.597L203.206 210.678L201.7 209.078C202.368 207.993 202.89 206.84 203.255 205.643L205.588 205.416L206.064 201.789L203.877 201.09C203.846 199.847 203.654 198.612 203.304 197.41L205.248 196.169L203.644 192.804L201.36 193.18C200.635 192.125 199.777 191.148 198.803 190.27L199.775 188.338L196.441 186.162L194.672 187.517C193.468 186.919 192.189 186.452 190.862 186.127L190.619 184.029L186.585 183.592L185.808 185.568C184.426 185.594 183.052 185.767 181.715 186.083L180.335 184.414L176.593 185.847L177.011 187.91C175.831 188.555 174.738 189.32 173.755 190.191L171.607 189.317L169.177 192.245L170.683 193.836C170.017 194.925 169.495 196.081 169.128 197.279L166.805 197.471ZM176.165 200.373C176.402 198.592 177.221 196.914 178.519 195.551C179.816 194.188 181.534 193.201 183.455 192.716C185.376 192.231 187.414 192.269 189.311 192.825C191.208 193.381 192.879 194.431 194.112 195.841C195.346 197.251 196.087 198.958 196.242 200.746C196.397 202.535 195.959 204.325 194.982 205.89C194.006 207.454 192.536 208.723 190.757 209.537C188.979 210.35 186.972 210.671 184.991 210.459V210.459C182.334 210.172 179.912 208.949 178.257 207.058C176.602 205.167 175.85 202.763 176.165 200.373V200.373Z" fill="#263238"/>
<path d="M372.354 286.453V278.229L367.251 277.189C366.819 274.416 366.023 271.7 364.879 269.096L368.767 265.871L364.179 258.704L359.164 260.128C357.243 257.928 355.045 255.937 352.612 254.194L354.197 249.64L346.256 245.524L342.708 248.959C339.821 247.911 336.806 247.175 333.726 246.765L332.56 242.133H323.414L322.247 246.73C319.163 247.115 316.141 247.831 313.246 248.863L309.66 245.367L301.738 249.474L303.283 253.984C300.837 255.708 298.622 257.682 296.684 259.866L291.629 258.459L287.061 265.573L290.89 268.781C289.726 271.374 288.907 274.082 288.451 276.848L283.299 277.906V286.13L288.402 287.179C288.84 289.947 289.636 292.661 290.774 295.263L286.886 298.497L291.464 305.638L296.47 304.248C298.395 306.442 300.6 308.425 303.04 310.156L301.475 314.71L309.426 318.826L312.974 315.33C315.844 316.38 318.843 317.119 321.907 317.533L323.073 322.165H332.23L333.386 317.576C336.473 317.178 339.497 316.456 342.397 315.426L345.983 318.922L353.925 314.806L352.379 310.305C354.828 308.584 357.043 306.609 358.979 304.423L364.033 305.83L368.612 298.681L364.772 295.482C365.936 292.885 366.758 290.175 367.222 287.406L372.354 286.453ZM356.539 282.206C356.539 287.312 354.855 292.304 351.7 296.549C348.545 300.795 344.061 304.104 338.814 306.058C333.568 308.012 327.795 308.524 322.225 307.528C316.655 306.531 311.539 304.072 307.523 300.462C303.508 296.851 300.773 292.251 299.665 287.243C298.557 282.234 299.126 277.043 301.299 272.326C303.472 267.608 307.153 263.576 311.874 260.739C316.596 257.902 322.148 256.388 327.826 256.388V256.388C335.442 256.388 342.745 259.108 348.129 263.95C353.514 268.791 356.539 275.358 356.539 282.206V282.206Z" fill="white"/>
<path d="M213.432 82.2871H189.871V87.1728H213.432V82.2871Z" fill="#FDC854"/>
<path d="M205.355 89.3491H189.871V94.2348H205.355V89.3491Z" fill="#FDC854"/>
<path d="M198.784 96.4111H189.871V101.297H198.784V96.4111Z" fill="#FDC854"/>
<path opacity="0.2" d="M213.432 82.2871H189.871V87.1728H213.432V82.2871Z" fill="black"/>
<path opacity="0.2" d="M205.355 89.3491H189.871V94.2348H205.355V89.3491Z" fill="black"/>
<path opacity="0.2" d="M198.784 96.4111H189.871V101.297H198.784V96.4111Z" fill="black"/>
<path d="M156.949 136.405H148.959V151.123H156.949V136.405Z" fill="#FDC854"/>
<path d="M168.486 141.466H160.497V151.132H168.486V141.466Z" fill="#FDC854"/>
<path d="M180.034 145.565H172.044V151.132H180.034V145.565Z" fill="#FDC854"/>
<path opacity="0.2" d="M156.949 136.405H148.959V151.123H156.949V136.405Z" fill="black"/>
<path opacity="0.2" d="M168.486 141.466H160.497V151.132H168.486V141.466Z" fill="black"/>
<path opacity="0.2" d="M180.034 145.565H172.044V151.132H180.034V145.565Z" fill="black"/>
<path d="M243.914 162.267H147.171C145.843 162.269 144.527 162.036 143.3 161.581C142.072 161.125 140.957 160.457 140.017 159.613C139.077 158.77 138.331 157.768 137.823 156.665C137.314 155.562 137.052 154.38 137.052 153.186V81.3694C137.057 78.9625 138.123 76.6554 140.016 74.9534C141.908 73.2514 144.474 72.2932 147.151 72.2886H243.894C245.222 72.2874 246.537 72.5214 247.763 72.9771C248.99 73.4329 250.106 74.1014 251.045 74.9447C251.985 75.7879 252.73 76.7893 253.24 77.8917C253.749 78.994 254.011 80.1758 254.013 81.3694V153.186C254.013 155.594 252.949 157.904 251.055 159.607C249.161 161.31 246.592 162.267 243.914 162.267ZM147.171 73.1189C144.728 73.1235 142.387 73.9979 140.661 75.5508C138.934 77.1036 137.961 79.2084 137.956 81.4044V153.221C137.961 155.417 138.934 157.522 140.661 159.075C142.387 160.627 144.728 161.502 147.171 161.506H243.914C246.356 161.502 248.697 160.627 250.424 159.075C252.151 157.522 253.123 155.417 253.128 153.221V81.3694C253.123 79.1734 252.151 77.0686 250.424 75.5158C248.697 73.963 246.356 73.0885 243.914 73.0839L147.171 73.1189Z" fill="#263238"/>
<path d="M242.67 136.807H208.173V137.602H242.67V136.807Z" fill="#263238"/>
<path d="M242.67 140.137H208.173V140.933H242.67V140.137Z" fill="#263238"/>
<path d="M242.67 143.458H208.173V144.254H242.67V143.458Z" fill="#263238"/>
<path d="M242.67 146.78H208.173V147.575H242.67V146.78Z" fill="#263238"/>
<path d="M242.67 150.101H208.173V150.896H242.67V150.101Z" fill="#263238"/>
<path d="M182.396 82.6191H147.9V83.4145H182.396V82.6191Z" fill="#263238"/>
<path d="M182.396 85.9404H147.9V86.7358H182.396V85.9404Z" fill="#263238"/>
<path d="M182.396 89.2617H147.9V90.0571H182.396V89.2617Z" fill="#263238"/>
<path d="M182.396 92.583H147.9V93.3783H182.396V92.583Z" fill="#263238"/>
<path d="M182.396 95.9043H147.9V96.6996H182.396V95.9043Z" fill="#263238"/>
<path d="M235.856 109.451L242.038 112.37L241.328 96.6904L226.583 105.081L232.765 107.991L228.109 115.953C227.288 115.953 226.491 116.199 225.844 116.653L217.631 113.235V113.192C217.666 112.301 217.31 111.433 216.639 110.776C215.968 110.12 215.037 109.727 214.046 109.684C213.056 109.64 212.086 109.949 211.347 110.543C210.608 111.137 210.159 111.97 210.098 112.859C210.088 112.97 210.088 113.081 210.098 113.192C210.103 113.677 210.218 114.156 210.438 114.599L199.746 125.087C199.403 124.99 199.046 124.94 198.686 124.938C198.5 124.938 198.315 124.956 198.132 124.991L182.736 107.414C183.088 106.602 183.077 105.698 182.706 104.893C182.334 104.087 181.631 103.441 180.743 103.091C179.855 102.74 178.851 102.711 177.94 103.01C177.029 103.31 176.282 103.914 175.854 104.696C175.641 105.119 175.532 105.578 175.533 106.042C175.545 106.39 175.611 106.734 175.728 107.065L158.183 123.234C157.485 123.007 156.728 122.972 156.008 123.131C155.288 123.29 154.636 123.638 154.134 124.129C153.633 124.621 153.304 125.235 153.19 125.894C153.076 126.554 153.181 127.228 153.492 127.834C153.803 128.44 154.306 128.949 154.939 129.298C155.571 129.647 156.304 129.82 157.045 129.796C157.787 129.771 158.504 129.55 159.106 129.16C159.708 128.77 160.168 128.228 160.429 127.604V127.604C160.576 127.231 160.651 126.837 160.652 126.441C160.653 126.164 160.611 125.887 160.526 125.62L178.265 109.25C178.613 109.354 178.977 109.407 179.344 109.407C179.575 109.408 179.807 109.388 180.034 109.346L195.343 126.826C194.862 127.623 194.753 128.56 195.04 129.429C195.327 130.299 195.987 131.03 196.874 131.463C197.76 131.895 198.802 131.993 199.769 131.735C200.736 131.476 201.549 130.883 202.03 130.086C202.302 129.643 202.458 129.149 202.487 128.644C202.497 128.53 202.497 128.416 202.487 128.303C202.481 127.949 202.415 127.599 202.293 127.263L213.237 116.548C213.446 116.583 213.657 116.6 213.869 116.6C214.617 116.6 215.348 116.399 215.969 116.023L224.328 119.519C224.343 119.968 224.458 120.41 224.665 120.818C224.872 121.227 225.167 121.595 225.534 121.899C225.901 122.204 226.331 122.44 226.801 122.594C227.27 122.748 227.769 122.816 228.267 122.794C228.766 122.773 229.256 122.662 229.706 122.469C230.157 122.276 230.561 122.004 230.893 121.669C231.226 121.334 231.481 120.943 231.644 120.518C231.807 120.094 231.874 119.644 231.841 119.196C231.805 118.568 231.572 117.962 231.171 117.448L235.856 109.451Z" fill="#263238"/>
<path d="M244.137 171.54C242.615 171.542 241.157 172.087 240.081 173.056C239.006 174.024 238.402 175.337 238.402 176.705V221.463C238.402 222.83 239.007 224.142 240.082 225.109C241.158 226.076 242.616 226.619 244.137 226.619H304.401C305.923 226.619 307.383 226.076 308.46 225.11C309.537 224.143 310.143 222.831 310.146 221.463V176.679C310.143 175.311 309.537 173.999 308.46 173.032C307.383 172.065 305.923 171.522 304.401 171.522L244.137 171.54Z" stroke="#263238" stroke-linejoin="round"/>
<path d="M247.734 177.641H243.156V178.191H247.734V177.641Z" fill="#263238"/>
<path d="M247.734 182.133H243.156V182.683H247.734V182.133Z" fill="#263238"/>
<path d="M247.734 186.625H243.156V187.176H247.734V186.625Z" fill="#263238"/>
<path d="M247.734 191.126H243.156V191.677H247.734V191.126Z" fill="#263238"/>
<path d="M247.559 182.133H242.98V182.683H247.559V182.133Z" fill="#263238"/>
<path d="M247.734 195.619H243.156V196.169H247.734V195.619Z" fill="#263238"/>
<path d="M277.759 219.933C282.103 220.014 286.376 218.934 290.037 216.83C293.698 214.726 296.582 211.693 298.325 208.114C300.068 204.535 300.591 200.572 299.828 196.726C299.065 192.88 297.05 189.324 294.038 186.508C291.026 183.692 287.153 181.743 282.909 180.907C278.664 180.071 274.24 180.387 270.195 181.813C266.15 183.24 262.666 185.713 260.185 188.921C257.705 192.128 256.338 195.925 256.258 199.831C256.149 205.06 258.352 210.113 262.383 213.882C266.414 217.651 271.944 219.828 277.759 219.933V219.933ZM278.527 186.249C281.602 186.305 284.59 187.18 287.112 188.763C289.635 190.346 291.579 192.566 292.698 195.142C293.817 197.718 294.062 200.535 293.401 203.236C292.74 205.938 291.202 208.402 288.984 210.318C286.765 212.233 283.964 213.514 280.935 213.998C277.907 214.483 274.787 214.149 271.969 213.038C269.152 211.928 266.764 210.091 265.108 207.761C263.451 205.43 262.601 202.71 262.664 199.945C262.748 196.237 264.466 192.712 267.441 190.143C270.416 187.575 274.403 186.174 278.527 186.249Z" fill="#FDC854"/>
<path opacity="0.2" d="M277.759 219.933C282.103 220.014 286.376 218.934 290.037 216.83C293.698 214.726 296.582 211.693 298.325 208.114C300.068 204.535 300.591 200.572 299.828 196.726C299.065 192.88 297.05 189.324 294.038 186.508C291.026 183.692 287.153 181.743 282.909 180.907C278.664 180.071 274.24 180.387 270.195 181.813C266.15 183.24 262.666 185.713 260.185 188.921C257.705 192.128 256.338 195.925 256.258 199.831C256.149 205.06 258.352 210.113 262.383 213.882C266.414 217.651 271.944 219.828 277.759 219.933V219.933ZM278.527 186.249C281.602 186.305 284.59 187.18 287.112 188.763C289.635 190.346 291.579 192.566 292.698 195.142C293.817 197.718 294.062 200.535 293.401 203.236C292.74 205.938 291.202 208.402 288.984 210.318C286.765 212.233 283.964 213.514 280.935 213.998C277.907 214.483 274.787 214.149 271.969 213.038C269.152 211.928 266.764 210.091 265.108 207.761C263.451 205.43 262.601 202.71 262.664 199.945C262.748 196.237 264.466 192.712 267.441 190.143C270.416 187.575 274.403 186.174 278.527 186.249Z" fill="black"/>
<path d="M262.44 214.322C264.507 216.197 266.965 217.688 269.672 218.709C272.38 219.73 275.285 220.261 278.221 220.272C281.158 220.284 284.068 219.775 286.785 218.775C289.502 217.775 291.974 216.303 294.059 214.444C294.136 214.368 294.178 214.268 294.178 214.165C294.178 214.062 294.136 213.962 294.059 213.885L289.5 209.76C289.46 209.722 289.412 209.691 289.359 209.67C289.305 209.649 289.248 209.638 289.189 209.637C289.072 209.644 288.959 209.683 288.869 209.751C287.435 211.044 285.724 212.06 283.838 212.738C281.953 213.416 279.934 213.741 277.905 213.693H276.826C273.526 213.527 270.379 212.387 267.873 210.45C267.65 210.267 267.417 210.083 267.203 209.891C264.642 207.592 263.067 204.554 262.756 201.312C262.445 198.071 263.417 194.834 265.502 192.175C265.522 192.151 265.538 192.124 265.55 192.096C265.648 191.974 265.755 191.869 265.871 191.747C267.366 190.044 269.294 188.69 271.494 187.799C273.693 186.907 276.099 186.505 278.507 186.625C278.565 186.626 278.622 186.617 278.675 186.598C278.729 186.58 278.778 186.552 278.819 186.516C278.861 186.48 278.894 186.438 278.917 186.39C278.94 186.343 278.953 186.292 278.954 186.24L279.081 180.446C279.083 180.341 279.04 180.239 278.96 180.162C278.88 180.085 278.77 180.04 278.653 180.035V180.035C274.204 179.968 269.833 181.096 266.101 183.276C262.369 185.455 259.445 188.586 257.704 192.269C255.963 195.951 255.483 200.017 256.327 203.946C257.171 207.874 259.299 211.487 262.44 214.322V214.322Z" fill="#263238"/>
<path d="M278.663 180.044C284.721 180.05 290.529 182.219 294.81 186.074C299.09 189.929 301.493 195.155 301.49 200.603C301.487 206.05 299.078 211.274 294.793 215.125C290.507 218.976 284.697 221.139 278.638 221.139C272.58 221.139 266.769 218.976 262.484 215.125C258.199 211.274 255.79 206.05 255.787 200.603C255.783 195.155 258.186 189.929 262.467 186.074C266.747 182.219 272.556 180.05 278.614 180.044H278.663ZM277.768 219.523C282.024 219.601 286.21 218.543 289.798 216.483C293.385 214.422 296.211 211.451 297.921 207.945C299.63 204.44 300.144 200.557 299.399 196.789C298.654 193.021 296.683 189.535 293.734 186.774C290.786 184.014 286.994 182.101 282.836 181.278C278.679 180.455 274.344 180.76 270.379 182.153C266.414 183.546 262.998 185.965 260.562 189.104C258.127 192.243 256.781 195.961 256.695 199.788C256.581 204.918 258.736 209.879 262.687 213.581C266.639 217.283 272.063 219.423 277.768 219.531V219.523ZM278.536 185.839C281.692 185.896 284.759 186.794 287.347 188.419C289.936 190.043 291.93 192.322 293.079 194.966C294.227 197.61 294.478 200.501 293.799 203.273C293.12 206.045 291.542 208.574 289.265 210.539C286.988 212.505 284.113 213.819 281.005 214.316C277.897 214.813 274.695 214.47 271.804 213.33C268.913 212.191 266.463 210.306 264.763 207.914C263.063 205.522 262.191 202.73 262.255 199.892C262.342 196.088 264.106 192.47 267.159 189.834C270.212 187.198 274.305 185.761 278.536 185.839V185.839ZM277.904 213.728C280.886 213.783 283.818 213.041 286.331 211.597C288.843 210.154 290.823 208.072 292.02 205.617C293.217 203.161 293.577 200.441 293.055 197.801C292.533 195.162 291.152 192.72 289.087 190.786C287.022 188.852 284.365 187.512 281.453 186.936C278.541 186.36 275.504 186.573 272.727 187.549C269.949 188.524 267.556 190.219 265.849 192.417C264.143 194.616 263.2 197.221 263.14 199.901V199.901C263.062 203.494 264.573 206.967 267.341 209.558C270.11 212.149 273.909 213.646 277.904 213.719V213.728Z" fill="#263238"/>
<path d="M164.919 243.085V296.102" stroke="#263238" stroke-width="0.879169" stroke-linecap="round" stroke-linejoin="round"/>
<path d="M174.396 263.091H169.39V293.445H174.396V263.091Z" fill="#263238"/>
<path d="M181.55 275.476H176.544V293.437H181.55V275.476Z" fill="#FDC854"/>
<path d="M189.958 253.276H184.952V293.445H189.958V253.276Z" fill="white" stroke="#263238" stroke-width="0.879169" stroke-linejoin="round"/>
<path d="M203.916 247.482H198.91V293.437H203.916V247.482Z" fill="#263238"/>
<path d="M211.08 282.075H206.074V293.445H211.08V282.075Z" fill="#FDC854"/>
<path d="M219.487 266.308H214.481V293.445H219.487V266.308Z" fill="white" stroke="#263238" stroke-width="0.879169" stroke-linejoin="round"/>
<path d="M239.88 270.459H234.874V293.437H239.88V270.459Z" fill="#263238"/>
<path d="M247.044 252.63H242.038V293.437H247.044V252.63Z" fill="#FDC854"/>
<path d="M255.451 261.641H250.446V293.437H255.451V261.641Z" fill="white" stroke="#263238" stroke-width="0.879169" stroke-linejoin="round"/>
<path d="M159.544 286.418H162.344" stroke="#263238" stroke-width="0.879169" stroke-linecap="round" stroke-linejoin="round"/>
<path d="M159.544 279.873H162.344" stroke="#263238" stroke-width="0.879169" stroke-linecap="round" stroke-linejoin="round"/>
<path d="M159.544 273.335H162.344" stroke="#263238" stroke-width="0.879169" stroke-linecap="round" stroke-linejoin="round"/>
<path d="M159.544 266.789H162.344" stroke="#263238" stroke-width="0.879169" stroke-linecap="round" stroke-linejoin="round"/>
<path d="M159.544 260.242H162.344" stroke="#263238" stroke-width="0.879169" stroke-linecap="round" stroke-linejoin="round"/>
<path d="M159.544 253.696H162.344" stroke="#263238" stroke-width="0.879169" stroke-linecap="round" stroke-linejoin="round"/>
<path d="M159.544 247.15H162.344" stroke="#263238" stroke-width="0.879169" stroke-linecap="round" stroke-linejoin="round"/>
<path d="M161.605 293.445H258.96" stroke="#263238" stroke-width="0.879169" stroke-linecap="round" stroke-linejoin="round"/>
<path opacity="0.3" d="M181.55 275.476H176.544V293.437H181.55V275.476Z" fill="black"/>
<path opacity="0.3" d="M211.08 282.075H206.074V293.445H211.08V282.075Z" fill="black"/>
<path opacity="0.3" d="M247.044 252.63H242.038V293.437H247.044V252.63Z" fill="black"/>
<path d="M155.569 235.726C153.891 235.729 152.283 236.329 151.097 237.395C149.911 238.462 149.244 239.908 149.241 241.416V293.428C149.244 294.937 149.911 296.384 151.097 297.452C152.282 298.52 153.89 299.122 155.569 299.126H262.926C264.605 299.122 266.214 298.52 267.402 297.452C268.589 296.385 269.258 294.938 269.264 293.428V241.399C269.261 239.888 268.592 238.44 267.405 237.372C266.217 236.304 264.606 235.703 262.926 235.7L155.569 235.726Z" stroke="#263238" stroke-linejoin="round"/>
<path d="M70.6159 351.995C70.6159 351.995 72.8612 365.472 67.4277 366.853C61.9942 368.234 58.2229 366.416 57.5425 364.397C56.8621 362.378 61.6735 347.957 61.6735 347.957L70.6159 351.995Z" fill="white"/>
<path d="M165.124 354.975L188.743 360.009C188.743 360.009 190.532 360.883 190.337 362.326C190.143 363.768 179.363 367.465 176.34 367.928C173.317 368.391 155.87 370.436 153.391 368.522C150.913 366.608 156.152 351.348 156.152 351.348L165.124 354.975Z" fill="white"/>
<path d="M122.356 109.18C122.356 109.18 125.68 113.69 125.728 115.971C125.777 118.252 125.466 120.857 127.021 122.203C128.576 123.549 129.772 125.017 129.13 125.699C128.489 126.38 127.254 127.709 127.254 127.709C127.254 127.709 128.858 135.391 126.778 136.781C124.698 138.171 118.448 136.781 118.448 136.781V141.745C118.448 141.745 109.564 139.123 103.431 139.613L102.342 128.976C102.342 128.976 115.668 105.937 122.356 109.18Z" fill="white"/>
<path d="M177.001 140.609C177.001 140.609 176.204 135.155 179.159 131.869C179.159 131.869 175.621 131.327 176.049 130.174C176.477 129.02 181.881 130.532 181.881 130.532L180.423 127.91C180.423 127.91 175.32 126.389 175.952 124.965C176.583 123.54 184.068 127.045 184.068 127.045C184.068 127.045 179.626 123.706 180.248 122.316C180.87 120.927 185.39 120.953 187.8 128.155L189.025 126.783C189.025 126.783 189.462 118.584 190.716 118.139C190.716 118.139 192.66 119.1 192.66 123.811C192.66 123.811 194.604 125.917 193.37 127.7C192.135 129.483 189.229 133.495 186.76 134.998C184.291 136.501 184.301 142.366 184.301 142.366L177.001 140.609Z" fill="white"/>
<path d="M98.7747 95.7816L99.8924 94.4356C99.8924 94.4356 112.402 89.4188 112.091 87.8544C111.78 86.2899 104.694 88.4487 103.343 87.6184C103.343 87.6184 104.636 72.8128 103.343 72.3321C102.05 71.8514 100.612 79.2804 100.612 79.2804C100.612 79.2804 98.7941 71.6592 97.3944 71.8777C95.9947 72.0962 96.5779 79.7437 96.5779 79.7437C96.5779 79.7437 93.9049 74.8405 92.8649 75.295C91.8249 75.7495 93.3801 81.7276 93.3801 81.7276C93.3801 81.7276 91.436 79.6737 90.6584 80.2943C90.9146 83.3823 91.8566 86.3928 93.4287 89.1479L90.7265 93.2557L98.7747 95.7816Z" fill="white"/>
<path d="M175.65 140.644L184.272 141.728C184.272 141.728 177.963 189.798 176.107 195.732C174.25 201.667 172.579 205.932 166.241 206.22C159.904 206.509 137.324 189.44 137.324 189.44L136.274 213.038L137.742 222.826C137.742 222.826 110.128 235.875 82.0465 224.522L82.6783 213.038L72.5598 160.51L64.5991 135.566L90.2891 91.77L99.6008 96.14L83.174 136.003L87.7716 149.314L92.9135 147.461L98.5997 140.941C98.5997 140.941 108.242 136.44 120.441 142.689L122.385 148.161C122.385 148.161 136.692 149.131 160.847 179.24L175.65 140.644Z" fill="#FDC854"/>
<path opacity="0.2" d="M114.016 140.644L115.104 147.374C115.104 147.374 123.133 152.163 126.36 153.824C126.36 153.824 134.253 198.643 128.411 207.461L122.258 216.123C122.258 216.123 128.547 216.123 131.444 212.163C131.444 212.163 127.837 222.984 118.487 225.894C118.487 225.894 132.843 224.548 137.781 222.835L136.313 213.046L138.675 158.465C138.675 158.465 140.901 154.812 122.394 148.265L119.663 142.366L114.016 140.644Z" fill="black"/>
<path d="M122.355 109.792C122.355 109.792 125.369 113.76 125.728 115.971C126.088 118.182 125.019 120.621 127.021 122.203C129.023 123.785 129.937 124.825 129.13 125.699C128.324 126.573 127.254 127.709 127.254 127.709C127.254 127.709 128.071 135.199 126.778 136.781C125.485 138.363 118.448 136.781 118.448 136.781V141.745" stroke="#263238" stroke-linecap="round" stroke-linejoin="round"/>
<path d="M118.448 127.377C118.448 127.377 115.629 120.831 113.52 122.413C111.411 123.995 113.287 132.647 118.448 130.751" stroke="#263238" stroke-linecap="round" stroke-linejoin="round"/>
<path d="M117.68 125.856C117.68 125.856 121.034 125.611 118.915 118.541C116.796 111.47 121.384 112.423 126.312 110.413C131.24 108.402 132.416 104.714 131.356 102.503C130.297 100.292 128.537 99.1205 122.317 100.178C122.317 100.178 115.513 93.1074 108.942 100.921C108.942 100.921 94.1481 100.711 90.1629 107.039C86.1777 113.367 91.4556 129.518 99.2025 134.902C106.949 140.286 114.521 135.977 116.096 130.917C116.096 130.917 110.818 128.356 113.52 122.448C113.52 122.413 115.979 121.626 117.68 125.856Z" fill="#263238"/>
<path d="M71.792 156.525C71.792 156.525 107.591 133.18 138.792 156.525L136.274 213.003L137.742 222.791C137.742 222.791 111.362 233.9 82.0466 224.487L82.6784 213.003L71.792 156.525Z" stroke="#263238" stroke-linecap="round" stroke-linejoin="round"/>
<path d="M92.4373 148.038L98.5997 140.976C98.5997 140.976 110.682 137.218 120.441 142.724L122.385 148.195" stroke="#263238" stroke-linecap="round" stroke-linejoin="round"/>
<path d="M138.792 156.525L169.964 188.758" stroke="#263238" stroke-linecap="round" stroke-linejoin="round"/>
<path d="M137.354 188.784C137.354 188.784 158.009 206.063 166.241 206.264C174.474 206.465 175.845 197.524 175.845 197.524L184.272 141.763L175.65 140.679L160.818 179.336" stroke="#263238" stroke-linecap="round" stroke-linejoin="round"/>
<path d="M184.126 141.588C184.126 141.588 185.205 135.287 188.014 133.853C190.823 132.42 194.157 126.861 193.088 125.262C192.019 123.662 188.753 128.863 185.808 129.859C182.862 130.855 180.471 135.75 180.063 137.874" stroke="#263238" stroke-linecap="round" stroke-linejoin="round"/>
<path d="M192.184 125.035C192.184 125.035 192.184 117.754 190.697 118.095C189.209 118.436 189.005 127.657 189.005 127.657" stroke="#263238" stroke-linecap="round" stroke-linejoin="round"/>
<path d="M187.917 128.592C187.917 128.592 186.945 124.51 184.272 122.517C181.599 120.525 179.927 121.6 180.228 122.273C180.53 122.946 185.088 128.391 184.981 130.244" stroke="#263238" stroke-linecap="round" stroke-linejoin="round"/>
<path d="M183.29 126.573C183.29 126.573 175.952 123.549 175.932 125.358C175.913 127.167 180.403 127.867 180.403 127.867L181.861 130.489C181.861 130.489 175.679 128.741 176.029 130.13C176.379 131.52 179.14 131.826 179.14 131.826C179.14 131.826 176.136 134.5 176.982 140.566" stroke="#263238" stroke-linecap="round" stroke-linejoin="round"/>
<path d="M133.494 223.447L135.37 235.264C135.37 235.264 152.643 281.857 155.267 290.964C157.892 300.071 159.398 320.68 160.127 330.128C160.856 339.576 166.931 355.474 166.931 355.474C166.931 355.474 166.183 361.889 153.42 360.875C153.42 360.875 148.162 341.97 142.534 330.827C136.906 319.683 136.08 302.78 136.08 302.78L108.67 257.542C108.67 257.542 103.061 283.884 99.2898 293.664C95.4018 303.75 68.8954 359.712 70.7519 355.788C70.7519 355.788 67 357.816 59.0879 352.747C59.0879 352.747 64.7158 335.87 66.2127 326.754C67.7095 317.638 75.6022 296.706 75.6022 296.706C75.6022 296.706 77.4781 257.21 80.4622 245.052C80.4622 245.052 78.5182 231.663 82.6686 222.206C99.1194 227.037 116.776 227.468 133.494 223.447V223.447Z" fill="#263238"/>
<path d="M93.6523 249.606L105.958 252.822L107.746 256.747" stroke="white" stroke-linecap="round" stroke-linejoin="round"/>
<path d="M153.693 359.494C153.693 359.494 152.031 366.984 153.391 368.522C154.111 369.326 156.249 369.178 157.279 369.195C159.651 369.239 162.033 369.099 164.404 368.959C169.148 368.68 174.008 368.723 178.586 367.404C182.442 366.361 186.127 364.859 189.54 362.937C191.406 361.819 189.54 360.01 189.54 360.01L166.941 355.447" stroke="#263238" stroke-linecap="round" stroke-linejoin="round"/>
<path d="M153.576 365.883C153.576 365.883 178.975 369.632 189.54 360.009" stroke="#263238" stroke-linecap="round" stroke-linejoin="round"/>
<path d="M60.0697 351.995C60.0697 351.995 57.1537 360.988 57.5814 363.82C58.0091 366.652 61.1681 367.316 64.8617 367.237C68.5553 367.159 70.0716 365.673 70.6159 363.427C71.1602 361.18 70.6159 353.917 70.6159 353.917" stroke="#263238" stroke-linecap="round" stroke-linejoin="round"/>
<path d="M57.5425 362.448L70.6159 363.427" stroke="#263238" stroke-linecap="round" stroke-linejoin="round"/>
<path d="M91.6693 92.0498C92.7774 90.2319 93.4286 89.1219 93.4286 89.1219C93.4286 89.1219 89.8225 81.2821 90.7265 80.3207C91.6304 79.3593 93.7202 82.0687 93.7202 82.0687C93.7202 82.0687 91.5818 75.8371 92.9329 75.3039C94.284 74.7708 96.6946 80.5479 96.6946 80.5479C96.6946 80.5479 96.0627 72.2012 97.4624 71.8079C98.8621 71.4146 100.544 79.7439 100.544 79.7439C100.544 79.7439 102.352 72.3323 103.46 72.2624C104.568 72.1925 103.46 87.5487 103.46 87.5487C105.695 88.5363 112.266 86.124 112.208 88.0731C112.149 90.0221 99.5717 94.5057 99.5717 94.5057C99.3517 94.7624 99.1596 95.0375 98.9982 95.3273" stroke="#263238" stroke-linecap="round" stroke-linejoin="round"/>
<path d="M71.7919 156.525L64.5991 135.566L90.2891 91.7964L99.6008 96.1751L83.174 136.038L87.7716 149.349" stroke="#263238" stroke-linecap="round" stroke-linejoin="round"/>
<path d="M72.6279 132.254C72.6279 132.254 81.8425 132.184 83.1741 136.038C79.1376 135.837 75.1391 136.832 71.792 138.87" stroke="#263238" stroke-linecap="round" stroke-linejoin="round"/>
<path d="M103.071 140.067V133.993" stroke="#263238" stroke-linecap="round" stroke-linejoin="round"/>
<path opacity="0.2" d="M138.636 173.428L140.94 187.211C140.94 187.211 142.826 178.217 144.002 178.217C145.178 178.217 144.002 188.758 144.002 188.758C144.002 188.758 163.325 204.49 171.684 204.577C171.684 204.577 167.038 207.514 162.382 205.329C157.726 203.144 137.314 188.723 137.314 188.723L138.636 173.428Z" fill="black"/>
<path opacity="0.2" d="M97.9485 95.397L80.2775 133.993C80.2775 133.993 74.1248 133.905 71.792 138.87L81.2398 137.349L84.4183 150.459L87.7717 149.314L83.1741 136.003L99.6009 96.1399L97.9485 95.397Z" fill="black"/>
<path d="M341.473 163.272L334.514 149.909L307.162 166.156L329.731 202.113L347.334 193.128L341.473 163.272Z" fill="white"/>
<path d="M364.014 278.858C364.014 278.858 368.437 289.897 369.088 295.272C369.739 300.647 367.746 323.284 368.174 329.524C368.602 335.765 372.354 354.39 372.354 354.39C372.354 354.39 353.954 366.416 348.112 362.544C348.112 362.544 361.079 353.105 362.391 349.347L358.192 323.834L354.022 293.664C354.022 293.664 352.962 287.362 351.485 284.12C350.007 280.877 350.231 273.999 350.231 273.999L364.014 278.858Z" fill="white"/>
<path d="M363.625 277.88C363.625 277.88 368.407 289.504 369.525 297.851C370.643 306.197 367.28 325.128 368.388 334.244C369.496 343.36 370.633 348.403 372.597 353.201L371.625 367.281H369.107L368.135 359.293C368.135 359.293 364.189 357.816 361.798 362.929C359.407 368.042 350.571 368.715 346.382 365.752C346.382 365.752 346.382 363.462 349.531 361.443C352.68 359.424 360.904 353.114 362.4 349.347C362.4 349.347 357.91 323.127 356.86 314.632C355.81 306.136 354.168 290.693 352.068 285.711C349.969 280.729 349.978 273.606 349.978 273.606" stroke="#263238" stroke-linecap="round" stroke-linejoin="round"/>
<path d="M371.634 350.562C371.634 350.562 359.3 362.623 348.948 362.544" stroke="#263238" stroke-linecap="round" stroke-linejoin="round"/>
<path d="M348.112 362.544C349.823 362.715 351.555 362.52 353.166 361.976C355.956 361.102 365.997 356.732 370.935 351.217L372.451 352.764L371.654 366.958L369.117 367.281L368.145 359.293C368.145 359.293 364.898 357.956 362.809 361.242C360.719 364.528 359.212 366.783 355.557 367.509C351.903 368.234 346.392 365.761 346.392 365.761C346.392 365.761 345.429 364.458 348.112 362.544Z" fill="#263238"/>
<path d="M372.616 279.234C373.775 283.067 375.184 286.834 376.834 290.518C379.041 295.071 398.102 341.122 398.102 341.122C398.102 341.122 399.55 366.049 407.666 365.97C415.782 365.892 407.346 348.551 407.346 348.551L402.408 339.051C402.408 339.051 400.522 311.144 398.189 300.883L388.255 276.822L372.616 279.234Z" fill="white"/>
<path d="M388.362 277.626C388.362 277.626 396.518 294.311 398.199 300.883C399.881 307.456 401.572 337.023 402.418 339.051C403.263 341.079 416.755 362.553 408.599 366.853C400.444 371.153 398.52 342.084 398.52 342.084C398.52 342.084 379.692 295.063 376.873 290.518C374.055 285.973 370.973 272.819 370.973 272.819L388.362 277.626Z" stroke="#263238" stroke-linecap="round" stroke-linejoin="round"/>
<path d="M410.184 355.832C410.184 355.832 409.62 361.653 407.482 362.474C405.343 363.296 400.619 356.732 400.619 356.732" stroke="#263238" stroke-linecap="round" stroke-linejoin="round"/>
<path d="M400.639 357.737C400.639 357.737 403.555 367.666 407.443 367.246C411.331 366.826 412.031 361.312 410.194 357.055C410.194 357.055 409.542 361.425 407.492 362.474C405.421 362.5 400.639 357.737 400.639 357.737Z" fill="#263238"/>
<path d="M366.22 190.838C366.22 190.838 376.047 202.899 382.861 222.302C389.675 241.705 388.975 278.867 388.975 278.867C388.975 278.867 363.615 286.2 339.033 276.883L343.534 193.154C343.534 193.154 359.348 193.416 366.22 190.838Z" fill="#263238"/>
<path d="M353.526 103.368C353.526 103.368 345.886 109.801 344.992 114.013C344.254 116.962 343.07 119.806 341.473 122.465C342.295 123.583 343.499 124.43 344.904 124.877C344.904 124.877 345.4 133.504 348.19 134.168L354.858 132.595L355.567 136.292L365.132 133.023V128.041L372.422 123.759L369.826 112.563L357.968 107.581L353.526 103.368Z" fill="white"/>
<path d="M343.485 192.481L342.64 180.385C342.64 180.385 336.419 169.897 338.392 166.086C340.569 161.9 353.652 146.395 353.652 146.395L352.369 137.935L370.701 130.873L371.576 137.935L369.36 139.412L371.819 144.149C371.819 144.149 371.975 142.742 376.232 149.883C380.489 157.023 396.527 182.43 397.791 187.307C399.055 192.184 372.849 209.367 364.004 213.422C364.004 213.422 362.984 211.456 352.476 218.666C349.803 218.247 346.11 216.088 345.322 214.751C344.535 213.414 348.345 210.232 348.345 210.232C348.345 210.232 350.639 206.334 354.692 209.454H359.008L383.707 188.784L371.187 172.309L366.22 190.812C366.22 190.812 350.153 195.199 343.485 192.481Z" fill="white"/>
<path d="M352.369 137.935L353.682 146.579L371.576 137.935L370.701 130.873L352.369 137.935Z" stroke="#263238" stroke-linecap="round" stroke-linejoin="round"/>
<path d="M353.682 146.579C353.682 146.579 337.401 164.487 337.838 168.018C338.275 171.549 342.64 180.385 342.64 180.385L343.534 193.145C343.534 193.145 356.705 193.469 366.22 190.838L371.187 172.335" stroke="#263238" stroke-linecap="round" stroke-linejoin="round"/>
<path d="M383.707 188.784L358.483 154.593C358.483 154.593 356.005 146.727 361.973 143.922C367.941 141.116 373.131 144.673 374.988 146.544C376.844 148.414 396.867 183.103 397.801 187.272C398.734 191.441 377.583 208.117 365.346 212.618C365.346 212.618 359.776 215.625 359.776 209.454L383.707 188.784Z" stroke="#263238" stroke-linecap="round" stroke-linejoin="round"/>
<path d="M371.576 144.149L369.214 139.08" stroke="#263238" stroke-linecap="round" stroke-linejoin="round"/>
<path d="M359.776 209.489H354.702C354.702 209.489 350.746 206.308 348.87 209.489C346.994 212.67 344.622 213.3 345.332 214.786C346.042 216.271 350.105 219.234 352.486 218.701C354.867 218.168 361.584 213.256 361.584 213.256" stroke="#263238" stroke-linecap="round" stroke-linejoin="round"/>
<path d="M351.699 105.632C351.699 105.632 345.74 110.316 345.079 112.912C344.418 115.508 344.7 119.904 341.473 122.465C341.473 122.465 341.638 124.563 344.904 124.877C344.904 124.877 346.576 133.154 348.19 134.168C349.803 135.182 359.679 130.602 363.547 128.714C364.534 128.106 365.253 127.206 365.579 126.171" stroke="#263238" stroke-linecap="round" stroke-linejoin="round"/>
<path d="M347.072 127.403C348.899 127.126 350.546 126.251 351.699 124.947" stroke="#263238" stroke-linecap="round" stroke-linejoin="round"/>
<path d="M347.072 115.429C347.072 115.429 349.424 114.197 350.717 116.242" stroke="#263238" stroke-linecap="round" stroke-linejoin="round"/>
<path d="M348.685 119.825C348.685 120.533 348.462 121.11 348.102 121.128C347.743 121.145 347.412 120.586 347.373 119.887C347.334 119.187 347.597 118.593 347.956 118.576C348.316 118.558 348.647 119.117 348.685 119.825Z" fill="#263238"/>
<path d="M354.858 132.595L355.645 136.676" stroke="#263238" stroke-linecap="round" stroke-linejoin="round"/>
<path d="M362.498 119.284C362.498 119.284 363.956 116.74 365.579 118.226C367.202 119.712 370.283 126.582 361.973 124.947C361.973 124.947 361.419 129.142 365.579 130.191C369.739 131.24 377.641 125.454 377.904 115.587C378.166 105.719 367.571 99.0593 361.973 100.965C361.973 100.965 353.857 89.524 345.808 94.4009C337.76 99.2778 343.184 106.785 341.473 108.481C339.763 110.177 336.108 108.586 335.991 113.139C335.875 117.693 344.341 117.23 344.341 117.23L345.361 112.213L352.369 105.632C352.369 105.632 350.717 110.386 353.526 114.52C356.063 118.244 362.498 119.284 362.498 119.284Z" fill="#263238"/>
<path d="M377.904 115.587C377.904 115.587 381.792 116.373 381.364 121.102C380.936 125.83 372.159 137.454 372.82 144.149L395.478 182.116C395.478 182.116 405.674 180.368 405.198 170.929C404.721 161.489 392.28 153.536 394.681 146.579C397.081 139.622 406.51 121.906 393.155 111.75C379.799 101.594 358.979 117.16 358.979 117.16L369.175 114.206L377.904 115.587Z" fill="#263238"/>
<path d="M340.598 162.494L334.514 149.909L307.162 166.156L329.731 202.113L343.417 195.339" stroke="#263238" stroke-linecap="round" stroke-linejoin="round"/>
<path d="M315.676 183.942C315.676 183.942 314.199 181.198 316.172 179.686C318.145 178.174 324.92 173.69 324.92 174.791C324.965 175.059 324.946 175.332 324.866 175.592C324.786 175.853 324.645 176.095 324.453 176.303C322.509 178.646 317.853 182.421 318.155 182.727C318.155 182.727 326.65 177.658 327.467 178.139C327.671 178.261 327.554 178.917 326.844 179.555C324.516 181.418 322.059 183.146 319.486 184.729C319.486 184.729 328.448 181.608 329.605 182.107C329.935 182.247 329.867 182.701 328.827 183.269C326.225 184.541 323.548 185.685 320.808 186.695L323.054 190.069C323.054 190.069 318.816 190.733 315.676 183.942Z" fill="white" stroke="#263238" stroke-linecap="round" stroke-linejoin="round"/>
<path d="M364.51 127.403L365.132 133.023" stroke="#263238" stroke-linejoin="round"/>
</svg>
