<svg width="452" height="299" viewBox="0 0 452 299" fill="none" xmlns="http://www.w3.org/2000/svg">
<path d="M380.958 83.7202C380.958 83.7202 319.016 20.7627 238.517 15.901C158.019 11.0392 111.078 62.6407 88.8331 93.4138C66.5886 124.187 11.0891 175.459 17.634 222.408C24.179 269.357 88.3449 304.98 180.264 289.331C272.182 273.681 298.832 267.743 340.712 279.619C382.591 291.495 436.982 273.681 438.066 206.22C439.151 138.76 380.958 83.7202 380.958 83.7202Z" fill="#FFC100"/>
<path opacity="0.7" d="M380.958 83.7202C380.958 83.7202 319.016 20.7627 238.517 15.901C158.019 11.0392 111.078 62.6407 88.8331 93.4138C66.5886 124.187 11.0891 175.459 17.634 222.408C24.179 269.357 88.3449 304.98 180.264 289.331C272.182 273.681 298.832 267.743 340.712 279.619C382.591 291.495 436.982 273.681 438.066 206.22C439.151 138.76 380.958 83.7202 380.958 83.7202Z" fill="white"/>
<path d="M29.4824 273.077H422.373" stroke="#263238" stroke-miterlimit="10"/>
<path d="M46.5981 173.139L54.5473 248.666" stroke="#263238" stroke-width="2" stroke-miterlimit="10"/>
<path d="M53.2637 234.213L49.6658 230.439" stroke="#263238" stroke-width="2" stroke-miterlimit="10"/>
<path d="M50.7566 231.57C50.7493 230.992 50.6176 230.423 50.3702 229.9C50.1228 229.377 49.7655 228.912 49.3222 228.538C48.4001 227.719 43.5366 225.691 43.0726 227.39C42.5724 229.237 47.5504 232.873 50.7566 231.57Z" fill="#FFC100" stroke="#263238" stroke-miterlimit="10"/>
<path d="M50.7567 231.569L46.1282 228.705" stroke="#263238" stroke-width="0.5" stroke-miterlimit="10"/>
<path d="M54.1677 242.806L50.5698 239.033" stroke="#263238" stroke-width="2" stroke-miterlimit="10"/>
<path d="M51.6606 240.163C51.6538 239.585 51.5222 239.016 51.2748 238.493C51.0274 237.97 50.6698 237.505 50.2263 237.131C49.3042 236.312 44.4407 234.279 43.9766 235.977C43.4764 237.831 48.4544 241.46 51.6606 240.163Z" fill="#FFC100" stroke="#263238" stroke-miterlimit="10"/>
<path d="M51.6607 240.163L47.0322 237.298" stroke="#263238" stroke-width="0.5" stroke-miterlimit="10"/>
<path d="M51.0579 213.253L47.46 209.479" stroke="#263238" stroke-width="2" stroke-miterlimit="10"/>
<path d="M48.5509 210.609C48.5437 210.032 48.4125 209.463 48.1662 208.941C47.9199 208.418 47.5642 207.953 47.1226 207.577C46.1945 206.758 41.331 204.725 40.8669 206.429C40.3788 208.277 45.3448 211.907 48.5509 210.609Z" fill="#FFC100" stroke="#263238" stroke-miterlimit="10"/>
<path d="M48.5508 210.61L43.9224 207.745" stroke="#263238" stroke-width="0.5" stroke-miterlimit="10"/>
<path d="M51.9619 221.84L48.364 218.066" stroke="#263238" stroke-width="2" stroke-miterlimit="10"/>
<path d="M49.4548 219.197C49.4476 218.619 49.3158 218.05 49.0684 217.527C48.821 217.004 48.4637 216.54 48.0205 216.165C47.0984 215.346 42.2349 213.319 41.7708 215.017C41.2706 216.865 46.2486 220.501 49.4548 219.197Z" fill="#FFC100" stroke="#263238" stroke-miterlimit="10"/>
<path d="M49.4549 219.197L44.8264 216.333" stroke="#263238" stroke-width="0.5" stroke-miterlimit="10"/>
<path d="M49.5935 199.295L45.9895 195.522" stroke="#263238" stroke-width="2" stroke-miterlimit="10"/>
<path d="M47.0865 196.652C47.0792 196.074 46.9475 195.505 46.7001 194.982C46.4527 194.459 46.0954 193.995 45.6521 193.62C44.73 192.807 39.8605 190.774 39.4025 192.472C38.8962 194.35 43.8803 197.938 47.0865 196.652Z" fill="#FFC100" stroke="#263238" stroke-miterlimit="10"/>
<path d="M47.0864 196.652L42.4519 193.788" stroke="#263238" stroke-width="0.5" stroke-miterlimit="10"/>
<path d="M48.117 185.284L44.519 181.511" stroke="#263238" stroke-width="2" stroke-miterlimit="10"/>
<path d="M45.6098 182.641C45.6026 182.063 45.4709 181.494 45.2235 180.971C44.9761 180.448 44.6187 179.984 44.1755 179.609C43.2534 178.79 38.3899 176.757 37.9258 178.461C37.4256 180.309 42.4037 183.939 45.6098 182.641Z" fill="#FFC100" stroke="#263238" stroke-miterlimit="10"/>
<path d="M45.6099 182.641L40.9814 179.777" stroke="#263238" stroke-width="0.5" stroke-miterlimit="10"/>
<path d="M52.6611 229.129L55.3972 224.698" stroke="#263238" stroke-width="2" stroke-miterlimit="10"/>
<path d="M54.5654 226.044C54.4511 225.477 54.4608 224.893 54.5939 224.331C54.727 223.769 54.9804 223.241 55.3368 222.785C56.066 221.792 60.4052 218.808 61.2128 220.393C62.0746 222.073 57.9704 226.642 54.5654 226.044Z" fill="#FFC100" stroke="#263238" stroke-miterlimit="10"/>
<path d="M54.5654 226.032L58.7359 222.073" stroke="#263238" stroke-width="0.5" stroke-miterlimit="10"/>
<path d="M50.2805 206.525L53.0227 202.094" stroke="#263238" stroke-width="2" stroke-miterlimit="10"/>
<path d="M52.185 203.428C52.0723 202.861 52.0829 202.277 52.2159 201.715C52.3489 201.153 52.6014 200.626 52.9564 200.168C53.6917 199.176 58.0309 196.192 58.8324 197.776C59.7123 199.469 55.5961 204.037 52.185 203.428Z" fill="#FFC100" stroke="#263238" stroke-miterlimit="10"/>
<path d="M52.1851 203.428L56.3555 199.469" stroke="#263238" stroke-width="0.5" stroke-miterlimit="10"/>
<path d="M49.2378 196.592L51.9739 192.161" stroke="#263238" stroke-width="2" stroke-miterlimit="10"/>
<path d="M51.1423 193.489C51.028 192.922 51.0377 192.338 51.1708 191.776C51.3039 191.214 51.5573 190.686 51.9137 190.229C52.6489 189.243 56.9821 186.259 57.7897 187.837C58.6636 189.53 54.5473 194.105 51.1423 193.489Z" fill="#FFC100" stroke="#263238" stroke-miterlimit="10"/>
<path d="M51.1423 193.489L55.3128 189.536" stroke="#263238" stroke-width="0.5" stroke-miterlimit="10"/>
<path d="M47.707 182.031L50.4431 177.6" stroke="#263238" stroke-width="2" stroke-miterlimit="10"/>
<path d="M49.6115 178.928C49.4972 178.361 49.507 177.777 49.6401 177.215C49.7732 176.652 50.0265 176.125 50.3829 175.668C51.1122 174.676 55.4513 171.692 56.2589 173.276C57.1328 174.969 53.0347 179.543 49.6115 178.928Z" fill="#FFC100" stroke="#263238" stroke-miterlimit="10"/>
<path d="M49.6116 178.927L53.782 174.975" stroke="#263238" stroke-width="0.5" stroke-miterlimit="10"/>
<path d="M46.532 172.714C46.4193 172.148 46.4298 171.564 46.5628 171.002C46.6959 170.44 46.9483 169.913 47.3034 169.455C48.0386 168.468 52.3778 165.484 53.1854 167.063C54.0593 168.755 49.943 173.33 46.532 172.714Z" fill="#FFC100" stroke="#263238" stroke-miterlimit="10"/>
<path d="M46.532 172.715L50.7024 168.762" stroke="#263238" stroke-width="0.5" stroke-miterlimit="10"/>
<path d="M46.7791 172.888C46.1989 172.941 45.6139 172.869 45.0639 172.679C44.5139 172.488 44.0116 172.182 43.591 171.782C42.675 170.956 40.1377 166.364 41.783 165.73C43.5971 165.048 47.7494 169.587 46.7791 172.888Z" fill="#FFC100" stroke="#263238" stroke-miterlimit="10"/>
<path d="M46.7789 172.888L43.2473 168.355" stroke="#263238" stroke-width="0.5" stroke-miterlimit="10"/>
<path d="M67.5531 183.538L59.6521 259.077" stroke="#263238" stroke-width="2" stroke-miterlimit="10"/>
<path d="M61.3996 244.671L58.6575 240.24" stroke="#263238" stroke-width="2" stroke-miterlimit="10"/>
<path d="M59.4954 241.592C59.6081 241.026 59.5975 240.442 59.4645 239.88C59.3314 239.318 59.079 238.79 58.7239 238.333C57.9887 237.346 53.6495 234.362 52.8419 235.941C51.9681 237.615 56.0903 242.19 59.4954 241.592Z" fill="#FFC100" stroke="#263238" stroke-miterlimit="10"/>
<path d="M59.4952 241.568L55.5598 237.818" stroke="#263238" stroke-width="0.5" stroke-miterlimit="10"/>
<path d="M63.5934 223.706L60.8513 219.274" stroke="#263238" stroke-width="2" stroke-miterlimit="10"/>
<path d="M61.6891 220.608C61.8018 220.042 61.7913 219.458 61.6582 218.896C61.5252 218.334 61.2727 217.807 60.9177 217.349C60.1824 216.357 55.8432 213.379 55.0357 214.957C54.1618 216.65 58.278 221.224 61.6891 220.608Z" fill="#FFC100" stroke="#263238" stroke-miterlimit="10"/>
<path d="M61.689 220.608L57.7476 216.859" stroke="#263238" stroke-width="0.5" stroke-miterlimit="10"/>
<path d="M62.6955 232.299L59.9534 227.868" stroke="#263238" stroke-width="2" stroke-miterlimit="10"/>
<path d="M60.7909 229.196C60.9036 228.629 60.8931 228.045 60.76 227.483C60.627 226.921 60.3745 226.394 60.0195 225.937C59.2842 224.95 54.945 221.966 54.1375 223.545C53.2636 225.243 57.3798 229.812 60.7909 229.196Z" fill="#FFC100" stroke="#263238" stroke-miterlimit="10"/>
<path d="M60.7911 229.195L56.8496 225.446" stroke="#263238" stroke-width="0.5" stroke-miterlimit="10"/>
<path d="M65.0519 209.748L62.3098 205.323" stroke="#263238" stroke-width="2" stroke-miterlimit="10"/>
<path d="M63.1475 206.651C63.2601 206.084 63.2496 205.501 63.1166 204.939C62.9836 204.377 62.7311 203.849 62.376 203.392C61.6408 202.399 57.3016 199.421 56.494 201C55.6202 202.722 59.7424 207.267 63.1475 206.651Z" fill="#FFC100" stroke="#263238" stroke-miterlimit="10"/>
<path d="M63.1476 206.651L59.2122 202.901" stroke="#263238" stroke-width="0.5" stroke-miterlimit="10"/>
<path d="M66.5164 195.737L63.7803 191.306" stroke="#263238" stroke-width="2" stroke-miterlimit="10"/>
<path d="M64.6118 192.634C64.7261 192.067 64.7164 191.483 64.5833 190.921C64.4502 190.359 64.1968 189.831 63.8404 189.375C63.1052 188.388 58.7659 185.404 57.9584 186.983C57.0845 188.681 61.2067 193.25 64.6118 192.634Z" fill="#FFC100" stroke="#263238" stroke-miterlimit="10"/>
<path d="M64.6119 192.634L60.6765 188.884" stroke="#263238" stroke-width="0.5" stroke-miterlimit="10"/>
<path d="M61.8638 239.571L65.4617 235.797" stroke="#263238" stroke-width="2" stroke-miterlimit="10"/>
<path d="M64.3708 236.927C64.3762 236.35 64.5065 235.781 64.7529 235.257C64.9993 234.734 65.3561 234.27 65.7992 233.896C66.7273 233.076 71.5908 231.043 72.0488 232.741C72.5551 234.589 67.577 238.225 64.3708 236.927Z" fill="#FFC100" stroke="#263238" stroke-miterlimit="10"/>
<path d="M64.3708 236.928L69.2705 233.908" stroke="#263238" stroke-width="0.5" stroke-miterlimit="10"/>
<path d="M64.2263 216.966L67.8242 213.187" stroke="#263238" stroke-width="2" stroke-miterlimit="10"/>
<path d="M66.7334 214.317C66.7406 213.74 66.8724 213.17 67.1198 212.647C67.3672 212.124 67.7245 211.66 68.1677 211.285C69.0898 210.466 73.9533 208.433 74.4174 210.137C74.9176 211.985 69.9396 215.615 66.7334 214.317Z" fill="#FFC100" stroke="#263238" stroke-miterlimit="10"/>
<path d="M66.7334 214.317L71.6331 211.303" stroke="#263238" stroke-width="0.5" stroke-miterlimit="10"/>
<path d="M65.2688 207.028L68.8667 203.254" stroke="#263238" stroke-width="2" stroke-miterlimit="10"/>
<path d="M67.77 204.385C67.7773 203.807 67.909 203.237 68.1564 202.715C68.4038 202.192 68.7611 201.727 69.2044 201.353C70.1264 200.533 74.99 198.5 75.454 200.199C75.9362 202.046 70.9822 205.712 67.77 204.385Z" fill="#FFC100" stroke="#263238" stroke-miterlimit="10"/>
<path d="M67.77 204.384L72.6757 201.364" stroke="#263238" stroke-width="0.5" stroke-miterlimit="10"/>
<path d="M66.7876 192.466L70.3915 188.687" stroke="#263238" stroke-width="2" stroke-miterlimit="10"/>
<path d="M69.3066 189.823C69.3135 189.245 69.4451 188.676 69.6925 188.153C69.9399 187.63 70.2974 187.166 70.741 186.791C71.6631 185.966 76.5266 183.933 76.9906 185.637C77.4788 187.485 72.5008 191.121 69.3066 189.823Z" fill="#FFC100" stroke="#263238" stroke-miterlimit="10"/>
<path d="M69.2947 189.823L74.2004 186.803" stroke="#263238" stroke-width="0.5" stroke-miterlimit="10"/>
<path d="M67.5771 183.114C67.5844 182.536 67.7156 181.968 67.9619 181.445C68.2082 180.922 68.5639 180.457 69.0055 180.082C69.9336 179.262 74.7971 177.229 75.2551 178.928C75.7614 180.775 70.7833 184.411 67.5771 183.114Z" fill="#FFC100" stroke="#263238" stroke-miterlimit="10"/>
<path d="M67.5771 183.114L72.4768 180.094" stroke="#263238" stroke-width="0.5" stroke-miterlimit="10"/>
<path d="M67.776 183.329C67.1984 183.262 66.6419 183.073 66.144 182.775C65.646 182.477 65.2182 182.076 64.8892 181.6C64.166 180.602 62.6352 175.591 64.389 175.31C66.2934 175.011 69.4152 180.303 67.776 183.329Z" fill="#FFC100" stroke="#263238" stroke-miterlimit="10"/>
<path d="M67.7758 183.329L65.2627 178.18" stroke="#263238" stroke-width="0.5" stroke-miterlimit="10"/>
<path d="M58.501 152.777V248.301" stroke="#263238" stroke-width="2" stroke-miterlimit="10"/>
<path d="M58.5792 233.938L55.3911 229.812" stroke="#263238" stroke-width="2" stroke-miterlimit="10"/>
<path d="M56.3615 231.049C56.4148 230.474 56.3435 229.894 56.1522 229.348C55.961 228.803 55.6542 228.304 55.2526 227.886C54.4209 226.977 49.7925 224.459 49.1536 226.092C48.4606 227.886 53.0348 232.024 56.3615 231.049Z" fill="#FFC100" stroke="#263238" stroke-miterlimit="10"/>
<path d="M56.3613 231.049L52.0522 227.724" stroke="#263238" stroke-width="0.5" stroke-miterlimit="10"/>
<path d="M58.5792 215.985L55.3911 211.865" stroke="#263238" stroke-width="2" stroke-miterlimit="10"/>
<path d="M56.3615 213.097C56.4148 212.523 56.3433 211.944 56.152 211.399C55.9608 210.855 55.6541 210.357 55.2526 209.94C54.4209 209.025 49.7925 206.507 49.1536 208.146C48.4606 209.94 53.0348 214.084 56.3615 213.097Z" fill="#FFC100" stroke="#263238" stroke-miterlimit="10"/>
<path d="M56.3613 213.097L52.0522 209.772" stroke="#263238" stroke-width="0.5" stroke-miterlimit="10"/>
<path d="M58.5792 194.912L55.3911 190.786" stroke="#263238" stroke-width="2" stroke-miterlimit="10"/>
<path d="M56.3615 192.024C56.4148 191.449 56.3435 190.869 56.1522 190.323C55.961 189.777 55.6542 189.279 55.2526 188.86C54.4209 187.951 49.7925 185.434 49.1536 187.066C48.4606 188.86 53.0348 192.987 56.3615 192.024Z" fill="#FFC100" stroke="#263238" stroke-miterlimit="10"/>
<path d="M56.3613 192.024L52.0522 188.699" stroke="#263238" stroke-width="0.5" stroke-miterlimit="10"/>
<path d="M58.5792 180.883L55.3911 176.757" stroke="#263238" stroke-width="2" stroke-miterlimit="10"/>
<path d="M56.3615 177.995C56.4148 177.419 56.3435 176.839 56.1522 176.294C55.961 175.748 55.6542 175.249 55.2526 174.831C54.4209 173.922 49.7925 171.399 49.1536 173.037C48.4606 174.831 53.0348 178.957 56.3615 177.995Z" fill="#FFC100" stroke="#263238" stroke-miterlimit="10"/>
<path d="M56.3613 177.995L52.0522 174.67" stroke="#263238" stroke-width="0.5" stroke-miterlimit="10"/>
<path d="M58.5792 166.788L55.3911 162.668" stroke="#263238" stroke-width="2" stroke-miterlimit="10"/>
<path d="M56.3615 163.906C56.4148 163.33 56.3435 162.751 56.1522 162.205C55.961 161.659 55.6542 161.161 55.2526 160.742C54.4209 159.833 49.7925 157.31 49.1536 158.948C48.4606 160.742 53.0348 164.868 56.3615 163.906Z" fill="#FFC100" stroke="#263238" stroke-miterlimit="10"/>
<path d="M56.3613 163.906L52.0522 160.581" stroke="#263238" stroke-width="0.5" stroke-miterlimit="10"/>
<path d="M58.5068 239.421L61.6949 235.295" stroke="#263238" stroke-width="2" stroke-miterlimit="10"/>
<path d="M60.7247 236.533C60.6713 235.957 60.7427 235.377 60.934 234.832C61.1252 234.286 61.432 233.787 61.8336 233.369C62.6653 232.46 67.2937 229.937 67.9326 231.575C68.6256 233.369 64.0514 237.495 60.7247 236.533Z" fill="#FFC100" stroke="#263238" stroke-miterlimit="10"/>
<path d="M60.7246 236.533L65.2868 233.028" stroke="#263238" stroke-width="0.5" stroke-miterlimit="10"/>
<path d="M58.5068 210.873L61.6949 206.747" stroke="#263238" stroke-width="2" stroke-miterlimit="10"/>
<path d="M60.7247 207.984C60.6713 207.409 60.7427 206.829 60.934 206.283C61.1252 205.738 61.432 205.239 61.8336 204.821C62.6653 203.912 67.2937 201.388 67.9326 203.027C68.6256 204.821 64.0514 208.947 60.7247 207.984Z" fill="#FFC100" stroke="#263238" stroke-miterlimit="10"/>
<path d="M60.7246 207.984L65.2868 204.48" stroke="#263238" stroke-width="0.5" stroke-miterlimit="10"/>
<path d="M58.5068 196.778L61.6949 192.652" stroke="#263238" stroke-width="2" stroke-miterlimit="10"/>
<path d="M60.7247 193.89C60.6713 193.314 60.7427 192.734 60.934 192.189C61.1252 191.643 61.432 191.144 61.8336 190.726C62.6653 189.817 67.2937 187.3 67.9326 188.932C68.6256 190.726 64.0514 194.852 60.7247 193.89Z" fill="#FFC100" stroke="#263238" stroke-miterlimit="10"/>
<path d="M60.7246 193.89L65.2868 190.385" stroke="#263238" stroke-width="0.5" stroke-miterlimit="10"/>
<path d="M58.5068 178.156L61.6949 174.03" stroke="#263238" stroke-width="2" stroke-miterlimit="10"/>
<path d="M60.7247 175.268C60.6713 174.692 60.7427 174.112 60.934 173.567C61.1252 173.021 61.432 172.522 61.8336 172.104C62.6653 171.195 67.2937 168.672 67.9326 170.31C68.6256 172.104 64.0514 176.23 60.7247 175.268Z" fill="#FFC100" stroke="#263238" stroke-miterlimit="10"/>
<path d="M60.7246 175.268L65.2868 171.764" stroke="#263238" stroke-width="0.5" stroke-miterlimit="10"/>
<path d="M58.5068 163.511L61.6949 159.385" stroke="#263238" stroke-width="2" stroke-miterlimit="10"/>
<path d="M60.7247 160.623C60.6713 160.048 60.7427 159.468 60.934 158.922C61.1252 158.377 61.432 157.878 61.8336 157.46C62.6653 156.551 67.2937 154.033 67.9326 155.666C68.6256 157.46 64.0514 161.586 60.7247 160.623Z" fill="#FFC100" stroke="#263238" stroke-miterlimit="10"/>
<path d="M60.7246 160.623L65.2868 157.119" stroke="#263238" stroke-width="0.5" stroke-miterlimit="10"/>
<path d="M58.3202 154.128C58.2665 153.554 58.3371 152.974 58.5273 152.428C58.7175 151.883 59.0229 151.384 59.4231 150.965C60.2608 150.056 64.8832 147.538 65.5221 149.171C66.2151 150.965 61.6409 155.091 58.3202 154.128Z" fill="#FFC100" stroke="#263238" stroke-miterlimit="10"/>
<path d="M58.3201 154.128L62.8762 150.624" stroke="#263238" stroke-width="0.5" stroke-miterlimit="10"/>
<path d="M58.5371 154.326C57.9553 154.318 57.3819 154.187 56.8558 153.94C56.3297 153.693 55.8631 153.338 55.4876 152.897C54.6619 151.982 52.6189 147.15 54.3365 146.695C56.1987 146.199 59.8509 151.144 58.5371 154.326Z" fill="#FFC100" stroke="#263238" stroke-miterlimit="10"/>
<path d="M58.537 154.326L55.5056 149.458" stroke="#263238" stroke-width="0.5" stroke-miterlimit="10"/>
<path d="M62.4604 273.076H52.2694L50.9917 247.524H63.7381L62.4604 273.076Z" fill="#263238" stroke="#263238" stroke-miterlimit="10"/>
<path d="M388.184 173.139L396.127 248.666" stroke="#263238" stroke-width="2" stroke-miterlimit="10"/>
<path d="M394.849 234.213L391.245 230.439" stroke="#263238" stroke-width="2" stroke-miterlimit="10"/>
<path d="M392.336 231.57C392.329 230.992 392.197 230.423 391.95 229.9C391.702 229.377 391.345 228.912 390.902 228.538C389.98 227.719 385.11 225.691 384.652 227.39C384.152 229.237 389.136 232.873 392.336 231.57Z" fill="#FFC100" stroke="#263238" stroke-miterlimit="10"/>
<path d="M392.342 231.569L387.708 228.705" stroke="#263238" stroke-width="0.5" stroke-miterlimit="10"/>
<path d="M395.753 242.806L392.149 239.033" stroke="#263238" stroke-width="2" stroke-miterlimit="10"/>
<path d="M393.246 240.163C393.239 239.585 393.108 239.016 392.86 238.493C392.613 237.97 392.255 237.505 391.812 237.131C390.884 236.312 386.02 234.279 385.562 235.977C385.056 237.831 390.04 241.46 393.246 240.163Z" fill="#FFC100" stroke="#263238" stroke-miterlimit="10"/>
<path d="M393.246 240.163L388.612 237.298" stroke="#263238" stroke-width="0.5" stroke-miterlimit="10"/>
<path d="M392.643 213.253L389.04 209.479" stroke="#263238" stroke-width="2" stroke-miterlimit="10"/>
<path d="M390.136 210.609C390.129 210.032 389.997 209.462 389.75 208.939C389.503 208.416 389.145 207.952 388.702 207.577C387.78 206.758 382.91 204.725 382.452 206.429C381.952 208.277 386.912 211.907 390.136 210.609Z" fill="#FFC100" stroke="#263238" stroke-miterlimit="10"/>
<path d="M390.136 210.61L385.502 207.745" stroke="#263238" stroke-width="0.5" stroke-miterlimit="10"/>
<path d="M393.547 221.84L389.943 218.066" stroke="#263238" stroke-width="2" stroke-miterlimit="10"/>
<path d="M391.04 219.197C391.033 218.619 390.901 218.05 390.654 217.527C390.407 217.004 390.049 216.54 389.606 216.165C388.684 215.346 383.814 213.319 383.356 215.017C382.85 216.865 387.834 220.501 391.04 219.197Z" fill="#FFC100" stroke="#263238" stroke-miterlimit="10"/>
<path d="M391.04 219.197L386.406 216.333" stroke="#263238" stroke-width="0.5" stroke-miterlimit="10"/>
<path d="M391.173 199.295L387.575 195.522" stroke="#263238" stroke-width="2" stroke-miterlimit="10"/>
<path d="M388.666 196.652C388.658 196.075 388.527 195.506 388.281 194.983C388.035 194.461 387.679 193.996 387.237 193.62C386.309 192.807 381.446 190.774 380.982 192.472C380.482 194.35 385.46 197.938 388.666 196.652Z" fill="#FFC100" stroke="#263238" stroke-miterlimit="10"/>
<path d="M388.666 196.652L384.037 193.788" stroke="#263238" stroke-width="0.5" stroke-miterlimit="10"/>
<path d="M389.702 185.284L386.098 181.511" stroke="#263238" stroke-width="2" stroke-miterlimit="10"/>
<path d="M387.195 182.641C387.188 182.063 387.056 181.494 386.809 180.971C386.562 180.448 386.204 179.984 385.761 179.609C384.839 178.79 379.969 176.757 379.511 178.461C379.005 180.309 383.989 183.939 387.195 182.641Z" fill="#FFC100" stroke="#263238" stroke-miterlimit="10"/>
<path d="M387.195 182.641L382.561 179.777" stroke="#263238" stroke-width="0.5" stroke-miterlimit="10"/>
<path d="M394.24 229.129L396.983 224.698" stroke="#263238" stroke-width="2" stroke-miterlimit="10"/>
<path d="M396.145 226.044C396.032 225.477 396.043 224.894 396.176 224.332C396.309 223.769 396.561 223.242 396.916 222.785C397.651 221.792 401.991 218.808 402.792 220.393C403.672 222.073 399.568 226.642 396.145 226.044Z" fill="#FFC100" stroke="#263238" stroke-miterlimit="10"/>
<path d="M396.145 226.032L400.315 222.073" stroke="#263238" stroke-width="0.5" stroke-miterlimit="10"/>
<path d="M391.866 206.525L394.602 202.094" stroke="#263238" stroke-width="2" stroke-miterlimit="10"/>
<path d="M393.77 203.428C393.656 202.861 393.666 202.277 393.799 201.715C393.932 201.152 394.185 200.625 394.542 200.168C395.271 199.176 399.61 196.192 400.418 197.776C401.292 199.469 397.157 204.037 393.77 203.428Z" fill="#FFC100" stroke="#263238" stroke-miterlimit="10"/>
<path d="M393.771 203.428L397.941 199.469" stroke="#263238" stroke-width="0.5" stroke-miterlimit="10"/>
<path d="M390.817 196.592L393.56 192.161" stroke="#263238" stroke-width="2" stroke-miterlimit="10"/>
<path d="M392.722 193.489C392.609 192.922 392.619 192.338 392.753 191.776C392.886 191.214 393.138 190.687 393.493 190.229C394.228 189.243 398.568 186.259 399.369 187.837C400.249 189.53 396.133 194.105 392.722 193.489Z" fill="#FFC100" stroke="#263238" stroke-miterlimit="10"/>
<path d="M392.722 193.489L396.892 189.536" stroke="#263238" stroke-width="0.5" stroke-miterlimit="10"/>
<path d="M389.287 182.031L392.029 177.6" stroke="#263238" stroke-width="2" stroke-miterlimit="10"/>
<path d="M391.191 178.928C391.078 178.361 391.089 177.777 391.222 177.215C391.355 176.653 391.607 176.126 391.962 175.668C392.698 174.676 397.037 171.692 397.838 173.276C398.718 174.969 394.602 179.543 391.191 178.928Z" fill="#FFC100" stroke="#263238" stroke-miterlimit="10"/>
<path d="M391.191 178.927L395.361 174.975" stroke="#263238" stroke-width="0.5" stroke-miterlimit="10"/>
<path d="M388.117 172.714C388.005 172.148 388.015 171.564 388.148 171.002C388.281 170.44 388.534 169.913 388.889 169.455C389.624 168.468 393.963 165.484 394.765 167.063C395.645 168.755 391.529 173.33 388.117 172.714Z" fill="#FFC100" stroke="#263238" stroke-miterlimit="10"/>
<path d="M388.117 172.715L392.288 168.762" stroke="#263238" stroke-width="0.5" stroke-miterlimit="10"/>
<path d="M388.358 172.888C387.778 172.941 387.193 172.869 386.643 172.679C386.093 172.488 385.591 172.182 385.17 171.782C384.254 170.956 381.723 166.364 383.362 165.73C385.182 165.048 389.323 169.587 388.358 172.888Z" fill="#FFC100" stroke="#263238" stroke-miterlimit="10"/>
<path d="M388.358 172.888L384.833 168.355" stroke="#263238" stroke-width="0.5" stroke-miterlimit="10"/>
<path d="M409.139 183.538L401.238 259.077" stroke="#263238" stroke-width="2" stroke-miterlimit="10"/>
<path d="M402.985 244.671L400.243 240.24" stroke="#263238" stroke-width="2" stroke-miterlimit="10"/>
<path d="M401.081 241.592C401.193 241.025 401.182 240.441 401.048 239.879C400.914 239.317 400.66 238.79 400.303 238.333C399.568 237.346 395.229 234.362 394.427 235.941C393.541 237.615 397.67 242.19 401.081 241.592Z" fill="#FFC100" stroke="#263238" stroke-miterlimit="10"/>
<path d="M401.081 241.568L397.139 237.818" stroke="#263238" stroke-width="0.5" stroke-miterlimit="10"/>
<path d="M405.179 223.706L402.437 219.274" stroke="#263238" stroke-width="2" stroke-miterlimit="10"/>
<path d="M403.268 220.608C403.383 220.042 403.373 219.458 403.24 218.896C403.107 218.333 402.853 217.806 402.497 217.349C401.762 216.357 397.423 213.379 396.621 214.957C395.741 216.65 399.863 221.224 403.268 220.608Z" fill="#FFC100" stroke="#263238" stroke-miterlimit="10"/>
<path d="M403.268 220.608L399.333 216.859" stroke="#263238" stroke-width="0.5" stroke-miterlimit="10"/>
<path d="M404.281 232.299L401.539 227.868" stroke="#263238" stroke-width="2" stroke-miterlimit="10"/>
<path d="M402.371 229.196C402.485 228.629 402.475 228.045 402.342 227.483C402.209 226.921 401.956 226.393 401.599 225.937C400.864 224.95 396.525 221.966 395.723 223.545C394.843 225.243 398.965 229.812 402.371 229.196Z" fill="#FFC100" stroke="#263238" stroke-miterlimit="10"/>
<path d="M402.37 229.195L398.435 225.446" stroke="#263238" stroke-width="0.5" stroke-miterlimit="10"/>
<path d="M406.637 209.748L403.895 205.323" stroke="#263238" stroke-width="2" stroke-miterlimit="10"/>
<path d="M404.733 206.651C404.845 206.084 404.834 205.5 404.7 204.938C404.566 204.376 404.312 203.848 403.955 203.392C403.22 202.399 398.881 199.421 398.079 201C397.205 202.722 401.322 207.267 404.733 206.651Z" fill="#FFC100" stroke="#263238" stroke-miterlimit="10"/>
<path d="M404.733 206.651L400.792 202.901" stroke="#263238" stroke-width="0.5" stroke-miterlimit="10"/>
<path d="M408.102 195.737L405.36 191.306" stroke="#263238" stroke-width="2" stroke-miterlimit="10"/>
<path d="M406.197 192.634C406.31 192.067 406.298 191.483 406.164 190.921C406.03 190.358 405.776 189.831 405.42 189.375C404.691 188.388 400.352 185.404 399.544 186.983C398.67 188.681 402.786 193.25 406.197 192.634Z" fill="#FFC100" stroke="#263238" stroke-miterlimit="10"/>
<path d="M406.197 192.634L402.256 188.884" stroke="#263238" stroke-width="0.5" stroke-miterlimit="10"/>
<path d="M403.449 239.571L407.047 235.797" stroke="#263238" stroke-width="2" stroke-miterlimit="10"/>
<path d="M405.95 236.927C405.957 236.35 406.089 235.78 406.337 235.257C406.584 234.735 406.941 234.27 407.385 233.896C408.307 233.076 413.17 231.043 413.634 232.741C414.134 234.589 409.162 238.225 405.95 236.927Z" fill="#FFC100" stroke="#263238" stroke-miterlimit="10"/>
<path d="M405.95 236.928L410.856 233.908" stroke="#263238" stroke-width="0.5" stroke-miterlimit="10"/>
<path d="M405.812 216.966L409.409 213.187" stroke="#263238" stroke-width="2" stroke-miterlimit="10"/>
<path d="M408.319 214.317C408.324 213.74 408.454 213.17 408.701 212.647C408.947 212.124 409.304 211.66 409.747 211.285C410.669 210.466 415.533 208.433 415.997 210.137C416.503 211.985 411.525 215.615 408.319 214.317Z" fill="#FFC100" stroke="#263238" stroke-miterlimit="10"/>
<path d="M408.319 214.317L413.219 211.303" stroke="#263238" stroke-width="0.5" stroke-miterlimit="10"/>
<path d="M406.848 207.028L410.446 203.254" stroke="#263238" stroke-width="2" stroke-miterlimit="10"/>
<path d="M409.355 204.385C409.363 203.807 409.494 203.237 409.742 202.715C409.989 202.192 410.347 201.727 410.79 201.353C411.712 200.533 416.575 198.5 417.039 200.199C417.54 202.046 412.562 205.712 409.355 204.385Z" fill="#FFC100" stroke="#263238" stroke-miterlimit="10"/>
<path d="M409.355 204.384L414.255 201.364" stroke="#263238" stroke-width="0.5" stroke-miterlimit="10"/>
<path d="M408.373 192.466L411.971 188.687" stroke="#263238" stroke-width="2" stroke-miterlimit="10"/>
<path d="M410.88 189.823C410.885 189.246 411.015 188.676 411.262 188.153C411.508 187.63 411.865 187.165 412.308 186.791C413.237 185.966 418.1 183.933 418.558 185.637C419.064 187.485 414.086 191.121 410.88 189.823Z" fill="#FFC100" stroke="#263238" stroke-miterlimit="10"/>
<path d="M410.88 189.823L415.78 186.803" stroke="#263238" stroke-width="0.5" stroke-miterlimit="10"/>
<path d="M409.156 183.114C409.164 182.536 409.296 181.966 409.543 181.444C409.79 180.921 410.148 180.456 410.591 180.082C411.513 179.262 416.376 177.229 416.84 178.928C417.347 180.775 412.369 184.411 409.156 183.114Z" fill="#FFC100" stroke="#263238" stroke-miterlimit="10"/>
<path d="M409.156 183.114L414.062 180.094" stroke="#263238" stroke-width="0.5" stroke-miterlimit="10"/>
<path d="M409.361 183.329C408.783 183.262 408.226 183.073 407.727 182.775C407.228 182.477 406.799 182.076 406.469 181.6C405.745 180.602 404.221 175.591 405.968 175.31C407.879 175.011 411.019 180.303 409.361 183.329Z" fill="#FFC100" stroke="#263238" stroke-miterlimit="10"/>
<path d="M409.361 183.329L406.848 178.18" stroke="#263238" stroke-width="0.5" stroke-miterlimit="10"/>
<path d="M400.086 152.777V248.301" stroke="#263238" stroke-width="2" stroke-miterlimit="10"/>
<path d="M400.159 233.938L396.977 229.812" stroke="#263238" stroke-width="2" stroke-miterlimit="10"/>
<path d="M397.947 231.049C398 230.474 397.929 229.894 397.737 229.348C397.546 228.803 397.239 228.304 396.838 227.886C396 226.977 391.378 224.459 390.739 226.092C390.046 227.886 394.62 232.024 397.947 231.049Z" fill="#FFC100" stroke="#263238" stroke-miterlimit="10"/>
<path d="M397.947 231.049L393.638 227.724" stroke="#263238" stroke-width="0.5" stroke-miterlimit="10"/>
<path d="M400.159 215.985L396.977 211.865" stroke="#263238" stroke-width="2" stroke-miterlimit="10"/>
<path d="M397.947 213.097C398 212.523 397.929 211.944 397.737 211.399C397.546 210.855 397.239 210.357 396.838 209.94C396 209.025 391.378 206.507 390.739 208.146C390.046 209.94 394.62 214.084 397.947 213.097Z" fill="#FFC100" stroke="#263238" stroke-miterlimit="10"/>
<path d="M397.947 213.097L393.638 209.772" stroke="#263238" stroke-width="0.5" stroke-miterlimit="10"/>
<path d="M400.159 194.912L396.977 190.786" stroke="#263238" stroke-width="2" stroke-miterlimit="10"/>
<path d="M397.947 192.024C398 191.449 397.929 190.869 397.737 190.323C397.546 189.777 397.239 189.279 396.838 188.86C396 187.951 391.378 185.434 390.739 187.066C390.046 188.86 394.62 192.987 397.947 192.024Z" fill="#FFC100" stroke="#263238" stroke-miterlimit="10"/>
<path d="M397.947 192.024L393.638 188.699" stroke="#263238" stroke-width="0.5" stroke-miterlimit="10"/>
<path d="M400.159 180.883L396.977 176.757" stroke="#263238" stroke-width="2" stroke-miterlimit="10"/>
<path d="M397.947 177.995C398 177.419 397.929 176.839 397.737 176.294C397.546 175.748 397.239 175.249 396.838 174.831C396 173.922 391.378 171.399 390.739 173.037C390.046 174.831 394.62 178.957 397.947 177.995Z" fill="#FFC100" stroke="#263238" stroke-miterlimit="10"/>
<path d="M397.947 177.995L393.638 174.67" stroke="#263238" stroke-width="0.5" stroke-miterlimit="10"/>
<path d="M400.159 166.788L396.977 162.668" stroke="#263238" stroke-width="2" stroke-miterlimit="10"/>
<path d="M397.947 163.906C398 163.33 397.929 162.751 397.737 162.205C397.546 161.659 397.239 161.161 396.838 160.742C396 159.833 391.378 157.31 390.739 158.948C390.046 160.742 394.62 164.868 397.947 163.906Z" fill="#FFC100" stroke="#263238" stroke-miterlimit="10"/>
<path d="M397.947 163.906L393.638 160.581" stroke="#263238" stroke-width="0.5" stroke-miterlimit="10"/>
<path d="M400.092 239.421L403.28 235.295" stroke="#263238" stroke-width="2" stroke-miterlimit="10"/>
<path d="M402.31 236.533C402.257 235.957 402.328 235.377 402.519 234.832C402.711 234.286 403.017 233.787 403.419 233.369C404.251 232.46 408.879 229.937 409.512 231.575C410.205 233.369 405.631 237.495 402.31 236.533Z" fill="#FFC100" stroke="#263238" stroke-miterlimit="10"/>
<path d="M402.31 236.533L406.872 233.028" stroke="#263238" stroke-width="0.5" stroke-miterlimit="10"/>
<path d="M400.092 210.873L403.28 206.747" stroke="#263238" stroke-width="2" stroke-miterlimit="10"/>
<path d="M402.31 207.984C402.257 207.409 402.328 206.829 402.519 206.283C402.711 205.738 403.017 205.239 403.419 204.821C404.251 203.912 408.879 201.388 409.512 203.027C410.205 204.821 405.631 208.947 402.31 207.984Z" fill="#FFC100" stroke="#263238" stroke-miterlimit="10"/>
<path d="M402.31 207.984L406.872 204.48" stroke="#263238" stroke-width="0.5" stroke-miterlimit="10"/>
<path d="M400.092 196.778L403.28 192.652" stroke="#263238" stroke-width="2" stroke-miterlimit="10"/>
<path d="M402.31 193.89C402.257 193.314 402.328 192.734 402.519 192.189C402.711 191.643 403.017 191.144 403.419 190.726C404.251 189.817 408.879 187.3 409.512 188.932C410.205 190.726 405.631 194.852 402.31 193.89Z" fill="#FFC100" stroke="#263238" stroke-miterlimit="10"/>
<path d="M402.31 193.89L406.872 190.385" stroke="#263238" stroke-width="0.5" stroke-miterlimit="10"/>
<path d="M400.092 178.156L403.28 174.03" stroke="#263238" stroke-width="2" stroke-miterlimit="10"/>
<path d="M402.31 175.268C402.257 174.692 402.328 174.112 402.519 173.567C402.711 173.021 403.017 172.522 403.419 172.104C404.251 171.195 408.879 168.672 409.512 170.31C410.205 172.104 405.631 176.23 402.31 175.268Z" fill="#FFC100" stroke="#263238" stroke-miterlimit="10"/>
<path d="M402.31 175.268L406.872 171.764" stroke="#263238" stroke-width="0.5" stroke-miterlimit="10"/>
<path d="M400.092 163.511L403.28 159.385" stroke="#263238" stroke-width="2" stroke-miterlimit="10"/>
<path d="M402.31 160.623C402.257 160.048 402.328 159.468 402.519 158.922C402.711 158.377 403.017 157.878 403.419 157.46C404.251 156.551 408.879 154.033 409.512 155.666C410.205 157.46 405.631 161.586 402.31 160.623Z" fill="#FFC100" stroke="#263238" stroke-miterlimit="10"/>
<path d="M402.31 160.623L406.872 157.119" stroke="#263238" stroke-width="0.5" stroke-miterlimit="10"/>
<path d="M399.899 154.128C399.846 153.553 399.918 152.973 400.109 152.428C400.3 151.882 400.607 151.383 401.008 150.965C401.84 150.056 406.469 147.538 407.107 149.171C407.8 150.965 403.226 155.091 399.899 154.128Z" fill="#FFC100" stroke="#263238" stroke-miterlimit="10"/>
<path d="M399.899 154.128L404.462 150.624" stroke="#263238" stroke-width="0.5" stroke-miterlimit="10"/>
<path d="M400.122 154.326C399.54 154.318 398.966 154.187 398.438 153.94C397.911 153.694 397.444 153.338 397.067 152.897C396.247 151.982 394.204 147.15 395.916 146.695C397.76 146.199 401.436 151.144 400.122 154.326Z" fill="#FFC100" stroke="#263238" stroke-miterlimit="10"/>
<path d="M400.122 154.326L397.091 149.458" stroke="#263238" stroke-width="0.5" stroke-miterlimit="10"/>
<path d="M404.046 273.076H393.849L392.577 247.524H405.317L404.046 273.076Z" fill="#263238" stroke="#263238" stroke-miterlimit="10"/>
<path d="M408.005 71.1621C408.007 67.7644 407.184 64.4163 405.605 61.4012C404.026 58.3861 401.739 55.7928 398.936 53.8407C396.133 51.8886 392.898 50.6352 389.504 50.1866C386.109 49.738 382.656 50.1074 379.436 51.2635C376.216 52.4196 373.324 54.3284 371.005 56.8284C368.686 59.3283 367.008 62.3458 366.113 65.6255C365.219 68.9051 365.133 72.3505 365.865 75.6698C366.596 78.9892 368.122 82.0848 370.315 84.6949C373.454 88.4288 375.173 93.1376 375.172 98.0004V100.895H398.182V98.0004C398.169 93.1454 399.875 88.4402 403.003 84.7068C406.225 80.9164 407.996 76.1203 408.005 71.1621Z" fill="white" stroke="#263238" stroke-linecap="round" stroke-linejoin="round"/>
<path d="M398.182 100.9H375.142V106.557H398.182V100.9Z" fill="#FFC100" stroke="#263238" stroke-linecap="round" stroke-linejoin="round"/>
<path d="M375.142 106.57H398.182V109.398C398.182 110.149 397.882 110.868 397.347 111.398C396.812 111.929 396.087 112.227 395.331 112.227H377.987C377.231 112.227 376.505 111.929 375.971 111.398C375.436 110.868 375.136 110.149 375.136 109.398V106.57H375.142Z" fill="#FFC100" stroke="#263238" stroke-linecap="round" stroke-linejoin="round"/>
<path d="M378.047 112.221H395.271V114.015C395.271 115.031 394.864 116.006 394.14 116.725C393.415 117.444 392.433 117.848 391.408 117.848H381.91C380.885 117.848 379.903 117.444 379.178 116.725C378.454 116.006 378.047 115.031 378.047 114.015V112.221Z" fill="#263238" stroke="#263238" stroke-linecap="round" stroke-linejoin="round"/>
<path d="M411.001 71.2759H420.764" stroke="#263238" stroke-linecap="round" stroke-linejoin="round"/>
<path d="M351.644 71.2759H361.534" stroke="#263238" stroke-linecap="round" stroke-linejoin="round"/>
<path d="M386.207 46.6978V36.9863" stroke="#263238" stroke-linecap="round" stroke-linejoin="round"/>
<path d="M403.901 53.7125L410.639 47.0269" stroke="#263238" stroke-linecap="round" stroke-linejoin="round"/>
<path d="M361.769 95.5186L368.603 88.7373" stroke="#263238" stroke-linecap="round" stroke-linejoin="round"/>
<path d="M368.314 53.5211L361.769 47.0269" stroke="#263238" stroke-linecap="round" stroke-linejoin="round"/>
<path d="M410.639 95.5186L404.124 89.0542" stroke="#263238" stroke-linecap="round" stroke-linejoin="round"/>
<path d="M260.684 64.0577L232.473 25.3491L204.256 64.0577H215.863V107.06H249.082V64.0577H260.684Z" fill="#FFC100" stroke="#263238" stroke-linecap="round" stroke-linejoin="round"/>
<path d="M236.913 130.212C252.771 127.67 263.548 112.853 260.986 97.1185C258.423 81.384 243.491 70.69 227.633 73.2328C211.776 75.7756 200.999 90.5923 203.561 106.327C206.124 122.061 221.056 132.755 236.913 130.212Z" fill="white" stroke="#263238" stroke-linecap="round" stroke-linejoin="round"/>
<path d="M254.422 112.803C260.587 100.671 255.674 85.8771 243.447 79.7595C231.22 73.6418 216.311 78.5173 210.145 90.6493C203.98 102.781 208.893 117.576 221.12 123.693C233.347 129.811 248.256 124.935 254.422 112.803Z" fill="white" stroke="#263238" stroke-linecap="round" stroke-linejoin="round"/>
<path d="M240.555 105.409C240.555 98.969 231.358 98.8315 231.358 96.1405C231.358 94.7292 232.105 94.3046 233.642 94.3046C234.962 94.3046 236.053 94.8667 237.348 96.0029L240.362 92.5345C238.961 90.962 237.063 89.9078 234.98 89.5445V85.9565H231.002V89.7C227.567 90.4356 225.512 92.8634 225.512 96.4395C225.512 102.635 234.709 103.017 234.709 105.852C234.709 107.233 233.998 107.831 232.214 107.831C230.719 107.831 229.2 107.269 227.296 105.852L224.656 109.954C226.465 111.438 228.67 112.367 231.002 112.627V116.179H234.998V112.376C238.716 111.479 240.555 108.836 240.555 105.409Z" fill="#FFC100" stroke="#263238" stroke-linecap="round" stroke-linejoin="round"/>
<path d="M88.3513 80.9321C98.6413 79.0802 105.47 69.3018 103.604 59.0914C101.738 48.881 91.8828 42.1051 81.5928 43.957C71.3027 45.8088 64.4739 55.5872 66.3402 65.7976C68.2065 76.008 78.0612 82.7839 88.3513 80.9321Z" fill="white" stroke="#263238" stroke-linecap="round" stroke-linejoin="round"/>
<path d="M90.3217 44.437L84.9761 62.4488H103.912C103.91 58.3931 102.585 54.4469 100.136 51.2003C97.6859 47.9537 94.2431 45.581 90.3217 44.437Z" fill="#FFC100" stroke="#263238" stroke-linecap="round" stroke-linejoin="round"/>
<path d="M96.7341 50.5968L104.249 41.8062H110.698" stroke="#263238" stroke-width="0.5" stroke-linecap="round" stroke-linejoin="round"/>
<path d="M115.266 42.0693H124.933" stroke="#263238" stroke-width="0.5" stroke-linecap="round" stroke-linejoin="round"/>
<path d="M115.266 44.4673H124.933" stroke="#263238" stroke-width="0.5" stroke-linecap="round" stroke-linejoin="round"/>
<path d="M115.266 46.8652H124.933" stroke="#263238" stroke-width="0.5" stroke-linecap="round" stroke-linejoin="round"/>
<path d="M115.266 49.2632H124.933" stroke="#263238" stroke-width="0.5" stroke-linecap="round" stroke-linejoin="round"/>
<path d="M66.8599 101.104H61.3516V117.411H66.8599V101.104Z" fill="#263238" stroke="#263238" stroke-width="0.5" stroke-linecap="round" stroke-linejoin="round"/>
<path d="M75.5142 106.97H70.0059V117.411H75.5142V106.97Z" fill="#FFC100" stroke="#263238" stroke-linecap="round" stroke-linejoin="round"/>
<path d="M84.1746 97.5337H78.6663V117.411H84.1746V97.5337Z" fill="#263238" stroke="#263238" stroke-width="0.5" stroke-linecap="round" stroke-linejoin="round"/>
<path d="M92.8348 101.648H87.3264V117.417H92.8348V101.648Z" fill="#FFC100" stroke="#263238" stroke-linecap="round" stroke-linejoin="round"/>
<path d="M101.489 98.042H95.9807V117.411H101.489V98.042Z" fill="#263238" stroke="#263238" stroke-width="0.5" stroke-linecap="round" stroke-linejoin="round"/>
<path d="M110.149 86.5664H104.641V117.417H110.149V86.5664Z" fill="#FFC100" stroke="#263238" stroke-linecap="round" stroke-linejoin="round"/>
<path d="M116.339 86.2432H119.563" stroke="#263238" stroke-width="0.5" stroke-linecap="round" stroke-linejoin="round"/>
<path d="M116.339 92.4746H119.563" stroke="#263238" stroke-width="0.5" stroke-linecap="round" stroke-linejoin="round"/>
<path d="M116.339 98.7119H119.563" stroke="#263238" stroke-width="0.5" stroke-linecap="round" stroke-linejoin="round"/>
<path d="M116.339 104.949H119.563" stroke="#263238" stroke-width="0.5" stroke-linecap="round" stroke-linejoin="round"/>
<path d="M116.339 111.186H119.563" stroke="#263238" stroke-width="0.5" stroke-linecap="round" stroke-linejoin="round"/>
<path d="M116.339 117.417H119.563" stroke="#263238" stroke-width="0.5" stroke-linecap="round" stroke-linejoin="round"/>
<path d="M64.5034 95.0936L72.9408 100.159L81.7216 90.8299L90.394 91.5535L98.7951 88.2465L108.305 75.832" stroke="#263238" stroke-linecap="round" stroke-linejoin="round"/>
<path d="M65.5641 95.0819C65.5641 94.8723 65.5014 94.6674 65.3839 94.4932C65.2664 94.319 65.0995 94.1834 64.9042 94.1034C64.7089 94.0235 64.4941 94.0029 64.2871 94.0442C64.08 94.0855 63.8899 94.187 63.741 94.3356C63.592 94.4842 63.4909 94.6734 63.4504 94.8791C63.41 95.0848 63.4319 95.2978 63.5136 95.4911C63.5953 95.6844 63.7329 95.8493 63.9091 95.9649C64.0854 96.0805 64.2922 96.1415 64.5034 96.1403C64.6432 96.1403 64.7816 96.1129 64.9107 96.0597C65.0398 96.0064 65.157 95.9283 65.2556 95.83C65.3541 95.7316 65.4322 95.6149 65.4851 95.4865C65.5381 95.3581 65.5649 95.2206 65.5641 95.0819Z" fill="#263238"/>
<path d="M74.0075 100.159C74.0075 99.9497 73.9449 99.7451 73.8277 99.571C73.7105 99.3969 73.5439 99.2613 73.349 99.1812C73.154 99.101 72.9396 99.0801 72.7326 99.1209C72.5257 99.1618 72.3356 99.2626 72.1865 99.4106C72.0373 99.5586 71.9357 99.7472 71.8945 99.9525C71.8534 100.158 71.8745 100.371 71.9552 100.564C72.036 100.758 72.1727 100.923 72.3481 101.039C72.5235 101.155 72.7298 101.218 72.9407 101.218C73.0811 101.218 73.2201 101.191 73.3499 101.139C73.4797 101.086 73.5976 101.008 73.6968 100.909C73.796 100.811 73.8746 100.694 73.9279 100.565C73.9812 100.436 74.0083 100.298 74.0075 100.159Z" fill="#263238"/>
<path d="M82.7824 90.8299C82.7824 90.6203 82.7196 90.4155 82.6022 90.2413C82.4847 90.0671 82.3177 89.9314 82.1225 89.8515C81.9272 89.7715 81.7124 89.7509 81.5053 89.7923C81.2982 89.8336 81.1082 89.935 80.9592 90.0836C80.8103 90.2323 80.7092 90.4214 80.6687 90.6271C80.6282 90.8328 80.6502 91.0458 80.7319 91.2391C80.8135 91.4324 80.9512 91.5973 81.1274 91.7129C81.3036 91.8285 81.5104 91.8896 81.7217 91.8884C81.8615 91.8884 81.9999 91.861 82.129 91.8077C82.2581 91.7544 82.3753 91.6764 82.4738 91.578C82.5724 91.4796 82.6504 91.3629 82.7034 91.2345C82.7563 91.1061 82.7832 90.9686 82.7824 90.8299Z" fill="#263238"/>
<path d="M91.4547 91.5536C91.4547 91.344 91.392 91.1391 91.2745 90.9649C91.157 90.7907 90.9901 90.655 90.7948 90.5751C90.5995 90.4952 90.3848 90.4746 90.1777 90.5159C89.9706 90.5572 89.7805 90.6586 89.6316 90.8073C89.4827 90.9559 89.3815 91.145 89.3411 91.3508C89.3006 91.5565 89.3226 91.7695 89.4042 91.9628C89.4859 92.1561 89.6236 92.321 89.7998 92.4366C89.976 92.5521 90.1828 92.6132 90.394 92.612C90.5338 92.612 90.6723 92.5846 90.8013 92.5313C90.9304 92.4781 91.0476 92.4 91.1462 92.3016C91.2448 92.2033 91.3228 92.0866 91.3757 91.9582C91.4287 91.8298 91.4555 91.6923 91.4547 91.5536Z" fill="#263238"/>
<path d="M99.862 88.0794C99.862 87.8701 99.7994 87.6655 99.6822 87.4914C99.565 87.3173 99.3984 87.1817 99.2034 87.1016C99.0085 87.0215 98.794 87.0005 98.5871 87.0413C98.3802 87.0822 98.1901 87.183 98.0409 87.331C97.8918 87.479 97.7902 87.6676 97.749 87.873C97.7079 88.0783 97.729 88.2911 97.8097 88.4845C97.8905 88.6779 98.0272 88.8432 98.2026 88.9595C98.378 89.0758 98.5843 89.1379 98.7952 89.1379C99.0781 89.1379 99.3495 89.0264 99.5495 88.8279C99.7496 88.6294 99.862 88.3602 99.862 88.0794Z" fill="#263238"/>
<path d="M109.366 75.8324C109.366 75.6228 109.303 75.4179 109.186 75.2437C109.068 75.0695 108.901 74.9339 108.706 74.8539C108.511 74.774 108.296 74.7534 108.089 74.7947C107.882 74.836 107.692 74.9374 107.543 75.0861C107.394 75.2347 107.293 75.4239 107.252 75.6296C107.212 75.8353 107.234 76.0483 107.316 76.2416C107.397 76.4349 107.535 76.5998 107.711 76.7154C107.887 76.8309 108.094 76.892 108.305 76.8908C108.587 76.8893 108.857 76.777 109.056 76.5787C109.255 76.3804 109.366 76.1121 109.366 75.8324Z" fill="#263238"/>
<path d="M319.407 247.225H322.843V214.383H319.407V247.225Z" fill="#263238" stroke="#263238" stroke-linecap="round" stroke-linejoin="round"/>
<path d="M336.515 215.536L342.573 216.239L346.417 183.619L340.36 182.916L336.515 215.536Z" fill="#263238" stroke="#263238" stroke-linecap="round" stroke-linejoin="round"/>
<path d="M316.762 248.571V243.033H325.482V248.619L360.365 262.51V269.064H357.984V264.083L320.998 255.729L284.989 264.083V269.064H282.675V262.51L316.762 248.571Z" fill="#8C8C8C" stroke="#263238" stroke-linecap="round" stroke-linejoin="round"/>
<path d="M312.537 224.872H329.713V214.383H312.537V224.872Z" fill="#263238" stroke="#263238" stroke-linecap="round" stroke-linejoin="round"/>
<path d="M360.395 269.327C360.395 268.601 360.612 267.89 361.019 267.286C361.426 266.683 362.004 266.212 362.68 265.934C363.357 265.656 364.101 265.584 364.819 265.726C365.537 265.868 366.197 266.219 366.714 266.733C367.231 267.247 367.583 267.902 367.725 268.614C367.867 269.327 367.793 270.065 367.512 270.736C367.231 271.407 366.756 271.98 366.147 272.383C365.537 272.786 364.821 273 364.089 272.999C363.603 272.999 363.123 272.904 362.674 272.719C362.225 272.535 361.818 272.264 361.475 271.923C361.132 271.582 360.86 271.177 360.674 270.732C360.489 270.286 360.394 269.809 360.395 269.327Z" fill="#263238" stroke="#263238" stroke-linecap="round" stroke-linejoin="round"/>
<path d="M362.474 269.327C362.474 269.016 362.567 268.712 362.741 268.453C362.915 268.195 363.163 267.993 363.452 267.874C363.742 267.755 364.061 267.724 364.368 267.785C364.676 267.845 364.958 267.995 365.18 268.215C365.401 268.435 365.552 268.715 365.613 269.02C365.675 269.325 365.643 269.642 365.523 269.929C365.403 270.216 365.2 270.462 364.939 270.635C364.679 270.808 364.372 270.9 364.059 270.9C363.639 270.9 363.235 270.734 362.938 270.439C362.641 270.144 362.474 269.744 362.474 269.327Z" fill="white" stroke="#263238" stroke-linecap="round" stroke-linejoin="round"/>
<path d="M275.009 269.327C275.009 268.601 275.226 267.891 275.633 267.287C276.039 266.683 276.617 266.213 277.293 265.935C277.969 265.657 278.714 265.584 279.431 265.726C280.149 265.868 280.808 266.217 281.326 266.731C281.843 267.244 282.196 267.898 282.339 268.611C282.481 269.323 282.408 270.061 282.128 270.732C281.848 271.403 281.374 271.976 280.765 272.38C280.157 272.783 279.441 272.999 278.709 272.999C277.728 272.999 276.787 272.612 276.093 271.923C275.399 271.235 275.009 270.301 275.009 269.327Z" fill="#263238" stroke="#263238" stroke-linecap="round" stroke-linejoin="round"/>
<path d="M278.709 270.9C279.585 270.9 280.294 270.196 280.294 269.327C280.294 268.459 279.585 267.754 278.709 267.754C277.834 267.754 277.124 268.459 277.124 269.327C277.124 270.196 277.834 270.9 278.709 270.9Z" fill="white" stroke="#263238" stroke-linecap="round" stroke-linejoin="round"/>
<path d="M319.534 269.256H322.439L323.897 249.587H318.082L319.534 269.256Z" fill="#8C8C8C" stroke="#263238" stroke-linecap="round" stroke-linejoin="round"/>
<path d="M319.673 273.185H322.577V265.058H319.673V273.185Z" fill="#263238" stroke="#263238" stroke-linecap="round" stroke-linejoin="round"/>
<path d="M344.002 199.29C345.697 199.452 347.408 199.282 349.036 198.788C350.665 198.294 352.179 197.487 353.493 196.413C354.807 195.338 355.895 194.017 356.695 192.525C357.494 191.034 357.99 189.4 358.153 187.718L362.203 145.912C362.532 142.516 361.488 139.129 359.301 136.496C357.115 133.863 353.964 132.199 350.541 131.871C347.118 131.546 343.704 132.583 341.051 134.754C338.398 136.925 336.721 140.052 336.39 143.448L332.334 185.308C332.021 188.696 333.072 192.069 335.259 194.689C337.446 197.31 340.589 198.964 344.002 199.29Z" fill="#8C8C8C" stroke="#263238" stroke-linecap="round" stroke-linejoin="round"/>
<path d="M340.929 198.996C344.351 199.323 347.765 198.288 350.418 196.118C353.072 193.948 354.748 190.821 355.079 187.425L359.135 145.565C359.454 142.174 358.405 138.795 356.218 136.17C354.031 133.545 350.884 131.887 347.468 131.56C345.773 131.398 344.062 131.57 342.434 132.064C340.806 132.558 339.292 133.366 337.978 134.441C336.665 135.516 335.578 136.838 334.779 138.33C333.98 139.822 333.485 141.455 333.323 143.137L329.267 184.961C328.938 188.357 329.982 191.743 332.169 194.375C334.356 197.007 337.507 198.67 340.929 198.996Z" fill="#8C8C8C" stroke="#263238" stroke-linecap="round" stroke-linejoin="round"/>
<path d="M284.513 217.672L344.997 219.251C345.332 219.261 345.667 219.206 345.981 219.088C346.295 218.97 346.582 218.792 346.827 218.563C347.071 218.335 347.268 218.061 347.406 217.757C347.544 217.454 347.62 217.126 347.63 216.793L347.938 207.189C347.948 206.856 347.892 206.524 347.773 206.213C347.655 205.901 347.475 205.616 347.245 205.373C347.015 205.13 346.739 204.935 346.433 204.798C346.127 204.661 345.796 204.586 345.461 204.576L284.983 202.997C284.648 202.986 284.314 203.04 284 203.158C283.686 203.275 283.398 203.453 283.153 203.68C282.909 203.908 282.712 204.182 282.574 204.485C282.436 204.789 282.36 205.116 282.349 205.449L282.048 215.059C282.027 215.729 282.275 216.381 282.737 216.871C283.199 217.36 283.837 217.649 284.513 217.672Z" fill="#8C8C8C" stroke="#263238" stroke-linecap="round" stroke-linejoin="round"/>
<path d="M309.802 218.136L345.004 219.24C346.415 219.284 347.594 218.186 347.639 216.786L347.945 207.181C347.989 205.781 346.882 204.611 345.471 204.567L310.269 203.463C308.859 203.419 307.679 204.517 307.634 205.917L307.328 215.522C307.284 216.922 308.391 218.092 309.802 218.136Z" fill="#8C8C8C" stroke="#263238" stroke-linecap="round" stroke-linejoin="round"/>
<path d="M280.481 258.767L280.186 260.979C280.186 260.979 277.51 266.29 276.467 267.175C275.425 268.06 268.886 270.858 267.699 271.301C266.511 271.743 268.59 273.095 271.417 273.22C274.243 273.346 279.445 273.37 281.228 272.927C283.012 272.485 286.429 269.973 287.177 269.83L287.779 271.743C287.779 271.743 291.052 270.547 292.239 270.272C293.426 269.997 295.361 268.478 295.361 268.478C294.685 266.418 293.893 264.398 292.986 262.426C292.437 261.437 291.734 260.541 290.901 259.771L288.677 257.14L280.481 258.767Z" fill="#263238" stroke="#263238" stroke-linecap="round" stroke-linejoin="round"/>
<path d="M298.471 174.497L293.565 177.445L282.862 180.542C282.862 180.542 248.968 186.738 247.033 188.968C245.099 191.199 245.828 193.1 247.479 195.905C249.13 198.71 277.829 260.83 277.829 260.83L289.726 258.468L269.802 198.985C269.802 198.985 307.27 206.508 313.797 205.323C320.323 204.139 328.664 197.215 330.147 191.904C331.629 186.594 324.795 178.15 324.795 178.15L298.471 174.497Z" fill="#FFC100" stroke="#263238" stroke-linecap="round" stroke-linejoin="round"/>
<path d="M261.371 193.214C261.371 193.214 268.862 196.802 270.206 200.838" stroke="#263238" stroke-linecap="round" stroke-linejoin="round"/>
<path d="M337.27 125.227L321.215 123.75L297.729 176.559L313.188 179.215L337.27 125.227Z" fill="white" stroke="#263238" stroke-linecap="round" stroke-linejoin="round"/>
<path d="M321.511 128.684C321.511 128.684 298.025 175.812 297.717 176.56C297.41 177.307 290.732 179.215 289.244 179.508C287.755 179.801 282.85 180.542 282.85 180.542L291.178 174.939L297.115 159.744L289.883 156.078C289.883 156.078 303.262 136.165 306.233 129.377C309.204 122.59 310.373 120.796 313.339 120.653C316.304 120.509 324.789 121.095 324.789 121.095L321.511 128.684Z" fill="#FFC100" stroke="#263238" stroke-linecap="round" stroke-linejoin="round"/>
<path d="M318.244 138.647L318.539 142.043C318.539 142.043 302.93 169.772 302.786 170.364C302.641 170.956 303.991 175.083 303.991 175.083L309.493 171.1L319.895 142.635L322.722 141.009V135.74L318.244 138.647Z" fill="#263238" stroke="#263238" stroke-linecap="round" stroke-linejoin="round"/>
<path d="M324.452 87.6727C324.452 87.6727 318.931 100.936 317.708 104.955C316.484 108.973 315.623 115.539 315.9 116.269C316.177 116.999 317.708 119.552 320.558 119.678C323.409 119.803 325.832 119.797 325.832 119.797L321.541 128.683C321.541 128.683 322.029 135.62 322.746 135.74C323.463 135.859 334.275 127.589 334.522 127.218C334.769 126.848 341.634 112.268 341.634 112.268C341.634 112.268 347.769 109.225 348.136 106.546C348.256 105.796 348.172 105.028 347.891 104.323C347.61 103.617 347.143 102.999 346.539 102.533V99.244L349.239 91.2128C349.239 91.2128 342.495 86.8354 335.01 85.0056C327.525 83.1757 325.934 84.4076 325.934 84.4076L324.452 87.6727Z" fill="white" stroke="#263238" stroke-linecap="round" stroke-linejoin="round"/>
<path d="M336.836 80.2516C336.836 80.2516 325.802 77.3274 320.896 81.5911C315.99 85.8548 328.743 92.69 332.913 93.288C337.084 93.886 342.236 93.0428 341.007 94.1431C339.778 95.2434 337.084 96.9418 338.434 98.0361C339.281 98.7113 340.234 99.2445 341.254 99.6148C341.254 99.6148 335.493 112.173 334.51 113.608C333.528 115.043 331.69 114.948 330.587 114.583C329.484 114.218 324.211 110.935 322.493 110.325C320.775 109.715 317.587 107.891 316.852 109.841C316.117 111.79 314.273 120.06 316.973 121.884C319.673 123.708 332.793 119.086 334.757 117.746C336.722 116.407 337.331 113.973 337.698 113.488C338.066 113.004 343.339 104.363 343.827 103.753C344.316 103.143 346.527 102.557 346.527 102.557C346.527 102.557 350.945 93.7903 351.313 90.3877C351.68 86.9851 340.151 80.132 336.836 80.2516Z" fill="#263238" stroke="#263238" stroke-linecap="round" stroke-linejoin="round"/>
<path d="M325.314 97.1631L325.066 102.545C325.066 102.545 319.305 108.992 319.305 109.721C319.305 110.451 326.169 109.601 326.169 109.601" stroke="#263238" stroke-linecap="round" stroke-linejoin="round"/>
<path d="M324.452 95.9491C324.241 95.5412 323.893 95.22 323.467 95.0417C323.042 94.8635 322.567 94.8396 322.125 94.9743" stroke="#263238" stroke-linecap="round" stroke-linejoin="round"/>
<path d="M329.604 98.9869C329.604 98.9869 333.16 98.6221 334.263 101.301" stroke="#263238" stroke-linecap="round" stroke-linejoin="round"/>
<path d="M320.016 112.496C320.016 112.496 323.204 114.445 325.289 114.445" stroke="white" stroke-linecap="round" stroke-linejoin="round"/>
<path d="M330.816 104.261C330.478 104.925 329.864 105.284 329.442 105.075C329.02 104.865 328.948 104.154 329.285 103.496C329.623 102.838 330.237 102.473 330.659 102.683C331.081 102.892 331.153 103.604 330.816 104.261Z" fill="#263238"/>
<path d="M323.138 101.301C322.806 101.959 322.186 102.324 321.764 102.109C321.342 101.893 321.27 101.194 321.607 100.53C321.945 99.8661 322.559 99.5073 322.981 99.7226C323.403 99.9379 323.475 100.638 323.138 101.301Z" fill="#263238"/>
<path d="M269.929 253.833L268.886 260.028L266.656 260.626C266.656 260.626 264.571 263.12 264.131 263.718C263.691 264.316 258.183 268.287 256.7 269.028C255.217 269.77 251.493 270.057 251.644 271.091C251.794 272.126 259.671 273.011 264.728 273.154C269.784 273.298 272.604 271.683 272.604 271.683L273.05 272.712L278.251 272.269C278.251 272.269 277.956 267.402 278.107 265.339C278.154 263.661 278.053 261.982 277.805 260.321L277.51 256.046L269.929 253.833Z" fill="#263238" stroke="#263238" stroke-linecap="round" stroke-linejoin="round"/>
<path d="M311.705 181.427C311.705 181.427 269.483 186.588 268.591 187.623C267.699 188.657 268.44 219.191 268.44 219.191L263.534 254.927L278.697 259.532C278.697 259.532 283.458 229.399 285.092 221.26C286.208 215.208 287.003 209.102 287.472 202.967C287.472 202.967 310.813 208.277 318.811 203.852C326.808 199.427 325.199 193.967 325.199 193.967" fill="#FFC100"/>
<path d="M311.705 181.427C311.705 181.427 269.483 186.588 268.591 187.623C267.699 188.657 268.44 219.191 268.44 219.191L263.534 254.927L278.697 259.532C278.697 259.532 283.458 229.399 285.092 221.26C286.208 215.208 287.003 209.102 287.472 202.967C287.472 202.967 310.813 208.277 318.811 203.852C326.808 199.427 325.199 193.967 325.199 193.967" stroke="#263238" stroke-linecap="round" stroke-linejoin="round"/>
<path d="M269.247 217.995C269.247 217.995 271.17 209.42 271.549 204.839" stroke="#263238" stroke-linecap="round" stroke-linejoin="round"/>
<path d="M284.332 198.034C283.875 197.426 283.324 196.893 282.699 196.455" stroke="#263238" stroke-linecap="round" stroke-linejoin="round"/>
<path d="M287.472 202.967C287.472 202.967 286.616 201.305 285.495 199.625" stroke="#263238" stroke-linecap="round" stroke-linejoin="round"/>
<path d="M336.68 122.422C336.68 122.422 319.877 153.088 316.31 160.922C312.742 168.755 307.963 179.657 307.963 180.835C307.963 182.013 304.841 212.26 305.884 212.846C306.926 213.432 322.529 208.421 329.815 205.622C337.102 202.823 337.397 200.754 337.994 199.128C338.59 197.501 338.44 176.559 338.44 176.559C338.44 176.559 353.603 133.778 353.452 131.865C353.301 129.951 336.68 122.422 336.68 122.422Z" fill="#FFC100" stroke="#263238" stroke-linecap="round" stroke-linejoin="round"/>
<path d="M323.909 153.447C321.155 156.126 318.841 158.123 318.841 158.123" stroke="#263238" stroke-linecap="round" stroke-linejoin="round"/>
<path d="M342.032 125.813C342.032 125.813 335.047 139.388 331.473 144.847C329.709 147.349 327.721 149.687 325.531 151.832" stroke="#263238" stroke-linecap="round" stroke-linejoin="round"/>
<path d="M319.685 122.967C319.685 122.967 312.453 134.963 310.367 142.043C308.282 149.123 307.836 152.807 307.836 152.807" stroke="#263238" stroke-linecap="round" stroke-linejoin="round"/>
<path d="M315.864 140.124L322.734 135.74L322.999 146.026" stroke="#263238" stroke-linecap="round" stroke-linejoin="round"/>
<path d="M330.521 186.211L332.817 185.853" stroke="#263238" stroke-linecap="round" stroke-linejoin="round"/>
<path d="M332.069 183.197L315.864 185.117V188.508L327.435 186.696" stroke="#263238" stroke-linecap="round" stroke-linejoin="round"/>
<path d="M309.475 127.583C309.475 127.583 312.151 121.98 313.489 121.831C314.827 121.681 317.798 121.831 317.798 123.027C317.798 124.223 316.165 124.354 316.165 124.354H313.935L312.892 127.009L309.475 127.583Z" fill="white" stroke="#263238" stroke-linecap="round" stroke-linejoin="round"/>
<path d="M305.757 138.204L306.799 132.451C306.799 132.451 307.245 127.44 308.005 127.141C308.764 126.842 315.586 126.997 315.586 126.997C315.586 126.997 315.737 132.894 315.14 134.371C314.544 135.848 311.868 136.434 311.868 136.434C311.621 137.354 311.274 138.244 310.831 139.089C310.385 139.687 308.746 140.417 308.746 140.417L308.3 141.613L304.437 139.101L305.757 138.204Z" fill="white" stroke="#263238" stroke-linecap="round" stroke-linejoin="round"/>
<path d="M311.85 136.439L311.109 133.635L313.935 133.485" fill="white"/>
<path d="M311.85 136.439L311.109 133.635L313.935 133.485" stroke="#263238" stroke-linecap="round" stroke-linejoin="round"/>
<path d="M304.268 137.767L310.367 142.043L307.987 144.548L302.786 139.83L304.268 137.767Z" fill="white" stroke="#263238" stroke-linecap="round" stroke-linejoin="round"/>
<path d="M302.786 139.83L309.771 144.991L296.391 165.203C294.809 165.537 293.164 165.433 291.636 164.904C289.105 164.019 286.731 159.008 286.731 158.416C286.731 157.824 302.786 139.83 302.786 139.83Z" fill="#FFC100" stroke="#263238" stroke-linecap="round" stroke-linejoin="round"/>
<path d="M297.434 163.284C297.434 163.284 295.204 159.152 295.054 157.974C294.903 156.796 294.758 154.434 294.011 153.548C293.264 152.663 292.378 152.071 292.083 150.744C291.787 149.416 290.443 150.008 290.275 151.342C290.106 152.675 291.311 153.997 291.311 153.997C291.311 153.997 287.599 152.801 287.002 153.112C286.405 153.423 285.194 153.847 285.514 154.906C285.712 155.555 285.964 156.187 286.267 156.796C286.267 156.796 283.892 159.893 283.892 161.364C283.892 162.835 285.526 165.203 286.719 166.089C287.912 166.974 292.071 167.883 292.071 167.883L297.434 163.284Z" fill="white" stroke="#263238" stroke-linecap="round" stroke-linejoin="round"/>
<path d="M340.326 132.929L326.868 160.629L294.011 162.423C293.182 162.622 292.425 163.044 291.823 163.642C291.22 164.24 290.795 164.991 290.594 165.813C290.249 167.163 290.098 168.554 290.148 169.945C290.148 169.945 312.001 172.601 318.841 173.043C325.681 173.486 334.004 174.371 335.047 173.336C336.089 172.302 348.426 146.934 348.426 146.934" fill="#FFC100"/>
<path d="M340.326 132.929L326.868 160.629L294.011 162.423C293.182 162.622 292.425 163.044 291.823 163.642C291.22 164.24 290.795 164.991 290.594 165.813C290.249 167.163 290.098 168.554 290.148 169.945C290.148 169.945 312.001 172.601 318.841 173.043C325.681 173.486 334.004 174.371 335.047 173.336C336.089 172.302 348.426 146.934 348.426 146.934" stroke="#263238" stroke-linecap="round" stroke-linejoin="round"/>
<path d="M143.658 214.389H140.222V247.231H143.658V214.389Z" fill="#263238" stroke="#263238" stroke-linecap="round" stroke-linejoin="round"/>
<path d="M122.726 182.923L116.668 183.625L120.512 216.245L126.57 215.542L122.726 182.923Z" fill="#263238" stroke="#263238" stroke-linecap="round" stroke-linejoin="round"/>
<path d="M146.303 248.571V243.033H137.583V248.619L102.7 262.51V269.064H105.081V264.083L142.066 255.729L178.076 264.083V269.064H180.39V262.51L146.303 248.571Z" fill="#8C8C8C" stroke="#263238" stroke-linecap="round" stroke-linejoin="round"/>
<path d="M150.528 214.389H133.352V224.878H150.528V214.389Z" fill="#263238" stroke="#263238" stroke-linecap="round" stroke-linejoin="round"/>
<path d="M102.7 269.327C102.7 268.601 102.483 267.891 102.077 267.287C101.67 266.683 101.092 266.213 100.416 265.935C99.7398 265.657 98.9958 265.584 98.278 265.726C97.5602 265.868 96.9009 266.217 96.3834 266.731C95.8659 267.244 95.5134 267.898 95.3707 268.611C95.2279 269.323 95.3012 270.061 95.5812 270.732C95.8613 271.403 96.3356 271.976 96.9441 272.38C97.5526 272.783 98.2681 272.999 98.9999 272.999C99.9813 272.999 100.923 272.612 101.616 271.923C102.31 271.235 102.7 270.301 102.7 269.327Z" fill="#263238" stroke="#263238" stroke-linecap="round" stroke-linejoin="round"/>
<path d="M100.585 269.327C100.585 269.016 100.492 268.712 100.318 268.453C100.144 268.195 99.8962 267.993 99.6066 267.874C99.317 267.755 98.9983 267.724 98.6908 267.785C98.3834 267.845 98.1009 267.995 97.8793 268.215C97.6576 268.435 97.5067 268.715 97.4455 269.02C97.3843 269.325 97.4157 269.642 97.5357 269.929C97.6557 270.216 97.8588 270.462 98.1195 270.635C98.3801 270.808 98.6866 270.9 99.0001 270.9C99.4204 270.9 99.8236 270.734 100.121 270.439C100.418 270.144 100.585 269.744 100.585 269.327Z" fill="white" stroke="#263238" stroke-linecap="round" stroke-linejoin="round"/>
<path d="M188.032 269.327C188.032 268.601 187.815 267.891 187.408 267.287C187.002 266.683 186.424 266.213 185.748 265.935C185.071 265.657 184.327 265.584 183.61 265.726C182.892 265.868 182.232 266.217 181.715 266.731C181.197 267.244 180.845 267.898 180.702 268.611C180.559 269.323 180.633 270.061 180.913 270.732C181.193 271.403 181.667 271.976 182.276 272.38C182.884 272.783 183.6 272.999 184.331 272.999C185.313 272.999 186.254 272.612 186.948 271.923C187.642 271.235 188.032 270.301 188.032 269.327Z" fill="#263238" stroke="#263238" stroke-linecap="round" stroke-linejoin="round"/>
<path d="M184.356 270.9C185.231 270.9 185.941 270.196 185.941 269.327C185.941 268.459 185.231 267.754 184.356 267.754C183.48 267.754 182.771 268.459 182.771 269.327C182.771 270.196 183.48 270.9 184.356 270.9Z" fill="white" stroke="#263238" stroke-linecap="round" stroke-linejoin="round"/>
<path d="M143.525 269.256H140.62L139.168 249.587H144.983L143.525 269.256Z" fill="#8C8C8C" stroke="#263238" stroke-linecap="round" stroke-linejoin="round"/>
<path d="M143.392 265.058H140.488V273.184H143.392V265.058Z" fill="#263238" stroke="#263238" stroke-linecap="round" stroke-linejoin="round"/>
<path d="M119.063 199.29C117.368 199.452 115.657 199.282 114.029 198.788C112.4 198.295 110.886 197.487 109.572 196.413C108.258 195.338 107.17 194.017 106.37 192.526C105.571 191.034 105.075 189.4 104.912 187.718L100.856 145.858C100.692 144.177 100.864 142.479 101.362 140.863C101.859 139.247 102.673 137.745 103.756 136.441C104.838 135.137 106.17 134.057 107.673 133.264C109.177 132.471 110.823 131.979 112.518 131.817C115.941 131.492 119.354 132.529 122.008 134.7C124.661 136.871 126.337 139.998 126.668 143.395L130.724 185.255C131.053 188.65 130.01 192.036 127.823 194.668C125.636 197.3 122.485 198.963 119.063 199.29Z" fill="#8C8C8C" stroke="#263238" stroke-linecap="round" stroke-linejoin="round"/>
<path d="M122.136 198.997C118.714 199.323 115.3 198.288 112.647 196.118C109.993 193.948 108.317 190.821 107.986 187.425L103.93 145.565C103.611 142.175 104.659 138.797 106.845 136.172C109.03 133.547 112.176 131.889 115.591 131.56C119.015 131.234 122.429 132.27 125.083 134.441C127.737 136.612 129.412 139.74 129.742 143.137L133.792 184.955C134.121 188.351 133.078 191.737 130.893 194.37C128.707 197.002 125.558 198.667 122.136 198.997Z" fill="#8C8C8C" stroke="#263238" stroke-linecap="round" stroke-linejoin="round"/>
<path d="M180.643 217.672L118.068 219.251C117.733 219.261 117.398 219.206 117.084 219.088C116.77 218.97 116.483 218.792 116.238 218.563C115.993 218.335 115.797 218.061 115.659 217.757C115.521 217.454 115.445 217.126 115.435 216.793L115.109 207.189C115.088 206.517 115.336 205.865 115.8 205.375C116.263 204.885 116.903 204.598 117.58 204.576L180.197 202.997C180.532 202.986 180.867 203.04 181.181 203.158C181.495 203.275 181.782 203.453 182.027 203.68C182.272 203.908 182.469 204.182 182.607 204.485C182.744 204.789 182.821 205.116 182.831 205.449L183.138 215.059C183.149 215.393 183.092 215.726 182.972 216.039C182.852 216.352 182.671 216.638 182.439 216.881C182.207 217.124 181.929 217.319 181.621 217.455C181.313 217.59 180.98 217.664 180.643 217.672Z" fill="#8C8C8C" stroke="#263238" stroke-linecap="round" stroke-linejoin="round"/>
<path d="M152.811 203.469L117.609 204.573C116.199 204.617 115.091 205.787 115.136 207.187L115.442 216.792C115.486 218.192 116.666 219.291 118.077 219.246L153.279 218.143C154.689 218.098 155.797 216.928 155.752 215.528L155.446 205.923C155.402 204.523 154.222 203.425 152.811 203.469Z" fill="#8C8C8C" stroke="#263238" stroke-linecap="round" stroke-linejoin="round"/>
<path d="M188.635 198.111C188.635 198.111 189.171 208.373 190.593 217.564C192.016 226.756 194.372 254.64 194.372 254.64C195.113 257.44 196.122 260.164 197.385 262.773C198.229 264.506 199.307 266.115 200.592 267.557C200.592 267.557 205.226 272.156 205.045 272.861C204.864 273.567 201.96 273.495 199.109 272.963C196.258 272.431 195.674 271.767 194.071 270.697C192.468 269.626 188.821 268.257 187.218 267.707C185.615 267.156 185.085 265.769 185.621 264.178C186.158 262.588 187.942 258.874 187.942 256.578C187.942 254.281 186.513 243.386 182.608 236.132C178.703 228.878 176.37 216.326 176.37 216.326L188.635 198.111Z" fill="white" stroke="#263238" stroke-linecap="round" stroke-linejoin="round"/>
<path d="M189.581 264.711C188.448 263.838 187.387 262.917 186.483 262.05C186.146 262.905 185.832 263.658 185.657 264.179C185.121 265.769 185.657 267.169 187.254 267.707C188.852 268.245 192.504 269.62 194.107 270.697C195.71 271.773 196.294 272.431 199.145 272.963C201.996 273.496 204.907 273.561 205.081 272.862C205.256 272.162 200.628 267.557 200.628 267.557L198.313 268.622C198.313 268.622 192.787 267.187 189.581 264.711Z" fill="#FFC100" stroke="#263238" stroke-linecap="round" stroke-linejoin="round"/>
<path d="M120.268 177.038C120.268 177.038 118.665 183.269 119.539 187.204C120.413 191.139 126.403 200.24 136.769 202.417C147.135 204.594 173.188 203.882 173.188 203.882C173.188 203.882 166.908 213.348 164.57 224.746C163.027 232.293 158.296 242.854 157.567 244.45C156.838 246.047 148.22 248.941 148.527 250.245C148.834 251.549 149.841 259.658 152.029 262.994C154.216 266.331 157.868 267.778 159.327 268.209C160.785 268.64 161.081 268.64 161.081 267.192C161.081 265.745 160.056 263.718 160.056 262.408C160.056 261.099 159.911 252.242 160.496 251.106C161.081 249.97 180.197 220.064 183.114 215.16C186.031 210.257 190.563 200.671 191.877 199.08C193.191 197.489 194.794 195.313 193.48 192.562C192.166 189.811 162.003 180.602 162.003 180.602L160.418 175.035L145.351 174.167L120.268 177.038Z" fill="white" stroke="#263238" stroke-linecap="round" stroke-linejoin="round"/>
<path d="M162.003 180.596L160.418 175.029L145.351 174.162L120.238 177.056C120.238 177.056 118.599 183.293 119.509 187.222C120.955 193.435 126.373 200.258 136.739 202.435C147.105 204.612 173.158 203.9 173.158 203.9C173.158 203.9 175.629 191.647 180.456 186.869C174.659 184.908 162.003 180.596 162.003 180.596Z" fill="#263238" stroke="#263238" stroke-linecap="round" stroke-linejoin="round"/>
<path d="M173.188 203.858C176.665 202.945 180.039 201.682 183.259 200.091L173.188 203.858Z" fill="white"/>
<path d="M173.188 203.858C176.665 202.945 180.039 201.682 183.259 200.091" stroke="#263238" stroke-linecap="round" stroke-linejoin="round"/>
<path d="M153.475 257.176C152.438 254.784 152.505 250 152.637 247.44C150.432 248.523 148.364 249.569 148.515 250.221C148.804 251.525 149.829 259.634 152.017 262.97C154.204 266.307 157.856 267.754 159.315 268.185C160.773 268.616 161.069 268.616 161.069 267.168C161.069 265.721 160.05 263.7 160.044 262.384C158.517 262.192 157.005 261.898 155.518 261.505C155.518 261.505 154.933 260.507 153.475 257.176Z" fill="#FFC100" stroke="#263238" stroke-linecap="round" stroke-linejoin="round"/>
<path d="M151.366 119.672L146.84 121.556C146.84 121.556 150.492 155.48 150.347 160.264C150.202 165.048 149.907 174.616 149.907 174.616C149.907 174.616 156.187 176.5 160.418 175.053L160.128 158.685C160.128 158.685 163.196 143.036 162.027 137.965C160.858 132.894 157.205 123.912 157.205 123.912C157.205 123.912 155.488 119.815 151.366 119.672Z" fill="white" stroke="#263238" stroke-linecap="round" stroke-linejoin="round"/>
<path d="M150.064 134.305L154.451 127.673L159.845 135.447C159.845 135.447 157.513 124.581 157.217 123.858C156.518 122.494 155.46 121.343 154.156 120.527C152.402 119.367 150.353 119.331 149.19 119.223C148.027 119.116 146.852 121.543 146.852 121.543L150.064 134.305Z" fill="white" stroke="#263238" stroke-linecap="round" stroke-linejoin="round"/>
<path d="M148.015 119.14C148.015 119.14 133.34 122.327 132.08 123.236C130.821 124.145 130.272 127.105 130.586 128.241C130.899 129.377 134.256 153.955 134.256 153.955L117.381 178.413C117.381 178.413 122.89 182.964 128.049 183.873C133.207 184.782 144.212 183.419 148.111 181.828L152.011 180.237C152.011 180.237 153.819 150.541 151.896 138.82C149.974 127.099 148.015 119.14 148.015 119.14Z" fill="#FFC100" stroke="#263238" stroke-linecap="round" stroke-linejoin="round"/>
<path d="M193.076 156.909L198.808 154.409C198.808 154.409 200.531 150.654 200.76 150.313C200.989 149.972 202.936 149.404 203.852 148.603C204.768 147.801 206.034 146.444 206.377 146.33C206.721 146.217 207.293 147.239 206.377 148.603C205.683 149.569 204.873 150.449 203.966 151.222L209.589 149.177C209.589 149.177 211.765 145.535 212.337 147.126C212.91 148.716 209.927 153.614 209.246 155.205C208.565 156.795 207.866 157.597 206.606 157.824C205.346 158.051 201.447 158.733 200.646 158.847C199.844 158.96 194.908 161.801 194.908 161.801L193.076 156.909Z" fill="white" stroke="#263238" stroke-linecap="round" stroke-linejoin="round"/>
<path d="M201.031 155.773C202.05 154.918 203.225 154.069 203.852 154.069C205.118 154.069 207.866 154.296 207.866 154.296C207.866 154.296 209.475 150.654 210.276 150.11C211.078 149.566 211.765 150.337 211.078 151.473" fill="white"/>
<path d="M201.031 155.773C202.05 154.918 203.225 154.069 203.852 154.069C205.118 154.069 207.866 154.296 207.866 154.296C207.866 154.296 209.475 150.654 210.276 150.11C211.078 149.566 211.765 150.337 211.078 151.473" stroke="#263238" stroke-linecap="round" stroke-linejoin="round"/>
<path d="M155.699 121.873C155.699 121.873 159.369 137.684 159.254 143.598C159.14 149.512 157.296 152.49 157.645 154.523C157.995 156.557 158.79 180.465 158.79 180.465L162.003 180.578C162.003 180.578 161.201 171.477 161.316 169.766C161.43 168.056 162.575 161.233 162.575 161.233C162.575 161.233 168.313 172.499 169.114 173.067C169.916 173.635 196.517 162.375 196.517 162.375L194.565 155.887L174.273 159.983C174.273 159.983 170.259 146.785 169.687 143.939C169.114 141.092 168.656 131.088 167.047 128.582C165.438 126.076 155.699 121.873 155.699 121.873Z" fill="#FFC100" stroke="#263238" stroke-linecap="round" stroke-linejoin="round"/>
<path d="M162.575 161.233C162.575 161.233 163.262 158.392 164.413 150.881C165.105 146.397 165.144 141.838 164.528 137.343" stroke="#263238" stroke-linecap="round" stroke-linejoin="round"/>
<path d="M161.322 130.729C161.87 134.825 162.28 139.884 161.545 142.689C160.706 145.872 159.632 148.99 158.333 152.018" stroke="#263238" stroke-linecap="round" stroke-linejoin="round"/>
<path d="M160.309 124.384C160.309 124.384 160.653 126.1 161.033 128.57" stroke="#263238" stroke-linecap="round" stroke-linejoin="round"/>
<path d="M149.341 146.51C150.829 150.17 152.143 153.74 152.143 153.74" stroke="#263238" stroke-linecap="round" stroke-linejoin="round"/>
<path d="M142.398 120.958C142.398 120.958 145.032 137.002 147.099 141.325C147.521 142.204 147.979 143.245 148.443 144.315" stroke="#263238" stroke-linecap="round" stroke-linejoin="round"/>
<path d="M174.96 153.501L179.432 152.245C179.432 152.245 182.3 148.603 182.987 147.694C183.675 146.785 185.278 146.785 186.429 146.104C187.58 145.422 189.062 142.916 189.635 143.371C190.207 143.825 189.635 145.876 189.032 146.444C188.264 147.061 187.459 147.63 186.622 148.149C186.164 148.49 192.009 147.126 192.009 147.126C192.009 147.126 195.794 143.825 196.023 144.734C196.252 145.643 194.3 148.83 194.3 148.83C194.3 148.83 191.551 151.444 190.171 152.58C188.791 153.716 185.47 154.177 184.554 154.374C183.638 154.571 182.035 154.828 182.035 154.828L175.153 157.328L174.96 153.501Z" fill="white" stroke="#263238" stroke-linecap="round" stroke-linejoin="round"/>
<path d="M193.42 149.5C193.42 149.5 191.009 150.636 189.75 151.204L193.42 149.5Z" fill="white"/>
<path d="M193.42 149.5C193.42 149.5 191.009 150.636 189.75 151.204" stroke="#263238" stroke-linecap="round" stroke-linejoin="round"/>
<path d="M186.658 148.148L184.591 148.603" stroke="#263238" stroke-linecap="round" stroke-linejoin="round"/>
<path d="M134.599 122.327C134.599 122.327 127.838 124.599 126.801 126.309C125.764 128.02 129.441 142.007 132.195 149.745C134.949 157.483 142.283 170.448 143.199 170.902C144.116 171.357 168.084 162.943 173.568 161.233C179.052 159.522 179.986 158.619 179.986 158.619L177.576 152.472L150.064 157.363L141.627 131.087" fill="#FFC100"/>
<path d="M134.599 122.327C134.599 122.327 127.838 124.599 126.801 126.309C125.764 128.02 129.441 142.007 132.195 149.745C134.949 157.483 142.283 170.448 143.199 170.902C144.116 171.357 168.084 162.943 173.568 161.233C179.052 159.522 179.986 158.619 179.986 158.619L177.576 152.472L150.064 157.363L141.627 131.087" stroke="#263238" stroke-linecap="round" stroke-linejoin="round"/>
<path d="M167.824 87.6788C167.824 87.6788 170.5 89.4728 169.144 91.4043C167.788 93.3359 164.926 93.4674 164.926 93.4674L162.425 89.5565C162.425 89.5565 165.402 86.0522 167.824 87.6788Z" fill="#263238" stroke="#263238" stroke-linecap="round" stroke-linejoin="round"/>
<path d="M165.016 90.0109C165.016 90.0109 169.12 99.6745 168.891 100.506C168.662 101.337 166.752 102.635 167.62 103.896C168.487 105.158 171.031 107.682 170.964 108.035C170.898 108.387 167.788 110.187 167.788 110.187C167.788 110.187 165.613 117.961 164.727 119.098C163.841 120.234 156.362 118.852 156.362 118.852L154.783 127.559L145.899 119.343L142.579 116.233C142.579 116.233 139.602 102.97 145.918 94.9982C152.233 87.0268 165.016 90.0109 165.016 90.0109Z" fill="white" stroke="#263238" stroke-linecap="round" stroke-linejoin="round"/>
<path d="M164.45 103.627C164.45 104.441 164.112 105.098 163.732 105.092C163.353 105.086 163.057 104.417 163.075 103.597C163.094 102.778 163.407 102.126 163.787 102.132C164.166 102.138 164.462 102.808 164.45 103.627Z" fill="#263238"/>
<path d="M164.468 112.131C163.758 112.098 163.062 111.921 162.423 111.613C161.783 111.305 161.214 110.87 160.749 110.337C160.749 110.337 160.526 113.835 161.623 114.039C162.72 114.242 164.468 112.131 164.468 112.131Z" fill="#263238" stroke="#263238" stroke-linecap="round" stroke-linejoin="round"/>
<path d="M162.159 100.386C162.159 100.386 164.444 98.4669 166.487 100.715" stroke="#263238" stroke-linecap="round" stroke-linejoin="round"/>
<path d="M156.362 118.853L152.655 117.974L155.446 123.11L156.362 118.853Z" fill="#263238" stroke="#263238" stroke-linecap="round" stroke-linejoin="round"/>
<path d="M165.016 90.011C165.016 90.011 164.208 92.5285 160.261 95.8175C156.314 99.1065 152.782 101.2 152.794 102.108C152.806 103.017 153.397 103.867 152.601 104.088C151.953 104.17 151.294 104.06 150.709 103.771C150.709 103.771 148.792 109.195 148.503 113.022C148.385 115.548 148.773 118.072 149.642 120.449C149.642 120.449 141.138 120.904 136.233 117.208C131.327 113.512 129.947 109.326 130.489 105.696C131.032 102.067 132.587 90.603 140.132 84.9878C147.677 79.3725 158.489 79.6058 162.159 81.8961C165.83 84.1864 168.487 85.8668 167.812 87.6788C167.137 89.4907 165.016 90.011 165.016 90.011Z" fill="#263238" stroke="#263238" stroke-linecap="round" stroke-linejoin="round"/>
<path d="M147.195 204.223C146.97 204.224 146.748 204.175 146.544 204.079C146.114 203.846 145.784 203.466 145.617 203.009C145.449 202.552 145.456 202.05 145.634 201.598C148.358 194.218 151.48 181.056 148.28 177.127C147.533 176.529 143.031 175.333 118.779 177.821L117.014 178C115.32 178.144 113.874 180.572 113.5 181.409C113.42 181.623 113.295 181.817 113.134 181.979C112.972 182.141 112.777 182.267 112.563 182.348C112.348 182.429 112.119 182.463 111.889 182.449C111.66 182.434 111.437 182.371 111.234 182.264C110.819 182 110.514 181.597 110.375 181.128C110.235 180.659 110.271 180.156 110.475 179.711C110.71 179.185 112.885 174.544 116.754 174.209L118.472 174.036C144.314 171.369 149.268 172.714 150.775 174.556C156.464 181.541 149.57 200.868 148.756 203.051C148.65 203.382 148.443 203.673 148.164 203.883C147.884 204.093 147.546 204.212 147.195 204.223Z" fill="white" stroke="#263238" stroke-linecap="round" stroke-linejoin="round"/>
<path d="M253.735 148.029H214.133L204.973 178.82H244.574L253.735 148.029Z" fill="#D9D9D9" stroke="#263238" stroke-linecap="round" stroke-linejoin="round"/>
<path d="M176.003 177.133L175.502 178.82H244.574L245.08 177.133H176.003Z" fill="#D9D9D9" stroke="#263238" stroke-linecap="round" stroke-linejoin="round"/>
<path d="M205.545 177.133L205.045 178.82H244.574L245.08 177.133H205.545Z" fill="#263238" stroke="#263238" stroke-linecap="round" stroke-linejoin="round"/>
<path d="M244.008 183.442H237.306V272.353H244.008V183.442Z" fill="white" stroke="#263238" stroke-linecap="round" stroke-linejoin="round"/>
<path d="M244.008 183.442H237.306V198.129H244.008V183.442Z" fill="#263238" stroke="#263238" stroke-linecap="round" stroke-linejoin="round"/>
<path d="M325.422 178.838H155.289V183.777H325.422V178.838Z" fill="white" stroke="#263238" stroke-linecap="round" stroke-linejoin="round"/>
<path d="M275.624 273.077H205.112C212.087 269.821 219.702 268.135 227.41 268.137H253.403C261.112 268.133 268.727 269.82 275.702 273.077H275.624Z" fill="white" stroke="#263238" stroke-linecap="round" stroke-linejoin="round"/>
</svg>
