<svg width="218" height="218" viewBox="0 0 218 218" fill="none" xmlns="http://www.w3.org/2000/svg">
<circle cx="108.772" cy="108.772" r="108.772" fill="#FFC100"/>
<g clip-path="url(#clip0_254_1434)">
<path d="M105.317 38.2173C98.8659 38.2173 93.6317 43.5255 93.6317 50.0683V72.8073L111.014 102.04C111.623 101.645 112.329 101.422 113.108 101.422H120.898C123.04 101.422 124.793 103.2 124.793 105.373V113.273C124.793 115.446 123.04 117.224 120.898 117.224H120.046L138.013 147.444C141.031 152.53 141.153 158.875 138.305 164.06C138.207 164.257 138.086 164.455 137.964 164.628H167.641C174.092 164.628 179.326 159.319 179.326 152.777V97.4722C179.326 90.9294 174.092 85.6212 167.641 85.6212H161.798V67.8447C161.798 64.561 159.193 61.9192 155.955 61.9192C152.717 61.9192 150.112 64.561 150.112 67.8447V85.6212H140.374V50.0683C140.374 43.5255 135.14 38.2173 128.689 38.2173H105.317ZM113.108 54.0186H120.898C123.04 54.0186 124.793 55.7962 124.793 57.9689V65.8696C124.793 68.0422 123.04 69.8199 120.898 69.8199H113.108C110.965 69.8199 109.213 68.0422 109.213 65.8696V57.9689C109.213 55.7962 110.965 54.0186 113.108 54.0186ZM109.213 81.6709C109.213 79.4982 110.965 77.7205 113.108 77.7205H120.898C123.04 77.7205 124.793 79.4982 124.793 81.6709V89.5715C124.793 91.7442 123.04 93.5218 120.898 93.5218H113.108C110.965 93.5218 109.213 91.7442 109.213 89.5715V81.6709ZM148.165 105.373C148.165 103.2 149.917 101.422 152.06 101.422H159.85C161.993 101.422 163.745 103.2 163.745 105.373V113.273C163.745 115.446 161.993 117.224 159.85 117.224H152.06C149.917 117.224 148.165 115.446 148.165 113.273V105.373ZM152.06 125.124H159.85C161.993 125.124 163.745 126.902 163.745 129.075V136.975C163.745 139.148 161.993 140.926 159.85 140.926H152.06C149.917 140.926 148.165 139.148 148.165 136.975V129.075C148.165 126.902 149.917 125.124 152.06 125.124ZM78.0509 84.8558L92.6092 109.323H77.8074L66.1218 125.124L60.1329 114.952L78.0509 84.8558ZM85.2083 73.943C83.6746 71.3753 80.9723 69.8199 78.0509 69.8199C75.1295 69.8199 72.4272 71.3753 70.8934 73.943L24.7596 151.518C23.1772 154.184 23.1285 157.517 24.5892 160.233C26.0499 162.949 28.8739 164.628 31.917 164.628H124.185C127.228 164.628 130.028 162.949 131.513 160.233C132.998 157.517 132.925 154.184 131.342 151.518L85.2083 73.943Z" fill="white"/>
</g>
<defs>
<clipPath id="clip0_254_1434">
<rect width="155.808" height="126.41" fill="white" transform="translate(23.5176 38.2173)"/>
</clipPath>
</defs>
</svg>
